<?xml version="1.0" encoding="utf-8" ?>
<svg baseProfile="full" height="300mm" version="1.1" viewBox="0,0,200,300" width="200mm" xmlns="http://www.w3.org/2000/svg" xmlns:ev="http://www.w3.org/2001/xml-events" xmlns:xlink="http://www.w3.org/1999/xlink"><defs /><rect fill="#222222" height="300" width="200" x="0" y="0" /><text fill="#FFFFFF" style="font-size:12px; font-family:Arial; font-weight:bold;" x="10" y="20">Over 1km Runs</text><text fill="#FFFFFF" style="font-size:4px; font-family:Arial" x="10" y="280">ATHLETE</text><text fill="#FFFFFF" style="font-size:9px; font-family:Arial" x="10" y="290">Tao</text><text fill="#FFFFFF" style="font-size:4px; font-family:Arial" x="65" y="280">SPECIAL TRACKS</text><rect fill="yellow" height="2.6" width="2.6" x="65" y="283" /><text fill="#FFFFFF" style="font-size:3px; font-family:Arial" x="70" y="285.5">Over 20.0 km</text><rect fill="red" height="2.6" width="2.6" x="65" y="287" /><text fill="#FFFFFF" style="font-size:3px; font-family:Arial" x="70" y="289.5">Over 40.0 km</text><text fill="#FFFFFF" style="font-size:4px; font-family:Arial" x="120" y="280">STATISTICS</text><text fill="#FFFFFF" style="font-size:3px; font-family:Arial" x="120" y="285">Number: 30</text><text fill="#FFFFFF" style="font-size:3px; font-family:Arial" x="120" y="290">Weekly: 2.0</text><text fill="#FFFFFF" style="font-size:3px; font-family:Arial" x="141" y="285">Total: 397.4 km</text><text fill="#FFFFFF" style="font-size:3px; font-family:Arial" x="141" y="290">Avg: 13.2 km</text><text fill="#FFFFFF" style="font-size:3px; font-family:Arial" x="167" y="285">Min: 1.4 km</text><text fill="#FFFFFF" style="font-size:3px; font-family:Arial" x="167" y="290">Max: 98.8 km</text><polyline fill="none" points="17.276385647652205,31.799999999999272 17.510270366357872,32.45087276391496 18.013122511576512,33.30146411321766 18.285013497050386,34.14514553576737 18.343484676719527,34.86483969650726 18.112523517018417,35.56385714000862 18.106676399038406,36.13889934463441 19.165004751150263,41.36889430464362 19.214705253878492,41.489390936487325 19.384271674935007,41.6133298517052 19.67370401431981,41.64087176710382 19.849117553341785,41.73382555500939 19.977754148640088,41.87497708243973 21.328438399126753,44.26412960286689 21.88976172399998,44.47756098699392 22.459855725814123,44.511985269320576 22.544638936349656,44.93884326726038 23.234598856506636,44.721972582745366 24.17598484926566,44.1642983013262 24.936110185051803,44.00938703906286 25.18461269866384,44.00594455798637 25.938890916469973,44.60837306115718 26.582073892874178,44.952612784491066 28.958927346669952,46.58770047056896 29.189888506385614,46.818327111483086 29.248359686054755,46.81144275841871 29.529021348498645,46.439685474688304 32.07836478231184,48.12632709704485 32.554904896664084,48.49806462358538 34.66571448290779,49.902367098922696 36.40230851926026,50.95555318460174 37.358312306925654,51.47524978284855 38.0862784938945,52.10851095922408 38.50434742856305,52.32877275532519 38.723614352347795,52.35630537238467 38.55404793129128,52.345980643774965 38.124284760677256,52.12916056752874 38.06289002201811,52.14636856418292 37.42847772255482,52.906952699646354 36.97824963905441,53.591806987569726 36.566027822336764,54.32138424981167 36.285366159907426,54.94082348378288 33.97867812174081,61.007248064968735 33.72725204913877,61.43044375877071 33.277023965638364,61.963731117910356 32.93496756454988,62.263056229781796 32.46135100918764,62.57269992992951 28.707501274053357,64.20000000000073 29.87107774960168,63.67707122088541 29.952937401132658,63.65986947012061 29.990943667915417,63.759639494932344 29.441314578973106,62.32842570664434 28.099401005456457,61.0588575977381 26.31310646639031,60.329435086994636 25.36294979667582,60.60813151383263 24.848403415540815,61.24465122151014 24.708072584311594,61.330666420122725 24.33970415237127,61.36851303374351 24.243226705904817,60.93155393194684 23.90701742276724,61.096704535139 24.240303146914812,60.934994578263286 24.7109961433016,60.58748741790987 24.77531444095075,59.95095454326656 25.193383375619305,59.15613072348424 25.243083878332982,58.5126873504596 25.213848288505687,58.33031867626414 24.87763900536811,57.79008834549677 24.591130224973313,57.13973518507919 24.503423455462325,57.04338543613267 24.03565401805099,56.85068506134485 23.828081330211717,56.69239459309392 23.655591350179748,55.63251634847984 23.556190344737843,55.61186901842302 23.439247985370457,55.22300846199505 23.407088836553157,54.71713848764557 23.521107636930537,53.62966282389971 24.032730459060986,52.57312389738581 24.178908408255666,51.98117141123657 24.184755526221124,51.74714063973806 24.132131464517443,51.60947467411097 23.848546243083547,51.27563222828394 22.293212863747613,50.2603166166009 21.638335651397938,49.551297304889886 21.354750429978594,49.523762254870235 20.565389504350605,49.682088466306595 20.275957164965803,49.42738939166156 20.19702107241028,49.090082066104515 19.930977204901865,48.690815700967505 19.863735348262708,47.84063696488374 20.18240327750391,47.496428570491844 20.237950898197596,47.09370000966737 20.442600027061417,46.85274885443869 20.56831306334061,46.529182996582676 20.75249727931805,46.24003624702891 20.831433371888124,45.98186727991924 20.82850981289812,45.634196418552165 20.53615391452331,45.31061813491033 20.518612560626934,44.85966842725247 20.378281729412265,44.17806815469885 20.48352985281963,43.88201499013303 20.30519275480765,43.4723554736629 19.930977204901865,42.89056101897586 19.147463397253887,42.050554935129185 19.64739198346797,41.138228046838776 19.714633840092574,40.88001755942605 19.796493491652654,39.97798575865818 20.74080304338713,37.32682775880676 21.229037393670296,37.843304492591415 21.737736656839843,38.27713844826576 22.28444218679215,38.652434463252575 22.831147716759006,38.951979471519735 23.828081330211717,39.3307104893247 23.86316403800447,39.48564460212947 23.784227945448947,39.47531568483464" stroke="#ffd200" stroke-linecap="round" stroke-linejoin="round" stroke-width="0.5"><title>2025-08-23 30.5km</title><desc>1755940578000</desc></polyline><polyline fill="none" points="64.58931731339544,31.80000000000291 65.0466979148332,32.02833452347841 65.5744447625475,33.00394257616426 64.46617638226599,36.01376561928191 64.95874010690022,38.089477852525306 65.92627599439584,39.2311099091894 66.92899500532076,39.604733455285896 67.61506590736099,40.663329510280164 68.01967182406224,41.43132687617617 67.94930557766929,42.28234735649312 68.61778491816949,42.801260411855765 68.45946086384356,44.0258896004525 68.1955874399282,44.52404158707941 67.15768530592322,45.06370476470329 66.82344563573133,44.79387336758373 67.05213593645021,45.084461010133964 66.62993845820893,45.06370476470329 66.61234689655248,44.79387336758373 65.8559097481193,46.91100172472943 65.46889539295807,46.744953294764855 65.1874304076191,45.54109783573949 65.3809375850251,45.66563496127492 65.34575446182862,45.45807304000482 65.24020509235561,45.852440496426425 65.08188103802968,45.72790349338902 64.95874010690022,46.51663646653469 64.46617638226599,46.5581486375595 64.60690887493547,47.533682043955196 64.37821857421659,47.845021437926334 62.619062414974906,47.450658119356376 62.72461178456433,47.16007409739541 62.619062414974906,47.409146143414546 62.12649869034067,47.367634158435976 59.804412560071796,46.744953294764855 59.38221508183051,45.58261022005172 59.822004121611826,45.52034164019278 59.593313820892945,45.52034164019278 59.716454752138816,45.27126711694291 60.49048346222844,44.274965757125756 62.40796367591247,44.10891502229788 62.93571052362677,43.54849272037973 64.81800761411432,43.27865917033341 66.80585407407489,43.69378755004436 66.80585407407489,44.067402315937215 65.11706416122615,45.084461010133964 64.7124582445249,46.2675632499886 64.97633166844025,48.01106890608207 66.78826251253486,48.21862803706608 67.29841779870912,48.77903655759292 67.01695281325374,50.10740570453345 66.13737473357469,49.96211578164366 65.7679519400699,50.19042846772936 65.20502196915913,51.76785407269199 65.53926163935103,51.78860958547739 64.80041605245788,52.847137727367226 62.53110460692551,53.26224519223615 60.613624393357895,54.94342114715255 59.663680067285895,55.233993260742864 60.455300339031965,56.0434418044897 60.50807502376847,59.42648427831591 61.95058307447471,60.27742412798398 61.70430121209938,63.141535125498194 63.604189864126965,63.47360317206767 63.63937298732344,64.11698336026166 63.83288016484585,63.390586214794894 63.762513918452896,63.86793322334415 64.06157046556473,64.07547502676607 64.02638734236825,63.847179030490224 63.780105479992926,64.1792458435084 64.02638734236825,63.97170415338769 63.81528860330582,64.19999999999709 63.83288016484585,63.88868741389888 63.780105479992926,64.1792458435084 63.95602109609172,64.05472085664223" stroke="#4dd2ff" stroke-linecap="round" stroke-linejoin="round" stroke-width="0.5"><title>2025-08-08 3.6km</title><desc>1754628467000</desc></polyline><polyline fill="none" points="107.82712765951874,48.30335145077697 107.475265957386,48.21281822466699 107.41781914888998,47.62434929785377 107.22393617019407,47.61529588972917 106.66382978719776,48.1584982307686 106.41249999994761,48.846548259643896 105.93138297868427,49.462166030018125 105.75904255316709,49.507431821140926 105.09840425528819,49.25394300017069 104.15053191487095,49.389740701109986 103.63351063826121,49.941981872936594 103.99255319146323,50.62096073348948 103.98537234039395,50.8291795503028 103.46117021274404,50.95592112460872 103.19547872341354,50.91065630393132 102.74308510636911,50.55758966189751 102.78617021272657,50.27694563027035 102.11835106377839,47.696776519325795 103.23138297870173,47.09924962015066 103.63351063826121,46.51982454951212 103.99255319146323,46.34780677496019 102.53484042550554,47.21694473038224 100.96223404255579,47.67866972120828 91.05984042549971,45.7502679442041 90.64335106383078,45.560140844208945 85.35824468082865,45.723106962694146 84.84840425531729,45.641623952571535 84.25957446807297,45.74121428492799 84.0513297872385,45.723106962694146 84.10877659573453,45.49676502528018 84.15904255319037,45.84985811638035 84.07287234041723,45.47865763754089 84.15904255319037,46.1214669306064 84.0513297872385,45.460550244912156 84.09441489362507,45.7502679442041 84.00824468085193,45.723106962694146 84.03696808512905,45.57824821010581 84.13750000001164,45.61446292736946 84.00824468085193,45.83175082326488 84.12313829787308,45.60540924988891 84.20212765954784,46.03093078053644 84.08723404252669,45.88607268802298 84.0154255318921,45.97660903225187 84.09441489362507,45.659731296647806 84.46781914893654,45.686892303667264 84.43909574465943,45.9313408753078 83.79999999998836,45.98566266000125 83.79999999998836,45.85891176109726 85.39414893614594,45.76837525914016 90.77978723400156,45.71405329975096 92.3236702127615,46.37496750531864 101.93164893612266,47.68772312087094 104.8327127659577,46.01282353595889 108.75345744678634,45.89512632791593 110.54148936169804,45.044078875398554 111.56835106379003,46.23916374431428 113.54308510635747,47.80541720591282 112.49468085099943,47.108303097469616 112.44441489357268,47.51570832010475 112.02792553187464,47.87784423325502 112.04946808508248,47.96837790821883 112.86808510634,47.93216445277358 113.7297872340132,48.92802740428306 114.2252659574151,49.24488981041213 114.23962765952456,49.11814502627385 114.2252659574151,49.30826211330714 113.90212765955948,49.48932550832251 113.40664893615758,49.55269758193754 113.12659574465943,49.779025931034994 114.08164893614594,49.80618528198829 115.11569148930721,49.498378665331984 115.53218085103435,50.213574235989654 115.86249999998836,50.17736198398052 115.90558510637493,49.96008806442842 116.19999999998254,50.06872511155234" stroke="#4dd2ff" stroke-linecap="round" stroke-linejoin="round" stroke-width="0.5"><title>2025-08-03 10.0km</title><desc>1754211931000</desc></polyline><polyline fill="none" points="148.17129977466539,61.341567998810206 148.80420736293308,60.83978556598595 149.41277235164307,60.596061981632374 149.8996243426809,60.65340874787944 150.08219383924734,60.323664501687745 150.6177310293424,60.16596044051403 150.1187077385839,59.033353009450366 150.2525920360349,58.617583285304136 150.7759579263511,58.25916005796171 150.78812922618818,57.77170290633512 149.9239669421804,56.45269217334862 149.97265214135405,55.63547238674073 150.80030052590882,53.255470138567034 150.9706987228128,53.255470138567034 150.88549962436082,52.638956531562144 151.45755071379244,51.86472606091411 151.76183320814744,50.78939842582622 152.20000000001164,50.35926491783175 149.42494365142193,47.41998174735636 149.047633358452,47.233585972426226 148.18347107438603,47.462996119531454 144.7268219384714,47.592039152033976 138.71419984975364,46.631382438281435 137.99609316303395,46.21557363180909 136.1338842975092,44.16518690405064 133.94305033812998,44.71004802464449 133.18842975213192,42.58794465845858 131.99564237415325,43.37656813846843 129.08670172805432,44.66703275486361 127.29752066120273,46.20123537375184 125.47182569495635,44.91078576495056 123.09842223895248,42.65963789691159 119.79999999998836,37.081787533694296 123.5365890308749,34.658432001189794 124.35206611570902,35.92030315984448 124.14515401958488,35.94898190948879 123.76784372655675,35.3180479764269 124.20601051842095,35.96332128200447 123.68264462810475,36.56557351908123 123.75567242677789,36.823680778892594 123.54876033059554,36.99575200489198 123.70698722766247,36.95273421941965" stroke="#4dd2ff" stroke-linecap="round" stroke-linejoin="round" stroke-width="0.5"><title>2025-06-26 5.0km</title><desc>1750894720000</desc></polyline><polyline fill="none" points="167.57658247533254,64.16520574666356 167.70212187085417,64.19999999999709 167.4658124205016,63.96513849658368 167.26642632170115,63.92164554997726 166.86765412415843,63.112672436276625 166.93411615709192,62.75602577917016 167.53965912372223,62.22540220267547 169.16428659521625,61.41641194876138 169.55567412241362,60.82488701917464 169.19382527651032,59.754911704862025 169.30459533137036,58.798011098391726 169.0535165403271,58.38915007868491 169.00920851837145,57.475729618141486 168.66212901312974,56.74498574496829 168.35935752978548,55.553162972086284 168.0196626948309,55.44876889121224 167.78335324444924,54.23952753139747 167.89412329930929,53.95243876957829 167.08180956359138,50.47249309493782 167.13350225586328,50.34199218850699 167.44365840949467,50.31589198168513 171.12860890166485,50.289791766357666 171.3944570333697,50.13319029559352 172.0147693406907,48.3757527735288 172.45784956018906,47.56662252311071 171.4461497256416,46.47036848721473 169.87321494639036,45.46110546154523 169.83629159478005,45.330596382176736 177.13234587584157,32.705011627593194 176.87388241448207,32.51356771423889 174.38524851496913,31.799999999995634 172.9304684609524,32.14808260711288 173.02646917517995,32.792031436743855 172.50954225243186,33.01828249741084 171.91876862643403,33.02698444851558" stroke="#4dd2ff" stroke-linecap="round" stroke-linejoin="round" stroke-width="0.5"><title>2025-06-08 6.1km</title><desc>1749378939000</desc></polyline><polyline fill="none" points="19.113609467400238,90.46094476606231 18.928994082816644,90.4877985998537 18.70177514787065,90.7921412949363 18.687573964474723,91.64250324204477 18.524260354955913,92.17061731939611 18.353846153826453,92.26907880434737 18.190532544336747,92.63607033371954 17.544378698192304,92.85089370831702 17.35266272185254,93.2984401871363 16.372781065030722,93.67437691280793 15.840236686344724,93.6922786089126 15.435502958542202,94.08611470940377 15.115976331348065,94.12191787617485 14.405917159718229,94.49784996895323 14.484023668599548,94.56945584208734 14.34911242601811,94.39939176814369 14.072189349069959,94.71266735816607 14.036686390492832,94.94538541710062 13.823668639030075,94.56945584208734 12.786982248479035,94.84692787568929 12.87218934908742,94.63211091812263 13.134911242581438,94.74847018919536 12.815384615358198,94.70371664738923 12.765680473326938,94.87377994681447 13.156213017733535,95.0617441426657 13.234319526614854,95.21390524727758 13.127810650854371,95.45557217187161 13.049704141973052,95.16020136757288 12.346745562070282,95.0617441426657 12.609467455593403,94.03240992328938 12.481656804709928,94.00555751405773 12.076923076878302,94.43519476703659 11.799999999988358,94.99013879706035 11.9136094674177,96.21636974639114 12.069822485151235,96.65494323590246 11.906508875719737,96.55648821329669 12.027218934876146,96.44908256868075 12.112426035455428,96.5385872845145 11.842603550292552,95.57193000904954 12.027218934876146,95.60773237972899 12.020118343178183,95.20495460365782 12.162130177486688,95.24075717095548 12.155029585759621,95.07964546707808 13.078106508852215,95.142300064741 13.156213017733535,95.46452278193465 13.22011834316072,95.19600395885209 12.815384615358198,94.84692787568929 13.859171597607201,94.58735729840555 14.036686390492832,94.98118812348548 14.065088757371996,94.70371664738923 14.342011834291043,94.41729327000212 14.398816567991162,94.50680070730596 14.675739644968417,94.43519476703659 15.073372781043872,94.13981945235719 15.407100591692142,94.03240992328938 15.435502958542202,94.11296708629379 15.797633136040531,93.71913114404742 17.125443786964752,93.48640881435858 17.572781065071467,92.87774658158742 18.289940828370163,92.49285436694481 18.254437869793037,91.37396905951755 18.595266272168374,91.15018974964914 18.80828402363113,90.59521382699313 19.120710059127305,90.29087023490138 19.411834319500485,89.44049108508625 19.319526627165033,88.44687647232058 19.47573964492767,88.20518419701693 18.80828402363113,83.3174416647671 18.786982248479035,82.49383079409745 18.96449704139377,81.73287694290775 20.334911242563976,82.14468833857973 21.314792899385793,82.68182982203143 29.295857988123316,83.58600823146844 30.33964497037232,83.2547759771769 32.61893491121009,81.92087811241072 36.24733727806597,81.8224013753279 37.61065088750911,81.38373051009694 38.34201183426194,80.94505676410336 39.19408284020028,81.93878295808099 40.05325443786569,82.69973446375661 42.42485207100981,84.33798887427838 42.928994082816644,84.94672890927905 43.362130177469226,85.84192476663156 43.36923076919629,85.51965563986596 42.78698224850814,84.48122232273454 44.19999999998254,84.3648451692643" stroke="#4dd2ff" stroke-linecap="round" stroke-linejoin="round" stroke-width="0.5"><title>2025-06-01 8.5km</title><desc>1748768919000</desc></polyline><polyline fill="none" points="59.25284974084934,98.88408296214766 59.02901554404525,98.93111542492989 58.37616580311442,98.3314496361927 57.965803108760156,97.50837227310694 57.863212435215246,96.7675960450797 58.07772020727862,96.03857206406974 59.439378238341305,95.41536934269243 59.579274611372966,95.0273352235381 59.15025906736264,95.35657640464342 58.1989637305378,95.43888650688314 58.23626943002455,95.28602482696442 58.366839378199074,95.46240366477286 58.544041450717486,95.33305921837746 58.41347150254296,94.76864485734404 58.03108808287652,94.20422686561506 57.965803108760156,93.40462849538744 56.57616580306785,93.31055761977768 56.27772020723205,93.09889778095385 56.883937823819,92.52271007723175 56.725388601014856,91.65254188292602 56.96787564759143,91.31152766918967 57.126424870453775,90.00625412213412 57.368911917030346,89.81810498247796 59.504663212399464,89.43004610756907 60.63316062174272,89.80634564786305 60.96891191706527,89.5358805164069 61.136787564784754,88.98318830716016 61.63108808285324,88.59512573922984 61.910880829032976,88.57160674052284 62.33056994818617,88.9596694125139 62.992746113974135,88.86559377088997 64.41036269429605,88.21882100371295 64.46632124349708,87.97187014386145 64.27046632120619,87.87779344295996 64.41036269429605,87.87779344295996 64.42901554401033,87.48972598540422 65.56683937821072,87.64260124936845 65.60414507769747,87.83075505467423 65.90259067353327,87.65436087403941 65.90259067353327,87.44268738904066 63.412435233127326,87.12517620399012 62.796891191683244,86.88998199269554 60.614507772028446,84.03232195177407 57.53678756474983,82.85630312812282 56.585492227983195,81.29217366347439 56.025906735740136,80.9275981260871 53.414507772016805,81.48034108986758 52.798963730514515,82.12716353966243 52.14611398964189,83.5031154321332 51.399999999965075,83.85592013328278 50.38341968914028,83.82063972699689 51.33471502590692,83.66775780257012 51.44663212430896,83.36199315438716 51.278756476647686,82.92686470215267 50.89637305698125,82.9974262193864 49.917098445585,82.60933717208536 49.2735751295113,82.67989894474158 49.11502590670716,82.53877534264029 49.08704663213575,81.11576633459481 48.825906735728495,80.91583759967034 48.527461139892694,81.00992176697036 47.94922279793536,80.82175333146006 48.13575129536912,81.42153881247941 47.99585492227925,82.03308057064714 47.85595854918938,80.86879547816352 48.06113989633741,81.13928733229113 47.87461139896186,80.93935865093226 47.9585492227925,81.00992176697036 48.01450777199352,80.62182392638351 47.79999999998836,81.35097602759197 47.99585492227925,81.02168228079972 48.01450777199352,80.16316062828992 48.17305699479766,80.3630910787615 48.005181347136386,80.70414785425965 48.07979274610989,80.9511191742713 47.967875647649635,80.88055601092492 48.089119170967024,80.77471115947264 48.06113989633741,81.00992176697036 48.11709844559664,80.61006335898855 48.01450777199352,80.75119006408931 49.17098445596639,80.93935865093226 49.39481865282869,80.51597876278538 49.57202072540531,79.3634342694495 49.67461139895022,79.4575201018888 49.86113989632577,79.03413306126458 50.402072538854554,79.21054457653372 50.43005181348417,78.94004677468911 50.52331606217194,79.28110908330564 50.38341968914028,78.81067796591378 50.53264248708729,79.23406608509686 51.68911917094374,79.48104154423345 52.51917098445119,77.26999839400378 52.98549222794827,77.42289146942494 52.60310880828183,77.09358297576546 52.593782383424696,76.77603432882461 52.76165803108597,76.63490122780058 53.52642487047706,76.68194562004646 54.169948186550755,76.92892826531897 54.28186528501101,76.38791775458958 53.955440414487384,76.1174112478111 56.147150259057526,76.9054061385541 57.3316062176018,78.54017893089622 60.85699481860502,79.86914443214482 64.31709844555007,82.05660132240155 65.2404145077453,82.82102231981844 72.62694300513249,93.72211695581791 74.66010362689849,95.47416224132758 77.04766839375952,97.17913916605903 77.80310880829347,97.97870314025931 78.17616580310278,98.57837133960857 78.54922279785387,99.76593744428828 78.53989637299674,101.48258875219472 78.42797927459469,99.58956725683674 78.88497409323463,99.47198693494283 78.92227979272138,99.15451927884715 79.45388601033483,99.22506774612702 80.20000000001164,98.9899059679301 79.97616580309113,98.09628546309978 79.65906735748285,98.10804368672689 79.84559585491661,98.42551512895443 79.87357512948802,98.10804368672689 80.02279792737681,98.03749432136101" stroke="#4dd2ff" stroke-linecap="round" stroke-linejoin="round" stroke-width="0.5"><title>2025-05-31 10.5km</title><desc>1748652092000</desc></polyline><polyline fill="none" points="96.28905445840792,101.14646682032253 96.14793399412883,101.1957149032969 95.81865291087888,101.109530730002 95.52073193079559,101.1895588952757 94.80467624176526,100.72170032845679 95.4266516212956,101.16493485645333 96.16361404574127,101.23880694081163 96.38836145176901,101.20802691735662 97.12009719238267,100.70938820875745 98.25951427419204,100.97409819289533 98.58356867358088,100.826353237906 98.62015546063776,101.1895588952757 98.75604924099753,101.45426663696708 98.99647669863771,101.66972551412255 99.1950906853308,101.72512909300349 99.44074482686119,102.66698164896661 99.91114637439023,102.6054231363778 100.35541450258461,103.22716104147548 100.72650905675255,103.44261317996643 100.56970854091924,103.88582643283735 100.10453367725131,104.09512037548848 100.1515738320013,104.93844402082323 100.30837434783462,105.0 100.96693651436362,104.75993130319694 102.06454012525501,103.92276071416563 104.02454657331691,101.97752248936376 104.92876288131811,100.61089115488357 105.11692350031808,100.06915429897708 105.19532375823474,99.3858197435693 105.15351028734585,97.10797838696453 103.77889243178652,94.36829115001092 102.91126291078399,92.91527967044385 102.52971498892293,91.99173605676333 101.1028302947816,90.5448207939371 100.88853625644697,90.20617571517141 100.62197537953034,87.20138162192234 100.87285620486364,86.22232616895053 99.26303757555434,85.50803604221073 98.63583551219199,85.13857209725029 97.4859650626895,84.25184879631342 96.99465677971602,83.43900690817463 96.59220212238142,82.97715972898004 95.4736917760456,82.21972220170937 100.61152201180812,73.30213489192101 100.44426812822348,73.09272715128463 98.93898317613639,72.6184773455825 98.63583551219199,72.59999999999854 97.71071246871725,72.84020502201747 97.71071246871725,73.24670350655288 97.39711143702152,73.44995165420187 96.9842034119647,73.44379263014343 96.38836145176901,73.29597585177544 96.74900263821473,73.41915652721946 96.94761662496603,73.31445297018581 96.81172284457716,73.43147458004387 96.91625652179937,73.34524815412442 96.81694952843827,73.3082939313972 96.79081610910362,73.44379263014343 96.89012310246471,73.38836138348779 96.90580315404804,73.56081397263551 96.72286921890918,73.42531555396636 96.90057647021604,73.41299749981772 96.79604279296473,73.45611067758728 96.90057647021604,73.3267710457585 96.8848964186327,73.49306480382074" stroke="#4dd2ff" stroke-linecap="round" stroke-linejoin="round" stroke-width="0.5"><title>2025-05-27 10.2km</title><desc>1748342410000</desc></polyline><polyline fill="none" points="147.94503523374442,98.56282638690027 146.18078155023977,98.80934619961772 145.14298526581842,100.5103253924608 143.10890454833861,102.1373366855114 142.48622677766252,101.8168657139322 142.5277386290254,102.40850406677055 138.50108904542867,101.8661689706787 136.03113388852216,100.23915567605582 134.08007687376812,99.84472640202148 131.92146060219966,98.68608632773976 129.2854580397252,98.93260600254871 125.217296604882,96.9357887081278 124.38705957727507,96.1222653647419 122.14541960286442,96.56600574245385 119.9660474054981,97.57674437898095 119.80000000004657,97.18231034062046 120.65099295333494,95.4566531231103 121.21140294685028,96.02365627064137 120.11133888538461,97.18231034062046 120.06982703402173,96.02365627064137 120.52645739912987,96.02365627064137 120.33965406788047,95.55526247093803 120.9208199873101,95.48130546417087 121.10762331844307,95.851090249751 122.00012812297791,94.37194738528342 122.76809737354051,94.9389533232461 123.45304292126093,94.47055721834477 123.45304292126093,93.97750761154748 124.11723254318349,93.6816773180617 124.71915438817814,93.6816773180617 124.13798846898135,94.49520966978162 124.71915438817814,93.65702477564628 126.89852658554446,93.63237223050965 132.0459961562883,94.84034369960136 134.43292761046905,95.08686767586914 140.32761050597765,98.48887038935209 141.80128123005852,96.78787559631746 143.06739269697573,96.2208744147938 143.64855861617252,96.61531017372909 145.78641896217596,95.0129105119413 146.82421524671372,95.35804373120482 147.90352338249795,96.2208744147938 148.0280589364702,96.66461459397397 147.57142857136205,97.60139648296172 146.6789237668272,97.9958297714038 146.1392696988769,98.80934619961772 148.3186418961268,98.36561033828184 150.45650224213023,97.42883169732522 150.6848174246261,97.03439739420719 150.66406149906106,97.45348381779331 150.58103779621888,96.14691763142764 152.19999999995343,95.0129105119413 152.19999999995343,94.42125230736565 148.96207559248433,90.57543526237714 144.66559897502884,84.19024465620168 145.03920563741121,82.63706221117172 145.93171044194605,81.2564464033203 146.22229340160266,79.1855064737174 147.34311338874977,76.27629608032294 147.4053811659105,75.29011434910353 146.11851377319545,75.63527845703356 145.43356822547503,75.24080514669186 145.4128122997936,75.56131476517476 145.62037155672442,75.21615054135327 145.5165919282008,75.51200562344457 145.86944266501814,75.65993301554408 147.61294042272493,75.19149593322072 148.23561819340102,75.38873272085038 146.61665598966647,75.24080514669186 145.84868673922028,75.6106238958746" stroke="#4dd2ff" stroke-linecap="round" stroke-linejoin="round" stroke-width="0.5"><title>2025-05-25 4.8km</title><desc>1748150210000</desc></polyline><polyline fill="none" points="177.19518415862694,75.82598421796865 177.05422954959795,75.4701794743014 175.9668654234847,75.3041370621504 171.4965906823054,77.55755902454257 171.57713617314585,78.60124131459452 170.79181763762608,81.70853858921328 170.1675900835544,82.6336032798281 167.0263159411261,84.7920723138377 166.0396336785052,86.04919279608293 167.24781604087912,87.06911541549198 167.63040712242946,88.87175769443274 167.26795241364744,89.60704171862744 166.07990642392542,90.1762921657064 166.82495221414138,91.93147170064913 168.07340732193552,92.83277462719707 167.63040712242946,93.37829827520181 167.3686342772562,94.80139702807355 169.24131693900563,95.27576121778111 168.83858948480338,95.67896996875061 168.15395281277597,95.10973386862315 167.6908162405016,96.3667949429946 168.3553165398771,96.74628365642275 168.79831673949957,97.74243839111296 167.99286183109507,97.95589952862065 167.24781604087912,99.829605002873 165.47581524262205,100.96805110934656 165.67717896972317,101.9404691249947 164.81131494324654,104.78654574856046 165.19390602468047,105.0 166.32154289644677,103.36351207371627 168.41572565794922,103.79042314992694 172.5034093176946,100.87318082722777 173.89281903451774,99.47383937728591 174.98018316086382,99.04691986145917 175.34263786952943,98.45397470468015 175.42318336036988,96.31935880742094 176.9736840588739,96.84115573171584 178.02077543968335,96.15333225183713 177.35627514030784,91.50453743673279 176.91327494068537,91.36222582988557 177.2555932768155,90.7929784750304 176.89313856803346,88.58713095565327 175.9870017961366,86.42869944364065 176.87300219526514,85.33761605374457 176.9334113134537,84.27024659130257 175.50372885121033,82.39640757896996 176.1279564051656,79.50259927670413 177.07436592236627,77.13059664951288 177.39654788572807,77.03571600826399 177.21532053139526,76.06318705820013 178.1214573031757,74.82972947425151 178.54432113014627,73.19301538135915 179.18868505675346,72.59999999999127" stroke="#4dd2ff" stroke-linecap="round" stroke-linejoin="round" stroke-width="0.5"><title>2025-05-20 4.1km</title><desc>1747694891000</desc></polyline><polyline fill="none" points="37.13599827379221,114.8946482888714 37.3835863028944,114.19987556204069 37.74506482537254,114.03055983407467 37.878762361069676,113.65689564347849 38.14120567194186,113.4467083904783 38.061977502628,113.39999999999782 38.11149510843097,113.46422402640019 38.061977502628,113.4058385510325 38.11149510843097,113.44086984389651 37.89856940341997,113.70360380989223 37.750016585952835,114.0831061517747 37.32911693648202,114.28161399774035 37.076577146799536,115.16321348204292 36.91812080817181,115.25662714655482 36.61606341265724,115.70033982799578 37.23998524600756,116.11485756431648 38.00750813621562,116.3308725778661 37.88371412167908,116.32503434571845 37.98274933328503,116.45931352423213 37.8143894734967,116.3308725778661 37.80448595233611,116.40676953795264 37.8242929946864,116.3308725778661 37.90352116397116,116.37174018512087 37.8292447552667,116.30751964543015 38.03226693911711,116.34254904026238 37.819341234077,116.30751964543015 37.77477538885432,116.37174018512087 37.78467891004402,117.06648473734094 37.477669753920054,117.6736490674084 37.210274682496674,117.91301003673652 37.46776623275946,118.12317976199847 37.08152890735073,118.53184075596073 37.08152890735073,118.53767874756159 37.730209543631645,118.77703585573545 37.680691937799565,118.42675679815511 37.48757327510975,118.08815153172691 37.19046764020459,117.91301003673652 37.517283838562435,117.66197289519914 37.789630670595216,117.03145581599892 37.75496834653313,116.40676953795264 37.8143894734967,116.29000493942658 38.15606095365365,116.43596064781741 38.38879370104405,116.75122362044567 39.062233140168246,116.6694889538885 39.75052786109154,116.81544362809291 39.65644441000768,116.10318105229453 39.00776377378497,115.51935220450105 39.250400042306865,114.90632506439943 39.47322926847846,114.69030430489147 39.517795113730244,114.36919075469268 39.79014194573392,114.41005985892843 39.626733846525894,114.34583696686241 39.488084550219355,114.39254453236572 39.47322926847846,114.65527382935761 39.23059299995657,114.92384022293118 39.00776377378497,115.53686716254379 39.66634793119738,116.14988708516466 39.88917715736898,117.49266811213965 40.32988384916098,118.2341023400877 40.21599335578503,119.13315054941631 40.5081472301099,119.10396090949507 41.03303385179606,119.24990894998336 42.0729035740369,118.90547093625719 42.845378224825254,119.33163967896326 42.845378224825254,119.44255975453052 42.53836906873039,120.09639974308448 41.95406132005155,120.38829001843987 41.255863077996764,121.03628074500739 41.15682786636171,121.00709214213566 40.75573525921209,120.18396699269579 40.0723922989273,120.52839678564851 39.517795113730244,120.94871488864737 38.933487365051406,122.04035900072995 38.07683278436889,122.86929314667941 37.45786271162797,123.67486474625548 34.30854298148188,128.5138769181067 34.34320530554396,128.68314687610837 34.9225612936425,129.09172733048035 34.08076199470088,131.1404194973038 33.8183186838578,131.07621665796978 32.40706691797823,130.22989931391203 32.2436588187702,130.2357360310125 29.05472500398173,135.73364125616354 27.480065138923237,137.6303460957679 25.340904567477992,138.07387354695675 24.429780620412203,138.38900924310292 16.79911756355432,142.28136594931493 16.363362632342614,142.80071451954063 15.937511222291505,143.6234924076707 15.823620728915557,143.61182188758175 15.784006644244073,143.70518597714909 15.69982671434991,143.6526686967627 15.69982671434991,143.44843433973074 15.556225657492178,143.25586980498338 15.417576361156534,143.23252860227512 15.353203473612666,143.378410952555 15.169988332083449,143.3492345142513 15.105615444510477,143.46010489537366 15.0511460780981,143.34339922467916 15.184843613824341,143.41342265757703 15.41262460060534,143.19751677916065 15.808765447174665,143.55930451578024 15.793910165404668,143.6818449699822 15.848379531817045,143.64099818302202 15.30368586780969,144.66799366977648 14.471790089999558,144.88389362823364 14.536162977601634,145.28651555340912 14.18953973686439,145.47323773915195 13.778543608554173,145.4207221901197 13.986517553013982,145.79999999999927 13.486389734200202,145.70663955718192 13.521052058291389,145.44406244050697 13.15462177520385,145.01810127247518" stroke="#4dd2ff" stroke-linecap="round" stroke-linejoin="round" stroke-width="0.5"><title>2025-05-17 14.6km</title><desc>1747468743000</desc></polyline><polyline fill="none" points="76.50103613076499,130.15044258929993 74.6582992306794,131.04820205893338 74.73792366468115,131.57077545703214 74.51042528194375,132.85710054080846 73.93030440591974,133.88883075460035 72.14444210159127,135.12153605589265 71.5870710638701,135.87187238038314 71.01832510705572,135.91206884038547 70.6657026138273,136.31403271954332 70.26758044410963,136.39442533814872 68.3452191100223,138.49801356577518 67.2532268728828,138.37742667506973 66.65035615873057,136.8767799493653 66.24085906986147,137.11795654748857 65.62661343649961,136.15324732507725 65.19436650926946,136.20684247987083 64.87586877349531,136.04605694567 64.81899417779641,135.79147942112468 63.863500970299356,137.26534201415052 63.101381388201844,137.9084765347652 62.748758894973435,138.7123899692524 62.851133167219814,139.62348552696494 63.22650549869286,139.75746960016113 63.260630256147124,140.97671797716612 63.772501617262606,142.34333369995147 64.4094970888691,141.9279913074788 65.08061731792986,140.7891420882952 66.05886036361335,140.70875233428524 66.62760632048594,141.3116742120328 67.40110082173487,143.22760639295302 68.60684225015575,143.4821685687857 69.58508529589744,144.00468928367627 71.01832510705572,143.87070982418663 71.21169873233885,144.07167895881867 71.51882154907798,145.4516581728385 72.77006265404634,145.8000000000029 76.64891007955885,143.10702412630053 76.86503354314482,142.651490055061 76.81953386653913,141.63323134170787 77.94565086107468,141.80740777026222 78.29827335430309,141.3250724425161 78.28689843515167,140.30680277835927 77.79777691228082,137.560112419058 77.22903095552465,135.99246172104176 77.75227723579155,135.38951383875246 77.72952739748871,134.70616934172722 76.96740781533299,133.68784502628114 77.13803160242969,132.3881294082239 77.79777691228082,131.2759907354921 77.9570257802261,130.09684480226133 78.41202254570089,129.5206671202759 78.67364568577614,128.5424988438972 79.15139228955377,127.99311325825693 76.41003677767003,125.13894875058031 75.44316865107976,125.36674834398582 72.41744016081793,125.50074790824874 67.04847832850646,124.75034847273491 65.81998706178274,124.26794642396271 64.19337362528313,122.36511993655586 62.15726309991442,122.86092966735305 61.48614287079545,120.79727604473737 60.32590111892205,121.56109991855192 57.66417004104005,122.64652570414182 55.90105757495621,124.200945990131 54.75219074211782,123.47733898471051 51.93121079634875,120.85087787446537 48.84860771038802,115.66479289241397 52.29520820872858,113.40000000000146 52.78432973159943,113.92264820689161 53.08007762907073,114.63291016685253 52.87532908463618,114.57930563342234 52.56820626795525,114.0298578216316 52.93220368033508,114.6865146769851 52.363457723520696,115.89260999244289" stroke="#4dd2ff" stroke-linecap="round" stroke-linejoin="round" stroke-width="0.5"><title>2025-05-12 8.9km</title><desc>1747004623000</desc></polyline><polyline fill="none" points="97.66707147826673,126.40073481045692 97.45877428885433,127.00127507291836 96.47283425883506,128.5517275043021 95.53318249314907,129.68178051287032 95.213793469331,130.1894771771149 94.99623862703447,130.59344718608554 94.95457918915781,131.09567562160373 94.50095419879653,131.62519362071907 94.05658686134848,132.52044841816314 94.03807155560935,132.78247118219588 93.9408662005444,132.88618814721121 93.95475267985603,133.47027440926104 94.03344272921095,133.39385229537947 93.9316085476894,133.51940284938973 93.96863915913855,133.23009022971746 93.83440319262445,133.0608688654538 93.96401033271104,133.21917273961662 93.97326798556605,133.40476974735793 93.51038534234976,134.38733067168505 93.61684835029882,134.4692098777923 93.4687259044731,134.4637512682275 92.94566851767013,135.6318801459347 92.2513445528748,137.67876920127674 92.2513445528748,138.0062636811017 91.93195552905672,138.48658504173727 90.76086244179169,141.23742767456133 90.46461755011114,143.74798543161887 90.5664517316327,145.29791910082713 90.64514178098761,145.5707897793327 90.9089848875883,145.79999999999927 91.20985860566725,145.7072245609088 92.96881264983676,144.49021317604274 93.130821574945,144.2391667881384 93.14470805425663,143.8953403445921 93.20951162429992,143.81893414755177 94.8110855697596,142.74923514443435 95.29711234511342,142.5418418759764 95.51003836098243,142.7601505558123 96.2321352843719,142.48726455726137 99.58340562111698,140.92087014875142 99.90279464493506,140.58793679779774 100.88873467495432,140.34778677645227 101.22201017805492,140.12946757536702 101.19423721946077,140.03668162654867 101.36087497099652,139.8620252562796 102.39310326534905,139.43083973259127 102.57362749619642,139.2889297604488 102.39310326534905,138.92869494718252 102.30052673671162,138.94506931312208 102.32829969530576,139.01602483696843 102.39773209177656,138.9123205758733 102.44864918253734,139.03239917433893 102.5597410168848,139.06514783300008 103.12445784159354,138.79769982678408 103.18926141166594,138.68853696455335 103.08742723014439,138.32829782985573 103.22166319665848,137.85343319054664 103.1661172794702,137.78793426600168 103.08742723014439,137.90255732769583 103.14297314730356,137.90801556217775 103.19851906449185,137.70606048979243 103.0966848829994,137.44406350579447 102.92078947857954,137.30214790012178 102.56899866976892,137.187523463268 102.09685837372672,136.74539817615732 101.85615939923446,136.75085653684073 101.53214154898888,136.9964821517824 101.09240303796832,137.00739881781192 100.92576528640348,137.22027332916696 100.99519768287428,137.4822714847287 101.37939027673565,137.61327004815394 101.37476145030814,137.67876920127674 101.45808032609057,137.6569361597758 101.37013262388064,137.6678526817268 101.62934690405382,138.0280965702441 101.74043873843038,138.11542803148768 101.93947827501688,138.10451160716912 101.99039536574855,138.2791741106048 102.31904204245075,138.50295955232286 102.57362749619642,138.23005034312519 102.6245445869281,137.91347379607396 102.99947952793445,137.88072438379822 102.87913004070288,137.76610127211825 102.78655351206544,137.4986463239111 102.60602928121807,137.42768864875688 102.61991576050059,137.22573163806737 103.02262366010109,137.38948062816053 103.1707461058977,137.5914369780694 103.22629202311509,137.85889143038366 103.0966848829994,138.3173814519796 103.11520018870942,138.53570855742873 103.52253691473743,138.96144367371744 104.96673076151637,137.90801556217775 105.09633790160296,137.60235351429583 104.59179582053912,133.58490736122258 104.62882643198827,131.73437189271863 104.77694887778489,130.10759096686525 104.68900117560406,129.0048436121906 104.69825882845907,127.20327335888214 105.20280090955202,125.2487692167997 107.06358913521399,122.50796716125478 107.52647177840117,121.14296986550835 107.37834933257545,121.02830839624949 107.40149346477119,120.93548701428881 107.63756361277774,120.43315654597609 108.72996665071696,118.76778574254786 109.35485821904149,117.46275149511348 109.31782760756323,117.35354206369448 108.70682251857943,116.94946509313013 108.56795772560872,116.75288592654397 108.80865670007188,116.15222257254936 109.53538244988886,114.79251250216475 109.51223831772222,114.67237569764984 108.27171283398638,113.71673174211901 108.46149471765966,113.57474879557412 108.23931104893563,113.78226219681892 108.27634166038479,113.71673174211901 108.19302278460236,113.72219261661303 108.16062099958071,113.78772306416431 108.30411461897893,113.8150273919382 108.0773021238274,113.541983442934 108.36428936259472,113.47645267322878 108.36891818902222,113.39999999999782 108.45223706480465,113.4382263512307 108.39206232118886,113.46553086992208 108.38743349476135,113.4054609091072 108.44297941194964,113.46006996738288 108.38280466833385,113.42184363286287 108.43835058552213,113.46553086992208 108.38280466833385,113.498296272679 108.3550317097397,113.39999999999782 108.40131997407298,113.48737447414533 108.419835279783,113.4054609091072 108.3504028833122,113.42730453958939 108.4152064533555,113.50375717105271 108.36428936259472,113.43276544570836 108.36428936259472,113.50375717105271 108.0773021238274,113.58567057500113 108.59110185774625,114.09353068338896 106.24428685673047,117.99241385330606 105.97118609727477,118.07431990259283 105.83695013073157,118.02517628912392 105.3879539668269,117.61564429832288 105.62402411486255,117.50097473974893 105.37869631397189,117.59926294891557 105.06856494303793,117.2989372585289 104.9204424972122,117.35900254092121 104.94358662937884,117.53919795516049 105.74900242852164,118.36918056899594 105.80454834570992,118.62035680210101 105.00376137296553,119.88713944355186 105.04079198444379,119.65235025631773" stroke="#4dd2ff" stroke-linecap="round" stroke-linejoin="round" stroke-width="0.5"><title>2025-05-11 17.9km</title><desc>1746934812000</desc></polyline><polyline fill="none" points="141.01842602423858,113.39999999996508 141.7641983127687,116.54861134244129 130.57761398609728,120.09991670760792 130.14258015120868,121.01519552437821 139.58902913809288,137.96570950606838 140.64553988003172,140.1622579380928 140.42802296264563,140.74800176688586 141.85741984879132,142.94453205051832 141.17379525105935,144.00618321812362 141.2359429418575,145.32409035644378 139.8065460555954,145.79999999998836" stroke="#4dd2ff" stroke-linecap="round" stroke-linejoin="round" stroke-width="0.5"><title>2025-05-09 1.4km</title><desc>1746749326000</desc></polyline><polyline fill="none" points="167.9965200999286,119.3840434163867 166.74953455722425,118.97040545771597 166.09322637703735,119.21858833268925 165.69944146869238,118.86010186182102 164.97750247037038,119.43919508140243 164.03679407865275,118.66707042664348 163.46799365559127,117.2055408309534 162.76793159660883,116.92977936643001 163.18359344417695,115.137320844442 162.0022387194913,113.40000000000873 160.64586848020554,113.9515320150822 159.50826763443183,115.02701519498078 159.18011354422197,114.72367435402703 158.89571333269123,115.27520282322075 158.63319006050006,114.75125081259466 158.41442066722084,115.38550833980844 157.97688188031316,115.33035558897245 158.1956512737088,115.57854285153735 157.53934309340548,116.59886512153025 157.7581124868011,115.66127187265374 158.21752821304835,115.44066107591789 157.97688188031316,115.33035558897245 159.83642172452528,114.86155660990335 162.0678695376264,113.40000000000873 163.13983956549782,114.83398016614956 162.7241777179297,117.04008399657323 163.18359344417695,116.87462702921766 164.10242489667144,118.83252595354861 165.10876410640776,119.57707417933852 164.45245592610445,119.77010476139549 164.2993173507275,120.21131684066495 165.41504125727806,122.88614483116544 164.99937940970995,125.42306298289623 169.35289033921435,124.59581049827102 170.7748913966352,124.70611102158728 170.7748913966352,125.03701223705139 170.49049118510447,124.59581049827102 170.81864527531434,124.29248375454335 173.22510860313196,125.34033788395755 176.33163399004843,126.0297126926016 177.20671156374738,126.66393547818006 178.56308180314954,128.84233799374488 177.8630197441671,130.91042032290716 175.631571931066,133.1990738886816 172.89695451315492,133.69540504062024 173.1376008457737,134.24688269512262 174.165816994966,134.52262096860795 172.5906773621682,133.86084849204053 174.75649435725063,134.6604899668455 177.6880042294506,134.274456539104 181.21019146381877,135.32225987361744 181.91025352291763,135.87373317134916 186.13250281626824,136.17704285551736 185.60745627211872,145.35884274517593 185.69496402936056,145.8000000000029 186.24188751308247,145.66213845937455 186.4606569064781,144.33866297341592" stroke="#4dd2ff" stroke-linecap="round" stroke-linejoin="round" stroke-width="0.5"><title>2025-05-05 3.1km</title><desc>1746429236000</desc></polyline><polyline fill="none" points="27.155037830088986,154.23827318775875 27.018427179864375,154.1999999999971 26.77556380169699,154.38498678907854 26.143107087700628,154.4998058138517 25.60172414049157,155.112169268883 25.065400847001,155.3354248191281 25.085639461845858,155.8202046946244 25.257667688070796,156.1965435627426 25.065400847001,156.9747263627105 25.389218684576917,157.09591762126 25.505590719956672,157.41484051176667 25.66243998502614,157.49138168758145 25.91036301694112,157.83581545602283 26.3454932361783,157.9314910606081 27.003248218708904,158.59483663136052 26.654132112598745,159.29644208185346 26.669311073725112,159.54519062266263 26.77556380169699,159.64724093014956 26.689549688599072,159.81945032803196 26.88687618332915,159.78755974578962 26.90711479820311,159.88323142843728 26.63895315147238,159.8066940976969 26.704728649696335,159.95976863617034 27.99494034628151,160.22126983426278 28.328877491265303,160.20851371157187 28.652695328870323,160.399855193009 28.784246325376444,160.73151193938247 28.57680052318028,161.10781198875702 28.14672995766159,161.17159136340342 27.49909428250976,161.49686484527047 27.63064527901588,161.75835760188056 27.4333187842567,161.84764748257294 27.099381639243802,162.28133880712994 27.235992289468413,162.35787216025346 27.170216791215353,162.28133880712994 27.05890440955409,162.31960549907672 26.988069257582538,162.49818298818354 26.644012805161765,162.657626608976 26.219001893361565,162.7022707271426 26.067212282010587,162.5874714815982 25.829408557532588,162.5874714815982 25.73327513699769,162.86809137096498 25.793990981561365,162.95737917079168 25.66749963874463,162.95100147635458 25.510650373675162,163.17422027334032 25.470173143956345,163.53774578881712 25.616903101617936,163.90126852920002 25.859766479814425,164.19463573489702 26.497282847500173,164.45611367756283 27.094321985554416,164.56453094004974 27.610406664171023,165.10023614350212 27.63570493273437,165.34257699396403 27.519332897354616,165.66782198668807 27.089262331835926,166.1716284724862 26.63895315147238,166.3501915173365 26.33031427502283,166.3501915173365 26.320194967614952,166.43947278867927 26.188643971079728,166.41396387108762 26.193703624798218,166.50962224162868 26.355612543586176,166.43947278867927 27.06396406327258,166.54788553604885 27.306827441439964,166.41396387108762 28.29851956901257,166.70731559851265 28.430070565547794,166.84123643856947 29.345867887401255,166.88587663489307 29.411643385654315,166.9624025883968 29.254794120584847,169.25812401902658 29.38128546337248,170.46333347545442 30.975076382688712,176.5016751643816 31.73402443950181,178.56741572422106 28.36429506726563,180.14853934409257 28.22262476332253,180.2824224024298 25.384159030858427,184.89797019653633 25.00468500246643,186.01353966570605 25.029983271029778,186.5426291987933 24.782060239143902,186.55537827169974 24.94396915793186,186.30677073492916 24.766881277988432,186.59999999999854 24.989506041340064,186.5808764072608 25.090699115593452,185.88604733372995 24.979386733903084,185.8796727081717 25.01480430990341,185.52906698974402 25.0198639636219,186.01353966570605 25.212130804662593,184.95534297762424 27.149978176370496,181.90174007893802 27.144918522652006,181.64673307189514 26.927353413018864,181.46822735497335 26.47704423268442,181.39172470016274 26.3910301195574,181.19409227338474 26.26959843048826,181.2642200025184 26.284777391614625,181.3598485577313 26.360672197275562,181.3407228620381 26.380910812149523,181.27697048764094 26.259479123080382,181.28334572891254 26.254419469332788,181.33434762842444 25.880005094659282,181.71048495159994 25.181772882380756,181.8698642776908 25.00468500246643,181.09208811948702 25.22730976578896,180.8307014784441 25.131176345283166,180.82432617660743 25.01480430990341,180.32705000494025 24.80229885398876,180.35892683828206 24.387407249596436,179.93177549972097 24.26597556049819,180.07840997295716 24.392466903314926,179.62575427588672 24.63027062776382,179.2049718838316 25.43475556798512,179.06471026068903 25.480292451393325,178.85431705177325 25.627022409054916,178.7395567280655 25.35886076229508,178.65667410013702 25.343681801168714,178.3060152327962 25.181772882380756,178.26776138204514 25.00468500246643,178.38252284214832 24.959148119058227,178.4909084117644 25.055281539593125,178.59929373480918 25.186832536099246,178.4909084117644 25.024923617311288,178.58654253312852 24.918670889368514,178.3060152327962 24.847835737396963,178.50365963902732 24.43800378672313,178.8351903503535 24.296333482780028,179.3069800776757 24.27609486793517,180.05928376291195" stroke="#4dd2ff" stroke-linecap="round" stroke-linejoin="round" stroke-width="0.5"><title>2025-05-04 11.1km</title><desc>1746326389000</desc></polyline><polyline fill="none" points="71.03710251154553,185.69608769584465 71.02902271073981,185.71527799581736 70.97650400550629,185.7051778438872 70.94984066284451,185.69911774638194 70.90944165881956,185.66578712501723 70.90378579825119,185.65568690829377 70.95711248356747,185.56579439692678 71.01528704936936,185.46176018297774 70.99670350751694,185.51024232131522 71.07830949565687,185.49408164239003 71.06457383428278,185.5698345322785 71.10982071879334,185.63952653403612 71.16557134435425,185.7354782600114 71.19223468700875,186.00312676768817 71.29888805764494,186.03241604075765 71.44674841238157,186.08796435671047 71.44432447214422,186.18492045909443 71.56390552406447,186.29197474020748 71.53966612164731,186.29904431026353 71.56471350414358,186.28692504334322 71.64308757195613,186.24854723918725 71.6915663767868,186.29197474020748 71.64147161179426,186.23945773129344 72.08505267601504,186.0677650153625 72.51005019838703,186.02938612111438 72.78476342577414,186.26066656638386 73.24369611152724,186.30813374796207 73.82463378944158,186.27278587454566 74.23751161060136,186.5909109060949 74.3360851804282,186.5999999999999 74.90813507746134,186.4747715416056 74.928334579472,186.19401003123312 74.9331824599576,185.81526878652312 74.95257398188915,185.39509674527199 74.86612011327088,185.03752847505302 74.67786075450203,184.78600866035822 74.66412509313523,184.46073794356334 74.59544678628663,184.18192355366818 74.36517246332733,183.88592478329565 74.28356647519468,183.49797745142223 74.65038943176478,183.35855411157354 74.72149167885436,183.30803778656673 74.22781584963377,182.02279115115107 74.03955649086856,181.44577505337475 73.93936696087621,181.40232025323076 74.26498293334225,180.42805994460014 73.78827468581585,179.30002796089593 73.60324724736711,178.8885988478919 73.22834448999492,178.2092378144912 73.48205023528863,175.73290433977172 73.25419985257395,175.639861995905 71.58814492647798,175.6135672166297 71.56148158382348,175.28386351353083 70.51353141935033,175.39916027937716 70.30103265816433,175.26970414250763 70.14994038310397,174.60216137376938 69.94309748247906,173.00690419250668 69.69504759775009,172.01741551490295 68.58165104675209,171.7766004419641 68.17119716583693,171.53678970352303 67.65085799396184,171.42042314828905 66.81298265043006,171.31113817125834 66.37020956629203,171.58738330873985 65.97106740649906,171.48316011857014 64.98209978790692,171.3627451595089 64.64194017399132,171.35970946390626 64.1248329224436,171.2463759704765 63.82022443207461,171.29494767219512 63.48491269864826,170.90332959156058 62.947605945082614,170.77885765228666 62.223655792909994,170.59771196164365 62.08791513937467,170.66855156670363 61.96348620697245,170.64729975371938 61.88511213915626,170.66855156670363 61.34942134575613,170.4924633431533 60.965630807491834,170.37709300987808 60.78625922960782,170.2991664542601 60.19643377080865,170.06335790945377 59.5662093079809,170.03906820638258 59.056373877159785,170.12509389266825 58.70167062179826,170.27487749623788 58.42534143424564,170.67867145700393 58.295256641278684,171.12798116215527 57.982568350103975,171.47304128701717 57.886418720514484,171.695652505593 57.83955587584933,171.65517821788399 57.783805250288424,171.66529680978374 57.879954879874276,171.70981845596452 57.54221920620694,172.46968226897525 57.54706708668891,172.65988942496142 57.64240873618837,172.75701466927103 58.02862321469729,172.65483078488796 58.49886762157985,172.45754122698145 58.981231729663705,172.903711932051 59.0806132795733,172.83491632269033 59.08869308037538,172.5162227524197 59.436124515013944,172.39278867934718 59.557321527096065,172.6528073279269 59.574289108786616,172.83188120810382 59.646199335955316,172.9047236276001 59.54843374621123,173.02410276799947 59.474099578797905,173.07873328216647 59.37229408865096,173.25375065037315 59.54520182588749,173.33164727367648 59.515306562909245,173.4874381541308 59.51288262266462,173.48946139156442 59.546009805966605,173.33063563427413 59.37067812848909,173.26892537911317 59.470059678398684,173.07873328216647 59.58802477015706,173.12830507964782 59.78032402932513,173.25880889661266 59.90636892189286,173.35390330689324 60.07766069896752,173.36503129935681 60.41862829296224,173.30736789127968 60.4493315360196,173.24768075049815 60.282887639430555,173.23554093638086 60.60850361188932,173.19912137907886 60.60446371148646,173.1606783259922 60.37903726901277,173.15056170114576 60.3612617072431,173.12122341385066 60.62466321350075,173.10503672469167 60.68768565978462,173.09593169707387 60.74666820566563,173.10503672469167 60.78060336905037,173.19507475095952 60.829082173881034,173.14651504748053 60.89856846080875,173.14449171985007 60.83716197468311,173.2416108458351 60.81453853243147,173.38728723599388 61.044812855387136,173.78687150709493 60.94947120588404,173.97603454462433 60.7717155881619,173.83643874198106 60.63274301430647,173.71403743975225 60.38388514949838,173.82025355753467 60.35802978691936,173.93152601300517 60.40731657183278,174.13383544579438 60.311166942250566,174.15001997062882 60.299855221121106,174.10247783205614 60.29339138047362,174.13687004679196 60.237640754916356,174.10146629400015 60.151994866380846,174.09944321749435 59.82233899351559,174.36547321450143 59.811835252465244,174.34119709422293 59.81749111303361,174.29972521157651 59.826378893918445,174.12675470547538 59.82880283415943,174.12877777480253 59.86677789794703,174.01649662267118 59.84173051545076,173.96086121049711 59.877281638993736,173.9295028918168 59.83203475447954,173.9750229899446 59.86920183818802,174.01143887455146 59.840114555285254,174.1753082225282 59.811027272389765,174.27241433752806 59.82233899351559,174.36648471784883 60.09866818106093,174.1429392452019 60.231984894355264,174.09742014045423 60.252992376448674,174.1631698719866 60.27642379878671,174.1702505787971 60.28046369918593,174.1591237508842 60.27642379878671,174.16418140193218 60.374189388530795,174.15103150230016 60.402468691350805,174.03268139431384 60.39034899014223,173.81216095254786 60.6691021179322,173.70493313285397 60.76767568775904,173.8334040224895 61.00926173184416,173.99930026549737 61.19509715037202,173.9487225216535 61.26377545721698,173.81317252863573 61.49162583993166,173.882970957603 61.719476222646335,174.03470448837925 61.835017374163726,173.882970957603 62.06771563736402,173.86476273283142 62.39575555006377,173.83745031487706 62.64946129536111,174.03672758190578 62.91851866217985,174.10348936997934 62.870039857349184,174.07820088204153 62.88377551871599,173.9750229899446 62.94114210443877,173.87993625646777 62.97265332757888,173.79698729524944 63.25383039560984,173.51879827460198 63.57944636807224,173.447984917771 63.884054858437594,173.21530787027768 65.02896263257571,173.00892755632503 65.7472569241836,172.77724894080984 66.38717714798258,172.45349420872571 66.54069336328757,171.9435528698823 67.32039414101382,171.77862412945387 67.31473828045273,170.43477839292473 67.31393030036998,170.08461133668425 67.32524202149943,169.78199747776853 66.93175572227119,169.49455388412434 66.47605495684184,169.2060873586106 66.40980059023786,168.9945383587924 66.32657864194334,168.6726488055724 66.03893773326854,168.34264740582876 66.01469833084775,168.15638269028614 66.05832925520008,167.44570082981818 66.04701753407062,167.16728189515698 65.67777063725589,166.59927597790738 65.44830429438298,166.3147509866012 65.22287785190929,166.16489017001004 65.15339156498158,165.9157907215249 65.09279305894597,164.80790912034536 64.83585539332489,164.6013029117039 64.28158105807233,164.57091917681464 63.00820445112549,164.38557579013695 62.27698247822627,164.22149758292926 62.105690701151616,163.8943435303854 61.957830346411356,163.648209154936 61.571615867906075,163.6431445787507 61.27104727794358,163.86496988383124 60.90907220185545,164.24479285062625 60.561640767220524,164.02905571106703 60.35722180684024,163.73228063153465 59.767396348041075,163.05867004214588 59.557321527096065,162.95737010319954 58.89316190087993,161.7933378482694 58.70167062179826,160.8743469241249 58.52391500407248,160.67371464047073 58.34292746603023,160.3798498038791 57.468693018876365,158.0335939456104 57.48646858064603,157.90181746453618 57.86621921850747,157.88255763527332 58.031855135017395,157.36657893329175 58.16113194790523,157.20032299440163 57.02834387497569,157.17903386373064 56.772214189441,157.12327633650284 56.559715428255004,156.807985232796 56.34964060731363,156.76439090842814 56.000593212513195,156.07800106638797 55.51257324386461,155.59941815290904 54.52360562527247,155.1928019786742 53.95640360872494,155.24350342740354 53.07328138068624,154.21521244122732 53.0700494603625,154.2649062053656 53.06035369939491,154.25983542787662 53.061161679477664,154.25577880346827 53.06520157988052,154.26997697949992 53.03773025714327,154.27301944236297" stroke="red" stroke-linecap="round" stroke-linejoin="round" stroke-width="0.5"><title>2025-05-03 98.8km</title><desc>1746244765000</desc></polyline><polyline fill="none" points="99.8978742391082,154.35964563455263 99.64363108612088,154.44753881386168 99.59221112259183,154.45471371685926 99.29440383383917,154.32466741898088 99.10086480445534,154.19999999999982 98.96088823708124,154.212556534746 98.89661328267175,154.31031732949668 98.74878088754122,154.38296434444965 98.65951011752622,154.46547605707883 98.55809852279708,154.5910354278294 98.33385034852836,155.1156690143148 98.27743122188258,155.21341675894837 98.22815375683786,155.24031956010413 98.17816212563412,155.29950534610134 97.77822907598602,155.3317882838778 97.58683254508287,155.36048409925934 97.1211962087109,155.3766254419279 96.94194050253282,155.2125199970692 95.69643471934978,155.00357123845242 95.22651338601645,155.80973709144655 94.92584943262045,156.1908165477057 94.79015786220407,156.41048789549814 94.73730956636064,156.51090670831218 94.5401997061781,156.99146182973527 94.34880317527495,157.19317722726146 94.22168159877765,157.49439436427838 94.00743175075695,157.88434307251646 93.91601848226492,158.0179065464922 94.00671758459794,158.16670570329006 93.90316349138448,158.35314822387363 93.82103438297418,158.5368966466758 93.85745685713846,158.78069173553604 93.83603187233894,159.32561373026192 93.82531937993554,159.3641509613194 93.46180880445536,159.8964800450658 93.33397306179904,160.14022620068454 93.24041729482633,160.1922003494169 92.96474915703948,160.4207026523859 92.76692513069429,160.6635339075351 92.52767946706444,160.8633479333139 92.60838024315672,161.0846597298455 92.59766775075695,161.13035478750544 92.33913960080463,161.1617139624973 92.26843715096038,161.14737835765163 92.25272549543661,161.2548946547513 92.47625950354268,161.77990806870366 93.01973995136359,163.32335531566014 93.16257318338103,163.5839957043786 93.32683140019799,163.7496897111746 93.46180880445536,163.98165451865452 93.59964287334878,164.1751017262427 93.65606199999456,164.31839239636838 93.74390443768789,164.40705198228216 93.5260837588612,164.66048662874846 93.67463032015803,164.90406153362437 93.74033360688554,165.04017311183907 93.96458178115063,165.42521081096038 94.12741166564956,165.63562915516104 94.17883162917497,165.66875825721354 94.28024322390411,165.70457332068418 94.49449307193208,165.88454115246122 94.65803712259003,166.00272638528304 94.96441440526542,166.18895348334718 94.98155439310722,166.55423025301434 95.04440101519504,166.63838436879496 95.17580758865006,166.70821358745616 95.36220495643283,166.72432792048266 95.48147070516643,166.77356592319438 95.56074314892976,166.52110547437724 95.5778831367752,166.5023048524008 95.64501475582438,166.50857173218037 95.67500973454662,166.4861899921052 95.71143220871454,166.44590267392732 95.77713549543842,166.32682986858845 95.85212294224766,166.24267188867043 96.066372790272,166.1209095593772 96.19635103140536,166.08151539675328 96.29276346301776,166.0734574716721 96.31775927861963,166.1021078284757 96.5520057791291,166.2614732300549 96.8169614245162,166.54617288930967 97.14047869503338,166.8040037825408 97.62539751773147,167.0116937669768 97.98462309625029,167.22743395983116 98.46882775278573,167.04213055826904 98.52738937791219,167.05197772622296 98.69593259169051,167.04213055826904 98.84447915299097,167.06898643721934 98.93589242147937,167.14060159485507 99.01516486524997,167.28651514004605 99.08586731509786,167.46912644547683 99.11086313069973,167.58728408383058 99.26012385815557,167.96322652200752 99.2415555379921,168.14313446533606 99.24512636879444,168.29081652697096 99.22013055319258,168.42238511214236 99.23369971023203,168.51457110498131 99.29297550152114,168.59691093340734 99.34225296656587,168.801861169949 99.33368297264315,169.19026517008115 99.73290185612859,169.43278266768812 99.75932600405213,170.13254475577787 99.83145678622532,170.40008179538836 99.85002510638515,170.53697794393884 99.84431177710576,170.62287215789956 99.88859007902647,170.7373960869736 99.8807342512664,170.76871088766848 99.85073927254416,170.7866049946806 99.84502594326477,170.8402870328946 99.8600234326259,170.8912845762652 99.92001339007038,170.97180623368558 99.95000836879626,171.07916695892345 100.45635217629388,171.2554138039177 100.51062880445897,171.31177604325148 100.58990124822958,171.46833536586473 100.59275791286927,171.5962640196667 100.6763153535976,171.68482859974392 100.71702282472688,171.77070830220828 100.73416281256505,171.8208042940414 100.73130614792535,171.84943040926373 100.71702282472688,171.86284885925943 100.73130614792535,171.94335900275655 100.95841098683013,172.25286689407403 100.96341014994687,172.4102990251845 101.02697093819734,172.79581344591725 100.99911845795577,172.91835057258731 101.12981086524815,172.97291018823807 101.25121911246242,172.99437614647377 101.49760643768968,172.99527055992758 101.98752442350815,173.0382022673648 102.26747755826,173.04267430462824 102.27461921985741,173.02836377502854 102.30390003242428,173.02836377502854 103.0430620081097,173.62311976629871 103.07091448835126,173.62938007891626 103.18375274164646,174.15969706164697 103.50298501520228,175.35611194801868 103.5379791570449,175.6761932449499 103.66938573049993,176.1071168982735 103.70009487538118,176.3297202910444 103.74794400810788,176.40302583804942 103.83721477811923,176.4915278239755 103.87649391692321,176.51119477559996 103.98647550557507,176.53354351525468 104.06217711854333,176.53354351525468 104.10859791894836,176.55499823624905 104.69064333941424,176.48527014562387 104.70706916109702,176.52549797743495 104.70849749341869,176.76149646624208 104.73063664438087,176.80261657757455 104.78348494022794,176.81960089885797 106.19539143870861,176.81602525579456 106.31465718744221,176.83032781677048 106.4474920932189,176.86429627858388 106.50391121986468,176.85625113190372 106.6110361438732,176.89647677018138 106.68530942452708,176.90899136469488 106.85670930294509,176.89379506835985 106.70459191084592,177.73400992475945 106.74244271732823,177.75724843573425 106.8402834812623,177.763504944362 106.75172687740996,178.02984812002387 106.758154372852,178.0593418574863 107.03525084296416,178.12458512564672 107.14166160081732,178.17820926133027 107.21807737994459,178.19250895948426 107.27163984195431,178.21753335896983 106.8709926261472,179.02094643310647 106.8802767862253,179.03256350175116 107.03239417832083,179.04149969490936 107.05024833232528,179.12639294486735 107.08095747721018,179.1397970454559 107.13237744073558,179.1987747745029 107.13809077001497,179.22736985315396 107.18094073961765,179.2425609398324 107.19593822898241,179.27741095177635 107.37376560284247,179.21396592499104 107.17165657953956,181.3814850114518 107.0788149787295,182.08359182737604 107.07024498480678,182.22203946478112 107.10309662817235,182.4283658844679 107.34448479027924,183.2455714908674 107.39090559068427,183.37774417408673 107.49303135157606,183.59207280640658 107.47303469909457,183.62243548426477 107.1130949544131,183.76085186065256 107.20807905370384,184.18590651765317 107.33305813172046,184.53057423702376 107.34305645796121,184.819867368426 107.52445466261997,185.20914369099592 107.57873129078871,185.29396012438337 107.67942871935884,185.38770337594133 107.71299452888343,185.46894648482657 107.6979970395223,185.9885223790784 107.74727450456339,186.51073661132932 107.36019644579937,186.5803621547202 107.03239417832083,186.56072425290495 106.85456680446077,186.5999999999999 106.65817111044089,186.24740280821652 106.4989120567443,186.2482954823522 106.27894887943694,186.22062252986325 106.19110644174361,186.24561745960045 106.10183567173954,186.20276895254028 105.84973501722925,186.19562750852674 105.6583384863261,186.15099331400643 105.44837363525949,186.13671031006743 105.15270884499114,186.0786852989636 104.85704405471552,186.1117149811971 104.76491662006447,186.1991982314671 104.79348326646868,186.21972985210869 104.80490992502746,186.20544699211723 104.81633658358987,186.20812503064553 104.80562409119011,186.20455431237633 104.81990741439222,186.2099103890787 104.82276407903191,186.2331200061808" stroke="red" stroke-linecap="round" stroke-linejoin="round" stroke-width="0.5"><title>2025-05-03 66.9km</title><desc>1746236322000</desc></polyline><polyline fill="none" points="150.19403786002658,154.58944916188193 149.59894621069543,154.1999999999971 148.93773326685186,154.8490815838304 148.51896506908815,154.38174302122206 143.9345553254243,156.6924636667245 144.11087877722457,157.67905668525782 143.53782755928114,159.62626779354468 143.69211057934444,160.17148406026536 142.76641245814972,161.9369377207331 140.8929757840233,163.02735846528958 139.74687334813643,164.22162309505802 139.63667119084857,164.81875317162485 139.239943424589,164.76682887643983 138.11588142008986,165.98704683188407 136.81549596402328,166.03897086197685 136.33060647186358,166.81782995951653 135.60327223374043,167.05148719376302 131.90047974849585,171.02362522034673 130.31356868345756,171.1793939936906 129.6523557397304,170.86785634556145 128.44013200933114,168.11592281413323 127.64667647681199,168.4274640500371 126.52261447242927,166.61013444844866 125.11202685895842,165.8053126376908 120.92434488167055,170.91977931513975 120.77006186137442,172.5034244673734 120.96842574456241,173.15245633393351 121.85004300298169,173.56783580344927 121.89412386575714,176.16394113049319 123.06226673326455,178.44849048997276 122.95206457586028,178.9157819867978 122.86390285007656,178.6302150695119 124.05408614885528,177.74755153160368 125.37651203654241,175.54087842408626 127.20586784766056,175.28126848359534 128.37401071493514,176.6831588116911 129.32174926775042,179.46095424491796 130.02704307448585,180.2916905326565 132.23108622047585,180.7589784255979 134.2808463461697,181.82335299314582 136.6171320809517,181.40798787222593 137.41058761335444,182.08295582710707 137.56487063365057,183.38096576737007 136.72733423823956,186.60000000000582 138.29220487177372,184.91260842996417 139.32810515048914,184.78280858501967 140.49624801776372,185.302007541919 144.46352568047587,182.6800412752491 146.79981141525786,180.39553236559732 147.81367126246914,180.0840067314566 148.10019687132444,177.25429695809726 150.37036131171044,177.48794398827886 151.22993813862558,176.5014327515819 150.12791656563058,169.38804697032901 148.93773326685186,166.40243875676242 149.95159311406314,165.00048811615852 150.01771440845914,164.2735475087975 148.45284377480857,161.59942552944995 149.22425887582358,158.17235166688624 150.03975483973045,156.1991656297323 150.5466847633943,155.83568221397582" stroke="#4dd2ff" stroke-linecap="round" stroke-linejoin="round" stroke-width="0.5"><title>2025-04-28 5.2km</title><desc>1745795058000</desc></polyline><polyline fill="none" points="166.92133853945415,185.15368910120742 167.02659577177837,186.60000000000582 166.95642428356223,185.9388306676119 166.50030961004086,185.81486116202723 167.00905289978255,185.87684592486767 166.76345269090962,183.9139852940425 167.9739108629292,183.0875116014795 167.14939587609842,182.426330062357 166.7108240746893,181.53786375078198 166.58802397036925,180.25681199714018 167.16693874821067,179.76091867987998 167.85111075849272,178.35588059443398 169.16682616283651,176.86818189904443 172.39471462124493,174.67793764697853 173.90340161824133,173.21087314904435 175.06123117404059,172.61164636723697 175.1138597902609,170.50400613885722 176.60500391514506,170.91727076932148 177.49969039007556,170.19405707686383 176.569918171037,164.22227320708043 175.7278603123268,161.9285624375043 176.51728955481667,160.9160146483773 176.55237529892474,160.1720985519496 176.46466093871277,159.6554884396901 175.37700287112966,158.43628301100398 175.6752316961065,156.05984318585251 176.51728955481667,154.1999999999971" stroke="#4dd2ff" stroke-linecap="round" stroke-linejoin="round" stroke-width="0.5"><title>2025-04-27 2.3km</title><desc>1745711220000</desc></polyline><polyline fill="none" points="15.350260373321362,195.05545008010813 16.015070635039592,195.0 16.436263891358976,195.11089996579176 17.15243918433407,195.14035763848005 17.338820869190386,195.22699753425331 18.030047432701394,195.6913792856849 18.15185593539354,195.8837125104983 18.52315173279203,196.70673367727977 18.53489231135609,196.85054140199463 18.6185439336914,196.94236974709747 18.866563656054495,197.3876430313303 19.074958925732062,197.61980389751807 19.942294167842192,198.36997206427804 20.319460254511796,198.7528386440663 20.400176732204272,198.89489538074486 20.253419500040764,199.01269756097827 20.090518972334394,199.05254221758696 19.55779021955823,199.33664903494537 18.769703882826434,199.63460924178435 18.251650853264437,199.89618596203763 17.41073191295436,200.5042052107092 17.01155224145623,200.8852879893111 16.78994882088591,201.15030833111814 16.575683261922677,201.46035917761583 16.17503601810313,202.11681551173388 16.110462835946237,202.27269824093491 16.108995263632096,202.38354724796045 15.846299818047555,203.07287209206152 15.736231893919467,203.2304773263877 15.596812523363042,203.5924438493803 15.403092976899643,203.9578657744314 14.650228375874576,205.01425140870924 14.359649056190392,205.3692504362134 14.124837484720047,205.70173011542647 14.13511049097724,205.72943644037696 14.205553962412523,205.6809503399145 14.641422941953351,205.09044699249534 14.70746369643166,205.06793469907097 14.766166589295608,205.09217870604516 15.386949681356782,205.49739447238062 15.596812523363042,205.59609930700753 16.842781424464192,206.35974224272286 21.100208729643782,209.50050783122242 21.613859042234253,209.92638512146368 23.322113224661734,211.0239185722312 23.910609725659015,211.28011418125607 24.572484842727135,211.45494799748667 24.95405364636099,211.49303035523735 25.909443227777956,211.76825922163334 26.10609791888419,211.80287886658698 26.12517635905533,211.77691413995672 26.675515979695774,211.96385922275476 27.09377409136505,212.17503527646295 27.428380580713565,212.40178676056166 27.456264454820484,212.36197566594274 27.478278039649012,212.37063026023316 27.716024755754916,212.55237564926574 27.77179250397603,212.53160485308035 27.776195220947557,212.5091031265165 28.005136503132235,212.6025716277436 28.124009861188824,212.73238807669804 28.279572527280834,212.76008211495537 28.376432300508895,212.81373917645033 28.41458918087301,212.86047259823135 28.39551074069459,212.83797133827102 28.402848602301674,212.92624532893387 28.464486639808456,212.89335899768048 28.511448954108346,212.9072058823076 29.10875088902685,213.2360658392172 29.164518637247966,213.2897212904336 29.165986209569382,213.26722063943998 29.31127586941875,213.31741435552067 29.455097956939426,213.33299168338817 29.64588235875999,213.39530084187027 29.631206635538547,213.40741648314724 29.866018207008892,213.4576097555655 29.93059138917306,213.50780286915688 29.974618558815564,213.6670351438097 30.01717815613665,213.70857373517902 30.194754407064465,213.6999198709491 30.51615274552023,213.9024190566215 31.58014267872204,214.2364505257192 31.775329797506856,214.3316395529382 31.704886326071573,214.3368316652668 31.581610251050733,214.3039482584736 31.588948112657818,214.2866411748928 31.484750477815396,214.35240799206076 31.283693069744913,214.7712323781452 31.153079133124265,214.96506471490284 30.818472643783025,215.3319551545319 30.681988417862158,215.6157702406217 30.588063789269654,215.71787320671865 30.542569047305733,215.81305334610806 30.378200947277946,215.9739930101896 30.141921803486184,216.28548449718437 29.739806987352495,216.65926621075232 29.55929559177457,216.92402293129817 29.55782801946043,216.97247466347108 29.5813091766031,216.9690138303631 41.785640603658976,227.34639220694407 41.80325147151598,227.33947505918513 41.78710817598039,227.36195577838953 41.81792719473742,227.37233148422274 41.81205690544448,227.34639220694407 41.87516251527995,227.39999999999964" stroke="#ffc800" stroke-linecap="round" stroke-linejoin="round" stroke-width="0.5"><title>2025-04-20 36.9km</title><desc>1745145130000</desc></polyline><polyline fill="none" points="56.75598067205283,196.19042261174764 56.510305028321454,196.15020594469388 56.38064288304304,196.2788992021815 56.09402129871887,196.2788992021815 56.27145370806102,196.18237928010058 56.298751001799246,196.02151246306312 56.053075358096976,195.707821162272 56.09402129871887,195.57108351172064 55.99165644714958,195.72390792804072 56.189561826817226,195.96520899432653 56.56489961579791,195.94107892317697 56.46253476428683,196.35933237420977 56.00530509400414,196.42367884884152 55.438886248797644,196.16629261413618 55.58902136440156,195.44238902119105 55.8483456549875,195.00000000000728 56.646791497041704,195.1528255977464 57.083548197027994,195.8445585597001 56.27145370806102,196.73736710990488 55.86199430184206,196.85801608641486 55.902940242463956,196.99475135493412 55.75280512686004,196.8338863068784 55.261453839426395,196.76149692096078 55.29557545663556,197.05909727606922 55.71185918626725,197.71863973653672 56.30557532524108,199.71331768824894 56.57172393926885,200.13154978406237 64.7336147694441,202.73740412987536 65.46381737716729,202.84195809648372 66.03706054581562,202.77761721143906 66.18719566144864,202.9786822911119 67.27908741129795,205.47988614745555 68.9646953001211,211.47117170330603 71.86503276068834,218.98974898635788 72.7385461605736,222.0050063368617 72.64982995591708,222.23818111638684 70.24084378275438,223.01810520841536 70.35685728120734,223.55681086032564 72.47922186998767,227.2231212024708 72.4246272824821,227.40000000000146 72.24719487311086,227.11056174740224" stroke="#4dd2ff" stroke-linecap="round" stroke-linejoin="round" stroke-width="0.5"><title>2025-04-16 7.1km</title><desc>1744770713000</desc></polyline><polyline fill="none" points="89.29677419387735,200.39069386874326 89.06451612897217,201.26913878170308 89.8000000002794,202.48919764580205 88.94838709686883,203.41643964900868 89.68387096771039,203.4652417942125 108.84516129037365,221.42398730284185 109.54193548415788,220.78959018492606 109.00000000023283,220.05759213745478 109.65806451626122,218.3007908212312 111.012903225841,217.42238698570873 109.92903225822374,221.81438498015632 112.09677419369109,222.497579908435 113.64516129065305,219.27679259865545 113.95483870990574,219.6183926028316 113.91612903238274,217.81278895190917 115.4258064518217,217.81278895190917 115.23225806467235,216.59278141794493 116.20000000018626,216.6903821710439 115.27096774219535,224.7911535097228 115.73548387130722,224.9863505960384 115.038709677523,225.96233445918187 115.50322580663487,224.7911535097228 114.84516129037365,223.5223698981863 114.03225806471892,224.74235422178754 112.63870967761613,224.1079628833977 109.58064516144805,224.3519596827682 102.45806451630779,217.2271858456079 101.52903225831687,217.51998751654173 102.22580645163544,216.93438393931137 94.83225806453265,210.0046701185347 91.7354838710744,210.8830918436288 90.38064516126178,209.61425978282932 90.45806451630779,208.83343785608304 90.07096774200909,210.1022726369265 88.63870967761613,210.6878871988738 87.59354838728905,210.54148364672437 87.40000000037253,209.85826629176154 86.74193548387848,211.66390937633696 86.47096774214879,211.07829638361 85.077419355046,211.61510832959902 85.92903225822374,209.5166571336158 84.76774193579331,207.46699545622687 83.80000000004657,202.3915930869407 84.41935483878478,201.95237224907032 85.8516129036434,202.48919764580205 89.4129032259807,201.1715338960057 88.83225806476548,198.97541705259937 87.86451612925157,198.4873892889882 88.79354838724248,198.38978365785442 87.98064516135491,196.4376655408414 88.75483870971948,197.07210507657146 88.87096774205565,198.63379768680898 88.25161290355027,199.1218252540857 88.44516129046679,196.92569605106837" stroke="#4dd2ff" stroke-linecap="round" stroke-linejoin="round" stroke-width="0.5"><title>2025-04-07 2.7km</title><desc>1743986187000</desc></polyline><polyline fill="none" points="137.1892332790885,211.4833172984363 134.78433931490872,211.28341020396329 136.13213703106157,210.350508304502 137.69135399674997,210.3171903148468 138.82773246336728,209.1177397116553 138.48417618288659,208.65128513668606 137.47993474721443,208.8178761567542 133.59510603593662,204.48647335801797 129.94812398054637,204.7863421367365 128.49461663956754,205.45271590576158 127.67536704742815,206.48559171825764 126.53898858081084,205.21948528976645 125.87830342585221,205.0195731590502 124.92691680276766,205.48603454728436 122.60130505729467,203.6868215133145 119.80000000004657,205.18616661254782 121.279934747261,203.9866912563739 122.89200652542058,203.6201837434637 124.68907014699653,205.31944129482144 126.08972267538775,204.98625445502694 127.67536704742815,206.45227321067068 128.6267536705127,205.41939725974225 130.2916802612599,204.75302340144117 133.85938009794336,204.5531108956493 138.11419249605387,209.78410187221016 137.47993474721443,210.350508304502 135.260032626451,210.38382628977706 133.54225122346543,211.41668161815323 138.19347471464425,211.51663513187668 142.47471451887395,210.48378021882672 143.53181076678447,213.34910909665632 144.37748776515946,213.7156022690615 148.31517128867563,213.5823320870404 152.17357259383425,217.0806506925146 152.20000000006985,217.4471383648197 150.56150081555825,218.1467951485829 148.42088091361802,218.41333054842835 148.26231647643726,218.77981625653047 148.57944535068236,218.3800136390346" stroke="#4dd2ff" stroke-linecap="round" stroke-linejoin="round" stroke-width="0.5"><title>2025-04-04 2.7km</title><desc>1743741381000</desc></polyline><polyline fill="none" points="185.4756782327313,210.0010337872518 183.91208808647934,211.01883798153722 183.37717566813808,210.8734376666398 182.84226324979682,211.69737153104506 181.31982021289878,212.13357058014662 181.0317904490512,211.84277130881674 181.7312913039932,210.65533701666573 181.4432615401456,210.31606891509728 178.60411101172213,210.849204271668 177.61658039316535,210.72803725699487 176.50560844724532,209.92833330990106 175.78553403785918,208.3289168148185 175.90897536522243,207.91694404209557 177.246256411192,207.3595679031423 177.06109442026354,205.20275146087806 176.13528446527198,204.18492072810477 174.63341498281807,203.94257939298404 174.03678190079518,204.83924101808225 173.5018694823375,204.52419815507892 171.5062346906634,207.18993141049577 169.7574825535994,208.71665520008537 169.18142302613705,208.8862905316928 167.80299487092998,208.52278609176574 167.2063617889071,206.99606097525975 166.87718491605483,210.0495007589634 167.43267088895664,211.57620497715834 167.04177335242275,211.261171628983 167.0623469070997,210.70380384621967 167.57668577088043,210.67957043270872 168.62593705311883,211.50350501322828 168.83167259872425,212.1820370885107 170.39526274474338,213.29676387450309 169.71633544447832,213.73295979628165 169.8603503262857,214.12068878833088 167.12406757066492,214.87191179300135 166.69202292500995,213.82989210744563 165.37531543371733,212.32743655037484 165.29302121535875,206.65678730806394 163.9145930602681,206.87489186758467 162.68017978710122,205.85706876506447 161.98067893227562,206.05094019023818 163.60598974197637,203.77294030159828 165.00499145162757,204.49996407024446 166.0130956248613,206.19634364859667 167.4120973345125,205.05734735482838 169.11970236245543,204.8634750659985 170.60099829023238,203.28825647266058 171.1976313723717,203.19131958046637 171.42394047242124,203.8456427850906 171.0536164904479,202.73086876735033 171.44451402698178,202.29465133073973 170.72443961759564,202.39158861256146 170.62157184490934,202.82780585964792 170.29239497205708,202.44005723773444 171.21820492693223,201.93113614853064 169.98379165364895,202.51276015568874 170.06608587189112,202.92474290980317 170.39526274474338,202.73086876735033 170.9507487177616,203.02167991781607 169.24314368981868,204.7907729142462 167.370950225275,205.1058154007187 166.1571105066687,206.19634364859667 164.90212367894128,204.45149589273205 163.4208277510479,203.79717446544964 161.8778111594729,206.24481144700258 159.7793085949961,208.4985524413496 159.75873504043557,210.5826367525733 160.58167722262442,210.97037122043548 160.58167722262442,211.81853801918624 159.2238226219779,211.77007143177616 158.29801266710274,209.49212994865957 158.5243217671523,210.31606891509728 158.31858622166328,211.18847156240372 158.0305564579321,211.52773833715764 157.35162915766705,211.28540497928043 156.89901095745154,212.98173295614833 157.47507048491389,216.20472057542065 158.35973333078437,217.14979834163387 158.9152193038026,218.6279888706049 158.77120442176238,219.98500761848118 157.9276886852458,220.639281565469 157.70137958496343,219.91231039480772 157.8865415760083,219.64575370535022 158.40088043978903,219.96077521321422 157.8865415760083,220.9058370677667 158.7300573127577,222.06898462386744 159.2238226219779,225.02529070200399 162.70075334154535,227.08498899611004 165.62219808832742,227.39999999999418 166.73317003413104,227.3030735846114 169.69576188991778,225.46146369242342 173.91334057343192,226.43073395159445 174.9008711919887,226.04302635324711 177.69887461140752,222.50516339395836 177.2874035203131,221.75396609294694 175.72381337417755,221.48741160385543 175.37406294676475,221.07546313079365 175.003738964675,219.18533685526927 176.87593242921866,217.9494764012925 177.53428617492318,216.56821249781933 178.3983754661167,215.96239229821367 178.11034570238553,214.7749799345329 176.85535887465812,213.95105743722524 177.34912418399472,211.23693827605166 177.90461015689652,210.65533701666573 179.4887738575926,210.50993646483403 181.85473263124004,209.5405970308493 182.69824836798944,209.80716579512227 183.21258723165374,210.75227066515072 183.80922031390946,210.92190444873995 185.99001709651202,209.3951957525278 187.10098904243205,209.10439291133662 186.89525349694304,207.09299621389073 185.84600221470464,204.18492072810477 186.7718121695798,203.19131958046637 186.89525349694304,202.2704170037032 185.35223690536804,200.08931678670342 185.70198733278085,197.90819524091785 186.93640060606413,194.99999999998545" stroke="#4dd2ff" stroke-linecap="round" stroke-linejoin="round" stroke-width="0.5"><title>2025-04-01 8.4km</title><desc>1743465137000</desc></polyline><polyline fill="none" points="21.876637316076085,246.84992542129476 21.196263684658334,246.60021204408258 22.400001648114994,246.41292693687137 23.28972101211548,247.4117801055545 24.022431077435613,245.22678644297412 23.39439387875609,244.16550067538628 19.88785285479389,243.3539278244716 18.57944202469662,239.79547888052184 16.067293231375515,240.6694860170246 15.22991030011326,238.79661188129103 21.51028228364885,235.79999999998836 20.725235785823315,236.6740134852007 22.66168381413445,237.8601724221371 19.992525720968843,238.98389958188636 23.080375279532745,237.79774306807667 32.44859682186507,253.155150627892 35.53644638042897,251.8441691598855 36.3214928782545,252.3435910399421 37.78691300773062,254.90312105836347 36.949530076701194,253.84185395936947 35.798128546681255,255.4649675169494 37.577567275147885,254.0915640492458 38.0485951739829,254.59098388889106 36.16448357864283,254.71583877777448 39.880370335886255,259.5227304585278 35.902801412856206,261.14582725422224 36.373829311691225,263.64288989646593 37.83924944116734,263.51803703350015 37.629903708351776,264.1423010646831 32.02990535623394,264.26715378579684 32.08224178967066,263.39318414212903 32.81495185405947,264.26715378579684 32.291587522253394,263.2059047522489 34.33270841697231,265.5156794395298 38.51962307258509,265.6405318491161 37.73457657475956,265.6405318491161 38.728968805400655,263.95502192963613 38.62429593899287,260.9585470991442 39.77569746947847,261.52038737310795 40.77008969988674,262.6440661996603 40.508407534100115,263.7053163173259 38.36261377320625,263.08105179015547 34.699063449399546,265.57810564799 36.68784791091457,265.70295804337366 39.82803390244953,268.20000000001164" stroke="#4dd2ff" stroke-linecap="round" stroke-linejoin="round" stroke-width="0.5"><title>2025-03-30 2.1km</title><desc>1743318651000</desc></polyline><polyline fill="none" points="73.37060467060655,236.69418623353704 73.23831378133036,235.80000000001746 70.54839902883396,236.79938450056943 70.72478688135743,237.95656386160408 67.99077516561374,238.53515245876042 68.07896909210831,240.1657164375065 66.57967234472744,240.95469694858184 66.57967234472744,241.69107754714787 66.13870271318592,241.27028877689736 66.05050878669135,242.21706297271885 65.60953915514983,239.85012385694426 66.0064118236769,240.32351264712634 65.25676345010288,240.79690095369006 59.480061276583,241.5332818030147 60.053321797633544,241.63847897172673 60.00922483461909,243.5320239253051 58.50992808723822,242.90084313362604 55.20265585044399,243.5320239253051 55.11446192418225,245.05737395668984 56.96653437661007,244.84698114733328 58.15715238195844,250.73794371061376 57.93666756595485,249.4756008926488 58.73041290300898,248.79183043082594 55.33494673995301,250.00157748468337 54.6734922924079,251.15872388603748 54.629395329160616,249.89638221397763 57.5838918609079,248.79183043082594 58.81860682903789,249.89638221397763 58.15715238195844,250.58015104645165 59.03909164504148,263.67675939027686 59.21547949756496,265.5176184527227 60.273806613404304,266.3065558131202 57.892570603173226,266.6221303814091 57.892570603173226,268.20000000001164 57.14292222936638,267.5688527970342" stroke="#4dd2ff" stroke-linecap="round" stroke-linejoin="round" stroke-width="0.5"><title>2025-03-30 1.4km</title><desc>1743309591000</desc></polyline><polyline fill="none" points="105.16330991860013,240.33075827798166 104.90689272177406,242.1155801453715 106.21228936023545,243.51597001614573 106.5386385199381,244.6692264359299 106.39877459441777,245.49297779957124 105.4896590783028,246.56385055820283 106.88829833385535,251.8906886525947 106.09573608904611,252.4947559878492 105.32648449845146,252.30255290136847 104.81365010468289,253.15373688894033 103.60149608319625,253.92254576868436 102.57582729577553,254.0323754177225 101.96975028491579,255.10321199485043 104.39405832800549,257.6292700488557 104.60385421628598,260.81426378649485 102.7856231839396,261.8027019585861 101.31705196562689,263.36772115963686 96.42181457113475,266.79974688724906 95.95560148591176,267.6783379822009 95.69918428896926,266.4977304930653 94.37047699617688,266.168257651545 92.64548858080525,268.1999999999971 92.41238203831017,267.5959701967804 93.48467213427648,264.5208870021306 93.2049442831194,263.36772115963686 95.27959251229186,262.0498108977481 96.0255334485555,260.4298701200605 97.07451289030723,259.7709081890789 96.58498915075324,259.2766856135131 97.07451289030723,259.5787106356729 98.00693906075321,261.11628697138804 100.94408149749506,259.30414244860003 101.48022654559463,259.46888339663565 101.45691589126363,258.91974648569885 101.5268478540238,259.4139697592327 101.06063476880081,259.1394013932586 101.10725607734639,258.34315144513675 100.61773233790882,258.260780617813 100.8741495347349,257.71164108214725 99.9650340185035,256.6408155560057 100.15151925256941,256.2015012073243 101.48022654559463,256.0093009396078 101.71333308808971,254.99338281112432 102.38934206170961,254.306949331527 102.08630355622154,253.56559907963674 104.44067963655107,255.18558385137294 105.04675664729439,255.15812656881462 106.18897870613728,256.2564155426662 106.63188113702927,257.4096138289169 107.21464749344159,257.1075862148573 107.58761796168983,256.03675812970323 106.63188113702927,250.27068276178034 105.2565525356913,246.61876698756532 106.39877459441777,245.49297779957124 106.5619491742691,244.1475158502726 104.95351403020322,241.86845171557798 105.2099312270293,239.17748205956013 107.0048516051611,235.7999999999738" stroke="#4dd2ff" stroke-linecap="round" stroke-linejoin="round" stroke-width="0.5"><title>2025-03-26 3.9km</title><desc>1742943197000</desc></polyline><polyline fill="none" points="135.39928170311032,237.2179407824733 135.26016799226636,236.69554326131765 135.86720963969128,236.7552459363942 135.93044314463623,236.3821037885209 135.31075479614083,235.79999999998836 135.18428778630914,236.0835893354233 134.88076696253847,235.99403487211384 133.5149232557742,238.21795331519388 133.5149232557742,238.54631404091197 133.36316284391796,238.48661214957247 133.24934253504034,239.21795851853676 132.65494758856948,240.41198498201265 132.75612119649304,240.78511610902206 134.22313851118088,241.65077639398805 135.29810809524497,242.63583141718118 135.13370098231826,243.0388064224535 134.9566471684957,242.82985656824894 134.96929386950796,243.66565406526206 134.72900655074045,244.05370116290578 135.13370098231826,244.30742366863706 135.1210542813642,244.9491902536538 134.7922400556272,245.18798635202984 134.61518624186283,245.0088893174543 134.43813242798205,245.56110441913188 134.0460846973001,245.456631463152 133.91961768746842,245.72527604541392 134.0460846973001,245.59095382044325 135.07046747743152,246.54613121438888 135.70280252682278,246.75507537806698 135.75338933075545,247.78486693941522 136.17073046340374,247.6505467416864 137.11923303751973,248.11320464395976 137.8780350968591,249.54594174628437 137.72627468494466,249.65041157160886 137.84009499388048,249.56086601193238 138.5356635482749,250.6354088500375 138.97829808283132,250.75480197640718 139.04153158783447,250.9786638069054 138.75065746501787,252.73969740020402 139.34505241148872,253.76944380324858 138.8644777739537,254.44101335851883 138.2068493225961,258.5002078756661 138.29537622950738,258.9628289992979 137.48598736623535,259.18667736712086 137.85274169489276,259.0075987021846 137.70098128303653,258.84344305298873 136.8915924197645,259.33590940842987 136.33513757627225,258.485284587543 136.91688582173083,259.09713806401123 136.82835891481955,260.02237469682586 137.18246654246468,259.5746803351067 136.66395180200925,259.67914248417947 137.11923303751973,259.6343730015069 136.90423912071856,259.09713806401123 136.29719747329364,258.58974757036776 136.55013149307342,258.8732895493449 136.37307767925085,258.67928720632335 136.68924520391738,259.52991081816435 136.6765985029051,260.33575987635413 134.86812026164262,264.51416018628515 134.9566471684957,264.94691576607875 138.47243004338816,265.9019577082654 138.30802293046145,267.17036245792406 138.10567571461434,267.12559543208044 138.06773561169393,267.49865353200585 137.72627468494466,267.4688089215633 137.53657417016802,268.1999999999971" stroke="#4dd2ff" stroke-linecap="round" stroke-linejoin="round" stroke-width="0.5"><title>2025-03-24 3.9km</title><desc>1742796232000</desc></polyline><polyline fill="none" points="179.86357211302675,268.1977165345579 179.92945714305097,268.2000000000007 179.9682130430665,268.10409423736564 179.91976816805254,268.1543306438816 179.92170596305368,268.0538577105999 179.8655099080279,268.0629916334983 180.05735161309713,268.01503849392975 180.0747917681074,267.980786184291 180.0108445330843,267.8711784178013 180.0476626380987,267.8118073052792 179.97402642806264,267.74786899625906 180.04184925309528,267.5788882418674 179.9914665830729,267.565187039987 180.03603586809186,267.4624277407638 179.94689729806123,267.36880216340796 179.8015626730048,267.4144732289351 179.79768708300253,267.3733692744354 179.83062959800736,267.3939212617479 179.8383807780192,267.3505337093666 179.94689729806123,267.3276981194613 179.8422563680142,267.3596679383809 179.88488785804657,267.3551008243667 179.85000754802604,267.25462406475344 167.54113370327104,235.94408051047867 167.51400457326235,235.96237637726153 167.53919590827718,236.0012550410156 167.60314314330026,235.95322844587463 167.61089432329754,235.9806722280373 167.73103761334642,235.93950654128275 167.75235335835896,236.0035420189888 167.70778407334,235.82058299086566 167.71359745834343,235.85260093637407 167.80854941337748,235.8000000000011 167.89962577840924,235.80457399972147 167.9674486034346,235.88919281405106 168.02170686345926,235.9006277626886 167.95000844843162,235.91892366750653 167.91319034341723,235.84573995217943 167.95969742343732,235.85260093637407 167.9306304984275,235.85946191831317 167.91319034341723,235.90520174039557 167.5023778032628,236.02869876013028 167.62252109330439,236.5638440824332 167.51788016326464,236.60043471525387 167.48299985325866,236.6621812629328 167.3725455382155,236.68047650129665 167.3628565632025,236.7719524529748 167.37060774320707,236.8085427215865 167.48493764824525,236.7948213783584 167.51981795826578,236.86114112052746 167.48299985325866,236.74450970949692 167.4791242632491,236.80396894151454 167.4190526182283,236.8154033898245 167.24271327316092,236.79024759528875 167.06249833809125,236.8405591540868 167.06637392808625,236.79710826952578 167.06249833809125,236.8657148880975 166.6516857979368,237.05552535978495 166.6400590279227,237.18358928285488 166.49859999287582,237.2544814744033 166.29513151779975,236.8405591540868 166.21955751276255,236.8771493026361 166.15948586774175,236.86114112052746 166.19049058775272,236.88400994835501 166.176926022752,236.79253448695636 166.1052276077171,236.69191101714387 166.14010791773762,236.67361578878445 166.03740478268446,236.60958236345687 166.00058667767735,236.51353185773405 166.02771580768604,236.4838018498649 165.90175913264102,236.39003770197633 165.82424733260996,236.43120250161337 165.58202295751835,236.3511597612287 165.37467889244,236.2573950184451 165.26616237239796,236.22537769288647 165.14408128735522,236.08129912107324 164.8941057322445,235.93493257108275 164.799153777225,235.94865447867778 164.58987191713823,236.1819255297687 164.42709713707154,236.19107336108755 164.4251593420704,236.22080378522696 164.3282695920352,236.23452550518596 164.07829403694632,236.13618631313875 164.08216962694132,236.04242060618344 163.92520823188534,235.94408051047867" stroke="#4dd2ff" stroke-linecap="round" stroke-linejoin="round" stroke-width="0.5"><title>2025-03-24 4.7km</title><desc>1742777725000</desc></polyline></svg>