<?xml version="1.0" encoding="utf-8" ?>
<svg baseProfile="full" height="300mm" version="1.1" viewBox="0,0,200,300" width="200mm" xmlns="http://www.w3.org/2000/svg" xmlns:ev="http://www.w3.org/2001/xml-events" xmlns:xlink="http://www.w3.org/1999/xlink"><defs /><rect fill="#222222" height="300" width="200" x="0" y="0" /><text fill="#FFFFFF" style="font-size:12px; font-family:Arial; font-weight:bold;" x="10" y="20">Over 1km Runs</text><text fill="#FFFFFF" style="font-size:4px; font-family:Arial" x="10" y="280">ATHLETE</text><text fill="#FFFFFF" style="font-size:9px; font-family:Arial" x="10" y="290">Tao</text><text fill="#FFFFFF" style="font-size:4px; font-family:Arial" x="65" y="280">SPECIAL TRACKS</text><rect fill="yellow" height="2.6" width="2.6" x="65" y="283" /><text fill="#FFFFFF" style="font-size:3px; font-family:Arial" x="70" y="285.5">Over 20.0 km</text><rect fill="red" height="2.6" width="2.6" x="65" y="287" /><text fill="#FFFFFF" style="font-size:3px; font-family:Arial" x="70" y="289.5">Over 40.0 km</text><text fill="#FFFFFF" style="font-size:4px; font-family:Arial" x="120" y="280">STATISTICS</text><text fill="#FFFFFF" style="font-size:3px; font-family:Arial" x="120" y="285">Number: 28</text><text fill="#FFFFFF" style="font-size:3px; font-family:Arial" x="120" y="290">Weekly: 2.2</text><text fill="#FFFFFF" style="font-size:3px; font-family:Arial" x="141" y="285">Total: 363.2 km</text><text fill="#FFFFFF" style="font-size:3px; font-family:Arial" x="141" y="290">Avg: 13.0 km</text><text fill="#FFFFFF" style="font-size:3px; font-family:Arial" x="167" y="285">Min: 1.4 km</text><text fill="#FFFFFF" style="font-size:3px; font-family:Arial" x="167" y="290">Max: 98.8 km</text><polyline fill="none" points="35.82712765951874,48.30335145077697 35.475265957386,48.21281822466699 35.417819148889976,47.62434929785377 35.223936170194065,47.61529588972917 34.663829787197756,48.1584982307686 34.41249999994761,48.846548259643896 33.93138297868427,49.462166030018125 33.75904255316709,49.507431821140926 33.09840425528819,49.25394300017069 32.15053191487095,49.389740701109986 31.633510638261214,49.941981872936594 31.99255319146323,50.62096073348948 31.98537234039395,50.8291795503028 31.461170212744037,50.95592112460872 31.195478723413544,50.91065630393132 30.743085106369108,50.55758966189751 30.786170212726574,50.27694563027035 30.11835106377839,47.696776519325795 31.23138297870173,47.09924962015066 31.633510638261214,46.51982454951212 31.99255319146323,46.34780677496019 30.534840425505536,47.21694473038224 28.962234042555792,47.67866972120828 19.059840425499715,45.7502679442041 18.643351063830778,45.560140844208945 13.358244680828648,45.723106962694146 12.848404255317291,45.641623952571535 12.25957446807297,45.74121428492799 12.051329787238501,45.723106962694146 12.108776595734525,45.49676502528018 12.159042553190375,45.84985811638035 12.072872340417234,45.47865763754089 12.159042553190375,46.1214669306064 12.051329787238501,45.460550244912156 12.094414893625071,45.7502679442041 12.00824468085193,45.723106962694146 12.036968085129047,45.57824821010581 12.137500000011642,45.61446292736946 12.00824468085193,45.83175082326488 12.123138297873084,45.60540924988891 12.202127659547841,46.03093078053644 12.087234042526688,45.88607268802298 12.015425531892106,45.97660903225187 12.094414893625071,45.659731296647806 12.467819148936542,45.686892303667264 12.439095744659426,45.9313408753078 11.799999999988358,45.98566266000125 11.799999999988358,45.85891176109726 13.394148936145939,45.76837525914016 18.77978723400156,45.71405329975096 20.3236702127615,46.37496750531864 29.931648936122656,47.68772312087094 32.832712765957695,46.01282353595889 36.75345744678634,45.89512632791593 38.54148936169804,45.044078875398554 39.56835106379003,46.23916374431428 41.543085106357466,47.80541720591282 40.49468085099943,47.108303097469616 40.444414893572684,47.51570832010475 40.027925531874644,47.87784423325502 40.04946808508248,47.96837790821883 40.868085106340004,47.93216445277358 41.7297872340132,48.92802740428306 42.225265957415104,49.24488981041213 42.23962765952456,49.11814502627385 42.225265957415104,49.30826211330714 41.90212765955948,49.48932550832251 41.40664893615758,49.55269758193754 41.126595744659426,49.779025931034994 42.08164893614594,49.80618528198829 43.11569148930721,49.498378665331984 43.532180851034354,50.213574235989654 43.86249999998836,50.17736198398052 43.90558510637493,49.96008806442842 44.19999999998254,50.06872511155234" stroke="#4dd2ff" stroke-linecap="round" stroke-linejoin="round" stroke-width="0.5"><title>2025-08-03 10.0km</title><desc>1754211931000</desc></polyline><polyline fill="none" points="76.17129977466539,61.341567998810206 76.80420736293308,60.83978556598595 77.41277235164307,60.596061981632374 77.89962434268091,60.65340874787944 78.08219383924734,60.323664501687745 78.6177310293424,60.16596044051403 78.11870773858391,59.033353009450366 78.25259203603491,58.617583285304136 78.77595792635111,58.25916005796171 78.78812922618818,57.77170290633512 77.92396694218041,56.45269217334862 77.97265214135405,55.63547238674073 78.80030052590882,53.255470138567034 78.97069872281281,53.255470138567034 78.88549962436082,52.638956531562144 79.45755071379244,51.86472606091411 79.76183320814744,50.78939842582622 80.20000000001164,50.35926491783175 77.42494365142193,47.41998174735636 77.047633358452,47.233585972426226 76.18347107438603,47.462996119531454 72.7268219384714,47.592039152033976 66.71419984975364,46.631382438281435 65.99609316303395,46.21557363180909 64.13388429750921,44.16518690405064 61.94305033812998,44.71004802464449 61.188429752131924,42.58794465845858 59.99564237415325,43.37656813846843 57.08670172805432,44.66703275486361 55.297520661202725,46.20123537375184 53.47182569495635,44.91078576495056 51.09842223895248,42.65963789691159 47.79999999998836,37.081787533694296 51.53658903087489,34.658432001189794 52.35206611570902,35.92030315984448 52.14515401958488,35.94898190948879 51.76784372655675,35.3180479764269 52.20601051842095,35.96332128200447 51.682644628104754,36.56557351908123 51.75567242677789,36.823680778892594 51.54876033059554,36.99575200489198 51.70698722766247,36.95273421941965" stroke="#4dd2ff" stroke-linecap="round" stroke-linejoin="round" stroke-width="0.5"><title>2025-06-26 5.0km</title><desc>1750894720000</desc></polyline><polyline fill="none" points="95.57658247533254,64.16520574666356 95.70212187085417,64.19999999999709 95.4658124205016,63.96513849658368 95.26642632170115,63.92164554997726 94.86765412415843,63.112672436276625 94.93411615709192,62.75602577917016 95.53965912372223,62.22540220267547 97.16428659521625,61.41641194876138 97.55567412241362,60.82488701917464 97.19382527651032,59.754911704862025 97.30459533137036,58.798011098391726 97.05351654032711,58.38915007868491 97.00920851837145,57.475729618141486 96.66212901312974,56.74498574496829 96.35935752978548,55.553162972086284 96.01966269483091,55.44876889121224 95.78335324444924,54.23952753139747 95.89412329930929,53.95243876957829 95.08180956359138,50.47249309493782 95.13350225586328,50.34199218850699 95.44365840949467,50.31589198168513 99.12860890166485,50.289791766357666 99.39445703336969,50.13319029559352 100.01476934069069,48.3757527735288 100.45784956018906,47.56662252311071 99.44614972564159,46.47036848721473 97.87321494639036,45.46110546154523 97.83629159478005,45.330596382176736 105.13234587584157,32.705011627593194 104.87388241448207,32.51356771423889 102.38524851496913,31.799999999995634 100.9304684609524,32.14808260711288 101.02646917517995,32.792031436743855 100.50954225243186,33.01828249741084 99.91876862643403,33.02698444851558" stroke="#4dd2ff" stroke-linecap="round" stroke-linejoin="round" stroke-width="0.5"><title>2025-06-08 6.1km</title><desc>1749378939000</desc></polyline><polyline fill="none" points="127.11360946740024,49.6609447660594 126.92899408281664,49.687798599850794 126.70177514787065,49.99214129493339 126.68757396447472,50.84250324204186 126.52426035495591,51.370617319393205 126.35384615382645,51.46907880434446 126.19053254433675,51.836070333716634 125.5443786981923,52.050893708314106 125.35266272185254,52.49844018713338 124.37278106503072,52.87437691280502 123.84023668634472,52.89227860890969 123.4355029585422,53.28611470940086 123.11597633134807,53.32191787617194 122.40591715971823,53.69784996895032 122.48402366859955,53.769455842084426 122.34911242601811,53.59939176814078 122.07218934906996,53.91266735816316 122.03668639049283,54.145385417097714 121.82366863903007,53.769455842084426 120.78698224847903,54.04692787568638 120.87218934908742,53.832110918119724 121.13491124258144,53.94847018919245 120.8153846153582,53.90371664738632 120.76568047332694,54.073779946811555 121.15621301773353,54.26174414266279 121.23431952661485,54.41390524727467 121.12781065085437,54.6555721718687 121.04970414197305,54.36020136756997 120.34674556207028,54.26174414266279 120.6094674555934,53.23240992328647 120.48165680470993,53.20555751405482 120.0769230768783,53.63519476703368 119.79999999998836,54.19013879705744 119.9136094674177,55.41636974638823 120.06982248515124,55.854943235899555 119.90650887571974,55.75648821329378 120.02721893487615,55.64908256867784 120.11242603545543,55.738587284511595 119.84260355029255,54.77193000904663 120.02721893487615,54.807732379726076 120.02011834317818,54.404954603654915 120.16213017748669,54.440757170952566 120.15502958575962,54.27964546707517 121.07810650885222,54.34230006473808 121.15621301773353,54.66452278193174 121.22011834316072,54.39600395884918 120.8153846153582,54.04692787568638 121.8591715976072,53.78735729840264 122.03668639049283,54.18118812348257 122.065088757372,53.90371664738632 122.34201183429104,53.61729326999921 122.39881656799116,53.706800707303046 122.67573964496842,53.63519476703368 123.07337278104387,53.33981945235428 123.40710059169214,53.23240992328647 123.4355029585422,53.31296708629088 123.79763313604053,52.91913114404451 125.12544378696475,52.68640881435567 125.57278106507147,52.077746581584506 126.28994082837016,51.6928543669419 126.25443786979304,50.57396905951464 126.59526627216837,50.35018974964623 126.80828402363113,49.79521382699022 127.1207100591273,49.490870234898466 127.41183431950049,48.64049108508334 127.31952662716503,47.64687647231767 127.47573964492767,47.40518419701402 126.80828402363113,42.51744166476419 126.78698224847903,41.69383079409454 126.96449704139377,40.93287694290484 128.33491124256398,41.344688338576816 129.3147928993858,41.88182982202852 137.29585798812332,42.78600823146553 138.33964497037232,42.454775977173995 140.6189349112101,41.12087811240781 144.24733727806597,41.02240137532499 145.6106508875091,40.58373051009403 146.34201183426194,40.145056764100445 147.19408284020028,41.13878295807808 148.0532544378657,41.8997344637537 150.4248520710098,43.53798887427547 150.92899408281664,44.146728909276135 151.36213017746923,45.041924766628654 151.3692307691963,44.71965563986305 150.78698224850814,43.68122232273163 152.19999999998254,43.56484516926139" stroke="#4dd2ff" stroke-linecap="round" stroke-linejoin="round" stroke-width="0.5"><title>2025-06-01 8.5km</title><desc>1748768919000</desc></polyline><polyline fill="none" points="167.25284974084934,58.08408296214475 167.02901554404525,58.131115424926975 166.37616580311442,57.53144963618979 165.96580310876016,56.70837227310403 165.86321243521525,55.96759604507679 166.07772020727862,55.23857206406683 167.4393782383413,54.61536934268952 167.57927461137297,54.22733522353519 167.15025906736264,54.55657640464051 166.1989637305378,54.638886506880226 166.23626943002455,54.48602482696151 166.36683937819907,54.662403664769954 166.5440414507175,54.53305921837455 166.41347150254296,53.96864485734113 166.03108808287652,53.404226865612145 165.96580310876016,52.60462849538453 164.57616580306785,52.51055761977477 164.27772020723205,52.29889778095094 164.883937823819,51.72271007722884 164.72538860101486,50.852541882923106 164.96787564759143,50.51152766918676 165.12642487045377,49.20625412213121 165.36891191703035,49.01810498247505 167.50466321239946,48.63004610756616 168.63316062174272,49.006345647860144 168.96891191706527,48.735880516403995 169.13678756478475,48.18318830715725 169.63108808285324,47.79512573922693 169.91088082903298,47.77160674051993 170.33056994818617,48.15966941251099 170.99274611397414,48.06559377088706 172.41036269429605,47.418821003710036 172.46632124349708,47.17187014385854 172.2704663212062,47.077793442957045 172.41036269429605,47.077793442957045 172.42901554401033,46.68972598540131 173.56683937821072,46.84260124936554 173.60414507769747,47.03075505467132 173.90259067353327,46.8543608740365 173.90259067353327,46.64268738903775 171.41243523312733,46.32517620398721 170.79689119168324,46.08998199269263 168.61450777202845,43.232321951771155 165.53678756474983,42.05630312811991 164.5854922279832,40.492173663471476 164.02590673574014,40.127598126084195 161.4145077720168,40.68034108986467 160.79896373051452,41.32716353965952 160.1461139896419,42.70311543213029 159.39999999996508,43.05592013327987 158.38341968914028,43.02063972699398 159.33471502590692,42.86775780256721 159.44663212430896,42.561993154384254 159.2787564766477,42.12686470214976 158.89637305698125,42.19742621938349 157.917098445585,41.80933717208245 157.2735751295113,41.87989894473867 157.11502590670716,41.73877534263738 157.08704663213575,40.3157663345919 156.8259067357285,40.11583759966743 156.5274611398927,40.209921766967454 155.94922279793536,40.02175333145715 156.13575129536912,40.6215388124765 155.99585492227925,41.23308057064423 155.85595854918938,40.06879547816061 156.0611398963374,40.33928733228822 155.87461139896186,40.13935865092935 155.9585492227925,40.209921766967454 156.01450777199352,39.8218239263806 155.79999999998836,40.55097602758906 155.99585492227925,40.22168228079681 156.01450777199352,39.363160628287005 156.17305699479766,39.56309107875859 156.00518134713639,39.904147854256735 156.0797927461099,40.15111917426839 155.96787564764963,40.08055601092201 156.08911917096702,39.974711159469734 156.0611398963374,40.209921766967454 156.11709844559664,39.810063358985644 156.01450777199352,39.951190064086404 157.1709844559664,40.13935865092935 157.3948186528287,39.71597876278247 157.5720207254053,38.56343426944659 157.67461139895022,38.65752010188589 157.86113989632577,38.23413306126167 158.40207253885455,38.41054457653081 158.43005181348417,38.1400467746862 158.52331606217194,38.48110908330273 158.38341968914028,38.01067796591087 158.5326424870873,38.434066085093946 159.68911917094374,38.68104154423054 160.5191709844512,36.46999839400087 160.98549222794827,36.62289146942203 160.60310880828183,36.29358297576255 160.5937823834247,35.9760343288217 160.76165803108597,35.83490122779767 161.52642487047706,35.88194562004355 162.16994818655076,36.12892826531606 162.281865285011,35.58791775458667 161.95544041448738,35.317411247808195 164.14715025905753,36.10540613855119 165.3316062176018,37.74017893089331 168.85699481860502,39.06914443214191 172.31709844555007,41.25660132239864 173.2404145077453,42.02102231981553 180.6269430051325,52.922116955815 182.6601036268985,54.674162241324666 185.04766839375952,56.37913916605612 185.80310880829347,57.1787031402564 186.17616580310278,57.778371339605656 186.54922279785387,58.96593744428537 186.53989637299674,60.682588752191805 186.4279792745947,58.789567256833834 186.88497409323463,58.67198693493992 186.92227979272138,58.354519278844236 187.45388601033483,58.425067746124114 188.20000000001164,58.18990596792719 187.97616580309113,57.296285463096865 187.65906735748285,57.30804368672398 187.8455958549166,57.62551512895152 187.87357512948802,57.30804368672398 188.0227979273768,57.2374943213581" stroke="#4dd2ff" stroke-linecap="round" stroke-linejoin="round" stroke-width="0.5"><title>2025-05-31 10.5km</title><desc>1748652092000</desc></polyline><polyline fill="none" points="24.289054458407918,101.14646682032253 24.147933994128834,101.1957149032969 23.818652910878882,101.109530730002 23.52073193079559,101.1895588952757 22.804676241765264,100.72170032845679 23.426651621295605,101.16493485645333 24.16361404574127,101.23880694081163 24.388361451769015,101.20802691735662 25.120097192382673,100.70938820875745 26.259514274192043,100.97409819289533 26.583568673580885,100.826353237906 26.62015546063776,101.1895588952757 26.756049240997527,101.45426663696708 26.996476698637707,101.66972551412255 27.195090685330797,101.72512909300349 27.44074482686119,102.66698164896661 27.911146374390228,102.6054231363778 28.35541450258461,103.22716104147548 28.726509056752548,103.44261317996643 28.569708540919237,103.88582643283735 28.10453367725131,104.09512037548848 28.151573832001304,104.93844402082323 28.308374347834615,105.0 28.966936514363624,104.75993130319694 30.064540125255007,103.92276071416563 32.02454657331691,101.97752248936376 32.92876288131811,100.61089115488357 33.11692350031808,100.06915429897708 33.195323758234736,99.3858197435693 33.15351028734585,97.10797838696453 31.778892431786517,94.36829115001092 30.91126291078399,92.91527967044385 30.529714988922933,91.99173605676333 29.102830294781597,90.5448207939371 28.88853625644697,90.20617571517141 28.62197537953034,87.20138162192234 28.872856204863638,86.22232616895053 27.263037575554335,85.50803604221073 26.63583551219199,85.13857209725029 25.485965062689502,84.25184879631342 24.994656779716024,83.43900690817463 24.592202122381423,82.97715972898004 23.473691776045598,82.21972220170937 28.61152201180812,73.30213489192101 28.444268128223484,73.09272715128463 26.93898317613639,72.6184773455825 26.63583551219199,72.59999999999854 25.710712468717247,72.84020502201747 25.710712468717247,73.24670350655288 25.397111437021522,73.44995165420187 24.9842034119647,73.44379263014343 24.388361451769015,73.29597585177544 24.749002638214733,73.41915652721946 24.94761662496603,73.31445297018581 24.81172284457716,73.43147458004387 24.91625652179937,73.34524815412442 24.816949528438272,73.3082939313972 24.790816109103616,73.44379263014343 24.890123102464713,73.38836138348779 24.905803154048044,73.56081397263551 24.72286921890918,73.42531555396636 24.900576470216038,73.41299749981772 24.796042792964727,73.45611067758728 24.900576470216038,73.3267710457585 24.884896418632707,73.49306480382074" stroke="#4dd2ff" stroke-linecap="round" stroke-linejoin="round" stroke-width="0.5"><title>2025-05-27 10.2km</title><desc>1748342410000</desc></polyline><polyline fill="none" points="75.94503523374442,98.56282638690027 74.18078155023977,98.80934619961772 73.14298526581842,100.5103253924608 71.10890454833861,102.1373366855114 70.48622677766252,101.8168657139322 70.52773862902541,102.40850406677055 66.50108904542867,101.8661689706787 64.03113388852216,100.23915567605582 62.08007687376812,99.84472640202148 59.92146060219966,98.68608632773976 57.2854580397252,98.93260600254871 53.217296604881994,96.9357887081278 52.38705957727507,96.1222653647419 50.14541960286442,96.56600574245385 47.9660474054981,97.57674437898095 47.800000000046566,97.18231034062046 48.650992953334935,95.4566531231103 49.211402946850285,96.02365627064137 48.11133888538461,97.18231034062046 48.06982703402173,96.02365627064137 48.52645739912987,96.02365627064137 48.339654067880474,95.55526247093803 48.9208199873101,95.48130546417087 49.107623318443075,95.851090249751 50.00012812297791,94.37194738528342 50.76809737354051,94.9389533232461 51.45304292126093,94.47055721834477 51.45304292126093,93.97750761154748 52.11723254318349,93.6816773180617 52.71915438817814,93.6816773180617 52.13798846898135,94.49520966978162 52.71915438817814,93.65702477564628 54.89852658554446,93.63237223050965 60.04599615628831,94.84034369960136 62.43292761046905,95.08686767586914 68.32761050597765,98.48887038935209 69.80128123005852,96.78787559631746 71.06739269697573,96.2208744147938 71.64855861617252,96.61531017372909 73.78641896217596,95.0129105119413 74.82421524671372,95.35804373120482 75.90352338249795,96.2208744147938 76.02805893647019,96.66461459397397 75.57142857136205,97.60139648296172 74.67892376682721,97.9958297714038 74.13926969887689,98.80934619961772 76.31864189612679,98.36561033828184 78.45650224213023,97.42883169732522 78.68481742462609,97.03439739420719 78.66406149906106,97.45348381779331 78.58103779621888,96.14691763142764 80.19999999995343,95.0129105119413 80.19999999995343,94.42125230736565 76.96207559248433,90.57543526237714 72.66559897502884,84.19024465620168 73.03920563741121,82.63706221117172 73.93171044194605,81.2564464033203 74.22229340160266,79.1855064737174 75.34311338874977,76.27629608032294 75.40538116591051,75.29011434910353 74.11851377319545,75.63527845703356 73.43356822547503,75.24080514669186 73.41281229979359,75.56131476517476 73.62037155672442,75.21615054135327 73.5165919282008,75.51200562344457 73.86944266501814,75.65993301554408 75.61294042272493,75.19149593322072 76.23561819340102,75.38873272085038 74.61665598966647,75.24080514669186 73.84868673922028,75.6106238958746" stroke="#4dd2ff" stroke-linecap="round" stroke-linejoin="round" stroke-width="0.5"><title>2025-05-25 4.8km</title><desc>1748150210000</desc></polyline><polyline fill="none" points="105.19518415862694,75.82598421796865 105.05422954959795,75.4701794743014 103.9668654234847,75.3041370621504 99.4965906823054,77.55755902454257 99.57713617314585,78.60124131459452 98.79181763762608,81.70853858921328 98.16759008355439,82.6336032798281 95.02631594112609,84.7920723138377 94.0396336785052,86.04919279608293 95.24781604087912,87.06911541549198 95.63040712242946,88.87175769443274 95.26795241364744,89.60704171862744 94.07990642392542,90.1762921657064 94.82495221414138,91.93147170064913 96.07340732193552,92.83277462719707 95.63040712242946,93.37829827520181 95.3686342772562,94.80139702807355 97.24131693900563,95.27576121778111 96.83858948480338,95.67896996875061 96.15395281277597,95.10973386862315 95.69081624050159,96.3667949429946 96.3553165398771,96.74628365642275 96.79831673949957,97.74243839111296 95.99286183109507,97.95589952862065 95.24781604087912,99.829605002873 93.47581524262205,100.96805110934656 93.67717896972317,101.9404691249947 92.81131494324654,104.78654574856046 93.19390602468047,105.0 94.32154289644677,103.36351207371627 96.41572565794922,103.79042314992694 100.5034093176946,100.87318082722777 101.89281903451774,99.47383937728591 102.98018316086382,99.04691986145917 103.34263786952943,98.45397470468015 103.42318336036988,96.31935880742094 104.97368405887391,96.84115573171584 106.02077543968335,96.15333225183713 105.35627514030784,91.50453743673279 104.91327494068537,91.36222582988557 105.25559327681549,90.7929784750304 104.89313856803346,88.58713095565327 103.98700179613661,86.42869944364065 104.87300219526514,85.33761605374457 104.93341131345369,84.27024659130257 103.50372885121033,82.39640757896996 104.1279564051656,79.50259927670413 105.07436592236627,77.13059664951288 105.39654788572807,77.03571600826399 105.21532053139526,76.06318705820013 106.1214573031757,74.82972947425151 106.54432113014627,73.19301538135915 107.18868505675346,72.59999999999127" stroke="#4dd2ff" stroke-linecap="round" stroke-linejoin="round" stroke-width="0.5"><title>2025-05-20 4.1km</title><desc>1747694891000</desc></polyline><polyline fill="none" points="145.1359982737922,74.09464828887212 145.3835863028944,73.39987556204142 145.74506482537254,73.2305598340754 145.87876236106968,72.85689564347922 146.14120567194186,72.64670839047903 146.061977502628,72.59999999999854 146.11149510843097,72.66422402640092 146.061977502628,72.60583855103323 146.11149510843097,72.64086984389724 145.89856940341997,72.90360380989296 145.75001658595284,73.28310615177543 145.32911693648202,73.48161399774108 145.07657714679954,74.36321348204365 144.9181208081718,74.45662714655555 144.61606341265724,74.9003398279965 145.23998524600756,75.31485756431721 146.00750813621562,75.53087257786683 145.88371412167908,75.52503434571918 145.98274933328503,75.65931352423286 145.8143894734967,75.53087257786683 145.8044859523361,75.60676953795337 145.8242929946864,75.53087257786683 145.90352116397116,75.5717401851216 145.8292447552667,75.50751964543088 146.0322669391171,75.54254904026311 145.819341234077,75.50751964543088 145.77477538885432,75.5717401851216 145.78467891004402,76.26648473734167 145.47766975392005,76.87364906740913 145.21027468249667,77.11301003673725 145.46776623275946,77.3231797619992 145.08152890735073,77.73184075596146 145.08152890735073,77.73767874756231 145.73020954363164,77.97703585573618 145.68069193779957,77.62675679815584 145.48757327510975,77.28815153172764 145.1904676402046,77.11301003673725 145.51728383856243,76.86197289519987 145.78963067059522,76.23145581599965 145.75496834653313,75.60676953795337 145.8143894734967,75.49000493942731 146.15606095365365,75.63596064781814 146.38879370104405,75.9512236204464 147.06223314016825,75.86948895388923 147.75052786109154,76.01544362809364 147.65644441000768,75.30318105229526 147.00776377378497,74.71935220450177 147.25040004230686,74.10632506440015 147.47322926847846,73.8903043048922 147.51779511373024,73.56919075469341 147.79014194573392,73.61005985892916 147.6267338465259,73.54583696686313 147.48808455021936,73.59254453236645 147.47322926847846,73.85527382935834 147.23059299995657,74.1238402229319 147.00776377378497,74.73686716254451 147.66634793119738,75.34988708516539 147.88917715736898,76.69266811214038 148.32988384916098,77.43410234008843 148.21599335578503,78.33315054941704 148.5081472301099,78.3039609094958 149.03303385179606,78.44990894998409 150.0729035740369,78.10547093625792 150.84537822482525,78.53163967896398 150.84537822482525,78.64255975453125 150.5383690687304,79.2963997430852 149.95406132005155,79.5882900184406 149.25586307799676,80.23628074500812 149.1568278663617,80.20709214213639 148.7557352592121,79.38396699269651 148.0723922989273,79.72839678564924 147.51779511373024,80.1487148886481 146.9334873650514,81.24035900073068 146.0768327843689,82.06929314668014 145.45786271162797,82.87486474625621 142.30854298148188,87.71387691810742 142.34320530554396,87.8831468761091 142.9225612936425,88.29172733048108 142.08076199470088,90.34041949730454 141.8183186838578,90.27621665797051 140.40706691797823,89.42989931391276 140.2436588187702,89.43573603101322 137.05472500398173,94.93364125616426 135.48006513892324,96.83034609576862 133.340904567478,97.27387354695747 132.4297806204122,97.58900924310365 124.79911756355432,101.48136594931566 124.36336263234261,102.00071451954136 123.9375112222915,102.82349240767144 123.82362072891556,102.81182188758248 123.78400664424407,102.90518597714981 123.69982671434991,102.85266869676343 123.69982671434991,102.64843433973147 123.55622565749218,102.4558698049841 123.41757636115653,102.43252860227585 123.35320347361267,102.57841095255571 123.16998833208345,102.54923451425202 123.10561544451048,102.66010489537439 123.0511460780981,102.54339922467989 123.18484361382434,102.61342265757776 123.41262460060534,102.39751677916138 123.80876544717466,102.75930451578097 123.79391016540467,102.88184496998292 123.84837953181705,102.84099818302275 123.30368586780969,103.8679936697772 122.47179008999956,104.08389362823436 122.53616297760163,104.48651555340984 122.18953973686439,104.67323773915268 121.77854360855417,104.62072219012043 121.98651755301398,105.0 121.4863897342002,104.90663955718264 121.52105205829139,104.6440624405077 121.15462177520385,104.2181012724759" stroke="#4dd2ff" stroke-linecap="round" stroke-linejoin="round" stroke-width="0.5"><title>2025-05-17 14.6km</title><desc>1747468743000</desc></polyline><polyline fill="none" points="184.501036130765,89.35044258929702 182.6582992306794,90.24820205893047 182.73792366468115,90.77077545702923 182.51042528194375,92.05710054080555 181.93030440591974,93.08883075459744 180.14444210159127,94.32153605588974 179.5870710638701,95.07187238038023 179.01832510705572,95.11206884038256 178.6657026138273,95.51403271954041 178.26758044410963,95.59442533814581 176.3452191100223,97.69801356577227 175.2532268728828,97.57742667506682 174.65035615873057,96.07677994936239 174.24085906986147,96.31795654748566 173.6266134364996,95.35324732507434 173.19436650926946,95.40684247986792 172.8758687734953,95.24605694566708 172.8189941777964,94.99147942112177 171.86350097029936,96.46534201414761 171.10138138820184,97.1084765347623 170.74875889497343,97.91238996924949 170.8511331672198,98.82348552696203 171.22650549869286,98.95746960015822 171.26063025614712,100.17671797716321 171.7725016172626,101.54333369994856 172.4094970888691,101.1279913074759 173.08061731792986,99.98914208829228 174.05886036361335,99.90875233428233 174.62760632048594,100.5116742120299 175.40110082173487,102.42760639295011 176.60684225015575,102.6821685687828 177.58508529589744,103.20468928367336 179.01832510705572,103.07070982418372 179.21169873233885,103.27167895881576 179.51882154907798,104.6516581728356 180.77006265404634,105.0 184.64891007955885,102.30702412629762 184.86503354314482,101.8514900550581 184.81953386653913,100.83323134170496 185.94565086107468,101.0074077702593 186.2982733543031,100.52507244251319 186.28689843515167,99.50680277835636 185.79777691228082,96.76011241905508 185.22903095552465,95.19246172103885 185.75227723579155,94.58951383874955 185.7295273974887,93.90616934172431 184.967407815333,92.88784502627823 185.1380316024297,91.588129408221 185.79777691228082,90.47599073548918 185.9570257802261,89.29684480225842 186.4120225457009,88.72066712027299 186.67364568577614,87.74249884389428 187.15139228955377,87.19311325825402 184.41003677767003,84.3389487505774 183.44316865107976,84.56674834398291 180.41744016081793,84.70074790824583 175.04847832850646,83.950348472732 173.81998706178274,83.4679464239598 172.19337362528313,81.56511993655295 170.15726309991442,82.06092966735014 169.48614287079545,79.99727604473446 168.32590111892205,80.76109991854901 165.66417004104005,81.84652570413891 163.9010575749562,83.4009459901281 162.75219074211782,82.6773389847076 159.93121079634875,80.05087787446246 156.84860771038802,74.86479289241106 160.29520820872858,72.59999999999854 160.78432973159943,73.1226482068887 161.08007762907073,73.83291016684962 160.87532908463618,73.77930563341943 160.56820626795525,73.22985782162868 160.93220368033508,73.88651467698219 160.3634577235207,75.09260999243998" stroke="#4dd2ff" stroke-linecap="round" stroke-linejoin="round" stroke-width="0.5"><title>2025-05-12 8.9km</title><desc>1747004623000</desc></polyline><polyline fill="none" points="25.667071478266735,126.40073481045692 25.45877428885433,127.00127507291836 24.472834258835064,128.5517275043021 23.53318249314907,129.68178051287032 23.213793469330994,130.1894771771149 22.996238627034472,130.59344718608554 22.954579189157812,131.09567562160373 22.500954198796535,131.62519362071907 22.056586861348478,132.52044841816314 22.03807155560935,132.78247118219588 21.940866200544406,132.88618814721121 21.95475267985603,133.47027440926104 22.033442729210947,133.39385229537947 21.931608547689393,133.51940284938973 21.968639159138547,133.23009022971746 21.83440319262445,133.0608688654538 21.96401033271104,133.21917273961662 21.973267985566054,133.40476974735793 21.510385342349764,134.38733067168505 21.616848350298824,134.4692098777923 21.468725904473104,134.4637512682275 20.94566851767013,135.6318801459347 20.251344552874798,137.67876920127674 20.251344552874798,138.0062636811017 19.931955529056722,138.48658504173727 18.760862441791687,141.23742767456133 18.464617550111143,143.74798543161887 18.566451731632696,145.29791910082713 18.645141780987615,145.5707897793327 18.908984887588304,145.79999999999927 19.20985860566725,145.7072245609088 20.968812649836764,144.49021317604274 21.130821574945003,144.2391667881384 21.144708054256625,143.8953403445921 21.20951162429992,143.81893414755177 22.811085569759598,142.74923514443435 23.29711234511342,142.5418418759764 23.510038360982435,142.7601505558123 24.232135284371907,142.48726455726137 27.58340562111698,140.92087014875142 27.902794644935057,140.58793679779774 28.88873467495432,140.34778677645227 29.222010178054916,140.12946757536702 29.194237219460774,140.03668162654867 29.36087497099652,139.8620252562796 30.393103265349055,139.43083973259127 30.573627496196423,139.2889297604488 30.393103265349055,138.92869494718252 30.300526736711618,138.94506931312208 30.32829969530576,139.01602483696843 30.39773209177656,138.9123205758733 30.448649182537338,139.03239917433893 30.5597410168848,139.06514783300008 31.12445784159354,138.79769982678408 31.18926141166594,138.68853696455335 31.087427230144385,138.32829782985573 31.221663196658483,137.85343319054664 31.1661172794702,137.78793426600168 31.087427230144385,137.90255732769583 31.142973147303564,137.90801556217775 31.198519064491848,137.70606048979243 31.096684882999398,137.44406350579447 30.920789478579536,137.30214790012178 30.568998669768916,137.187523463268 30.096858373726718,136.74539817615732 29.856159399234457,136.75085653684073 29.532141548988875,136.9964821517824 29.092403037968324,137.00739881781192 28.925765286403475,137.22027332916696 28.995197682874277,137.4822714847287 29.37939027673565,137.61327004815394 29.374761450308142,137.67876920127674 29.458080326090567,137.6569361597758 29.370132623880636,137.6678526817268 29.62934690405382,138.0280965702441 29.740438738430385,138.11542803148768 29.93947827501688,138.10451160716912 29.990395365748554,138.2791741106048 30.319042042450747,138.50295955232286 30.573627496196423,138.23005034312519 30.624544586928096,137.91347379607396 30.999479527934454,137.88072438379822 30.879130040702876,137.76610127211825 30.78655351206544,137.4986463239111 30.60602928121807,137.42768864875688 30.61991576050059,137.22573163806737 31.02262366010109,137.38948062816053 31.170746105897706,137.5914369780694 31.226292023115093,137.85889143038366 31.096684882999398,138.3173814519796 31.115200188709423,138.53570855742873 31.52253691473743,138.96144367371744 32.966730761516374,137.90801556217775 33.096337901602965,137.60235351429583 32.59179582053912,133.58490736122258 32.62882643198827,131.73437189271863 32.77694887778489,130.10759096686525 32.68900117560406,129.0048436121906 32.698258828459075,127.20327335888214 33.202800909552025,125.2487692167997 35.06358913521399,122.50796716125478 35.526471778401174,121.14296986550835 35.37834933257545,121.02830839624949 35.40149346477119,120.93548701428881 35.63756361277774,120.43315654597609 36.72996665071696,118.76778574254786 37.35485821904149,117.46275149511348 37.31782760756323,117.35354206369448 36.70682251857943,116.94946509313013 36.56795772560872,116.75288592654397 36.80865670007188,116.15222257254936 37.53538244988886,114.79251250216475 37.51223831772222,114.67237569764984 36.271712833986385,113.71673174211901 36.46149471765966,113.57474879557412 36.23931104893563,113.78226219681892 36.27634166038479,113.71673174211901 36.19302278460236,113.72219261661303 36.160620999580715,113.78772306416431 36.30411461897893,113.8150273919382 36.077302123827394,113.541983442934 36.36428936259472,113.47645267322878 36.368918189022224,113.39999999999782 36.45223706480465,113.4382263512307 36.39206232118886,113.46553086992208 36.38743349476135,113.4054609091072 36.442979411949636,113.46006996738288 36.38280466833385,113.42184363286287 36.43835058552213,113.46553086992208 36.38280466833385,113.498296272679 36.355031709739706,113.39999999999782 36.401319974072976,113.48737447414533 36.419835279783,113.4054609091072 36.3504028833122,113.42730453958939 36.415206453355495,113.50375717105271 36.36428936259472,113.43276544570836 36.36428936259472,113.50375717105271 36.077302123827394,113.58567057500113 36.59110185774625,114.09353068338896 34.24428685673047,117.99241385330606 33.97118609727477,118.07431990259283 33.836950130731566,118.02517628912392 33.3879539668269,117.61564429832288 33.62402411486255,117.50097473974893 33.378696313971886,117.59926294891557 33.06856494303793,117.2989372585289 32.92044249721221,117.35900254092121 32.94358662937884,117.53919795516049 33.749002428521635,118.36918056899594 33.80454834570992,118.62035680210101 33.00376137296553,119.88713944355186 33.040791984443786,119.65235025631773" stroke="#4dd2ff" stroke-linecap="round" stroke-linejoin="round" stroke-width="0.5"><title>2025-05-11 17.9km</title><desc>1746934812000</desc></polyline><polyline fill="none" points="69.01842602423858,113.39999999996508 69.76419831276871,116.54861134244129 58.577613986097276,120.09991670760792 58.142580151208676,121.01519552437821 67.58902913809288,137.96570950606838 68.64553988003172,140.1622579380928 68.42802296264563,140.74800176688586 69.85741984879132,142.94453205051832 69.17379525105935,144.00618321812362 69.2359429418575,145.32409035644378 67.80654605559539,145.79999999998836" stroke="#4dd2ff" stroke-linecap="round" stroke-linejoin="round" stroke-width="0.5"><title>2025-05-09 1.4km</title><desc>1746749326000</desc></polyline><polyline fill="none" points="95.9965200999286,119.3840434163867 94.74953455722425,118.97040545771597 94.09322637703735,119.21858833268925 93.69944146869238,118.86010186182102 92.97750247037038,119.43919508140243 92.03679407865275,118.66707042664348 91.46799365559127,117.2055408309534 90.76793159660883,116.92977936643001 91.18359344417695,115.137320844442 90.00223871949129,113.40000000000873 88.64586848020554,113.9515320150822 87.50826763443183,115.02701519498078 87.18011354422197,114.72367435402703 86.89571333269123,115.27520282322075 86.63319006050006,114.75125081259466 86.41442066722084,115.38550833980844 85.97688188031316,115.33035558897245 86.19565127370879,115.57854285153735 85.53934309340548,116.59886512153025 85.75811248680111,115.66127187265374 86.21752821304835,115.44066107591789 85.97688188031316,115.33035558897245 87.83642172452528,114.86155660990335 90.0678695376264,113.40000000000873 91.13983956549782,114.83398016614956 90.7241777179297,117.04008399657323 91.18359344417695,116.87462702921766 92.10242489667144,118.83252595354861 93.10876410640776,119.57707417933852 92.45245592610445,119.77010476139549 92.2993173507275,120.21131684066495 93.41504125727806,122.88614483116544 92.99937940970995,125.42306298289623 97.35289033921435,124.59581049827102 98.77489139663521,124.70611102158728 98.77489139663521,125.03701223705139 98.49049118510447,124.59581049827102 98.81864527531434,124.29248375454335 101.22510860313196,125.34033788395755 104.33163399004843,126.0297126926016 105.20671156374738,126.66393547818006 106.56308180314954,128.84233799374488 105.8630197441671,130.91042032290716 103.63157193106599,133.1990738886816 100.89695451315492,133.69540504062024 101.1376008457737,134.24688269512262 102.16581699496601,134.52262096860795 100.59067736216821,133.86084849204053 102.75649435725063,134.6604899668455 105.6880042294506,134.274456539104 109.21019146381877,135.32225987361744 109.91025352291763,135.87373317134916 114.13250281626824,136.17704285551736 113.60745627211872,145.35884274517593 113.69496402936056,145.8000000000029 114.24188751308247,145.66213845937455 114.4606569064781,144.33866297341592" stroke="#4dd2ff" stroke-linecap="round" stroke-linejoin="round" stroke-width="0.5"><title>2025-05-05 3.1km</title><desc>1746429236000</desc></polyline><polyline fill="none" points="135.155037830089,113.43827318775948 135.01842717986437,113.39999999999782 134.775563801697,113.58498678907927 134.14310708770063,113.69980581385244 133.60172414049157,114.31216926888374 133.065400847001,114.53542481912882 133.08563946184586,115.02020469462514 133.2576676880708,115.39654356274332 133.065400847001,116.17472636271123 133.38921868457692,116.29591762126074 133.50559071995667,116.6148405117674 133.66243998502614,116.69138168758218 133.91036301694112,117.03581545602356 134.3454932361783,117.13149106060882 135.0032482187089,117.79483663136125 134.65413211259875,118.49644208185418 134.6693110737251,118.74519062266336 134.775563801697,118.84724093015029 134.68954968859907,119.01945032803269 134.88687618332915,118.98755974579035 134.9071147982031,119.08323142843801 134.63895315147238,119.00669409769762 134.70472864969634,119.15976863617107 135.9949403462815,119.42126983426351 136.3288774912653,119.4085137115726 136.65269532887032,119.59985519300972 136.78424632537644,119.9315119393832 136.57680052318028,120.30781198875775 136.1467299576616,120.37159136340415 135.49909428250976,120.6968648452712 135.63064527901588,120.95835760188129 135.4333187842567,121.04764748257367 135.0993816392438,121.48133880713067 135.2359922894684,121.55787216025419 135.17021679121535,121.48133880713067 135.0589044095541,121.51960549907744 134.98806925758254,121.69818298818427 134.64401280516176,121.85762660897672 134.21900189336156,121.90227072714333 134.0672122820106,121.78747148159891 133.8294085575326,121.78747148159891 133.7332751369977,122.0680913709657 133.79399098156136,122.15737917079241 133.66749963874463,122.1510014763553 133.51065037367516,122.37422027334105 133.47017314395634,122.73774578881785 133.61690310161794,123.10126852920075 133.85976647981443,123.39463573489775 134.49728284750017,123.65611367756355 135.09432198555442,123.76453094005046 135.61040666417102,124.30023614350284 135.63570493273437,124.54257699396476 135.51933289735462,124.8678219866888 135.08926233183593,125.37162847248692 134.63895315147238,125.55019151733723 134.33031427502283,125.55019151733723 134.32019496761495,125.63947278868 134.18864397107973,125.61396387108834 134.19370362479822,125.7096222416294 134.35561254358618,125.63947278868 135.06396406327258,125.74788553604958 135.30682744143996,125.61396387108834 136.29851956901257,125.90731559851338 136.4300705655478,126.0412364385702 137.34586788740125,126.0858766348938 137.41164338565432,126.16240258839753 137.25479412058485,128.4581240190273 137.38128546337248,129.66333347545515 138.9750763826887,135.70167516438232 139.7340244395018,137.7674157242218 136.36429506726563,139.3485393440933 136.22262476332253,139.48242240243053 133.38415903085843,144.09797019653706 133.00468500246643,145.21353966570678 133.02998327102978,145.74262919879402 132.7820602391439,145.75537827170047 132.94396915793186,145.5067707349299 132.76688127798843,145.79999999999927 132.98950604134006,145.78087640726153 133.09069911559345,145.08604733373068 132.97938673390308,145.07967270817244 133.0148043099034,144.72906698974475 133.0198639636219,145.21353966570678 133.2121308046626,144.15534297762497 135.1499781763705,141.10174007893875 135.144918522652,140.84673307189587 134.92735341301886,140.66822735497408 134.47704423268442,140.59172470016347 134.3910301195574,140.39409227338547 134.26959843048826,140.46422000251914 134.28477739161463,140.55984855773204 134.36067219727556,140.54072286203882 134.38091081214952,140.47697048764167 134.25947912308038,140.48334572891326 134.2544194693328,140.53434762842517 133.88000509465928,140.91048495160067 133.18177288238076,141.06986427769152 133.00468500246643,140.29208811948774 133.22730976578896,140.03070147844483 133.13117634528317,140.02432617660816 133.0148043099034,139.52705000494097 132.80229885398876,139.5589268382828 132.38740724959644,139.1317754997217 132.2659755604982,139.2784099729579 132.39246690331493,138.82575427588745 132.63027062776382,138.40497188383233 133.43475556798512,138.26471026068975 133.48029245139332,138.05431705177398 133.62702240905492,137.93955672806624 133.35886076229508,137.85667410013775 133.3436818011687,137.50601523279693 133.18177288238076,137.46776138204586 133.00468500246643,137.58252284214905 132.95914811905823,137.69090841176512 133.05528153959312,137.7992937348099 133.18683253609925,137.69090841176512 133.0249236173113,137.78654253312925 132.9186708893685,137.50601523279693 132.84783573739696,137.70365963902805 132.43800378672313,138.03519035035424 132.29633348278003,138.50698007767642 132.27609486793517,139.25928376291267" stroke="#4dd2ff" stroke-linecap="round" stroke-linejoin="round" stroke-width="0.5"><title>2025-05-04 11.1km</title><desc>1746326389000</desc></polyline><polyline fill="none" points="179.03710251154553,144.89608769584493 179.0290227107398,144.91527799581763 178.97650400550629,144.9051778438875 178.9498406628445,144.89911774638222 178.90944165881956,144.8657871250175 178.9037857982512,144.85568690829405 178.95711248356747,144.76579439692705 179.01528704936936,144.661760182978 178.99670350751694,144.7102423213155 179.07830949565687,144.6940816423903 179.06457383428278,144.76983453227876 179.10982071879334,144.8395265340364 179.16557134435425,144.93547826001168 179.19223468700875,145.20312676768845 179.29888805764494,145.23241604075793 179.44674841238157,145.28796435671075 179.44432447214422,145.3849204590947 179.56390552406447,145.49197474020775 179.53966612164731,145.4990443102638 179.56471350414358,145.4869250433435 179.64308757195613,145.44854723918752 179.6915663767868,145.49197474020775 179.64147161179426,145.43945773129371 180.08505267601504,145.26776501536278 180.51005019838703,145.22938612111466 180.78476342577414,145.46066656638413 181.24369611152724,145.50813374796235 181.82463378944158,145.47278587454593 182.23751161060136,145.79091090609518 182.3360851804282,145.80000000000018 182.90813507746134,145.67477154160588 182.928334579472,145.3940100312334 182.9331824599576,145.0152687865234 182.95257398188915,144.59509674527226 182.86612011327088,144.2375284750533 182.67786075450203,143.9860086603585 182.66412509313523,143.66073794356362 182.59544678628663,143.38192355366846 182.36517246332733,143.08592478329592 182.28356647519468,142.6979774514225 182.65038943176478,142.5585541115738 182.72149167885436,142.508037786567 182.22781584963377,141.22279115115134 182.03955649086856,140.64577505337502 181.9393669608762,140.60232025323103 182.26498293334225,139.6280599446004 181.78827468581585,138.5000279608962 181.6032472473671,138.08859884789217 181.22834448999492,137.40923781449146 181.48205023528863,134.932904339772 181.25419985257395,134.83986199590527 179.58814492647798,134.81356721662996 179.56148158382348,134.4838635135311 178.51353141935033,134.59916027937743 178.30103265816433,134.4697041425079 178.14994038310397,133.80216137376965 177.94309748247906,132.20690419250695 177.6950475977501,131.21741551490322 176.58165104675209,130.97660044196437 176.17119716583693,130.7367897035233 175.65085799396184,130.62042314828932 174.81298265043006,130.5111381712586 174.37020956629203,130.78738330874012 173.97106740649906,130.6831601185704 172.98209978790692,130.56274515950918 172.64194017399132,130.55970946390653 172.1248329224436,130.44637597047677 171.8202244320746,130.4949476721954 171.48491269864826,130.10332959156085 170.9476059450826,129.97885765228693 170.22365579291,129.79771196164393 170.08791513937467,129.8685515667039 169.96348620697245,129.84729975371965 169.88511213915626,129.8685515667039 169.34942134575613,129.69246334315358 168.96563080749183,129.57709300987835 168.78625922960782,129.49916645426038 168.19643377080865,129.26335790945404 167.5662093079809,129.23906820638285 167.05637387715979,129.32509389266852 166.70167062179826,129.47487749623815 166.42534143424564,129.8786714570042 166.29525664127868,130.32798116215554 165.98256835010397,130.67304128701744 165.88641872051448,130.89565250559326 165.83955587584933,130.85517821788426 165.78380525028842,130.865296809784 165.87995487987428,130.9098184559648 165.54221920620694,131.66968226897552 165.5470670866889,131.8598894249617 165.64240873618837,131.9570146692713 166.0286232146973,131.85483078488824 166.49886762157985,131.65754122698172 166.9812317296637,132.10371193205128 167.0806132795733,132.0349163226906 167.08869308037538,131.71622275241998 167.43612451501394,131.59278867934745 167.55732152709606,131.85280732792717 167.57428910878662,132.0318812081041 167.64619933595532,132.10472362760038 167.54843374621123,132.22410276799974 167.4740995787979,132.27873328216674 167.37229408865096,132.45375065037342 167.5452018258875,132.53164727367675 167.51530656290925,132.6874381541311 167.51288262266462,132.6894613915647 167.5460098059666,132.5306356342744 167.3706781284891,132.46892537911344 167.47005967839868,132.27873328216674 167.58802477015706,132.3283050796481 167.78032402932513,132.45880889661294 167.90636892189286,132.55390330689352 168.07766069896752,132.5650312993571 168.41862829296224,132.50736789127996 168.4493315360196,132.44768075049842 168.28288763943056,132.43554093638113 168.60850361188932,132.39912137907913 168.60446371148646,132.36067832599247 168.37903726901277,132.35056170114603 168.3612617072431,132.32122341385093 168.62466321350075,132.30503672469194 168.68768565978462,132.29593169707414 168.74666820566563,132.30503672469194 168.78060336905037,132.3950747509598 168.82908217388103,132.3465150474808 168.89856846080875,132.34449171985034 168.8371619746831,132.44161084583538 168.81453853243147,132.58728723599415 169.04481285538714,132.9868715070952 168.94947120588404,133.1760345446246 168.7717155881619,133.03643874198133 168.63274301430647,132.91403743975252 168.38388514949838,133.02025355753494 168.35802978691936,133.13152601300544 168.40731657183278,133.33383544579465 168.31116694225057,133.3500199706291 168.2998552211211,133.3024778320564 168.29339138047362,133.33687004679223 168.23764075491636,133.30146629400042 168.15199486638085,133.29944321749463 167.8223389935156,133.5654732145017 167.81183525246524,133.5411970942232 167.8174911130336,133.4997252115768 167.82637889391845,133.32675470547565 167.82880283415943,133.3287777748028 167.86677789794703,133.21649662267146 167.84173051545076,133.1608612104974 167.87728163899374,133.12950289181708 167.83203475447954,133.17502298994486 167.86920183818802,133.21143887455173 167.84011455528525,133.37530822252847 167.81102727238977,133.47241433752833 167.8223389935156,133.5664847178491 168.09866818106093,133.34293924520216 168.23198489435526,133.2974201404545 168.25299237644867,133.36316987198688 168.2764237987867,133.37025057879737 168.28046369918593,133.35912375088446 168.2764237987867,133.36418140193246 168.3741893885308,133.35103150230043 168.4024686913508,133.2326813943141 168.39034899014223,133.01216095254813 168.6691021179322,132.90493313285424 168.76767568775904,133.03340402248978 169.00926173184416,133.19930026549764 169.19509715037202,133.14872252165378 169.26377545721698,133.013172528636 169.49162583993166,133.08297095760327 169.71947622264634,133.23470448837952 169.83501737416373,133.08297095760327 170.06771563736402,133.0647627328317 170.39575555006377,133.03745031487733 170.6494612953611,133.23672758190605 170.91851866217985,133.30348936997962 170.87003985734918,133.2782008820418 170.883775518716,133.17502298994486 170.94114210443877,133.07993625646805 170.97265332757888,132.9969872952497 171.25383039560984,132.71879827460225 171.57944636807224,132.64798491777128 171.8840548584376,132.41530787027796 173.0289626325757,132.2089275563253 173.7472569241836,131.9772489408101 174.38717714798258,131.653494208726 174.54069336328757,131.14355286988257 175.32039414101382,130.97862412945415 175.31473828045273,129.634778392925 175.31393030036998,129.28461133668452 175.32524202149943,128.9819974777688 174.9317557222712,128.69455388412462 174.47605495684184,128.40608735861088 174.40980059023786,128.19453835879267 174.32657864194334,127.87264880557268 174.03893773326854,127.54264740582903 174.01469833084775,127.35638269028641 174.05832925520008,126.64570082981845 174.04701753407062,126.36728189515725 173.6777706372559,125.79927597790766 173.44830429438298,125.51475098660148 173.2228778519093,125.36489017001031 173.15339156498158,125.11579072152517 173.09279305894597,124.00790912034563 172.8358553933249,123.80130291170417 172.28158105807233,123.77091917681491 171.0082044511255,123.58557579013723 170.27698247822627,123.42149758292953 170.10569070115162,123.09434353038569 169.95783034641136,122.84820915493628 169.57161586790608,122.84314457875098 169.27104727794358,123.06496988383151 168.90907220185545,123.44479285062653 168.56164076722052,123.2290557110673 168.35722180684024,122.93228063153492 167.76739634804107,122.25867004214615 167.55732152709606,122.15737010319981 166.89316190087993,120.99333784826968 166.70167062179826,120.07434692412517 166.52391500407248,119.87371464047101 166.34292746603023,119.57984980387937 165.46869301887637,117.23359394561066 165.48646858064603,117.10181746453645 165.86621921850747,117.08255763527359 166.0318551350174,116.56657893329202 166.16113194790523,116.4003229944019 165.0283438749757,116.37903386373091 164.772214189441,116.32327633650311 164.559715428255,116.00798523279627 164.34964060731363,115.96439090842841 164.0005932125132,115.27800106638824 163.5125732438646,114.79941815290931 162.52360562527247,114.39280197867447 161.95640360872494,114.44350342740381 161.07328138068624,113.4152124412276 161.0700494603625,113.46490620536588 161.0603536993949,113.4598354278769 161.06116167947766,113.45577880346855 161.06520157988052,113.46997697950019 161.03773025714327,113.47301944236324" stroke="red" stroke-linecap="round" stroke-linejoin="round" stroke-width="0.5"><title>2025-05-03 98.8km</title><desc>1746244765000</desc></polyline><polyline fill="none" points="27.897874239108205,154.35964563455263 27.643631086120877,154.44753881386168 27.592211122591834,154.45471371685926 27.29440383383917,154.32466741898088 27.10086480445534,154.19999999999982 26.960888237081235,154.212556534746 26.89661328267175,154.31031732949668 26.748780887541216,154.38296434444965 26.659510117526224,154.46547605707883 26.55809852279708,154.5910354278294 26.333850348528358,155.1156690143148 26.27743122188258,155.21341675894837 26.228153756837855,155.24031956010413 26.178162125634117,155.29950534610134 25.77822907598602,155.3317882838778 25.58683254508287,155.36048409925934 25.1211962087109,155.3766254419279 24.941940502532816,155.2125199970692 23.69643471934978,155.00357123845242 23.22651338601645,155.80973709144655 22.925849432620453,156.1908165477057 22.79015786220407,156.41048789549814 22.737309566360636,156.51090670831218 22.5401997061781,156.99146182973527 22.348803175274952,157.19317722726146 22.22168159877765,157.49439436427838 22.00743175075695,157.88434307251646 21.916018482264917,158.0179065464922 22.006717584597936,158.16670570329006 21.903163491384475,158.35314822387363 21.821034382974176,158.5368966466758 21.85745685713846,158.78069173553604 21.836031872338936,159.32561373026192 21.825319379935536,159.3641509613194 21.46180880445536,159.8964800450658 21.333973061799043,160.14022620068454 21.24041729482633,160.1922003494169 20.964749157039478,160.4207026523859 20.76692513069429,160.6635339075351 20.527679467064445,160.8633479333139 20.608380243156716,161.0846597298455 20.597667750756955,161.13035478750544 20.33913960080463,161.1617139624973 20.26843715096038,161.14737835765163 20.252725495436607,161.2548946547513 20.47625950354268,161.77990806870366 21.01973995136359,163.32335531566014 21.162573183381028,163.5839957043786 21.32683140019799,163.7496897111746 21.46180880445536,163.98165451865452 21.599642873348785,164.1751017262427 21.656061999994563,164.31839239636838 21.74390443768789,164.40705198228216 21.526083758861205,164.66048662874846 21.67463032015803,164.90406153362437 21.740333606885542,165.04017311183907 21.964581781150628,165.42521081096038 22.12741166564956,165.63562915516104 22.178831629174965,165.66875825721354 22.280243223904108,165.70457332068418 22.494493071932084,165.88454115246122 22.65803712259003,166.00272638528304 22.964414405265416,166.18895348334718 22.981554393107217,166.55423025301434 23.044401015195035,166.63838436879496 23.17580758865006,166.70821358745616 23.362204956432834,166.72432792048266 23.48147070516643,166.77356592319438 23.56074314892976,166.52110547437724 23.5778831367752,166.5023048524008 23.645014755824377,166.50857173218037 23.67500973454662,166.4861899921052 23.71143220871454,166.44590267392732 23.777135495438415,166.32682986858845 23.85212294224766,166.24267188867043 24.066372790272,166.1209095593772 24.196351031405356,166.08151539675328 24.292763463017764,166.0734574716721 24.317759278619633,166.1021078284757 24.552005779129104,166.2614732300549 24.816961424516194,166.54617288930967 25.14047869503338,166.8040037825408 25.62539751773147,167.0116937669768 25.98462309625029,167.22743395983116 26.468827752785728,167.04213055826904 26.527389377912186,167.05197772622296 26.695932591690507,167.04213055826904 26.84447915299097,167.06898643721934 26.935892421479366,167.14060159485507 27.01516486524997,167.28651514004605 27.085867315097857,167.46912644547683 27.110863130699727,167.58728408383058 27.260123858155566,167.96322652200752 27.2415555379921,168.14313446533606 27.245126368794445,168.29081652697096 27.220130553192575,168.42238511214236 27.23369971023203,168.51457110498131 27.29297550152114,168.59691093340734 27.342252966565866,168.801861169949 27.333682972643146,169.19026517008115 27.732901856128592,169.43278266768812 27.759326004052127,170.13254475577787 27.831456786225317,170.40008179538836 27.850025106385147,170.53697794393884 27.84431177710576,170.62287215789956 27.88859007902647,170.7373960869736 27.880734251266404,170.76871088766848 27.85073927254416,170.7866049946806 27.845025943264773,170.8402870328946 27.860023432625894,170.8912845762652 27.92001339007038,170.97180623368558 27.95000836879626,171.07916695892345 28.456352176293876,171.2554138039177 28.510628804458975,171.31177604325148 28.58990124822958,171.46833536586473 28.592757912869274,171.5962640196667 28.6763153535976,171.68482859974392 28.717022824726882,171.77070830220828 28.734162812565046,171.8208042940414 28.731306147925352,171.84943040926373 28.717022824726882,171.86284885925943 28.731306147925352,171.94335900275655 28.95841098683013,172.25286689407403 28.963410149946867,172.4102990251845 29.026970938197337,172.79581344591725 28.999118457955774,172.91835057258731 29.129810865248146,172.97291018823807 29.251219112462422,172.99437614647377 29.497606437689683,172.99527055992758 29.987524423508148,173.0382022673648 30.267477558259998,173.04267430462824 30.274619219857414,173.02836377502854 30.30390003242428,173.02836377502854 31.0430620081097,173.62311976629871 31.070914488351264,173.62938007891626 31.183752741646458,174.15969706164697 31.502985015202285,175.35611194801868 31.5379791570449,175.6761932449499 31.669385730499926,176.1071168982735 31.700094875381183,176.3297202910444 31.74794400810788,176.40302583804942 31.837214778119233,176.4915278239755 31.87649391692321,176.51119477559996 31.986475505575072,176.53354351525468 32.06217711854333,176.53354351525468 32.10859791894836,176.55499823624905 32.69064333941424,176.48527014562387 32.707069161097024,176.52549797743495 32.70849749341869,176.76149646624208 32.730636644380866,176.80261657757455 32.783484940227936,176.81960089885797 34.19539143870861,176.81602525579456 34.31465718744221,176.83032781677048 34.4474920932189,176.86429627858388 34.503911219864676,176.85625113190372 34.61103614387321,176.89647677018138 34.68530942452708,176.90899136469488 34.85670930294509,176.89379506835985 34.70459191084592,177.73400992475945 34.74244271732823,177.75724843573425 34.840283481262304,177.763504944362 34.751726877409965,178.02984812002387 34.758154372852005,178.0593418574863 35.03525084296416,178.12458512564672 35.141661600817315,178.17820926133027 35.21807737994459,178.19250895948426 35.27163984195431,178.21753335896983 34.8709926261472,179.02094643310647 34.880276786225295,179.03256350175116 35.03239417832083,179.04149969490936 35.05024833232528,179.12639294486735 35.08095747721018,179.1397970454559 35.13237744073558,179.1987747745029 35.13809077001497,179.22736985315396 35.180940739617654,179.2425609398324 35.19593822898241,179.27741095177635 35.37376560284247,179.21396592499104 35.17165657953956,181.3814850114518 35.0788149787295,182.08359182737604 35.07024498480678,182.22203946478112 35.10309662817235,182.4283658844679 35.34448479027924,183.2455714908674 35.39090559068427,183.37774417408673 35.493031351576064,183.59207280640658 35.47303469909457,183.62243548426477 35.1130949544131,183.76085186065256 35.20807905370384,184.18590651765317 35.33305813172046,184.53057423702376 35.34305645796121,184.819867368426 35.52445466261997,185.20914369099592 35.57873129078871,185.29396012438337 35.67942871935884,185.38770337594133 35.71299452888343,185.46894648482657 35.697997039522306,185.9885223790784 35.74727450456339,186.51073661132932 35.360196445799374,186.5803621547202 35.03239417832083,186.56072425290495 34.854566804460774,186.5999999999999 34.65817111044089,186.24740280821652 34.4989120567443,186.2482954823522 34.27894887943694,186.22062252986325 34.191106441743614,186.24561745960045 34.101835671739536,186.20276895254028 33.84973501722925,186.19562750852674 33.6583384863261,186.15099331400643 33.448373635259486,186.13671031006743 33.15270884499114,186.0786852989636 32.857044054715516,186.1117149811971 32.76491662006447,186.1991982314671 32.793483266468684,186.21972985210869 32.80490992502746,186.20544699211723 32.81633658358987,186.20812503064553 32.80562409119011,186.20455431237633 32.81990741439222,186.2099103890787 32.82276407903191,186.2331200061808" stroke="red" stroke-linecap="round" stroke-linejoin="round" stroke-width="0.5"><title>2025-05-03 66.9km</title><desc>1746236322000</desc></polyline><polyline fill="none" points="78.19403786002658,154.58944916188193 77.59894621069543,154.1999999999971 76.93773326685186,154.8490815838304 76.51896506908815,154.38174302122206 71.9345553254243,156.6924636667245 72.11087877722457,157.67905668525782 71.53782755928114,159.62626779354468 71.69211057934444,160.17148406026536 70.76641245814972,161.9369377207331 68.89297578402329,163.02735846528958 67.74687334813643,164.22162309505802 67.63667119084857,164.81875317162485 67.239943424589,164.76682887643983 66.11588142008986,165.98704683188407 64.81549596402328,166.03897086197685 64.33060647186358,166.81782995951653 63.60327223374043,167.05148719376302 59.900479748495854,171.02362522034673 58.31356868345756,171.1793939936906 57.65235573973041,170.86785634556145 56.44013200933114,168.11592281413323 55.64667647681199,168.4274640500371 54.52261447242927,166.61013444844866 53.112026858958416,165.8053126376908 48.92434488167055,170.91977931513975 48.770061861374415,172.5034244673734 48.96842574456241,173.15245633393351 49.85004300298169,173.56783580344927 49.89412386575714,176.16394113049319 51.06226673326455,178.44849048997276 50.95206457586028,178.9157819867978 50.863902850076556,178.6302150695119 52.054086148855276,177.74755153160368 53.37651203654241,175.54087842408626 55.205867847660556,175.28126848359534 56.37401071493514,176.6831588116911 57.32174926775042,179.46095424491796 58.027043074485846,180.2916905326565 60.231086220475845,180.7589784255979 62.28084634616971,181.82335299314582 64.6171320809517,181.40798787222593 65.41058761335444,182.08295582710707 65.56487063365057,183.38096576737007 64.72733423823956,186.60000000000582 66.29220487177372,184.91260842996417 67.32810515048914,184.78280858501967 68.49624801776372,185.302007541919 72.46352568047587,182.6800412752491 74.79981141525786,180.39553236559732 75.81367126246914,180.0840067314566 76.10019687132444,177.25429695809726 78.37036131171044,177.48794398827886 79.22993813862558,176.5014327515819 78.12791656563058,169.38804697032901 76.93773326685186,166.40243875676242 77.95159311406314,165.00048811615852 78.01771440845914,164.2735475087975 76.45284377480857,161.59942552944995 77.22425887582358,158.17235166688624 78.03975483973045,156.1991656297323 78.5466847633943,155.83568221397582" stroke="#4dd2ff" stroke-linecap="round" stroke-linejoin="round" stroke-width="0.5"><title>2025-04-28 5.2km</title><desc>1745795058000</desc></polyline><polyline fill="none" points="94.92133853945415,185.15368910120742 95.02659577177837,186.60000000000582 94.95642428356223,185.9388306676119 94.50030961004086,185.81486116202723 95.00905289978255,185.87684592486767 94.76345269090962,183.9139852940425 95.97391086292919,183.0875116014795 95.14939587609842,182.426330062357 94.7108240746893,181.53786375078198 94.58802397036925,180.25681199714018 95.16693874821067,179.76091867987998 95.85111075849272,178.35588059443398 97.16682616283651,176.86818189904443 100.39471462124493,174.67793764697853 101.90340161824133,173.21087314904435 103.06123117404059,172.61164636723697 103.1138597902609,170.50400613885722 104.60500391514506,170.91727076932148 105.49969039007556,170.19405707686383 104.56991817103699,164.22227320708043 103.72786031232681,161.9285624375043 104.51728955481667,160.9160146483773 104.55237529892474,160.1720985519496 104.46466093871277,159.6554884396901 103.37700287112966,158.43628301100398 103.6752316961065,156.05984318585251 104.51728955481667,154.1999999999971" stroke="#4dd2ff" stroke-linecap="round" stroke-linejoin="round" stroke-width="0.5"><title>2025-04-27 2.3km</title><desc>1745711220000</desc></polyline><polyline fill="none" points="123.35026037332136,154.25545008010886 124.01507063503959,154.20000000000073 124.43626389135898,154.3108999657925 125.15243918433407,154.34035763848078 125.33882086919039,154.42699753425404 126.0300474327014,154.89137928568562 126.15185593539354,155.08371251049903 126.52315173279203,155.9067336772805 126.53489231135609,156.05054140199536 126.6185439336914,156.1423697470982 126.8665636560545,156.58764303133103 127.07495892573206,156.8198038975188 127.94229416784219,157.56997206427877 128.3194602545118,157.95283864406701 128.40017673220427,158.09489538074558 128.25341950004076,158.212697560979 128.0905189723344,158.2525422175877 127.55779021955823,158.5366490349461 126.76970388282643,158.83460924178507 126.25165085326444,159.09618596203836 125.41073191295436,159.70420521070992 125.01155224145623,160.08528798931184 124.78994882088591,160.35030833111887 124.57568326192268,160.66035917761656 124.17503601810313,161.3168155117346 124.11046283594624,161.47269824093564 124.1089952636321,161.58354724796118 123.84629981804756,162.27287209206224 123.73623189391947,162.43047732638843 123.59681252336304,162.79244384938102 123.40309297689964,163.15786577443214 122.65022837587458,164.21425140870997 122.35964905619039,164.56925043621413 122.12483748472005,164.9017301154272 122.13511049097724,164.92943644037769 122.20555396241252,164.88095033991522 122.64142294195335,164.29044699249607 122.70746369643166,164.2679346990717 122.76616658929561,164.2921787060459 123.38694968135678,164.69739447238135 123.59681252336304,164.79609930700826 124.84278142446419,165.5597422427236 129.10020872964378,168.70050783122315 129.61385904223425,169.1263851214644 131.32211322466173,170.22391857223192 131.91060972565901,170.4801141812568 132.57248484272714,170.6549479974874 132.954053646361,170.69303035523808 133.90944322777796,170.96825922163407 134.1060979188842,171.0028788665877 134.12517635905533,170.97691413995744 134.67551597969577,171.1638592227555 135.09377409136505,171.37503527646368 135.42838058071356,171.6017867605624 135.45626445482048,171.56197566594346 135.478278039649,171.57063026023388 135.71602475575492,171.75237564926647 135.77179250397603,171.73160485308108 135.77619522094756,171.70910312651722 136.00513650313223,171.80257162774433 136.12400986118882,171.93238807669877 136.27957252728083,171.9600821149561 136.3764323005089,172.01373917645105 136.414589180873,172.06047259823208 136.3955107406946,172.03797133827175 136.40284860230167,172.1262453289346 136.46448663980846,172.0933589976812 136.51144895410835,172.10720588230834 137.10875088902685,172.43606583921792 137.16451863724797,172.48972129043432 137.16598620956938,172.4672206394407 137.31127586941875,172.5174143555214 137.45509795693943,172.5329916833889 137.64588235876,172.595300841871 137.63120663553855,172.60741648314797 137.8660182070089,172.65760975556623 137.93059138917306,172.7078028691576 137.97461855881556,172.86703514381043 138.01717815613665,172.90857373517974 138.19475440706447,172.89991987094982 138.51615274552023,173.10241905662224 139.58014267872204,173.43645052571992 139.77532979750686,173.53163955293894 139.70488632607157,173.53683166526753 139.58161025105073,173.50394825847434 139.58894811265782,173.48664117489352 139.4847504778154,173.5524079920615 139.2836930697449,173.97123237814594 139.15307913312427,174.16506471490356 138.81847264378302,174.53195515453262 138.68198841786216,174.81577024062244 138.58806378926965,174.91787320671938 138.54256904730573,175.0130533461088 138.37820094727795,175.17399301019032 138.14192180348618,175.4854844971851 137.7398069873525,175.85926621075305 137.55929559177457,176.1240229312989 137.55782801946043,176.1724746634718 137.5813091766031,176.16901383036384 149.78564060365898,186.5463922069448 149.80325147151598,186.53947505918586 149.7871081759804,186.56195577839026 149.81792719473742,186.57233148422347 149.81205690544448,186.5463922069448 149.87516251527995,186.60000000000036" stroke="#ffc800" stroke-linecap="round" stroke-linejoin="round" stroke-width="0.5"><title>2025-04-20 36.9km</title><desc>1745145130000</desc></polyline><polyline fill="none" points="164.75598067205283,155.39042261174473 164.51030502832145,155.35020594469097 164.38064288304304,155.47889920217858 164.09402129871887,155.47889920217858 164.27145370806102,155.38237928009767 164.29875100179925,155.2215124630602 164.05307535809698,154.9078211622691 164.09402129871887,154.77108351171773 163.99165644714958,154.9239079280378 164.18956182681723,155.16520899432362 164.5648996157979,155.14107892317406 164.46253476428683,155.55933237420686 164.00530509400414,155.6236788488386 163.43888624879764,155.36629261413327 163.58902136440156,154.64238902118814 163.8483456549875,154.20000000000437 164.6467914970417,154.3528255977435 165.083548197028,155.04455855969718 164.27145370806102,155.93736710990197 163.86199430184206,156.05801608641195 163.90294024246396,156.1947513549312 163.75280512686004,156.0338863068755 163.2614538394264,155.96149692095787 163.29557545663556,156.2590972760663 163.71185918626725,156.9186397365338 164.30557532524108,158.91331768824602 164.57172393926885,159.33154978405946 172.7336147694441,161.93740412987245 173.4638173771673,162.0419580964808 174.03706054581562,161.97761721143615 174.18719566144864,162.178682291109 175.27908741129795,164.67988614745263 176.9646953001211,170.67117170330312 179.86503276068834,178.18974898635497 180.7385461605736,181.2050063368588 180.64982995591708,181.43818111638393 178.24084378275438,182.21810520841245 178.35685728120734,182.75681086032273 180.47922186998767,186.42312120246788 180.4246272824821,186.59999999999854 180.24719487311086,186.31056174739933" stroke="#4dd2ff" stroke-linecap="round" stroke-linejoin="round" stroke-width="0.5"><title>2025-04-16 7.1km</title><desc>1744770713000</desc></polyline><polyline fill="none" points="17.296774193877354,200.39069386874326 17.064516128972173,201.26913878170308 17.800000000279397,202.48919764580205 16.948387096868828,203.41643964900868 17.68387096771039,203.4652417942125 36.84516129037365,221.42398730284185 37.541935484157875,220.78959018492606 37.00000000023283,220.05759213745478 37.65806451626122,218.3007908212312 39.012903225841,217.42238698570873 37.92903225822374,221.81438498015632 40.09677419369109,222.497579908435 41.64516129065305,219.27679259865545 41.954838709905744,219.6183926028316 41.91612903238274,217.81278895190917 43.4258064518217,217.81278895190917 43.23225806467235,216.59278141794493 44.200000000186265,216.6903821710439 43.27096774219535,224.7911535097228 43.735483871307224,224.9863505960384 43.038709677523,225.96233445918187 43.50322580663487,224.7911535097228 42.84516129037365,223.5223698981863 42.03225806471892,224.74235422178754 40.638709677616134,224.1079628833977 37.58064516144805,224.3519596827682 30.458064516307786,217.2271858456079 29.529032258316875,217.51998751654173 30.225806451635435,216.93438393931137 22.832258064532652,210.0046701185347 19.735483871074393,210.8830918436288 18.380645161261782,209.61425978282932 18.458064516307786,208.83343785608304 18.07096774200909,210.1022726369265 16.638709677616134,210.6878871988738 15.593548387289047,210.54148364672437 15.400000000372529,209.85826629176154 14.741935483878478,211.66390937633696 14.470967742148787,211.07829638361 13.077419355046004,211.61510832959902 13.929032258223742,209.5166571336158 12.76774193579331,207.46699545622687 11.800000000046566,202.3915930869407 12.419354838784784,201.95237224907032 13.8516129036434,202.48919764580205 17.4129032259807,201.1715338960057 16.832258064765483,198.97541705259937 15.86451612925157,198.4873892889882 16.79354838724248,198.38978365785442 15.980645161354914,196.4376655408414 16.75483870971948,197.07210507657146 16.870967742055655,198.63379768680898 16.251612903550267,199.1218252540857 16.445161290466785,196.92569605106837" stroke="#4dd2ff" stroke-linecap="round" stroke-linejoin="round" stroke-width="0.5"><title>2025-04-07 2.7km</title><desc>1743986187000</desc></polyline><polyline fill="none" points="65.18923327908851,211.4833172984363 62.78433931490872,211.28341020396329 64.13213703106157,210.350508304502 65.69135399674997,210.3171903148468 66.82773246336728,209.1177397116553 66.48417618288659,208.65128513668606 65.47993474721443,208.8178761567542 61.595106035936624,204.48647335801797 57.94812398054637,204.7863421367365 56.49461663956754,205.45271590576158 55.67536704742815,206.48559171825764 54.53898858081084,205.21948528976645 53.87830342585221,205.0195731590502 52.926916802767664,205.48603454728436 50.60130505729467,203.6868215133145 47.800000000046566,205.18616661254782 49.279934747260995,203.9866912563739 50.892006525420584,203.6201837434637 52.68907014699653,205.31944129482144 54.08972267538775,204.98625445502694 55.67536704742815,206.45227321067068 56.6267536705127,205.41939725974225 58.2916802612599,204.75302340144117 61.85938009794336,204.5531108956493 66.11419249605387,209.78410187221016 65.47993474721443,210.350508304502 63.26003262645099,210.38382628977706 61.54225122346543,211.41668161815323 66.19347471464425,211.51663513187668 70.47471451887395,210.48378021882672 71.53181076678447,213.34910909665632 72.37748776515946,213.7156022690615 76.31517128867563,213.5823320870404 80.17357259383425,217.0806506925146 80.20000000006985,217.4471383648197 78.56150081555825,218.1467951485829 76.42088091361802,218.41333054842835 76.26231647643726,218.77981625653047 76.57944535068236,218.3800136390346" stroke="#4dd2ff" stroke-linecap="round" stroke-linejoin="round" stroke-width="0.5"><title>2025-04-04 2.7km</title><desc>1743741381000</desc></polyline><polyline fill="none" points="113.4756782327313,210.0010337872518 111.91208808647934,211.01883798153722 111.37717566813808,210.8734376666398 110.84226324979682,211.69737153104506 109.31982021289878,212.13357058014662 109.03179044905119,211.84277130881674 109.7312913039932,210.65533701666573 109.44326154014561,210.31606891509728 106.60411101172213,210.849204271668 105.61658039316535,210.72803725699487 104.50560844724532,209.92833330990106 103.78553403785918,208.3289168148185 103.90897536522243,207.91694404209557 105.24625641119201,207.3595679031423 105.06109442026354,205.20275146087806 104.13528446527198,204.18492072810477 102.63341498281807,203.94257939298404 102.03678190079518,204.83924101808225 101.5018694823375,204.52419815507892 99.5062346906634,207.18993141049577 97.7574825535994,208.71665520008537 97.18142302613705,208.8862905316928 95.80299487092998,208.52278609176574 95.20636178890709,206.99606097525975 94.87718491605483,210.0495007589634 95.43267088895664,211.57620497715834 95.04177335242275,211.261171628983 95.06234690709971,210.70380384621967 95.57668577088043,210.67957043270872 96.62593705311883,211.50350501322828 96.83167259872425,212.1820370885107 98.39526274474338,213.29676387450309 97.71633544447832,213.73295979628165 97.8603503262857,214.12068878833088 95.12406757066492,214.87191179300135 94.69202292500995,213.82989210744563 93.37531543371733,212.32743655037484 93.29302121535875,206.65678730806394 91.91459306026809,206.87489186758467 90.68017978710122,205.85706876506447 89.98067893227562,206.05094019023818 91.60598974197637,203.77294030159828 93.00499145162757,204.49996407024446 94.01309562486131,206.19634364859667 95.41209733451251,205.05734735482838 97.11970236245543,204.8634750659985 98.60099829023238,203.28825647266058 99.19763137237169,203.19131958046637 99.42394047242124,203.8456427850906 99.0536164904479,202.73086876735033 99.44451402698178,202.29465133073973 98.72443961759564,202.39158861256146 98.62157184490934,202.82780585964792 98.29239497205708,202.44005723773444 99.21820492693223,201.93113614853064 97.98379165364895,202.51276015568874 98.06608587189112,202.92474290980317 98.39526274474338,202.73086876735033 98.9507487177616,203.02167991781607 97.24314368981868,204.7907729142462 95.37095022527501,205.1058154007187 94.15711050666869,206.19634364859667 92.90212367894128,204.45149589273205 91.42082775104791,203.79717446544964 89.87781115947291,206.24481144700258 87.77930859499611,208.4985524413496 87.75873504043557,210.5826367525733 88.58167722262442,210.97037122043548 88.58167722262442,211.81853801918624 87.22382262197789,211.77007143177616 86.29801266710274,209.49212994865957 86.52432176715229,210.31606891509728 86.31858622166328,211.18847156240372 86.03055645793211,211.52773833715764 85.35162915766705,211.28540497928043 84.89901095745154,212.98173295614833 85.47507048491389,216.20472057542065 86.35973333078437,217.14979834163387 86.91521930380259,218.6279888706049 86.77120442176238,219.98500761848118 85.92768868524581,220.639281565469 85.70137958496343,219.91231039480772 85.88654157600831,219.64575370535022 86.40088043978903,219.96077521321422 85.88654157600831,220.9058370677667 86.73005731275771,222.06898462386744 87.22382262197789,225.02529070200399 90.70075334154535,227.08498899611004 93.62219808832742,227.39999999999418 94.73317003413104,227.3030735846114 97.69576188991778,225.46146369242342 101.91334057343192,226.43073395159445 102.9008711919887,226.04302635324711 105.69887461140752,222.50516339395836 105.28740352031309,221.75396609294694 103.72381337417755,221.48741160385543 103.37406294676475,221.07546313079365 103.003738964675,219.18533685526927 104.87593242921866,217.9494764012925 105.53428617492318,216.56821249781933 106.3983754661167,215.96239229821367 106.11034570238553,214.7749799345329 104.85535887465812,213.95105743722524 105.34912418399472,211.23693827605166 105.90461015689652,210.65533701666573 107.4887738575926,210.50993646483403 109.85473263124004,209.5405970308493 110.69824836798944,209.80716579512227 111.21258723165374,210.75227066515072 111.80922031390946,210.92190444873995 113.99001709651202,209.3951957525278 115.10098904243205,209.10439291133662 114.89525349694304,207.09299621389073 113.84600221470464,204.18492072810477 114.77181216957979,203.19131958046637 114.89525349694304,202.2704170037032 113.35223690536804,200.08931678670342 113.70198733278085,197.90819524091785 114.93640060606413,194.99999999998545" stroke="#4dd2ff" stroke-linecap="round" stroke-linejoin="round" stroke-width="0.5"><title>2025-04-01 8.4km</title><desc>1743465137000</desc></polyline><polyline fill="none" points="129.87663731607608,206.0499254213064 129.19626368465833,205.80021204409422 130.400001648115,205.612926936883 131.28972101211548,206.61178010556614 132.0224310774356,204.42678644298576 131.3943938787561,203.36550067539793 127.88785285479389,202.55392782448325 126.57944202469662,198.99547888053348 124.06729323137552,199.86948601703625 123.22991030011326,197.99661188130267 129.51028228364885,195.0 128.72523578582332,195.87401348521234 130.66168381413445,197.06017242214875 127.99252572096884,198.183899581898 131.08037527953275,196.9977430680883 140.44859682186507,212.35515062790364 143.53644638042897,211.04416915989714 144.3214928782545,211.54359103995375 145.78691300773062,214.1031210583751 144.9495300767012,213.04185395938111 143.79812854668126,214.66496751696104 145.57756727514789,213.29156404925743 146.0485951739829,213.7909838889027 144.16448357864283,213.91583877778612 147.88037033588625,218.72273045853944 143.9028014128562,220.34582725423388 144.37382931169122,222.84288989647757 145.83924944116734,222.7180370335118 145.62990370835178,223.34230106469477 140.02990535623394,223.46715378580848 140.08224178967066,222.59318414214067 140.81495185405947,223.46715378580848 140.2915875222534,222.40590475226054 142.3327084169723,224.71567943954142 146.5196230725851,224.84053184912773 145.73457657475956,224.84053184912773 146.72896880540065,223.15502192964777 146.62429593899287,220.15854709915584 147.77569746947847,220.7203873731196 148.77008969988674,221.84406619967194 148.50840753410012,222.90531631733757 146.36261377320625,222.2810517901671 142.69906344939955,224.77810564800166 144.68784791091457,224.9029580433853 147.82803390244953,227.40000000002328" stroke="#4dd2ff" stroke-linecap="round" stroke-linejoin="round" stroke-width="0.5"><title>2025-03-30 2.1km</title><desc>1743318651000</desc></polyline><polyline fill="none" points="181.37060467060655,195.89418623351958 181.23831378133036,195.0 178.54839902883396,195.99938450055197 178.72478688135743,197.15656386158662 175.99077516561374,197.73515245874296 176.0789690921083,199.36571643748903 174.57967234472744,200.15469694856438 174.57967234472744,200.8910775471304 174.13870271318592,200.4702887768799 174.05050878669135,201.4170629727014 173.60953915514983,199.0501238569268 174.0064118236769,199.52351264710887 173.25676345010288,199.9969009536726 167.480061276583,200.73328180299723 168.05332179763354,200.83847897170926 168.0092248346191,202.73202392528765 166.50992808723822,202.10084313360858 163.202655850444,202.73202392528765 163.11446192418225,204.25737395667238 164.96653437661007,204.04698114731582 166.15715238195844,209.9379437105963 165.93666756595485,208.67560089263134 166.73041290300898,207.99183043080848 163.334946739953,209.2015774846659 162.6734922924079,210.35872388602002 162.62939532916062,209.09638221396017 165.5838918609079,207.99183043080848 166.8186068290379,209.09638221396017 166.15715238195844,209.78015104643418 167.03909164504148,222.8767593902594 167.21547949756496,224.7176184527052 168.2738066134043,225.50655581310275 165.89257060317323,225.82213038139162 165.89257060317323,227.39999999999418 165.14292222936638,226.76885279701673" stroke="#4dd2ff" stroke-linecap="round" stroke-linejoin="round" stroke-width="0.5"><title>2025-03-30 1.4km</title><desc>1743309591000</desc></polyline><polyline fill="none" points="33.163309918600135,240.33075827798166 32.90689272177406,242.1155801453715 34.212289360235445,243.51597001614573 34.538638519938104,244.6692264359299 34.39877459441777,245.49297779957124 33.48965907830279,246.56385055820283 34.888298333855346,251.8906886525947 34.09573608904611,252.4947559878492 33.326484498451464,252.30255290136847 32.81365010468289,253.15373688894033 31.601496083196253,253.92254576868436 30.575827295775525,254.0323754177225 29.96975028491579,255.10321199485043 32.394058328005485,257.6292700488557 32.60385421628598,260.81426378649485 30.785623183939606,261.8027019585861 29.317051965626888,263.36772115963686 24.421814571134746,266.79974688724906 23.955601485911757,267.6783379822009 23.699184288969263,266.4977304930653 22.370476996176876,266.168257651545 20.64548858080525,268.1999999999971 20.41238203831017,267.5959701967804 21.48467213427648,264.5208870021306 21.204944283119403,263.36772115963686 23.279592512291856,262.0498108977481 24.025533448555507,260.4298701200605 25.074512890307233,259.7709081890789 24.584989150753245,259.2766856135131 25.074512890307233,259.5787106356729 26.00693906075321,261.11628697138804 28.944081497495063,259.30414244860003 29.480226545594633,259.46888339663565 29.456915891263634,258.91974648569885 29.5268478540238,259.4139697592327 29.06063476880081,259.1394013932586 29.107256077346392,258.34315144513675 28.61773233790882,258.260780617813 28.874149534734897,257.71164108214725 27.965034018503502,256.6408155560057 28.151519252569415,256.2015012073243 29.480226545594633,256.0093009396078 29.713333088089712,254.99338281112432 30.389342061709613,254.306949331527 30.086303556221537,253.56559907963674 32.44067963655107,255.18558385137294 33.04675664729439,255.15812656881462 34.18897870613728,256.2564155426662 34.63188113702927,257.4096138289169 35.21464749344159,257.1075862148573 35.58761796168983,256.03675812970323 34.63188113702927,250.27068276178034 33.2565525356913,246.61876698756532 34.39877459441777,245.49297779957124 34.5619491742691,244.1475158502726 32.95351403020322,241.86845171557798 33.2099312270293,239.17748205956013 35.00485160516109,235.7999999999738" stroke="#4dd2ff" stroke-linecap="round" stroke-linejoin="round" stroke-width="0.5"><title>2025-03-26 3.9km</title><desc>1742943197000</desc></polyline><polyline fill="none" points="63.39928170311032,237.2179407824733 63.26016799226636,236.69554326131765 63.86720963969128,236.7552459363942 63.93044314463623,236.3821037885209 63.31075479614083,235.79999999998836 63.18428778630914,236.0835893354233 62.88076696253847,235.99403487211384 61.51492325577419,238.21795331519388 61.51492325577419,238.54631404091197 61.36316284391796,238.48661214957247 61.24934253504034,239.21795851853676 60.654947588569485,240.41198498201265 60.75612119649304,240.78511610902206 62.22313851118088,241.65077639398805 63.29810809524497,242.63583141718118 63.13370098231826,243.0388064224535 62.95664716849569,242.82985656824894 62.969293869507965,243.66565406526206 62.72900655074045,244.05370116290578 63.13370098231826,244.30742366863706 63.121054281364195,244.9491902536538 62.79224005562719,245.18798635202984 62.61518624186283,245.0088893174543 62.438132427982055,245.56110441913188 62.0460846973001,245.456631463152 61.91961768746842,245.72527604541392 62.0460846973001,245.59095382044325 63.07046747743152,246.54613121438888 63.70280252682278,246.75507537806698 63.753389330755454,247.78486693941522 64.17073046340374,247.6505467416864 65.11923303751973,248.11320464395976 65.8780350968591,249.54594174628437 65.72627468494466,249.65041157160886 65.84009499388048,249.56086601193238 66.5356635482749,250.6354088500375 66.97829808283132,250.75480197640718 67.04153158783447,250.9786638069054 66.75065746501787,252.73969740020402 67.34505241148872,253.76944380324858 66.8644777739537,254.44101335851883 66.2068493225961,258.5002078756661 66.29537622950738,258.9628289992979 65.48598736623535,259.18667736712086 65.85274169489276,259.0075987021846 65.70098128303653,258.84344305298873 64.89159241976449,259.33590940842987 64.33513757627225,258.485284587543 64.91688582173083,259.09713806401123 64.82835891481955,260.02237469682586 65.18246654246468,259.5746803351067 64.66395180200925,259.67914248417947 65.11923303751973,259.6343730015069 64.90423912071856,259.09713806401123 64.29719747329364,258.58974757036776 64.55013149307342,258.8732895493449 64.37307767925085,258.67928720632335 64.68924520391738,259.52991081816435 64.67659850290511,260.33575987635413 62.868120261642616,264.51416018628515 62.95664716849569,264.94691576607875 66.47243004338816,265.9019577082654 66.30802293046145,267.17036245792406 66.10567571461434,267.12559543208044 66.06773561169393,267.49865353200585 65.72627468494466,267.4688089215633 65.53657417016802,268.1999999999971" stroke="#4dd2ff" stroke-linecap="round" stroke-linejoin="round" stroke-width="0.5"><title>2025-03-24 3.9km</title><desc>1742796232000</desc></polyline><polyline fill="none" points="107.86357211302675,268.1977165345579 107.92945714305097,268.2000000000007 107.9682130430665,268.10409423736564 107.91976816805254,268.1543306438816 107.92170596305368,268.0538577105999 107.86550990802789,268.0629916334983 108.05735161309713,268.01503849392975 108.07479176810739,267.980786184291 108.01084453308431,267.8711784178013 108.0476626380987,267.8118073052792 107.97402642806264,267.74786899625906 108.04184925309528,267.5788882418674 107.9914665830729,267.565187039987 108.03603586809186,267.4624277407638 107.94689729806123,267.36880216340796 107.80156267300481,267.4144732289351 107.79768708300253,267.3733692744354 107.83062959800736,267.3939212617479 107.8383807780192,267.3505337093666 107.94689729806123,267.3276981194613 107.8422563680142,267.3596679383809 107.88488785804657,267.3551008243667 107.85000754802604,267.25462406475344 95.54113370327104,235.94408051047867 95.51400457326235,235.96237637726153 95.53919590827718,236.0012550410156 95.60314314330026,235.95322844587463 95.61089432329754,235.9806722280373 95.73103761334642,235.93950654128275 95.75235335835896,236.0035420189888 95.70778407334001,235.82058299086566 95.71359745834343,235.85260093637407 95.80854941337748,235.8000000000011 95.89962577840924,235.80457399972147 95.9674486034346,235.88919281405106 96.02170686345926,235.9006277626886 95.95000844843162,235.91892366750653 95.91319034341723,235.84573995217943 95.95969742343732,235.85260093637407 95.93063049842749,235.85946191831317 95.91319034341723,235.90520174039557 95.50237780326279,236.02869876013028 95.62252109330439,236.5638440824332 95.51788016326464,236.60043471525387 95.48299985325866,236.6621812629328 95.37254553821549,236.68047650129665 95.36285656320251,236.7719524529748 95.37060774320707,236.8085427215865 95.48493764824525,236.7948213783584 95.51981795826578,236.86114112052746 95.48299985325866,236.74450970949692 95.4791242632491,236.80396894151454 95.4190526182283,236.8154033898245 95.24271327316092,236.79024759528875 95.06249833809125,236.8405591540868 95.06637392808625,236.79710826952578 95.06249833809125,236.8657148880975 94.6516857979368,237.05552535978495 94.64005902792269,237.18358928285488 94.49859999287582,237.2544814744033 94.29513151779975,236.8405591540868 94.21955751276255,236.8771493026361 94.15948586774175,236.86114112052746 94.19049058775272,236.88400994835501 94.17692602275201,236.79253448695636 94.1052276077171,236.69191101714387 94.14010791773762,236.67361578878445 94.03740478268446,236.60958236345687 94.00058667767735,236.51353185773405 94.02771580768604,236.4838018498649 93.90175913264102,236.39003770197633 93.82424733260996,236.43120250161337 93.58202295751835,236.3511597612287 93.37467889243999,236.2573950184451 93.26616237239796,236.22537769288647 93.14408128735522,236.08129912107324 92.8941057322445,235.93493257108275 92.799153777225,235.94865447867778 92.58987191713823,236.1819255297687 92.42709713707154,236.19107336108755 92.4251593420704,236.22080378522696 92.32826959203521,236.23452550518596 92.07829403694632,236.13618631313875 92.08216962694132,236.04242060618344 91.92520823188534,235.94408051047867" stroke="#4dd2ff" stroke-linecap="round" stroke-linejoin="round" stroke-width="0.5"><title>2025-03-24 4.7km</title><desc>1742777725000</desc></polyline></svg>