<?xml version="1.0" encoding="utf-8" ?>
<svg baseProfile="full" height="300mm" version="1.1" viewBox="0,0,200,300" width="200mm" xmlns="http://www.w3.org/2000/svg" xmlns:ev="http://www.w3.org/2001/xml-events" xmlns:xlink="http://www.w3.org/1999/xlink"><defs /><rect fill="#222222" height="300" width="200" x="0" y="0" /><text fill="#FFFFFF" style="font-size:12px; font-family:Arial; font-weight:bold;" x="10" y="20">Over 1km Runs</text><text fill="#FFFFFF" style="font-size:4px; font-family:Arial" x="10" y="280">ATHLETE</text><text fill="#FFFFFF" style="font-size:9px; font-family:Arial" x="10" y="290">Tao</text><text fill="#FFFFFF" style="font-size:4px; font-family:Arial" x="65" y="280">SPECIAL TRACKS</text><rect fill="yellow" height="2.6" width="2.6" x="65" y="283" /><text fill="#FFFFFF" style="font-size:3px; font-family:Arial" x="70" y="285.5">Over 20.0 km</text><rect fill="red" height="2.6" width="2.6" x="65" y="287" /><text fill="#FFFFFF" style="font-size:3px; font-family:Arial" x="70" y="289.5">Over 40.0 km</text><text fill="#FFFFFF" style="font-size:4px; font-family:Arial" x="120" y="280">STATISTICS</text><text fill="#FFFFFF" style="font-size:3px; font-family:Arial" x="120" y="285">Number: 26</text><text fill="#FFFFFF" style="font-size:3px; font-family:Arial" x="120" y="290">Weekly: 2.4</text><text fill="#FFFFFF" style="font-size:3px; font-family:Arial" x="141" y="285">Total: 348.2 km</text><text fill="#FFFFFF" style="font-size:3px; font-family:Arial" x="141" y="290">Avg: 13.4 km</text><text fill="#FFFFFF" style="font-size:3px; font-family:Arial" x="167" y="285">Min: 1.4 km</text><text fill="#FFFFFF" style="font-size:3px; font-family:Arial" x="167" y="290">Max: 98.8 km</text><polyline fill="none" points="23.576582475332543,64.16520574666356 23.70212187085417,64.19999999999709 23.465812420501607,63.96513849658368 23.266426321701147,63.92164554997726 22.867654124158435,63.112672436276625 22.93411615709192,62.75602577917016 23.53965912372223,62.22540220267547 25.164286595216254,61.41641194876138 25.55567412241362,60.82488701917464 25.193825276510324,59.754911704862025 25.304595331370365,58.798011098391726 25.05351654032711,58.38915007868491 25.00920851837145,57.475729618141486 24.662129013129743,56.74498574496829 24.359357529785484,55.553162972086284 24.019662694830913,55.44876889121224 23.783353244449245,54.23952753139747 23.894123299309285,53.95243876957829 23.081809563591378,50.47249309493782 23.133502255863277,50.34199218850699 23.443658409494674,50.31589198168513 27.128608901664848,50.289791766357666 27.39445703336969,50.13319029559352 28.01476934069069,48.3757527735288 28.45784956018906,47.56662252311071 27.44614972564159,46.47036848721473 25.873214946390362,45.46110546154523 25.83629159478005,45.330596382176736 33.132345875841565,32.705011627593194 32.87388241448207,32.51356771423889 30.385248514969135,31.799999999995634 28.930468460952397,32.14808260711288 29.026469175179955,32.792031436743855 28.509542252431856,33.01828249741084 27.91876862643403,33.02698444851558" stroke="#4dd2ff" stroke-linecap="round" stroke-linejoin="round" stroke-width="0.5"><title>2025-06-08 6.1km</title><desc>1749378939000</desc></polyline><polyline fill="none" points="55.11360946740024,49.6609447660594 54.928994082816644,49.687798599850794 54.70177514787065,49.99214129493339 54.68757396447472,50.84250324204186 54.52426035495591,51.370617319393205 54.35384615382645,51.46907880434446 54.19053254433675,51.836070333716634 53.544378698192304,52.050893708314106 53.35266272185254,52.49844018713338 52.37278106503072,52.87437691280502 51.840236686344724,52.89227860890969 51.4355029585422,53.28611470940086 51.115976331348065,53.32191787617194 50.40591715971823,53.69784996895032 50.48402366859955,53.769455842084426 50.34911242601811,53.59939176814078 50.07218934906996,53.91266735816316 50.03668639049283,54.145385417097714 49.823668639030075,53.769455842084426 48.786982248479035,54.04692787568638 48.87218934908742,53.832110918119724 49.13491124258144,53.94847018919245 48.8153846153582,53.90371664738632 48.76568047332694,54.073779946811555 49.156213017733535,54.26174414266279 49.234319526614854,54.41390524727467 49.12781065085437,54.6555721718687 49.04970414197305,54.36020136756997 48.34674556207028,54.26174414266279 48.6094674555934,53.23240992328647 48.48165680470993,53.20555751405482 48.0769230768783,53.63519476703368 47.79999999998836,54.19013879705744 47.9136094674177,55.41636974638823 48.069822485151235,55.854943235899555 47.90650887571974,55.75648821329378 48.027218934876146,55.64908256867784 48.11242603545543,55.738587284511595 47.84260355029255,54.77193000904663 48.027218934876146,54.807732379726076 48.02011834317818,54.404954603654915 48.16213017748669,54.440757170952566 48.15502958575962,54.27964546707517 49.078106508852215,54.34230006473808 49.156213017733535,54.66452278193174 49.22011834316072,54.39600395884918 48.8153846153582,54.04692787568638 49.8591715976072,53.78735729840264 50.03668639049283,54.18118812348257 50.065088757371996,53.90371664738632 50.34201183429104,53.61729326999921 50.39881656799116,53.706800707303046 50.67573964496842,53.63519476703368 51.07337278104387,53.33981945235428 51.40710059169214,53.23240992328647 51.4355029585422,53.31296708629088 51.79763313604053,52.91913114404451 53.12544378696475,52.68640881435567 53.57278106507147,52.077746581584506 54.28994082837016,51.6928543669419 54.25443786979304,50.57396905951464 54.595266272168374,50.35018974964623 54.80828402363113,49.79521382699022 55.120710059127305,49.490870234898466 55.411834319500485,48.64049108508334 55.31952662716503,47.64687647231767 55.47573964492767,47.40518419701402 54.80828402363113,42.51744166476419 54.786982248479035,41.69383079409454 54.96449704139377,40.93287694290484 56.334911242563976,41.344688338576816 57.31479289938579,41.88182982202852 65.29585798812332,42.78600823146553 66.33964497037232,42.454775977173995 68.61893491121009,41.12087811240781 72.24733727806597,41.02240137532499 73.61065088750911,40.58373051009403 74.34201183426194,40.145056764100445 75.19408284020028,41.13878295807808 76.05325443786569,41.8997344637537 78.42485207100981,43.53798887427547 78.92899408281664,44.146728909276135 79.36213017746923,45.041924766628654 79.36923076919629,44.71965563986305 78.78698224850814,43.68122232273163 80.19999999998254,43.56484516926139" stroke="#4dd2ff" stroke-linecap="round" stroke-linejoin="round" stroke-width="0.5"><title>2025-06-01 8.5km</title><desc>1748768919000</desc></polyline><polyline fill="none" points="95.25284974084934,58.08408296214475 95.02901554404525,58.131115424926975 94.37616580311442,57.53144963618979 93.96580310876016,56.70837227310403 93.86321243521525,55.96759604507679 94.07772020727862,55.23857206406683 95.4393782383413,54.61536934268952 95.57927461137297,54.22733522353519 95.15025906736264,54.55657640464051 94.1989637305378,54.638886506880226 94.23626943002455,54.48602482696151 94.36683937819907,54.662403664769954 94.54404145071749,54.53305921837455 94.41347150254296,53.96864485734113 94.03108808287652,53.404226865612145 93.96580310876016,52.60462849538453 92.57616580306785,52.51055761977477 92.27772020723205,52.29889778095094 92.883937823819,51.72271007722884 92.72538860101486,50.852541882923106 92.96787564759143,50.51152766918676 93.12642487045377,49.20625412213121 93.36891191703035,49.01810498247505 95.50466321239946,48.63004610756616 96.63316062174272,49.006345647860144 96.96891191706527,48.735880516403995 97.13678756478475,48.18318830715725 97.63108808285324,47.79512573922693 97.91088082903298,47.77160674051993 98.33056994818617,48.15966941251099 98.99274611397414,48.06559377088706 100.41036269429605,47.418821003710036 100.46632124349708,47.17187014385854 100.27046632120619,47.077793442957045 100.41036269429605,47.077793442957045 100.42901554401033,46.68972598540131 101.56683937821072,46.84260124936554 101.60414507769747,47.03075505467132 101.90259067353327,46.8543608740365 101.90259067353327,46.64268738903775 99.41243523312733,46.32517620398721 98.79689119168324,46.08998199269263 96.61450777202845,43.232321951771155 93.53678756474983,42.05630312811991 92.5854922279832,40.492173663471476 92.02590673574014,40.127598126084195 89.4145077720168,40.68034108986467 88.79896373051452,41.32716353965952 88.14611398964189,42.70311543213029 87.39999999996508,43.05592013327987 86.38341968914028,43.02063972699398 87.33471502590692,42.86775780256721 87.44663212430896,42.561993154384254 87.27875647664769,42.12686470214976 86.89637305698125,42.19742621938349 85.917098445585,41.80933717208245 85.2735751295113,41.87989894473867 85.11502590670716,41.73877534263738 85.08704663213575,40.3157663345919 84.8259067357285,40.11583759966743 84.5274611398927,40.209921766967454 83.94922279793536,40.02175333145715 84.13575129536912,40.6215388124765 83.99585492227925,41.23308057064423 83.85595854918938,40.06879547816061 84.06113989633741,40.33928733228822 83.87461139896186,40.13935865092935 83.9585492227925,40.209921766967454 84.01450777199352,39.8218239263806 83.79999999998836,40.55097602758906 83.99585492227925,40.22168228079681 84.01450777199352,39.363160628287005 84.17305699479766,39.56309107875859 84.00518134713639,39.904147854256735 84.07979274610989,40.15111917426839 83.96787564764963,40.08055601092201 84.08911917096702,39.974711159469734 84.06113989633741,40.209921766967454 84.11709844559664,39.810063358985644 84.01450777199352,39.951190064086404 85.17098445596639,40.13935865092935 85.39481865282869,39.71597876278247 85.57202072540531,38.56343426944659 85.67461139895022,38.65752010188589 85.86113989632577,38.23413306126167 86.40207253885455,38.41054457653081 86.43005181348417,38.1400467746862 86.52331606217194,38.48110908330273 86.38341968914028,38.01067796591087 86.53264248708729,38.434066085093946 87.68911917094374,38.68104154423054 88.5191709844512,36.46999839400087 88.98549222794827,36.62289146942203 88.60310880828183,36.29358297576255 88.5937823834247,35.9760343288217 88.76165803108597,35.83490122779767 89.52642487047706,35.88194562004355 90.16994818655076,36.12892826531606 90.28186528501101,35.58791775458667 89.95544041448738,35.317411247808195 92.14715025905753,36.10540613855119 93.3316062176018,37.74017893089331 96.85699481860502,39.06914443214191 100.31709844555007,41.25660132239864 101.2404145077453,42.02102231981553 108.62694300513249,52.922116955815 110.66010362689849,54.674162241324666 113.04766839375952,56.37913916605612 113.80310880829347,57.1787031402564 114.17616580310278,57.778371339605656 114.54922279785387,58.96593744428537 114.53989637299674,60.682588752191805 114.42797927459469,58.789567256833834 114.88497409323463,58.67198693493992 114.92227979272138,58.354519278844236 115.45388601033483,58.425067746124114 116.20000000001164,58.18990596792719 115.97616580309113,57.296285463096865 115.65906735748285,57.30804368672398 115.84559585491661,57.62551512895152 115.87357512948802,57.30804368672398 116.02279792737681,57.2374943213581" stroke="#4dd2ff" stroke-linecap="round" stroke-linejoin="round" stroke-width="0.5"><title>2025-05-31 10.5km</title><desc>1748652092000</desc></polyline><polyline fill="none" points="132.28905445840792,60.34646682032326 132.14793399412883,60.39571490329763 131.81865291087888,60.309530730002734 131.5207319307956,60.38955889527642 130.80467624176526,59.92170032845752 131.4266516212956,60.364934856454056 132.16361404574127,60.438806940812356 132.38836145176901,60.40802691735735 133.12009719238267,59.90938820875817 134.25951427419204,60.174098192896054 134.58356867358088,60.02635323790673 134.62015546063776,60.38955889527642 134.75604924099753,60.654266636967805 134.9964766986377,60.869725514123274 135.1950906853308,60.925129093004216 135.4407448268612,61.86698164896734 135.91114637439023,61.80542313637852 136.3554145025846,62.42716104147621 136.72650905675255,62.64261317996716 136.56970854091924,63.085826432838076 136.1045336772513,63.295120375489205 136.1515738320013,64.13844402082395 136.30837434783462,64.20000000000073 136.96693651436362,63.95993130319766 138.064540125255,63.12276071416636 140.0245465733169,61.17752248936449 140.9287628813181,59.8108911548843 141.11692350031808,59.26915429897781 141.19532375823474,58.58581974357003 141.15351028734585,56.30797838696526 139.77889243178652,53.568291150011646 138.911262910784,52.11527967044458 138.52971498892293,51.19173605676406 137.1028302947816,49.74482079393783 136.88853625644697,49.40617571517214 136.62197537953034,46.401381621923065 136.87285620486364,45.42232616895126 135.26303757555434,44.70803604221146 134.635835512192,44.33857209725102 133.4859650626895,43.45184879631415 132.99465677971602,42.63900690817536 132.59220212238142,42.17715972898077 131.4736917760456,41.4197222017101 136.61152201180812,32.50213489192174 136.44426812822348,32.29272715128536 134.9389831761364,31.818477345583233 134.635835512192,31.799999999999272 133.71071246871725,32.0402050220182 133.71071246871725,32.446703506553604 133.39711143702152,32.649951654202596 132.9842034119647,32.64379263014416 132.38836145176901,32.495975851776166 132.74900263821473,32.619156527220184 132.94761662496603,32.51445297018654 132.81172284457716,32.631474580044596 132.91625652179937,32.54524815412515 132.81694952843827,32.50829393139793 132.79081610910362,32.64379263014416 132.8901231024647,32.58836138348852 132.90580315404804,32.76081397263624 132.72286921890918,32.625315553967084 132.90057647021604,32.61299749981845 132.79604279296473,32.656110677588 132.90057647021604,32.52677104575923 132.8848964186327,32.69306480382147" stroke="#4dd2ff" stroke-linecap="round" stroke-linejoin="round" stroke-width="0.5"><title>2025-05-27 10.2km</title><desc>1748342410000</desc></polyline><polyline fill="none" points="183.94503523374442,57.76282638689736 182.18078155023977,58.00934619961481 181.14298526581842,59.71032539245789 179.10890454833861,61.33733668550849 178.48622677766252,61.01686571392929 178.5277386290254,61.60850406676764 174.50108904542867,61.06616897067579 172.03113388852216,59.439155676052906 170.08007687376812,59.04472640201857 167.92146060219966,57.88608632773685 165.2854580397252,58.1326060025458 161.217296604882,56.13578870812489 160.38705957727507,55.322265364738996 158.14541960286442,55.76600574245094 155.9660474054981,56.77674437897804 155.80000000004657,56.38231034061755 156.65099295333494,54.65665312310739 157.21140294685028,55.22365627063846 156.1113388853846,56.38231034061755 156.06982703402173,55.22365627063846 156.52645739912987,55.22365627063846 156.33965406788047,54.75526247093512 156.9208199873101,54.68130546416796 157.10762331844307,55.051090249748086 158.0001281229779,53.57194738528051 158.7680973735405,54.138953323243186 159.45304292126093,53.670557218341855 159.45304292126093,53.17750761154457 160.1172325431835,52.88167731805879 160.71915438817814,52.88167731805879 160.13798846898135,53.695209669778706 160.71915438817814,52.85702477564337 162.89852658554446,52.832372230506735 168.0459961562883,54.04034369959845 170.43292761046905,54.28686767586623 176.32761050597765,57.68887038934918 177.80128123005852,55.98787559631455 179.06739269697573,55.42087441479089 179.64855861617252,55.815310173726175 181.78641896217596,54.21291051193839 182.82421524671372,54.558043731201906 183.90352338249795,55.42087441479089 184.0280589364702,55.864614593971055 183.57142857136205,56.80139648295881 182.6789237668272,57.195829771400895 182.1392696988769,58.00934619961481 184.3186418961268,57.56561033827893 186.45650224213023,56.62883169732231 186.6848174246261,56.23439739420428 186.66406149906106,56.6534838177904 186.58103779621888,55.34691763142473 188.19999999995343,54.21291051193839 188.19999999995343,53.62125230736274 184.96207559248433,49.77543526237423 180.66559897502884,43.390244656198774 181.03920563741121,41.83706221116881 181.93171044194605,40.456446403317386 182.22229340160266,38.385506473714486 183.34311338874977,35.476296080320026 183.4053811659105,34.49011434910062 182.11851377319545,34.835278457030654 181.43356822547503,34.440805146688945 181.4128122997936,34.761314765171846 181.62037155672442,34.41615054135036 181.5165919282008,34.712005623441655 181.86944266501814,34.85993301554117 183.61294042272493,34.39149593321781 184.23561819340102,34.588732720847474 182.61665598966647,34.440805146688945 181.84868673922028,34.810623895871686" stroke="#4dd2ff" stroke-linecap="round" stroke-linejoin="round" stroke-width="0.5"><title>2025-05-25 4.8km</title><desc>1748150210000</desc></polyline><polyline fill="none" points="33.195184158626944,75.82598421796865 33.05422954959795,75.4701794743014 31.966865423484705,75.3041370621504 27.496590682305396,77.55755902454257 27.577136173145846,78.60124131459452 26.79181763762608,81.70853858921328 26.167590083554387,82.6336032798281 23.026315941126086,84.7920723138377 22.039633678505197,86.04919279608293 23.247816040879115,87.06911541549198 23.63040712242946,88.87175769443274 23.267952413647436,89.60704171862744 22.079906423925422,90.1762921657064 22.824952214141376,91.93147170064913 24.07340732193552,92.83277462719707 23.63040712242946,93.37829827520181 23.368634277256206,94.80139702807355 25.24131693900563,95.27576121778111 24.83858948480338,95.67896996875061 24.15395281277597,95.10973386862315 23.69081624050159,96.3667949429946 24.355316539877094,96.74628365642275 24.79831673949957,97.74243839111296 23.99286183109507,97.95589952862065 23.247816040879115,99.829605002873 21.475815242622048,100.96805110934656 21.677178969723172,101.9404691249947 20.811314943246543,104.78654574856046 21.193906024680473,105.0 22.321542896446772,103.36351207371627 24.415725657949224,103.79042314992694 28.503409317694604,100.87318082722777 29.892819034517743,99.47383937728591 30.980183160863817,99.04691986145917 31.342637869529426,98.45397470468015 31.423183360369876,96.31935880742094 32.973684058873914,96.84115573171584 34.02077543968335,96.15333225183713 33.356275140307844,91.50453743673279 32.91327494068537,91.36222582988557 33.25559327681549,90.7929784750304 32.893138568033464,88.58713095565327 31.98700179613661,86.42869944364065 32.873002195265144,85.33761605374457 32.93341131345369,84.27024659130257 31.503728851210326,82.39640757896996 32.127956405165605,79.50259927670413 33.07436592236627,77.13059664951288 33.39654788572807,77.03571600826399 33.215320531395264,76.06318705820013 34.1214573031757,74.82972947425151 34.54432113014627,73.19301538135915 35.18868505675346,72.59999999999127" stroke="#4dd2ff" stroke-linecap="round" stroke-linejoin="round" stroke-width="0.5"><title>2025-05-20 4.1km</title><desc>1747694891000</desc></polyline><polyline fill="none" points="73.13599827379221,74.09464828887212 73.3835863028944,73.39987556204142 73.74506482537254,73.2305598340754 73.87876236106968,72.85689564347922 74.14120567194186,72.64670839047903 74.061977502628,72.59999999999854 74.11149510843097,72.66422402640092 74.061977502628,72.60583855103323 74.11149510843097,72.64086984389724 73.89856940341997,72.90360380989296 73.75001658595284,73.28310615177543 73.32911693648202,73.48161399774108 73.07657714679954,74.36321348204365 72.9181208081718,74.45662714655555 72.61606341265724,74.9003398279965 73.23998524600756,75.31485756431721 74.00750813621562,75.53087257786683 73.88371412167908,75.52503434571918 73.98274933328503,75.65931352423286 73.8143894734967,75.53087257786683 73.80448595233611,75.60676953795337 73.8242929946864,75.53087257786683 73.90352116397116,75.5717401851216 73.8292447552667,75.50751964543088 74.03226693911711,75.54254904026311 73.819341234077,75.50751964543088 73.77477538885432,75.5717401851216 73.78467891004402,76.26648473734167 73.47766975392005,76.87364906740913 73.21027468249667,77.11301003673725 73.46776623275946,77.3231797619992 73.08152890735073,77.73184075596146 73.08152890735073,77.73767874756231 73.73020954363164,77.97703585573618 73.68069193779957,77.62675679815584 73.48757327510975,77.28815153172764 73.19046764020459,77.11301003673725 73.51728383856243,76.86197289519987 73.78963067059522,76.23145581599965 73.75496834653313,75.60676953795337 73.8143894734967,75.49000493942731 74.15606095365365,75.63596064781814 74.38879370104405,75.9512236204464 75.06223314016825,75.86948895388923 75.75052786109154,76.01544362809364 75.65644441000768,75.30318105229526 75.00776377378497,74.71935220450177 75.25040004230686,74.10632506440015 75.47322926847846,73.8903043048922 75.51779511373024,73.56919075469341 75.79014194573392,73.61005985892916 75.6267338465259,73.54583696686313 75.48808455021936,73.59254453236645 75.47322926847846,73.85527382935834 75.23059299995657,74.1238402229319 75.00776377378497,74.73686716254451 75.66634793119738,75.34988708516539 75.88917715736898,76.69266811214038 76.32988384916098,77.43410234008843 76.21599335578503,78.33315054941704 76.5081472301099,78.3039609094958 77.03303385179606,78.44990894998409 78.0729035740369,78.10547093625792 78.84537822482525,78.53163967896398 78.84537822482525,78.64255975453125 78.53836906873039,79.2963997430852 77.95406132005155,79.5882900184406 77.25586307799676,80.23628074500812 77.15682786636171,80.20709214213639 76.75573525921209,79.38396699269651 76.0723922989273,79.72839678564924 75.51779511373024,80.1487148886481 74.9334873650514,81.24035900073068 74.07683278436889,82.06929314668014 73.45786271162797,82.87486474625621 70.30854298148188,87.71387691810742 70.34320530554396,87.8831468761091 70.9225612936425,88.29172733048108 70.08076199470088,90.34041949730454 69.8183186838578,90.27621665797051 68.40706691797823,89.42989931391276 68.2436588187702,89.43573603101322 65.05472500398173,94.93364125616426 63.48006513892324,96.83034609576862 61.34090456747799,97.27387354695747 60.4297806204122,97.58900924310365 52.79911756355432,101.48136594931566 52.363362632342614,102.00071451954136 51.937511222291505,102.82349240767144 51.82362072891556,102.81182188758248 51.78400664424407,102.90518597714981 51.69982671434991,102.85266869676343 51.69982671434991,102.64843433973147 51.55622565749218,102.4558698049841 51.417576361156534,102.43252860227585 51.353203473612666,102.57841095255571 51.16998833208345,102.54923451425202 51.10561544451048,102.66010489537439 51.0511460780981,102.54339922467989 51.18484361382434,102.61342265757776 51.41262460060534,102.39751677916138 51.808765447174665,102.75930451578097 51.79391016540467,102.88184496998292 51.848379531817045,102.84099818302275 51.30368586780969,103.8679936697772 50.47179008999956,104.08389362823436 50.536162977601634,104.48651555340984 50.18953973686439,104.67323773915268 49.77854360855417,104.62072219012043 49.98651755301398,105.0 49.4863897342002,104.90663955718264 49.52105205829139,104.6440624405077 49.15462177520385,104.2181012724759" stroke="#4dd2ff" stroke-linecap="round" stroke-linejoin="round" stroke-width="0.5"><title>2025-05-17 14.6km</title><desc>1747468743000</desc></polyline><polyline fill="none" points="112.50103613076499,89.35044258929702 110.6582992306794,90.24820205893047 110.73792366468115,90.77077545702923 110.51042528194375,92.05710054080555 109.93030440591974,93.08883075459744 108.14444210159127,94.32153605588974 107.5870710638701,95.07187238038023 107.01832510705572,95.11206884038256 106.6657026138273,95.51403271954041 106.26758044410963,95.59442533814581 104.3452191100223,97.69801356577227 103.2532268728828,97.57742667506682 102.65035615873057,96.07677994936239 102.24085906986147,96.31795654748566 101.62661343649961,95.35324732507434 101.19436650926946,95.40684247986792 100.87586877349531,95.24605694566708 100.81899417779641,94.99147942112177 99.86350097029936,96.46534201414761 99.10138138820184,97.1084765347623 98.74875889497343,97.91238996924949 98.85113316721981,98.82348552696203 99.22650549869286,98.95746960015822 99.26063025614712,100.17671797716321 99.7725016172626,101.54333369994856 100.4094970888691,101.1279913074759 101.08061731792986,99.98914208829228 102.05886036361335,99.90875233428233 102.62760632048594,100.5116742120299 103.40110082173487,102.42760639295011 104.60684225015575,102.6821685687828 105.58508529589744,103.20468928367336 107.01832510705572,103.07070982418372 107.21169873233885,103.27167895881576 107.51882154907798,104.6516581728356 108.77006265404634,105.0 112.64891007955885,102.30702412629762 112.86503354314482,101.8514900550581 112.81953386653913,100.83323134170496 113.94565086107468,101.0074077702593 114.29827335430309,100.52507244251319 114.28689843515167,99.50680277835636 113.79777691228082,96.76011241905508 113.22903095552465,95.19246172103885 113.75227723579155,94.58951383874955 113.72952739748871,93.90616934172431 112.96740781533299,92.88784502627823 113.13803160242969,91.588129408221 113.79777691228082,90.47599073548918 113.9570257802261,89.29684480225842 114.41202254570089,88.72066712027299 114.67364568577614,87.74249884389428 115.15139228955377,87.19311325825402 112.41003677767003,84.3389487505774 111.44316865107976,84.56674834398291 108.41744016081793,84.70074790824583 103.04847832850646,83.950348472732 101.81998706178274,83.4679464239598 100.19337362528313,81.56511993655295 98.15726309991442,82.06092966735014 97.48614287079545,79.99727604473446 96.32590111892205,80.76109991854901 93.66417004104005,81.84652570413891 91.90105757495621,83.4009459901281 90.75219074211782,82.6773389847076 87.93121079634875,80.05087787446246 84.84860771038802,74.86479289241106 88.29520820872858,72.59999999999854 88.78432973159943,73.1226482068887 89.08007762907073,73.83291016684962 88.87532908463618,73.77930563341943 88.56820626795525,73.22985782162868 88.93220368033508,73.88651467698219 88.3634577235207,75.09260999243998" stroke="#4dd2ff" stroke-linecap="round" stroke-linejoin="round" stroke-width="0.5"><title>2025-05-12 8.9km</title><desc>1747004623000</desc></polyline><polyline fill="none" points="133.66707147826673,85.60073481045765 133.45877428885433,86.20127507291909 132.47283425883506,87.75172750430283 131.53318249314907,88.88178051287105 131.213793469331,89.38947717711562 130.99623862703447,89.79344718608627 130.9545791891578,90.29567562160446 130.50095419879653,90.8251936207198 130.05658686134848,91.72044841816387 130.03807155560935,91.9824711821966 129.9408662005444,92.08618814721194 129.95475267985603,92.67027440926176 130.03344272921095,92.5938522953802 129.9316085476894,92.71940284939046 129.96863915913855,92.43009022971819 129.83440319262445,92.26086886545454 129.96401033271104,92.41917273961735 129.97326798556605,92.60476974735866 129.51038534234976,93.58733067168578 129.61684835029882,93.66920987779304 129.4687259044731,93.66375126822822 128.94566851767013,94.83188014593543 128.2513445528748,96.87876920127746 128.2513445528748,97.20626368110243 127.93195552905672,97.686585041738 126.76086244179169,100.43742767456206 126.46461755011114,102.9479854316196 126.5664517316327,104.49791910082786 126.64514178098761,104.77078977933343 126.9089848875883,105.0 127.20985860566725,104.90722456090953 128.96881264983676,103.69021317604347 129.130821574945,103.43916678813912 129.14470805425663,103.09534034459284 129.20951162429992,103.0189341475525 130.8110855697596,101.94923514443508 131.29711234511342,101.74184187597712 131.51003836098243,101.96015055581302 132.2321352843719,101.6872645572621 135.58340562111698,100.12087014875215 135.90279464493506,99.78793679779847 136.88873467495432,99.547786776453 137.22201017805492,99.32946757536774 137.19423721946077,99.2366816265494 137.36087497099652,99.06202525628032 138.39310326534905,98.630839732592 138.57362749619642,98.48892976044954 138.39310326534905,98.12869494718325 138.30052673671162,98.1450693131228 138.32829969530576,98.21602483696915 138.39773209177656,98.11232057587404 138.44864918253734,98.23239917433966 138.5597410168848,98.26514783300081 139.12445784159354,97.99769982678481 139.18926141166594,97.88853696455408 139.08742723014439,97.52829782985646 139.22166319665848,97.05343319054737 139.1661172794702,96.98793426600241 139.08742723014439,97.10255732769656 139.14297314730356,97.10801556217848 139.19851906449185,96.90606048979316 139.0966848829994,96.6440635057952 138.92078947857954,96.50214790012251 138.56899866976892,96.38752346326874 138.09685837372672,95.94539817615805 137.85615939923446,95.95085653684146 137.53214154898888,96.19648215178313 137.09240303796832,96.20739881781265 136.92576528640348,96.42027332916769 136.99519768287428,96.68227148472943 137.37939027673565,96.81327004815466 137.37476145030814,96.87876920127746 137.45808032609057,96.85693615977652 137.37013262388064,96.86785268172753 137.62934690405382,97.22809657024482 137.74043873843038,97.31542803148841 137.93947827501688,97.30451160716984 137.99039536574855,97.47917411060553 138.31904204245075,97.70295955232359 138.57362749619642,97.43005034312591 138.6245445869281,97.11347379607469 138.99947952793445,97.08072438379895 138.87913004070288,96.96610127211898 138.78655351206544,96.69864632391182 138.60602928121807,96.62768864875761 138.6199157605006,96.4257316380681 139.0226236601011,96.58948062816125 139.1707461058977,96.79143697807012 139.2262920231151,97.05889143038439 139.0966848829994,97.51738145198033 139.11520018870942,97.73570855742946 139.52253691473743,98.16144367371817 140.96673076151637,97.10801556217848 141.09633790160296,96.80235351429656 140.59179582053912,92.7849073612233 140.62882643198827,90.93437189271935 140.7769488777849,89.30759096686597 140.68900117560406,88.20484361219133 140.69825882845907,86.40327335888287 141.20280090955202,84.44876921680043 143.063589135214,81.70796716125551 143.52647177840117,80.34296986550908 143.37834933257545,80.22830839625021 143.4014934647712,80.13548701428954 143.63756361277774,79.63315654597682 144.72996665071696,77.96778574254859 145.3548582190415,76.66275149511421 145.31782760756323,76.5535420636952 144.70682251857943,76.14946509313086 144.56795772560872,75.9528859265447 144.80865670007188,75.35222257255009 145.53538244988886,73.99251250216548 145.51223831772222,73.87237569765057 144.27171283398638,72.91673174211974 144.46149471765966,72.77474879557485 144.23931104893563,72.98226219681965 144.2763416603848,72.91673174211974 144.19302278460236,72.92219261661376 144.16062099958071,72.98772306416504 144.30411461897893,73.01502739193893 144.0773021238274,72.74198344293472 144.36428936259472,72.6764526732295 144.36891818902222,72.59999999999854 144.45223706480465,72.63822635123142 144.39206232118886,72.6655308699228 144.38743349476135,72.60546090910793 144.44297941194964,72.6600699673836 144.38280466833385,72.6218436328636 144.43835058552213,72.6655308699228 144.38280466833385,72.69829627267973 144.3550317097397,72.59999999999854 144.40131997407298,72.68737447414605 144.419835279783,72.60546090910793 144.3504028833122,72.62730453959011 144.4152064533555,72.70375717105344 144.36428936259472,72.63276544570908 144.36428936259472,72.70375717105344 144.0773021238274,72.78567057500186 144.59110185774625,73.29353068338969 142.24428685673047,77.19241385330679 141.97118609727477,77.27431990259356 141.83695013073157,77.22517628912465 141.3879539668269,76.8156442983236 141.62402411486255,76.70097473974965 141.3786963139719,76.7992629489163 141.06856494303793,76.49893725852962 140.9204424972122,76.55900254092194 140.94358662937884,76.73919795516122 141.74900242852164,77.56918056899667 141.80454834570992,77.82035680210174 141.00376137296553,79.08713944355259 141.04079198444379,78.85235025631846" stroke="#4dd2ff" stroke-linecap="round" stroke-linejoin="round" stroke-width="0.5"><title>2025-05-11 17.9km</title><desc>1746934812000</desc></polyline><polyline fill="none" points="177.01842602423858,72.59999999997672 177.7641983127687,75.74861134245293 166.57761398609728,79.29991670761956 166.14258015120868,80.21519552438986 175.58902913809288,97.16570950608002 176.64553988003172,99.36225793810445 176.42802296264563,99.9480017668975 177.85741984879132,102.14453205052996 177.17379525105935,103.20618321813527 177.2359429418575,104.52409035645542 175.8065460555954,105.0" stroke="#4dd2ff" stroke-linecap="round" stroke-linejoin="round" stroke-width="0.5"><title>2025-05-09 1.4km</title><desc>1746749326000</desc></polyline><polyline fill="none" points="23.996520099928603,119.3840434163867 22.74953455722425,118.97040545771597 22.093226377037354,119.21858833268925 21.699441468692385,118.86010186182102 20.977502470370382,119.43919508140243 20.036794078652747,118.66707042664348 19.467993655591272,117.2055408309534 18.767931596608832,116.92977936643001 19.18359344417695,115.137320844442 18.002238719491288,113.40000000000873 16.645868480205536,113.9515320150822 15.508267634431832,115.02701519498078 15.180113544221967,114.72367435402703 14.89571333269123,115.27520282322075 14.633190060500056,114.75125081259466 14.414420667220838,115.38550833980844 13.976881880313158,115.33035558897245 14.19565127370879,115.57854285153735 13.539343093405478,116.59886512153025 13.75811248680111,115.66127187265374 14.217528213048354,115.44066107591789 13.976881880313158,115.33035558897245 15.83642172452528,114.86155660990335 18.067869537626393,113.40000000000873 19.139839565497823,114.83398016614956 18.724177717929706,117.04008399657323 19.18359344417695,116.87462702921766 20.102424896671437,118.83252595354861 21.10876410640776,119.57707417933852 20.45245592610445,119.77010476139549 20.299317350727506,120.21131684066495 21.415041257278062,122.88614483116544 20.999379409709945,125.42306298289623 25.352890339214355,124.59581049827102 26.774891396635212,124.70611102158728 26.774891396635212,125.03701223705139 26.490491185104474,124.59581049827102 26.81864527531434,124.29248375454335 29.225108603131957,125.34033788395755 32.33163399004843,126.0297126926016 33.206711563747376,126.66393547818006 34.563081803149544,128.84233799374488 33.863019744167104,130.91042032290716 31.63157193106599,133.1990738886816 28.896954513154924,133.69540504062024 29.137600845773704,134.24688269512262 30.165816994966008,134.52262096860795 28.590677362168208,133.86084849204053 30.75649435725063,134.6604899668455 33.6880042294506,134.274456539104 37.210191463818774,135.32225987361744 37.91025352291763,135.87373317134916 42.13250281626824,136.17704285551736 41.607456272118725,145.35884274517593 41.69496402936056,145.8000000000029 42.241887513082474,145.66213845937455 42.46065690647811,144.33866297341592" stroke="#4dd2ff" stroke-linecap="round" stroke-linejoin="round" stroke-width="0.5"><title>2025-05-05 3.1km</title><desc>1746429236000</desc></polyline><polyline fill="none" points="63.155037830088986,113.43827318775948 63.018427179864375,113.39999999999782 62.77556380169699,113.58498678907927 62.14310708770063,113.69980581385244 61.60172414049157,114.31216926888374 61.065400847001,114.53542481912882 61.08563946184586,115.02020469462514 61.257667688070796,115.39654356274332 61.065400847001,116.17472636271123 61.38921868457692,116.29591762126074 61.50559071995667,116.6148405117674 61.66243998502614,116.69138168758218 61.91036301694112,117.03581545602356 62.3454932361783,117.13149106060882 63.003248218708904,117.79483663136125 62.654132112598745,118.49644208185418 62.66931107372511,118.74519062266336 62.77556380169699,118.84724093015029 62.68954968859907,119.01945032803269 62.88687618332915,118.98755974579035 62.90711479820311,119.08323142843801 62.63895315147238,119.00669409769762 62.704728649696335,119.15976863617107 63.99494034628151,119.42126983426351 64.3288774912653,119.4085137115726 64.65269532887032,119.59985519300972 64.78424632537644,119.9315119393832 64.57680052318028,120.30781198875775 64.14672995766159,120.37159136340415 63.49909428250976,120.6968648452712 63.63064527901588,120.95835760188129 63.4333187842567,121.04764748257367 63.0993816392438,121.48133880713067 63.23599228946841,121.55787216025419 63.17021679121535,121.48133880713067 63.05890440955409,121.51960549907744 62.98806925758254,121.69818298818427 62.644012805161765,121.85762660897672 62.219001893361565,121.90227072714333 62.06721228201059,121.78747148159891 61.82940855753259,121.78747148159891 61.73327513699769,122.0680913709657 61.793990981561365,122.15737917079241 61.66749963874463,122.1510014763553 61.51065037367516,122.37422027334105 61.470173143956345,122.73774578881785 61.616903101617936,123.10126852920075 61.859766479814425,123.39463573489775 62.49728284750017,123.65611367756355 63.094321985554416,123.76453094005046 63.61040666417102,124.30023614350284 63.63570493273437,124.54257699396476 63.519332897354616,124.8678219866888 63.089262331835926,125.37162847248692 62.63895315147238,125.55019151733723 62.33031427502283,125.55019151733723 62.32019496761495,125.63947278868 62.18864397107973,125.61396387108834 62.19370362479822,125.7096222416294 62.355612543586176,125.63947278868 63.06396406327258,125.74788553604958 63.306827441439964,125.61396387108834 64.29851956901257,125.90731559851338 64.4300705655478,126.0412364385702 65.34586788740125,126.0858766348938 65.41164338565432,126.16240258839753 65.25479412058485,128.4581240190273 65.38128546337248,129.66333347545515 66.97507638268871,135.70167516438232 67.73402443950181,137.7674157242218 64.36429506726563,139.3485393440933 64.22262476332253,139.48242240243053 61.38415903085843,144.09797019653706 61.00468500246643,145.21353966570678 61.02998327102978,145.74262919879402 60.7820602391439,145.75537827170047 60.94396915793186,145.5067707349299 60.76688127798843,145.79999999999927 60.989506041340064,145.78087640726153 61.09069911559345,145.08604733373068 60.979386733903084,145.07967270817244 61.01480430990341,144.72906698974475 61.0198639636219,145.21353966570678 61.21213080466259,144.15534297762497 63.149978176370496,141.10174007893875 63.144918522652006,140.84673307189587 62.927353413018864,140.66822735497408 62.47704423268442,140.59172470016347 62.3910301195574,140.39409227338547 62.26959843048826,140.46422000251914 62.284777391614625,140.55984855773204 62.36067219727556,140.54072286203882 62.38091081214952,140.47697048764167 62.25947912308038,140.48334572891326 62.25441946933279,140.53434762842517 61.88000509465928,140.91048495160067 61.181772882380756,141.06986427769152 61.00468500246643,140.29208811948774 61.22730976578896,140.03070147844483 61.131176345283166,140.02432617660816 61.01480430990341,139.52705000494097 60.80229885398876,139.5589268382828 60.387407249596436,139.1317754997217 60.26597556049819,139.2784099729579 60.392466903314926,138.82575427588745 60.63027062776382,138.40497188383233 61.43475556798512,138.26471026068975 61.480292451393325,138.05431705177398 61.627022409054916,137.93955672806624 61.35886076229508,137.85667410013775 61.343681801168714,137.50601523279693 61.181772882380756,137.46776138204586 61.00468500246643,137.58252284214905 60.95914811905823,137.69090841176512 61.055281539593125,137.7992937348099 61.186832536099246,137.69090841176512 61.02492361731129,137.78654253312925 60.918670889368514,137.50601523279693 60.84783573739696,137.70365963902805 60.43800378672313,138.03519035035424 60.29633348278003,138.50698007767642 60.27609486793517,139.25928376291267" stroke="#4dd2ff" stroke-linecap="round" stroke-linejoin="round" stroke-width="0.5"><title>2025-05-04 11.1km</title><desc>1746326389000</desc></polyline><polyline fill="none" points="107.03710251154553,144.89608769584493 107.02902271073981,144.91527799581763 106.97650400550629,144.9051778438875 106.94984066284451,144.89911774638222 106.90944165881956,144.8657871250175 106.90378579825119,144.85568690829405 106.95711248356747,144.76579439692705 107.01528704936936,144.661760182978 106.99670350751694,144.7102423213155 107.07830949565687,144.6940816423903 107.06457383428278,144.76983453227876 107.10982071879334,144.8395265340364 107.16557134435425,144.93547826001168 107.19223468700875,145.20312676768845 107.29888805764494,145.23241604075793 107.44674841238157,145.28796435671075 107.44432447214422,145.3849204590947 107.56390552406447,145.49197474020775 107.53966612164731,145.4990443102638 107.56471350414358,145.4869250433435 107.64308757195613,145.44854723918752 107.6915663767868,145.49197474020775 107.64147161179426,145.43945773129371 108.08505267601504,145.26776501536278 108.51005019838703,145.22938612111466 108.78476342577414,145.46066656638413 109.24369611152724,145.50813374796235 109.82463378944158,145.47278587454593 110.23751161060136,145.79091090609518 110.3360851804282,145.80000000000018 110.90813507746134,145.67477154160588 110.928334579472,145.3940100312334 110.9331824599576,145.0152687865234 110.95257398188915,144.59509674527226 110.86612011327088,144.2375284750533 110.67786075450203,143.9860086603585 110.66412509313523,143.66073794356362 110.59544678628663,143.38192355366846 110.36517246332733,143.08592478329592 110.28356647519468,142.6979774514225 110.65038943176478,142.5585541115738 110.72149167885436,142.508037786567 110.22781584963377,141.22279115115134 110.03955649086856,140.64577505337502 109.93936696087621,140.60232025323103 110.26498293334225,139.6280599446004 109.78827468581585,138.5000279608962 109.60324724736711,138.08859884789217 109.22834448999492,137.40923781449146 109.48205023528863,134.932904339772 109.25419985257395,134.83986199590527 107.58814492647798,134.81356721662996 107.56148158382348,134.4838635135311 106.51353141935033,134.59916027937743 106.30103265816433,134.4697041425079 106.14994038310397,133.80216137376965 105.94309748247906,132.20690419250695 105.69504759775009,131.21741551490322 104.58165104675209,130.97660044196437 104.17119716583693,130.7367897035233 103.65085799396184,130.62042314828932 102.81298265043006,130.5111381712586 102.37020956629203,130.78738330874012 101.97106740649906,130.6831601185704 100.98209978790692,130.56274515950918 100.64194017399132,130.55970946390653 100.1248329224436,130.44637597047677 99.82022443207461,130.4949476721954 99.48491269864826,130.10332959156085 98.94760594508261,129.97885765228693 98.22365579291,129.79771196164393 98.08791513937467,129.8685515667039 97.96348620697245,129.84729975371965 97.88511213915626,129.8685515667039 97.34942134575613,129.69246334315358 96.96563080749183,129.57709300987835 96.78625922960782,129.49916645426038 96.19643377080865,129.26335790945404 95.5662093079809,129.23906820638285 95.05637387715979,129.32509389266852 94.70167062179826,129.47487749623815 94.42534143424564,129.8786714570042 94.29525664127868,130.32798116215554 93.98256835010397,130.67304128701744 93.88641872051448,130.89565250559326 93.83955587584933,130.85517821788426 93.78380525028842,130.865296809784 93.87995487987428,130.9098184559648 93.54221920620694,131.66968226897552 93.54706708668891,131.8598894249617 93.64240873618837,131.9570146692713 94.02862321469729,131.85483078488824 94.49886762157985,131.65754122698172 94.9812317296637,132.10371193205128 95.0806132795733,132.0349163226906 95.08869308037538,131.71622275241998 95.43612451501394,131.59278867934745 95.55732152709606,131.85280732792717 95.57428910878662,132.0318812081041 95.64619933595532,132.10472362760038 95.54843374621123,132.22410276799974 95.4740995787979,132.27873328216674 95.37229408865096,132.45375065037342 95.54520182588749,132.53164727367675 95.51530656290925,132.6874381541311 95.51288262266462,132.6894613915647 95.5460098059666,132.5306356342744 95.37067812848909,132.46892537911344 95.47005967839868,132.27873328216674 95.58802477015706,132.3283050796481 95.78032402932513,132.45880889661294 95.90636892189286,132.55390330689352 96.07766069896752,132.5650312993571 96.41862829296224,132.50736789127996 96.4493315360196,132.44768075049842 96.28288763943056,132.43554093638113 96.60850361188932,132.39912137907913 96.60446371148646,132.36067832599247 96.37903726901277,132.35056170114603 96.3612617072431,132.32122341385093 96.62466321350075,132.30503672469194 96.68768565978462,132.29593169707414 96.74666820566563,132.30503672469194 96.78060336905037,132.3950747509598 96.82908217388103,132.3465150474808 96.89856846080875,132.34449171985034 96.83716197468311,132.44161084583538 96.81453853243147,132.58728723599415 97.04481285538714,132.9868715070952 96.94947120588404,133.1760345446246 96.7717155881619,133.03643874198133 96.63274301430647,132.91403743975252 96.38388514949838,133.02025355753494 96.35802978691936,133.13152601300544 96.40731657183278,133.33383544579465 96.31116694225057,133.3500199706291 96.2998552211211,133.3024778320564 96.29339138047362,133.33687004679223 96.23764075491636,133.30146629400042 96.15199486638085,133.29944321749463 95.82233899351559,133.5654732145017 95.81183525246524,133.5411970942232 95.81749111303361,133.4997252115768 95.82637889391845,133.32675470547565 95.82880283415943,133.3287777748028 95.86677789794703,133.21649662267146 95.84173051545076,133.1608612104974 95.87728163899374,133.12950289181708 95.83203475447954,133.17502298994486 95.86920183818802,133.21143887455173 95.84011455528525,133.37530822252847 95.81102727238977,133.47241433752833 95.82233899351559,133.5664847178491 96.09866818106093,133.34293924520216 96.23198489435526,133.2974201404545 96.25299237644867,133.36316987198688 96.27642379878671,133.37025057879737 96.28046369918593,133.35912375088446 96.27642379878671,133.36418140193246 96.3741893885308,133.35103150230043 96.4024686913508,133.2326813943141 96.39034899014223,133.01216095254813 96.6691021179322,132.90493313285424 96.76767568775904,133.03340402248978 97.00926173184416,133.19930026549764 97.19509715037202,133.14872252165378 97.26377545721698,133.013172528636 97.49162583993166,133.08297095760327 97.71947622264634,133.23470448837952 97.83501737416373,133.08297095760327 98.06771563736402,133.0647627328317 98.39575555006377,133.03745031487733 98.6494612953611,133.23672758190605 98.91851866217985,133.30348936997962 98.87003985734918,133.2782008820418 98.88377551871599,133.17502298994486 98.94114210443877,133.07993625646805 98.97265332757888,132.9969872952497 99.25383039560984,132.71879827460225 99.57944636807224,132.64798491777128 99.8840548584376,132.41530787027796 101.02896263257571,132.2089275563253 101.7472569241836,131.9772489408101 102.38717714798258,131.653494208726 102.54069336328757,131.14355286988257 103.32039414101382,130.97862412945415 103.31473828045273,129.634778392925 103.31393030036998,129.28461133668452 103.32524202149943,128.9819974777688 102.93175572227119,128.69455388412462 102.47605495684184,128.40608735861088 102.40980059023786,128.19453835879267 102.32657864194334,127.87264880557268 102.03893773326854,127.54264740582903 102.01469833084775,127.35638269028641 102.05832925520008,126.64570082981845 102.04701753407062,126.36728189515725 101.67777063725589,125.79927597790766 101.44830429438298,125.51475098660148 101.22287785190929,125.36489017001031 101.15339156498158,125.11579072152517 101.09279305894597,124.00790912034563 100.83585539332489,123.80130291170417 100.28158105807233,123.77091917681491 99.0082044511255,123.58557579013723 98.27698247822627,123.42149758292953 98.10569070115162,123.09434353038569 97.95783034641136,122.84820915493628 97.57161586790608,122.84314457875098 97.27104727794358,123.06496988383151 96.90907220185545,123.44479285062653 96.56164076722052,123.2290557110673 96.35722180684024,122.93228063153492 95.76739634804107,122.25867004214615 95.55732152709606,122.15737010319981 94.89316190087993,120.99333784826968 94.70167062179826,120.07434692412517 94.52391500407248,119.87371464047101 94.34292746603023,119.57984980387937 93.46869301887637,117.23359394561066 93.48646858064603,117.10181746453645 93.86621921850747,117.08255763527359 94.0318551350174,116.56657893329202 94.16113194790523,116.4003229944019 93.02834387497569,116.37903386373091 92.772214189441,116.32327633650311 92.559715428255,116.00798523279627 92.34964060731363,115.96439090842841 92.0005932125132,115.27800106638824 91.51257324386461,114.79941815290931 90.52360562527247,114.39280197867447 89.95640360872494,114.44350342740381 89.07328138068624,113.4152124412276 89.0700494603625,113.46490620536588 89.06035369939491,113.4598354278769 89.06116167947766,113.45577880346855 89.06520157988052,113.46997697950019 89.03773025714327,113.47301944236324" stroke="red" stroke-linecap="round" stroke-linejoin="round" stroke-width="0.5"><title>2025-05-03 98.8km</title><desc>1746244765000</desc></polyline><polyline fill="none" points="135.8978742391082,113.55964563455291 135.64363108612088,113.64753881386196 135.59221112259183,113.65471371685953 135.29440383383917,113.52466741898115 135.10086480445534,113.40000000000009 134.96088823708124,113.41255653474627 134.89661328267175,113.51031732949696 134.74878088754122,113.58296434444992 134.65951011752622,113.6654760570791 134.55809852279708,113.79103542782968 134.33385034852836,114.31566901431506 134.27743122188258,114.41341675894864 134.22815375683786,114.4403195601044 134.17816212563412,114.49950534610161 133.77822907598602,114.53178828387809 133.58683254508287,114.56048409925961 133.1211962087109,114.57662544192817 132.94194050253282,114.41251999706947 131.69643471934978,114.2035712384527 131.22651338601645,115.00973709144682 130.92584943262045,115.39081654770598 130.79015786220407,115.61048789549841 130.73730956636064,115.71090670831245 130.5401997061781,116.19146182973554 130.34880317527495,116.39317722726173 130.22168159877765,116.69439436427865 130.00743175075695,117.08434307251673 129.91601848226492,117.21790654649249 130.00671758459794,117.36670570329034 129.90316349138448,117.5531482238739 129.82103438297418,117.73689664667609 129.85745685713846,117.98069173553631 129.83603187233894,118.5256137302622 129.82531937993554,118.56415096131968 129.46180880445536,119.09648004506607 129.33397306179904,119.34022620068481 129.24041729482633,119.39220034941718 128.96474915703948,119.62070265238617 128.7669251306943,119.86353390753538 128.52767946706444,120.06334793331416 128.60838024315672,120.28465972984577 128.59766775075695,120.33035478750571 128.33913960080463,120.36171396249756 128.26843715096038,120.3473783576519 128.2527254954366,120.45489465475157 128.47625950354268,120.97990806870393 129.0197399513636,122.52335531566041 129.16257318338103,122.78399570437887 129.326831400198,122.94968971117487 129.46180880445536,123.1816545186548 129.59964287334878,123.37510172624297 129.65606199999456,123.51839239636865 129.7439044376879,123.60705198228243 129.5260837588612,123.86048662874873 129.67463032015803,124.10406153362464 129.74033360688554,124.24017311183934 129.96458178115063,124.62521081096065 130.12741166564956,124.83562915516131 130.17883162917497,124.86875825721381 130.2802432239041,124.90457332068445 130.49449307193208,125.0845411524615 130.65803712259003,125.20272638528331 130.96441440526542,125.38895348334745 130.98155439310722,125.75423025301461 131.04440101519504,125.83838436879523 131.17580758865006,125.90821358745643 131.36220495643283,125.92432792048294 131.48147070516643,125.97356592319466 131.56074314892976,125.72110547437751 131.5778831367752,125.70230485240108 131.64501475582438,125.70857173218064 131.67500973454662,125.68618999210548 131.71143220871454,125.6459026739276 131.77713549543842,125.52682986858872 131.85212294224766,125.4426718886707 132.066372790272,125.32090955937747 132.19635103140536,125.28151539675355 132.29276346301776,125.27345747167237 132.31775927861963,125.30210782847598 132.5520057791291,125.46147323005516 132.8169614245162,125.74617288930995 133.14047869503338,126.00400378254108 133.62539751773147,126.21169376697708 133.9846230962503,126.42743395983143 134.46882775278573,126.24213055826931 134.5273893779122,126.25197772622323 134.6959325916905,126.24213055826931 134.84447915299097,126.26898643721961 134.93589242147937,126.34060159485534 135.01516486524997,126.48651514004632 135.08586731509786,126.6691264454771 135.11086313069973,126.78728408383085 135.26012385815557,127.16322652200779 135.2415555379921,127.34313446533633 135.24512636879444,127.49081652697123 135.22013055319258,127.62238511214264 135.23369971023203,127.71457110498159 135.29297550152114,127.79691093340762 135.34225296656587,128.00186116994928 135.33368297264315,128.39026517008142 135.7329018561286,128.6327826676884 135.75932600405213,129.33254475577814 135.83145678622532,129.60008179538863 135.85002510638515,129.7369779439391 135.84431177710576,129.82287215789984 135.88859007902647,129.93739608697388 135.8807342512664,129.96871088766875 135.85073927254416,129.98660499468087 135.84502594326477,130.04028703289487 135.8600234326259,130.09128457626548 135.92001339007038,130.17180623368586 135.95000836879626,130.27916695892372 136.45635217629388,130.45541380391796 136.51062880445897,130.51177604325176 136.58990124822958,130.668335365865 136.59275791286927,130.79626401966698 136.6763153535976,130.8848285997442 136.71702282472688,130.97070830220855 136.73416281256505,131.02080429404168 136.73130614792535,131.049430409264 136.71702282472688,131.0628488592597 136.73130614792535,131.14335900275682 136.95841098683013,131.4528668940743 136.96341014994687,131.61029902518476 137.02697093819734,131.99581344591752 136.99911845795577,132.1183505725876 137.12981086524815,132.17291018823835 137.25121911246242,132.19437614647404 137.49760643768968,132.19527055992785 137.98752442350815,132.23820226736507 138.26747755826,132.2426743046285 138.2746192198574,132.2283637750288 138.30390003242428,132.2283637750288 139.0430620081097,132.823119766299 139.07091448835126,132.82938007891653 139.18375274164646,133.35969706164724 139.50298501520228,134.55611194801895 139.5379791570449,134.87619324495017 139.66938573049993,135.30711689827376 139.70009487538118,135.52972029104467 139.74794400810788,135.6030258380497 139.83721477811923,135.69152782397578 139.8764939169232,135.71119477560023 139.98647550557507,135.73354351525495 140.06217711854333,135.73354351525495 140.10859791894836,135.75499823624932 140.69064333941424,135.68527014562414 140.70706916109702,135.72549797743523 140.7084974934187,135.96149646624235 140.73063664438087,136.00261657757483 140.78348494022794,136.01960089885824 142.1953914387086,136.01602525579483 142.3146571874422,136.03032781677075 142.4474920932189,136.06429627858415 142.50391121986468,136.056251131904 142.6110361438732,136.09647677018165 142.68530942452708,136.10899136469516 142.8567093029451,136.09379506836012 142.70459191084592,136.93400992475972 142.74244271732823,136.95724843573453 142.8402834812623,136.96350494436228 142.75172687740996,137.22984812002414 142.758154372852,137.25934185748656 143.03525084296416,137.324585125647 143.14166160081732,137.37820926133054 143.2180773799446,137.39250895948453 143.2716398419543,137.4175333589701 142.8709926261472,138.22094643310675 142.8802767862253,138.23256350175143 143.03239417832083,138.24149969490963 143.05024833232528,138.32639294486762 143.08095747721018,138.33979704545618 143.13237744073558,138.39877477450318 143.13809077001497,138.42736985315423 143.18094073961765,138.44256093983267 143.1959382289824,138.47741095177662 143.37376560284247,138.41396592499132 143.17165657953956,140.58148501145206 143.0788149787295,141.2835918273763 143.07024498480678,141.4220394647814 143.10309662817235,141.62836588446817 143.34448479027924,142.44557149086768 143.39090559068427,142.577744174087 143.49303135157606,142.79207280640685 143.47303469909457,142.82243548426504 143.1130949544131,142.96085186065284 143.20807905370384,143.38590651765344 143.33305813172046,143.73057423702403 143.3430564579612,144.01986736842628 143.52445466261997,144.4091436909962 143.5787312907887,144.49396012438365 143.67942871935884,144.5877033759416 143.71299452888343,144.66894648482685 143.6979970395223,145.18852237907868 143.7472745045634,145.7107366113296 143.36019644579937,145.78036215472048 143.03239417832083,145.76072425290522 142.85456680446077,145.80000000000018 142.6581711104409,145.4474028082168 142.4989120567443,145.44829548235248 142.27894887943694,145.42062252986352 142.1911064417436,145.44561745960073 142.10183567173954,145.40276895254055 141.84973501722925,145.395627508527 141.6583384863261,145.3509933140067 141.4483736352595,145.3367103100677 141.15270884499114,145.27868529896386 140.85704405471552,145.31171498119738 140.76491662006447,145.39919823146738 140.79348326646868,145.41972985210896 140.80490992502746,145.4054469921175 140.81633658358987,145.4081250306458 140.8056240911901,145.4045543123766 140.81990741439222,145.40991038907896 140.8227640790319,145.43312000618107" stroke="red" stroke-linecap="round" stroke-linejoin="round" stroke-width="0.5"><title>2025-05-03 66.9km</title><desc>1746236322000</desc></polyline><polyline fill="none" points="186.19403786002658,113.78944916187902 185.59894621069543,113.39999999999418 184.93773326685186,114.0490815838275 184.51896506908815,113.58174302121915 179.9345553254243,115.8924636667216 180.11087877722457,116.87905668525491 179.53782755928114,118.82626779354177 179.69211057934444,119.37148406026245 178.76641245814972,121.1369377207302 176.8929757840233,122.22735846528667 175.74687334813643,123.42162309505511 175.63667119084857,124.01875317162194 175.239943424589,123.96682887643692 174.11588142008986,125.18704683188116 172.81549596402328,125.23897086197394 172.33060647186358,126.01782995951362 171.60327223374043,126.25148719376011 167.90047974849585,130.22362522034382 166.31356868345756,130.3793939936877 165.6523557397304,130.06785634555854 164.44013200933114,127.31592281413032 163.646676476812,127.62746405003418 162.52261447242927,125.81013444844575 161.11202685895842,125.0053126376879 156.92434488167055,130.11977931513684 156.77006186137442,131.7034244673705 156.9684257445624,132.3524563339306 157.8500430029817,132.76783580344636 157.89412386575714,135.36394113049028 159.06226673326455,137.64849048996984 158.95206457586028,138.1157819867949 158.86390285007656,137.830215069509 160.05408614885528,136.94755153160077 161.3765120365424,134.74087842408335 163.20586784766056,134.48126848359243 164.37401071493514,135.8831588116882 165.32174926775042,138.66095424491505 166.02704307448585,139.4916905326536 168.23108622047585,139.95897842559498 170.2808463461697,141.0233529931429 172.6171320809517,140.60798787222302 173.41058761335444,141.28295582710416 173.56487063365057,142.58096576736716 172.72733423823956,145.8000000000029 174.29220487177372,144.11260842996126 175.32810515048914,143.98280858501676 176.49624801776372,144.5020075419161 180.46352568047587,141.88004127524619 182.79981141525786,139.5955323655944 183.81367126246914,139.2840067314537 184.10019687132444,136.45429695809435 186.37036131171044,136.68794398827595 187.22993813862558,135.70143275157898 186.12791656563058,128.5880469703261 184.93773326685186,125.60243875675951 185.95159311406314,124.20048811615561 186.01771440845914,123.47354750879458 184.45284377480857,120.79942552944703 185.22425887582358,117.37235166688333 186.03975483973045,115.3991656297294 186.5466847633943,115.0356822139729" stroke="#4dd2ff" stroke-linecap="round" stroke-linejoin="round" stroke-width="0.5"><title>2025-04-28 5.2km</title><desc>1745795058000</desc></polyline><polyline fill="none" points="22.921338539454155,185.15368910120742 23.026595771778375,186.60000000000582 22.956424283562228,185.9388306676119 22.50030961004086,185.81486116202723 23.009052899782546,185.87684592486767 22.763452690909617,183.9139852940425 23.973910862929188,183.0875116014795 23.149395876098424,182.426330062357 22.7108240746893,181.53786375078198 22.58802397036925,180.25681199714018 23.16693874821067,179.76091867987998 23.851110758492723,178.35588059443398 25.166826162836514,176.86818189904443 28.39471462124493,174.67793764697853 29.903401618241332,173.21087314904435 31.061231174040586,172.61164636723697 31.113859790260904,170.50400613885722 32.60500391514506,170.91727076932148 33.49969039007556,170.19405707686383 32.56991817103699,164.22227320708043 31.72786031232681,161.9285624375043 32.51728955481667,160.9160146483773 32.552375298924744,160.1720985519496 32.46466093871277,159.6554884396901 31.377002871129662,158.43628301100398 31.675231696106493,156.05984318585251 32.51728955481667,154.1999999999971" stroke="#4dd2ff" stroke-linecap="round" stroke-linejoin="round" stroke-width="0.5"><title>2025-04-27 2.3km</title><desc>1745711220000</desc></polyline><polyline fill="none" points="51.35026037332136,154.25545008010886 52.01507063503959,154.20000000000073 52.436263891358976,154.3108999657925 53.15243918433407,154.34035763848078 53.338820869190386,154.42699753425404 54.030047432701394,154.89137928568562 54.15185593539354,155.08371251049903 54.52315173279203,155.9067336772805 54.53489231135609,156.05054140199536 54.6185439336914,156.1423697470982 54.866563656054495,156.58764303133103 55.07495892573206,156.8198038975188 55.94229416784219,157.56997206427877 56.319460254511796,157.95283864406701 56.40017673220427,158.09489538074558 56.25341950004076,158.212697560979 56.090518972334394,158.2525422175877 55.55779021955823,158.5366490349461 54.769703882826434,158.83460924178507 54.25165085326444,159.09618596203836 53.41073191295436,159.70420521070992 53.01155224145623,160.08528798931184 52.78994882088591,160.35030833111887 52.57568326192268,160.66035917761656 52.17503601810313,161.3168155117346 52.11046283594624,161.47269824093564 52.108995263632096,161.58354724796118 51.846299818047555,162.27287209206224 51.73623189391947,162.43047732638843 51.59681252336304,162.79244384938102 51.40309297689964,163.15786577443214 50.650228375874576,164.21425140870997 50.35964905619039,164.56925043621413 50.12483748472005,164.9017301154272 50.13511049097724,164.92943644037769 50.20555396241252,164.88095033991522 50.64142294195335,164.29044699249607 50.70746369643166,164.2679346990717 50.76616658929561,164.2921787060459 51.38694968135678,164.69739447238135 51.59681252336304,164.79609930700826 52.84278142446419,165.5597422427236 57.10020872964378,168.70050783122315 57.61385904223425,169.1263851214644 59.322113224661734,170.22391857223192 59.910609725659015,170.4801141812568 60.572484842727135,170.6549479974874 60.95405364636099,170.69303035523808 61.909443227777956,170.96825922163407 62.10609791888419,171.0028788665877 62.12517635905533,170.97691413995744 62.675515979695774,171.1638592227555 63.09377409136505,171.37503527646368 63.428380580713565,171.6017867605624 63.456264454820484,171.56197566594346 63.47827803964901,171.57063026023388 63.716024755754916,171.75237564926647 63.77179250397603,171.73160485308108 63.77619522094756,171.70910312651722 64.00513650313223,171.80257162774433 64.12400986118882,171.93238807669877 64.27957252728083,171.9600821149561 64.3764323005089,172.01373917645105 64.41458918087301,172.06047259823208 64.39551074069459,172.03797133827175 64.40284860230167,172.1262453289346 64.46448663980846,172.0933589976812 64.51144895410835,172.10720588230834 65.10875088902685,172.43606583921792 65.16451863724797,172.48972129043432 65.16598620956938,172.4672206394407 65.31127586941875,172.5174143555214 65.45509795693943,172.5329916833889 65.64588235875999,172.595300841871 65.63120663553855,172.60741648314797 65.86601820700889,172.65760975556623 65.93059138917306,172.7078028691576 65.97461855881556,172.86703514381043 66.01717815613665,172.90857373517974 66.19475440706447,172.89991987094982 66.51615274552023,173.10241905662224 67.58014267872204,173.43645052571992 67.77532979750686,173.53163955293894 67.70488632607157,173.53683166526753 67.58161025105073,173.50394825847434 67.58894811265782,173.48664117489352 67.4847504778154,173.5524079920615 67.28369306974491,173.97123237814594 67.15307913312427,174.16506471490356 66.81847264378302,174.53195515453262 66.68198841786216,174.81577024062244 66.58806378926965,174.91787320671938 66.54256904730573,175.0130533461088 66.37820094727795,175.17399301019032 66.14192180348618,175.4854844971851 65.7398069873525,175.85926621075305 65.55929559177457,176.1240229312989 65.55782801946043,176.1724746634718 65.5813091766031,176.16901383036384 77.78564060365898,186.5463922069448 77.80325147151598,186.53947505918586 77.78710817598039,186.56195577839026 77.81792719473742,186.57233148422347 77.81205690544448,186.5463922069448 77.87516251527995,186.60000000000036" stroke="#ffc800" stroke-linecap="round" stroke-linejoin="round" stroke-width="0.5"><title>2025-04-20 36.9km</title><desc>1745145130000</desc></polyline><polyline fill="none" points="92.75598067205283,155.39042261174473 92.51030502832145,155.35020594469097 92.38064288304304,155.47889920217858 92.09402129871887,155.47889920217858 92.27145370806102,155.38237928009767 92.29875100179925,155.2215124630602 92.05307535809698,154.9078211622691 92.09402129871887,154.77108351171773 91.99165644714958,154.9239079280378 92.18956182681723,155.16520899432362 92.56489961579791,155.14107892317406 92.46253476428683,155.55933237420686 92.00530509400414,155.6236788488386 91.43888624879764,155.36629261413327 91.58902136440156,154.64238902118814 91.8483456549875,154.20000000000437 92.6467914970417,154.3528255977435 93.083548197028,155.04455855969718 92.27145370806102,155.93736710990197 91.86199430184206,156.05801608641195 91.90294024246396,156.1947513549312 91.75280512686004,156.0338863068755 91.2614538394264,155.96149692095787 91.29557545663556,156.2590972760663 91.71185918626725,156.9186397365338 92.30557532524108,158.91331768824602 92.57172393926885,159.33154978405946 100.7336147694441,161.93740412987245 101.46381737716729,162.0419580964808 102.03706054581562,161.97761721143615 102.18719566144864,162.178682291109 103.27908741129795,164.67988614745263 104.9646953001211,170.67117170330312 107.86503276068834,178.18974898635497 108.7385461605736,181.2050063368588 108.64982995591708,181.43818111638393 106.24084378275438,182.21810520841245 106.35685728120734,182.75681086032273 108.47922186998767,186.42312120246788 108.4246272824821,186.59999999999854 108.24719487311086,186.31056174739933" stroke="#4dd2ff" stroke-linecap="round" stroke-linejoin="round" stroke-width="0.5"><title>2025-04-16 7.1km</title><desc>1744770713000</desc></polyline><polyline fill="none" points="125.29677419387735,159.5906938687549 125.06451612897217,160.46913878171472 125.8000000002794,161.6891976458137 124.94838709686883,162.61643964902032 125.68387096771039,162.66524179422413 144.84516129037365,180.6239873028535 145.54193548415788,179.9895901849377 145.00000000023283,179.25759213746642 145.65806451626122,177.50079082124284 147.012903225841,176.62238698572037 145.92903225822374,181.01438498016796 148.0967741936911,181.69757990844664 149.64516129065305,178.4767925986671 149.95483870990574,178.81839260284323 149.91612903238274,177.0127889519208 151.4258064518217,177.0127889519208 151.23225806467235,175.79278141795658 152.20000000018626,175.89038217105553 151.27096774219535,183.99115350973443 151.73548387130722,184.18635059605003 151.038709677523,185.16233445919352 151.50322580663487,183.99115350973443 150.84516129037365,182.72236989819794 150.03225806471892,183.94235422179918 148.63870967761613,183.30796288340935 145.58064516144805,183.55195968277985 138.4580645163078,176.42718584561953 137.52903225831687,176.71998751655337 138.22580645163544,176.13438393932302 130.83225806453265,169.20467011854635 127.7354838710744,170.08309184364043 126.38064516126178,168.81425978284096 126.45806451630779,168.03343785609468 126.07096774200909,169.30227263693814 124.63870967761613,169.88788719888544 123.59354838728905,169.74148364673601 123.40000000037253,169.05826629177318 122.74193548387848,170.8639093763486 122.47096774214879,170.27829638362164 121.077419355046,170.81510832961067 121.92903225822374,168.71665713362745 120.76774193579331,166.6669954562385 119.80000000004657,161.59159308695234 120.41935483878478,161.15237224908196 121.8516129036434,161.6891976458137 125.4129032259807,160.37153389601735 124.83225806476548,158.175417052611 123.86451612925157,157.68738928899984 124.79354838724248,157.58978365786606 123.98064516135491,155.63766554085305 124.75483870971948,156.2721050765831 124.87096774205565,157.83379768682062 124.25161290355027,158.32182525409735 124.44516129046679,156.12569605108" stroke="#4dd2ff" stroke-linecap="round" stroke-linejoin="round" stroke-width="0.5"><title>2025-04-07 2.7km</title><desc>1743986187000</desc></polyline><polyline fill="none" points="173.1892332790885,170.6833172984334 170.78433931490872,170.48341020396037 172.13213703106157,169.5505083044991 173.69135399674997,169.5171903148439 174.82773246336728,168.3177397116524 174.48417618288659,167.85128513668315 173.47993474721443,168.0178761567513 169.59510603593662,163.68647335801506 165.94812398054637,163.98634213673358 164.49461663956754,164.65271590575867 163.67536704742815,165.68559171825473 162.53898858081084,164.41948528976354 161.8783034258522,164.2195731590473 160.92691680276766,164.68603454728145 158.60130505729467,162.8868215133116 155.80000000004657,164.3861666125449 157.279934747261,163.18669125637098 158.89200652542058,162.8201837434608 160.68907014699653,164.51944129481853 162.08972267538775,164.18625445502403 163.67536704742815,165.65227321066777 164.6267536705127,164.61939725973934 166.2916802612599,163.95302340143826 169.85938009794336,163.7531108956464 174.11419249605387,168.98410187220725 173.47993474721443,169.5505083044991 171.260032626451,169.58382628977415 169.54225122346543,170.61668161815032 174.19347471464425,170.71663513187377 178.47471451887395,169.6837802188238 179.53181076678447,172.5491090966534 180.37748776515946,172.91560226905858 184.31517128867563,172.7823320870375 188.17357259383425,176.2806506925117 188.20000000006985,176.64713836481678 186.56150081555825,177.34679514858 184.42088091361802,177.61333054842544 184.26231647643726,177.97981625652756 184.57944535068236,177.58001363903168" stroke="#4dd2ff" stroke-linecap="round" stroke-linejoin="round" stroke-width="0.5"><title>2025-04-04 2.7km</title><desc>1743741381000</desc></polyline><polyline fill="none" points="41.4756782327313,210.0010337872518 39.91208808647934,211.01883798153722 39.37717566813808,210.8734376666398 38.842263249796815,211.69737153104506 37.319820212898776,212.13357058014662 37.031790449051186,211.84277130881674 37.7312913039932,210.65533701666573 37.44326154014561,210.31606891509728 34.604111011722125,210.849204271668 33.61658039316535,210.72803725699487 32.50560844724532,209.92833330990106 31.78553403785918,208.3289168148185 31.90897536522243,207.91694404209557 33.24625641119201,207.3595679031423 33.061094420263544,205.20275146087806 32.13528446527198,204.18492072810477 30.633414982818067,203.94257939298404 30.036781900795177,204.83924101808225 29.501869482337497,204.52419815507892 27.506234690663405,207.18993141049577 25.757482553599402,208.71665520008537 25.181423026137054,208.8862905316928 23.80299487092998,208.52278609176574 23.20636178890709,206.99606097525975 22.87718491605483,210.0495007589634 23.432670888956636,211.57620497715834 23.04177335242275,211.261171628983 23.06234690709971,210.70380384621967 23.57668577088043,210.67957043270872 24.625937053118832,211.50350501322828 24.831672598724253,212.1820370885107 26.395262744743377,213.29676387450309 25.716335444478318,213.73295979628165 25.860350326285698,214.12068878833088 23.12406757066492,214.87191179300135 22.69202292500995,213.82989210744563 21.375315433717333,212.32743655037484 21.29302121535875,206.65678730806394 19.91459306026809,206.87489186758467 18.680179787101224,205.85706876506447 17.980678932275623,206.05094019023818 19.605989741976373,203.77294030159828 21.004991451627575,204.49996407024446 22.013095624861307,206.19634364859667 23.41209733451251,205.05734735482838 25.119702362455428,204.8634750659985 26.600998290232383,203.28825647266058 27.19763137237169,203.19131958046637 27.423940472421236,203.8456427850906 27.053616490447894,202.73086876735033 27.44451402698178,202.29465133073973 26.724439617595635,202.39158861256146 26.62157184490934,202.82780585964792 26.29239497205708,202.44005723773444 27.21820492693223,201.93113614853064 25.98379165364895,202.51276015568874 26.06608587189112,202.92474290980317 26.395262744743377,202.73086876735033 26.9507487177616,203.02167991781607 25.24314368981868,204.7907729142462 23.37095022527501,205.1058154007187 22.157110506668687,206.19634364859667 20.90212367894128,204.45149589273205 19.42082775104791,203.79717446544964 17.877811159472913,206.24481144700258 15.77930859499611,208.4985524413496 15.758735040435567,210.5826367525733 16.58167722262442,210.97037122043548 16.58167722262442,211.81853801918624 15.223822621977888,211.77007143177616 14.29801266710274,209.49212994865957 14.524321767152287,210.31606891509728 14.318586221663281,211.18847156240372 14.030556457932107,211.52773833715764 13.351629157667048,211.28540497928043 12.899010957451537,212.98173295614833 13.475070484913886,216.20472057542065 14.359733330784366,217.14979834163387 14.915219303802587,218.6279888706049 14.771204421762377,219.98500761848118 13.927688685245812,220.639281565469 13.701379584963433,219.91231039480772 13.886541576008312,219.64575370535022 14.400880439789034,219.96077521321422 13.886541576008312,220.9058370677667 14.730057312757708,222.06898462386744 15.223822621977888,225.02529070200399 18.70075334154535,227.08498899611004 21.622198088327423,227.39999999999418 22.733170034131035,227.3030735846114 25.695761889917776,225.46146369242342 29.913340573431924,226.43073395159445 30.9008711919887,226.04302635324711 33.69887461140752,222.50516339395836 33.28740352031309,221.75396609294694 31.723813374177553,221.48741160385543 31.374062946764752,221.07546313079365 31.003738964674994,219.18533685526927 32.875932429218665,217.9494764012925 33.53428617492318,216.56821249781933 34.398375466116704,215.96239229821367 34.11034570238553,214.7749799345329 32.85535887465812,213.95105743722524 33.34912418399472,211.23693827605166 33.904610156896524,210.65533701666573 35.488773857592605,210.50993646483403 37.85473263124004,209.5405970308493 38.698248367989436,209.80716579512227 39.21258723165374,210.75227066515072 39.809220313909464,210.92190444873995 41.99001709651202,209.3951957525278 43.10098904243205,209.10439291133662 42.89525349694304,207.09299621389073 41.84600221470464,204.18492072810477 42.77181216957979,203.19131958046637 42.89525349694304,202.2704170037032 41.352236905368045,200.08931678670342 41.701987332780845,197.90819524091785 42.936400606064126,194.99999999998545" stroke="#4dd2ff" stroke-linecap="round" stroke-linejoin="round" stroke-width="0.5"><title>2025-04-01 8.4km</title><desc>1743465137000</desc></polyline><polyline fill="none" points="57.876637316076085,206.0499254213064 57.196263684658334,205.80021204409422 58.400001648114994,205.612926936883 59.28972101211548,206.61178010556614 60.02243107743561,204.42678644298576 59.39439387875609,203.36550067539793 55.88785285479389,202.55392782448325 54.57944202469662,198.99547888053348 52.067293231375515,199.86948601703625 51.22991030011326,197.99661188130267 57.51028228364885,195.0 56.725235785823315,195.87401348521234 58.66168381413445,197.06017242214875 55.99252572096884,198.183899581898 59.080375279532745,196.9977430680883 68.44859682186507,212.35515062790364 71.53644638042897,211.04416915989714 72.3214928782545,211.54359103995375 73.78691300773062,214.1031210583751 72.9495300767012,213.04185395938111 71.79812854668126,214.66496751696104 73.57756727514789,213.29156404925743 74.0485951739829,213.7909838889027 72.16448357864283,213.91583877778612 75.88037033588625,218.72273045853944 71.9028014128562,220.34582725423388 72.37382931169122,222.84288989647757 73.83924944116734,222.7180370335118 73.62990370835178,223.34230106469477 68.02990535623394,223.46715378580848 68.08224178967066,222.59318414214067 68.81495185405947,223.46715378580848 68.2915875222534,222.40590475226054 70.33270841697231,224.71567943954142 74.51962307258509,224.84053184912773 73.73457657475956,224.84053184912773 74.72896880540065,223.15502192964777 74.62429593899287,220.15854709915584 75.77569746947847,220.7203873731196 76.77008969988674,221.84406619967194 76.50840753410012,222.90531631733757 74.36261377320625,222.2810517901671 70.69906344939955,224.77810564800166 72.68784791091457,224.9029580433853 75.82803390244953,227.40000000002328" stroke="#4dd2ff" stroke-linecap="round" stroke-linejoin="round" stroke-width="0.5"><title>2025-03-30 2.1km</title><desc>1743318651000</desc></polyline><polyline fill="none" points="109.37060467060655,195.89418623351958 109.23831378133036,195.0 106.54839902883396,195.99938450055197 106.72478688135743,197.15656386158662 103.99077516561374,197.73515245874296 104.07896909210831,199.36571643748903 102.57967234472744,200.15469694856438 102.57967234472744,200.8910775471304 102.13870271318592,200.4702887768799 102.05050878669135,201.4170629727014 101.60953915514983,199.0501238569268 102.0064118236769,199.52351264710887 101.25676345010288,199.9969009536726 95.480061276583,200.73328180299723 96.05332179763354,200.83847897170926 96.00922483461909,202.73202392528765 94.50992808723822,202.10084313360858 91.20265585044399,202.73202392528765 91.11446192418225,204.25737395667238 92.96653437661007,204.04698114731582 94.15715238195844,209.9379437105963 93.93666756595485,208.67560089263134 94.73041290300898,207.99183043080848 91.33494673995301,209.2015774846659 90.6734922924079,210.35872388602002 90.62939532916062,209.09638221396017 93.5838918609079,207.99183043080848 94.81860682903789,209.09638221396017 94.15715238195844,209.78015104643418 95.03909164504148,222.8767593902594 95.21547949756496,224.7176184527052 96.2738066134043,225.50655581310275 93.89257060317323,225.82213038139162 93.89257060317323,227.39999999999418 93.14292222936638,226.76885279701673" stroke="#4dd2ff" stroke-linecap="round" stroke-linejoin="round" stroke-width="0.5"><title>2025-03-30 1.4km</title><desc>1743309591000</desc></polyline><polyline fill="none" points="141.16330991860013,199.53075827797875 140.90689272177406,201.31558014536859 142.21228936023545,202.71597001614282 142.5386385199381,203.86922643592698 142.39877459441777,204.69297779956833 141.4896590783028,205.76385055819992 142.88829833385535,211.09068865259178 142.0957360890461,211.6947559878463 141.32648449845146,211.50255290136556 140.8136501046829,212.35373688893742 139.60149608319625,213.12254576868145 138.57582729577553,213.2323754177196 137.9697502849158,214.30321199484752 140.39405832800549,216.82927004885278 140.60385421628598,220.01426378649194 138.7856231839396,221.0027019585832 137.3170519656269,222.56772115963395 132.42181457113475,225.99974688724615 131.95560148591176,226.878337982198 131.69918428896926,225.6977304930624 130.37047699617688,225.36825765154208 128.64548858080525,227.39999999999418 128.41238203831017,226.7959701967775 129.48467213427648,223.7208870021277 129.2049442831194,222.56772115963395 131.27959251229186,221.2498108977452 132.0255334485555,219.6298701200576 133.07451289030723,218.970908189076 132.58498915075324,218.4766856135102 133.07451289030723,218.77871063567 134.0069390607532,220.31628697138513 136.94408149749506,218.50414244859712 137.48022654559463,218.66888339663274 137.45691589126363,218.11974648569594 137.5268478540238,218.6139697592298 137.0606347688008,218.33940139325568 137.1072560773464,217.54315144513384 136.61773233790882,217.4607806178101 136.8741495347349,216.91164108214434 135.9650340185035,215.84081555600278 136.15151925256941,215.40150120732142 137.48022654559463,215.20930093960487 137.7133330880897,214.1933828111214 138.3893420617096,213.50694933152408 138.08630355622154,212.76559907963383 140.44067963655107,214.38558385137003 141.0467566472944,214.3581265688117 142.18897870613728,215.4564155426633 142.63188113702927,216.609613828914 143.2146474934416,216.30758621485438 143.58761796168983,215.23675812970032 142.63188113702927,209.47068276177743 141.2565525356913,205.8187669875624 142.39877459441777,204.69297779956833 142.5619491742691,203.3475158502697 140.95351403020322,201.06845171557507 141.2099312270293,198.37748205955722 143.0048516051611,194.9999999999709" stroke="#4dd2ff" stroke-linecap="round" stroke-linejoin="round" stroke-width="0.5"><title>2025-03-26 3.9km</title><desc>1742943197000</desc></polyline><polyline fill="none" points="171.39928170311032,196.4179407824704 171.26016799226636,195.89554326131474 171.86720963969128,195.9552459363913 171.93044314463623,195.582103788518 171.31075479614083,194.99999999998545 171.18428778630914,195.2835893354204 170.88076696253847,195.19403487211093 169.5149232557742,197.41795331519097 169.5149232557742,197.74631404090906 169.36316284391796,197.68661214956956 169.24934253504034,198.41795851853385 168.65494758856948,199.61198498200974 168.75612119649304,199.98511610901915 170.22313851118088,200.85077639398514 171.29810809524497,201.83583141717827 171.13370098231826,202.23880642245058 170.9566471684957,202.02985656824603 170.96929386950796,202.86565406525915 170.72900655074045,203.25370116290287 171.13370098231826,203.50742366863415 171.1210542813642,204.1491902536509 170.7922400556272,204.38798635202693 170.61518624186283,204.2088893174514 170.43813242798205,204.76110441912897 170.0460846973001,204.6566314631491 169.91961768746842,204.925276045411 170.0460846973001,204.79095382044034 171.07046747743152,205.74613121438597 171.70280252682278,205.95507537806407 171.75338933075545,206.9848669394123 172.17073046340374,206.8505467416835 173.11923303751973,207.31320464395685 173.8780350968591,208.74594174628146 173.72627468494466,208.85041157160595 173.84009499388048,208.76086601192947 174.5356635482749,209.83540885003458 174.97829808283132,209.95480197640427 175.04153158783447,210.17866380690248 174.75065746501787,211.9396974002011 175.34505241148872,212.96944380324567 174.8644777739537,213.64101335851592 174.2068493225961,217.70020787566318 174.29537622950738,218.16282899929502 173.48598736623535,218.38667736711795 173.85274169489276,218.2075987021817 173.70098128303653,218.04344305298582 172.8915924197645,218.53590940842696 172.33513757627225,217.68528458754008 172.91688582173083,218.29713806400832 172.82835891481955,219.22237469682295 173.18246654246468,218.77468033510377 172.66395180200925,218.87914248417655 173.11923303751973,218.834373001504 172.90423912071856,218.29713806400832 172.29719747329364,217.78974757036485 172.55013149307342,218.073289549342 172.37307767925085,217.87928720632044 172.68924520391738,218.72991081816144 172.6765985029051,219.53575987635122 170.86812026164262,223.71416018628224 170.9566471684957,224.14691576607584 174.47243004338816,225.1019577082625 174.30802293046145,226.37036245792115 174.10567571461434,226.32559543207753 174.06773561169393,226.69865353200294 173.72627468494466,226.6688089215604 173.53657417016802,227.39999999999418" stroke="#4dd2ff" stroke-linecap="round" stroke-linejoin="round" stroke-width="0.5"><title>2025-03-24 3.9km</title><desc>1742796232000</desc></polyline><polyline fill="none" points="35.86357211302675,268.1977165345579 35.92945714305097,268.2000000000007 35.9682130430665,268.10409423736564 35.91976816805254,268.1543306438816 35.92170596305368,268.0538577105999 35.86550990802789,268.0629916334983 36.057351613097126,268.01503849392975 36.07479176810739,267.980786184291 36.01084453308431,267.8711784178013 36.0476626380987,267.8118073052792 35.97402642806264,267.74786899625906 36.04184925309528,267.5788882418674 35.991466583072906,267.565187039987 36.03603586809186,267.4624277407638 35.94689729806123,267.36880216340796 35.80156267300481,267.4144732289351 35.79768708300253,267.3733692744354 35.83062959800736,267.3939212617479 35.8383807780192,267.3505337093666 35.94689729806123,267.3276981194613 35.842256368014205,267.3596679383809 35.88488785804657,267.3551008243667 35.85000754802604,267.25462406475344 23.541133703271043,235.94408051047867 23.514004573262355,235.96237637726153 23.53919590827718,236.0012550410156 23.603143143300258,235.95322844587463 23.610894323297543,235.9806722280373 23.731037613346416,235.93950654128275 23.75235335835896,236.0035420189888 23.707784073340008,235.82058299086566 23.71359745834343,235.85260093637407 23.808549413377477,235.8000000000011 23.899625778409245,235.80457399972147 23.967448603434605,235.88919281405106 24.021706863459258,235.9006277626886 23.950008448431618,235.91892366750653 23.913190343417227,235.84573995217943 23.95969742343732,235.85260093637407 23.93063049842749,235.85946191831317 23.913190343417227,235.90520174039557 23.50237780326279,236.02869876013028 23.622521093304385,236.5638440824332 23.517880163264635,236.60043471525387 23.48299985325866,236.6621812629328 23.37254553821549,236.68047650129665 23.362856563202513,236.7719524529748 23.370607743207074,236.8085427215865 23.48493764824525,236.7948213783584 23.519817958265776,236.86114112052746 23.48299985325866,236.74450970949692 23.479124263249105,236.80396894151454 23.419052618228307,236.8154033898245 23.242713273160916,236.79024759528875 23.062498338091245,236.8405591540868 23.06637392808625,236.79710826952578 23.062498338091245,236.8657148880975 22.651685797936807,237.05552535978495 22.64005902792269,237.18358928285488 22.498599992875825,237.2544814744033 22.295131517799746,236.8405591540868 22.21955751276255,236.8771493026361 22.15948586774175,236.86114112052746 22.19049058775272,236.88400994835501 22.176926022752014,236.79253448695636 22.105227607717097,236.69191101714387 22.140107917737623,236.67361578878445 22.03740478268446,236.60958236345687 22.000586677677347,236.51353185773405 22.027715807686036,236.4838018498649 21.90175913264102,236.39003770197633 21.824247332609957,236.43120250161337 21.582022957518348,236.3511597612287 21.374678892439988,236.2573950184451 21.266162372397957,236.22537769288647 21.14408128735522,236.08129912107324 20.894105732244498,235.93493257108275 20.799153777225,235.94865447867778 20.589871917138225,236.1819255297687 20.42709713707154,236.19107336108755 20.4251593420704,236.22080378522696 20.328269592035213,236.23452550518596 20.078294036946318,236.13618631313875 20.082169626941322,236.04242060618344 19.925208231885335,235.94408051047867" stroke="#4dd2ff" stroke-linecap="round" stroke-linejoin="round" stroke-width="0.5"><title>2025-03-24 4.7km</title><desc>1742777725000</desc></polyline></svg>