<?xml version="1.0" encoding="utf-8" ?>
<svg baseProfile="full" height="300mm" version="1.1" viewBox="0,0,200,300" width="200mm" xmlns="http://www.w3.org/2000/svg" xmlns:ev="http://www.w3.org/2001/xml-events" xmlns:xlink="http://www.w3.org/1999/xlink"><defs /><rect fill="#222222" height="300" width="200" x="0" y="0" /><text fill="#FFFFFF" style="font-size:12px; font-family:Arial; font-weight:bold;" x="10" y="20">Over 1km Runs</text><text fill="#FFFFFF" style="font-size:4px; font-family:Arial" x="10" y="280">ATHLETE</text><text fill="#FFFFFF" style="font-size:9px; font-family:Arial" x="10" y="290">Tao</text><text fill="#FFFFFF" style="font-size:4px; font-family:Arial" x="65" y="280">SPECIAL TRACKS</text><rect fill="yellow" height="2.6" width="2.6" x="65" y="283" /><text fill="#FFFFFF" style="font-size:3px; font-family:Arial" x="70" y="285.5">Over 20.0 km</text><rect fill="red" height="2.6" width="2.6" x="65" y="287" /><text fill="#FFFFFF" style="font-size:3px; font-family:Arial" x="70" y="289.5">Over 40.0 km</text><text fill="#FFFFFF" style="font-size:4px; font-family:Arial" x="120" y="280">STATISTICS</text><text fill="#FFFFFF" style="font-size:3px; font-family:Arial" x="120" y="285">Number: 17</text><text fill="#FFFFFF" style="font-size:3px; font-family:Arial" x="120" y="290">Weekly: 2.4</text><text fill="#FFFFFF" style="font-size:3px; font-family:Arial" x="141" y="285">Total: 262.7 km</text><text fill="#FFFFFF" style="font-size:3px; font-family:Arial" x="141" y="290">Avg: 15.5 km</text><text fill="#FFFFFF" style="font-size:3px; font-family:Arial" x="167" y="285">Min: 1.4 km</text><text fill="#FFFFFF" style="font-size:3px; font-family:Arial" x="167" y="290">Max: 98.8 km</text><polyline fill="none" points="38.77303253021091,32.25 39.70524789090268,36.18576417805161 25.722017482621595,40.6248958845099 25.17822518898174,41.76899440548732 36.986286422470585,62.95713688261458 38.30692484998144,65.70282242266694 38.03502870327793,66.43500220862916 39.82177481078543,69.180665063177 38.96724406373687,70.50772902270546 39.044928677147254,72.1551129455911 37.25818256940693,72.75" stroke="#4dd2ff" stroke-linecap="round" stroke-linejoin="round" stroke-width="0.5"><title>2025-05-09 1.4km</title><desc>1746749326000</desc></polyline><polyline fill="none" points="72.49565012496896,39.7300542704761 70.93691819673404,39.21300682213041 70.116532971384,39.5232354158361 69.62430183589458,39.075127327261725 68.7218780880794,39.79899385172757 67.54599259840325,38.833838033286156 66.83499206963461,37.00692603868083 65.95991449593566,36.66222420800477 66.47949180519208,34.421651055512484 65.00279839953873,32.25 63.307335600373335,32.939415018830914 61.88533454306889,34.28376899371506 61.47514193027746,33.90459294250468 61.11964166595135,34.59400352902594 60.791487575741485,33.93906351571786 60.518025833996944,34.73188542475691 59.97110235039145,34.6629444861901 60.2445640922524,34.97317856439622 59.42417886678595,36.24858140188735 59.69764060853049,35.07658984081354 60.27191026636865,34.80082634487189 59.97110235039145,34.6629444861901 62.29552715574391,34.076945762353716 65.0848369221203,32.25 66.42479945695959,34.04247520767967 65.90522214747034,36.80010499569471 66.47949180519208,36.59328378649661 67.6280311208684,39.040657441917574 68.88595513312612,39.97134272416588 68.06556990777608,40.21263095171889 67.8741466884967,40.764146050816635 69.26880157168489,44.10768103893497 68.74922426219564,47.27882872862392 74.19111292413436,46.24476312281331 75.96861424588133,46.382638776965905 75.96861424588133,46.796265296288766 75.61311398155522,46.24476312281331 76.02330659423023,45.865604693157366 79.03138575400226,47.17542235495057 82.91454248770606,48.03714086575201 84.00838945480064,48.82991934771417 85.70385225408245,51.55292249217746 84.8287746803835,54.13802540363395 82.0394649138907,56.99884236083017 78.62119314144365,57.61925630076439 78.92200105730444,58.308603368874174 80.20727124379482,58.65327621073811 78.23834670276847,57.826060615014285 80.9456179466797,58.82561245854595 84.61000528687146,58.34307067387272 89.01273932983167,59.6528248419927 89.88781690364704,60.34216646416462 95.16562852042262,60.72130356938578 94.50932034023572,72.198553431459 94.61870503681712,72.75 95.30235939146951,72.57767307420727 95.57582113321405,70.92332871677354" stroke="#4dd2ff" stroke-linecap="round" stroke-linejoin="round" stroke-width="0.5"><title>2025-05-05 3.1km</title><desc>1746429236000</desc></polyline><polyline fill="none" points="121.44379728761851,32.297841484702076 121.27303397483774,32.25 120.96945475210669,32.48123348634908 120.17888385959668,32.624757267312816 119.50215517560719,33.39021158610194 118.83175105875125,33.669281023911026 118.8570493273146,34.27525586828051 119.0720846100885,34.74567945342642 118.83175105875125,35.718407953387214 119.2365233557357,35.86989702657229 119.38198839995312,36.268550639710156 119.57804998129723,36.364227109475905 119.88795377116185,36.794769320029445 120.43186654520105,36.91436382576285 121.25406027340796,37.74354578919883 120.81766514075571,38.620552602315 120.83663884215639,38.9314882783292 120.96945475210669,39.059051162686956 120.86193711071974,39.274312910038134 121.10859522919054,39.23444968223703 121.13389349775389,39.354039285546605 120.79869143932592,39.25836762212202 120.88091081212042,39.44971079521201 122.49367543283734,39.77658729283212 122.9110968640889,39.760642139463016 123.31586916107335,39.999818991262146 123.48030790672055,40.41438992422627 123.22100065395352,40.884764985949005 122.68341244707699,40.96448920425246 121.8738678531081,41.37108105658626 122.0383065987553,41.69794700235434 121.7916484803136,41.80955935321617 121.37422704903292,42.351673508914246 121.54499036184279,42.44734020031683 121.46277098901919,42.351673508914246 121.32363051193533,42.399506873844075 121.23508657197817,42.6227287352267 120.80501600645948,42.822033261218166 120.2737523666874,42.877838408927346 120.08401535250596,42.73433935199864 119.78676069690846,42.73433935199864 119.66659392125439,43.08511421370713 119.74248872694443,43.19672396349051 119.58437454843079,43.18875184544595 119.38831296711578,43.467775341676315 119.33771642995998,43.92218223602322 119.52112887700787,44.37658566150276 119.82470809976803,44.743294668620365 120.62160355938249,45.07014209695262 121.36790248192847,45.20566367506399 122.01300833022106,45.875295179379464 122.04463116591796,46.17822124245504 121.89916612167144,46.584777483360085 121.3615779147658,47.21453559060683 120.79869143932592,47.43773939667153 120.41289284380036,47.43773939667153 120.40024370953324,47.54934098584636 120.23580496385694,47.51745483886043 120.2421295309905,47.637027802036755 120.44451567946817,47.54934098584636 121.329955079098,47.68485692005925 121.63353430179995,47.51745483886043 122.87314946125844,47.88414449814445 123.03758820693474,48.051545548212744 124.18233485924429,48.10734579361451 124.2645542320679,48.203003235496 124.06849265072378,51.072655023785046 124.22660682923743,52.57916684431984 126.21884547837544,60.1270939554779 127.16753054936999,62.70926965527542 122.95536883411114,64.68567418011662 122.77828095416771,64.85302800303543 119.23019878857303,70.62246274567224 118.75585625309031,72.01692458213074 118.78747908878722,72.67828649848889 118.4775752989226,72.69422283962558 118.67996144740027,72.38346341866054 118.45860159749282,72.75 118.73688255166053,72.72609550907873 118.86337389447726,71.85755916716153 118.7242334173934,71.84959088521282 118.76850538735744,71.41133373717821 118.7748299545201,72.01692458213074 119.01516350579914,70.69417872203121 121.43747272048495,66.8771750986707 121.43114815332228,66.55841633986711 121.15919176628813,66.33528419371578 120.59630529084825,66.23965587520433 120.4887876494613,65.9926153417291 120.33699803811032,66.08027500314711 120.355971739511,66.19981069716232 120.45084024660173,66.1759035775467 120.47613851519418,66.09621310955117 120.3243489038432,66.10418216113976 120.31802433668054,66.16793453552964 119.85000636830227,66.63810618950083 118.97721610296867,66.83733034711622 118.75585625309031,65.86511014935968 119.03413720722892,65.5383768480533 118.91397043157485,65.53040772076201 118.76850538735744,64.90881250617531 118.50287356748595,64.9486585478553 117.98425906198099,64.4147193746503 117.83246945063001,64.59801246619827 117.99058362911455,64.03219284485749 118.28783828471205,63.506214854787686 119.29344445999595,63.33088782586128 119.3503655642271,63.06789631471838 119.5337780113041,62.924445910080976 119.19857595287613,62.82084262516946 119.17960225144634,62.38251904099525 118.97721610296867,62.33470172755551 118.75585625309031,62.4781535526854 118.69893514883006,62.6136355147064 118.81910192448413,62.749117168510566 118.98354067013133,62.6136355147064 118.78115452162456,62.73317816641065 118.64833861173247,62.38251904099525 118.55979467177531,62.62957454878051 118.04750473340391,63.04398793794098 117.87041685348959,63.6337250970937 117.84511858489714,64.57410470364266" stroke="#4dd2ff" stroke-linecap="round" stroke-linejoin="round" stroke-width="0.5"><title>2025-05-04 11.1km</title><desc>1746326389000</desc></polyline><polyline fill="none" points="176.2963781394319,71.6201096198065 176.28627838842658,71.64409749477181 176.22063000688286,71.63147230485902 176.18730082855836,71.62389718297709 176.13680207352445,71.58223390627154 176.12973224781672,71.56960863536733 176.19639060446207,71.45724299615813 176.26910881171352,71.32720022872218 176.245879384398,71.38780290164414 176.34788686957108,71.36760205298742 176.3307172928544,71.46229316534846 176.3872758984944,71.54940816754515 176.45696418044463,71.66934782501448 176.49029335876185,72.00390845961101 176.62361007205618,72.04052005094672 176.80843551547878,72.10995544588786 176.80540559018118,72.23115057386804 176.9548819050833,72.36496842525958 176.92458265206005,72.37380538782963 176.9558918801813,72.35865630417902 177.05385946494425,72.3106840489836 177.11445797098713,72.36496842525958 177.05183951474464,72.29932216411726 177.6063158450197,72.0847062692028 178.13756274798288,72.03673265139332 178.48095428221495,72.3258332079804 179.05462013940996,72.38516718495248 179.78079223680106,72.34098234318208 180.29688951325443,72.73863863261886 180.42010647553616,72.75 181.13516884682394,72.59346442700735 181.16041822434272,72.24251253904094 181.1664780749452,71.76908598315458 181.19071747736234,71.24387093159021 181.08265014158678,70.79691059381639 180.84732594313027,70.48251082544812 180.8301563664172,70.0759224294543 180.7443084828592,69.72740444208557 180.4564655791619,69.3574059791199 180.35445809399243,68.87247181427756 180.8129867897078,68.69819263946738 180.90186459856704,68.63504723320875 180.28476981204585,67.02848893893861 180.0494456135857,66.30721881671889 179.9242087010971,66.25290031653822 180.3312286666769,65.03507493075085 179.73534335727163,63.62503495112014 179.5040590592107,63.11074855986499 179.03543061249366,62.261547268113645 179.3525627941126,59.16613042471454 179.06774981571652,59.049827494881356 176.9851811580993,59.016959020787 176.95185197977844,58.60482939191388 175.641914274187,58.74895034922156 175.3762908227036,58.58713017813443 175.18742547887814,57.752701717211494 174.92887185310246,55.758630240633465 174.6188094971876,54.521769393629256 173.22706380844102,54.220750552455684 172.71399645729616,53.92098712940424 172.0635724924541,53.77552893536176 171.01622831303757,53.63892271407349 170.46276195786413,53.98422913592549 169.96383425812382,53.85395014821279 168.72762473488183,53.70343144938579 168.30242521749096,53.699636829883275 167.6560411530554,53.557969963095275 167.275280540096,53.6186845902439 166.85614087331123,53.12916198945095 166.18450743135327,52.973572065358894 165.2795697411384,52.74713995205457 165.10989392422198,52.83568945837942 164.95435775871374,52.80912469214945 164.85639017394715,52.83568945837942 164.18677668219607,52.615579178941516 163.7070385093648,52.471366262347146 163.4828240370116,52.37395806782479 162.7455422135099,52.079197386817214 161.95776163497794,52.04883525797777 161.32046734644973,52.15636736583565 160.87708827724782,52.343596870297915 160.53167679280887,52.84833932125548 160.36907080159654,53.40997645269363 159.97821043762815,53.84130160877157 159.85802340064402,54.11956563199146 159.79944484481166,54.068972772355664 159.72975656286144,54.081621012229334 159.84994359984194,54.13727306995588 159.42777400775594,55.087102836218946 159.43383385836205,55.324861781202344 159.55301092023728,55.44626833658913 160.03577901837343,55.31853848111041 160.623584526973,55.07192653372749 161.22653966207872,55.62963991506422 161.35076659946571,55.54364540336337 161.36086635047104,55.145278440524635 161.7951556437656,54.990985849183744 161.946651908871,55.3160091599093 161.96786138598327,55.539851510129665 162.05774916994778,55.63090453450059 161.93554218276404,55.780128459999105 161.8426244734983,55.84841660270831 161.7153676108137,56.06718831296712 161.93150228235754,56.16455909209526 161.89413320363747,56.35929769266386 161.89110327832896,56.361826739455864 161.93251225745917,56.16329454284278 161.71334766061045,56.08615672389169 161.83757459799745,55.84841660270831 161.98503096269997,55.91038134955943 162.22540503665732,56.07351112076594 162.3829611523688,56.19237913361667 162.59707587371304,56.20628912419579 163.0232853662019,56.13420986409983 163.06166442002723,56.05960093812337 162.8536095492891,56.04442617047607 163.2606295148653,55.998901723848576 163.25557963935717,55.95084790749024 162.97379658626596,55.93820212643186 162.9515771340557,55.90152926731389 163.28082901687594,55.881295905864135 163.35960707472987,55.869914621342105 163.4333352570793,55.881295905864135 163.47575421131114,55.993843438699514 163.53635271735402,55.93314380935044 163.62321057601002,55.930614649812924 163.5464524683557,56.05201355729423 163.51817316553934,56.23410904499269 163.806016069233,56.733589383869 163.68683900735414,56.97004318078052 163.46464448520055,56.795548427476206 163.2909287678849,56.642546799690535 162.97985643687207,56.77531694691788 162.9475372336492,56.91440751625669 163.0091457147937,57.16729430724354 162.8889586778132,57.187524963285796 162.87481902640138,57.1280972900704 162.86673922559203,57.1710875584904 162.79705094364908,57.126832867500525 162.6899935829788,57.12430402186783 162.27792374189812,57.456841518126566 162.26479406558428,57.42649636777878 162.271863891292,57.3746565144711 162.28297361739897,57.158443381844336 162.2860035427002,57.16097221850305 162.33347237243652,57.020620778339435 162.30216314431163,56.951076513120825 162.34660204874308,56.91187861477101 162.29004344310306,56.96877873743051 162.3365022977341,57.01429859318887 162.3001431941084,57.21913527816014 162.2637840904863,57.34051792190985 162.27792374189812,57.458105897311725 162.62333522632616,57.17867405650213 162.789981117945,57.121775175567564 162.81624047056175,57.20396233998326 162.8455297484834,57.212813223496596 162.85057962398423,57.19890468860558 162.8455297484834,57.205226752415 162.96773673566713,57.188789377874855 163.0030858641876,57.0408517428923 162.98793623768142,56.76520119068482 163.33637764741798,56.63116641606757 163.4595946096997,56.791755028111766 163.7615771648052,56.999125331872165 163.99387143796412,56.93590315206711 164.07971932152213,56.76646566079489 164.36453229991457,56.85371369700351 164.649345278307,57.04338061047383 164.7937717177083,56.85371369700351 165.08464454670684,56.83095341603985 165.49469443758062,56.796812893596325 165.81182661919956,57.04590947738234 166.14814832772754,57.12936171247475 166.08754982168466,57.09775110255214 166.10471939839772,56.96877873743051 166.1764276305512,56.849920320584715 166.2158166594745,56.74623411906214 166.5672879945123,56.3984978432527 166.97430796008848,56.309981147213875 167.3550685730479,56.01913483784665 168.78620329072146,55.76115944540652 169.68407115523223,55.47156117601298 170.4839714349764,55.06686776090737 170.67586670411038,54.42944108735264 171.6504926762682,54.223280161817456 171.64342285056773,52.543472991155795 171.6424128754661,52.105764170855764 171.6565525268743,51.727496847211114 171.16469465284172,51.36819235515577 170.5950686960532,51.00760919826371 170.51225073780006,50.74317294849061 170.40822330242736,50.34081100696585 170.04867216658386,49.928309257285946 170.0183729135606,49.69547836285801 170.072911569001,48.80712603727352 170.05877191758555,48.45910236894633 169.59721329656895,47.74909497238423 169.3103803679769,47.39343873325106 169.02859731488934,47.20611271251255 168.94173945622606,46.89473840190658 168.86599132368065,45.50988640043215 168.54481924165884,45.251628639629416 167.8519763225886,45.2136489710183 166.2602555639096,44.981969737671534 165.34622809778375,44.7768719786618 165.13211337644316,44.36792941298245 164.94728793301329,44.06026144367024 164.4645198348844,44.0539307234385 164.08880909742948,44.331212354789386 163.63634025232022,44.80599106328282 163.20205095902566,44.53631963883345 162.94652725854758,44.16535078941888 162.20924543504952,43.32333755268246 161.946651908871,43.196712628999194 161.11645237610355,41.74167231033698 160.87708827724782,40.59293365515623 160.6548937550906,40.34214330058876 160.42865933254143,39.974812254848985 159.33586627359546,37.0419924320131 159.35808572580936,36.87727183067 159.83277402313615,36.85319704409176 160.03981891876901,36.208223666614685 160.20141493488336,36.00040374300261 158.7854298437196,35.97379232966341 158.46526773679943,35.90409542062844 158.19964428531966,35.509981540995796 157.93705075914477,35.4554886355354 157.5007415156433,34.5975013329853 156.89071655482985,33.99927269113596 155.65450703158785,33.49100247334263 154.9455045109098,33.55437928425454 153.8416017258569,32.26901555153381 153.83756182545403,32.33113275670712 153.82544212424546,32.324794284845666 153.82645209934708,32.31972350433534 153.83150197485156,32.337471224374895 153.79716282142908,32.341274302953934" stroke="red" stroke-linecap="round" stroke-linejoin="round" stroke-width="0.5"><title>2025-05-03 98.8km</title><desc>1746244765000</desc></polyline><polyline fill="none" points="32.37234279888435,81.19955704319091 32.054538857650186,81.30942351732756 31.990263903240702,81.31839214607498 31.61800479230078,81.15583427372621 31.376081005568267,81.0 31.201110296347906,81.01569566843227 31.1207666033406,81.13789666187131 30.93597610942379,81.22870543056251 30.82438764690596,81.33184507134865 30.697623153493623,81.48879428478722 30.417312935660448,82.14458626789383 30.346789027353225,82.26677094868592 30.28519219604641,82.3003994501305 30.222702657039918,82.37438168262725 29.722786344980705,82.41473535484783 29.483540681354498,82.45060512407417 28.901495260888623,82.47078180240987 28.6774256281642,82.26564999633683 27.120543399185408,82.00446404806553 26.533141732517834,83.01217136430841 26.157311790775566,83.48852068463293 25.987697327756905,83.76310986937278 25.921636957948067,83.88863338539068 25.675249632720806,84.48932728716954 25.4360039690946,84.74147153407739 25.277101998472062,85.1179929553482 25.00928968844528,85.6054288406458 24.895023102832056,85.77238318311538 25.0083969807456,85.95838212911258 24.878954364230594,86.19143527984215 24.77629297871681,86.42112080834522 24.821821071422164,86.72586466942084 24.79503984042094,87.4070171628282 24.78164922491851,87.4551887016496 24.32726100556465,88.12060005633248 24.167466327249713,88.42528275085624 24.05052161853382,88.49025043677193 23.705936446298438,88.77587831548317 23.458656413367862,89.07941738441878 23.159599333830556,89.32918491664259 23.260475303941348,89.6058246623079 23.247084688442555,89.6629434843826 22.923924501006695,89.70214245312218 22.835546438698657,89.68422294706488 22.81590686929485,89.8186183184398 23.095324379428348,90.47488508587958 23.77467493920267,92.40419414457574 23.953216479225375,92.72999463047381 24.158539250249305,92.93711213896859 24.32726100556465,93.22706814831872 24.499553591682343,93.46887715780395 24.570077499993204,93.64799049546036 24.67988054710804,93.75881497785304 24.407604698575597,94.07560828593614 24.59328790019572,94.38007691703024 24.67541700860602,94.55021638979906 24.955727226439194,95.0315135137007 25.159264582060132,95.29453644395107 25.223539536465978,95.33594782151795 25.350304029878316,95.3807166508559 25.618116339912376,95.60567644057664 25.82254640323663,95.75340798160414 26.20551800657995,95.98619185418465 26.226942991383112,96.44278781626781 26.305501268991065,96.54798046099404 26.469759485811664,96.63526698432088 26.702756195536494,96.65540990060344 26.85183838145531,96.71695740399355 26.95092893616311,96.40138184297211 26.97235392096627,96.37788106550124 27.056268444775924,96.38571466522535 27.093762168184185,96.35773749013242 27.13929026088954,96.30737834240972 27.2214193692962,96.15853733573567 27.315153677809576,96.0533398608386 27.58296598783636,95.90113694922184 27.745438789253967,95.85189424594228 27.865954328772204,95.84182183959001 27.897199098271813,95.87763478559555 28.19000722391138,96.07684153756873 28.521201780644333,96.43271611163709 28.925598368790816,96.75500472817657 29.53174689716252,97.01461720872157 29.98077887031468,97.28429244978906 30.58603469098307,97.05266319783641 30.659236722389323,97.06497215777927 30.869915739611315,97.05266319783641 31.055598941235075,97.0862330465252 31.169865526848298,97.17575199356907 31.268956081563374,97.35814392505745 31.357334143871412,97.58640805684627 31.38857891337102,97.7341051047888 31.57515482269082,98.20403315250951 31.551944422488305,98.42891808167042 31.556407960990327,98.61352065871415 31.52516319149072,98.77798139017796 31.54212463778822,98.89321388122698 31.61621937689779,98.99613866676009 31.67781620820824,99.25232646243694 31.667103715804842,99.73783146260212 32.16612732016074,100.04097833461037 32.19915750506334,100.91568094472314 32.28932098277801,101.25010224423568 32.312531382976886,101.42122242992446 32.30538972137947,101.5285901973748 32.36073759878491,101.671745108717 32.35091781408482,101.71088860958571 32.31342409067656,101.7332562433512 32.30628242907915,101.80035879111892 32.32502929077964,101.86410572033219 32.400016737588885,101.96475779210687 32.43751046099351,102.09895869865431 33.070440220366436,102.31926725489757 33.13828600557463,102.38972005406413 33.23737656028243,102.58541920733114 33.240947391084774,102.74533002458338 33.345394191994274,102.8560357496799 33.396278530904965,102.96338537776046 33.41770351570449,103.02600536755199 33.41413268490578,103.06178801158057 33.396278530904965,103.07856107407406 33.41413268490578,103.17919875344614 33.698013733537664,103.566083617593 33.704262687431765,103.76287378148118 33.78371367274303,104.24476680739645 33.74889807244108,104.39793821573494 33.91226358155836,104.46613773529862 34.06402389057621,104.49297018309244 34.37200804711392,104.49408819991004 34.984405529383366,104.54775283420622 35.33434694782409,104.55334288078575 35.34327402482086,104.53545471878624 35.37987504052944,104.53545471878624 36.30382751013531,105.27889970787328 36.3386431104409,105.28672509864555 36.479690927055344,105.9496213270595 36.87873126900013,107.44513993502369 36.92247394630613,107.84524155618783 37.086732163126726,108.38389612284209 37.12511859422739,108.66215036380618 37.18493001013485,108.75378229756188 37.29651847264904,108.86440977996972 37.3456173961531,108.88899346949984 37.48309438196884,108.91692939406857 37.577721398178255,108.91692939406857 37.63574739868636,108.94374779531154 38.363304174268706,108.8565876820303 38.38383645136855,108.90687247179358 38.385621866771544,109.20187058280317 38.41329580547608,109.25327072196887 38.47935617528128,109.27450112357292 40.244239298383036,109.27003156974388 40.39332148430185,109.28790977096287 40.5593651165218,109.33037034823064 40.629889024829026,109.32031391487999 40.76379517984242,109.37059596272684 40.85663678065612,109.38623920586906 41.07088662867682,109.36724383545061 40.88073988855467,110.41751240594931 40.92805339665938,110.44656054466759 41.05035435157333,110.45438118045331 40.939658596762456,110.78731015002995 40.94769296606319,110.82417732185786 41.2940635537052,110.90573140705874 41.427077001018915,110.97276157666329 41.52259672492801,110.99063619935532 41.58954980244016,111.02191669871263 41.08874078268491,112.02618304138377 41.10034598278071,112.04070437718929 41.290492722902854,112.05187461863716 41.31281041540569,112.15799118108407 41.35119684650999,112.17474630682045 41.41547180091584,112.24846846812943 41.42261346251689,112.28421231644279 41.47617592452298,112.30320117479096 41.49492278622711,112.34676368972123 41.717207003552176,112.26745740623937 41.46457072442354,114.97685626431576 41.34851872341096,115.85448978422028 41.33780623100756,116.0275493309764 41.37887078521453,116.2854573555851 41.68060598784723,117.30696436358448 41.73863198835534,117.4721802176091 41.86628918947099,117.74009100800868 41.84129337386912,117.77804435533108 41.391368693013646,117.95106482581559 41.51009881712889,118.48238314706668 41.66632266464876,118.91321779628015 41.678820572451514,119.27483421053239 41.90556832827497,119.76142961374535 41.97341411348316,119.86745015547967 42.09928589919582,119.98462921992723 42.141243161102466,120.08618310603379 42.122496299398335,120.73565297384812 42.18409313070515,121.38842076416222 41.7002455572474,121.47545269340026 41.290492722902854,121.45090531613187 41.06820850557415,121.5 40.8227138880502,121.05925351027145 40.62364007092765,121.06036935294105 40.348686099292536,121.02577816232952 40.238883052181336,121.05702182450113 40.12729458967078,121.00346119067581 39.812168771532015,120.99453438565888 39.57292310790581,120.93874164250883 39.31046704407345,120.92088788758429 38.940886056236195,120.8483566237046 38.571305068395304,120.88964372649662 38.45614577507877,120.99899778933468 38.491854083084036,121.02466231513608 38.506137406282505,121.00680874014688 38.52042072948825,121.01015628830737 38.50703011398582,121.00569289047053 38.524884267986636,121.01238798634859 38.52845509878898,121.04140000772622" stroke="red" stroke-linecap="round" stroke-linejoin="round" stroke-width="0.5"><title>2025-05-03 66.9km</title><desc>1746236322000</desc></polyline><polyline fill="none" points="95.24254732509144,81.4868114523415 94.49868276331108,81.0 93.67216658359393,81.81135197979165 93.1487063363893,81.2271787765203 87.41819415672217,84.11557958339108 87.63859847153071,85.34882085656864 86.92228444910143,87.78283474192722 87.11513822420966,88.46435507532442 85.95801557262894,90.67117215090548 83.61621973000001,92.03419808161561 82.18359168514144,93.52702886881889 82.04583898861893,94.27344146452378 81.54992928064894,94.20853609553888 80.14485177514143,95.7338085398369 78.51936995505821,95.7987135774747 77.91325808991678,96.77228744939202 77.00409029214643,97.06435899221106 72.37559968570713,102.02953152541886 70.39196085429285,102.22424249211326 69.5654446745757,101.83482043194817 68.05016501166392,98.39490351767745 67.0583455960732,98.78433006253908 65.65326809056569,96.51266806054628 63.89003357372712,95.50664079710259 58.65543110202998,101.8997241439065 58.462577326688915,103.87928058419493 58.7105321806157,104.69057041741326 59.8125537536107,105.20979475430795 59.86765483219642,108.45492641310557 61.32783341652248,111.31061311246594 61.19008071976714,111.89472748347907 61.079878562595695,111.53776883688988 62.56760768615641,110.43443941450096 64.2206400455907,107.67609803008963 66.5073348096339,107.35158560448326 67.96751339372713,109.10394851461751 69.15218658465892,112.57619280615472 70.0338038430782,113.61461316581699 72.78885777562391,114.19872303199372 75.35105793271214,115.529191241425 78.27141510113142,115.00998484026059 79.26323451672215,115.85369478387292 79.45608829206321,117.47620720919804 78.40916779777035,121.5 80.36525608971715,119.39076053746976 81.66013143805321,119.22851073124912 83.12031002214644,119.8775094273733 88.07940710068215,116.6000515940541 90.99976426910143,113.7444154569821 92.26708907808643,113.35500841430621 92.62524608918466,109.81787119759247 95.46295163966715,110.10992998533766 96.53742267331108,108.876790939481 95.15989570715465,99.98505871288944 93.67216658359393,96.25304844594211 94.93949139257893,94.50061014518724 95.02214301051572,93.5919343859714 93.0660547184525,90.2492819117906 94.03032359469216,85.96543958361144 95.04969354975037,83.49895703716902 95.68335595424287,83.04460276747704" stroke="#4dd2ff" stroke-linecap="round" stroke-linejoin="round" stroke-width="0.5"><title>2025-04-28 5.2km</title><desc>1745795058000</desc></polyline><polyline fill="none" points="116.15167317411397,119.69211137651291 116.28324471460655,121.5 116.19553035427816,120.67353833452216 115.62538701249287,120.51857645253767 116.26131612458266,120.59605740608822 115.9543158634333,118.14248161755677 117.46738857845776,117.10938950185664 116.43674484500661,116.28291257793899 115.88853009324521,115.17232968847384 115.73502996272873,113.57101499644341 116.45867343514692,112.95114834984997 117.31388844782487,111.1948507430352 118.95853270334192,109.33522737381281 122.99339327646885,106.59742205872317 124.87925202271435,104.76359143630543 126.32653896743432,104.01455795906077 126.3923247376224,101.3800076735788 128.2562548937276,101.89658846164821 129.37461298739072,100.99257134608342 128.21239771367982,93.52784150885418 127.15982539020479,90.6607030468731 128.14661194337532,89.39501831047528 128.19046912353951,88.46512318993337 128.08082617318723,87.81936054961989 126.72125358879566,86.29535376376589 127.0940396200167,83.32480398232292 128.14661194337532,81.0" stroke="#4dd2ff" stroke-linecap="round" stroke-linejoin="round" stroke-width="0.5"><title>2025-04-27 2.3km</title><desc>1745711220000</desc></polyline><polyline fill="none" points="151.68782546664443,81.06931260013516 152.51883829379221,81.0 153.0453298641878,81.13862495724061 153.94054898041213,81.17544704810098 154.17352608647343,81.28374691781755 155.03755929086765,81.86422410710657 155.18981991923647,82.10464063812469 155.65393966597912,83.13341709659835 155.66861538918602,83.31317675249193 155.77317991710152,83.4279621838723 156.08320457005902,83.98455378916151 156.34369865715416,84.27475487189986 157.42786770979,85.21246508034892 157.89932531813247,85.69104830508331 158.0002209152517,85.86861922593198 157.81677437503822,86.01587195122192 157.61314871540526,86.06567777198507 156.9472377744387,86.42081129368125 155.9621298535203,86.79326155222952 155.31456356657145,87.1202324525475 154.26341489118204,87.8802565133883 153.764440301813,88.35660998663843 153.48743602609466,88.68788541389767 153.21960407738516,89.07544897202024 152.71879502262163,89.89601938966916 152.63807854492188,90.09087280116728 152.6362440795274,90.2294340599492 152.30787477255217,91.09109011507644 152.17028986739024,91.28809665798508 151.9960156541929,91.74055481172581 151.75386622110818,92.19733221803835 150.81278546983958,93.51781426088746 150.4495613202307,93.9615630452663 150.15604685589642,94.37716264428309 150.16888811370882,94.41179555046983 150.25694245300838,94.35118792489266 150.80177867742896,93.61305874061873 150.88432962053048,93.58491837383917 150.95770823661587,93.61522338255782 151.7336871016887,94.12174309047623 151.9960156541929,94.24512413376033 153.5534767805657,95.19967780340448 158.87526091204927,99.12563478902848 159.51732380278554,99.6579814018296 161.65264153081807,101.02989821529081 162.38826215705922,101.350142726571 163.21560605340346,101.56868499685879 163.69256705794396,101.61628794404714 164.8868040347079,101.96032402704077 165.13262239858886,102.00359858323463 165.1564704488119,101.97114267494726 165.84439497460698,102.20482402844391 166.36721761419176,102.46879409557914 166.78547572588286,102.75223345070117 166.8203305685165,102.70246958242933 166.84784754955035,102.71328782529235 167.1450309446882,102.94046956158127 167.21474062996276,102.91450606635226 167.22024402617535,102.88637890814607 167.50642062890256,103.0032145346795 167.65501232647512,103.16548509587301 167.84946565909195,103.20010264369557 167.97054037563066,103.267173970562 168.01823647608398,103.32559074779056 167.99438842586096,103.29746417283968 168.00356075286982,103.40780666116734 168.08060829975147,103.3666987471006 168.1393111926227,103.38400735288451 168.88593861127447,103.79508229902058 168.95564829654904,103.86215161304244 168.9574827619508,103.83402579930043 169.13909483676252,103.89676794440129 169.3188724461652,103.91623960423567 169.55735294843907,103.99412605233738 169.5390082944141,104.00927060393406 169.83252275875566,104.07201219445778 169.9132392364554,104.1347535864461 169.96827319850854,104.33379392976349 170.02147269516718,104.38571716897422 170.24344300881785,104.37489983868727 170.64519093188574,104.62802382077643 171.97517834839527,105.04556315714945 172.21916224687448,105.16454944117322 172.1311079075822,105.17103958158259 171.97701281380432,105.12993532309338 171.98618514081318,105.10830146861554 171.8559380972656,105.19050999007595 171.60461633717205,105.71404047268334 171.4413489163926,105.95633089362855 171.02309080471605,106.41494394316578 170.85248552232224,106.7697128007785 170.7350797365798,106.89734150839831 170.6782113091249,107.01631668263508 170.47275118409016,107.21749126273608 170.17740225434682,107.60685562148137 169.67475873418152,108.07408276344177 169.44911948971276,108.40502866412317 169.447285024311,108.46559332933975 169.4766364707466,108.46126728795389 184.73205075455917,121.43299025867964 184.7540643393877,121.42434382398278 184.73388521996822,121.45244472298691 184.77240899341268,121.46541435527979 184.76507113179832,121.43299025867964 184.8439531440963,121.5" stroke="#ffc800" stroke-linecap="round" stroke-linejoin="round" stroke-width="0.5"><title>2025-04-20 36.9km</title><desc>1745145130000</desc></polyline><polyline fill="none" points="23.44497584007331,131.23802826468454 23.137881285394542,131.18775743086007 22.97580360379652,131.3486240027196 22.617526623391313,131.3486240027196 22.83931713507627,131.22797410012572 22.873438752256334,131.02689057882526 22.56634419763577,130.63477645284001 22.617526623391313,130.4638543896508 22.48957055894425,130.65488491004362 22.736952283536084,130.95651124290453 23.206124519754667,130.92634865396394 23.078168455365812,131.4491654677622 22.50663136751973,131.52959856105008 21.798607811011607,131.2078657676684 21.986276705516502,130.30298627648153 22.310432068741648,129.75 23.308489371323958,129.94103199717938 23.85443524629227,130.80569819962693 22.83931713507627,131.92170888737746 22.327492877317127,132.0725201080204 22.378675303101772,132.2434391936622 22.191006408567773,132.04235788359074 21.576817299297545,131.95187115119916 21.619469320809003,132.32387159507925 22.139823982841335,133.14829967066908 22.881969156558625,135.64164711030753 23.214654924086062,136.16443723007978 33.41701846179785,139.4217551623442 34.32977172144456,139.55244762060465 35.04632568228408,139.4720215142952 35.23399457681808,139.7233528638826 36.59885926413699,142.84985768431943 38.705869125173194,150.33896462912526 42.33129095088225,159.73718623294553 43.42318270073156,163.50625792107166 43.312287444918184,163.79772639548173 40.301054728450254,164.77263151051739 40.4460716015019,165.44601357539796 43.09902733750641,170.0289015030794 43.030784103117185,170.25 42.80899359140312,169.88820218425099" stroke="#4dd2ff" stroke-linecap="round" stroke-linejoin="round" stroke-width="0.5"><title>2025-04-16 7.1km</title><desc>1744770713000</desc></polyline><polyline fill="none" points="64.12096774205565,136.48836733592907 63.830645160982385,137.58642347709974 64.75,139.11149705725256 63.68548387102783,140.2705495612463 64.60483870957978,140.3315522427729 88.55645161285065,162.77998412854504 89.4274193549063,161.98698773112847 88.75,161.07199017182575 89.5725806450937,158.87598852653173 91.26612903224304,157.77798373214318 89.91129032266326,163.26798122518812 92.62096774205565,164.12197488552192 94.55645161285065,160.0959907483193 94.94354838714935,160.52299075352494 94.89516129018739,158.26598618988646 96.78225806448609,158.26598618988646 96.54032258037478,156.74097677241662 97.75,156.86297771378304 96.58870967733674,166.98894188716076 97.16935483878478,167.23293824505527 96.29838709672913,168.45291807397734 96.87903225794435,166.98894188716076 96.05645161261782,165.4029623727256 95.04032258060761,166.92794277722714 93.29838709672913,166.1349536042253 89.47580645163544,166.43994960346026 80.5725806450937,157.53398230700986 79.41129032243043,157.89998439568444 80.28225806448609,157.16797992412467 71.04032258060761,148.50583764814655 67.16935483855195,149.60386480455054 65.4758064514026,148.01782472853665 65.5725806450937,147.04179732009652 65.08870967733674,148.6278407961654 63.29838709672913,149.35985899859224 61.99193548387848,149.17685455840547 61.75000000023283,148.3228328647092 60.927419354673475,150.57988672039937 60.58870967733674,149.8478704795125 58.84677419369109,150.5188854119915 59.91129032266326,147.89582141701248 58.45967741939239,145.33374432026176 57.25,138.98949135869043 58.024193548364565,138.44046531131607 59.814516129205,139.11149705725256 64.26612903201021,137.46441736997804 63.54032258084044,134.7192713157565 62.330645161215216,134.10923661122797 63.49193548387848,133.98722957231803 62.475806451402605,131.54708192602266 63.44354838691652,132.34013134572888 63.58870967733674,134.29224710850394 62.81451612897217,134.90228156762896 63.05645161285065,132.15712006384274" stroke="#4dd2ff" stroke-linecap="round" stroke-linejoin="round" stroke-width="0.5"><title>2025-04-07 2.7km</title><desc>1743986187000</desc></polyline><polyline fill="none" points="123.98654159868602,150.35414662305266 120.9804241436068,150.10426275496138 122.66517128876876,148.93813538062386 124.61419249582104,148.8964878935658 126.03466557909269,147.39717463956913 125.60522022843361,146.81410642087576 124.34991843393072,147.02234519596095 119.49388254480436,141.60809169753338 114.93515497550834,141.98292767093517 113.1182707992848,142.8158948822238 112.09420880908147,144.10698964784387 110.67373572592624,142.52435661220807 109.84787928219885,142.27446644881275 108.65864600334316,142.85754318413092 105.75163132150192,140.6085268916504 102.25,142.48270826568478 104.09991843393072,140.98336407047464 106.11500815663021,140.52522967933328 108.36133768362924,142.64930161854136 110.11215334420558,142.23281806879095 112.09420880908147,144.065341513342 113.28344208805356,142.77424657469965 115.36460032640025,141.94127925182693 119.82422512234189,141.6913886195689 125.14274061995093,148.23012734026997 124.34991843393072,148.93813538062386 121.57504078303464,148.97978286223952 119.42781402927358,150.2708520226879 125.2418433931889,150.39579391485313 130.59339314850513,149.10472527352977 131.91476345842239,152.68638637082768 132.9718597063329,153.14450283633778 137.89396411075722,152.97791510881507 142.7169657421764,157.3508133656578 142.75,157.80892295602825 140.7018760193605,158.6834939357359 138.02610114193521,159.01666318555363 137.82789559534285,159.47477032066672 138.22430668829475,158.97501704879687" stroke="#4dd2ff" stroke-linecap="round" stroke-linejoin="round" stroke-width="0.5"><title>2025-04-04 2.7km</title><desc>1743741381000</desc></polyline><polyline fill="none" points="184.34459779108874,148.50129223408294 182.3901101083029,149.77354747691425 181.72146958531812,149.59179708329611 181.05282906233333,150.62171441380633 179.14977526618168,151.16696322520147 178.7897380614886,150.8034641360282 179.66411413007881,149.31917127085035 179.30407692526933,148.89508614386432 175.75513876473997,149.56150533957407 174.5207254915731,149.4100465712545 173.13201055920217,148.4104166373727 172.23191754741129,146.4111460185377 172.38621920661535,145.89618005263037 174.05782051407732,145.19945987893152 173.82636802538764,142.50343932610122 172.6691055817064,141.23115091014188 170.791768728639,140.9282242412446 170.0459773761686,142.04905127262464 169.3773368530674,141.6552476938523 166.88279336341657,144.98741426313063 164.69685319217388,146.895819000114 163.97677878278773,147.10786316462327 162.253743588808,146.65348261472536 161.5079522363376,144.7450762190856 161.09648114524316,148.56187594871153 161.79083861142863,150.47025622145156 161.30221669073217,150.07646453625057 161.32793363393284,149.37975480777095 161.97085721371695,149.34946304091136 163.28242131648585,150.37938126653899 163.53959074849263,151.22754636066384 165.49407843104564,152.62095484315068 164.64541930577252,153.16619974534842 164.82543790806085,153.65086098542088 161.40508446353488,154.58988974124077 160.86502865643706,153.28736513431068 159.21914429217577,151.40929568797583 159.11627651937306,144.32098413509084 157.39324132550973,144.5936148345063 155.85022473393474,143.32133595633786 154.97584866546094,143.56367523781955 157.00748717761599,140.71617537699058 158.75623931468,141.62495508781285 160.01636953116395,143.74542956074583 161.76512166822795,142.32168419353548 163.8996279531857,142.0793438325054 165.751247862936,140.1103205908148 166.49703921563923,139.9891494755866 166.77992559073027,140.80705348137417 166.3170206132345,139.4135859592061 166.80564253381453,138.8683141634101 165.90554952214006,138.98948576572002 165.7769648062531,139.53475732455263 165.36549371515866,139.05007154718623 166.5227561587235,138.41392018567421 164.97973956726491,139.1409501946182 165.08260734006763,139.65592863725033 165.49407843104564,139.4135859592061 166.18843589734752,139.7770998972701 164.05392961238977,141.9884661428223 161.7136877818266,142.3822692508984 160.19638813345227,143.74542956074583 158.62765459879301,141.56436986592598 156.7760346889263,140.74646808180842 154.84726394945756,143.80601430876413 152.22413574380334,146.6231905517052 152.19841880071908,149.2282959407312 153.22709652839694,149.7129640255589 153.22709652839694,150.77317252397188 151.52977827761788,150.7125892897311 150.37251583393663,147.86516243583173 150.65540220914409,148.89508614386432 150.39823277725372,149.9855894530192 150.03819557256065,150.40967292146524 149.18953644717112,150.10675622409326 148.62376369687263,152.22716619519633 149.34383810625877,156.25590071929037 150.44966666365508,157.4372479270678 151.14402412984055,159.28498608825612 150.9640055274358,160.9812595231051 149.90961085667368,161.79910195682896 149.6267244813498,160.89038799350965 149.8581769701559,160.55719213170232 150.5011005498236,160.9509690165287 149.8581769701559,162.13229633471929 150.91257164103445,163.58623077985249 151.52977827761788,167.28161337750498 155.87594167713542,169.8562362451339 159.5277476104675,170.25 160.91646254283842,170.1288419807679 164.61970236257184,167.82682961551473 169.89167571696453,169.03841743950034 171.1260889901314,168.5537829415698 174.6235932643758,164.13145424245158 174.10925440047868,163.19245761618367 172.15476671780925,162.85926450483385 171.71757868363056,162.34432891348843 171.25467370601837,159.98167106910842 173.59491553658154,158.43684550162288 174.4178577188868,156.71026562229963 175.4979693328496,155.95299037278164 175.13793212815654,154.4687249181734 173.56919859349728,153.43882179653156 174.18640523019712,150.04617284506094 174.88076269626617,149.31917127085035 176.86096732201986,149.13742058104253 179.81841578928288,147.925746288558 180.87281046016142,148.25895724390284 181.5157340397127,149.4403383314493 182.26152539253235,149.65238056093222 184.98752137075644,147.74399469068157 186.37623630312737,147.3804911391635 186.11906687135343,144.86624526738888 184.8075027684681,141.23115091014188 185.96476521203294,139.9891494755866 186.11906687135343,138.83802125463262 184.19029613188468,136.11164598338655 184.62748416617978,133.38524405116914 186.17050075763837,129.75" stroke="#4dd2ff" stroke-linecap="round" stroke-linejoin="round" stroke-width="0.5"><title>2025-04-01 8.4km</title><desc>1743465137000</desc></polyline><polyline fill="none" points="24.845796645153314,192.31240677664755 23.995329605881125,192.00026505510323 25.500002060085535,191.7661586710601 26.61215126537718,193.01472513197223 27.528038846794516,190.2834830537322 26.742992348736152,188.9568758442183 22.35981606831774,187.94240978057496 20.724302530754358,183.4943486006814 17.584116539219394,184.58685752132442 16.537387875141576,182.24576485162834 24.38785285479389,178.5 23.40654473239556,179.59251685650088 25.827104767784476,181.0752155276714 22.490657151211053,182.4798744773143 26.350469099590555,180.99717883515405 38.06074602738954,200.19393828487955 41.92055797576904,198.55521144991508 42.901866097934544,199.1794887999422 44.733641259837896,202.37890132295433 43.68691259599291,201.05231744924095 42.247660683235154,203.08120939618675 44.47195909405127,201.36445506155724 45.060743967304006,201.98872986109927 42.705604473361745,202.14479847229086 47.35046291979961,208.15341307315975 42.378501766128466,210.18228406779235 42.96728663961403,213.30361237062607 44.79906180151738,213.1475462918752 44.53737963549793,213.9278763309121 37.53738169535063,214.08394223224605 37.60280223703012,212.99148017767584 38.51868981751613,214.08394223224605 37.86448440281674,212.75738094031112 40.4158855213318,215.64459929947043 45.64952884078957,215.8006648113951 44.66822071839124,215.8006648113951 45.911211006809026,213.69377741205972 45.78036992368288,209.94818387390114 47.2196218369063,210.6504842163995 48.462612125091255,212.05508274963358 48.135509417625144,213.38164539670106 45.4532672164496,212.60131473769434 40.873829311691225,215.72263205994386 43.35980988875963,215.87869755423162 47.285042378120124,219.0" stroke="#4dd2ff" stroke-linecap="round" stroke-linejoin="round" stroke-width="0.5"><title>2025-03-30 2.1km</title><desc>1743318651000</desc></polyline><polyline fill="none" points="89.21325583849102,179.61773279192857 89.04789222683758,178.5 85.68549878615886,179.74923062568996 85.90598360192962,181.19570482696872 82.48846895713359,181.91894057340687 82.59871136513539,183.957145546854 80.72459043096751,184.94337118568365 80.72459043096751,185.86384693393484 80.17337839165702,185.33786097110715 80.06313598365523,186.52132871589856 79.51192394411191,183.56265482120216 80.00801477977075,184.15439080889337 79.0709543125704,184.74612619209802 71.85007659578696,185.66660225373926 72.56665224721655,185.79809871461475 72.51153104333207,188.16502990660956 70.6374101091642,187.3760539169889 66.5033198131714,188.16502990660956 66.39307740540244,190.07171744585503 68.708167970879,189.80872643413022 70.19644047762267,197.17242963827448 69.9208344577346,195.59450111578917 70.91301612881944,194.7397880385397 66.66868342505768,196.25197185581783 65.84186536562629,197.69840485753957 65.78674416150898,196.1204777674866 69.47986482619308,194.7397880385397 71.0232585365884,196.1204777674866 70.19644047762267,196.97518880805 71.29886455647647,213.34594923781697 71.5193493720144,215.6470230658888 72.8422582668718,216.6331947663566 69.86571325408295,217.02766297676135 69.86571325408295,219.0 68.92865278664976,218.21106599626364" stroke="#4dd2ff" stroke-linecap="round" stroke-linejoin="round" stroke-width="0.5"><title>2025-03-30 1.4km</title><desc>1743309591000</desc></polyline><polyline fill="none" points="128.95413739827927,184.16344784747344 128.63361590227578,186.39447518173256 130.26536170043983,188.14496252019308 130.67329814995173,189.58653304493055 130.49846824305132,190.6162222494604 129.362073848024,191.954813197779 131.1103729173774,198.61336081573972 130.11967011133675,199.36844498483697 129.15810562309343,199.12819112674333 128.51706263085362,200.19217111117905 127.00187010399532,201.15318221083726 125.71978411974851,201.2904692721495 124.96218785620295,202.62901499355212 127.99257291003596,205.78658756107325 128.2548177704448,209.76782973311492 125.98202898004092,211.00337744824355 124.14631495717913,212.9596514495497 118.02726821391843,217.24968360905768 117.4445018573897,218.34792247775476 117.12398036126979,216.87216311634984 115.4630962453084,216.46032206443488 113.30686072609387,219.0 113.01547754788771,218.2449627459864 114.3558401678456,214.4011087526742 114.00618035392836,212.9596514495497 116.59949064045213,211.3122636222106 117.5319168107817,209.28733765007928 118.84314111294225,208.463635236345 118.23123643861618,207.84585701688775 118.84314111294225,208.22338829460205 120.00867382599972,210.14535871424596 123.68010187195614,207.88017806076095 124.35028318199329,208.0861042457982 124.32114486419596,207.3996831071272 124.40855981758796,208.01746219905908 123.82579346117564,207.67425174158416 123.88407009665389,206.67893930643913 123.27216542244423,206.57597577225533 123.59268691856414,205.88955135268043 122.45629252318759,204.55101944503258 122.68939906579908,204.00187650916632 124.35028318199329,203.76162617452792 124.64166636019945,202.49172851390904 125.48667757713702,201.63368666439783 125.10787944530603,200.70699884954956 128.05084954574704,202.73197981421254 128.8084458092926,202.69765821102192 130.2362233827589,204.07051942835096 130.7898514213739,205.51201728614978 131.5183093668893,205.13448276856798 131.9845224521123,203.79594766211812 130.7898514213739,196.5883534522436 129.07069066970143,192.02345873444574 130.49846824305132,190.6162222494604 130.70243646786548,188.93439481285168 128.69189253787044,186.08556464448338 129.01241403387394,182.72185257443925 131.25606450648047,178.5" stroke="#4dd2ff" stroke-linecap="round" stroke-linejoin="round" stroke-width="0.5"><title>2025-03-26 3.9km</title><desc>1742943197000</desc></polyline><polyline fill="none" points="166.74910212884424,180.27242597810982 166.5752099902602,179.61942907665798 167.33401204954134,179.6940574205073 167.41305393073708,179.2276297356584 166.63844349514693,178.5 166.48035973287188,178.85448666928278 166.100958703144,178.74254359015322 164.39365406968864,181.52244164401782 164.39365406968864,181.93289255115087 164.2039535548538,181.85826518698013 164.06167816877132,182.7724481481855 163.31868448568275,184.264981227534 163.44515149557265,184.73139513628848 165.2789231389179,185.8134704924887 166.62263511901256,187.0447892714874 166.41712622786872,187.54850802807778 166.1958089605905,187.28732071032573 166.2116173368413,188.33206758157758 165.91125818836736,188.81712645365042 166.41712622786872,189.13427958580723 166.40131785161793,189.93648781707452 165.99030006950488,190.2349829400482 165.76898280228488,190.01111164681788 165.54766553489026,190.70138052392576 165.05760587158147,190.57078932895092 164.8995221092482,190.90659505678923 165.05760587158147,190.7386922755686 166.3380843467312,191.93266401799337 167.12850315851392,192.19384422259463 167.19173666340066,193.48108367428358 167.71341307921102,193.31318342711893 168.899041296856,193.89150580496062 169.8475438710302,195.68242718286638 169.65784335613716,195.81301446452562 169.80011874227785,195.7010825149191 170.66957943531452,197.04426106256142 171.22287260345183,197.1935024705308 171.30191448476398,197.47332975864992 170.93832183122868,199.67462175026594 171.68131551431725,200.96180475407164 171.08059721736936,201.80126669816673 170.25856165314326,206.8752598446008 170.36922028678237,207.45353624912968 169.35748420772143,207.73334670890472 169.81592711858684,207.50949837773805 169.626226603752,207.3043038162432 168.61449052463286,207.9198867605446 167.91892197029665,206.8566057344433 168.64610727713443,207.62142258002132 168.53544864343712,208.7779683710396 168.97808317799354,208.21835041888698 168.3299397524097,208.3489281052316 168.899041296856,208.29296625190182 168.63029890088364,207.62142258002132 167.87149684154429,206.98718446296698 168.18766436626902,207.34161193670298 167.9663470989908,207.09910900791874 168.36155650485307,208.16238852271636 168.34574812860228,209.16969984544266 166.08515032700961,214.392700232871 166.1958089605905,214.9336447076057 170.590537554177,216.12744713533903 170.38502866303315,217.71295307241962 170.13209464325337,217.65699429009692 170.0846695145592,218.12331691502186 169.65784335613716,218.08601115197234 169.42071771266637,219.0" stroke="#4dd2ff" stroke-linecap="round" stroke-linejoin="round" stroke-width="0.5"><title>2025-03-24 3.9km</title><desc>1742796232000</desc></polyline><polyline fill="none" points="42.32946514128707,267.7471456681942 42.41182142881735,267.75 42.46026630383858,267.6301177967034 42.399710210069316,267.69291330484884 42.40213245381892,267.5673221382476 42.33188738503668,267.57873954187016 42.57168951637868,267.51879811740946 42.59348971013969,267.4759827303624 42.513555666359025,267.33897302224796 42.55957829763065,267.2647591315945 42.4675330350874,267.1848362453202 42.55231156636728,266.9736103023315 42.48933322884841,266.95648379998056 42.54504483511846,266.82803467595295 42.43362162257836,266.7110027042563 42.25195334125601,266.76809153616523 42.2471088537568,266.7167115930424 42.28828699751466,266.7424015771812 42.29797597252764,266.6881671367046 42.43362162257836,266.65962264932386 42.30282046002685,266.6995849229734 42.35610982256185,266.6938760304565 42.31250943503983,266.5682800809391 26.92641712909972,227.43010063809743 26.892505716576125,227.45297047157328 26.923994885350112,227.50156880126815 27.00392892913078,227.44153555734192 27.013617904129205,227.4758402850439 27.163797016692115,227.42438317660162 27.190441697952338,227.5044275237342 27.134730091682286,227.27572873857753 27.141996822931105,227.31575117046486 27.26068676673458,227.25 27.374532223009737,227.2557174996491 27.45931075430417,227.361491017562 27.527133579322253,227.37578470335757 27.43751056054316,227.39865458437998 27.391487929286086,227.30717494022247 27.449621779305744,227.31575117046486 27.413288123047096,227.32432739788965 27.391487929286086,227.38150217549082 26.877972254078486,227.53587345016058 27.028151366641396,228.20480510303787 26.89735020408989,228.25054339406415 26.85374981656787,228.3277265786619 26.715681922767544,228.3505956266181 26.703570704019512,228.46494056621668 26.713259679017938,228.51067840198084 26.856172060317476,228.4935267229448 26.899772447839496,228.5764264006557 26.85374981656787,228.43063713686752 26.848905329068657,228.50496117689 26.773815772787202,228.51925423727698 26.553391591456602,228.48780949410866 26.32812292262679,228.5506989426067 26.33296741011145,228.49638533690268 26.32812292262679,228.58214361011778 25.81460724741919,228.81940669972755 25.800073784907,228.97948660356633 25.62324999109842,229.06810184300048 25.368914397244225,228.5506989426067 25.27444689096592,228.59643662829149 25.199357334684464,228.5764264006557 25.23811323469272,228.60501243544059 25.221157528445474,228.49066810869226 25.13153450965183,228.364888771428 25.175134897173848,228.34201973597737 25.046755978357396,228.26197795431835 25.000733347100322,228.14191482216484 25.034644759609364,228.10475231232704 24.877198915812187,227.98754712746813 24.780309165769722,228.03900312701262 24.47752869690885,227.9389497015327 24.218348615555442,227.82174377305273 24.082702965504723,227.7817221161058 23.930101609192207,227.60162390133883 23.617632165318355,227.41866571385071 23.498942221529433,227.4358180983436 23.23733989642642,227.7274069122086 23.033871421343065,227.73884170135716 23.03144917759346,227.7760047315296 22.91033699005493,227.79315688148017 22.597867546181078,227.6702328914198 22.60271203368029,227.55302575772657 22.406510289860307,227.43010063809743" stroke="#4dd2ff" stroke-linecap="round" stroke-linejoin="round" stroke-width="0.5"><title>2025-03-24 4.7km</title><desc>1742777725000</desc></polyline></svg>