<?xml version="1.0" encoding="utf-8" ?>
<svg baseProfile="full" height="300mm" version="1.1" viewBox="0,0,200,300" width="200mm" xmlns="http://www.w3.org/2000/svg" xmlns:ev="http://www.w3.org/2001/xml-events" xmlns:xlink="http://www.w3.org/1999/xlink"><defs /><rect fill="#222222" height="300" width="200" x="0" y="0" /><text fill="#FFFFFF" style="font-size:12px; font-family:Arial; font-weight:bold;" x="10" y="20">Over 1km Runs</text><text fill="#FFFFFF" style="font-size:4px; font-family:Arial" x="10" y="280">ATHLETE</text><text fill="#FFFFFF" style="font-size:9px; font-family:Arial" x="10" y="290">Tao</text><text fill="#FFFFFF" style="font-size:4px; font-family:Arial" x="65" y="280">SPECIAL TRACKS</text><rect fill="yellow" height="2.6" width="2.6" x="65" y="283" /><text fill="#FFFFFF" style="font-size:3px; font-family:Arial" x="70" y="285.5">Over 20.0 km</text><rect fill="red" height="2.6" width="2.6" x="65" y="287" /><text fill="#FFFFFF" style="font-size:3px; font-family:Arial" x="70" y="289.5">Over 40.0 km</text><text fill="#FFFFFF" style="font-size:4px; font-family:Arial" x="120" y="280">STATISTICS</text><text fill="#FFFFFF" style="font-size:3px; font-family:Arial" x="120" y="285">Number: 23</text><text fill="#FFFFFF" style="font-size:3px; font-family:Arial" x="120" y="290">Weekly: 2.3</text><text fill="#FFFFFF" style="font-size:3px; font-family:Arial" x="141" y="285">Total: 323.1 km</text><text fill="#FFFFFF" style="font-size:3px; font-family:Arial" x="141" y="290">Avg: 14.0 km</text><text fill="#FFFFFF" style="font-size:3px; font-family:Arial" x="167" y="285">Min: 1.4 km</text><text fill="#FFFFFF" style="font-size:3px; font-family:Arial" x="167" y="290">Max: 98.8 km</text><polyline fill="none" points="25.876727176015265,63.71829646702463 25.71992666015285,63.773016559222015 25.354058789875126,63.67725636667092 25.023035478661768,63.76617655030714 24.22741804641555,63.246333698283706 24.91850180143956,63.73881650716794 25.737348939699586,63.820896600904234 25.987068279762752,63.78669657484352 26.800107991526602,63.232653565286455 28.066126971301856,63.52677576988572 28.426187415083405,63.36261470878526 28.466839400702156,63.76617655030714 28.617832489981083,64.06029626329837 28.884974109590985,64.29969501569212 29.105656317056855,64.36125454778085 29.378605363162933,65.40775738774028 29.901273749303073,65.33935904041937 30.39490500287502,66.03017893497599 30.807232285267673,66.26957019996189 30.63300948991673,66.76202936982008 30.116148530272767,66.99457819498639 30.16841536888387,67.93160446757975 30.342638164263917,68.0 31.074373904877575,67.73325700355417 32.2939334725088,66.80306746018323 34.471718414803036,64.64169165485146 35.476403201464564,63.12321239431549 35.68547055590898,62.521282554422214 35.77258195361355,61.76202193730205 35.72612254152773,59.23108709662483 34.198769368667854,56.18699016667597 33.23473656756687,54.57253296715862 32.81079443215276,53.54637339640249 31.22536699421471,51.938689771042846 30.987262507173,51.562417461303994 30.69108375502401,48.2237573576931 30.969840227626264,47.135917965500994 29.18115286171087,46.34226226912506 28.484261680219788,45.93174677472416 27.206627847452182,44.946498662571685 26.660729755240027,44.04334100908454 26.213557913753903,43.530177476644894 24.970768640050665,42.68858022412314 30.679468902002554,32.78014987991264 30.493631253601052,32.54747461253646 28.821092417958425,32.02053038397935 28.484261680219788,32.0 27.45634718745714,32.266894468906685 27.45634718745714,32.71855945172865 27.107901596697047,32.94439072689056 26.649114902189467,32.937547366829676 25.987068279762752,32.77330650197109 26.38778070913395,32.91017391913556 26.608462916628923,32.79383663354383 26.45746982729179,32.92386064449238 26.573618357564555,32.828053504581476 26.46327725381707,32.786993257112044 26.434240121219773,32.937547366829676 26.54458122496726,32.87595709276502 26.562003504513996,33.06757108070451 26.35874357659486,32.91701728218686 26.55619607801782,32.90333055535302 26.440047547745053,32.9512340862093 26.55619607801782,32.80752338417733 26.538773798471084,32.99229422647113" stroke="#4dd2ff" stroke-linecap="round" stroke-linejoin="round" stroke-width="0.5"><title>2025-05-27 10.2km</title><desc>1748342410000</desc></polyline><polyline fill="none" points="89.9389280375326,60.8475848743401 87.97864616685547,61.121495777362725 86.82553918426856,63.01147265829786 84.56544949801173,64.81926298390317 83.87358530855272,64.46318412660912 83.91970958781894,65.12056007419596 79.44565449492075,64.51796552298765 76.70125987613574,62.71017297341314 74.53341874864418,62.271918224476394 72.13495622458868,60.984540364166605 69.20606448862236,61.25845111395756 64.68588511645794,59.039765231267666 63.763399530318566,58.13585040527687 61.2726884476142,58.628895269401255 58.85116378380917,59.75193819888227 58.66666666662786,59.31367815626436 59.61221439251676,57.396281247914885 60.23489216319285,58.02628474516678 59.01259876147378,59.31367815626436 58.966474482091144,58.02628474516678 59.47384155460168,58.02628474516678 59.26628229767084,57.50584718995378 59.912022207980044,57.42367273797572 60.11958146491088,57.83454472194717 61.11125346994959,56.19105265031976 61.96455263718963,56.82105924806092 62.7256032457808,56.30061913150712 62.7256032457808,55.75278623505437 63.46359171462245,55.4240859089623 64.13239376468118,55.4240859089623 63.48665385437198,56.3280107442115 64.13239376468118,55.396694195165765 66.55391842825338,55.369302478356985 72.27332906250376,56.711492999558686 74.92547512275632,56.98540852875158 81.4751227843808,60.765411543732625 83.11253470007796,58.87541732925456 84.51932521886192,58.24541601644887 85.16506512905471,58.68367797082465 87.5404655134771,56.903233902165084 88.69357249629684,57.28671525690879 89.89280375826638,58.24541601644887 90.03117659606505,58.738460659980774 89.52380952378735,59.77932942552434 88.53213751863223,60.21758863491414 87.93252188758925,61.121495777362725 90.35404655127786,60.62845593142265 92.72944693558384,59.58759077482682 92.9831304717809,59.14933043802739 92.9600683322642,59.61498201978975 92.86781977349892,58.16324181271193 94.66666666662786,56.903233902165084 94.66666666662786,56.24583589707618 91.0689728804864,51.972705847088946 86.29510997212492,44.87804961801157 86.71022848598659,43.15229134574474 87.7019004910253,41.618273781466996 88.02477044623811,39.3172294152464 89.27012598747388,36.08477342259721 89.33931240660604,34.98901594345807 87.90945974795613,35.3725316189375 87.14840913936496,34.93422794077196 87.12534699973185,35.29034973909438 87.3559683962958,34.906833934845054 87.24065769801382,35.23556180384185 87.63271407212596,35.39992557282676 89.56993380305357,34.87943992581859 90.261797992629,35.0985919120576 88.46295109961648,34.93422794077196 87.60965193249285,35.3451376620942" stroke="#4dd2ff" stroke-linecap="round" stroke-linejoin="round" stroke-width="0.5"><title>2025-05-25 4.8km</title><desc>1748150210000</desc></polyline><polyline fill="none" points="129.10576017631683,35.58442690887023 128.94914394407533,35.18908830478904 127.74096158170141,35.00459673572914 122.7739896470448,37.50839891616488 122.86348463688046,38.668045905113104 121.99090848618653,42.12059843246243 121.29732231516391,43.14844808871567 117.80701771238819,45.5467470153817 116.71070408716332,46.94354755120003 118.05312893434893,48.0767949061119 118.47823013609741,50.079730771598406 118.07550268177874,50.89671302070201 116.75545158213936,51.529213517467724 117.58328023785725,53.4794130007358 118.9704525800189,54.48086069688725 118.47823013609741,55.086998083555955 118.18737141916063,56.66821892009466 120.26812993234489,57.195290241987095 119.8206549831666,57.64329996528977 119.05994756973814,57.01081540957966 118.54535137838684,58.40754993665905 119.28368504426908,58.82920406269841 119.77590748830698,59.936042656801874 118.88095759018324,60.17322169848194 118.05312893434893,62.255116669868585 116.08423915843014,63.52005678816931 116.30797663307749,64.6005212500022 115.3459054925479,67.76282860952779 115.77100669406354,68.0 117.02393655164633,66.18168008192151 119.35080628667492,66.65602572214266 123.89267701969948,63.41464536359126 125.43646559398621,61.859821530335466 126.64464795647655,61.38546651272918 127.0473754106788,60.72663856076542 127.13687040039804,58.35484311936307 128.8596489543561,58.93461747969559 130.0230838219868,58.17036916872894 129.28475015587173,53.00504159637785 128.79252771195024,52.84691758877307 129.17288141860627,52.2144205278164 128.77015396452043,49.76347883962444 127.76333532913122,47.36522160405002 128.7477802169742,46.15290672639094 128.81490145949647,44.96694065700285 127.22636539035011,42.88489730996662 127.91995156137273,39.6695547519048 128.97151769150514,37.033996277241386 129.32949765084777,36.928573342534946 129.12813392374665,35.847985620232066 130.13495255913585,34.47747719362087 130.60480125574395,32.65890597930411 131.32076117419638,32.0" stroke="#4dd2ff" stroke-linecap="round" stroke-linejoin="round" stroke-width="0.5"><title>2025-05-20 4.1km</title><desc>1747694891000</desc></polyline><polyline fill="none" points="180.15110919310246,33.66072032097145 180.42620700318366,32.88875062449006 180.82784980593715,32.70062203786438 180.97640262340428,32.28543960386742 181.2680063021253,32.051898211644584 181.17997500288766,32.0 181.2349945649039,32.071360029334755 181.17997500288766,32.006487278926215 181.2349945649039,32.04541093766602 180.99841044819914,32.33733756654692 180.83335176215041,32.759006835309265 180.36568548495416,32.97957110860443 180.08508571865968,33.959126091162034 179.90902312018443,34.062919051732024 179.5734037918155,34.555933142222784 180.2666502733191,35.01650840479488 181.11945348465815,35.256525086519105 180.98190457961755,35.2500381619102 181.09194370362093,35.39923724914843 180.90487719274824,35.256525086519105 180.89387328035082,35.340855042170006 180.91588110517478,35.256525086519105 181.0039124044124,35.301933539023594 180.92138306138804,35.23057738381249 181.14696326566627,35.26949893362689 180.9103791489615,35.23057738381249 180.86086154315853,35.301933539023594 180.87186545558507,36.07387193038085 180.53074417100288,36.748498963788734 180.23363853609771,37.01445559637432 180.51974025860545,37.24797751333608 180.09058767481474,37.70204528440445 180.09058767481474,37.70853194173469 180.81134393732646,37.97448428415373 180.75632437531021,37.58528533128265 180.5417480834294,37.20905725747434 180.21163071130286,37.01445559637432 180.5747598206217,36.73552543911137 180.87736741174012,36.03495090666547 180.83885371836368,35.340855042170006 180.90487719274824,35.21111659936287 181.28451217070688,35.37328960868763 181.5431041122356,35.723581800495595 182.29137015572633,35.63276550432056 183.05614206785685,35.794937364549696 182.95160490000853,35.00353450255352 182.23084863749682,34.35483578277854 182.50044449142297,33.67369451600098 182.74803252052516,33.4336714498786 182.79755012632813,33.07687861632803 183.10015771744656,33.122288732145535 182.91859316278715,33.05092996318126 182.76453838913585,33.10282725818615 182.74803252052516,33.39474869928745 182.478436666599,33.69315580325929 182.23084863749682,34.37429684727613 182.96260881240596,35.05543009462781 183.21019684150815,36.54740901349214 183.69987094349926,37.37122482232371 183.5733259508561,38.37016727713126 183.89794136676937,38.33773434388422 184.48114872418228,38.499898833317275 185.63655952666886,38.117189929176675 186.49486469422118,38.59071075440443 186.49486469422118,38.71395528281573 186.1537434096972,39.44044415898679 185.50451257781242,39.764766687156225 184.72873675331357,40.484756383342756 184.61869762925198,40.452324602374574 184.17303917687968,39.53774110299855 183.41376922099153,39.92044087294562 182.79755012632813,40.387460987389204 182.14831929447246,41.600398889702774 181.19648087149835,42.52143682964379 180.50873634623713,43.41651638473195 177.0094922016142,48.79319657567612 177.04800589501974,48.98127430678869 177.69173477069126,49.435252589424636 176.75640221629874,51.711577219230094 176.46479853757774,51.64024073107794 174.89674101996934,50.69988812657175 174.71517646528082,50.706373367793276 171.17191667106817,56.81515695129201 169.42229459877126,58.92260677307422 167.04544951938442,59.415415052175376 166.0330895782099,59.76556582567355 157.55457507059327,64.09040661035033 157.07040292478632,64.66746057726778 156.5972346914059,65.58165823074523 156.47068969879183,65.56869098620518 156.4266740491439,65.67242886350141 156.33314079372212,65.61407632973714 156.33314079372212,65.38714926637113 156.17358406385756,65.17318867220456 156.01952929017716,65.14725400252792 155.94800385955023,65.30934550284292 155.74443148006685,65.27692723806103 155.67290604943992,65.40011655041599 155.6123845312104,65.27044358297644 155.76093734867754,65.34824739730902 156.014027333993,65.10835197684719 156.45418383018114,65.51033835086855 156.43767796154134,65.64649441109577 156.49819947977085,65.60110909225114 155.89298429753399,66.74221518864215 154.9686556555389,66.98210403137273 155.04018108619493,67.42946172601296 154.65504415205214,67.63693082128157 154.1983817872533,67.57858021124775 154.4294639477448,68.0 153.87376637131092,67.89626617464819 153.91228006474557,67.60451382278552 153.50513530577882,67.13122363608636" stroke="#4dd2ff" stroke-linecap="round" stroke-linejoin="round" stroke-width="0.5"><title>2025-05-17 14.6km</title><desc>1747468743000</desc></polyline><polyline fill="none" points="43.89004014537204,90.61160287699022 41.8425547007937,91.6091133988084 41.93102629412897,92.18975050780864 41.67825031327084,93.61900060089829 41.03367156221066,94.7653675051115 39.049380112905055,96.13504006210133 38.430078959907405,96.96874708931136 37.79813900787849,97.01340982265538 37.406336237618234,97.46003635504167 36.963978271291126,97.54936148683191 34.82802123343572,99.8866817397502 33.61469652550295,99.7526963056298 32.94484017638024,98.08531105484872 32.48984341096366,98.35328505275538 31.807348262809683,97.28138591675088 31.327073899214156,97.34093608874537 30.973187526105903,97.16228549518564 30.909993530949578,96.8794215790258 29.848334411508404,98.51704668239108 29.00153487577336,99.23164059418195 28.60973210557131,100.12487774361216 28.723481296910904,101.13720614108024 29.14056166523369,101.28607733351237 29.178478062385693,102.6407977524068 29.747224019200075,104.15925966661598 30.45499676541658,103.6977681194112 31.200685908843298,102.43238009810739 32.287622626230586,102.3430581492139 32.91956257831771,103.01297134670313 33.77900091308402,105.14178488105244 35.11871361132944,105.42463174309523 36.205650328833144,106.00521031519747 37.79813900787849,105.8563442490995 38.01299859152641,106.07964328757953 38.35424616566161,107.61295352537127 39.744514060090296,108.0 44.0543445328949,105.00780458477675 44.294481714605354,104.5016556167393 44.243926518422086,103.37025704635016 45.49516762344865,103.56378641141055 45.88697039370891,103.0278582694591 45.874331594619434,101.89644753151515 45.33086323586758,98.84456935450726 44.698923283896875,97.10273524560034 45.28030803980073,96.43279315416294 45.25503044167999,95.6735214907967 44.408230906003155,94.5420500291948 44.597812891646754,93.09792156469484 45.33086323586758,91.86221192832454 45.507806422479916,90.5520497802936 46.01335838413797,89.91185235585726 46.304050761973485,88.82499871544132 46.83488032175228,88.21457028694567 43.788929753005505,85.04327638953691 42.71463183459127,85.29638704887475 39.35271128983004,85.44527545360324 33.38719814282376,84.61149830304203 32.022207846457604,84.07549602662039 30.21485958370613,81.9612443739461 27.952514555479866,82.51214407483349 27.20682541205315,80.21919560525566 25.91766790993279,81.06788879838132 22.960188934521284,82.27391744904162 21.001175083278213,84.00105110014556 19.724656380189117,83.19704331633693 16.59023421816528,80.27875319385203 13.16511967824772,74.51643654712825 16.994675787515007,72.0 17.53814414620865,72.58072022987471 17.866752921254374,73.36990018539655 17.63925453851698,73.31033959268825 17.298006964381784,72.69984202402702 17.702448533731513,73.42946075220243 17.070508581760805,74.7695666582731" stroke="#4dd2ff" stroke-linecap="round" stroke-linejoin="round" stroke-width="0.5"><title>2025-05-12 8.9km</title><desc>1747004623000</desc></polyline><polyline fill="none" points="74.07452386472141,86.44526090051295 73.84308254314237,87.1125278588006 72.74759362087934,88.83525278256275 71.70353610347956,90.09086723652581 71.34865941034514,90.654974641242 71.10693180779344,91.10383020676454 71.06064354348928,91.66186180178556 70.55661577641149,92.25021513413594 70.06287429036456,93.24494268685157 70.04230172841926,93.5360790913328 69.9342957783374,93.65132016356802 69.94972519981093,94.30030489918136 70.03715858797659,94.21539143931295 69.92400949739385,94.35489205488193 69.96515462122625,94.03343358857455 69.816003547312,93.84540985050626 69.96001148075447,94.0213030440209 69.97029776169802,94.22752194150962 69.45598371370579,95.3192563018747 69.5742759447603,95.41023319754822 69.40969544940162,95.40416807581278 68.82852057515993,96.70208905103937 68.05704950317158,98.97641022364405 68.05704950317158,99.34029297900634 67.70217281003715,99.87398337971172 66.40095826861216,102.9304751939635 66.0717972778948,105.71998381291269 66.18494636844844,107.44213233425398 66.2723797566141,107.74532197703957 66.56553876394173,108.0 66.89984289515996,107.89691617878998 68.854236277577,106.5446813067174 69.034246194351,106.26574087571134 69.04967561579542,105.88371149399609 69.12167958251666,105.79881571950318 70.90120618860237,104.61026127159494 71.44123593898257,104.37982430664124 71.67782040106249,104.62238950646133 72.48015031593968,104.31918284140193 76.20378402344068,102.57874460972744 76.5586607165751,102.20881866422133 77.65414963880903,101.9419853071704 78.02445575335878,101.69940841707648 77.99359691046993,101.59631291839105 78.1787499677448,101.40225028475834 79.32567029478378,100.92315525843878 79.52625277353218,100.76547751161343 79.32567029478378,100.36521660798462 79.2228074852028,100.38341034791301 79.25366632806254,100.46224981885825 79.33081343528465,100.34702286208267 79.38738798056147,100.48044352704892 79.51082335205865,100.5168309255605 80.13828649063362,100.21966647420777 80.21029045735486,100.0983744050609 80.09714136680122,99.69810869984212 80.24629244068637,99.17048132283526 80.18457475493778,99.0977047400047 80.09714136680122,99.22506369744224 80.15885905254981,99.23112840242175 80.2205767382984,99.00673387754796 80.10742764777387,98.71562611755144 79.91198830949725,98.55794211124885 79.5211096330313,98.43058162585658 78.99650930409553,97.93933130684673 78.72906599912676,97.94539615204849 78.36904616549145,98.21831350198408 77.8804478199454,98.23044313090577 77.69529476264142,98.46697036574187 77.77244186983444,98.75807942747997 78.19932252969011,98.90363338683892 78.19417938918923,98.97641022364405 78.28675591785577,98.9521512886422 78.18903624874656,98.96428075747463 78.47705211560242,99.36455174471848 78.6004874871287,99.46158670165823 78.8216425277642,99.44945734130306 78.87821707304101,99.64352678956493 79.24338004711899,99.89217728035874 79.52625277353218,99.58894482569667 79.58282731877989,99.2371931067537 79.99942169766291,99.20080487089217 79.86570004519308,99.07344585790997 79.76283723558299,98.77627369323454 79.5622547568637,98.69743183195533 79.57768417830812,98.47303515341264 80.02513740007998,98.65497847573715 80.18971789543866,98.87937442007751 80.25143558118725,99.17654603376286 80.10742764777387,99.68597939108804 80.12800020966097,99.92856506381213 80.58059657190461,100.4016040819115 82.18525640165899,99.23112840242175 82.32926433510147,98.89150390477516 81.76866202277597,94.4276748458069 81.80980714660836,92.37152432524454 81.97438764196704,90.56398996318603 81.87666797285783,89.33871512465703 81.88695425380138,87.33697039875915 82.44755656612688,85.16529912978149 84.51509903909755,82.11996351250855 85.02941308708978,80.60329985056524 84.8648325917311,80.47589821805741 84.89054829414818,80.37276334921262 85.15284845861606,79.81461838442192 86.3666296119045,77.96420638061318 87.06095357667073,76.5141683279071 87.01980845283833,76.39282451521649 86.34091390951653,75.94385010348196 86.1866196950723,75.72542880727633 86.45406300004106,75.05802508061242 87.26153605541913,73.54723611352165 87.23582035300205,73.41375077516932 85.85745870438404,72.35192415791607 86.06832746404689,72.19416532841933 85.82145672099432,72.42473577424607 85.86260184482671,72.35192415791607 85.77002531621838,72.35799179624155 85.73402333285776,72.43080340462984 85.89346068771556,72.46114154659881 85.64144680422032,72.1577593810398 85.96032151396503,72.08494741469985 85.9654646544368,72.0 86.05804118310334,72.04247372359532 85.99118035685387,72.07281207769483 85.986037216353,72.00606767678619 86.04775490213069,72.06674440820643 85.98089407588122,72.02427070318299 86.04261176165892,72.07281207769483 85.98089407588122,72.10921808075727 85.95003523302148,72.0 86.00146663782652,72.09708274905279 86.02203919971362,72.00606767678619 85.9448920925206,72.03033837732437 86.01689605924184,72.11528574561817 85.96032151396503,72.03640605078908 85.96032151396503,72.11528574561817 85.64144680422032,72.20630063889257 86.21233539746027,72.77058964821117 83.6047631741385,77.10268205923057 83.30131788580911,77.19368878066234 83.15216681189486,77.13908476569486 82.65328218534705,76.6840492203628 82.91558234981494,76.55663859972265 82.6429959043744,76.66584772102215 82.29840549224173,76.33215250947978 82.13382499685395,76.39889171213508 82.15954069927102,76.59910883907287 83.05444714275654,77.52131174333044 83.11616482853424,77.80039644678254 82.22640152549138,79.20793271506045 82.26754664935288,78.94705584035546" stroke="#4dd2ff" stroke-linecap="round" stroke-linejoin="round" stroke-width="0.5"><title>2025-05-11 17.9km</title><desc>1746934812000</desc></polyline><polyline fill="none" points="128.9093622493092,72.0 129.7379981254926,75.4984570471861 117.30845998472068,79.44435189737123 116.82508905697614,80.4613283604267 127.32114348688629,99.29523278455599 128.4950443112757,101.73584215348819 128.25335884757806,102.38666862991522 129.84157760988455,104.82725783393835 129.08199472352862,106.00687024238869 129.15104771323968,107.47121150718885 127.56282895081677,108.0" stroke="#4dd2ff" stroke-linecap="round" stroke-linejoin="round" stroke-width="0.5"><title>2025-05-09 1.4km</title><desc>1746749326000</desc></polyline><polyline fill="none" points="165.55168899998534,78.64893712931371 164.16614950820804,78.18933939746057 163.43691819673404,78.46509814742603 162.99937940970995,78.06677984645648 162.19722496718168,78.71021675711381 161.15199342078995,77.85230047404184 160.51999295072164,76.22837870105286 159.7421462185448,75.92197707379819 160.2039927158039,73.93035649381636 158.89137635508087,72.0 157.38429831143003,72.61281335007516 156.12029737164266,73.80779466108652 155.75568171578925,73.47074928223446 155.4396814808715,74.08355869246589 155.14798895618878,73.501389791767 154.90491185244173,74.206120377552 154.4187576448312,74.14483954329626 154.66183474869467,74.4206031683716 153.93260343722068,75.55429457947321 154.17568054085132,74.51252430294699 154.6861424590461,74.26740119545138 154.4187576448312,74.14483954329626 156.48491302726325,73.62395178877341 158.96429948625155,72.0 160.15537729510106,73.59331129571365 159.69353079772554,76.04453777395247 160.2039927158039,75.86069669912104 161.22491655184422,78.03613994838088 162.34307122940663,78.86341575480765 161.61383991804905,79.07789417932509 161.44368594535626,79.5681298229465 162.6833791747922,82.5401609235123 162.2215326775331,85.35895886988146 167.05876704363618,84.43978944250557 168.6387682185741,84.56234557952848 168.6387682185741,84.93001359670598 168.32276798353996,84.43978944250557 168.68738363939337,84.10275972726231 171.36123178130947,85.26704209328454 174.81292665575165,86.03301410288259 175.7852350709727,86.73770608686027 177.29231311473995,89.15815332638158 176.5144663825631,91.4560225810128 174.0350799234584,93.99897098740621 170.9966161258053,94.55045004512067 171.26400093978737,95.16320299456129 172.40646332781762,95.46957885399752 170.6563081801869,94.73427610225917 173.06277150812093,95.62276662982185 176.3200046994025,95.19384059899312 180.23354607098736,96.3580665262416 181.01139280328061,96.97081463482755 185.70278090704232,97.30782539500797 185.1193958580261,107.50982527241285 185.2166266994318,108.0 185.82431945914868,107.8468205104 186.06739656277932,106.37629219268274" stroke="#4dd2ff" stroke-linecap="round" stroke-linejoin="round" stroke-width="0.5"><title>2025-05-05 3.1km</title><desc>1746429236000</desc></polyline><polyline fill="none" points="29.06115314454655,112.04252576418003 28.90936353316647,112.0 28.639515335205942,112.20554087675555 27.936785653000697,112.33311757094634 27.335249044990633,113.01352140987001 26.739334274461726,113.26158313236738 26.761821624299046,113.8002274384744 26.952964097843505,114.21838173638025 26.739334274461726,115.08302929190177 27.099131871771533,115.21768624584365 27.22843413328519,115.5720450130757 27.40271109447349,115.6570907639798 27.678181129915174,116.03979495113526 28.16165915131569,116.14610117845587 28.892498020810308,116.88315181262078 28.50459123624023,117.66271342428081 28.52145674856729,117.93910069184858 28.639515335205942,118.05248992238921 28.543944098433712,118.24383369781208 28.763195759267546,118.20839971754685 28.78568310913397,118.31470158715456 28.487725723854965,118.22966010855453 28.560809610789875,118.39974292907937 29.994378162518842,118.69029981585118 30.36541943476186,118.67612634618854 30.72521703207167,118.888727992231 30.871384805970592,119.25723548820315 30.640889470203547,119.6753466541777 30.16303328628419,119.7462126260034 29.443438091664575,120.10762760585567 29.5896058655635,120.39817511320143 29.370354204729665,120.49738609174892 28.999312932486646,120.97926534125872 29.151102543866728,121.06430240028203 29.078018656902714,120.97926534125872 28.95433823284111,121.02178388786342 28.875632508425042,121.22020332020475 28.49334756130702,121.39736289886423 28.021113214839716,121.4469674746033 27.852458091103472,121.31941275733334 27.588231730595,121.31941275733334 27.481416818889556,121.63121263440553 27.548878868401516,121.73042130087924 27.408332931954646,121.72333497372892 27.23405597076635,121.97135585927026 27.189081271062605,122.37527309868892 27.352114557346795,122.77918725466952 27.621962755336426,123.10515081655103 28.33031427502283,123.39568186395627 28.993691095063696,123.51614548894577 29.567118515755283,124.11137349278215 29.595227703044657,124.38064110440246 29.465925441501895,124.74202442965179 28.988069257582538,125.30180941387516 28.487725723854965,125.50021279704015 28.144793638930423,125.50021279704015 28.133549964026315,125.59941420964242 27.987382190098288,125.57107096787877 27.99300402755034,125.67735804625408 28.172902826219797,125.59941420964242 28.959960070322268,125.71987281783004 29.229808268282795,125.57107096787877 30.33168840999133,125.89701733168476 30.477856183919357,126.04581826507638 31.495408763788873,126.09541848321533 31.568492650723783,126.18044732044291 31.394215689535486,128.73124891003317 31.534761625982355,130.07037052828673 33.305640425212914,136.77963907153753 34.14891604389413,139.07490636024522 30.404772296984447,140.83171038232467 30.24736084815231,140.9804693360311 27.093510034290375,146.10885577393128 26.67187222497887,147.34837740633884 26.699981412268244,147.93625466532467 26.42451137682656,147.95042030189143 26.60441017546691,147.67418970547806 26.407645864441292,148.0 26.655006712593604,147.97875156362716 26.7674434617511,147.20671925970237 26.643763037689496,147.1996363424114 26.683115899882978,146.8100744330477 26.688737737364136,147.34837740633884 26.90236756071681,146.1726033084742 29.055531307094498,142.77971119882204 29.04990946961334,142.4963700798835 28.808170458913082,142.29803039441322 28.30782692518551,142.2130274446281 28.21225568841328,141.99343585931638 28.077331589418463,142.0713555583534 28.09419710180373,142.17760950858792 28.17852466367185,142.1563587355995 28.20101201350917,142.0855227640459 28.066087914514355,142.09260636545878 28.0604660770623,142.14927514269584 27.644450105173746,142.56720550177852 26.868636535975384,142.7442936418811 26.67187222497887,141.88009791054355 26.919233073102077,141.58966830938152 26.81241816142574,141.58258464067694 26.683115899882978,141.03005556104472 26.446998726663878,141.06547426476027 25.986008055100683,140.59086166635825 25.85108395613497,140.75378885884493 25.991629892552737,140.25083808431737 26.255856253090315,139.78330209314663 27.149728408898227,139.62745584521326 27.200324945995817,139.3936856130822 27.363358232280007,139.26617414229622 27.065400847001,139.17408233348397 27.04853533464484,138.78446136977436 26.868636535975384,138.74195709116248 26.67187222497887,138.86946982461086 26.621275687852176,138.98989823529337 26.728090599528514,139.1103263720106 26.87425837345654,138.98989823529337 26.694359574787086,139.0961583701428 26.57630098820664,138.78446136977436 26.497595263790572,139.0040662655847 26.04222642967943,139.37243372261582 25.8848149808764,139.89664453075238 25.86232763103908,140.73253751434822" stroke="#4dd2ff" stroke-linecap="round" stroke-linejoin="round" stroke-width="0.5"><title>2025-05-04 11.1km</title><desc>1746326389000</desc></polyline><polyline fill="none" points="84.48566945727362,146.99565299538335 84.47669190082524,147.01697555090868 84.41833778389628,147.00575315987498 84.38871184760865,146.99901971820236 84.34382406535588,146.9619856944637 84.3375397758391,146.95076323143803 84.39679164841436,146.85088266325238 84.4614300548601,146.7352890921975 84.44078167502084,146.7891581347949 84.53145499517632,146.7712018248776 84.51619314920754,146.85537170253156 84.56646746533079,146.93280726004014 84.62841260484129,147.03942028890197 84.65803854112528,147.33680751965403 84.77654228627216,147.3693511563979 84.9408315693181,147.43107150745618 84.9381383023865,147.53880051010492 85.07100613785224,147.65774971134124 85.04407346849985,147.665604789182 85.07190389349489,147.65213893704822 85.1589861910652,147.60949693243037 85.21285152976634,147.65774971134124 85.15719067977625,147.59939747921544 85.65005852890681,147.40862779484723 86.12227799820903,147.36598457901619 86.42751491752642,147.62296285153843 86.93744012392199,147.6757041644023 87.58292643271488,147.63642874949528 88.04167956733727,147.98990100677202 88.15120575603578,148.0 88.78681675273765,147.86085726845067 88.80926064386222,147.54890003470337 88.8146471777327,147.12807642947064 88.83619331321097,146.66121860585827 88.7401334591923,146.2639205278374 88.53095639389721,145.9844540670647 88.51569454792843,145.62304215951463 88.43938531809908,145.31324839296485 88.18352495925865,144.9843608703286 88.09285163910681,144.55330827935813 88.50043270196329,144.39839345730434 88.57943519872788,144.34226420729647 88.03090649959631,142.91421239016836 87.82172943430123,142.2730833926389 87.71040773431014,142.2248002813676 88.07220325927119,141.1422888273337 87.5425274286863,139.88891995655104 87.33694138596911,139.43177649765767 86.92038276666426,138.6769309049905 87.2022780392108,135.92544926641312 86.9491109473056,135.8220688843394 85.09793880720099,135.79285246292238 85.068312870917,135.42651501503406 83.90392379928016,135.5546225326416 83.66781406462906,135.41078238056434 83.49993375900522,134.6690681930777 83.27010831387088,132.89656021389692 82.99449733083748,131.79712834989277 81.75739005195283,131.52955604662748 81.30133018426568,131.26309967058114 80.72317554885012,131.13380349809904 79.79220294492552,131.0123757458432 79.30023285143761,131.31931478748902 78.85674156277673,131.2035112428557 77.75788865323193,131.0697168438992 77.37993352666308,131.06634384878544 76.80536991382905,130.94041774497418 76.4669160356425,130.99438630243912 76.09434744294776,130.55925510173438 75.4973399389819,130.42095294698538 74.69295088101353,130.21967995738214 74.54212793264378,130.2983906296713 74.40387356330393,130.27477750413254 74.31679126573363,130.2983906296713 73.72157927306398,130.1027370479478 73.29514534165719,129.97454778875363 73.09584358845677,129.88796272695618 72.44048196756557,129.62595323272672 71.74023256442524,129.59896467375802 71.17374875240057,129.6945487696321 70.77963402422029,129.86097499582047 70.4726015936103,130.3096349522266 70.32806293475369,130.8088679579505 69.98063150011876,131.19226809668635 69.87379857835549,131.43961389510332 69.82172875094693,131.39464246431635 69.75978361143643,131.40588534420385 69.86661653319607,131.45535383996048 69.4913546735661,132.29964696552815 69.49674120743657,132.51098824995734 69.60267637354627,132.61890518807922 70.0318035718883,132.5053675387644 70.55429735731377,132.28615691886898 71.09025747740452,132.78190214672395 71.20068142174932,132.70546258076774 71.20965897820133,132.35135861379968 71.59569390557226,132.2142096437192 71.73035725233058,132.5031192532524 71.74921012087725,132.70209023122698 71.82911037328813,132.7830262528887 71.72048194023591,132.91566974222224 71.6378884208898,132.9763703135186 71.52477120961339,133.17083405597077 71.71689091765438,133.25738585964064 71.68367395878886,133.43048683792313 71.68098069184998,133.43273487951592 71.71778867329704,133.25626181586085 71.52297569832444,133.1876948656818 71.63339964266561,132.9763703135186 71.76447196684603,133.03145008849788 71.9781378103653,133.17645432957033 72.11818769099409,133.28211478543744 72.30851188774614,133.29447922150757 72.68736476996128,133.23040876808864 72.72147948446946,133.16408972277623 72.53654182159153,133.15060104042368 72.89833734654894,133.1101348656439 72.89384856832112,133.06742036221385 72.64337474335116,133.05617966793943 72.62362411916183,133.02358157094568 72.91629245944932,133.00559636076832 72.9863173997619,132.9954796634156 73.0518535618503,133.00559636076832 73.08955929894728,133.10563861217724 73.14342463764842,133.05168338608928 73.22063162312043,133.04943524427836 73.1524021940968,133.15734538426113 73.12726503603699,133.3192080399931 73.38312539487742,133.7631905634389 73.27719022876045,133.97337171624895 73.07968398684898,133.81826526886744 72.9252700158977,133.68226382194734 72.64876127722164,133.80028173059418 72.6200330965803,133.92391779222817 72.67479619093137,134.14870605088254 72.56796326917174,134.16668885625404 72.5553946901382,134.11386425783985 72.54821264497514,134.15207782976904 72.48626750546828,134.11274032666734 72.39110540709225,134.11049246388302 72.02482110391065,134.40608134944614 72.01315028051977,134.37910788246973 72.01943457004018,134.333028012863 72.02930988213484,134.1408385616396 72.03200314907008,134.14308641644766 72.07419766439125,134.01832958074556 72.04636723939257,133.9565124561077 72.08586848777122,133.92166987979635 72.03559417164797,133.9722477666055 72.07689093132285,134.01270986061263 72.04457172809998,134.19478691392032 72.01225252488075,134.3026825972538 72.02482110391065,134.40720524205426 72.331853534517,134.15882138355755 72.4799832159515,134.1082446005048 72.503324862726,134.1812998577634 72.5293597764321,134.18916730977435 72.53384855465629,134.1768041676496 72.5293597764321,134.18242377992465 72.63798820948432,134.1678127803334 72.66940965705726,134.0363126603488 72.6559433223847,133.7912899472758 72.96566901992992,133.6721479253938 73.07519520862479,133.81489335832157 73.34362414649513,133.9992225172191 73.55010794485861,133.94302502405935 73.62641717468796,133.79241392070617 73.87958426659316,133.8699677306704 74.13275135849835,134.0385605426436 74.26113041574354,133.8699677306704 74.51968404151921,133.8497363698134 74.88417283340459,133.8193892387526 75.1660681059584,134.04080842433996 75.46502073575903,134.11498818886594 75.41115539705788,134.08688986893503 75.42641724302302,133.9722477666055 75.49015789382247,133.86659584051995 75.52517036398058,133.77443032805513 75.8375893284574,133.46533141622513 76.19938485341481,133.38664990863435 76.53783873159773,133.1281198558645 77.80995848064413,132.8988083959166 78.60806324909572,132.64138771201124 79.31908571998429,132.28166023191807 79.48965929254337,131.71505874431386 80.35599349001859,131.53180458828228 80.3497092005091,130.03864265880566 80.34881144485917,129.6495681518718 80.36138002388907,129.31333053085473 79.9241730247486,128.99394876013866 79.4178388409382,128.67343039845673 79.34422287804773,128.43837595421428 79.25175404660331,128.08072089508096 78.93215303696707,127.71405267314276 78.90522036761104,127.50709187809571 78.95369917244534,126.71744536646474 78.9411305934118,126.40809099461876 78.53085626362008,125.77697330878618 78.27589366042594,125.4608344295566 78.02541983545962,125.29432241112227 77.94821284998034,125.01754524613898 77.88088117660664,123.78656568927272 77.59539488147493,123.55700323522615 76.97953450896966,123.52324352979394 75.56467161236287,123.31730643348601 74.75220275358515,123.13499731436605 74.56187855684038,122.77149281154016 74.3975892737908,122.49801017215123 73.96846207545605,122.49238286527907 73.63449697549368,122.73885542647895 73.23230244650767,123.16088094514089 72.84626751913675,122.921173012297 72.61913534093401,122.5914229239279 71.96377372004645,121.84296671349603 71.73035725233058,121.73041122577797 70.99240211209326,120.43704205363247 70.77963402422029,119.41594102680574 70.58212778230518,119.1930162671897 70.38103051781582,118.86649978208789 69.40965890986627,116.25954882845599 69.4294095340556,116.11313051615161 69.85135468723092,116.09173070585894 70.0353945944662,115.51842103699073 70.17903549767288,115.33369221600242 68.92038208330996,115.31003762636738 68.63579354382455,115.24808481833679 68.39968380917708,114.89776136977343 68.16626734146485,114.84932323158682 67.7784369027977,114.08666785154219 67.2361924931829,113.55490905878742 66.1373395836381,113.10311330963759 65.50711512081034,113.1594482526707 64.52586820076613,112.0169027124748 64.52227717818096,112.07211800596178 64.51150411044364,112.0664838087514 64.5124018660863,112.06197644829808 64.51689064431412,112.07775219944415 64.48636695238383,112.08113271373713" stroke="red" stroke-linecap="round" stroke-linejoin="round" stroke-width="0.5"><title>2025-05-03 98.8km</title><desc>1746244765000</desc></polyline><polyline fill="none" points="123.21986026567902,112.17738403839166 122.93736787346643,112.27504312651308 122.88023458066164,112.28301524095514 122.54933759315827,112.13851935442335 122.33429422717381,112.0 122.17876470786723,112.01395170527348 122.10734809186033,112.12257481055212 121.94308987504701,112.20329371605567 121.8439001305851,112.29497339675436 121.73122058088484,112.43448380869995 121.48205594281171,113.01741001590563 121.41936802431519,113.12601862105384 121.3646152853762,113.15591062233807 121.30906902848437,113.22167260677952 120.86469897331699,113.25754253764217 120.65203616120561,113.28942677695477 120.13466245412565,113.30736160214201 119.93548944725626,113.12502221896602 118.55159413261208,112.892856931614 118.02945931779323,113.78859676827369 117.69538825846757,114.21201838633988 117.54461984689624,114.4560976616649 117.48589951817848,114.56767412034696 117.2668885624189,115.10162425526141 117.05422575030752,115.32575247473551 116.91297955419941,115.66043818253138 116.6749241675061,116.09371452501819 116.57335386918567,116.2421183849915 116.67413064955326,116.40745078143345 116.55907054598356,116.61460913763722 116.46781598108282,116.81877405186242 116.5082853968197,117.08965748392939 116.48447985815437,117.695126366958 116.47257708881807,117.73794551257697 116.06867644939484,118.32942227229523 115.92663673533389,118.60025133409408 115.82268588314037,118.65800038824136 115.51638795226609,118.91189183598453 115.29658347855002,119.18170434170588 115.03075496340534,119.40371992590417 115.12042249239312,119.64962192205076 115.10851972306045,119.70039420833973 114.82126622311625,119.7352377361085 114.74270794551194,119.7193092862799 114.7252505504839,119.83877183861296 114.97362167060419,120.42212007633725 115.57748883484601,122.1370614618445 115.73619242598215,122.42666189375404 115.91870155577635,122.61076634575011 116.06867644939484,122.8685050207273 116.22182541483198,123.08344636249194 116.2845133333285,123.24265821818699 116.38211604187381,123.34116886920265 116.14009306540174,123.62276292083197 116.30514480017519,123.89340170402693 116.37814845209505,124.0446367909326 116.62731309016817,124.4724564566227 116.80823518405668,124.7062546168454 116.86536847686148,124.74306473023762 116.97804802656174,124.78285924520469 117.21610341325504,124.98282350273485 117.39781902510003,125.11414042809247 117.7382382280739,125.32105942594126 117.75728265900761,125.72692250334921 117.82711223910519,125.82042707643905 117.97311954294491,125.89801509717381 118.1802277293682,125.9159199116475 118.3127452279623,125.97062880354952 118.40082572103347,125.69011719375249 118.41987015197446,125.66922761377873 118.49446083980365,125.6761908135336 118.52778859394311,125.65132221345038 118.56825800968363,125.60655852658601 118.64126166159622,125.47425540954282 118.72458104694306,125.38074654296724 118.96263643363636,125.24545506597451 119.10705670155949,125.20168377417076 119.21418162557529,125.19273052408016 119.24195475402303,125.22456425386235 119.50222864347597,125.40163692228361 119.79662380502123,125.717969877011 120.15608743892881,126.00444864726751 120.69488613081194,126.23521529664094 121.09402566250355,126.47492662203467 121.6320308364302,126.26903395363252 121.69709930879253,126.27997525135879 121.88436954632198,126.26903395363252 122.04942128109906,126.29887381913295 122.15099157942313,126.37844621650584 122.23907207250159,126.540572377829 122.31763035010954,126.74347382830774 122.34540347855364,126.8747600931456 122.51124873128356,127.29247391334184 122.49061726443688,127.49237162815143 122.49458485421565,127.65646280774581 122.46681172576791,127.80265012460268 122.4818885669265,127.90507900553484 122.54775055724531,127.99656770378624 122.6025032961843,128.22429018883258 122.59298108071744,128.65585018897946 123.03655761792106,128.92531407520892 123.06591778228176,129.7028275064199 123.14606309580631,130.0000908837651 123.16669456264935,130.152197715488 123.16034641900478,130.24763573099972 123.20954453225204,130.37488454108188 123.20081583474166,130.4096787640765 123.1674880806022,130.42956110520117 123.16113993696126,130.48920781432753 123.17780381402918,130.54587175140614 123.24445932230083,130.63534025965055 123.27778707644029,130.75462995435964 123.84039130699603,130.95045978213102 123.9006986716231,131.01308449250155 123.98877916469792,131.1870392954056 123.9919532365202,131.32918224407422 124.08479483733026,131.4275873330489 124.13002536080603,131.52300922467612 124.14906979173611,131.57867143782414 124.14589571991746,131.61047823251556 124.13002536080603,131.62538762139957 124.14589571991746,131.71484333639592 124.39823442981287,132.058740993416 124.40378905549733,132.23366558353882 124.47441215355138,132.66201493990775 124.443464953285,132.79816730287484 124.5886787391646,132.8587890980425 124.72357679162451,132.88264016274888 124.99734048632308,132.88363395547503 125.54169380389794,132.93133585262785 125.85275284251111,132.93630478292016 125.860688022065,132.9204041944763 125.89322225824799,132.9204041944763 126.71451334234371,133.58124418477655 126.74546054261373,133.58820008768498 126.87083637960677,134.1774411796082 127.2255389057791,135.5067910533544 127.26442128560666,135.86243693883353 127.41042858944638,136.34124099808196 127.44454986153505,136.5885781011607 127.49771556456471,136.67002870894385 127.59690530902299,136.76836424886187 127.64054879658215,136.79021641733334 127.76275056175291,136.81504835028318 127.84686346504895,136.81504835028318 127.89844213216566,136.8388869291657 128.54515926601744,136.7614112729152 128.56341017899467,136.80610886381646 128.56499721491127,137.06832940693585 128.58959627153672,137.11401841952738 128.64831660025084,137.13288988761997 130.21710159856593,137.12891695088274 130.34961909716003,137.14480868530063 130.49721343690908,137.1825514206489 130.5599013554056,137.17361236878196 130.67892904875043,137.21830752242386 130.7614549161408,137.2322126274389 130.95189922549253,137.21532785373347 130.78287990094032,138.1488999163994 130.82493635259016,138.17472048414902 130.93364831251165,138.1816721604023 130.8352520860135,138.47760902224854 130.84239374761455,138.51037984165123 131.15027871440543,138.5828723618297 131.26851288979742,138.6424547348115 131.35341931104995,138.6583432883158 131.41293315772418,138.68614817663365 130.9677695846076,139.57882937011846 130.97808531803094,139.5917372241679 131.1471046425795,139.60166632767687 131.16694259147334,139.69599216096367 131.20106386356565,139.71088560606222 131.25819715637044,139.77641641611444 131.26454530001502,139.80818872572672 131.3121563773566,139.82506771092494 131.3288202544245,139.86378994641836 131.52640622538092,139.79329547221278 131.30184064393325,142.2016500127247 131.19868330969985,142.9817686970846 131.18916109422935,143.1355994053124 131.2256629201911,143.36485098274215 131.49387198920158,144.272857212075 131.54545065631464,144.41971574898525 131.65892372397502,144.65785867378509 131.63670522121902,144.69159498251656 131.23677217157092,144.84539095628043 131.34231005967013,145.31767390850337 131.48117570191243,145.70063804113806 131.49228495329226,146.02207485380677 131.6938385140238,146.45460410110672 131.7541458786509,146.5488445826486 131.8660319103983,146.65300375104562 131.9033272543129,146.74327387202948 131.886663377245,147.32058042119843 131.94141611618397,147.90081845703253 131.51132938422234,147.9781801719114 131.1471046425795,147.9563602810058 130.94951867162308,148.0 130.73130123382361,147.6082253424629 130.5543467297175,147.60921720261376 130.30994319937236,147.57846947762573 130.21234049082705,147.60624162177828 130.11315074637605,147.5586321694891 129.83303890802927,147.55069723169618 129.6203760959179,147.50110368222977 129.3870818169562,147.4852336778531 129.05856538332228,147.42076144329303 128.73004894968471,147.4574610902191 128.62768513340416,147.55466470163037 128.65942585163066,147.577477613454 128.6721221389198,147.56160776901925 128.6848184262126,147.56458336738388 128.67291565687628,147.56061590264062 128.68878601599135,147.56656709897652 128.69196008781364,147.5923555624231" stroke="red" stroke-linecap="round" stroke-linejoin="round" stroke-width="0.5"><title>2025-05-03 66.9km</title><desc>1746236322000</desc></polyline><polyline fill="none" points="185.7711531779496,112.43272129099932 185.10994023410603,112.0 184.3752591854427,112.72120175982127 183.9099611879792,112.2019366902532 178.81617258384358,114.76940407414804 179.01208753034007,115.86561853918829 178.37536395480856,118.0291864372848 178.54678953276016,118.63498228919343 177.51823606470134,120.59659746749094 175.43663976003882,121.80817607257632 174.16319260909222,123.13513677229639 174.04074576776475,123.79861463516136 173.5999371384969,123.74092097385437 172.35097935574595,125.09671870211605 170.90610662684776,125.15441206886317 170.36734052444808,126.01981106615858 169.55919137084857,126.27943021530518 165.44497749838047,130.69291691150283 163.68174298165832,130.86599332632613 162.94706193299498,130.5198403839604 161.6001466771122,127.46213646017713 160.71852941880934,127.80829338895273 159.4695716360584,125.789038276067 157.9022520655999,124.89479181967909 153.24927209084854,130.57753257238073 153.0778465126641,132.3371382970945 153.29825082735624,133.05828481548815 154.27782555890735,133.51981755939778 154.32680429541506,136.40437903389102 155.62474081479013,138.94276721109054 155.50229397322983,139.46197998535354 155.4043365002144,139.1446834105882 156.72676238778513,138.16394614623277 158.1961244851118,135.71208713788656 160.22874205303378,135.42363164844573 161.52667857229244,136.98128756857477 162.57972140866332,140.06772693881067 163.36338119395077,140.99076725851046 165.81231802282855,141.50997602843563 168.0898292735219,142.6926144368481 170.68570231215563,142.23109763581306 171.5673195704585,142.98106203012867 171.73874514864292,144.42329529707786 170.80814915371593,148.0 172.5468943020096,146.1251204777509 173.69789461174514,145.9808984278061 174.99583113088738,146.55778615770396 179.40391742286738,143.6444903058582 181.9997904615011,141.10614707288914 183.12630140280817,140.7600074794027 183.4446631903993,137.61588550900342 185.96706812421326,137.8754933203163 186.9221534874523,136.7793697239831 185.69768507301342,128.87560774481972 184.3752591854427,125.55826528530451 185.50177012674976,124.00054235130665 185.57523823168594,123.19283056532731 183.83649308315944,120.22158392160782 184.69362097315025,116.41372407434392 185.59972759976517,114.22129514417611 186.1629830704769,113.81742468220182" stroke="#4dd2ff" stroke-linecap="round" stroke-linejoin="round" stroke-width="0.5"><title>2025-04-28 5.2km</title><desc>1745795058000</desc></polyline><polyline fill="none" points="24.357042821473442,186.39298789022723 24.473995301872492,188.0 24.396026981645264,187.26536740845768 23.889232899993658,187.12762351337005 24.45450322178658,187.19649547207518 24.181614100933075,185.01553921560117 25.526567625347525,184.0972351127566 24.610439862241037,183.36258895817446 24.123137860675342,182.37540416752745 23.98669330019038,180.95201333015575 24.629931942326948,180.40102075542381 25.39012306474615,178.83986732714402 26.852029069676064,177.1868687767128 30.43857180129271,174.75326405219676 32.1148906868184,173.1231923878222 33.40136797109153,172.45738485248876 33.45984421123285,170.11556237650802 35.116671016672626,170.57474529923638 36.11076709988993,169.77117452984385 35.07768685661722,163.13585911897826 34.14206701354124,160.58729159721406 35.01921061635949,159.46223849819216 35.058194776414894,158.63566505772178 34.96073437621817,158.06165382187464 33.75222541228868,156.70698112333775 34.083590773283504,154.06649242872663 35.01921061635949,152.0" stroke="#4dd2ff" stroke-linecap="round" stroke-linejoin="round" stroke-width="0.5"><title>2025-04-27 2.3km</title><desc>1745711220000</desc></polyline><polyline fill="none" points="62.61140041479666,152.06161120012075 63.35007848337409,152.0 63.81807099038997,152.12322218421286 64.61382131592836,152.15595293164552 64.82091207687336,152.2522194825051 65.5889415918864,152.76819920631715 65.72428437265626,152.98190278944458 66.13683525865054,153.89637075253268 66.14988034595444,154.05615711332757 66.24282659298478,154.1581886078875 66.51840406228439,154.6529367014773 66.74995436191966,154.91089321946674 67.71366018648405,155.7444134047546 68.13273361611937,156.1698207156296 68.22241859133646,156.32766153416196 68.05935500004125,156.4585528455318 67.87835441370407,156.50282468620935 67.28643357729015,156.81849892771788 66.41078209202533,157.14956582420382 65.83516761473584,157.44020662448747 64.90081323661434,158.11578356745667 64.45728026828147,158.53920887701315 64.21105424542475,158.8336759234644 63.97298140212661,159.1781768640176 63.52781779789075,159.90757279081663 63.456069817715615,160.0807758232604 63.45443918181263,160.20394138662232 63.16255535338132,160.96985788006896 63.04025765990809,161.14497480709724 62.88534724817873,161.54715983264396 62.67010330766061,161.95318419381329 61.83358708430751,163.12694600967734 61.51072117354488,163.52138937357086 61.24981942746672,163.89081123936194 61.26123387886037,163.92159604486187 61.33950440267654,163.8677225999054 61.8238032688314,163.21160776943907 61.89718188491679,163.18659411007866 61.96240732143633,163.21353189560614 62.65216631261865,163.66377163597826 62.88534724817873,163.77344367445403 64.2697571382887,164.62193582524924 69.00023192182562,168.11167536802532 69.57095449136978,168.58487235718167 71.46901469407021,169.804353969148 72.1228996951686,170.089015756952 72.85831649191823,170.28327555276337 73.28228182928433,170.32558928359867 74.34382580863894,170.63139913514715 74.56233102097758,170.66986540731887 74.58352928784007,170.64101571106403 75.19501775521348,170.84873246972893 75.65974899040157,171.08337252940328 76.03153397856659,171.33531862284508 76.06251606090518,171.2910840732693 76.08697559960274,171.30070028914997 76.35113861750142,171.50263961029486 76.41310278219316,171.47956094786787 76.4179946899385,171.45455902946378 76.67237389236107,171.5584129197141 76.80445540131768,171.7026534185552 76.97730280808901,171.73342457217404 77.08492477834079,171.79304352938925 77.12732131208031,171.844969553591 77.10612304521783,171.81996815363527 77.1142762247764,171.9180503654825 77.18276293311646,171.88150999742356 77.23494328233937,171.89689542478663 77.89861209891387,172.2622953769078 77.96057626360562,172.32191254492682 77.96220689951588,172.2969118216006 78.12363985490083,172.3526826172456 78.28344217437552,172.36999075932 78.49542484305857,172.43922315763302 78.47911848393414,172.45268498127552 78.7400202300123,172.50845528396349 78.81176821018744,172.5642254101749 78.860687287568,172.74115015978896 78.9079757290383,172.78730415020073 79.10528267450718,172.7776887455002 79.46239193945803,173.00268784068976 80.64460297636106,173.37383391746698 80.86147755278216,173.4795995032655 80.78320702896599,173.48536851696372 80.64623361227859,173.4488313983038 80.65438679183717,173.42960130543725 80.53861164201953,173.50267554673337 80.31521452194283,173.96803597571852 80.17008792568959,174.18340523878032 79.79830293753184,174.59106128281383 79.646653797623,174.90641137846978 79.54229309918446,175.01985911857628 79.49174338589364,175.12561482900855 79.30911216363893,175.30443667798863 79.04657978165051,175.65053833020647 78.59978554149711,176.06585134528177 78.39921732419316,176.3600254792218 78.3975866882829,176.4138607371915 78.42367686289072,176.41001536706972 91.98404511516856,187.9404357854928 92.00361274612806,187.93275006576187 91.98567575108609,187.95772864265564 92.01991910525976,187.96925720469335 92.01339656160417,187.9404357854928 92.08351390586904,188.0" stroke="#ffc800" stroke-linecap="round" stroke-linejoin="round" stroke-width="0.5"><title>2025-04-20 36.9km</title><desc>1745145130000</desc></polyline><polyline fill="none" points="115.28442296892172,153.32269179082505 115.01145003145211,153.27800660520734 114.86738098115893,153.42099911352852 114.54891255413531,153.42099911352852 114.74605967561365,153.31375475566165 114.7763900019927,153.13501384784468 114.5034170645522,152.78646795808163 114.54891255413531,152.63453723524435 114.43517383016297,152.8043421422626 114.65506869647652,153.07245443813736 115.0721106842102,153.04564324796956 114.95837196032517,153.51036930467671 114.45033899333794,153.58186538759765 113.82098472086363,153.29588068237354 113.98780151602114,152.49154335686762 114.27593961666571,152.0 115.16310166337644,152.16980621971743 115.64838688555756,152.93839839966677 114.74605967561365,153.93040789989027 114.29110477984068,154.06446231823793 114.3366002694238,154.2163903943656 114.1697834742954,154.0376514520758 113.6238375993562,153.9572188010643 113.66175050736638,154.28788586229348 114.12428798474139,155.02071081836766 114.78397258359473,157.2370196536067 115.07969326584134,157.7017219822883 124.14846085492172,160.59711569985666 124.9597970857285,160.71328677386919 125.59673393980484,160.64179690159654 125.76355073493323,160.86520254567586 126.97676379032782,163.64431794161646 128.84966144457576,170.30130189255578 132.07225862299674,178.65527665150876 133.04282906730077,182.0055625965033 132.9442555065907,182.264645684867 130.26760420305072,183.13122800934798 130.39650809022714,183.72978984480142 132.7546909666562,187.803468002734 132.694030313869,188.0 132.49688319236157,187.67840194155724" stroke="#4dd2ff" stroke-linecap="round" stroke-linejoin="round" stroke-width="0.5"><title>2025-04-16 7.1km</title><desc>1744770713000</desc></polyline><polyline fill="none" points="158.10752688185312,157.9896598541236 157.84946236549877,158.96570975740906 158.6666666669771,160.32133071753196 157.72043010778725,161.35159960997407 158.5376344085671,161.40582421576255 179.82795698940754,181.35998589202063 180.6021505377721,180.65510020541842 180.00000000023283,179.84176904158085 180.73118279594928,177.88976757909404 182.23655913979746,176.91376331742504 181.03225806471892,181.7937610890367 183.44086021534167,182.55286656488897 185.1612903228961,178.97421399847372 185.50537634431385,179.3537695586565 185.4623655914329,177.3475432798732 187.1397849463392,177.3475432798732 186.9247311828658,175.99197935321718 188.0,176.10042463443824 186.9677419355139,185.10128167746007 187.4838709679898,185.31816732892185 186.7096774193924,186.40259384352248 187.22580645186827,185.10128167746007 186.49462365591899,183.69152210906032 185.59139784961008,185.04706024640473 184.04301075288095,184.3421809815045 180.64516129042022,184.61328853637679 172.73118279571645,176.69687316173804 171.69892473123036,177.022208351671 172.47311827959493,176.37153771030717 164.25806451612152,168.67185568722198 160.8172043012455,169.6478798262251 159.31182795693167,168.23806642534328 159.39784946246073,167.3704865067266 158.9677419355139,168.7803029298957 157.37634408613667,169.4309857765038 156.21505376370624,169.26831516300444 156.00000000023283,168.50918476859806 155.26881720428355,170.51545486255782 154.96774193574674,169.8647737595311 153.41935483901761,170.46123147729668 154.36559139797464,168.12961903732503 153.07526881736703,165.85221717352397 152.0,160.21288120769896 152.68817204306833,159.72485805448378 154.2795698926784,160.32133071753196 158.23655913979746,158.85725988441845 157.5913978498429,156.41713005842757 156.51612903247587,155.87487698771292 157.54838709696196,155.7664262864855 156.64516129042022,153.59740615644841 157.50537634408101,154.3023389739392 157.6344086022582,156.0375529853045 156.9462365594227,156.57980583785684 157.16129032266326,154.13966227893252" stroke="#4dd2ff" stroke-linecap="round" stroke-linejoin="round" stroke-width="0.5"><title>2025-04-07 2.7km</title><desc>1743986187000</desc></polyline><polyline fill="none" points="31.32137031003367,210.31479699825286 28.64926590549294,210.092678004381 30.14681892329827,209.05612033832585 31.87928221852053,209.01910034980392 33.14192495914176,207.68637745740125 32.76019575865939,207.16809459630167 31.644371941220015,207.35319572972367 27.327895595459267,202.5405259533436 23.27569331158884,202.8737134852563 21.660685154958628,203.61412878418923 20.750407830346376,204.76176857584505 19.487765089725144,203.3549836552993 18.75367047311738,203.13285906560486 17.69657422520686,203.6511494969891 15.112561174784787,201.6520239036763 12.0,203.3179629028309 13.64437194133643,201.98521250707563 15.435562805854715,201.5779819371819 17.432300163200125,203.46604588313494 18.988580750417896,203.09583828336326 20.750407830346376,204.72474801185308 21.807504078373313,203.57710806638352 23.657422512420453,202.83669266826473 27.621533442055807,202.61456766183255 32.34910277335439,208.4267798580113 31.644371941220015,209.05612033832585 29.177814029389992,209.09314032195834 27.269168026046827,210.24075735348742 32.43719412735663,210.35181681319955 37.194127243128605,209.2042002431408 38.36867862974759,212.38789899626863 39.30831973894965,212.79511363228085 43.68352365412284,212.64703565227683 47.97063621529378,216.53405632500653 48.0,216.94126484979643 46.179445350542665,217.71866127621615 43.8009787928313,218.01481172046624 43.62479608482681,218.4220180628181 43.977161500719376,217.97779293224448" stroke="#4dd2ff" stroke-linecap="round" stroke-linejoin="round" stroke-width="0.5"><title>2025-04-04 2.7km</title><desc>1743741381000</desc></polyline><polyline fill="none" points="91.63964248087723,208.66781531918969 89.90232009626925,209.79870886838762 89.3079729648307,209.63715296293958 88.71362583315931,210.5526350345026 87.02202245884109,211.0373006446316 86.70198938797694,210.7141903431475 87.47921256010886,209.39481890741445 87.15917948912829,209.0178543501097 84.0045677908929,209.6102269685216 82.90731154812966,209.47559695223754 81.67289827484637,208.58703701102058 80.87281559768599,206.8099075720238 81.0099726280896,206.35216004677932 82.49584045691881,205.73285322572337 82.29010491142981,203.33639051210776 81.26142718375195,202.20546747568005 79.59268331434578,201.9361993255443 78.92975766770542,202.9324900201027 78.33541053615045,202.58244239454507 76.11803854524624,205.5443682338955 74.17498061526567,207.24072800010617 73.53491447353736,207.4292117018922 72.0033276345348,207.0253178797575 71.34040198777802,205.32895663917589 70.97464990685694,208.72166750996257 71.59185654344037,210.41800553018402 71.15752594731748,210.06796847666556 71.18038545246236,209.4486709402554 71.75187307887245,209.42174492524646 72.91770783683751,210.33722779249365 73.14630288758781,211.09115232058684 74.88362527207937,212.32973763835616 74.12926160520874,212.81439977366244 74.2892781405244,213.24520976482017 71.24896396754775,214.07990199222695 70.76891436125152,212.92210234161757 69.30590603756718,211.25270727819589 69.2144680172205,204.95198589786014 67.68288117821794,205.1943242973357 66.31131087464746,204.06340973898477 65.53408770263195,204.2788224336109 67.33998860232532,201.74771144622355 68.89443494647276,202.5555156336195 70.01455069438089,204.4403818317951 71.56899703841191,203.17483039427316 73.46633595845196,202.95941674000642 75.11222032271326,201.209173858515 75.77514596947003,201.10146620053274 76.02660052501597,201.82849198345502 75.61512943403795,200.5898541859642 76.04946003004443,200.10516814526636 75.24937735300045,200.2128762361972 75.13507982774172,200.69756206628517 74.76932774682064,200.26673026416393 75.7980054744985,199.70126238727244 74.4264351708116,200.34751128411153 74.51787319115829,200.80526989979262 74.88362527207937,200.5898541859642 75.50083190877922,200.912977686472 73.60349298873916,202.8786365713895 71.52327802823856,203.22868377859413 70.17456722981296,204.4403818317951 68.78013742121402,202.50166210305179 67.13425305683631,201.77463829495537 65.4197901772568,204.49423494112852 63.08812066121027,206.9983916015044 63.065261156181805,209.31404083620873 63.97964135860093,209.74485691160953 63.97964135860093,210.68726446577057 62.470914024626836,210.63341270197998 61.44223629683256,208.10236660962983 61.693690852611326,209.0178543501097 61.46509580197744,209.98719062490272 61.145062731113285,210.3641537079675 60.39069906412624,210.0948944214324 59.88778995280154,211.97970328462543 60.52785609441344,215.5608006393595 61.510814812150784,216.61088704627764 62.128021448734216,218.253320967342 61.96800491318572,219.76111957611283 61.03076520585455,220.48809062830696 60.779310650075786,219.68034488313424 60.98504619568121,219.3841707837273 61.556533822091296,219.73419468135398 60.98504619568121,220.78426340864098 61.922285903128795,222.0766495821008 62.470914024626836,225.3614341133507 66.33417037967592,227.649987773475 69.580220098258,228.0 70.81463337142486,227.89230398290965 74.10640210006386,225.84607076935936 78.7926006373018,226.92303772401647 79.88985688018147,226.49225150363054 82.99874956835993,222.5612926599715 82.54155946709216,221.72662899216812 80.80423708248418,221.43045733762847 80.41562549653463,220.97273681199295 80.0041544054402,218.8725965058693 82.0843693659408,217.49941822366964 82.81587352789938,215.964680553152 83.77597274037544,215.2915469980362 83.45593966951128,213.97219992727332 82.06150986091234,213.05673048582685 82.61013798241038,210.04104252895922 83.2273446188774,209.39481890741445 84.98752650851384,209.23326273872226 87.61636959039606,208.15621892317722 88.55360929784365,208.45240643904253 89.12509692425374,209.50252296129474 89.78802257112693,209.69100494305894 92.21113010740373,207.9946619472612 93.4455433805706,207.67154767927423 93.21694833005313,205.43666245989152 92.05111357197165,202.20546747568005 93.07979129964951,201.10146620053274 93.21694833005313,200.07824111523223 91.50248545059003,197.65479642967694 91.89109703653958,195.23132804548368 93.26266734011006,192.0" stroke="#4dd2ff" stroke-linecap="round" stroke-linejoin="round" stroke-width="0.5"><title>2025-04-01 8.4km</title><desc>1743465137000</desc></polyline><polyline fill="none" points="116.52959701791406,204.27769491256913 115.77362631633878,204.00023560452973 117.11111294222064,203.79214104096172 118.09969001356512,204.90197789506055 118.91381230810657,202.47420715889893 118.21599319879897,201.29500075039687 114.31983650522307,200.39325313828886 112.86604669410735,196.43942097836407 110.07477025687695,197.41054001892917 109.14434477780014,195.3295687569771 116.12253587087616,192.0 115.25026198429987,192.97112609469332 117.40187090449035,194.28908046905417 114.43613968999125,195.53766620205715 117.86708364402875,194.21971452009166 128.27621869090945,211.28350069769658 131.70716264494695,209.82685462210793 132.57943653152324,210.3817678221385 134.20768111967482,213.22569006483536 133.27725564083084,212.04650439933175 131.99792060721666,213.8499639077345 133.97507475013845,212.323960054724 134.49843908194453,212.8788709876826 132.40498175402172,213.01759864203632 136.53374481759965,218.35858939832542 132.11422379198484,220.16203028248856 132.63758812402375,222.93654432945186 134.26583271240816,222.7978189261048 134.03322634263895,223.49144562747097 127.81100595137104,223.63017087313347 127.86915754410438,222.6590934912674 128.6832798377145,223.63017087313347 128.10176391340792,222.4510052803089 130.36967601883225,225.01742159953574 135.0218034137506,225.15614649903728 134.14952952740714,225.15614649903728 135.25440978375264,223.2833576995763 135.13810659875162,219.95394122129073 136.41744163259864,220.57820819230983 137.52232188894413,221.82674022187712 137.23156392667443,223.00590701925103 134.84734863671474,222.31227976683294 130.77673716587014,225.08678405330284 132.98649767879397,225.2255089370883 136.47559322509915,228.0" stroke="#4dd2ff" stroke-linecap="round" stroke-linejoin="round" stroke-width="0.5"><title>2025-03-30 2.1km</title><desc>1743318651000</desc></polyline><polyline fill="none" points="180.4117829676252,192.9935402594856 180.2647930905223,192.0 177.27599892113358,193.11042722285492 177.47198542393744,194.39618206844898 174.43419462861493,195.03905828751158 174.5321878802497,196.85079604166094 172.86630260548554,197.72744105401216 172.86630260548554,198.5456417190726 172.37633634824306,198.07809864101 172.2783430966083,199.1300699696876 171.7883768393658,196.5001376188593 172.22934647090733,197.02612516348017 171.39640383352526,197.55211217078613 164.97784586297348,198.37031311448663 165.6148019975517,198.48719885747414 165.56580537185073,200.591137694777 163.89992009708658,199.88982570404187 160.2251731674187,200.591137694777 160.12717991601676,202.28597106295638 162.18503819638863,202.05220127484063 163.50794709147885,208.5977152340347 163.26296396250837,207.19511210295605 164.1449032255914,206.43536714534275 160.37216304452159,207.77953053853707 159.63721365854144,209.0652487622574 159.58821703260764,207.66264690441312 162.8709909566678,206.43536714534275 164.24289647699334,207.66264690441312 163.50794709147885,208.42239005159354 164.487879605731,222.97417710028822 164.68386610853486,225.01957605860662 165.85978512605652,225.8961731256568 163.21396733704023,226.24681153491838 163.21396733704023,228.0 162.38102469942532,227.298725330038" stroke="#4dd2ff" stroke-linecap="round" stroke-linejoin="round" stroke-width="0.5"><title>2025-03-30 1.4km</title><desc>1743309591000</desc></polyline><polyline fill="none" points="35.73701102065388,237.03417586442083 35.4521030242322,239.01731127264793 36.90254373359494,240.57330001794617 37.26515391096473,241.85469603992533 37.10974954941776,242.7699753328634 36.099621198140085,243.9598339535878 37.653664815356024,249.87854294732097 36.77304009895306,250.5497288753977 35.918316109338775,250.33616989041911 35.348500116262585,251.28192987659713 34.00166231463663,252.1361619652016 32.86203032860067,252.25819490858703 32.188611427671276,253.44801332760835 34.88228703115601,256.25474449872854 35.11539357365109,259.7936264294549 33.09513687109575,260.89189106511185 31.4633910729317,262.63080128849833 26.024238412384875,266.4441632080416 25.506223873235285,267.4203755357885 25.221315876580775,266.1085894367425 23.74497444019653,265.74250850171666 21.82832064537797,268.0 21.569313375861384,267.32885577421985 22.76074681582395,263.9120966690534 22.449938092380762,262.63080128849833 24.7551027914742,261.1664565530664 25.583926053950563,259.3665223556163 26.749458767008036,258.63434243231313 26.205543500953354,258.08520623724326 26.749458767008036,258.4207895951986 27.785487845307216,260.12920774598024 31.04897944163531,258.115713831794 31.64469616173301,258.2987593295984 31.6187954347115,257.6886072063353 31.69649761565961,258.23774417693494 31.17848307651002,257.9326682147512 31.230284530320205,257.04794605018105 30.686369264265522,256.9564229086682 30.971277260920033,256.34626786905574 29.961148909525946,255.15646172891138 30.168354725115933,254.66833467481774 31.64469616173301,254.45477882178966 31.903703431249596,253.32598090125248 32.65482451301068,252.5632770350494 32.31811506242957,251.73955453292 34.93408848508261,253.53953761263983 35.60750738589559,253.50902952090837 36.87664300680626,254.72935060298187 37.368756818934344,256.01068203212344 38.01627499272581,255.67509579428588 38.430686624138616,254.4852868107846 37.368756818934344,248.07853640199755 35.8406139286235,244.02085220839945 37.10974954941776,242.7699753328634 37.291054637986235,241.27501761144958 35.50390447804239,238.74272412844584 35.78881247458048,235.75275784396217 37.78316845011432,232.0" stroke="#4dd2ff" stroke-linecap="round" stroke-linejoin="round" stroke-width="0.5"><title>2025-03-26 3.9km</title><desc>1742943197000</desc></polyline><polyline fill="none" points="75.99920189235127,233.57548975831014 75.84463110245997,232.99504806814366 76.51912182185333,233.06138437378104 76.58938127174042,232.6467819872487 75.90083866234636,232.0 75.76031976257218,232.3150992615847 75.42307440278819,232.21559430235357 73.90547028416768,234.6866147946712 73.90547028416768,235.0514600454626 73.73684760433389,234.98512461064092 73.6103805945022,235.79773168727115 72.94994176505134,237.124427757808 73.06235688494053,237.53901789891825 74.69237612350844,238.50086265998834 75.88678677246207,239.59536824132374 75.70411220256938,240.04311824718025 75.50738574273419,239.81095174251823 75.5214376327931,240.7396156280738 75.25445172301261,241.17077906991472 75.70411220256938,241.452692965162 75.69006031256868,242.16576694851392 75.3247111728997,242.43109594671114 75.12798471312271,242.23209924162074 74.93125825328752,242.84567157682613 74.49564966361504,242.72959051463113 74.35513076378265,243.02808449491567 74.49564966361504,242.87883757828968 75.63385275262408,243.9401457937638 76.33644725201884,244.17230597564776 76.39265481196344,245.31651882157894 76.85636718152091,245.1672741574439 77.91025893058395,245.68133849329024 78.7533723298111,247.27326860699395 78.5847496499191,247.3893461906846 78.7112166598672,247.28985112438386 79.48407060920727,248.48378761117056 79.97588675864972,248.61644664047344 80.04614620865323,248.86518200769206 79.72295273892814,250.821886000238 80.3833915683208,251.96604867029237 79.84941974881804,252.71223706503224 79.11872146948008,257.2224531952088 79.21708469942678,257.73647666590114 78.31776374019682,257.9851970745949 78.7252685498679,257.78622078021 78.55664586997591,257.6038256144384 77.65732491080416,258.15101045381743 77.0390417514136,257.20587176394474 77.68542869080557,257.88570896002057 77.58706546085887,258.9137496631447 77.98051838047104,258.41631148345186 77.40439089108258,258.5323805379885 77.91025893058395,258.48263666835555 77.67137680080486,257.88570896002057 76.9968860814115,257.32194174487086 77.27792388119269,257.6369883881707 77.0811974213575,257.42143022926757 77.43249467102578,258.3665675757511 77.41844278096687,259.2619554181729 75.4090225129039,263.9046224292251 75.50738574273419,264.3854619623162 79.41381115926197,265.4466196758585 79.23113658936927,266.8559582865855 79.00630634959089,266.8062171467609 78.96415067964699,267.22072614668286 78.5847496499191,267.1875654684263 78.37397130014142,268.0" stroke="#4dd2ff" stroke-linecap="round" stroke-linejoin="round" stroke-width="0.5"><title>2025-03-24 3.9km</title><desc>1742796232000</desc></polyline><polyline fill="none" points="132.070635681157,267.99746281617263 132.14384127006633,268.0 132.18690338119632,267.89343804151395 132.1330757422911,267.94925627097655 132.1352288478447,267.8376196784411 132.0727887867106,267.84776848166257 132.2859462367851,267.7944872154749 132.3053241867965,267.75642909365524 132.23427170343348,267.634642686442 132.27518070900987,267.56867478364074 132.19336269785708,267.4976322180628 132.26872139233456,267.30987582429407 132.2127406478685,267.2946522666498 132.2622620756665,267.1804752675125 132.16321922007774,267.07644684822844 132.00173630334757,267.1271924765915 131.9974300922404,267.0815214160375 132.03403288668778,267.10435695749584 132.0426453089167,267.05614856596003 132.16321922007774,267.0307756882885 132.04695152002387,267.06629770930886 132.09431984228286,267.0612231381838 132.05556394226005,266.94958229416807 118.37903744808864,232.1600894560852 118.34889397030202,232.18041819695463 118.37688434254233,232.22361671223734 118.44793682589807,232.17025382874817 118.4565492481197,232.20074692003982 118.5900417926241,232.15500726808932 118.61372595373541,232.22615779887383 118.56420452593738,232.0228699898471 118.5706638426127,232.05844548485766 118.6761660148768,232.0 118.77736197601917,232.00508222191092 118.85272067049664,232.09910312672218 118.91300762606988,232.11180862520814 118.83334272048523,232.13213740833817 118.79243371492339,232.05082216908522 118.844108248275,232.05844548485766 118.81181166492752,232.06606879812352 118.79243371492339,232.11689082265912 118.33597533696593,232.25410973347607 118.46946788146306,232.84871564714558 118.35320018141647,232.88937190583601 118.31444428140821,232.9579791810338 118.19171726469358,232.97830722366052 118.18095173690381,233.07994716997018 118.18956415912544,233.12060302398277 118.31659738694725,233.10535708706266 118.35535328697006,233.17904568947233 118.31444428140821,233.04945523277092 118.31013807028648,233.11552104612565 118.2433917980452,233.12822598869025 118.04745919241395,233.10027510587497 117.84722037566826,233.1561768378724 117.85152658677544,233.10789807724723 117.84722037566826,233.18412765343783 117.39076199771807,233.395028177536 117.37784336436744,233.5373214253923 117.220666658759,233.61609052711174 116.99459057534114,233.1561768378724 116.91061945863476,233.19683255848213 116.84387318639347,233.17904568947233 116.87832287528727,233.2044554981694 116.86325113640487,233.10281609661433 116.78358623080567,232.99101224126935 116.82234213082847,232.97068420975847 116.7082275363282,232.8995359593937 116.66731853076635,232.79281317525783 116.69746200855298,232.7597798331808 116.5575101473878,232.65559744663733 116.47138592513511,232.70133611290112 116.20224773058726,232.61239973469674 115.97186543605494,232.50821668715798 115.8512915248939,232.47264188098416 115.71564587485045,232.31255457896805 115.43789525805914,232.1499250789784 115.3323930858096,232.16517164297147 115.09985768571642,232.42436169974098 114.91899681898212,232.43452595676172 114.91684371342126,232.46755976136046 114.80918843560357,232.48280611687187 114.53143781883409,232.37354034792952 114.53574402994127,232.26935622908968 114.36134247987502,232.1600894560852" stroke="#4dd2ff" stroke-linecap="round" stroke-linejoin="round" stroke-width="0.5"><title>2025-03-24 4.7km</title><desc>1742777725000</desc></polyline></svg>