<?xml version="1.0" encoding="utf-8" ?>
<svg baseProfile="full" height="300mm" version="1.1" viewBox="0,0,200,300" width="200mm" xmlns="http://www.w3.org/2000/svg" xmlns:ev="http://www.w3.org/2001/xml-events" xmlns:xlink="http://www.w3.org/1999/xlink"><defs /><rect fill="#222222" height="300" width="200" x="0" y="0" /><text fill="#FFFFFF" style="font-size:12px; font-family:Arial; font-weight:bold;" x="10" y="20">Over 1km Runs</text><text fill="#FFFFFF" style="font-size:4px; font-family:Arial" x="10" y="280">ATHLETE</text><text fill="#FFFFFF" style="font-size:9px; font-family:Arial" x="10" y="290">Tao</text><text fill="#FFFFFF" style="font-size:4px; font-family:Arial" x="65" y="280">SPECIAL TRACKS</text><rect fill="yellow" height="2.6" width="2.6" x="65" y="283" /><text fill="#FFFFFF" style="font-size:3px; font-family:Arial" x="70" y="285.5">Over 20.0 km</text><rect fill="red" height="2.6" width="2.6" x="65" y="287" /><text fill="#FFFFFF" style="font-size:3px; font-family:Arial" x="70" y="289.5">Over 40.0 km</text><text fill="#FFFFFF" style="font-size:4px; font-family:Arial" x="120" y="280">STATISTICS</text><text fill="#FFFFFF" style="font-size:3px; font-family:Arial" x="120" y="285">Number: 24</text><text fill="#FFFFFF" style="font-size:3px; font-family:Arial" x="120" y="290">Weekly: 2.4</text><text fill="#FFFFFF" style="font-size:3px; font-family:Arial" x="141" y="285">Total: 333.7 km</text><text fill="#FFFFFF" style="font-size:3px; font-family:Arial" x="141" y="290">Avg: 13.9 km</text><text fill="#FFFFFF" style="font-size:3px; font-family:Arial" x="167" y="285">Min: 1.4 km</text><text fill="#FFFFFF" style="font-size:3px; font-family:Arial" x="167" y="290">Max: 98.8 km</text><polyline fill="none" points="24.72538860095665,61.20453662460932 24.47668393776985,61.256794916596846 23.7512953368132,60.59049959576805 23.295336787530687,59.67596919234347 23.181347150239162,58.85288449453947 23.41968911915319,58.04285784896638 24.932642487052362,57.35041038077179 25.08808290149318,56.91926135948597 24.61139896372333,57.28508489405067 23.554404145048466,57.37654056320025 23.595854922255967,57.206694252185116 23.74093264248222,57.402670738636516 23.93782383413054,57.25895468708768 23.792746113962494,56.63182761926873 23.36787564761471,56.004696517353295 23.295336787530687,55.11625388376706 21.751295336754993,55.011730688638636 21.41968911915319,54.77655308994872 22.093264248687774,54.13634453026316 21.917098445584998,53.16949098103214 22.18652849731734,52.790586299095594 22.362694300478324,51.340282357930846 22.632124352268875,51.13122775830561 25.005181347136386,50.70005123063311 26.25906735751778,51.1181618309638 26.632124352268875,50.81764501823636 26.81865284970263,50.20354256351129 27.36787564761471,49.77236193247518 27.67875647667097,49.74622971169447 28.145077720168047,50.17741045834555 28.880829015513882,50.07288196765876 30.4559585491661,49.3542455596762 30.51813471497735,49.07985571540485 30.300518134667072,48.975326047737326 30.4559585491661,48.975326047737326 30.47668393776985,48.54413998378732 31.740932642424013,48.71400138818717 31.782383419631515,48.923061171859445 32.113989637291525,48.7270676378248 32.113989637291525,48.49187487671588 29.34715025901096,48.13908467110741 28.663212435203604,47.87775776966009 26.23834196891403,44.702579946417245 22.81865284970263,43.395892364576866 21.76165803108597,41.657970737192954 21.13989637303166,41.252886806760216 18.23834196885582,41.86704565541004 17.554404145048466,42.58573726629402 16.82901554403361,44.114572702368605 16.0,44.50657792587299 14.87046632124111,44.467377474436944 15.927461139857769,44.29750866952236 16.051813471480273,43.957770171546144 15.865284974046517,43.474294113504584 15.440414507756941,43.552695799320645 14.352331606205553,43.12148574676394 13.637305699463468,43.199887716378726 13.461139896360692,43.04308371404477 13.430051813425962,41.46196259399585 13.139896373031661,41.23981955519412 12.808290155429859,41.34435751885758 12.165803108830005,41.135281479400874 12.373056994809303,41.80170979164541 12.217616580310278,42.48120063405804 12.062176165753044,41.1875505312928 12.290155440394301,41.488097035879036 12.082901554415002,41.26595405659464 12.176165803102776,41.34435751885758 12.23834196885582,40.91313769597764 12.0,41.723306697327644 12.217616580310278,41.35742475644656 12.23834196885582,40.40351180921425 12.414507772016805,40.62565675418591 12.227979274641257,41.004608726958395 12.310880828998052,41.27902130474831 12.186528497375548,41.20061778991658 12.321243523270823,41.083012399416475 12.290155440394301,41.34435751885758 12.352331606205553,40.9000703988786 12.23834196885582,41.05687784899055 13.523316062171943,41.26595405659464 13.772020725300536,40.795531958654465 13.96891191706527,39.514926966061466 14.082901554415002,39.61946677987726 14.290155440336093,39.14903673474328 14.891191709844861,39.34504952948191 14.922279792721383,39.044496416318 15.025906735740136,39.423454537005455 14.87046632124111,38.9007532954638 15.036269430071115,39.37118453899893 16.321243523270823,39.64560171581252 17.243523316050414,37.18888710445026 17.76165803108597,37.358768299360236 17.336787564738188,36.99286997307354 17.32642487040721,36.64003814314492 17.512953367840964,36.48322358644509 18.362694300478324,36.53549513339385 19.07772020722041,36.80992029480694 19.202072538842913,36.208797505103576 18.83937823830638,35.908234719790926 21.274611398926936,36.78378459839587 22.59067357511958,38.600198812113376 26.50777202064637,40.07682714682596 30.352331606147345,42.507334802663536 31.37823834188748,43.35669146646251 39.58549222792499,55.46901883980172 41.84455958544277,57.415735823698924 44.4974093263736,59.31015462895448 45.33678756473819,60.198559044729336 45.75129533675499,60.86485704401275 46.1658031087718,62.18437493810052 46.15544041444082,64.09176528021635 46.03108808287652,61.98840806315275 46.5388601035811,61.857763261046784 46.5803108807886,61.505021420940466 47.17098445590818,61.583408606813464 48.0,61.322117742143746 47.75129533675499,60.32920607011329 47.39896373054944,60.34227076303068 47.60621761652874,60.695016809950175 47.63730569946347,60.34227076303068 47.803108808235265,60.2638825792892" stroke="#4dd2ff" stroke-linecap="round" stroke-linejoin="round" stroke-width="0.5"><title>2025-05-31 10.5km</title><desc>1748652092000</desc></polyline><polyline fill="none" points="72.54339384267223,63.71829646702463 72.38659332680982,63.773016559222015 72.02072545653209,63.67725636667092 71.68970214531873,63.76617655030714 70.89408471307252,63.246333698283706 71.58516846809653,63.73881650716794 72.40401560635655,63.820896600904234 72.65373494641972,63.78669657484352 73.46677465818357,63.232653565286455 74.73279363795882,63.52677576988572 75.09285408174037,63.36261470878526 75.13350606735912,63.76617655030714 75.28449915663805,64.06029626329837 75.55164077624795,64.29969501569212 75.77232298371382,64.36125454778085 76.0452720298199,65.40775738774028 76.56794041596004,65.33935904041937 77.06157166953199,66.03017893497599 77.47389895192464,66.26957019996189 77.2996761565737,66.76202936982008 76.78281519692973,66.99457819498639 76.83508203554084,67.93160446757975 77.00930483092088,68.0 77.74104057153454,67.73325700355417 78.96060013916576,66.80306746018323 81.13838508146,64.64169165485146 82.14306986812153,63.12321239431549 82.35213722256594,62.521282554422214 82.43924862027052,61.76202193730205 82.3927892081847,59.23108709662483 80.86543603532482,56.18699016667597 79.90140323422384,54.57253296715862 79.47746109880973,53.54637339640249 77.89203366087168,51.938689771042846 77.65392917382997,51.562417461303994 77.35775042168098,48.2237573576931 77.63650689428323,47.135917965500994 75.84781952836784,46.34226226912506 75.15092834687675,45.93174677472416 73.87329451410915,44.946498662571685 73.32739642189699,44.04334100908454 72.88022458041087,43.530177476644894 71.63743530670763,42.68858022412314 77.34613556865952,32.78014987991264 77.16029792025802,32.54747461253646 75.48775908461539,32.02053038397935 75.15092834687675,32.0 74.1230138541141,32.266894468906685 74.1230138541141,32.71855945172865 73.77456826335401,32.94439072689056 73.31578156884643,32.937547366829676 72.65373494641972,32.77330650197109 73.05444737579091,32.91017391913556 73.27512958328589,32.79383663354383 73.12413649394875,32.92386064449238 73.24028502422152,32.828053504581476 73.12994392047403,32.786993257112044 73.10090678787674,32.937547366829676 73.21124789162423,32.87595709276502 73.22867017117096,33.06757108070451 73.02541024325183,32.91701728218686 73.22286274467479,32.90333055535302 73.10671421440202,32.9512340862093 73.22286274467479,32.80752338417733 73.20544046512805,32.99229422647113" stroke="#4dd2ff" stroke-linecap="round" stroke-linejoin="round" stroke-width="0.5"><title>2025-05-27 10.2km</title><desc>1748342410000</desc></polyline><polyline fill="none" points="136.60559470427688,60.8475848743401 134.64531283359975,61.121495777362725 133.49220585101284,63.01147265829786 131.232116164756,64.81926298390317 130.540251975297,64.46318412660912 130.58637625456322,65.12056007419596 126.11232116166502,64.51796552298765 123.36792654288001,62.71017297341314 121.20008541538846,62.271918224476394 118.80162289133295,60.984540364166605 115.87273115536664,61.25845111395756 111.35255178320222,59.039765231267666 110.43006619706284,58.13585040527687 107.93935511435848,58.628895269401255 105.51783045055345,59.75193819888227 105.33333333337214,59.31367815626436 106.27888105926104,57.396281247914885 106.90155882993713,58.02628474516678 105.67926542821806,59.31367815626436 105.63314114883542,58.02628474516678 106.14050822134595,58.02628474516678 105.93294896441512,57.50584718995378 106.57868887472432,57.42367273797572 106.78624813165516,57.83454472194717 107.77792013669387,56.19105265031976 108.6312193039339,56.82105924806092 109.39226991252508,56.30061913150712 109.39226991252508,55.75278623505437 110.13025838136673,55.4240859089623 110.79906043142546,55.4240859089623 110.15332052111626,56.3280107442115 110.79906043142546,55.396694195165765 113.22058509499766,55.369302478356985 118.93999572924804,56.711492999558686 121.5921417895006,56.98540852875158 128.14178945112508,60.765411543732625 129.77920136682224,58.87541732925456 131.1859918856062,58.24541601644887 131.831731795799,58.68367797082465 134.20713218022138,56.903233902165084 135.36023916304111,57.28671525690879 136.55947042501066,58.24541601644887 136.69784326280933,58.738460659980774 136.19047619053163,59.77932942552434 135.1988041853765,60.21758863491414 134.59918855433352,61.121495777362725 137.02071321802214,60.62845593142265 139.39611360232811,59.58759077482682 139.64979713852517,59.14933043802739 139.62673499900848,59.61498201978975 139.5344864402432,58.16324181271193 141.33333333337214,56.903233902165084 141.33333333337214,56.24583589707618 137.73563954723068,51.972705847088946 132.9617766388692,44.87804961801157 133.37689515273087,43.15229134574474 134.36856715776958,41.618273781466996 134.69143711298238,39.3172294152464 135.93679265421815,36.08477342259721 136.00597907335032,34.98901594345807 134.5761264147004,35.3725316189375 133.81507580610923,34.93422794077196 133.79201366647612,35.29034973909438 134.02263506304007,34.906833934845054 133.9073243647581,35.23556180384185 134.29938073887024,35.39992557282676 136.23660046979785,34.87943992581859 136.92846465937328,35.0985919120576 135.12961776636075,34.93422794077196 134.27631859923713,35.3451376620942" stroke="#4dd2ff" stroke-linecap="round" stroke-linejoin="round" stroke-width="0.5"><title>2025-05-25 4.8km</title><desc>1748150210000</desc></polyline><polyline fill="none" points="175.7724268429447,35.58442690887023 175.6158106107032,35.18908830478904 174.40762824832927,35.00459673572914 169.44065631367266,37.50839891616488 169.53015130350832,38.668045905113104 168.6575751528144,42.12059843246243 167.96398898179177,43.14844808871567 164.47368437901605,45.5467470153817 163.37737075379118,46.94354755120003 164.7197956009768,48.0767949061119 165.14489680272527,50.079730771598406 164.7421693484066,50.89671302070201 163.42211824876722,51.529213517467724 164.2499469044851,53.4794130007358 165.63711924664676,54.48086069688725 165.14489680272527,55.086998083555955 164.8540380857885,56.66821892009466 166.93479659897275,57.195290241987095 166.48732164979447,57.64329996528977 165.726614236366,57.01081540957966 165.2120180450147,58.40754993665905 165.95035171089694,58.82920406269841 166.44257415493485,59.936042656801874 165.5476242568111,60.17322169848194 164.7197956009768,62.255116669868585 162.750905825058,63.52005678816931 162.97464329970535,64.6005212500022 162.01257215917576,67.76282860952779 162.4376733606914,68.0 163.6906032182742,66.18168008192151 166.01747295330279,66.65602572214266 170.55934368632734,63.41464536359126 172.10313226061407,61.859821530335466 173.3113146231044,61.38546651272918 173.71404207730666,60.72663856076542 173.8035370670259,58.35484311936307 175.52631562098395,58.93461747969559 176.68975048861466,58.17036916872894 175.9514168224996,53.00504159637785 175.4591943785781,52.84691758877307 175.83954808523413,52.2144205278164 175.4368206311483,49.76347883962444 174.43000199575908,47.36522160405002 175.41444688360207,46.15290672639094 175.48156812612433,44.96694065700285 173.89303205697797,42.88489730996662 174.5866182280006,39.6695547519048 175.638184358133,37.033996277241386 175.99616431747563,36.928573342534946 175.7948005903745,35.847985620232066 176.80161922576372,34.47747719362087 177.2714679223718,32.65890597930411 177.98742784082424,32.0" stroke="#4dd2ff" stroke-linecap="round" stroke-linejoin="round" stroke-width="0.5"><title>2025-05-20 4.1km</title><desc>1747694891000</desc></polyline><polyline fill="none" points="40.15110919310246,73.66072032097145 40.42620700318366,72.88875062449006 40.82784980593715,72.70062203786438 40.97640262340428,72.28543960386742 41.268006302125286,72.05189821164458 41.17997500288766,72.0 41.2349945649039,72.07136002933476 41.17997500288766,72.00648727892622 41.2349945649039,72.04541093766602 40.99841044819914,72.33733756654692 40.833351762150414,72.75900683530926 40.365685484954156,72.97957110860443 40.085085718659684,73.95912609116203 39.90902312018443,74.06291905173202 39.57340379181551,74.55593314222278 40.2666502733191,75.01650840479488 41.11945348465815,75.2565250865191 40.98190457961755,75.2500381619102 41.09194370362093,75.39923724914843 40.904877192748245,75.2565250865191 40.89387328035082,75.34085504217 40.915881105174776,75.2565250865191 41.003912404412404,75.3019335390236 40.92138306138804,75.23057738381249 41.14696326566627,75.26949893362689 40.91037914896151,75.23057738381249 40.860861543158535,75.3019335390236 40.871865455585066,76.07387193038085 40.53074417100288,76.74849896378873 40.233638536097715,77.01445559637432 40.51974025860545,77.24797751333608 40.09058767481474,77.70204528440445 40.09058767481474,77.70853194173469 40.811343937326455,77.97448428415373 40.756324375310214,77.58528533128265 40.54174808342941,77.20905725747434 40.21163071130286,77.01445559637432 40.57475982062169,76.73552543911137 40.877367411740124,76.03495090666547 40.83885371836368,75.34085504217 40.904877192748245,75.21111659936287 41.284512170706876,75.37328960868763 41.543104112235596,75.7235818004956 42.29137015572633,75.63276550432056 43.056142067856854,75.7949373645497 42.95160490000853,75.00353450255352 42.23084863749682,74.35483578277854 42.50044449142297,73.67369451600098 42.74803252052516,73.4336714498786 42.79755012632813,73.07687861632803 43.100157717446564,73.12228873214553 42.91859316278715,73.05092996318126 42.76453838913585,73.10282725818615 42.74803252052516,73.39474869928745 42.47843666659901,73.69315580325929 42.23084863749682,74.37429684727613 42.96260881240596,75.05543009462781 43.21019684150815,76.54740901349214 43.69987094349926,77.37122482232371 43.57332595085609,78.37016727713126 43.89794136676937,78.33773434388422 44.481148724182276,78.49989883331727 45.63655952666886,78.11718992917667 46.49486469422118,78.59071075440443 46.49486469422118,78.71395528281573 46.1537434096972,79.4404441589868 45.50451257781242,79.76476668715623 44.72873675331357,80.48475638334276 44.61869762925198,80.45232460237457 44.17303917687968,79.53774110299855 43.413769220991526,79.92044087294562 42.79755012632813,80.3874609873892 42.14831929447246,81.60039888970277 41.19648087149835,82.52143682964379 40.50873634623713,83.41651638473195 37.009492201614194,88.79319657567612 37.04800589501974,88.98127430678869 37.691734770691255,89.43525258942464 36.75640221629874,91.7115772192301 36.464798537577735,91.64024073107794 34.89674101996934,90.69988812657175 34.71517646528082,90.70637336779328 31.171916671068175,96.81515695129201 29.42229459877126,98.92260677307422 27.04544951938442,99.41541505217538 26.03308957820991,99.76556582567355 17.554575070593273,104.09040661035033 17.070402924786322,104.66746057726778 16.5972346914059,105.58165823074523 16.47068969879183,105.56869098620518 16.426674049143912,105.67242886350141 16.333140793722123,105.61407632973714 16.333140793722123,105.38714926637113 16.17358406385756,105.17318867220456 16.01952929017716,105.14725400252792 15.948003859550226,105.30934550284292 15.74443148006685,105.27692723806103 15.672906049439916,105.40011655041599 15.61238453121041,105.27044358297644 15.760937348677544,105.34824739730902 16.014027333993,105.10835197684719 16.454183830181137,105.51033835086855 16.43767796154134,105.64649441109577 16.498199479770847,105.60110909225114 15.892984297533985,106.74221518864215 14.968655655538896,106.98210403137273 15.040181086194934,107.42946172601296 14.655044152052142,107.63693082128157 14.198381787253311,107.57858021124775 14.429463947744807,108.0 13.873766371310921,107.89626617464819 13.912280064745573,107.60451382278552 13.505135305778822,107.13122363608636" stroke="#4dd2ff" stroke-linecap="round" stroke-linejoin="round" stroke-width="0.5"><title>2025-05-17 14.6km</title><desc>1747468743000</desc></polyline><polyline fill="none" points="90.5567068119999,90.61160287699022 88.50922136742156,91.6091133988084 88.59769296075683,92.18975050780864 88.3449169798987,93.61900060089829 87.70033822883852,94.7653675051115 85.71604677953292,96.13504006210133 85.09674562653527,96.96874708931136 84.46480567450635,97.01340982265538 84.0730029042461,97.46003635504167 83.63064493791899,97.54936148683191 81.49468790006358,99.8866817397502 80.28136319213081,99.7526963056298 79.6115068430081,98.08531105484872 79.15651007759152,98.35328505275538 78.47401492943754,97.28138591675088 77.99374056584202,97.34093608874537 77.63985419273376,97.16228549518564 77.57666019757744,96.8794215790258 76.51500107813627,98.51704668239108 75.66820154240122,99.23164059418195 75.27639877219917,100.12487774361216 75.39014796353877,101.13720614108024 75.80722833186155,101.28607733351237 75.84514472901355,102.6407977524068 76.41389068582794,104.15925966661598 77.12166343204444,103.6977681194112 77.86735257547116,102.43238009810739 78.95428929285845,102.3430581492139 79.58622924494557,103.01297134670313 80.44566757971188,105.14178488105244 81.7853802779573,105.42463174309523 82.872316995461,106.00521031519747 84.46480567450635,105.8563442490995 84.67966525815427,106.07964328757953 85.02091283228947,107.61295352537127 86.41118072671816,108.0 90.72101119952276,105.00780458477675 90.96114838123322,104.5016556167393 90.91059318504995,103.37025704635016 92.16183429007651,103.56378641141055 92.55363706033677,103.0278582694591 92.5409982612473,101.89644753151515 91.99752990249544,98.84456935450726 91.36558995052474,97.10273524560034 91.94697470642859,96.43279315416294 91.92169710830785,95.6735214907967 91.07489757263102,94.5420500291948 91.26447955827462,93.09792156469484 91.99752990249544,91.86221192832454 92.17447308910778,90.5520497802936 92.68002505076583,89.91185235585726 92.97071742860135,88.82499871544132 93.50154698838014,88.21457028694567 90.45559641963337,85.04327638953691 89.38129850121913,85.29638704887475 86.0193779564579,85.44527545360324 80.05386480945162,84.61149830304203 78.68887451308547,84.07549602662039 76.88152625033399,81.9612443739461 74.61918122210773,82.51214407483349 73.87349207868101,80.21919560525566 72.58433457656065,81.06788879838132 69.62685560114915,82.27391744904162 67.66784174990607,84.00105110014556 66.39132304681698,83.19704331633693 63.25690088479314,80.27875319385203 59.83178634487558,74.51643654712825 63.66134245414287,72.0 64.20481081283651,72.58072022987471 64.53341958788224,73.36990018539655 64.30592120514484,73.31033959268825 63.964673631009646,72.69984202402702 64.36911520035937,73.42946075220243 63.73717524838867,74.7695666582731" stroke="#4dd2ff" stroke-linecap="round" stroke-linejoin="round" stroke-width="0.5"><title>2025-05-12 8.9km</title><desc>1747004623000</desc></polyline><polyline fill="none" points="120.74119053140748,86.44526090051295 120.50974920982844,87.1125278588006 119.41426028756541,88.83525278256275 118.37020277016563,90.09086723652581 118.0153260770312,90.654974641242 117.77359847447951,91.10383020676454 117.72731021017535,91.66186180178556 117.22328244309756,92.25021513413594 116.72954095705063,93.24494268685157 116.70896839510533,93.5360790913328 116.60096244502347,93.65132016356802 116.616391866497,94.30030489918136 116.70382525466266,94.21539143931295 116.59067616407992,94.35489205488193 116.63182128791232,94.03343358857455 116.48267021399806,93.84540985050626 116.62667814744054,94.0213030440209 116.63696442838409,94.22752194150962 116.12265038039186,95.3192563018747 116.24094261144637,95.41023319754822 116.0763621160877,95.40416807581278 115.495187241846,96.70208905103937 114.72371616985765,98.97641022364405 114.72371616985765,99.34029297900634 114.36883947672322,99.87398337971172 113.06762493529823,102.9304751939635 112.73846394458087,105.71998381291269 112.8516130351345,107.44213233425398 112.93904642330017,107.74532197703957 113.2322054306278,108.0 113.56650956184603,107.89691617878998 115.52090294426307,106.5446813067174 115.70091286103707,106.26574087571134 115.71634228248149,105.88371149399609 115.78834624920273,105.79881571950318 117.56787285528844,104.61026127159494 118.10790260566864,104.37982430664124 118.34448706774856,104.62238950646133 119.14681698262575,104.31918284140193 122.87045069012675,102.57874460972744 123.22532738326117,102.20881866422133 124.3208163054951,101.9419853071704 124.69112242004485,101.69940841707648 124.660263577156,101.59631291839105 124.84541663443088,101.40225028475834 125.99233696146985,100.92315525843878 126.19291944021825,100.76547751161343 125.99233696146985,100.36521660798462 125.88947415188886,100.38341034791301 125.9203329947486,100.46224981885825 125.99748010197072,100.34702286208267 126.05405464724754,100.48044352704892 126.17749001874472,100.5168309255605 126.80495315731969,100.21966647420777 126.87695712404093,100.0983744050609 126.7638080334873,99.69810869984212 126.91295910737244,99.17048132283526 126.85124142162385,99.0977047400047 126.7638080334873,99.22506369744224 126.82552571923588,99.23112840242175 126.88724340498447,99.00673387754796 126.77409431445994,98.71562611755144 126.57865497618332,98.55794211124885 126.18777629971737,98.43058162585658 125.6631759707816,97.93933130684673 125.39573266581283,97.94539615204849 125.03571283217752,98.21831350198408 124.54711448663147,98.23044313090577 124.3619614293275,98.46697036574187 124.43910853652051,98.75807942747997 124.86598919637618,98.90363338683892 124.8608460558753,98.97641022364405 124.95342258454184,98.9521512886422 124.85570291543263,98.96428075747463 125.14371878228849,99.36455174471848 125.26715415381477,99.46158670165823 125.48830919445027,99.44945734130306 125.54488373972708,99.64352678956493 125.91004671380506,99.89217728035874 126.19291944021825,99.58894482569667 126.24949398546596,99.2371931067537 126.66608836434898,99.20080487089217 126.53236671187915,99.07344585790997 126.42950390226906,98.77627369323454 126.22892142354976,98.69743183195533 126.24435084499419,98.47303515341264 126.69180406676605,98.65497847573715 126.85638456212473,98.87937442007751 126.91810224787332,99.17654603376286 126.77409431445994,99.68597939108804 126.79466687634704,99.92856506381213 127.24726323859068,100.4016040819115 128.85192306834506,99.23112840242175 128.99593100178754,98.89150390477516 128.43532868946204,94.4276748458069 128.47647381329443,92.37152432524454 128.6410543086531,90.56398996318603 128.5433346395439,89.33871512465703 128.55362092048745,87.33697039875915 129.11422323281295,85.16529912978149 131.18176570578362,82.11996351250855 131.69607975377585,80.60329985056524 131.53149925841717,80.47589821805741 131.55721496083424,80.37276334921262 131.81951512530213,79.81461838442192 133.03329627859057,77.96420638061318 133.7276202433568,76.5141683279071 133.6864751195244,76.39282451521649 133.0075805762026,75.94385010348196 132.85328636175836,75.72542880727633 133.12072966672713,75.05802508061242 133.9282027221052,73.54723611352165 133.90248701968812,73.41375077516932 132.5241253710701,72.35192415791607 132.73499413073296,72.19416532841933 132.4881233876804,72.42473577424607 132.52926851151278,72.35192415791607 132.43669198290445,72.35799179624155 132.40068999954383,72.43080340462984 132.56012735440163,72.46114154659881 132.3081134709064,72.1577593810398 132.6269881806511,72.08494741469985 132.63213132112287,72.0 132.7247078497894,72.04247372359532 132.65784702353994,72.07281207769483 132.65270388303907,72.00606767678619 132.71442156881676,72.06674440820643 132.6475607425673,72.02427070318299 132.709278428345,72.07281207769483 132.6475607425673,72.10921808075727 132.61670189970755,72.0 132.6681333045126,72.09708274905279 132.6887058663997,72.00606767678619 132.61155875920667,72.03033837732437 132.6835627259279,72.11528574561817 132.6269881806511,72.03640605078908 132.6269881806511,72.11528574561817 132.3081134709064,72.20630063889257 132.87900206414633,72.77058964821117 130.27142984082457,77.10268205923057 129.96798455249518,77.19368878066234 129.81883347858093,77.13908476569486 129.31994885203312,76.6840492203628 129.582249016501,76.55663859972265 129.30966257106047,76.66584772102215 128.9650721589278,76.33215250947978 128.80049166354001,76.39889171213508 128.8262073659571,76.59910883907287 129.7211138094426,77.52131174333044 129.7828314952203,77.80039644678254 128.89306819217745,79.20793271506045 128.93421331603895,78.94705584035546" stroke="#4dd2ff" stroke-linecap="round" stroke-linejoin="round" stroke-width="0.5"><title>2025-05-11 17.9km</title><desc>1746934812000</desc></polyline><polyline fill="none" points="175.57602891593706,72.0 176.40466479212046,75.4984570471861 163.97512665134855,79.44435189737123 163.491755723604,80.4613283604267 173.98781015351415,99.29523278455599 175.16171097790357,101.73584215348819 174.92002551420592,102.38666862991522 176.50824427651241,104.82725783393835 175.74866139015649,106.00687024238869 175.81771437986754,107.47121150718885 174.22949561744463,108.0" stroke="#4dd2ff" stroke-linecap="round" stroke-linejoin="round" stroke-width="0.5"><title>2025-05-09 1.4km</title><desc>1746749326000</desc></polyline><polyline fill="none" points="25.551688999985345,118.64893712931371 24.166149508208036,118.18933939746057 23.43691819673404,118.46509814742603 22.999379409709945,118.06677984645648 22.197224967181683,118.71021675711381 21.15199342078995,117.85230047404184 20.519992950721644,116.22837870105286 19.742146218544804,115.92197707379819 20.203992715803906,113.93035649381636 18.891376355080865,112.0 17.38429831143003,112.61281335007516 16.120297371642664,113.80779466108652 15.755681715789251,113.47074928223446 15.439681480871513,114.08355869246589 15.147988956188783,113.501389791767 14.904911852441728,114.206120377552 14.418757644831203,114.14483954329626 14.661834748694673,114.4206031683716 13.932603437220678,115.55429457947321 14.175680540851317,114.51252430294699 14.686142459046096,114.26740119545138 14.418757644831203,114.14483954329626 16.484913027263246,113.62395178877341 18.964299486251548,112.0 20.15537729510106,113.59331129571365 19.693530797725543,116.04453777395247 20.203992715803906,115.86069669912104 21.224916551844217,118.03613994838088 22.343071229406632,118.86341575480765 21.613839918049052,119.07789417932509 21.443685945356265,119.5681298229465 22.683379174792208,122.5401609235123 22.221532677533105,125.35895886988146 27.05876704363618,124.43978944250557 28.638768218574114,124.56234557952848 28.638768218574114,124.93001359670598 28.32276798353996,124.43978944250557 28.687383639393374,124.10275972726231 31.36123178130947,125.26704209328454 34.81292665575165,126.03301410288259 35.7852350709727,126.73770608686027 37.292313114739954,129.15815332638158 36.514466382563114,131.4560225810128 34.0350799234584,133.9989709874062 30.996616125805303,134.55045004512067 31.264000939787365,135.1632029945613 32.40646332781762,135.46957885399752 30.656308180186898,134.73427610225917 33.06277150812093,135.62276662982185 36.32000469940249,135.19384059899312 40.23354607098736,136.3580665262416 41.011392803280614,136.97081463482755 45.702780907042325,137.30782539500797 45.11939585802611,147.50982527241285 45.2166266994318,148.0 45.82431945914868,147.8468205104 46.06739656277932,146.37629219268274" stroke="#4dd2ff" stroke-linecap="round" stroke-linejoin="round" stroke-width="0.5"><title>2025-05-05 3.1km</title><desc>1746429236000</desc></polyline><polyline fill="none" points="75.72781981120352,112.04252576418003 75.57603019982344,112.0 75.30618200186291,112.20554087675555 74.60345231965766,112.33311757094634 74.0019157116476,113.01352140987001 73.40600094111869,113.26158313236738 73.42848829095601,113.8002274384744 73.61963076450047,114.21838173638025 73.40600094111869,115.08302929190177 73.7657985384285,115.21768624584365 73.89510079994216,115.5720450130757 74.06937776113045,115.6570907639798 74.34484779657214,116.03979495113526 74.82832581797265,116.14610117845587 75.55916468746727,116.88315181262078 75.1712579028972,117.66271342428081 75.18812341522425,117.93910069184858 75.30618200186291,118.05248992238921 75.21061076509068,118.24383369781208 75.42986242592451,118.20839971754685 75.45234977579094,118.31470158715456 75.15439239051193,118.22966010855453 75.22747627744684,118.39974292907937 76.66104482917581,118.69029981585118 77.03208610141883,118.67612634618854 77.39188369872863,118.888727992231 77.53805147262756,119.25723548820315 77.30755613686051,119.6753466541777 76.82969995294116,119.7462126260034 76.11010475832154,120.10762760585567 76.25627253222046,120.39817511320143 76.03702087138663,120.49738609174892 75.66597959914361,120.97926534125872 75.81776921052369,121.06430240028203 75.74468532355968,120.97926534125872 75.62100489949808,121.02178388786342 75.54229917508201,121.22020332020475 75.16001422796398,121.39736289886423 74.68777988149668,121.4469674746033 74.51912475776044,121.31941275733334 74.25489839725196,121.31941275733334 74.14808348554652,121.63121263440553 74.21554553505848,121.73042130087924 74.07499959861161,121.72333497372892 73.90072263742331,121.97135585927026 73.85574793771957,122.37527309868892 74.01878122400376,122.77918725466952 74.28862942199339,123.10515081655103 74.9969809416798,123.39568186395627 75.66035776172066,123.51614548894577 76.23378518241225,124.11137349278215 76.26189436970162,124.38064110440246 76.13259210815886,124.74202442965179 75.6547359242395,125.30180941387516 75.15439239051193,125.50021279704015 74.81146030558739,125.50021279704015 74.80021663068328,125.59941420964242 74.65404885675525,125.57107096787877 74.6596706942073,125.67735804625408 74.83956949287676,125.59941420964242 75.62662673697923,125.71987281783004 75.89647493493976,125.57107096787877 76.9983550766483,125.89701733168476 77.14452285057632,126.04581826507638 78.16207543044584,126.09541848321533 78.23515931738075,126.18044732044291 78.06088235619245,128.73124891003317 78.20142829263932,130.07037052828673 79.97230709186988,136.77963907153753 80.8155827105511,139.07490636024522 77.07143896364141,140.83171038232467 76.91402751480928,140.9804693360311 73.76017670094734,146.10885577393128 73.33853889163584,147.34837740633884 73.36664807892521,147.93625466532467 73.09117804348352,147.95042030189143 73.27107684212388,147.67418970547806 73.07431253109826,148.0 73.32167337925057,147.97875156362716 73.43411012840807,147.20671925970237 73.31042970434646,147.1996363424114 73.34978256653994,146.8100744330477 73.3554044040211,147.34837740633884 73.56903422737378,146.1726033084742 75.72219797375146,142.77971119882204 75.7165761362703,142.4963700798835 75.47483712557005,142.29803039441322 74.97449359184247,142.2130274446281 74.87892235507024,141.99343585931638 74.74399825607543,142.0713555583534 74.7608637684607,142.17760950858792 74.84519133032882,142.1563587355995 74.86767868016614,142.0855227640459 74.73275458117132,142.09260636545878 74.72713274371927,142.14927514269584 74.31111677183071,142.56720550177852 73.53530320263235,142.7442936418811 73.33853889163584,141.88009791054355 73.58589973975904,141.58966830938152 73.4790848280827,141.58258464067694 73.34978256653994,141.03005556104472 73.11366539332084,141.06547426476027 72.65267472175765,140.59086166635825 72.51775062279194,140.75378885884493 72.6582965592097,140.25083808431737 72.92252291974728,139.78330209314663 73.81639507555519,139.62745584521326 73.86699161265278,139.3936856130822 74.03002489893697,139.26617414229622 73.73206751365797,139.17408233348397 73.7152020013018,138.78446136977436 73.53530320263235,138.74195709116248 73.33853889163584,138.86946982461086 73.28794235450914,138.98989823529337 73.39475726618548,139.1103263720106 73.5409250401135,138.98989823529337 73.36102624144405,139.0961583701428 73.2429676548636,138.78446136977436 73.16426193044754,139.0040662655847 72.7088930963364,139.37243372261582 72.55148164753336,139.89664453075238 72.52899429769604,140.73253751434822" stroke="#4dd2ff" stroke-linecap="round" stroke-linejoin="round" stroke-width="0.5"><title>2025-05-04 11.1km</title><desc>1746326389000</desc></polyline><polyline fill="none" points="131.15233612393786,146.99565299538335 131.14335856748949,147.01697555090868 131.08500445056052,147.00575315987498 131.0553785142729,146.99901971820236 131.01049073202012,146.9619856944637 131.00420644250335,146.95076323143803 131.0634583150786,146.85088266325238 131.12809672152434,146.7352890921975 131.10744834168509,146.7891581347949 131.19812166184056,146.7712018248776 131.18285981587178,146.85537170253156 131.23313413199503,146.93280726004014 131.29507927150553,147.03942028890197 131.32470520778952,147.33680751965403 131.4432089529364,147.3693511563979 131.60749823598235,147.43107150745618 131.60480496905075,147.53880051010492 131.73767280451648,147.65774971134124 131.7107401351641,147.665604789182 131.73857056015913,147.65213893704822 131.82565285772944,147.60949693243037 131.87951819643058,147.65774971134124 131.8238573464405,147.59939747921544 132.31672519557105,147.40862779484723 132.78894466487327,147.36598457901619 133.09418158419066,147.62296285153843 133.60410679058623,147.6757041644023 134.24959309937913,147.63642874949528 134.7083462340015,147.98990100677202 134.81787242270002,148.0 135.4534834194019,147.86085726845067 135.47592731052646,147.54890003470337 135.48131384439694,147.12807642947064 135.5028599798752,146.66121860585827 135.40680012585653,146.2639205278374 135.19762306056145,145.9844540670647 135.18236121459267,145.62304215951463 135.10605198476333,145.31324839296485 134.8501916259229,144.9843608703286 134.75951830577105,144.55330827935813 135.16709936862753,144.39839345730434 135.24610186539212,144.34226420729647 134.69757316626055,142.91421239016836 134.48839610096547,142.2730833926389 134.37707440097438,142.2248002813676 134.73886992593543,141.1422888273337 134.20919409535054,139.88891995655104 134.00360805263335,139.43177649765767 133.5870494333285,138.6769309049905 133.86894470587504,135.92544926641312 133.61577761396984,135.8220688843394 131.76460547386523,135.79285246292238 131.73497953758124,135.42651501503406 130.5705904659444,135.5546225326416 130.3344807312933,135.41078238056434 130.16660042566946,134.6690681930777 129.93677498053512,132.89656021389692 129.66116399750172,131.79712834989277 128.42405671861707,131.52955604662748 127.96799685092992,131.26309967058114 127.38984221551436,131.13380349809904 126.45886961158976,131.0123757458432 125.96689951810185,131.31931478748902 125.52340822944097,131.2035112428557 124.42455531989617,131.0697168438992 124.04660019332732,131.06634384878544 123.4720365804933,130.94041774497418 123.13358270230674,130.99438630243912 122.761014109612,130.55925510173438 122.16400660564614,130.42095294698538 121.35961754767777,130.21967995738214 121.20879459930802,130.2983906296713 121.07054022996817,130.27477750413254 120.98345793239787,130.2983906296713 120.38824593972822,130.1027370479478 119.96181200832143,129.97454778875363 119.76251025512101,129.88796272695618 119.10714863422982,129.62595323272672 118.40689923108948,129.59896467375802 117.84041541906481,129.6945487696321 117.44630069088453,129.86097499582047 117.13926826027455,130.3096349522266 116.99472960141793,130.8088679579505 116.647298166783,131.19226809668635 116.54046524501973,131.43961389510332 116.48839541761117,131.39464246431635 116.42645027810067,131.40588534420385 116.5332831998603,131.45535383996048 116.15802134023033,132.29964696552815 116.16340787410081,132.51098824995734 116.26934304021052,132.61890518807922 116.69847023855255,132.5053675387644 117.22096402397801,132.28615691886898 117.75692414406876,132.78190214672395 117.86734808841356,132.70546258076774 117.87632564486557,132.35135861379968 118.2623605722365,132.2142096437192 118.39702391899482,132.5031192532524 118.41587678754149,132.70209023122698 118.49577703995237,132.7830262528887 118.38714860690015,132.91566974222224 118.30455508755404,132.9763703135186 118.19143787627763,133.17083405597077 118.38355758431862,133.25738585964064 118.3503406254531,133.43048683792313 118.34764735851422,133.43273487951592 118.38445533996128,133.25626181586085 118.18964236498869,133.1876948656818 118.30006630932985,132.9763703135186 118.43113863351027,133.03145008849788 118.64480447702954,133.17645432957033 118.78485435765833,133.28211478543744 118.97517855441038,133.29447922150757 119.35403143662552,133.23040876808864 119.3881461511337,133.16408972277623 119.20320848825577,133.15060104042368 119.56500401321318,133.1101348656439 119.56051523498536,133.06742036221385 119.3100414100154,133.05617966793943 119.29029078582607,133.02358157094568 119.58295912611356,133.00559636076832 119.65298406642614,132.9954796634156 119.71852022851454,133.00559636076832 119.75622596561152,133.10563861217724 119.81009130431266,133.05168338608928 119.88729828978467,133.04943524427836 119.81906886076104,133.15734538426113 119.79393170270123,133.3192080399931 120.04979206154167,133.7631905634389 119.94385689542469,133.97337171624895 119.74635065351322,133.81826526886744 119.59193668256194,133.68226382194734 119.31542794388588,133.80028173059418 119.28669976324454,133.92391779222817 119.34146285759562,134.14870605088254 119.23462993583598,134.16668885625404 119.22206135680244,134.11386425783985 119.21487931163938,134.15207782976904 119.15293417213252,134.11274032666734 119.0577720737565,134.11049246388302 118.6914877705749,134.40608134944614 118.67981694718401,134.37910788246973 118.68610123670442,134.333028012863 118.69597654879908,134.1408385616396 118.69866981573432,134.14308641644766 118.74086433105549,134.01832958074556 118.71303390605681,133.9565124561077 118.75253515443546,133.92166987979635 118.70226083831221,133.9722477666055 118.74355759798709,134.01270986061263 118.71123839476422,134.19478691392032 118.67891919154499,134.3026825972538 118.6914877705749,134.40720524205426 118.99852020118124,134.15882138355755 119.14664988261575,134.1082446005048 119.16999152939024,134.1812998577634 119.19602644309634,134.18916730977435 119.20051522132053,134.1768041676496 119.19602644309634,134.18242377992465 119.30465487614856,134.1678127803334 119.3360763237215,134.0363126603488 119.32260998904894,133.7912899472758 119.63233568659416,133.6721479253938 119.74186187528903,133.81489335832157 120.01029081315937,133.9992225172191 120.21677461152285,133.94302502405935 120.2930838413522,133.79241392070617 120.5462509332574,133.8699677306704 120.7994180251626,134.0385605426436 120.92779708240778,133.8699677306704 121.18635070818345,133.8497363698134 121.55083950006883,133.8193892387526 121.83273477262264,134.04080842433996 122.13168740242327,134.11498818886594 122.07782206372212,134.08688986893503 122.09308390968727,133.9722477666055 122.15682456048671,133.86659584051995 122.19183703064482,133.77443032805513 122.50425599512164,133.46533141622513 122.86605152007905,133.38664990863435 123.20450539826197,133.1281198558645 124.47662514730837,132.8988083959166 125.27472991575996,132.64138771201124 125.98575238664853,132.28166023191807 126.1563259592076,131.71505874431386 127.02266015668283,131.53180458828228 127.01637586717334,130.03864265880566 127.01547811152341,129.6495681518718 127.02804669055331,129.31333053085473 126.59083969141284,128.99394876013866 126.08450550760244,128.67343039845673 126.01088954471197,128.43837595421428 125.91842071326755,128.08072089508096 125.5988197036313,127.71405267314276 125.57188703427528,127.50709187809571 125.62036583910958,126.71744536646474 125.60779726007604,126.40809099461876 125.19752293028432,125.77697330878618 124.94256032709018,125.4608344295566 124.69208650212386,125.29432241112227 124.61487951664458,125.01754524613898 124.54754784327088,123.78656568927272 124.26206154813917,123.55700323522615 123.6462011756339,123.52324352979394 122.23133827902711,123.31730643348601 121.4188694202494,123.13499731436605 121.22854522350463,122.77149281154016 121.06425594045504,122.49801017215123 120.63512874212029,122.49238286527907 120.30116364215792,122.73885542647895 119.89896911317192,123.16088094514089 119.51293418580099,122.921173012297 119.28580200759825,122.5914229239279 118.63044038671069,121.84296671349603 118.39702391899482,121.73041122577797 117.6590687787575,120.43704205363247 117.44630069088453,119.41594102680574 117.24879444896942,119.1930162671897 117.04769718448006,118.86649978208789 116.07632557653051,116.25954882845599 116.09607620071984,116.11313051615161 116.51802135389516,116.09173070585894 116.70206126113044,115.51842103699073 116.84570216433713,115.33369221600242 115.5870487499742,115.31003762636738 115.30246021048879,115.24808481833679 115.06635047584132,114.89776136977343 114.83293400812909,114.84932323158682 114.44510356946193,114.08666785154219 113.90285915984714,113.55490905878742 112.80400625030234,113.10311330963759 112.17378178747458,113.1594482526707 111.19253486743037,112.0169027124748 111.1889438448452,112.07211800596178 111.17817077710788,112.0664838087514 111.17906853275053,112.06197644829808 111.18355731097836,112.07775219944415 111.15303361904807,112.08113271373713" stroke="red" stroke-linecap="round" stroke-linejoin="round" stroke-width="0.5"><title>2025-05-03 98.8km</title><desc>1746244765000</desc></polyline><polyline fill="none" points="169.8865269323469,112.17738403839166 169.6040345401343,112.27504312651308 169.54690124732952,112.28301524095514 169.21600425982615,112.13851935442335 169.0009608938417,112.0 168.8454313745351,112.01395170527348 168.7740147585282,112.12257481055212 168.6097565417149,112.20329371605567 168.51056679725298,112.29497339675436 168.39788724755272,112.43448380869995 168.1487226094796,113.01741001590563 168.08603469098307,113.12601862105384 168.03128195204408,113.15591062233807 167.97573569515225,113.22167260677952 167.53136563998487,113.25754253764217 167.3187028278735,113.28942677695477 166.80132912079353,113.30736160214201 166.60215611392414,113.12502221896602 165.21826079927996,112.892856931614 164.6961259844611,113.78859676827369 164.36205492513545,114.21201838633988 164.21128651356412,114.4560976616649 164.15256618484636,114.56767412034696 163.93355522908678,115.10162425526141 163.7208924169754,115.32575247473551 163.5796462208673,115.66043818253138 163.34159083417399,116.09371452501819 163.24002053585355,116.2421183849915 163.34079731622114,116.40745078143345 163.22573721265144,116.61460913763722 163.1344826477507,116.81877405186242 163.17495206348758,117.08965748392939 163.15114652482225,117.695126366958 163.13924375548595,117.73794551257697 162.73534311606272,118.32942227229523 162.59330340200177,118.60025133409408 162.48935254980825,118.65800038824136 162.18305461893397,118.91189183598453 161.9632501452179,119.18170434170588 161.69742163007322,119.40371992590417 161.787089159061,119.64962192205076 161.77518638972833,119.70039420833973 161.48793288978413,119.7352377361085 161.40937461217982,119.7193092862799 161.39191721715179,119.83877183861296 161.64028833727207,120.42212007633725 162.2441555015139,122.1370614618445 162.40285909265003,122.42666189375404 162.58536822244423,122.61076634575011 162.73534311606272,122.8685050207273 162.88849208149986,123.08344636249194 162.95117999999638,123.24265821818699 163.0487827085417,123.34116886920265 162.80675973206962,123.62276292083197 162.97181146684306,123.89340170402693 163.04481511876293,124.0446367909326 163.29397975683605,124.4724564566227 163.47490185072456,124.7062546168454 163.53203514352936,124.74306473023762 163.64471469322962,124.78285924520469 163.88277007992292,124.98282350273485 164.0644856917679,125.11414042809247 164.40490489474178,125.32105942594126 164.4239493256755,125.72692250334921 164.49377890577307,125.82042707643905 164.6397862096128,125.89801509717381 164.84689439603608,125.9159199116475 164.97941189463018,125.97062880354952 165.06749238770135,125.69011719375249 165.08653681864234,125.66922761377873 165.16112750647153,125.6761908135336 165.194455260611,125.65132221345038 165.2349246763515,125.60655852658601 165.3079283282641,125.47425540954282 165.39124771361094,125.38074654296724 165.62930310030424,125.24545506597451 165.77372336822737,125.20168377417076 165.88084829224317,125.19273052408016 165.9086214206909,125.22456425386235 166.16889531014385,125.40163692228361 166.4632904716891,125.717969877011 166.8227541055967,126.00444864726751 167.36155279747982,126.23521529664094 167.76069232917143,126.47492662203467 168.29869750309808,126.26903395363252 168.3637659754604,126.27997525135879 168.55103621298986,126.26903395363252 168.71608794776694,126.29887381913295 168.817658246091,126.37844621650584 168.90573873916946,126.540572377829 168.98429701677742,126.74347382830774 169.01207014522151,126.8747600931456 169.17791539795144,127.29247391334184 169.15728393110476,127.49237162815143 169.16125152088352,127.65646280774581 169.1334783924358,127.80265012460268 169.14855523359438,127.90507900553484 169.2144172239132,127.99656770378624 169.26916996285217,128.22429018883258 169.25964774738532,128.65585018897946 169.70322428458894,128.92531407520892 169.73258444894964,129.7028275064199 169.8127297624742,130.0000908837651 169.83336122931723,130.152197715488 169.82701308567266,130.24763573099972 169.87621119891992,130.37488454108188 169.86748250140954,130.4096787640765 169.83415474727008,130.42956110520117 169.82780660362914,130.48920781432753 169.84447048069705,130.54587175140614 169.9111259889687,130.63534025965055 169.94445374310817,130.75462995435964 170.5070579736639,130.95045978213102 170.56736533829098,131.01308449250155 170.6554458313658,131.1870392954056 170.65861990318808,131.32918224407422 170.75146150399814,131.4275873330489 170.7966920274739,131.52300922467612 170.815736458404,131.57867143782414 170.81256238658534,131.61047823251556 170.7966920274739,131.62538762139957 170.81256238658534,131.71484333639592 171.06490109648075,132.058740993416 171.0704557221652,132.23366558353882 171.14107882021926,132.66201493990775 171.11013161995288,132.79816730287484 171.2553454058325,132.8587890980425 171.3902434582924,132.88264016274888 171.66400715299096,132.88363395547503 172.20836047056582,132.93133585262785 172.519419509179,132.93630478292016 172.52735468873288,132.9204041944763 172.55988892491587,132.9204041944763 173.3811800090116,133.58124418477655 173.4121272092816,133.58820008768498 173.53750304627465,134.1774411796082 173.89220557244698,135.5067910533544 173.93108795227454,135.86243693883353 174.07709525611426,136.34124099808196 174.11121652820293,136.5885781011607 174.1643822312326,136.67002870894385 174.26357197569087,136.76836424886187 174.30721546325003,136.79021641733334 174.4294172284208,136.81504835028318 174.51353013171683,136.81504835028318 174.56510879883353,136.8388869291657 175.21182593268531,136.7614112729152 175.23007684566255,136.80610886381646 175.23166388157915,137.06832940693585 175.2562629382046,137.11401841952738 175.31498326691872,137.13288988761997 176.8837682652338,137.12891695088274 177.0162857638279,137.14480868530063 177.16388010357696,137.1825514206489 177.22656802207348,137.17361236878196 177.3455957154183,137.21830752242386 177.42812158280867,137.2322126274389 177.6185658921604,137.21532785373347 177.4495465676082,138.1488999163994 177.49160301925804,138.17472048414902 177.60031497917953,138.1816721604023 177.50191875268138,138.47760902224854 177.50906041428243,138.51037984165123 177.8169453810733,138.5828723618297 177.9351795564653,138.6424547348115 178.02008597771783,138.6583432883158 178.07959982439206,138.68614817663365 177.63443625127547,139.57882937011846 177.64475198469881,139.5917372241679 177.8137713092474,139.60166632767687 177.83360925814122,139.69599216096367 177.86773053023353,139.71088560606222 177.92486382303832,139.77641641611444 177.9312119666829,139.80818872572672 177.97882304402447,139.82506771092494 177.99548692109238,139.86378994641836 178.1930728920488,139.79329547221278 177.96850731060113,142.2016500127247 177.86534997636772,142.9817686970846 177.85582776089723,143.1355994053124 177.89232958685898,143.36485098274215 178.16053865586946,144.272857212075 178.21211732298252,144.41971574898525 178.3255903906429,144.65785867378509 178.3033718878869,144.69159498251656 177.9034388382388,144.84539095628043 178.008976726338,145.31767390850337 178.1478423685803,145.70063804113806 178.15895161996013,146.02207485380677 178.3605051806917,146.45460410110672 178.42081254531877,146.5488445826486 178.53269857706618,146.65300375104562 178.56999392098078,146.74327387202948 178.55333004391287,147.32058042119843 178.60808278285185,147.90081845703253 178.17799605089021,147.9781801719114 177.8137713092474,147.9563602810058 177.61618533829096,148.0 177.3979679004915,147.6082253424629 177.2210133963854,147.60921720261376 176.97660986604023,147.57846947762573 176.87900715749493,147.60624162177828 176.77981741304393,147.5586321694891 176.49970557469715,147.55069723169618 176.28704276258577,147.50110368222977 176.05374848362408,147.4852336778531 175.72523204999015,147.42076144329303 175.3967156163526,147.4574610902191 175.29435180007204,147.55466470163037 175.32609251829854,147.577477613454 175.33878880558768,147.56160776901925 175.35148509288047,147.56458336738388 175.33958232354416,147.56061590264062 175.35545268265923,147.56656709897652 175.35862675448152,147.5923555624231" stroke="red" stroke-linecap="round" stroke-linejoin="round" stroke-width="0.5"><title>2025-05-03 66.9km</title><desc>1746236322000</desc></polyline><polyline fill="none" points="45.7711531779496,152.43272129099932 45.109940234106034,152.0 44.3752591854427,152.72120175982127 43.909961187979206,152.2019366902532 38.81617258384358,154.76940407414804 39.01208753034007,155.8656185391883 38.37536395480856,158.0291864372848 38.54678953276016,158.63498228919343 37.51823606470134,160.59659746749094 35.436639760038815,161.80817607257632 34.16319260909222,163.1351367722964 34.04074576776475,163.79861463516136 33.5999371384969,163.74092097385437 32.35097935574595,165.09671870211605 30.90610662684776,165.15441206886317 30.367340524448082,166.01981106615858 29.559191370848566,166.27943021530518 25.444977498380467,170.69291691150283 23.681742981658317,170.86599332632613 22.947061932994984,170.5198403839604 21.600146677112207,167.46213646017713 20.71852941880934,167.80829338895273 19.46957163605839,165.789038276067 17.902252065599896,164.89479181967909 13.249272090848535,170.57753257238073 13.07784651266411,172.3371382970945 13.298250827356242,173.05828481548815 14.277825558907352,173.51981755939778 14.326804295415059,176.40437903389102 15.62474081479013,178.94276721109054 15.502293973229825,179.46197998535354 15.404336500214413,179.1446834105882 16.72676238778513,178.16394614623277 18.196124485111795,175.71208713788656 20.228742053033784,175.42363164844573 21.52667857229244,176.98128756857477 22.579721408663318,180.06772693881067 23.363381193950772,180.99076725851046 25.81231802282855,181.50997602843563 28.0898292735219,182.6926144368481 30.685702312155627,182.23109763581306 31.567319570458494,182.98106203012867 31.73874514864292,184.42329529707786 30.80814915371593,188.0 32.546894302009605,186.1251204777509 33.69789461174514,185.9808984278061 34.99583113088738,186.55778615770396 39.40391742286738,183.6444903058582 41.99979046150111,181.10614707288914 43.12630140280817,180.7600074794027 43.4446631903993,177.61588550900342 45.967068124213256,177.8754933203163 46.922153487452306,176.7793697239831 45.69768507301342,168.87560774481972 44.3752591854427,165.55826528530451 45.50177012674976,164.00054235130665 45.575238231685944,163.1928305653273 43.83649308315944,160.22158392160782 44.693620973150246,156.41372407434392 45.599727599765174,154.2212951441761 46.16298307047691,153.81742468220182" stroke="#4dd2ff" stroke-linecap="round" stroke-linejoin="round" stroke-width="0.5"><title>2025-04-28 5.2km</title><desc>1745795058000</desc></polyline><polyline fill="none" points="71.02370948821772,186.39298789022723 71.14066196861677,188.0 71.06269364838954,187.26536740845768 70.55589956673793,187.12762351337005 71.12116988853086,187.19649547207518 70.84828076767735,185.01553921560117 72.1932342920918,184.0972351127566 71.27710652898531,183.36258895817446 70.78980452741962,182.37540416752745 70.65335996693466,180.95201333015575 71.29659860907122,180.40102075542381 72.05678973149043,178.83986732714402 73.51869573642034,177.1868687767128 77.10523846803699,174.75326405219676 78.78155735356268,173.1231923878222 80.06803463783581,172.45738485248876 80.12651087797713,170.11556237650802 81.7833376834169,170.57474529923638 82.7774337666342,169.77117452984385 81.7443535233615,163.13585911897826 80.80873368028551,160.58729159721406 81.68587728310376,159.46223849819216 81.72486144315917,158.63566505772178 81.62740104296245,158.06165382187464 80.41889207903296,156.70698112333775 80.75025744002778,154.06649242872663 81.68587728310376,152.0" stroke="#4dd2ff" stroke-linecap="round" stroke-linejoin="round" stroke-width="0.5"><title>2025-04-27 2.3km</title><desc>1745711220000</desc></polyline><polyline fill="none" points="109.2780670814609,152.06161120012075 110.01674515003833,152.0 110.48473765705421,152.12322218421286 111.2804879825926,152.15595293164552 111.4875787435376,152.2522194825051 112.25560825855064,152.76819920631715 112.3909510393205,152.98190278944458 112.80350192531478,153.89637075253268 112.81654701261868,154.05615711332757 112.90949325964903,154.1581886078875 113.18507072894863,154.6529367014773 113.4166210285839,154.91089321946674 114.38032685314829,155.7444134047546 114.79940028278361,156.1698207156296 114.8890852580007,156.32766153416196 114.72602166670549,156.4585528455318 114.54502108036831,156.50282468620935 113.9531002439544,156.81849892771788 113.07744875868957,157.14956582420382 112.50183428140008,157.44020662448747 111.56747990327858,158.11578356745667 111.1239469349457,158.53920887701315 110.87772091208899,158.8336759234644 110.63964806879085,159.1781768640176 110.19448446455499,159.90757279081663 110.12273648437986,160.0807758232604 110.12110584847687,160.20394138662232 109.82922202004556,160.96985788006896 109.70692432657233,161.14497480709724 109.55201391484297,161.54715983264396 109.33676997432485,161.95318419381329 108.50025375097175,163.12694600967734 108.17738784020912,163.52138937357086 107.91648609413096,163.89081123936194 107.92790054552461,163.92159604486187 108.00617106934078,163.8677225999054 108.49046993549564,163.21160776943907 108.56384855158103,163.18659411007866 108.62907398810057,163.21353189560614 109.31883297928289,163.66377163597826 109.55201391484297,163.77344367445403 110.93642380495294,164.62193582524924 115.66689858848986,168.11167536802532 116.23762115803402,168.58487235718167 118.13568136073445,169.804353969148 118.78956636183284,170.089015756952 119.52498315858247,170.28327555276337 119.94894849594857,170.32558928359867 121.01049247530318,170.63139913514715 121.22899768764182,170.66986540731887 121.2501959545043,170.64101571106403 121.86168442187773,170.84873246972893 122.32641565706581,171.08337252940328 122.69820064523083,171.33531862284508 122.72918272756942,171.2910840732693 122.75364226626698,171.30070028914997 123.01780528416566,171.50263961029486 123.0797694488574,171.47956094786787 123.08466135660274,171.45455902946378 123.3390405590253,171.5584129197141 123.47112206798192,171.7026534185552 123.64396947475325,171.73342457217404 123.75159144500503,171.79304352938925 123.79398797874455,171.844969553591 123.77278971188207,171.81996815363527 123.78094289144065,171.9180503654825 123.8494295997807,171.88150999742356 123.90160994900361,171.89689542478663 124.56527876557811,172.2622953769078 124.62724293026986,172.32191254492682 124.62887356618012,172.2969118216006 124.79030652156507,172.3526826172456 124.95010884103976,172.36999075932 125.16209150972281,172.43922315763302 125.14578515059839,172.45268498127552 125.40668689667655,172.50845528396349 125.47843487685168,172.5642254101749 125.52735395423224,172.74115015978896 125.57464239570254,172.78730415020073 125.77194934117142,172.7776887455002 126.12905860612227,173.00268784068976 127.3112696430253,173.37383391746698 127.5281442194464,173.4795995032655 127.44987369563023,173.48536851696372 127.31290027894283,173.4488313983038 127.32105345850141,173.42960130543725 127.20527830868377,173.50267554673337 126.98188118860708,173.96803597571852 126.83675459235383,174.18340523878032 126.46496960419609,174.59106128281383 126.31332046428724,174.90641137846978 126.2089597658487,175.01985911857628 126.15841005255788,175.12561482900855 125.97577883030317,175.30443667798863 125.71324644831475,175.65053833020647 125.26645220816135,176.06585134528177 125.0658839908574,176.3600254792218 125.06425335494714,176.4138607371915 125.09034352955496,176.41001536706972 138.6507117818328,187.9404357854928 138.6702794127923,187.93275006576187 138.65234241775033,187.95772864265564 138.686585771924,187.96925720469335 138.6800632282684,187.9404357854928 138.75018057253328,188.0" stroke="#ffc800" stroke-linecap="round" stroke-linejoin="round" stroke-width="0.5"><title>2025-04-20 36.9km</title><desc>1745145130000</desc></polyline><polyline fill="none" points="161.9510896356078,153.32269179082505 161.67811669813818,153.27800660520734 161.534047647845,153.42099911352852 161.21557922082138,153.42099911352852 161.41272634229972,153.31375475566165 161.44305666867876,153.13501384784468 161.17008373123826,152.78646795808163 161.21557922082138,152.63453723524435 161.10184049684904,152.8043421422626 161.3217353631626,153.07245443813736 161.73877735089627,153.04564324796956 161.62503862701124,153.51036930467671 161.117005660024,153.58186538759765 160.4876513875497,153.29588068237354 160.6544681827072,152.49154335686762 160.94260628335178,152.0 161.8297683300625,152.16980621971743 162.31505355224363,152.93839839966677 161.41272634229972,153.93040789989027 160.95777144652675,154.06446231823793 161.00326693610987,154.2163903943656 160.83645014098147,154.0376514520758 160.29050426604226,153.9572188010643 160.32841717405245,154.28788586229348 160.79095465142746,155.02071081836766 161.4506392502808,157.2370196536067 161.7463599325274,157.7017219822883 170.8151275216078,160.59711569985666 171.62646375241457,160.71328677386919 172.2634006064909,160.64179690159654 172.4302174016193,160.86520254567586 173.6434304570139,163.64431794161646 175.51632811126183,170.30130189255578 178.7389252896828,178.65527665150876 179.70949573398684,182.0055625965033 179.61092217327678,182.264645684867 176.9342708697368,183.13122800934798 177.0631747569132,183.72978984480142 179.42135763334227,187.803468002734 179.36069698055508,188.0 179.16354985904763,187.67840194155724" stroke="#4dd2ff" stroke-linecap="round" stroke-linejoin="round" stroke-width="0.5"><title>2025-04-16 7.1km</title><desc>1744770713000</desc></polyline><polyline fill="none" points="18.10752688185312,197.9896598541236 17.849462365498766,198.96570975740906 18.666666666977108,200.32133071753196 17.72043010778725,201.35159960997407 18.5376344085671,201.40582421576255 39.82795698940754,221.35998589202063 40.602150537772104,220.65510020541842 40.00000000023283,219.84176904158085 40.73118279594928,217.88976757909404 42.236559139797464,216.91376331742504 41.03225806471892,221.7937610890367 43.44086021534167,222.55286656488897 45.16129032289609,218.97421399847372 45.505376344313845,219.3537695586565 45.4623655914329,217.3475432798732 47.139784946339205,217.3475432798732 46.9247311828658,215.99197935321718 48.0,216.10042463443824 46.967741935513914,225.10128167746007 47.48387096798979,225.31816732892185 46.70967741939239,226.40259384352248 47.225806451868266,225.10128167746007 46.494623655918986,223.69152210906032 45.591397849610075,225.04706024640473 44.043010752880946,224.3421809815045 40.64516129042022,224.61328853637679 32.73118279571645,216.69687316173804 31.698924731230363,217.022208351671 32.47311827959493,216.37153771030717 24.25806451612152,208.67185568722198 20.81720430124551,209.6478798262251 19.311827956931666,208.23806642534328 19.397849462460726,207.3704865067266 18.967741935513914,208.7803029298957 17.37634408613667,209.4309857765038 16.215053763706237,209.26831516300444 16.00000000023283,208.50918476859806 15.26881720428355,210.51545486255782 14.967741935746744,209.8647737595311 13.419354839017615,210.46123147729668 14.36559139797464,208.12961903732503 13.075268817367032,205.85221717352397 12.0,200.21288120769896 12.688172043068334,199.72485805448378 14.27956989267841,200.32133071753196 18.236559139797464,198.85725988441845 17.591397849842906,196.41713005842757 16.516129032475874,195.87487698771292 17.54838709696196,195.7664262864855 16.64516129042022,193.59740615644841 17.505376344081014,194.3023389739392 17.63440860225819,196.0375529853045 16.946236559422687,196.57980583785684 17.161290322663262,194.13966227893252" stroke="#4dd2ff" stroke-linecap="round" stroke-linejoin="round" stroke-width="0.5"><title>2025-04-07 2.7km</title><desc>1743986187000</desc></polyline><polyline fill="none" points="77.98803697666153,210.31479699825286 75.3159325721208,210.092678004381 76.81348558992613,209.05612033832585 78.54594888514839,209.01910034980392 79.80859162576962,207.68637745740125 79.42686242528725,207.16809459630167 78.31103860784788,207.35319572972367 73.99456226208713,202.5405259533436 69.9423599782167,202.8737134852563 68.32735182158649,203.61412878418923 67.41707449697424,204.76176857584505 66.154431756353,203.3549836552993 65.42033713974524,203.13285906560486 64.36324089183472,203.6511494969891 61.77922784141265,201.6520239036763 58.66666666662786,203.3179629028309 60.31103860796429,201.98521250707563 62.10222947248258,201.5779819371819 64.09896682982799,203.46604588313494 65.65524741704576,203.09583828336326 67.41707449697424,204.72474801185308 68.47417074500117,203.57710806638352 70.32408917904831,202.83669266826473 74.28820010868367,202.61456766183255 79.01576943998225,208.4267798580113 78.31103860784788,209.05612033832585 75.84448069601785,209.09314032195834 73.93583469267469,210.24075735348742 79.1038607939845,210.35181681319955 83.86079390975647,209.2042002431408 85.03534529637545,212.38789899626863 85.97498640557751,212.79511363228085 90.3501903207507,212.64703565227683 94.63730288192164,216.53405632500653 94.66666666662786,216.94126484979643 92.84611201717053,217.71866127621615 90.46764545945916,218.01481172046624 90.29146275145467,218.4220180628181 90.64382816734724,217.97779293224448" stroke="#4dd2ff" stroke-linecap="round" stroke-linejoin="round" stroke-width="0.5"><title>2025-04-04 2.7km</title><desc>1743741381000</desc></polyline><polyline fill="none" points="138.3063091475051,208.66781531918969 136.5689867628971,209.79870886838762 135.97463963145856,209.63715296293958 135.38029249978717,210.5526350345026 133.68868912546895,211.0373006446316 133.3686560546048,210.7141903431475 134.14587922673672,209.39481890741445 133.82584615575615,209.0178543501097 130.67123445752077,209.6102269685216 129.57397821475752,209.47559695223754 128.33956494147424,208.58703701102058 127.53948226431385,206.8099075720238 127.67663929471746,206.35216004677932 129.16250712354667,205.73285322572337 128.95677157805767,203.33639051210776 127.92809385037981,202.20546747568005 126.25934998097364,201.9361993255443 125.59642433433328,202.9324900201027 125.00207720277831,202.58244239454507 122.7847052118741,205.5443682338955 120.84164728189353,207.24072800010617 120.20158114016522,207.4292117018922 118.66999430116266,207.0253178797575 118.00706865440588,205.32895663917589 117.6413165734848,208.72166750996257 118.25852321006823,210.41800553018402 117.82419261394534,210.06796847666556 117.84705211909022,209.4486709402554 118.41853974550031,209.42174492524646 119.58437450346537,210.33722779249365 119.81296955421567,211.09115232058684 121.55029193870723,212.32973763835616 120.7959282718366,212.81439977366244 120.95594480715226,213.24520976482017 117.91563063417561,214.07990199222695 117.43558102787938,212.92210234161757 115.97257270419504,211.25270727819589 115.88113468384836,204.95198589786014 114.3495478448458,205.1943242973357 112.97797754127532,204.06340973898477 112.20075436925981,204.2788224336109 114.00665526895318,201.74771144622355 115.56110161310062,202.5555156336195 116.68121736100875,204.4403818317951 118.23566370503977,203.17483039427316 120.13300262507983,202.95941674000642 121.77888698934112,201.209173858515 122.4418126360979,201.10146620053274 122.69326719164383,201.82849198345502 122.28179610066582,200.5898541859642 122.71612669667229,200.10516814526636 121.91604401962832,200.2128762361972 121.80174649436958,200.69756206628517 121.4359944134485,200.26673026416393 122.46467214112636,199.70126238727244 121.09310183743946,200.34751128411153 121.18453985778615,200.80526989979262 121.55029193870723,200.5898541859642 122.16749857540708,200.912977686472 120.27015965536702,202.8786365713895 118.18994469486643,203.22868377859413 116.84123389644083,204.4403818317951 115.44680408784188,202.50166210305179 113.80091972346418,201.77463829495537 112.08645684388466,204.49423494112852 109.75478732783813,206.9983916015044 109.73192782280967,209.31404083620873 110.64630802522879,209.74485691160953 110.64630802522879,210.68726446577057 109.1375806912547,210.63341270197998 108.10890296346042,208.10236660962983 108.36035751923919,209.0178543501097 108.1317624686053,209.98719062490272 107.81172939774115,210.3641537079675 107.0573657307541,210.0948944214324 106.5544566194294,211.97970328462543 107.1945227610413,215.5608006393595 108.17748147877865,216.61088704627764 108.79468811536208,218.253320967342 108.63467157981358,219.76111957611283 107.69743187248241,220.48809062830696 107.44597731670365,219.68034488313424 107.65171286230907,219.3841707837273 108.22320048871916,219.73419468135398 107.65171286230907,220.78426340864098 108.58895256975666,222.0766495821008 109.1375806912547,225.3614341133507 113.00083704630379,227.649987773475 116.24688676488586,228.0 117.48130003805272,227.89230398290965 120.77306876669172,225.84607076935936 125.45926730392966,226.92303772401647 126.55652354680933,226.49225150363054 129.6654162349878,222.5612926599715 129.20822613372002,221.72662899216812 127.47090374911204,221.43045733762847 127.08229216316249,220.97273681199295 126.67082107206807,218.8725965058693 128.75103603256866,217.49941822366964 129.48254019452725,215.964680553152 130.4426394070033,215.2915469980362 130.12260633613914,213.97219992727332 128.7281765275402,213.05673048582685 129.27680464903824,210.04104252895922 129.89401128550526,209.39481890741445 131.6541931751417,209.23326273872226 134.28303625702392,208.15621892317722 135.2202759644715,208.45240643904253 135.7917635908816,209.50252296129474 136.4546892377548,209.69100494305894 138.8777967740316,207.9946619472612 140.11221004719846,207.67154767927423 139.883614996681,205.43666245989152 138.71778023859952,202.20546747568005 139.74645796627738,201.10146620053274 139.883614996681,200.07824111523223 138.1691521172179,197.65479642967694 138.55776370316744,195.23132804548368 139.92933400673792,192.0" stroke="#4dd2ff" stroke-linecap="round" stroke-linejoin="round" stroke-width="0.5"><title>2025-04-01 8.4km</title><desc>1743465137000</desc></polyline><polyline fill="none" points="163.19626368465833,204.27769491256913 162.44029298308305,204.00023560452973 163.77777960896492,203.79214104096172 164.7663566803094,204.90197789506055 165.58047897485085,202.47420715889893 164.88265986554325,201.29500075039687 160.98650317196734,200.39325313828886 159.53271336085163,196.43942097836407 156.74143692362122,197.41054001892917 155.81101144454442,195.3295687569771 162.78920253762044,192.0 161.91692865104415,192.97112609469332 164.06853757123463,194.28908046905417 161.10280635673553,195.53766620205715 164.53375031077303,194.21971452009166 174.94288535765372,211.28350069769658 178.37382931169122,209.82685462210793 179.24610319826752,210.3817678221385 180.8743477864191,213.22569006483536 179.94392230757512,212.04650439933175 178.66458727396093,213.8499639077345 180.64174141688272,212.323960054724 181.1651057486888,212.8788709876826 179.071648420766,213.01759864203632 183.20041148434393,218.35858939832542 178.78089045872912,220.16203028248856 179.30425479076803,222.93654432945186 180.93249937915243,222.7978189261048 180.69989300938323,223.49144562747097 174.47767261811532,223.63017087313347 174.53582421084866,222.6590934912674 175.34994650445879,223.63017087313347 174.7684305801522,222.4510052803089 177.03634268557653,225.01742159953574 181.68847008049488,225.15614649903728 180.81619619415142,225.15614649903728 181.9210764504969,223.2833576995763 181.8047732654959,219.95394122129073 183.08410829934292,220.57820819230983 184.1889885556884,221.82674022187712 183.8982305934187,223.00590701925103 181.51401530345902,222.31227976683294 177.44340383261442,225.08678405330284 179.65316434553824,225.2255089370883 183.14225989184342,228.0" stroke="#4dd2ff" stroke-linecap="round" stroke-linejoin="round" stroke-width="0.5"><title>2025-03-30 2.1km</title><desc>1743318651000</desc></polyline><polyline fill="none" points="40.411782967625186,232.9935402594856 40.26479309052229,232.0 37.27599892113358,233.11042722285492 37.47198542393744,234.39618206844898 34.43419462861493,235.03905828751158 34.532187880249694,236.85079604166094 32.866302605485544,237.72744105401216 32.866302605485544,238.5456417190726 32.37633634824306,238.07809864101 32.278343096608296,239.1300699696876 31.78837683936581,236.5001376188593 32.22934647090733,237.02612516348017 31.396403833525255,237.55211217078613 24.97784586297348,238.37031311448663 25.614801997551695,238.48719885747414 25.56580537185073,240.591137694777 23.89992009708658,239.88982570404187 20.22517316741869,240.591137694777 20.127179916016757,242.28597106295638 22.185038196388632,242.05220127484063 23.507947091478854,248.5977152340347 23.262963962508366,247.19511210295605 24.144903225591406,246.43536714534275 20.372163044521585,247.77953053853707 19.63721365854144,249.0652487622574 19.588217032607645,247.66264690441312 22.87099095666781,246.43536714534275 24.242896476993337,247.66264690441312 23.507947091478854,248.42239005159354 24.487879605730996,262.9741771002882 24.683866108534858,265.0195760586066 25.859785126056522,265.8961731256568 23.21396733704023,266.2468115349184 23.21396733704023,268.0 22.381024699425325,267.298725330038" stroke="#4dd2ff" stroke-linecap="round" stroke-linejoin="round" stroke-width="0.5"><title>2025-03-30 1.4km</title><desc>1743309591000</desc></polyline><polyline fill="none" points="82.40367768739816,237.03417586442083 82.11876969097648,239.01731127264793 83.56921040033922,240.57330001794617 83.931820577709,241.85469603992533 83.77641621616203,242.7699753328634 82.76628786488436,243.9598339535878 84.3203314821003,249.87854294732097 83.43970676569734,250.5497288753977 82.58498277608305,250.33616989041911 82.01516678300686,251.28192987659713 80.66832898138091,252.1361619652016 79.52869699534494,252.25819490858703 78.85527809441555,253.44801332760835 81.54895369790029,256.25474449872854 81.78206024039537,259.7936264294549 79.76180353784002,260.89189106511185 78.13005773967598,262.63080128849833 72.69090507912915,266.4441632080416 72.17289053997956,267.4203755357885 71.88798254332505,266.1085894367425 70.4116411069408,265.74250850171666 68.49498731212225,268.0 68.23598004260566,267.32885577421985 69.42741348256823,263.9120966690534 69.11660475912504,262.63080128849833 71.42176945821848,261.1664565530664 72.25059272069484,259.3665223556163 73.41612543375231,258.63434243231313 72.87221016769763,258.08520623724326 73.41612543375231,258.4207895951986 74.4521545120515,260.12920774598024 77.71564610837959,258.115713831794 78.31136282847729,258.2987593295984 78.28546210145578,257.6886072063353 78.36316428240389,258.23774417693494 77.8451497432543,257.9326682147512 77.89695119706448,257.04794605018105 77.3530359310098,256.9564229086682 77.63794392766431,256.34626786905574 76.62781557627022,255.15646172891138 76.83502139186021,254.66833467481774 78.31136282847729,254.45477882178966 78.57037009799387,253.32598090125248 79.32149117975496,252.5632770350494 78.98478172917385,251.73955453292 81.60075515182689,253.53953761263983 82.27417405263986,253.50902952090837 83.54330967355054,254.72935060298187 84.03542348567862,256.01068203212344 84.68294165947009,255.67509579428588 85.0973532908829,254.4852868107846 84.03542348567862,248.07853640199755 82.50728059536777,244.02085220839945 83.77641621616203,242.7699753328634 83.95772130473051,241.27501761144958 82.17057114478666,238.74272412844584 82.45547914132476,235.75275784396217 84.4498351168586,232.0" stroke="#4dd2ff" stroke-linecap="round" stroke-linejoin="round" stroke-width="0.5"><title>2025-03-26 3.9km</title><desc>1742943197000</desc></polyline><polyline fill="none" points="122.66586855903734,233.57548975831014 122.51129776914604,232.99504806814366 123.1857884885394,233.06138437378104 123.25604793842649,232.6467819872487 122.56750532903243,232.0 122.42698642925825,232.3150992615847 122.08974106947426,232.21559430235357 120.57213695085375,234.6866147946712 120.57213695085375,235.0514600454626 120.40351427101996,234.98512461064092 120.27704726118827,235.79773168727115 119.6166084317374,237.124427757808 119.7290235516266,237.53901789891825 121.35904279019451,238.50086265998834 122.55345343914814,239.59536824132374 122.37077886925545,240.04311824718025 122.17405240942026,239.81095174251823 122.18810429947916,240.7396156280738 121.92111838969868,241.17077906991472 122.37077886925545,241.452692965162 122.35672697925474,242.16576694851392 121.99137783958577,242.43109594671114 121.79465137980878,242.23209924162074 121.5979249199736,242.84567157682613 121.16231633030111,242.72959051463113 121.02179743046872,243.02808449491567 121.16231633030111,242.87883757828968 122.30051941931015,243.9401457937638 123.00311391870491,244.17230597564776 123.05932147864951,245.31651882157894 123.52303384820698,245.1672741574439 124.57692559727002,245.68133849329024 125.42003899649717,247.27326860699395 125.25141631660517,247.3893461906846 125.37788332655327,247.28985112438386 126.15073727589333,248.48378761117056 126.64255342533579,248.61644664047344 126.7128128753393,248.86518200769206 126.38961940561421,250.821886000238 127.05005823500687,251.96604867029237 126.5160864155041,252.71223706503224 125.78538813616615,257.2224531952088 125.88375136611285,257.73647666590114 124.9844304068829,257.9851970745949 125.39193521655397,257.78622078021 125.22331253666198,257.6038256144384 124.32399157749023,258.15101045381743 123.70570841809968,257.20587176394474 124.35209535749163,257.88570896002057 124.25373212754494,258.9137496631447 124.64718504715711,258.41631148345186 124.07105755776865,258.5323805379885 124.57692559727002,258.48263666835555 124.33804346749093,257.88570896002057 123.66355274809757,257.32194174487086 123.94459054787876,257.6369883881707 123.74786408804357,257.42143022926757 124.09916133771185,258.3665675757511 124.08510944765294,259.2619554181729 122.07568917958997,263.9046224292251 122.17405240942026,264.3854619623162 126.08047782594804,265.4466196758585 125.89780325605534,266.8559582865855 125.67297301627696,266.8062171467609 125.63081734633306,267.22072614668286 125.25141631660517,267.1875654684263 125.04063796682749,268.0" stroke="#4dd2ff" stroke-linecap="round" stroke-linejoin="round" stroke-width="0.5"><title>2025-03-24 3.9km</title><desc>1742796232000</desc></polyline><polyline fill="none" points="178.73730234782124,267.99746281617263 178.81050793673057,268.0 178.85357004786056,267.89343804151395 178.79974240895535,267.94925627097655 178.80189551450894,267.8376196784411 178.73945545337483,267.84776848166257 178.95261290344934,267.7944872154749 178.97199085346074,267.75642909365524 178.90093837009772,267.634642686442 178.94184737567412,267.56867478364074 178.86002936452132,267.4976322180628 178.9353880589988,267.30987582429407 178.87940731453273,267.2946522666498 178.92892874233075,267.1804752675125 178.82988588674198,267.07644684822844 178.6684029700118,267.1271924765915 178.66409675890463,267.0815214160375 178.70069955335202,267.10435695749584 178.70931197558093,267.05614856596003 178.82988588674198,267.0307756882885 178.7136181866881,267.06629770930886 178.7609865089471,267.0612231381838 178.7222306089243,266.94958229416807 165.04570411475288,232.1600894560852 165.01556063696626,232.18041819695463 165.04355100920657,232.22361671223734 165.1146034925623,232.17025382874817 165.12321591478394,232.20074692003982 165.25670845928835,232.15500726808932 165.28039262039965,232.22615779887383 165.23087119260163,232.0228699898471 165.23733050927694,232.05844548485766 165.34283268154104,232.0 165.4440286426834,232.00508222191092 165.51938733716088,232.09910312672218 165.57967429273413,232.11180862520814 165.50000938714948,232.13213740833817 165.45910038158763,232.05082216908522 165.51077491493925,232.05844548485766 165.47847833159176,232.06606879812352 165.45910038158763,232.11689082265912 165.00264200363017,232.25410973347607 165.1361345481273,232.84871564714558 165.0198668480807,232.88937190583601 164.98111094807246,232.9579791810338 164.85838393135782,232.97830722366052 164.84761840356805,233.07994716997018 164.85623082578968,233.12060302398277 164.9832640536115,233.10535708706266 165.0220199536343,233.17904568947233 164.98111094807246,233.04945523277092 164.97680473695073,233.11552104612565 164.91005846470944,233.12822598869025 164.7141258590782,233.10027510587497 164.5138870423325,233.1561768378724 164.51819325343968,233.10789807724723 164.5138870423325,233.18412765343783 164.05742866438231,233.395028177536 164.04451003103168,233.5373214253923 163.88733332542324,233.61609052711174 163.66125724200538,233.1561768378724 163.577286125299,233.19683255848213 163.5105398530577,233.17904568947233 163.5449895419515,233.2044554981694 163.5299178030691,233.10281609661433 163.4502528974699,232.99101224126935 163.48900879749272,232.97068420975847 163.37489420299244,232.8995359593937 163.3339851974306,232.79281317525783 163.36412867521722,232.7597798331808 163.22417681405204,232.65559744663733 163.13805259179935,232.70133611290112 162.8689143972515,232.61239973469674 162.63853210271918,232.50821668715798 162.51795819155814,232.47264188098416 162.3823125415147,232.31255457896805 162.10456192472338,232.1499250789784 161.99905975247384,232.16517164297147 161.76652435238066,232.42436169974098 161.58566348564636,232.43452595676172 161.5835103800855,232.46755976136046 161.47585510226781,232.48280611687187 161.19810448549833,232.37354034792952 161.2024106966055,232.26935622908968 161.02800914653926,232.1600894560852" stroke="#4dd2ff" stroke-linecap="round" stroke-linejoin="round" stroke-width="0.5"><title>2025-03-24 4.7km</title><desc>1742777725000</desc></polyline></svg>