<?xml version="1.0" encoding="utf-8" ?>
<svg baseProfile="full" height="300mm" version="1.1" viewBox="0,0,200,300" width="200mm" xmlns="http://www.w3.org/2000/svg" xmlns:ev="http://www.w3.org/2001/xml-events" xmlns:xlink="http://www.w3.org/1999/xlink"><defs /><rect fill="#222222" height="300" width="200" x="0" y="0" /><text fill="#FFFFFF" style="font-size:12px; font-family:Arial; font-weight:bold;" x="10" y="20">Over 1km Runs</text><text fill="#FFFFFF" style="font-size:4px; font-family:Arial" x="10" y="280">ATHLETE</text><text fill="#FFFFFF" style="font-size:9px; font-family:Arial" x="10" y="290">Tao</text><text fill="#FFFFFF" style="font-size:4px; font-family:Arial" x="65" y="280">SPECIAL TRACKS</text><rect fill="yellow" height="2.6" width="2.6" x="65" y="283" /><text fill="#FFFFFF" style="font-size:3px; font-family:Arial" x="70" y="285.5">Over 20.0 km</text><rect fill="red" height="2.6" width="2.6" x="65" y="287" /><text fill="#FFFFFF" style="font-size:3px; font-family:Arial" x="70" y="289.5">Over 40.0 km</text><text fill="#FFFFFF" style="font-size:4px; font-family:Arial" x="120" y="280">STATISTICS</text><text fill="#FFFFFF" style="font-size:3px; font-family:Arial" x="120" y="285">Number: 10</text><text fill="#FFFFFF" style="font-size:3px; font-family:Arial" x="120" y="290">Weekly: 2.5</text><text fill="#FFFFFF" style="font-size:3px; font-family:Arial" x="141" y="285">Total: 73.9 km</text><text fill="#FFFFFF" style="font-size:3px; font-family:Arial" x="141" y="290">Avg: 7.4 km</text><text fill="#FFFFFF" style="font-size:3px; font-family:Arial" x="167" y="285">Min: 1.4 km</text><text fill="#FFFFFF" style="font-size:3px; font-family:Arial" x="167" y="290">Max: 36.9 km</text><polyline fill="none" points="18.91710062220227,33.09241680018022 20.025117725061136,33.0 20.727106485588592,33.184833276320205 21.920731973892543,33.233929397467364 22.23136811531731,33.37832922375674 23.383412387833232,34.152298809474814 23.58642655899166,34.472854184165044 24.205252887986717,35.84455612879901 24.22482051893894,36.08423566998863 24.36423988948809,36.237282911830334 24.777606093426584,36.97940505221595 25.12493154288677,37.366339829197386 26.57049027972971,38.616620107130075 27.199100424186327,39.25473107344442 27.33362788701197,39.49149230124203 27.089032500065514,39.6878292682959 26.81753162055975,39.75423702931221 25.929650365942507,40.227748391575005 24.61617313804163,40.72434873630664 23.75275142211467,41.16030993672939 22.351219854928786,42.17367535118319 21.68592040243675,42.80881331551791 21.31658136814076,43.25051388519569 20.95947210320446,43.76726529602638 20.291726696843398,44.861359186223126 20.18410472657706,45.121163734889706 20.181658772722585,45.30591207993348 19.74383303007926,46.45478682010253 19.560386489873054,46.71746221064677 19.328020872271736,47.320739748965934 19.00515496150183,47.92977629071902 17.750380626457627,49.69041901451601 17.26608176031732,50.282084060354464 16.874729141200078,50.836216859042906 16.891850818297826,50.88239406729372 17.009256604025722,50.80158389985627 17.73570490325801,49.817411654157695 17.845772827393375,49.7798911651189 17.943610982169048,49.82029784340921 18.97824946892797,50.495657453968306 19.328020872271736,50.660165511679224 21.40463570744032,51.93290373787204 28.500347882742062,57.167513052036156 29.35643173706194,57.87730853577159 32.203522041105316,59.706530953719266 33.184349542760174,60.13352363542617 34.287474737880984,60.42491332914324 34.92342274393013,60.48838392539619 36.51573871295841,60.94709870272163 36.84349653146637,61.0047981109783 36.875293931763736,60.96152356659513 37.792526632823865,61.273098704592485 38.489623485613265,61.625058794104916 39.047300967853516,62.00297793426762 39.09377409136505,61.936626109903955 39.13046339941502,61.95105043372314 39.52670792627032,62.253959415442296 39.619654173293384,62.2193414218018 39.62699203491502,62.18183854419476 40.00856083855615,62.33761937957024 40.20668310197652,62.55398012783189 40.46595421213715,62.60013685826016 40.6273871675221,62.68956529408206 40.69098196813138,62.76745433038559 40.65918456783402,62.72995223045291 40.67141433717916,62.87707554822191 40.77414439969289,62.822264996133526 40.852414923516335,62.84534313717995 41.84791814838536,63.39344306536077 41.940864395408425,63.48286881738932 41.94331034927745,63.44536773239997 42.185459782369435,63.52902392586839 42.425163261563284,63.554986138979075 42.743137264595134,63.658834736450444 42.718677725904854,63.67902747191147 43.110030345022096,63.76268292594432 43.21765231528843,63.84633811526146 43.29103093135927,64.11172523968344 43.361963593561086,64.18095622530018 43.657924011771684,64.1665331182503 44.193587909205235,64.50403176103464 45.966904464541585,65.06075087619865 46.29221632918052,65.21939925489642 46.17481054345262,65.22805277544285 45.969350418425165,65.17324709745662 45.98158018775575,65.14440195815405 45.80791746302566,65.25401332010006 45.472821782910614,65.95205396357596 45.25513188853802,66.2751078581714 44.697454406297766,66.88659192421983 44.469980696434504,67.35961706770286 44.31343964878761,67.5297886778626 44.23761507884774,67.68842224351283 43.963668245472945,67.95665501698204 43.56986967247212,68.47580749530789 42.89967831225658,69.09877701792175 42.59882598629338,69.54003821883089 42.59638003242435,69.62079110578452 42.63551529434335,69.61502305060458 62.97606767276011,86.9106536782383 63.005419119203,86.89912509864189 62.97851362664369,86.93659296398073 63.02987865789328,86.95388580703911 63.020094842402614,86.9106536782383 63.12527085879992,87.0" stroke="yellow" stroke-linecap="round" stroke-linejoin="round" stroke-width="0.5"><title>2025-04-20 36.9km</title><desc>1745145130000</desc></polyline><polyline fill="none" points="87.92663445341168,34.98403768624121 87.51717504725093,34.91700990781828 87.3010714717675,35.131498670292785 86.82336883124663,35.131498670292785 87.11908951343503,34.97063213349611 87.16458500298904,34.70252077176701 86.7551255968283,34.179701937122445 86.82336883124663,33.95180585286289 86.65276074531721,34.20651321338664 86.98260304471478,34.60868165719876 87.60816602635896,34.56846487194707 87.43755794048775,35.265553957011434 86.67550849006511,35.372798081400106 85.73147708136821,34.943821023560304 85.98170227406081,33.73731503530871 86.41390942502767,33.0 87.74465249513742,33.254709329572506 88.4725803284091,34.40759759950015 87.11908951343503,35.89561184983177 86.43665716977557,36.096693477353256 86.5049004041357,36.32458559155202 86.2546752114431,36.056477178120986 85.4357563990634,35.93582820159645 85.49262576107867,36.431828793443856 86.18643197714118,37.53106622755149 87.1759588754503,40.85552948041732 87.61953989876201,41.55258297343971 101.22269128245534,45.89567354978499 102.43969562865095,46.06993016080378 103.39510090975091,45.962695352391165 103.6453261024435,46.29780381851015 105.46514568553539,50.46647691242106 108.2744921669364,60.45195283883368 113.10838793450966,72.98291497726314 114.56424360099481,78.00834389476222 114.41638325992972,78.39696852730413 110.40140630461974,79.69684201401833 110.59476213535527,80.59468476720212 114.13203645002795,86.70520200410829 114.04104547086172,87.0 113.7453247885569,86.51760291233222" stroke="#4DD2FF" stroke-linecap="round" stroke-linejoin="round" stroke-width="0.5"><title>2025-04-16 7.1km</title><desc>1744770713000</desc></polyline><polyline fill="none" points="142.16129032266326,41.984489781199954 141.77419354813173,43.44856463611359 143.00000000023283,45.481996076297946 141.58064516144805,47.027399414917454 142.80645161285065,47.10873632360017 174.74193548387848,77.03997883800184 175.90322580654174,75.98265030811308 175.00000000023283,74.76265356235672 176.0967741936911,71.83465136861196 178.3548387098126,70.37064497615211 176.54838709696196,77.69064163352596 180.16129032266326,78.82929984730436 182.7419354841113,73.46132099768147 183.25806451612152,74.03065433795564 183.19354838691652,71.02131491980981 185.7096774193924,71.02131491980981 185.38709677406587,68.98796902981121 187.0,69.15063695167191 185.45161290327087,82.65192251617555 186.22580645186827,82.97725099336822 185.06451612897217,84.60389076528372 185.83870967756957,82.65192251617555 184.74193548364565,80.53728316357592 183.38709677406587,82.57059036957799 181.064516129205,81.5132714722422 175.9677419355139,81.91993280453607 164.0967741936911,70.04530974262161 162.54838709696196,70.53331252752105 163.7096774193924,69.55730656546075 151.38709677406587,58.00778353080386 146.22580645163544,59.47181973932311 143.96774193528108,57.35709963797126 144.0967741936911,56.05572976003168 143.45161290303804,58.170454394828994 141.06451612897217,59.14647866471205 139.32258064532652,58.90247274452122 139.00000000023283,57.76377715286799 137.9032258063089,60.77318229380762 137.45161290327087,59.79716063931119 135.12903225841,60.691847215930466 136.54838709696196,57.19442855595844 134.61290322593413,53.7783257602714 133.0,45.31932181149023 134.0322580644861,44.58728708169656 136.41935483901761,45.481996076297946 142.35483870957978,43.28588982659858 141.38709677453153,39.625695087597705 139.7741935485974,38.81231548159849 141.32258064532652,38.649639429699164 139.9677419355139,35.39610923465807 141.25806451612152,36.45350846089423 141.45161290327087,39.05632947792765 140.41935483878478,39.8697087567416 140.74193548387848,36.20949341839878" stroke="#4DD2FF" stroke-linecap="round" stroke-linejoin="round" stroke-width="0.5"><title>2025-04-07 2.7km</title><desc>1743986187000</desc></polyline><polyline fill="none" points="41.98205546475947,120.47219549739384 37.973898858064786,120.13901700658607 40.220228384947404,118.58418050748878 42.81892332760617,118.52865052473499 44.71288743871264,116.52956618607277 44.14029363775626,115.75214189448161 42.46655791183002,116.0297935945855 35.991843393072486,108.8107889300154 29.913539967266843,109.31057022788445 27.491027732379735,110.4211931762693 26.125611745286733,112.14265286375303 24.231647634413093,110.03247548293439 23.13050570944324,109.69928859840729 21.544861337635666,110.47672424546909 17.668841762002558,107.47803585551446 13.0,109.97694435421727 15.466557911830023,107.97781876061345 18.15334420860745,107.3669729057874 21.148450244683772,110.19906882470241 23.48287112545222,109.64375742501579 26.125611745286733,112.08712201777962 27.71125611732714,110.36566209958983 30.486133768456057,109.2550390023971 36.432300162967294,108.92185149274883 43.52365415985696,117.64016978701693 42.46655791183002,118.58418050748878 38.76672104396857,118.63971048296662 35.903752038953826,120.36113603023114 43.655791190918535,120.52772521981387 50.791190864518285,118.80630036469665 52.55301794456318,123.5818484944175 53.962479608366266,124.19267044845037 60.52528548100963,123.97055347840069 66.95595432282425,129.80108448752435 67.0,130.41189727469464 64.269168025814,131.57799191429513 60.70146818901412,132.02221758072847 60.4371941271238,132.6330270942126 60.96574225090444,131.96668939836673" stroke="#4DD2FF" stroke-linecap="round" stroke-linejoin="round" stroke-width="0.5"><title>2025-04-04 2.7km</title><desc>1743741381000</desc></polyline><polyline fill="none" points="122.45946372137405,118.00172297877725 119.85348014440387,119.69806330258143 118.96195944712963,119.45572944442392 118.07043874985538,120.82895255176118 115.53303368831985,121.5559509669256 115.0529840819072,121.07128551471396 116.21881884010509,119.0922283611435 115.73876923369244,118.52678152517183 111.00685168639757,119.41534045277513 109.36096732213628,119.21339542834903 107.50934741226956,117.88055551651632 106.30922339658719,115.21486135805026 106.5149589421926,114.52824007015442 108.74376068543643,113.59927983858506 108.43515736726113,110.00458576815436 106.89214077556971,108.3082012135128 104.38902497151867,107.90429898831644 103.39463650155813,109.39873503014678 102.50311580416746,108.87366359183216 99.17705781792756,113.31655235085054 96.2624709228985,115.86109200015198 95.30237171042245,116.14381755283102 93.00499145174399,115.53797681964352 92.01060298178345,112.9934349587711 91.46197486028541,118.08250126495841 92.38778481516056,120.62700829526875 91.73628892097622,120.10195271499106 91.77057817857713,119.17300641039037 92.62780961825047,119.13261738789151 94.37656175531447,120.50584168874775 94.7194543313235,121.63672848086571 97.32543790806085,123.49460645753425 96.19389240781311,124.22159966049367 96.4339172107866,124.86781464723754 91.87344595137984,126.11985298834043 91.15337154187728,124.38315351243364 88.95885905635078,121.8790609173011 88.82170202583075,112.42797884679749 86.52432176738512,112.791486445989 84.46696631191298,111.09511460846988 83.30113155394793,111.41823365041637 86.00998290337157,107.62156716934987 88.34165241965093,108.83327345043654 90.02182604151312,111.66057274769992 92.35349555767607,109.76224559140974 95.19950393761974,109.4391251100169 97.66833048395347,106.81376078777248 98.66271895414684,106.65219930079184 99.03990078764036,107.74273797517526 98.42269415105693,105.88478127893177 99.07419004512485,105.15775221789954 97.87406602955889,105.31931435430306 97.70261974167079,106.04634309944231 97.15399162017275,105.40009539623861 98.69700821174774,104.55189358090865 96.63965275627561,105.5212669261673 96.77680978679564,106.2079048496962 97.32543790806085,105.88478127893177 98.25124786316883,106.36946652969345 95.40523948322516,109.31795485707698 92.28491704235785,109.84302566788392 90.26185084471945,111.66057274769992 88.17020613176282,108.75249315457768 85.70137958519626,107.66195744244033 83.12968526594341,111.74135241168551 79.6321809918154,115.49758740226389 79.5978917342145,118.97106125429855 80.9694620379014,119.61728536742157 80.9694620379014,121.03089669864858 78.70637103694025,120.95011905298452 77.16335444524884,117.15354991445201 77.54053627885878,118.52678152517183 77.19764370296616,119.98078593736864 76.71759409678634,120.54623056194396 75.58604859630577,120.14234163213405 74.83168492920231,122.96955492693814 75.79178414167836,128.34120095905382 77.26622221816797,129.91633056942374 78.19203217315953,132.37998145102756 77.95200736983679,134.64167936416925 76.54614780889824,135.73213594246772 76.16896597517189,134.52051732470863 76.4775692934636,134.0762561755837 77.33480073313694,134.60129202203825 76.4775692934636,136.17639511296875 77.8834288547514,138.11497437313665 78.70637103694025,143.04215117002605 84.50125556951389,146.47498166019795 89.37033014732879,147.0 91.2219500571955,146.8384559743572 96.15960315009579,143.76910615403904 103.1889009559527,145.38455658601015 104.834785320214,144.7383772554458 109.49812435242347,138.84193898996455 108.81233920063823,137.589943488274 106.20635562378448,137.14568600643543 105.62343824480195,136.45910521800397 105.0062316081021,133.30889475881122 108.126554048853,131.24912733549718 109.22381029184908,128.94702082974254 110.66395911050495,127.93732049706159 110.18390950420871,125.95829989091726 108.0922647913685,124.58509572871844 108.91520697355736,120.06156379342428 109.8410169283161,119.0922283611435 112.48128976277076,118.84989410807611 116.42455438571051,117.23432838477311 117.83041394688189,117.67860965855652 118.6876453863224,119.25378444194212 119.68203385663219,119.53650741459569 123.31669516104739,116.99199292089907 125.1683150709141,116.50732151890406 124.8254224951379,113.15499368985184 123.07667035795748,108.3082012135128 124.61968694941606,106.65219930079184 124.8254224951379,105.1173616728338 122.25372817588504,101.4821946445154 122.83664555486757,97.84699206822552 124.89400101022329,93.0" stroke="#4DD2FF" stroke-linecap="round" stroke-linejoin="round" stroke-width="0.5"><title>2025-04-01 8.4km</title><desc>1743465137000</desc></polyline><polyline fill="none" points="149.79439552687109,111.4165423688246 148.66043947450817,111.0003534068237 150.66666941344738,110.68821156147169 152.14953502034768,112.35296684259083 153.37071846192703,108.7113107383484 152.3239897978492,106.9425011256244 146.47975475760177,105.58987970743328 144.29907004116103,99.65913146757521 140.11215538531542,101.11581002845196 138.7165171667002,97.99435313552385 149.18380380608141,93.0 147.87539297621697,94.45668914203998 151.10280635673553,96.43362070358125 146.65420953463763,98.30649930314394 151.8006254658103,96.32957178016659 167.41432803636417,121.92525104648666 172.56074396753684,119.7402819332201 173.86915479740128,120.57265173323685 176.31152167962864,124.83853509725304 174.9158834614791,123.06975659902673 172.99688091082498,125.77494586160174 175.96261212555692,123.48594008211512 176.7476586229168,124.3183064815239 173.607472631149,124.52639796305448 179.80061722639948,132.53788409754634 173.17133568786085,135.24304542370373 173.95638218615204,139.4048164942069 176.3987490683794,139.1967283891281 176.04983951384202,140.23716844117735 166.7165089272894,140.4452563097002 166.80373631604016,138.98864023690112 168.02491975668818,140.4452563097002 167.15264587011188,138.67650792043423 170.55451402813196,142.5261323992745 177.53270512074232,142.73421974858502 176.22429429087788,142.73421974858502 177.88161467574537,139.92503654939355 177.70715989824384,134.930911831907 179.62616244889796,135.86731228849385 181.2834828332998,137.74011033284478 180.84734589001164,139.50886052893475 177.2710229549557,138.46841965027852 171.16510574892163,142.63017607998336 174.47974651819095,142.83826340566156 179.71338983764872,147.0" stroke="#4DD2FF" stroke-linecap="round" stroke-linejoin="round" stroke-width="0.5"><title>2025-03-30 2.1km</title><desc>1743318651000</desc></polyline><polyline fill="none" points="55.61767445132136,154.4903103891993 55.397189635783434,153.0 50.91399838170037,154.66564083425328 51.20797813590616,156.59427310264437 46.65129194268957,157.55858743126737 46.798281820025295,160.2761940624914 44.2994539081119,161.59116158093093 44.2994539081119,162.81846257857978 43.564504521898925,162.117147961515 43.4175146445632,163.69510495453142 42.682565258815885,159.75020642823074 43.344019706360996,160.53918774519116 42.0946057504043,161.3281682561501 32.46676879422739,162.55546967167174 33.422202995978296,162.730798286153 33.34870805777609,165.88670654210728 30.849880145397037,164.8347385560046 25.337759750895202,165.88670654210728 25.190769874025136,168.42895659443457 28.277557294350117,168.07830191223184 30.26192063698545,177.89657285099383 29.894445943646133,175.79266815440496 31.217354838270694,174.65305071801413 25.55824456643313,176.6692958077765 24.4558204873465,178.5978731433861 24.382325548678637,176.4939703566488 29.306486434768885,174.65305071801413 31.36434471514076,176.4939703566488 30.26192063698545,177.6335850774194 31.731819408480078,199.46126565040322 32.02579916268587,202.52936408785172 33.78967768885195,203.84425968851428 29.82095100544393,204.37021730229026 29.82095100544393,207.0 28.571537049021572,205.9480879949988" stroke="#4DD2FF" stroke-linecap="round" stroke-linejoin="round" stroke-width="0.5"><title>2025-03-30 1.4km</title><desc>1743309591000</desc></polyline><polyline fill="none" points="108.60551653127186,160.55126379663125 108.17815453652292,163.52596690898645 110.35381560050882,165.8599500269047 110.89773086667992,167.782044059888 110.66462432406843,169.15496299928054 109.14943179744296,170.9397509303817 111.48049722332507,179.817814420996 110.15956014860421,180.82459331309656 108.87747416412458,180.50425483565778 108.02275017462671,181.9228948148957 106.00249347207136,183.2042429478024 104.29304549307562,183.387292362866 103.28291714168154,185.17201999141253 107.32343054679222,189.38211674807826 107.67309036059305,194.69043964415323 104.64270530687645,196.33783659763867 102.19508660957217,198.94620193276205 94.03635761863552,204.6662448120769 93.25933580985293,206.13056330365362 92.83197381510399,204.16288415511372 90.61746166041121,203.61376275258954 87.742480968358,207.0 87.35397006385028,205.99328366131522 89.14112022402696,200.8681450035656 88.67490713857114,198.94620193276205 92.13265418726951,196.74968482961413 93.37588908104226,194.04978353340994 95.12418815074489,192.9515136484406 94.30831525148824,192.12780935587944 95.12418815074489,192.63118439281243 96.67823176807724,195.1938116189849 101.5734691626858,192.17357074769097 102.46704424289055,192.4481389943976 102.42819315218367,191.53291080950294 102.54474642360583,192.3566162654024 101.76772461482324,191.8990023221122 101.84542679577135,190.57191907524248 101.0295538965147,190.4346343630168 101.45691589149646,189.5194018035836 99.94172336440533,187.73469259336707 100.2525320877321,187.00250201224117 102.46704424289055,186.6821682326845 102.8555551469326,184.98897135187872 103.98223676951602,183.84491555255954 103.47717259381898,182.60933179938002 107.40113272774033,185.30930641895975 108.41126107913442,185.26354428136256 110.3149645102676,187.09402590445825 111.05313522857614,189.0160230481997 112.02441248926334,188.51264369144337 112.64602993614972,186.7279302161769 111.05313522857614,177.11780460301088 108.76092089293525,171.03127831261372 110.66462432406843,169.15496299928054 110.93658195715398,166.91252641714527 108.2558567172382,163.1140861926542 108.68321871198714,158.6291367659287 111.67475267522968,153.0" stroke="#4DD2FF" stroke-linecap="round" stroke-linejoin="round" stroke-width="0.5"><title>2025-03-26 3.9km</title><desc>1742943197000</desc></polyline><polyline fill="none" points="158.9988028384978,155.3632346374652 158.76694665371906,154.49257210220094 159.7786827328382,154.59207656067156 159.88407190761063,153.97017298087303 158.85125799360685,153.0 158.64047964382917,153.4726488923916 158.1346116042696,153.32339145353762 155.85820542625152,157.02992219201406 155.85820542625152,157.57719006820116 155.60527140647173,157.47768691596866 155.4155708916951,158.696597530914 154.424912647577,160.686641636712 154.593535327469,161.30852684838464 157.03856418526266,162.7512939899898 158.83018015872221,164.3930523619929 158.55616830382496,165.06467737077037 158.2610786141595,164.71642761377734 158.28215644916054,166.10942344210343 157.8816775844898,166.75616860485752 158.55616830382496,167.17903944774298 158.53509046894033,168.24865042275633 157.98706675937865,168.64664392007398 157.69197706971318,168.34814886242384 157.3968873799313,169.2685073652392 156.74347449548077,169.09438577193941 156.53269614570308,169.5421267423808 156.74347449548077,169.31825636741996 158.45077912893612,170.91021869065298 159.50467087805737,171.25845896346436 159.58898221794516,172.9747782323684 160.28455077228136,172.75091123617312 161.86538839584682,173.52200773994264 163.13005849474575,175.90990291048365 162.87712447496597,176.08401928603416 163.0668249897426,175.9347766865685 164.2261059137527,177.72568141674856 164.96383013797458,177.9246699607029 165.06921931297984,178.29777301152353 164.58442910842132,181.2328290003643 165.575087352423,182.94907300543855 164.77412962319795,184.06835559755564 163.67808220430743,190.83367979280592 163.82562704908196,191.60471499884443 162.47664561029524,191.9777956118778 163.08790282486007,191.67933117032226 162.83496880496386,191.4057384216576 161.48598736629356,192.22651568072615 160.5585626270622,190.80880764590984 161.52814303617924,191.82856344002357 161.3805981912883,193.37062449470977 161.97077757073566,192.6244672251778 161.10658633662388,192.79857080697548 161.86538839584682,192.72395500252605 161.5070652011782,191.82856344002357 160.49532912217546,190.982912617299 160.91688582173083,191.45548258225608 160.62179613206536,191.13214534390136 161.14874200650956,192.5498513636121 161.1276641715085,193.8929331272666 158.11353376938496,200.85693364382314 158.2610786141595,201.57819294347428 164.12071673886385,203.16992951378052 163.846704884083,205.28393742987828 163.50945952429902,205.20932572013407 163.4462260195287,205.8310892200243 162.87712447496597,205.78134820262494 162.56095695029944,207.0" stroke="#4DD2FF" stroke-linecap="round" stroke-linejoin="round" stroke-width="0.5"><title>2025-03-24 3.9km</title><desc>1742796232000</desc></polyline><polyline fill="none" points="53.10595352172095,266.99619422425894 53.2157619050995,267.0 53.280355071794474,266.84015706227365 53.199613613425754,266.92388440646755 53.20284327176341,266.7564295176635 53.10918318005861,266.77165272249476 53.42891935516673,266.6917308232114 53.45798628019111,266.63464364048195 53.35140755515022,266.45196402966394 53.412771063507535,266.35301217546294 53.29004404677835,266.246448327096 53.40308208849456,265.964813736442 53.31911097180273,265.94197839997287 53.39339311349613,265.7707129012706 53.24482883010933,265.61467027234175 53.00260445501772,265.6907887148882 52.99614513835695,265.62228212405535 53.0510493300244,265.65653543624285 53.063967963375035,265.5842228489382 53.24482883010933,265.5461635324318 53.0704272800358,265.5994465639669 53.14147976342065,265.5918347072766 53.08334591338644,265.4243734412521 32.56855617213296,213.2401341841287 32.523340955449385,213.27062729543104 32.56532651380985,213.33542506835875 32.67190523883619,213.25538074312135 32.684823872172274,213.30112038005973 32.88506268893252,213.2325109021367 32.92058893060312,213.33923669831347 32.846306788909715,213.03430498477246 32.85599576390814,213.08766822728649 33.01424902230792,213.0 33.166042964017834,213.00762333286548 33.27908100573404,213.1486546900851 33.36951143910119,213.1677129378113 33.25001408072421,213.19820611250907 33.18865057238145,213.07623325362874 33.26616237239796,213.08766822728649 33.21771749739128,213.0991031971862 33.18865057238145,213.17533623398776 32.50396300545253,213.3811646002141 32.70420182218368,214.27307347071837 32.5298002721247,214.3340578587522 32.471666422105045,214.43696877155162 32.28757589703309,214.46746083549442 32.2714276053448,214.61992075495436 32.28434623868088,214.68090453597324 32.4748960804136,214.65803563059308 32.53302993044781,214.7685685342076 32.471666422105045,214.57418284915911 32.46520710542973,214.67328156918666 32.365087697064155,214.6923389830372 32.071188788613654,214.65041265881155 31.770830563487834,214.7342652568077 31.777289880163153,214.66184711587266 31.770830563487834,214.77619148015947 31.08614299657347,215.09254226630583 31.066765046547516,215.30598213808844 30.830999988131225,215.42413579066852 30.49188586299715,214.7342652568077 30.365929187944857,214.7952488377232 30.265809779579286,214.7685685342076 30.317484312923625,214.8066832472541 30.294876704603666,214.65422414492423 30.17537934621214,214.48651836190402 30.233513196231797,214.4560263146377 30.06234130448138,214.34930393909235 30.000977796138613,214.18921976288766 30.046193012822187,214.13966974976938 29.836265221078065,213.98339616995872 29.707078887688112,214.05200416935259 29.303371595873614,213.91859960204602 28.957798154078773,213.76232503073697 28.77693728732993,213.70896282147442 28.573468812261126,213.46883186845298 28.15684288708144,213.22488761846762 27.99858962871076,213.24775746445812 27.64978652856371,213.63654254961148 27.37849522846227,213.6517889351453 27.37526557012461,213.7013396420407 27.213782653401722,213.7242091753069 26.79715672825114,213.56031052189428 26.803616044911905,213.40403434363543 26.542013719808892,213.2401341841287" stroke="#4DD2FF" stroke-linecap="round" stroke-linejoin="round" stroke-width="0.5"><title>2025-03-24 4.7km</title><desc>1742777725000</desc></polyline></svg>