<?xml version="1.0" encoding="utf-8" ?>
<svg baseProfile="full" height="300mm" version="1.1" viewBox="0,0,200,300" width="200mm" xmlns="http://www.w3.org/2000/svg" xmlns:ev="http://www.w3.org/2001/xml-events" xmlns:xlink="http://www.w3.org/1999/xlink"><defs /><rect fill="#222222" height="300" width="200" x="0" y="0" /><text fill="#FFFFFF" style="font-size:12px; font-family:Arial; font-weight:bold;" x="10" y="20">Over 1km Runs</text><text fill="#FFFFFF" style="font-size:4px; font-family:Arial" x="10" y="280">ATHLETE</text><text fill="#FFFFFF" style="font-size:9px; font-family:Arial" x="10" y="290">Tao</text><text fill="#FFFFFF" style="font-size:4px; font-family:Arial" x="65" y="280">SPECIAL TRACKS</text><rect fill="yellow" height="2.6" width="2.6" x="65" y="283" /><text fill="#FFFFFF" style="font-size:3px; font-family:Arial" x="70" y="285.5">Over 20.0 km</text><rect fill="red" height="2.6" width="2.6" x="65" y="287" /><text fill="#FFFFFF" style="font-size:3px; font-family:Arial" x="70" y="289.5">Over 40.0 km</text><text fill="#FFFFFF" style="font-size:4px; font-family:Arial" x="120" y="280">STATISTICS</text><text fill="#FFFFFF" style="font-size:3px; font-family:Arial" x="120" y="285">Number: 14</text><text fill="#FFFFFF" style="font-size:3px; font-family:Arial" x="120" y="290">Weekly: 2.3</text><text fill="#FFFFFF" style="font-size:3px; font-family:Arial" x="141" y="285">Total: 247.0 km</text><text fill="#FFFFFF" style="font-size:3px; font-family:Arial" x="141" y="290">Avg: 17.6 km</text><text fill="#FFFFFF" style="font-size:3px; font-family:Arial" x="167" y="285">Min: 1.4 km</text><text fill="#FFFFFF" style="font-size:3px; font-family:Arial" x="167" y="290">Max: 98.8 km</text><polyline fill="none" points="43.382803348726156,74.39478359446002 43.3720302809852,74.42037066108969 43.30200534067262,74.4069037918498 43.26645421712965,74.39882366184247 43.21258887842487,74.35438283335588 43.205047731004015,74.34091587772491 43.2761499780936,74.22105919590194 43.35371606582703,74.08234691063717 43.328938010021375,74.1469897617535 43.437745994207944,74.12544218985295 43.419431779046135,74.22644604303787 43.47976095839476,74.31936871204834 43.55409512580445,74.44730434668145 43.589646249347425,74.80416902358411 43.73185074352659,74.84322138767675 43.928997883176635,74.91728580894687 43.92576596286017,75.04656061212609 44.0852073654205,75.18929965360985 44.05288816219763,75.19872574701822 44.08628467219387,75.1825667244575 44.190783429272415,75.1313963189159 44.25542183571815,75.18929965360985 44.18862881572568,75.1192769750578 44.78007023468672,74.89035335381686 45.34673359784938,74.83918149481906 45.71301790103098,75.14755542184503 46.324928148700565,75.21084499728295 47.099511719254224,75.1637144993947 47.65001548080545,75.58788120812642 47.781446907236386,75.60000000000036 48.54418010327936,75.43302872214008 48.57111277262811,75.05868004164404 48.577576613275596,74.55369171536404 48.60343197585098,73.99346232702919 48.48816015102784,73.51670463340452 48.23714767267302,73.18134488047781 48.21883345751121,72.74765059141737 48.12726238171308,72.37589807155746 47.82022995110674,71.98123304439378 47.71142196692381,71.46396993522922 48.20051924235304,71.2780721487652 48.29532223847127,71.21071704875521 47.63708779951412,69.4970548682013 47.386075321159296,68.72770007116651 47.25248928117071,68.66976033764058 47.68664391112179,67.37074659280006 47.05103291442356,65.86670394786142 46.80432966315857,65.31813179718938 46.30445931999202,64.41231708598752 46.6427336470515,61.110539119696114 46.33893313676526,60.98648266120654 44.117526568636094,60.95142295550613 44.08197544509676,60.511818018040685 42.68470855913256,60.665547039169724 42.40137687755123,60.49293885667612 42.19992051080408,59.602881831692685 41.92412997663996,57.47587225667576 41.59339679700133,56.15655401987078 40.10886806233975,55.83546725595261 39.561596221115906,55.51571960469755 38.86781065861578,55.360564197718304 37.75064353390917,55.214850895011296 37.1602794217215,55.58317774498664 36.62808987533208,55.444213491426126 35.30946638387468,55.283660212678114 34.85592023199206,55.27961261854216 34.16644389659268,55.12850129396884 33.76029924276736,55.193263562926404 33.313216931532224,54.671106122080346 32.59680792677682,54.50514353638209 31.631541057213326,54.26361594885839 31.450553519167443,54.35806875560502 31.284648275963264,54.32973300495905 31.180149518877442,54.35806875560502 30.46589512767605,54.12328445753701 29.9541744099879,53.96945734650399 29.7150123061474,53.86555527234668 28.92857836107578,53.551143879271876 28.08827907730665,53.518757608509986 27.4084985028785,53.63345852355815 26.935560829064343,53.83316999498402 26.56712191232873,54.37156194267209 26.3936755217037,54.97064154954023 25.97675780013742,55.43072171602307 25.84855829402295,55.72753667412417 25.786074501131225,55.673570957178526 25.7117403337179,55.68706241304517 25.83993983983237,55.74642460795258 25.38962560827349,56.75957635863415 25.396089448920975,57.01318589994844 25.5232116482548,57.14268622569489 26.038164286263054,57.006441046517466 26.665156828770705,56.743388302642416 27.308308972882514,57.338282576068195 27.440817706094094,57.24655509692093 27.45159077383505,56.82163033655979 27.91483268668526,56.65705157246248 28.076428702795965,57.00374310390271 28.099052145047608,57.24250827747164 28.194932447942847,57.33963150346699 28.06457832828164,57.498803690666136 27.965466105066298,57.57164437622123 27.829725451534614,57.80500086716438 28.060269101180893,57.90886303156822 28.020408750544448,58.116584205507934 28.017176830217068,58.1192818554191 28.06134640795426,57.90751417903266 27.82757083798424,57.82523383881744 27.96007957119582,57.57164437622123 28.117366360213055,57.63774010619727 28.37376537243472,57.811745195484036 28.54182522919291,57.938537742524204 28.770214265292452,57.95337506580927 29.22483772394844,57.87649052170673 29.26577538136189,57.79690766733074 29.043850185906194,57.78072124850769 29.478004815853637,57.7321618387723 29.47261828198316,57.68090443465644 29.172049692017026,57.667415601527864 29.148348942992016,57.62829788513409 29.49955095133555,57.606715632921805 29.583580879712827,57.594575596098366 29.662224274219625,57.606715632921805 29.707471158733824,57.726766334612876 29.772109565175924,57.662020063306954 29.864757947743783,57.6593222931333 29.782882632913243,57.78881446111336 29.752718043240748,57.98304964799172 30.059750473850727,58.51582867612706 29.932628274509625,58.768046059499284 29.695620784215862,58.581918322641286 29.510324019076506,58.418716586335904 29.17851353266451,58.56033807671247 29.144039715891267,58.70870135067344 29.20975542911401,58.978447261059046 29.08155592299954,59.00002662750467 29.066473628161475,58.93663710940746 29.057855173967255,58.982493395722486 28.983521006557567,58.935288392000075 28.869326488507795,58.932590956658714 28.429785324689874,59.28729761933482 28.415780336621538,59.25492945896349 28.42332148404239,59.19963361543523 28.435171858556714,58.96900627396735 28.438403778880456,58.97170369973628 28.489037197265134,58.82199549689449 28.45564068726526,58.74781494732906 28.503042185322556,58.706003855755625 28.44271300597393,58.7666973199257 28.492269117585238,58.81525183273516 28.453486073714885,59.033744296703844 28.414703029851808,59.16321911670366 28.429785324689874,59.288646290465294 28.798224241414573,58.99058566026906 28.975979859140352,58.92989352060522 29.00398983526611,59.01755982931536 29.035231731715612,59.027000771729035 29.040618265582452,59.0121650011788 29.035231731715612,59.01890853590885 29.165585851376818,59.00137533640009 29.203291588466527,58.84357519241803 29.18713198685873,58.54954793673005 29.55880282391081,58.406577510471834 29.690234250345384,58.57787202998588 30.01234897578979,58.79906702066273 30.26012953382815,58.73163002887122 30.35170060962264,58.55089670484722 30.655501119908877,58.643961276803566 30.959301630195114,58.8462726511716 31.113356498888606,58.643961276803566 31.42362084981869,58.619683643775716 31.8610074000826,58.58326708650293 32.19928172714572,58.848970109207585 32.558024882910104,58.937985826639306 32.493386476464366,58.90426784272131 32.511700691622536,58.7666973199257 32.58818947258624,58.639915008623575 32.630204436773056,58.529316393665795 33.00510719414888,58.15839769946979 33.43926182409632,58.063979890361225 33.845406477914366,57.75374382703649 35.37195017677004,57.478570075099924 36.32967589891268,57.1696652544133 37.18290286397678,56.737992278301135 37.38759115105131,56.058070493176274 38.427192188020854,55.83816550593838 38.41965104060728,54.04637119056588 38.41857373383027,53.57948178224615 38.4336560286647,53.17599663702458 37.909007629696134,52.79273851216567 37.30140660912366,52.40811647814735 37.21306745365291,52.12605114505641 37.102104855923244,51.69686507409642 36.71858364435684,51.25686320777186 36.686264441130334,51.00851025371503 36.744439006932225,50.06093443975806 36.72935671209416,49.68970919354251 36.237027516341186,48.932367970543055 35.93107239250821,48.553001315468464 35.63050380254572,48.35318689334599 35.53785541997422,48.02105429536641 35.45705741192796,46.54387882712672 35.114473857767734,46.26840388227174 34.375441410760686,46.22789223575273 32.67760593483399,45.980767720182484 31.702643304299272,45.76199677723889 31.474254268203367,45.325791373847096 31.27710712854605,44.997612206580925 30.762154490541434,44.990859438334155 30.361396370590228,45.28662651177456 29.87876293580848,45.79305713416852 29.415521022958274,45.50540761475531 29.1429624091179,45.109707508712745 28.356528464053554,44.211560056194685 28.076428702795965,44.0764934709332 27.190882534509,42.52445046435878 26.935560829064343,41.299129232166706 26.698553338763304,41.03161952062783 26.45723662137607,40.639799738505644 25.291590691835154,37.51145859414737 25.315291440860165,37.335756619381755 25.821625624677836,37.31007684703127 26.042473513356526,36.62210524438888 26.21484259720819,36.40043065920236 24.704458499967586,36.37204515164103 24.362952252584364,36.29770178200397 24.07962057101031,35.877313643728485 23.79952080975272,35.81918787790437 23.33412428335214,34.90400142185081 22.68343099181584,34.26589087054526 21.364807500362076,33.723735971565475 20.608538144970225,33.7913379032052 19.431041840914986,32.420283254969945 19.426732613814238,32.48654160715432 19.413804932530184,32.479780570502044 19.414882239299914,32.47437173795788 19.42026877317403,32.493302639332796 19.38364034285769,32.49735925648383" stroke="red" stroke-linecap="round" stroke-linejoin="round" stroke-width="0.5"><title>2025-05-03 98.8km</title><desc>1746244765000</desc></polyline><polyline fill="none" points="99.86383231881337,32.61286084607036 99.5248414481648,32.73005175181606 99.45628149679396,32.739618289146165 99.0592051117892,32.56622322530802 98.80115307261076,32.400000000000546 98.61451764944286,32.41674204632818 98.52881771023385,32.54708977266273 98.33170785005859,32.643952459266984 98.21268015670285,32.75396807610559 98.07746469706399,32.921380570440306 97.77846713137478,33.62089201908657 97.70324162918041,33.75122234526498 97.6375383424529,33.78709274680659 97.57088283418125,33.86600712813561 97.03763876798257,33.90905104517151 96.78244339344747,33.94731213234627 96.1615949449515,33.96883392257132 95.92258733671042,33.75002666275941 94.26191295913668,33.47142831793735 93.63535118135405,34.54631612192861 93.23446591016545,35.0544220636084 93.05354381627694,35.3473171939977 92.98307942181418,35.48120894441672 92.72026627490777,36.12194910631388 92.46507090036903,36.39090296968243 92.29557546503929,36.79252581903802 92.00990900101169,37.31245743002182 91.88802464302353,37.49054206199071 92.00895677946392,37.68894093772087 91.87088465518173,37.937530965165024 91.76137917730011,38.1825288622349 91.80994247618582,38.50758898071581 91.78137582978525,39.23415164035032 91.76709250658314,39.28553461509273 91.28241173927381,39.99530672675428 91.11196408240357,40.3203016009129 90.98722305977208,40.38960046589 90.6196655427193,40.694270203181986 90.35590017426148,41.0180452100476 90.03690595608714,41.28446391108537 90.14450699087683,41.57954630646145 90.13022366767473,41.64047305000804 89.78551946774314,41.6822852833302 89.69124953461505,41.66317114353569 89.67030066058214,41.80652620633555 89.96834600472721,42.506544091605065 90.69298660181812,44.564473754214305 90.88343091117713,44.91199427250558 91.10244186693308,45.13291961489995 91.28241173927381,45.442206024873485 91.46619049779838,45.70013563499015 91.54141599999639,45.891189861825296 91.6585392502493,46.00940264304336 91.36811167848282,46.34731550499873 91.56617376021313,46.67208204483268 91.65377814251406,46.85356414911894 91.95277570820326,47.36694774794796 92.1698822208673,47.64750554021521 92.2384421722345,47.69167767628551 92.37365763187336,47.739431094246356 92.65932409590823,47.979388203281815 92.87738283012368,48.1369685137106 93.28588587369086,48.385271311130055 93.30873919081205,48.8723070040196 93.39253468692914,48.9845124917274 93.56774345153462,49.07761811660839 93.81627327524257,49.09910389397737 93.97529427355403,49.164754564259965 94.08099086524453,48.828140632503164 94.10384418236936,48.803073136535204 94.19335300776584,48.81142897624068 94.23334631273246,48.78158665614137 94.28190961162181,48.72787023190358 94.3695139939191,48.56910649145175 94.46949725633385,48.45689585156106 94.75516372036509,48.29454607916978 94.92846804187502,48.24202052900546 95.05701795069399,48.23127662889692 95.09034570482982,48.26947710463537 95.40267437217335,48.48196430674034 95.75594856602766,48.86156385241338 96.18730492671602,49.205338376721556 96.83386335697651,49.48225835596986 97.31283079500281,49.769911946441425 97.95843700371552,49.5228407443592 98.03651917054958,49.535970301631096 98.26124345558856,49.5228407443592 98.4593055373225,49.558648582959904 98.58118989530703,49.65413545980755 98.68688648700481,49.84868685339461 98.7811564201329,50.09216859396929 98.81448417426873,50.2497121117749 99.01349847754318,50.750968696011114 98.98874071732644,50.9908459537819 98.99350182506168,51.1877553692957 98.96017407092586,51.36318014952394 98.9782662803118,51.48609480664254 99.05730066869364,51.595881244544216 99.12300395542479,51.869148226599464 99.11157729686238,52.38702022677535 99.64386914150964,52.71037689025161 99.67910133874102,53.64339300770462 99.7752757149683,54.0001090605183 99.80003347518141,54.1826372585856 99.79241570280647,54.2971628771993 99.85145343870681,54.44986144929862 99.84097900169218,54.49161451689179 99.80098569672555,54.51547332624159 99.79336792435424,54.58704937719358 99.81336457683574,54.65504610168773 99.89335118676536,54.76240831158066 99.93334449172835,54.905555945231754 100.60846956839669,55.140551738557406 100.68083840594772,55.21570139100186 100.78653499763823,55.4244471544871 100.7903438838257,55.595018692889425 100.90175380479923,55.71310479965905 100.95603043296796,55.82761106961152 100.97888375008552,55.89440572538933 100.97507486390532,55.93257387901849 100.95603043296796,55.95046514568003 100.97507486390532,56.05781200367528 101.27788131577472,56.470489192099194 101.28454686659825,56.68039870024677 101.36929458426312,57.194417927889845 101.33215794394346,57.35780076345054 101.50641448700117,57.430546917651554 101.66829214995232,57.459168195298844 101.99680858358988,57.460360746570586 102.65003256468117,57.51760302315415 103.02330341101697,57.52356573950419 103.03282562648019,57.504485033372475 103.07186670989904,57.504485033372475 104.05741601081172,58.29749302173241 104.09455265113866,58.30584010522216 104.2450036555274,59.01292941553038 104.67064668693638,60.60814926402509 104.71730554273017,61.03492432660096 104.89251430733566,61.60948919769908 104.93345983384643,61.90629372139301 104.99725867747838,62.00403445073334 105.11628637082686,62.12203709863479 105.16865855590004,62.148259700800736 105.31530067410495,62.17805802034036 105.4162361580602,62.17805802034036 105.47813055860024,62.206664314999216 106.25419111922383,62.11369352749898 106.27609221479725,62.16733063658012 106.27799665789644,62.48199528832356 106.30751552584479,62.536822103433224 106.37797992030391,62.55946786514414 108.26052191828057,62.5547003410602 108.41954291659204,62.57377042236112 108.59665612429308,62.61906170477869 108.67188162648745,62.60833484253817 108.81471485850125,62.66196902690899 108.91374589936822,62.678655152926694 109.14227907059467,62.65839342447998 108.9394558811291,63.778679899679446 108.98992362310673,63.80966458097919 109.12037797501762,63.81800659248347 109.00230250321692,64.17313082669898 109.01087249713964,64.2124558099822 109.38033445728797,64.2994468341958 109.52221546775763,64.37094568177417 109.62410317326066,64.3900119459795 109.6955197892712,64.42337781196056 109.16132350153202,65.49459524414306 109.17370238163858,65.51008466900203 109.37652557109686,65.52199959321297 109.40033110976947,65.63519059315695 109.44127663628024,65.65306272727503 109.50983658764744,65.7316996993377 109.51745436002238,65.76982647087243 109.57458765282718,65.79008125311066 109.59458430531231,65.83654793570258 109.83168747045784,65.75195456665551 109.56220877272426,68.64198001526984 109.43841997164054,69.57812243650187 109.42699331307813,69.76271928637561 109.47079550423223,70.03782117929131 109.79264638704262,71.12742865449036 109.85454078757903,71.30365889878249 109.9907084687693,71.58943040854228 109.96404626546428,71.62991397901988 109.48412660588656,71.81446914753724 109.61077207160633,72.3812086902044 109.77741084229638,72.8407656493655 109.7907419439507,73.22648982456849 110.03260621682784,73.74552492132898 110.10497505438616,73.85861349917832 110.23923829248088,73.98360450125529 110.28399270517912,74.09192864643592 110.26399605269762,74.78469650543866 110.3296993394215,75.48098214843958 109.81359526106826,75.57381620629349 109.37652557109686,75.54763233720769 109.1394224059477,75.60000000000036 108.87756148058907,75.12987041095585 108.66521607566028,75.13106064313706 108.37193183925046,75.09416337315088 108.25480858899391,75.12748994613412 108.13578089565272,75.07035860338692 107.79964668964021,75.06083667803614 107.54445131510147,75.00132441867572 107.26449818034962,74.98228041342372 106.87027845999182,74.90491373195164 106.47605873962311,74.9489533082633 106.35322216008717,75.06559764195663 106.39131102195824,75.0929731361457 106.40654656670449,75.07392932282346 106.42178211145801,75.0775000408612 106.40749878825227,75.07273908316893 106.42654321918963,75.07988051877237 106.43035210538073,75.11082667490791" stroke="red" stroke-linecap="round" stroke-linejoin="round" stroke-width="0.5"><title>2025-05-03 66.9km</title><desc>1746236322000</desc></polyline><polyline fill="none" points="184.9253838134464,32.919265549164265 184.13192828092724,32.39999999999418 183.25031102250796,33.26544211176224 182.69195342541207,32.64232402827474 176.57940710056573,35.72328488895437 176.81450503633823,37.038742247008486 176.05043674563058,39.635023724724306 176.25614743912593,40.361978747008834 175.02188327745534,42.71591696096584 172.52396771195345,44.169811287050834 170.99583113088738,45.76216412673239 170.84889492113143,46.558337562164525 170.31992456607986,46.4891051685845 168.8211752268253,48.116062442510156 167.08732795203105,48.18529448262416 166.44080862926785,49.22377327934373 165.47102964494843,49.53531625834876 160.53397299803328,54.8315002937743 158.41809157794341,55.03919199158554 157.53647431952413,54.62380846074666 155.92017601244152,50.954563752165996 154.8622353024548,51.36995206671418 153.36348596320022,48.94684593126294 151.4827024785336,47.8737501835858 145.89912650885526,54.69303908685106 145.69341581512708,56.804565956495935 145.95790099271107,57.66994177855668 147.13339067052584,58.22378107125405 147.19216515438166,61.68525484064594 148.74968897772487,64.73132065328537 148.6027527677361,65.35437598239514 148.48520380014088,64.9736200926709 150.07211486517917,63.796735375450226 151.83534938201774,60.854504565446405 154.2744904635474,60.50835797810578 155.83201428654138,62.37754508224316 157.09566569025628,66.08127232655534 158.0360574326478,67.18892071017763 160.97478162730113,67.81197123409947 163.70779512822628,69.23113732418278 166.82284277456347,68.67731716294657 167.8807834845502,69.57727443613112 168.08649417827837,71.30795435648179 166.96977898431942,75.60000000000582 169.05627316236496,73.35014457328361 170.4374735339079,73.17707811333821 171.9949973570183,73.869343389204 177.28470090730116,70.37338836697745 180.39974855363835,67.32737648746115 181.75156168325339,66.91200897525414 182.1335958284326,63.139062610775 185.16048174898606,63.45059198437957 186.30658418487292,62.13524366877391 184.83722208754625,52.65072929376038 183.25031102250796,48.66991834231885 184.60212415200658,46.800650821533054 184.69028587790672,45.83139667837531 182.60379169974476,42.26590070591192 183.63234516768716,37.69646888918942 184.7196731197182,35.06555417296477 185.3955796844093,34.58090961864218" stroke="#4dd2ff" stroke-linecap="round" stroke-linejoin="round" stroke-width="0.5"><title>2025-04-28 5.2km</title><desc>1745795058000</desc></polyline><polyline fill="none" points="27.228451385861263,121.67158546828432 27.36879436240997,123.60000000000582 27.275232378044166,122.71844089013757 26.667079480015673,122.55314821604406 27.345403866260312,122.63579456647858 27.017936921212822,120.0186470587214 28.631881150533445,118.91668213531375 27.532527834759094,118.0351067497977 26.94776543288026,116.8504850010504 26.784031960414723,115.14241599620436 27.555918330908753,114.4812249065144 28.468147677835077,112.607840792567 30.22243488370441,110.624242532067 34.52628616173752,107.7039168626361 36.53786882432178,105.74783086538082 38.08164156542625,104.94886182298069 38.1518130536424,102.13867485182709 40.140005220077,102.68969435908366 41.33292051998433,101.7254094358068 40.09322422801051,93.76303094276227 38.97048041631933,90.70474991668016 40.023052739794366,89.35468619785388 40.069833731860854,88.3627980692545 39.95288125157822,87.67398458626121 38.50267049483955,86.04837734802277 38.900308928103186,82.87979091447778 40.023052739794366,80.39999999999418" stroke="#4dd2ff" stroke-linecap="round" stroke-linejoin="round" stroke-width="0.5"><title>2025-04-27 2.3km</title><desc>1745711220000</desc></polyline><polyline fill="none" points="83.13368049776182,80.47393344014381 84.02009418005036,80.39999999999964 84.58168518847378,80.54786662105653 85.53658557910967,80.58714351797425 85.78509449224657,80.70266337900648 86.70672991026368,81.3218390475813 86.86914124718896,81.57828334733313 87.3642023103821,82.67564490303994 87.37985641514388,82.86738853599309 87.4913919115861,82.98982632946536 87.8220848747369,83.58352404177276 88.09994523430942,83.89307186336009 89.25639222378231,84.89329608570551 89.75928033934906,85.4037848587559 89.86690230960812,85.59319384099399 89.6712260000495,85.75026341463854 89.45402529644343,85.80338962345013 88.74372029274673,86.18219871326073 87.6929385104304,86.57947898904604 87.00220113768592,86.92824794938497 85.8809758839343,87.73894028094765 85.34873632193921,88.24705065241506 85.0532650945097,88.60041110815837 84.7675776825563,89.01381223682256 84.23338135747326,89.88908734897996 84.14728378126165,90.09693098791286 84.1453270181737,90.24472966394751 83.7950664240634,91.16382945608348 83.64830919189262,91.37396976851778 83.46241669781011,91.85659179917457 83.20412396918982,92.34382103257485 82.2003045011661,93.75233521161499 81.81286540825386,94.22566724828357 81.49978331296006,94.66897348723614 81.51348065462662,94.70591525383497 81.60740528321185,94.64126711988501 82.18856392260204,93.85392932332616 82.27661826190888,93.82391293209548 82.35488878573233,93.85623827472955 83.18259957514238,94.39652596317501 83.46241669781011,94.52813240934483 85.12370856594498,95.546322990298 90.80027830618928,99.73401044163074 91.48514538964082,100.30184682861909 93.76281763287989,101.7652247629776 94.5474796342096,102.10681890834167 95.42997979030042,102.33993066331641 95.93873819514556,102.39070714031914 97.21259097036818,102.75767896217803 97.47479722517164,102.8038384887841 97.50023514540953,102.76921885327647 98.23402130625618,103.01847896367508 98.79169878848188,103.30004703528357 99.2378407742799,103.60238234741519 99.27501927308913,103.54930088792389 99.30437071952474,103.5608403469796 99.62136634100898,103.80316753235456 99.6957233386347,103.77547313744253 99.70159362793493,103.74547083535617 100.00684867083328,103.87009550365838 100.16534648158267,104.04318410226551 100.37276336970535,104.08010948660922 100.50190973401186,104.15165223526674 100.55278557449492,104.21396346430993 100.5273476542643,104.18396178436342 100.53713146973314,104.30166043857935 100.61931551974703,104.25781199690755 100.6819319388087,104.27627450974433 101.47833451870247,104.71475445229044 101.5526915163282,104.78629505391291 101.55464827942342,104.75629418592143 101.74836782588682,104.82321914069507 101.94013060924772,104.84398891118508 102.19450981167756,104.92706778915999 102.17494218071806,104.9432219775299 102.48802427601186,105.01014634075545 102.57412185222347,105.07707049221062 102.63282474508742,105.28938019174711 102.68957087484887,105.34476498024014 102.92633920941444,105.33322649460024 103.35487032735546,105.60322540882771 104.77352357163181,106.04860070096038 105.03377306334733,106.17551940391786 104.9398484347621,106.18244222035537 104.77548033473431,106.13859767796566 104.78526415020315,106.11552156652397 104.64633397042053,106.20321065608005 104.3782574263314,106.76164317086295 104.2041055108275,107.02008628653857 103.75796352503676,107.50927353937732 103.57598455715197,107.88769365416374 103.45075171902863,108.02383094229117 103.39009206306946,108.150737794811 103.17093459637545,108.36532401358636 102.85589573797915,108.78064599624668 102.3197426498009,109.27902161433849 102.07906078903034,109.63203057506507 102.07710402594239,109.69663288462834 102.10841223547322,109.69201844048439 118.38085413820954,123.52852294259174 118.40433529535949,123.51930007891497 118.38281090130477,123.54927437118567 118.42390292631171,123.56310864563238 118.41607587392355,123.52852294259174 118.50021668703994,123.60000000000036" stroke="#ffc900" stroke-linecap="round" stroke-linejoin="round" stroke-width="0.5"><title>2025-04-20 36.9km</title><desc>1745145130000</desc></polyline><polyline fill="none" points="156.3413075626595,81.98723014899588 156.01374003768433,81.93360792625754 155.8408571773325,82.1051989362386 155.45869506488089,82.1051989362386 155.69527161068982,81.9765057067998 155.73166800232138,81.76201661741652 155.40410047740443,81.34376154969505 155.45869506488089,81.16144468229322 155.32220859616064,81.36521057071513 155.5860824357369,81.68694532576046 156.08653282100568,81.65477189756348 155.95004635234363,82.21244316561206 155.34040679194732,82.29823846511863 154.58518166502472,81.9550568188497 154.78536181914387,80.98985202824406 155.13112753996393,80.40000000000146 156.1957219960168,80.60376746366092 156.77806426264578,81.52607807960158 155.69527161068982,82.71648947986978 155.1493257357506,82.87735478188551 155.20392032322707,83.05966847324453 155.0037401691079,82.84518174249388 154.3486051192158,82.74866256128007 154.3941006087698,83.145463034758 154.94914558163146,84.02485298204556 155.74076710030204,86.68442358433094 156.09563191892812,87.24206637874886 166.97815302584786,90.71653883982799 167.9517565028509,90.85594412864157 168.71608072769595,90.77015628192021 168.9162608818733,91.03824305481248 170.37211654835846,94.37318152993976 172.61959373345599,102.3615622710713 176.48671034752624,112.38633198181196 177.651394880726,116.40667511580978 177.53310660785064,116.7175748218433 174.3211250436143,117.75747361122194 174.47580970823765,118.4757478137617 177.30562915996416,123.36416160328372 177.2328363765846,123.59999999999854 176.99625983077567,123.21408232986869" stroke="#4dd2ff" stroke-linecap="round" stroke-linejoin="round" stroke-width="0.5"><title>2025-04-16 7.1km</title><desc>1744770713000</desc></polyline><polyline fill="none" points="19.729032258037478,135.5875918249949 19.419354838319123,136.7588517089025 20.399999999906868,138.38559686104418 19.264516128925607,139.62191953198635 20.24516129004769,139.68698905894416 45.79354838677682,163.63198307043058 46.72258064500056,162.78612024654285 46.0,161.81012284991448 46.87741935485974,159.4677210949303 48.68387096747756,158.29651598093915 47.238709677243605,164.15251330684987 50.129032257944345,165.0634398778784 52.19354838714935,160.76905679819174 52.60645161289722,161.2245234704169 52.554838709533215,158.81705193588277 54.567741935374215,158.81705193588277 54.30967741901986,157.19037522390136 55.5999999998603,157.32050956136663 54.361290322383866,168.1215380129579 54.980645161354914,168.38180079471203 54.05161290313117,169.68311261222698 54.67096774186939,168.1215380129579 53.79354838677682,166.42982653088984 52.70967741915956,168.0564722956915 50.85161290317774,167.21061717782868 46.774193548131734,167.53594624367543 37.27741935476661,158.03624779410893 36.03870967729017,158.42665002204012 36.96774193528108,157.64584525238024 27.10967741906643,148.40622682467801 22.980645161122084,149.57745579149923 21.174193548038602,147.88567971042357 21.277419354766607,146.8445838080661 20.761290322290733,148.53636351588648 18.851612902944908,149.3171829318162 17.458064516074955,149.12197819561698 17.200000000186265,148.2110217223235 16.322580644860864,150.61854583508102 15.961290322476998,149.83772851145477 14.103225806495175,150.55347777277348 15.238709677476436,147.75554284479585 13.690322580514476,145.02266060825787 12.399999999906868,138.25545744923875 13.225806451402605,137.66982966539217 15.135483870981261,138.38559686104418 19.883870967430994,136.62871186129632 19.10967741953209,133.70055607013637 17.819354838691652,133.04985238527297 19.058064516168088,132.91971154380008 17.974193548085168,130.31688738774392 19.006451612571254,131.16280676875613 19.161290322430432,133.24506358237704 18.335483870934695,133.8957670054515 18.593548387056217,130.9675947347423" stroke="#4dd2ff" stroke-linecap="round" stroke-linejoin="round" stroke-width="0.5"><title>2025-04-07 2.7km</title><desc>1743986187000</desc></polyline><polyline fill="none" points="101.58564437180758,150.37775639790925 98.37911908631213,150.11121360526886 100.17618270777166,148.86734440599685 102.25513866217807,148.82292041977053 103.77030995092355,147.22365294885822 103.312234910205,146.60171351555618 101.97324632946402,146.82383487565676 96.79347471427172,141.04863114401815 91.93083197367378,141.4484561822901 89.99282218585722,142.33695454100962 88.90048939618282,143.71412229098496 87.38531810743734,142.02598038633005 86.50440456764773,141.75943087870837 85.23588907020167,142.38137939636363 82.13507340941578,139.9824286844232 78.39999999990687,141.98155548336217 80.37324632937089,140.3822550084733 82.5226753668394,139.89357832461246 84.91876019560732,142.1592550597561 86.78629690036178,141.715005940001 88.90048939618282,143.66969761421205 90.16900489386171,142.29252967966022 92.38890701462515,141.40403120190604 97.1458401302807,141.13748119419324 102.818923327839,148.11213582960772 101.97324632946402,148.86734440599685 99.01337683503516,148.9117683863442 96.72300163120963,150.2889088241791 102.92463295254856,150.42218017583946 108.6329526915215,149.04504029176314 110.04241435555741,152.86547879551654 111.16998368664645,153.35413635874284 116.42022838466801,153.17644278271473 121.56476345821284,157.84086759001366 121.5999999998603,158.32951781974407 119.4153344205115,159.26239353144774 116.56117455125786,159.6177740645653 116.34975530160591,160.10642167535843 116.77259380067699,159.57335151868756" stroke="#4dd2ff" stroke-linecap="round" stroke-linejoin="round" stroke-width="0.5"><title>2025-04-04 2.7km</title><desc>1743741381000</desc></polyline><polyline fill="none" points="183.96757097693626,148.40137838301598 181.8827841153834,149.7584506420535 181.16956755763385,149.56458355553332 180.4563509997679,150.6631620414264 178.4264269504929,151.24476077355212 178.0423872654792,150.85702841178863 178.97505507199094,149.27378268892062 178.59101538686082,148.82142522014328 174.80548134900164,149.53227236223756 173.4887738575926,149.3707163426734 172.00747792969923,148.3044444132247 171.04737871710677,146.17188908642856 171.2119671535911,145.622592056141 172.995008548256,144.8794238708797 172.74812589364592,142.00366861454677 171.51371262036264,140.64656097081024 169.51121997705195,140.32343919065897 168.71570920106024,141.51898802412325 168.00249264319427,141.09893087347155 165.34164625417907,144.6532418806746 163.00997673813254,146.6888736001274 162.24189736822154,146.91505404227064 160.40399316127878,146.43038145572064 159.60848238528706,144.39474796701688 159.1695798881119,148.4660010119551 159.9102278520586,150.501606636215 159.38903113664128,150.0815621720103 159.416462542722,149.33840512830648 160.10224769450724,149.30609391030157 161.50124940415844,150.40467335100402 161.77556346496567,151.3093827847042 163.8603503264021,152.7956851660274 162.9551139260875,153.3772797283891 163.14713376841974,153.8942517178075 159.49875676096417,154.89588239067234 158.9226972333854,153.5065228099411 157.16708724491764,151.5032487338467 157.05736162059475,143.94238307743217 155.2194574137684,144.23318915680284 153.5735730493907,142.8760916867759 152.64090524299536,143.13458692035056 154.80798632255755,140.09725373546826 156.67332193558104,141.06661876034923 158.0174608330708,143.32845819814247 159.88279644597787,141.8097964731278 162.15960314997938,141.55130008800188 164.13466438709293,139.45100863021798 164.93017516320106,139.3217594406451 165.2319206299726,140.1941903801344 164.7381553207524,138.70782502315706 165.2593520359369,138.12620177434292 164.29925282357726,138.25545148344827 164.16209579317365,138.83707447955385 163.7231932959985,138.32007631700253 164.95760656928178,137.6415148647211 163.31172220490407,138.4170135409513 163.42144782934338,138.96632387975114 163.8603503264021,138.70782502315706 164.6009982903488,139.09557322377805 162.3241915864637,141.45436388568487 159.82793363381643,141.8744205343246 158.20948067563586,143.32845819814247 156.53616490529384,141.00199452365632 154.56110366806388,140.12956595394644 152.50374821259174,143.39308192936005 149.70574479328934,146.39806992182275 149.67831338732503,149.17684900344466 150.7755696302047,149.69382829393726 150.7755696302047,150.82471735891886 148.96509682934266,150.7600952423818 147.73068355605938,147.72283993154997 148.03242902294733,148.82142522014328 147.7581149622565,149.9846287498949 147.3740752772428,150.4369844495668 146.4688388769282,150.11387330573052 145.86534794326872,152.3756439415738 146.6334273131797,156.67296076723142 147.81297777441796,157.9330644555448 148.55362573836464,159.9039851608104 148.36160589579958,161.71334349134122 147.2369182469556,162.58570875396254 146.93517277995124,161.6164138597669 147.18205543467775,161.26100494049024 147.86784058634657,161.68103361764224 147.18205543467775,162.94111609036918 148.30674308363814,164.4919794985326 148.96509682934266,168.4337209360092 153.6010044554714,171.17998532817 157.4962641177699,171.60000000000582 158.97756004554685,171.47076477948576 162.92768251989037,169.0152849232545 168.5511207645759,170.30764526882558 169.86782825598493,169.79070180436247 173.59849948179908,165.07355119197746 173.04987136041746,164.0719547906192 170.9650844988646,163.71654880515416 170.49875059572514,163.16728417441482 170.00498528638855,160.64711580704898 172.50124323891941,158.99930186840356 173.3790482332697,157.1576166637824 174.53116728831083,156.3498563976318 174.14712760329712,154.7666399127338 172.4738118329551,153.66807658298058 173.13216557877604,150.04925103473943 173.8728135426063,149.27378268892062 175.98503181012347,149.07991528647835 179.13964350835886,147.78746270781267 180.26433115731925,148.14288772686268 180.95011630898807,149.40302755354787 181.74562708521262,149.62920593167655 184.6533561287215,147.59359433673671 186.13465205661487,147.20585721512907 185.86033799604047,144.5239949518873 184.46133628627285,140.64656097081024 185.69574955943972,139.3217594406451 185.86033799604047,138.0938893382845 183.80298254056834,135.18575571561814 184.2693164437078,132.27759365458041 185.9152008080855,128.39999999999418" stroke="#4dd2ff" stroke-linecap="round" stroke-linejoin="round" stroke-width="0.5"><title>2025-04-01 8.4km</title><desc>1743465137000</desc></polyline><polyline fill="none" points="25.83551642135717,191.13323389505967 24.928351579699665,190.80028272542404 26.533335530664772,190.55056924914243 27.71962801623158,191.88237347407266 28.69657476968132,188.96904859063216 27.859191838419065,187.55400090047624 23.183803806314245,186.47190376592334 21.439256032928824,181.72730517404852 18.089724308345467,182.89264802268008 16.973213733406737,180.39548250834923 25.34704304486513,176.39999999996508 24.300314381252974,177.56535131362034 26.882245085434988,179.14689656283008 23.323367627803236,180.64519944245694 27.440500372787938,179.06365742412163 39.9314624289982,199.54020083718933 44.0485951739829,197.7922255465528 45.09532383782789,198.45812138658948 47.049217343796045,201.87082807777915 45.932706769090146,200.4558052791399 44.39750472875312,202.61995668924646 46.7700897003524,200.78875206562225 47.39812689856626,201.45464518514927 44.88597810501233,201.62111837038537 49.84049378125928,208.03030727797886 44.53706855047494,210.194436338963 45.16510574892163,213.5238531953073 47.118999254889786,213.35738271125592 46.83987161121331,214.18973475293024 39.37320714164525,214.3562050476903 39.442989052738994,213.19091218948597 40.41993580525741,214.3562050476903 39.72211669618264,212.94120633631246 42.443611222552136,216.02090591937304 48.02616409654729,216.18737579882145 46.979435432935134,216.18737579882145 48.30529174068943,213.94002923945663 48.16572791850194,209.9447294654674 49.7009299590718,210.6938498307718 51.02678626659326,212.19208826625254 50.67787671205588,213.60708842310123 47.81681836419739,212.7747357201879 42.932084599044174,216.10414086392848 45.58379721455276,216.2706107244594 49.77071186993271,219.59999999997672" stroke="#4dd2ff" stroke-linecap="round" stroke-linejoin="round" stroke-width="0.5"><title>2025-03-30 2.1km</title><desc>1743318651000</desc></polyline><polyline fill="none" points="112.49413956096396,177.5922483113245 112.31775170844048,176.39999999996508 108.73119870503433,177.7325126673677 108.9663825086318,179.27541848208057 105.32103355415165,180.0468699449557 105.4386254560668,182.22095524996985 103.43956312630326,183.27292926475639 103.43956312630326,184.25477006280562 102.85160361765884,183.69371836917708 102.73401171574369,184.95608396356693 102.14605220709927,181.80016514257295 102.67521576490253,182.43135019612964 101.67568460013717,183.06253460486187 93.97341503552161,184.0443757373141 94.73776239692234,184.18463862891076 94.67896644608118,186.70936523366254 92.67990411631763,185.86779084481532 88.2702078006696,186.70936523366254 88.15261589898728,188.74316527554765 90.6220458354801,188.4626415297389 92.20953650935553,196.31725828076014 91.91555675468408,194.63413452351233 92.97388387052342,193.72244057437638 88.44659565319307,195.33543664618628 87.5646563898772,196.87829851469724 87.50586043903604,195.1951762852841 91.44518914772198,193.72244057437638 93.09147577220574,195.1951762852841 92.20953650935553,196.10686806187732 93.38545552664436,213.56901252031093 93.62063933024183,216.0234912702581 95.03174215112813,217.07540775078814 91.85676080407575,217.49617384182056 91.85676080407575,219.59999999997672 90.85722963907756,218.7584703959874" stroke="#4dd2ff" stroke-linecap="round" stroke-linejoin="round" stroke-width="0.5"><title>2025-03-30 1.4km</title><desc>1743309591000</desc></polyline><polyline fill="none" points="172.8844132248778,182.44101103732828 172.54252362903208,184.8207735272008 174.28305248043034,186.68796002154704 174.7181846932508,188.22563524794532 174.5316994593013,189.32397039944772 173.31954543781467,190.75180074429954 175.1843977784738,197.85425153680262 174.12764811876696,198.6596746504947 173.1019793312298,198.4034038685204 172.41820013953838,199.53831585193984 170.8019947776338,200.5633943582652 169.43443639436737,200.70983389031608 168.62633371329866,202.1376159931533 171.85874443734065,205.50569339850335 172.1384722883813,209.75235171534587 169.71416424540803,211.07026927813422 167.75606928765774,213.15696154622128 161.22908609476872,217.7329958496848 160.60746864788234,218.90445064293453 160.2655790519202,217.3303073241259 158.49396932835225,216.8910102020891 156.19398477452341,219.60000000000582 155.88317605108023,218.79462692906964 157.3128961790353,214.69451600286993 156.93992571078707,213.15696154622128 159.70612334972247,211.39974786370294 160.7007112648571,209.23982682675705 162.09935052052606,208.36121091878158 161.44665220112074,207.70224748470355 162.09935052052606,208.10494751424994 163.34258541441523,210.15504929519375 167.25877533003222,207.73885659818188 167.97363539412618,207.9585111955239 167.94255452172365,207.22632864760817 168.03579713881481,207.8852930123394 167.41417969181202,207.51920185770723 167.47634143650066,206.45753526021144 166.82364311721176,206.34770749043673 167.16553271305747,205.6155214428727 165.95337869145442,204.18775407469366 166.20202567009255,203.60200160980457 167.97363539412618,203.34573458618252 168.28444411745295,201.9911770815379 169.18578941561282,201.0759324420651 168.78173807496205,200.08746543951565 171.9209061821457,202.24744513520272 172.7290088632144,202.21083542512497 174.25197160826065,203.67522072358406 174.8425081827445,205.2128184385656 175.61952999141067,204.81011495317216 176.11682394891977,203.38234417294734 174.8425081827445,195.69424368240288 173.00873671437148,190.8250226500968 174.5316994593013,189.32397039944772 174.74926556565333,187.53002113374532 172.6046853737207,184.49126895412337 172.94657496945,180.90330941276625 175.33980214013718,176.39999999999418" stroke="#4dd2ff" stroke-linecap="round" stroke-linejoin="round" stroke-width="0.5"><title>2025-03-26 3.9km</title><desc>1742943197000</desc></polyline><polyline fill="none" points="33.19904227077495,226.2905877099838 33.01355732296361,225.59405768176657 33.82294618623564,225.67366124854016 33.90725752612343,225.17613838470425 33.08100639487384,224.40000000000873 32.91238371504005,224.77811911390745 32.507689283404034,224.658713162833 30.686564341012854,227.62393775361124 30.686564341012854,228.06175205456384 30.484217125165742,227.98214953277784 30.33245671336772,228.95727802473994 29.539930118073244,230.5493133093696 29.674828261951916,231.04682147871063 31.630851348221768,232.20103519200347 33.06414412695449,233.5144418895943 32.84493464307161,234.0517418966192 32.60886289132759,233.7731420910277 32.62572515930515,234.8875387536973 32.30534206761513,235.40493488388893 32.84493464307161,235.7432315581973 32.82807237509405,236.5989203382196 32.38965340750292,236.9173151360592 32.1535816557589,236.67851908993907 31.91750990395667,237.4148058922001 31.39477959636133,237.27550861756026 31.22615691658575,237.63370139390463 31.39477959636133,237.45460509393888 32.76062330318382,238.7281749525282 33.60373670241097,239.00676717078022 33.67118577437941,240.37982258590637 34.22764061787166,240.20072898894432 35.49231071671238,240.8176061919512 36.50404679577332,242.72792232839856 36.30169957992621,242.86721542883606 36.453459991840646,242.74782134925772 37.38088473101379,244.18054513340758 37.97106411040295,244.3397359685623 38.055375450407155,244.63821840922174 37.66754328669049,246.98626320029143 38.460069881984964,248.35925840435084 37.81930369854672,249.2546844780445 36.94246576342266,254.66694383425056 37.06050163926557,255.28377199907845 35.9813164882944,255.5822364895139 36.47032225987641,255.34346493626072 36.2679750440293,255.1245907373377 35.18878989299992,255.78121254459256 34.44685010169633,254.6470461167337 35.222514429013245,255.46285075202468 35.10447855305392,256.69649959578237 35.57662205660017,256.09957378014224 34.88526906928746,256.238856645592 35.49231071671238,256.17916400202375 35.20565216097748,255.46285075202468 34.396263297705445,254.78633009384794 34.73350865743123,255.16438606580778 34.497436905629,254.9057162751269 34.91899360524258,256.0398810908955 34.90213133720681,257.11434650181036 32.49082701548468,262.685546915076 32.60886289132759,263.26255435479106 37.296573391126,264.53594361103023 37.077363907243125,266.22714994390844 36.80756761948578,266.16746057610726 36.756980815611314,266.66487137602235 36.30169957992621,266.6250785621087 36.04876556020463,267.6000000000058" stroke="#4dd2ff" stroke-linecap="round" stroke-linejoin="round" stroke-width="0.5"><title>2025-03-24 3.9km</title><desc>1742796232000</desc></polyline><polyline fill="none" points="110.48476281737385,267.5969553794075 110.57260952406796,267.60000000000036 110.62428405742685,267.4721256498178 110.55969089074642,267.5391075251737 110.56227461740491,267.4051436141308 110.48734654404689,267.4173221779947 110.7431354841392,267.3533846585706 110.76638902415289,267.3077149123874 110.68112604411726,267.1615712237326 110.73021685080312,267.08240974036926 110.63203523741686,266.9971586616757 110.72246567079856,266.7718509891529 110.65528877743054,266.753582719979 110.714714490794,266.6165703210172 110.59586306408164,266.49173621787486 110.40208356401126,266.55263097191164 110.39691611067974,266.49782569924537 110.44083946401952,266.52522834899537 110.45117437069712,266.4673782791524 110.59586306408164,266.43693082594655 110.45634182402864,266.4795572511721 110.51318381073361,266.4734677658198 110.46667673070624,266.3394987530028 94.05484493769472,224.59210734730368 94.01867276434496,224.6165018363463 94.05226121103624,224.66834005468627 94.13752419107186,224.6043045944989 94.14785909773491,224.6408963040485 94.3080501511431,224.5860087217079 94.33647114447376,224.67138935864932 94.27704543112486,224.42744398781724 94.28479661112942,224.47013458182846 94.41139921784634,224.39999999999964 94.53283437121718,224.40609866629347 94.62326480458432,224.51892375206626 94.69560915128386,224.53417035024904 94.60001126457064,224.5585648900069 94.55092045789934,224.4609866029041 94.61292989792128,224.47013458182846 94.57417399791302,224.47928255774968 94.55092045789934,224.54026898719167 94.00317040435039,224.7049316801731 94.16336145774403,225.4184587765758 94.02384021769103,225.46724628700395 93.97733313767822,225.5495750172413 93.83006071762065,225.57396866839372 93.81714208427002,225.69593660396458 93.82747699094762,225.74472362878078 93.9799168643367,225.72642850447482 94.02642394434952,225.81485482736753 93.97733313767822,225.6593462793262 93.97216568433214,225.7386252553515 93.89207015764259,225.75387118642902 93.65695103089092,225.72033012705106 93.41666445079318,225.78741220544725 93.4218319041247,225.7294776926974 93.41666445079318,225.82095318412757 92.86891439724423,226.07403381304357 92.8534120372351,226.24478571047075 92.66479999049625,226.33930863253408 92.39350869039481,225.78741220544725 92.29274335035007,225.83619907017965 92.21264782366052,225.81485482736753 92.25398745034181,225.84534659780365 92.2359013636742,225.72337931593938 92.14030347696098,225.58921468952394 92.18681055698835,225.56482105171017 92.04987304357928,225.4794431512728 92.00078223690798,225.35137581031086 92.03695441025775,225.31173579981623 91.86901217685954,225.18671693596661 91.76566311015631,225.24160333548207 91.44269727669598,225.13487968163645 91.16623852326302,225.00986002459103 91.02154982986394,224.96717025718135 90.85877504981181,224.7750654947631 90.52547430965933,224.5799100947752 90.39887170297152,224.59820597156795 90.11982922285097,224.909234039691 89.9027961827669,224.92143114811552 89.90021245609387,224.96107171363292 89.77102612271847,224.97936734024552 89.43772538259509,224.84824841751652 89.44289283592661,224.72322747490944 89.23361097584711,224.59210734730368" stroke="#4dd2ff" stroke-linecap="round" stroke-linejoin="round" stroke-width="0.5"><title>2025-03-24 4.7km</title><desc>1742777725000</desc></polyline></svg>