<?xml version="1.0" encoding="utf-8" ?>
<svg baseProfile="full" height="300mm" version="1.1" viewBox="0,0,200,300" width="200mm" xmlns="http://www.w3.org/2000/svg" xmlns:ev="http://www.w3.org/2001/xml-events" xmlns:xlink="http://www.w3.org/1999/xlink"><defs /><rect fill="#222222" height="300" width="200" x="0" y="0" /><text fill="#FFFFFF" style="font-size:12px; font-family:Arial; font-weight:bold;" x="10" y="20">Over 1km Runs</text><text fill="#FFFFFF" style="font-size:4px; font-family:Arial" x="10" y="280">ATHLETE</text><text fill="#FFFFFF" style="font-size:9px; font-family:Arial" x="10" y="290">Tao</text><text fill="#FFFFFF" style="font-size:4px; font-family:Arial" x="65" y="280">SPECIAL TRACKS</text><rect fill="yellow" height="2.6" width="2.6" x="65" y="283" /><text fill="#FFFFFF" style="font-size:3px; font-family:Arial" x="70" y="285.5">Over 20.0 km</text><rect fill="red" height="2.6" width="2.6" x="65" y="287" /><text fill="#FFFFFF" style="font-size:3px; font-family:Arial" x="70" y="289.5">Over 40.0 km</text><text fill="#FFFFFF" style="font-size:4px; font-family:Arial" x="120" y="280">STATISTICS</text><text fill="#FFFFFF" style="font-size:3px; font-family:Arial" x="120" y="285">Number: 16</text><text fill="#FFFFFF" style="font-size:3px; font-family:Arial" x="120" y="290">Weekly: 2.3</text><text fill="#FFFFFF" style="font-size:3px; font-family:Arial" x="141" y="285">Total: 261.3 km</text><text fill="#FFFFFF" style="font-size:3px; font-family:Arial" x="141" y="290">Avg: 16.3 km</text><text fill="#FFFFFF" style="font-size:3px; font-family:Arial" x="167" y="285">Min: 1.4 km</text><text fill="#FFFFFF" style="font-size:3px; font-family:Arial" x="167" y="290">Max: 98.8 km</text><polyline fill="none" points="27.49565012496896,39.7300542704761 25.93691819673404,39.21300682213041 25.116532971384004,39.5232354158361 24.624301835894585,39.075127327261725 23.721878088079393,39.79899385172757 22.545992598403245,38.833838033286156 21.83499206963461,37.00692603868083 20.959914495935664,36.66222420800477 21.479491805192083,34.421651055512484 20.002798399538733,32.25 18.307335600373335,32.939415018830914 16.885334543068893,34.28376899371506 16.47514193027746,33.90459294250468 16.11964166595135,34.59400352902594 15.791487575741485,33.93906351571786 15.518025833996944,34.73188542475691 14.971102350391448,34.6629444861901 15.244564092252403,34.97317856439622 14.424178866785951,36.24858140188735 14.697640608530492,35.07658984081354 15.27191026636865,34.80082634487189 14.971102350391448,34.6629444861901 17.295527155743912,34.076945762353716 20.084836922120303,32.25 21.42479945695959,34.04247520767967 20.90522214747034,36.80010499569471 21.479491805192083,36.59328378649661 22.6280311208684,39.040657441917574 23.885955133126117,39.97134272416588 23.06556990777608,40.21263095171889 22.874146688496694,40.764146050816635 24.26880157168489,44.10768103893497 23.74922426219564,47.27882872862392 29.19111292413436,46.24476312281331 30.968614245881326,46.382638776965905 30.968614245881326,46.796265296288766 30.613113981555216,46.24476312281331 31.023306594230235,45.865604693157366 34.03138575400226,47.17542235495057 37.91454248770606,48.03714086575201 39.008389454800636,48.82991934771417 40.70385225408245,51.55292249217746 39.8287746803835,54.13802540363395 37.0394649138907,56.99884236083017 33.621193141443655,57.61925630076439 33.92200105730444,58.308603368874174 35.20727124379482,58.65327621073811 33.23834670276847,57.826060615014285 35.945617946679704,58.82561245854595 39.610005286871456,58.34307067387272 44.012739329831675,59.6528248419927 44.887816903647035,60.34216646416462 50.165628520422615,60.72130356938578 49.50932034023572,72.198553431459 49.61870503681712,72.75 50.30235939146951,72.57767307420727 50.57582113321405,70.92332871677354" stroke="#4dd2ff" stroke-linecap="round" stroke-linejoin="round" stroke-width="0.5"><title>2025-05-05 3.1km</title><desc>1746429236000</desc></polyline><polyline fill="none" points="76.44379728761851,32.297841484702076 76.27303397483774,32.25 75.96945475210669,32.48123348634908 75.17888385959668,32.624757267312816 74.50215517560719,33.39021158610194 73.83175105875125,33.669281023911026 73.8570493273146,34.27525586828051 74.0720846100885,34.74567945342642 73.83175105875125,35.718407953387214 74.2365233557357,35.86989702657229 74.38198839995312,36.268550639710156 74.57804998129723,36.364227109475905 74.88795377116185,36.794769320029445 75.43186654520105,36.91436382576285 76.25406027340796,37.74354578919883 75.81766514075571,38.620552602315 75.83663884215639,38.9314882783292 75.96945475210669,39.059051162686956 75.86193711071974,39.274312910038134 76.10859522919054,39.23444968223703 76.13389349775389,39.354039285546605 75.79869143932592,39.25836762212202 75.88091081212042,39.44971079521201 77.49367543283734,39.77658729283212 77.9110968640889,39.760642139463016 78.31586916107335,39.999818991262146 78.48030790672055,40.41438992422627 78.22100065395352,40.884764985949005 77.68341244707699,40.96448920425246 76.8738678531081,41.37108105658626 77.0383065987553,41.69794700235434 76.7916484803136,41.80955935321617 76.37422704903292,42.351673508914246 76.54499036184279,42.44734020031683 76.46277098901919,42.351673508914246 76.32363051193533,42.399506873844075 76.23508657197817,42.6227287352267 75.80501600645948,42.822033261218166 75.2737523666874,42.877838408927346 75.08401535250596,42.73433935199864 74.78676069690846,42.73433935199864 74.66659392125439,43.08511421370713 74.74248872694443,43.19672396349051 74.58437454843079,43.18875184544595 74.38831296711578,43.467775341676315 74.33771642995998,43.92218223602322 74.52112887700787,44.37658566150276 74.82470809976803,44.743294668620365 75.62160355938249,45.07014209695262 76.36790248192847,45.20566367506399 77.01300833022106,45.875295179379464 77.04463116591796,46.17822124245504 76.89916612167144,46.584777483360085 76.3615779147658,47.21453559060683 75.79869143932592,47.43773939667153 75.41289284380036,47.43773939667153 75.40024370953324,47.54934098584636 75.23580496385694,47.51745483886043 75.2421295309905,47.637027802036755 75.44451567946817,47.54934098584636 76.329955079098,47.68485692005925 76.63353430179995,47.51745483886043 77.87314946125844,47.88414449814445 78.03758820693474,48.051545548212744 79.18233485924429,48.10734579361451 79.2645542320679,48.203003235496 79.06849265072378,51.072655023785046 79.22660682923743,52.57916684431984 81.21884547837544,60.1270939554779 82.16753054936999,62.70926965527542 77.95536883411114,64.68567418011662 77.77828095416771,64.85302800303543 74.23019878857303,70.62246274567224 73.75585625309031,72.01692458213074 73.78747908878722,72.67828649848889 73.4775752989226,72.69422283962558 73.67996144740027,72.38346341866054 73.45860159749282,72.75 73.73688255166053,72.72609550907873 73.86337389447726,71.85755916716153 73.7242334173934,71.84959088521282 73.76850538735744,71.41133373717821 73.7748299545201,72.01692458213074 74.01516350579914,70.69417872203121 76.43747272048495,66.8771750986707 76.43114815332228,66.55841633986711 76.15919176628813,66.33528419371578 75.59630529084825,66.23965587520433 75.4887876494613,65.9926153417291 75.33699803811032,66.08027500314711 75.355971739511,66.19981069716232 75.45084024660173,66.1759035775467 75.47613851519418,66.09621310955117 75.3243489038432,66.10418216113976 75.31802433668054,66.16793453552964 74.85000636830227,66.63810618950083 73.97721610296867,66.83733034711622 73.75585625309031,65.86511014935968 74.03413720722892,65.5383768480533 73.91397043157485,65.53040772076201 73.76850538735744,64.90881250617531 73.50287356748595,64.9486585478553 72.98425906198099,64.4147193746503 72.83246945063001,64.59801246619827 72.99058362911455,64.03219284485749 73.28783828471205,63.506214854787686 74.29344445999595,63.33088782586128 74.3503655642271,63.06789631471838 74.5337780113041,62.924445910080976 74.19857595287613,62.82084262516946 74.17960225144634,62.38251904099525 73.97721610296867,62.33470172755551 73.75585625309031,62.4781535526854 73.69893514883006,62.6136355147064 73.81910192448413,62.749117168510566 73.98354067013133,62.6136355147064 73.78115452162456,62.73317816641065 73.64833861173247,62.38251904099525 73.55979467177531,62.62957454878051 73.04750473340391,63.04398793794098 72.87041685348959,63.6337250970937 72.84511858489714,64.57410470364266" stroke="#4dd2ff" stroke-linecap="round" stroke-linejoin="round" stroke-width="0.5"><title>2025-05-04 11.1km</title><desc>1746326389000</desc></polyline><polyline fill="none" points="131.2963781394319,71.6201096198065 131.28627838842658,71.64409749477181 131.22063000688286,71.63147230485902 131.18730082855836,71.62389718297709 131.13680207352445,71.58223390627154 131.12973224781672,71.56960863536733 131.19639060446207,71.45724299615813 131.26910881171352,71.32720022872218 131.245879384398,71.38780290164414 131.34788686957108,71.36760205298742 131.3307172928544,71.46229316534846 131.3872758984944,71.54940816754515 131.45696418044463,71.66934782501448 131.49029335876185,72.00390845961101 131.62361007205618,72.04052005094672 131.80843551547878,72.10995544588786 131.80540559018118,72.23115057386804 131.9548819050833,72.36496842525958 131.92458265206005,72.37380538782963 131.9558918801813,72.35865630417902 132.05385946494425,72.3106840489836 132.11445797098713,72.36496842525958 132.05183951474464,72.29932216411726 132.6063158450197,72.0847062692028 133.13756274798288,72.03673265139332 133.48095428221495,72.3258332079804 134.05462013940996,72.38516718495248 134.78079223680106,72.34098234318208 135.29688951325443,72.73863863261886 135.42010647553616,72.75 136.13516884682394,72.59346442700735 136.16041822434272,72.24251253904094 136.1664780749452,71.76908598315458 136.19071747736234,71.24387093159021 136.08265014158678,70.79691059381639 135.84732594313027,70.48251082544812 135.8301563664172,70.0759224294543 135.7443084828592,69.72740444208557 135.4564655791619,69.3574059791199 135.35445809399243,68.87247181427756 135.8129867897078,68.69819263946738 135.90186459856704,68.63504723320875 135.28476981204585,67.02848893893861 135.0494456135857,66.30721881671889 134.9242087010971,66.25290031653822 135.3312286666769,65.03507493075085 134.73534335727163,63.62503495112014 134.5040590592107,63.11074855986499 134.03543061249366,62.261547268113645 134.3525627941126,59.16613042471454 134.06774981571652,59.049827494881356 131.9851811580993,59.016959020787 131.95185197977844,58.60482939191388 130.641914274187,58.74895034922156 130.3762908227036,58.58713017813443 130.18742547887814,57.752701717211494 129.92887185310246,55.758630240633465 129.6188094971876,54.521769393629256 128.22706380844102,54.220750552455684 127.71399645729616,53.92098712940424 127.06357249245411,53.77552893536176 126.01622831303757,53.63892271407349 125.46276195786413,53.98422913592549 124.96383425812382,53.85395014821279 123.72762473488183,53.70343144938579 123.30242521749096,53.699636829883275 122.65604115305541,53.557969963095275 122.27528054009599,53.6186845902439 121.85614087331123,53.12916198945095 121.18450743135327,52.973572065358894 120.2795697411384,52.74713995205457 120.10989392422198,52.83568945837942 119.95435775871374,52.80912469214945 119.85639017394715,52.83568945837942 119.18677668219607,52.615579178941516 118.70703850936479,52.471366262347146 118.4828240370116,52.37395806782479 117.7455422135099,52.079197386817214 116.95776163497794,52.04883525797777 116.32046734644973,52.15636736583565 115.87708827724782,52.343596870297915 115.53167679280887,52.84833932125548 115.36907080159654,53.40997645269363 114.97821043762815,53.84130160877157 114.85802340064402,54.11956563199146 114.79944484481166,54.068972772355664 114.72975656286144,54.081621012229334 114.84994359984194,54.13727306995588 114.42777400775594,55.087102836218946 114.43383385836205,55.324861781202344 114.55301092023728,55.44626833658913 115.03577901837343,55.31853848111041 115.62358452697299,55.07192653372749 116.22653966207872,55.62963991506422 116.35076659946571,55.54364540336337 116.36086635047104,55.145278440524635 116.79515564376561,54.990985849183744 116.94665190887099,55.3160091599093 116.96786138598327,55.539851510129665 117.05774916994778,55.63090453450059 116.93554218276404,55.780128459999105 116.84262447349829,55.84841660270831 116.7153676108137,56.06718831296712 116.93150228235754,56.16455909209526 116.89413320363747,56.35929769266386 116.89110327832896,56.361826739455864 116.93251225745917,56.16329454284278 116.71334766061045,56.08615672389169 116.83757459799745,55.84841660270831 116.98503096269997,55.91038134955943 117.22540503665732,56.07351112076594 117.38296115236881,56.19237913361667 117.59707587371304,56.20628912419579 118.02328536620189,56.13420986409983 118.06166442002723,56.05960093812337 117.8536095492891,56.04442617047607 118.26062951486529,55.998901723848576 118.25557963935717,55.95084790749024 117.97379658626596,55.93820212643186 117.9515771340557,55.90152926731389 118.28082901687594,55.881295905864135 118.35960707472987,55.869914621342105 118.4333352570793,55.881295905864135 118.47575421131114,55.993843438699514 118.53635271735402,55.93314380935044 118.62321057601002,55.930614649812924 118.54645246835571,56.05201355729423 118.51817316553934,56.23410904499269 118.80601606923301,56.733589383869 118.68683900735414,56.97004318078052 118.46464448520055,56.795548427476206 118.2909287678849,56.642546799690535 117.97985643687207,56.77531694691788 117.9475372336492,56.91440751625669 118.0091457147937,57.16729430724354 117.8889586778132,57.187524963285796 117.87481902640138,57.1280972900704 117.86673922559203,57.1710875584904 117.79705094364908,57.126832867500525 117.68999358297879,57.12430402186783 117.27792374189812,57.456841518126566 117.26479406558428,57.42649636777878 117.27186389129201,57.3746565144711 117.28297361739897,57.158443381844336 117.2860035427002,57.16097221850305 117.33347237243652,57.020620778339435 117.30216314431163,56.951076513120825 117.34660204874308,56.91187861477101 117.29004344310306,56.96877873743051 117.33650229773411,57.01429859318887 117.30014319410839,57.21913527816014 117.2637840904863,57.34051792190985 117.27792374189812,57.458105897311725 117.62333522632616,57.17867405650213 117.78998111794499,57.121775175567564 117.81624047056175,57.20396233998326 117.84552974848339,57.212813223496596 117.85057962398423,57.19890468860558 117.84552974848339,57.205226752415 117.96773673566713,57.188789377874855 118.0030858641876,57.0408517428923 117.98793623768142,56.76520119068482 118.33637764741798,56.63116641606757 118.4595946096997,56.791755028111766 118.7615771648052,56.999125331872165 118.99387143796412,56.93590315206711 119.07971932152213,56.76646566079489 119.36453229991457,56.85371369700351 119.64934527830701,57.04338061047383 119.7937717177083,56.85371369700351 120.08464454670684,56.83095341603985 120.49469443758062,56.796812893596325 120.81182661919956,57.04590947738234 121.14814832772754,57.12936171247475 121.08754982168466,57.09775110255214 121.10471939839772,56.96877873743051 121.17642763055119,56.849920320584715 121.21581665947451,56.74623411906214 121.5672879945123,56.3984978432527 121.97430796008848,56.309981147213875 122.3550685730479,56.01913483784665 123.78620329072146,55.76115944540652 124.68407115523223,55.47156117601298 125.48397143497641,55.06686776090737 125.67586670411038,54.42944108735264 126.65049267626819,54.223280161817456 126.64342285056773,52.543472991155795 126.6424128754661,52.105764170855764 126.6565525268743,51.727496847211114 126.16469465284172,51.36819235515577 125.5950686960532,51.00760919826371 125.51225073780006,50.74317294849061 125.40822330242736,50.34081100696585 125.04867216658386,49.928309257285946 125.0183729135606,49.69547836285801 125.07291156900101,48.80712603727352 125.05877191758555,48.45910236894633 124.59721329656895,47.74909497238423 124.3103803679769,47.39343873325106 124.02859731488934,47.20611271251255 123.94173945622606,46.89473840190658 123.86599132368065,45.50988640043215 123.54481924165884,45.251628639629416 122.8519763225886,45.2136489710183 121.2602555639096,44.981969737671534 120.34622809778375,44.7768719786618 120.13211337644316,44.36792941298245 119.94728793301329,44.06026144367024 119.46451983488441,44.0539307234385 119.08880909742948,44.331212354789386 118.63634025232022,44.80599106328282 118.20205095902566,44.53631963883345 117.94652725854758,44.16535078941888 117.20924543504952,43.32333755268246 116.94665190887099,43.196712628999194 116.11645237610355,41.74167231033698 115.87708827724782,40.59293365515623 115.6548937550906,40.34214330058876 115.42865933254143,39.974812254848985 114.33586627359546,37.0419924320131 114.35808572580936,36.87727183067 114.83277402313615,36.85319704409176 115.03981891876901,36.208223666614685 115.20141493488336,36.00040374300261 113.78542984371961,35.97379232966341 113.46526773679943,35.90409542062844 113.19964428531966,35.509981540995796 112.93705075914477,35.4554886355354 112.50074151564331,34.5975013329853 111.89071655482985,33.99927269113596 110.65450703158785,33.49100247334263 109.94550451090981,33.55437928425454 108.84160172585689,32.26901555153381 108.83756182545403,32.33113275670712 108.82544212424546,32.324794284845666 108.82645209934708,32.31972350433534 108.83150197485156,32.337471224374895 108.79716282142908,32.341274302953934" stroke="red" stroke-linecap="round" stroke-linejoin="round" stroke-width="0.5"><title>2025-05-03 98.8km</title><desc>1746244765000</desc></polyline><polyline fill="none" points="167.37234279888435,32.44955704319091 167.0545388576502,32.55942351732756 166.9902639032407,32.568392146074984 166.61800479230078,32.405834273726214 166.37608100556827,32.25 166.2011102963479,32.26569566843227 166.1207666033406,32.38789666187131 165.9359761094238,32.47870543056251 165.82438764690596,32.58184507134865 165.69762315349362,32.73879428478722 165.41731293566045,33.39458626789383 165.34678902735322,33.51677094868592 165.2851921960464,33.5503994501305 165.22270265703992,33.624381682627245 164.7227863449807,33.664735354847835 164.4835406813545,33.70060512407417 163.90149526088862,33.720781802409874 163.6774256281642,33.51564999633683 162.1205433991854,33.25446404806553 161.53314173251783,34.262171364308415 161.15731179077557,34.73852068463293 160.9876973277569,35.013109869372784 160.92163695794807,35.138633385390676 160.6752496327208,35.739327287169544 160.4360039690946,35.99147153407739 160.27710199847206,36.3679929553482 160.00928968844528,36.8554288406458 159.89502310283206,37.02238318311538 160.0083969807456,37.20838212911258 159.8789543642306,37.44143527984215 159.7762929787168,37.67112080834522 159.82182107142216,37.975864669420844 159.79503984042094,38.6570171628282 159.7816492249185,38.705188701649604 159.32726100556465,39.37060005633248 159.1674663272497,39.67528275085624 159.05052161853382,39.74025043677193 158.70593644629844,40.02587831548317 158.45865641336786,40.329417384418775 158.15959933383056,40.57918491664259 158.26047530394135,40.855824662307896 158.24708468844256,40.912943484382595 157.9239245010067,40.95214245312218 157.83554643869866,40.93422294706488 157.81590686929485,41.0686183184398 158.09532437942835,41.72488508587958 158.77467493920267,43.65419414457574 158.95321647922538,43.97999463047381 159.1585392502493,44.18711213896859 159.32726100556465,44.47706814831872 159.49955359168234,44.718877157803945 159.5700774999932,44.89799049546036 159.67988054710804,45.008814977853035 159.4076046985756,45.32560828593614 159.59328790019572,45.63007691703024 159.67541700860602,45.80021638979906 159.9557272264392,46.2815135137007 160.15926458206013,46.544536443951074 160.22353953646598,46.58594782151795 160.35030402987832,46.6307166508559 160.61811633991238,46.855676440576644 160.82254640323663,47.00340798160414 161.20551800657995,47.23619185418465 161.2269429913831,47.69278781626781 161.30550126899107,47.79798046099404 161.46975948581166,47.88526698432088 161.7027561955365,47.905409900603445 161.8518383814553,47.96695740399355 161.9509289361631,47.651381842972114 161.97235392096627,47.62788106550124 162.05626844477592,47.63571466522535 162.09376216818418,47.60773749013242 162.13929026088954,47.55737834240972 162.2214193692962,47.40853733573567 162.31515367780958,47.303339860838605 162.58296598783636,47.151136949221836 162.74543878925397,47.101894245942276 162.8659543287722,47.09182183959001 162.8971990982718,47.127634785595546 163.19000722391138,47.326841537568725 163.52120178064433,47.68271611163709 163.92559836879082,48.00500472817657 164.53174689716252,48.264617208721575 164.98077887031468,48.53429244978906 165.58603469098307,48.30266319783641 165.65923672238932,48.314972157779266 165.86991573961132,48.30266319783641 166.05559894123508,48.336233046525194 166.1698655268483,48.425751993569065 166.26895608156337,48.60814392505745 166.3573341438714,48.83640805684627 166.38857891337102,48.984105104788796 166.57515482269082,49.45403315250951 166.5519444224883,49.67891808167042 166.55640796099033,49.86352065871415 166.52516319149072,50.027981390177956 166.54212463778822,50.143213881226984 166.6162193768978,50.24613866676009 166.67781620820824,50.50232646243694 166.66710371580484,50.98783146260212 167.16612732016074,51.29097833461037 167.19915750506334,52.165680944723135 167.289320982778,52.50010224423568 167.31253138297689,52.671222429924455 167.30538972137947,52.7785901973748 167.3607375987849,52.921745108717005 167.35091781408482,52.96088860958571 167.31342409067656,52.98325624335121 167.30628242907915,53.050358791118924 167.32502929077964,53.11410572033219 167.40001673758889,53.214757792106866 167.4375104609935,53.348958698654315 168.07044022036644,53.56926725489757 168.13828600557463,53.63972005406413 168.23737656028243,53.83541920733114 168.24094739108477,53.99533002458338 168.34539419199427,54.106035749679904 168.39627853090497,54.21338537776046 168.4177035157045,54.27600536755199 168.41413268490578,54.311788011580575 168.39627853090497,54.32856107407406 168.41413268490578,54.429198753446144 168.69801373353766,54.816083617592994 168.70426268743176,55.012873781481176 168.78371367274303,55.494766807396445 168.74889807244108,55.64793821573494 168.91226358155836,55.71613773529862 169.0640238905762,55.74297018309244 169.37200804711392,55.74408819991004 169.98440552938337,55.79775283420622 170.3343469478241,55.80334288078575 170.34327402482086,55.78545471878624 170.37987504052944,55.78545471878624 171.3038275101353,56.52889970787328 171.3386431104409,56.53672509864555 171.47969092705534,57.1996213270595 171.87873126900013,58.69513993502369 171.92247394630613,59.09524155618783 172.08673216312673,59.63389612284209 172.1251185942274,59.91215036380618 172.18493001013485,60.003782297561884 172.29651847264904,60.11440977996972 172.3456173961531,60.13899346949984 172.48309438196884,60.166929394068575 172.57772139817826,60.166929394068575 172.63574739868636,60.19374779531154 173.3633041742687,60.106587682030295 173.38383645136855,60.15687247179358 173.38562186677154,60.45187058280317 173.41329580547608,60.503270721968875 173.47935617528128,60.52450112357292 175.24423929838304,60.52003156974388 175.39332148430185,60.53790977096287 175.5593651165218,60.580370348230645 175.62988902482903,60.57031391487999 175.76379517984242,60.62059596272684 175.85663678065612,60.63623920586906 176.07088662867682,60.61724383545061 175.88073988855467,61.66751240594931 175.92805339665938,61.69656054466759 176.05035435157333,61.70438118045331 175.93965859676246,62.03731015002995 175.9476929660632,62.07417732185786 176.2940635537052,62.15573140705874 176.42707700101892,62.22276157666329 176.522596724928,62.24063619935532 176.58954980244016,62.27191669871263 176.0887407826849,63.276183041383774 176.1003459827807,63.290704377189286 176.29049272290285,63.30187461863716 176.3128104154057,63.40799118108407 176.35119684651,63.42474630682045 176.41547180091584,63.49846846812943 176.4226134625169,63.53421231644279 176.47617592452298,63.553201174790956 176.4949227862271,63.59676368972123 176.71720700355218,63.51745740623937 176.46457072442354,66.22685626431576 176.34851872341096,67.10448978422028 176.33780623100756,67.2775493309764 176.37887078521453,67.5354573555851 176.68060598784723,68.55696436358448 176.73863198835534,68.7221802176091 176.866289189471,68.99009100800868 176.84129337386912,69.02804435533108 176.39136869301365,69.20106482581559 176.5100988171289,69.73238314706668 176.66632266464876,70.16321779628015 176.6788205724515,70.52483421053239 176.90556832827497,71.01142961374535 176.97341411348316,71.11745015547967 177.09928589919582,71.23462921992723 177.14124316110247,71.33618310603379 177.12249629939834,71.98565297384812 177.18409313070515,72.63842076416222 176.7002455572474,72.72545269340026 176.29049272290285,72.70090531613187 176.06820850557415,72.75 175.8227138880502,72.30925351027145 175.62364007092765,72.31036935294105 175.34868609929254,72.27577816232952 175.23888305218134,72.30702182450113 175.12729458967078,72.25346119067581 174.81216877153201,72.24453438565888 174.5729231079058,72.18874164250883 174.31046704407345,72.17088788758429 173.9408860562362,72.0983566237046 173.5713050683953,72.13964372649662 173.45614577507877,72.24899778933468 173.49185408308404,72.27466231513608 173.5061374062825,72.25680874014688 173.52042072948825,72.26015628830737 173.50703011398582,72.25569289047053 173.52488426798664,72.26238798634859 173.52845509878898,72.29140000772622" stroke="red" stroke-linecap="round" stroke-linejoin="round" stroke-width="0.5"><title>2025-05-03 66.9km</title><desc>1746236322000</desc></polyline><polyline fill="none" points="50.24254732509144,97.7368114523415 49.49868276331108,97.25 48.672166583593935,98.06135197979165 48.148706336389296,97.4771787765203 42.418194156722166,100.36557958339108 42.63859847153071,101.59882085656864 41.922284449101426,104.03283474192722 42.11513822420966,104.71435507532442 40.95801557262894,106.92117215090548 38.61621973000001,108.28419808161561 37.18359168514144,109.77702886881889 37.045838988618925,110.52344146452378 36.54992928064894,110.45853609553888 35.14485177514143,111.9838085398369 33.51936995505821,112.0487135774747 32.91325808991678,113.02228744939202 32.00409029214643,113.31435899221106 27.37559968570713,118.27953152541886 25.391960854292847,118.47424249211326 24.5654446745757,118.08482043194817 23.05016501166392,114.64490351767745 22.058345596073195,115.03433006253908 20.65326809056569,112.76266806054628 18.890033573727123,111.75664079710259 13.65543110202998,118.1497241439065 13.462577326688915,120.12928058419493 13.7105321806157,120.94057041741326 14.8125537536107,121.45979475430795 14.867654832196422,124.70492641310557 16.32783341652248,127.56061311246594 16.19008071976714,128.14472748347907 16.079878562595695,127.78776883688988 17.567607686156407,126.68443941450096 19.2206400455907,123.92609803008963 21.507334809633903,123.60158560448326 22.96751339372713,125.35394851461751 24.15218658465892,128.82619280615472 25.033803843078203,129.864613165817 27.78885777562391,130.44872303199372 30.351057932712138,131.779191241425 33.271415101131424,131.25998484026059 34.26323451672215,132.10369478387292 34.456088292063214,133.72620720919804 33.40916779777035,137.75 35.36525608971715,135.64076053746976 36.66013143805321,135.47851073124912 38.12031002214644,136.1275094273733 43.07940710068215,132.8500515940541 45.99976426910143,129.9944154569821 47.26708907808643,129.6050084143062 47.62524608918466,126.06787119759247 50.46295163966715,126.35992998533766 51.537422673311085,125.126790939481 50.15989570715465,116.23505871288944 48.672166583593935,112.50304844594211 49.93949139257893,110.75061014518724 50.02214301051572,109.8419343859714 48.066054718452506,106.4992819117906 49.03032359469216,102.21543958361144 50.04969354975037,99.74895703716902 50.68335595424287,99.29460276747704" stroke="#4dd2ff" stroke-linecap="round" stroke-linejoin="round" stroke-width="0.5"><title>2025-04-28 5.2km</title><desc>1745795058000</desc></polyline><polyline fill="none" points="71.15167317411397,135.9421113765129 71.28324471460655,137.75 71.19553035427816,136.92353833452216 70.62538701249287,136.76857645253767 71.26131612458266,136.84605740608822 70.9543158634333,134.39248161755677 72.46738857845776,133.35938950185664 71.43674484500661,132.532912577939 70.88853009324521,131.42232968847384 70.73502996272873,129.8210149964434 71.45867343514692,129.20114834984997 72.31388844782487,127.4448507430352 73.95853270334192,125.58522737381281 77.99339327646885,122.84742205872317 79.87925202271435,121.01359143630543 81.32653896743432,120.26455795906077 81.3923247376224,117.6300076735788 83.2562548937276,118.14658846164821 84.37461298739072,117.24257134608342 83.21239771367982,109.77784150885418 82.15982539020479,106.9107030468731 83.14661194337532,105.64501831047528 83.19046912353951,104.71512318993337 83.08082617318723,104.06936054961989 81.72125358879566,102.54535376376589 82.0940396200167,99.57480398232292 83.14661194337532,97.25" stroke="#4dd2ff" stroke-linecap="round" stroke-linejoin="round" stroke-width="0.5"><title>2025-04-27 2.3km</title><desc>1745711220000</desc></polyline><polyline fill="none" points="106.68782546664443,97.31931260013516 107.51883829379221,97.25 108.0453298641878,97.38862495724061 108.94054898041213,97.42544704810098 109.17352608647343,97.53374691781755 110.03755929086765,98.11422410710657 110.18981991923647,98.35464063812469 110.65393966597912,99.38341709659835 110.66861538918602,99.56317675249193 110.77317991710152,99.6779621838723 111.08320457005902,100.23455378916151 111.34369865715416,100.52475487189986 112.42786770979001,101.46246508034892 112.89932531813247,101.94104830508331 113.0002209152517,102.11861922593198 112.81677437503822,102.26587195122192 112.61314871540526,102.31567777198507 111.94723777443869,102.67081129368125 110.96212985352031,103.04326155222952 110.31456356657145,103.3702324525475 109.26341489118204,104.1302565133883 108.76444030181301,104.60660998663843 108.48743602609466,104.93788541389767 108.21960407738516,105.32544897202024 107.71879502262163,106.14601938966916 107.63807854492188,106.34087280116728 107.63624407952739,106.4794340599492 107.30787477255217,107.34109011507644 107.17028986739024,107.53809665798508 106.99601565419289,107.99055481172581 106.75386622110818,108.44733221803835 105.81278546983958,109.76781426088746 105.44956132023071,110.2115630452663 105.15604685589642,110.62716264428309 105.16888811370882,110.66179555046983 105.25694245300838,110.60118792489266 105.80177867742896,109.86305874061873 105.88432962053048,109.83491837383917 105.95770823661587,109.86522338255782 106.7336871016887,110.37174309047623 106.99601565419289,110.49512413376033 108.55347678056569,111.44967780340448 113.87526091204927,115.37563478902848 114.51732380278554,115.9079814018296 116.65264153081807,117.27989821529081 117.38826215705922,117.600142726571 118.21560605340346,117.81868499685879 118.69256705794396,117.86628794404714 119.8868040347079,118.21032402704077 120.13262239858886,118.25359858323463 120.15647044881189,118.22114267494726 120.84439497460698,118.45482402844391 121.36721761419176,118.71879409557914 121.78547572588286,119.00223345070117 121.82033056851651,118.95246958242933 121.84784754955035,118.96328782529235 122.14503094468819,119.19046956158127 122.21474062996276,119.16450606635226 122.22024402617535,119.13637890814607 122.50642062890256,119.2532145346795 122.65501232647512,119.41548509587301 122.84946565909195,119.45010264369557 122.97054037563066,119.517173970562 123.01823647608398,119.57559074779056 122.99438842586096,119.54746417283968 123.00356075286982,119.65780666116734 123.08060829975147,119.6166987471006 123.1393111926227,119.63400735288451 123.88593861127447,120.04508229902058 123.95564829654904,120.11215161304244 123.95748276195081,120.08402579930043 124.13909483676252,120.14676794440129 124.31887244616519,120.16623960423567 124.55735294843907,120.24412605233738 124.53900829441409,120.25927060393406 124.83252275875566,120.32201219445778 124.91323923645541,120.3847535864461 124.96827319850854,120.58379392976349 125.02147269516718,120.63571716897422 125.24344300881785,120.62489983868727 125.64519093188574,120.87802382077643 126.97517834839527,121.29556315714945 127.21916224687448,121.41454944117322 127.13110790758219,121.42103958158259 126.97701281380432,121.37993532309338 126.98618514081318,121.35830146861554 126.85593809726561,121.44050999007595 126.60461633717205,121.96404047268334 126.4413489163926,122.20633089362855 126.02309080471605,122.66494394316578 125.85248552232224,123.0197128007785 125.73507973657979,123.14734150839831 125.67821130912489,123.26631668263508 125.47275118409016,123.46749126273608 125.17740225434682,123.85685562148137 124.67475873418152,124.32408276344177 124.44911948971276,124.65502866412317 124.44728502431099,124.71559332933975 124.4766364707466,124.71126728795389 139.73205075455917,137.68299025867964 139.7540643393877,137.67434382398278 139.73388521996822,137.7024447229869 139.77240899341268,137.7154143552798 139.76507113179832,137.68299025867964 139.8439531440963,137.75" stroke="#ffc900" stroke-linecap="round" stroke-linejoin="round" stroke-width="0.5"><title>2025-04-20 36.9km</title><desc>1745145130000</desc></polyline><polyline fill="none" points="158.4449758400733,98.73802826468454 158.13788128539454,98.68775743086007 157.97580360379652,98.84862400271959 157.6175266233913,98.84862400271959 157.83931713507627,98.72797410012572 157.87343875225633,98.52689057882526 157.56634419763577,98.13477645284001 157.6175266233913,97.9638543896508 157.48957055894425,98.15488491004362 157.73695228353608,98.45651124290453 158.20612451975467,98.42634865396394 158.0781684553658,98.94916546776221 157.50663136751973,99.02959856105008 156.7986078110116,98.70786576766841 156.9862767055165,97.80298627648153 157.31043206874165,97.25 158.30848937132396,97.44103199717938 158.85443524629227,98.30569819962693 157.83931713507627,99.42170888737746 157.32749287731713,99.5725201080204 157.37867530310177,99.7434391936622 157.19100640856777,99.54235788359074 156.57681729929755,99.45187115119916 156.619469320809,99.82387159507925 157.13982398284134,100.64829967066908 157.88196915655863,103.14164711030753 158.21465492408606,103.66443723007978 168.41701846179785,106.9217551623442 169.32977172144456,107.05244762060465 170.04632568228408,106.9720215142952 170.23399457681808,107.22335286388261 171.598859264137,110.34985768431943 173.7058691251732,117.83896462912526 177.33129095088225,127.23718623294553 178.42318270073156,131.00625792107166 178.31228744491818,131.29772639548173 175.30105472845025,132.27263151051739 175.4460716015019,132.94601357539796 178.0990273375064,137.5289015030794 178.03078410311718,137.75 177.80899359140312,137.38820218425099" stroke="#4dd2ff" stroke-linecap="round" stroke-linejoin="round" stroke-width="0.5"><title>2025-04-16 7.1km</title><desc>1744770713000</desc></polyline><polyline fill="none" points="19.120967742055655,168.98836733592907 18.830645160982385,170.08642347709974 19.75,171.61149705725256 18.685483871027827,172.7705495612463 19.60483870957978,172.8315522427729 43.55645161285065,195.27998412854504 44.427419354906306,194.48698773112847 43.75,193.57199017182575 44.572580645093694,191.37598852653173 46.26612903224304,190.27798373214318 44.91129032266326,195.76798122518812 47.620967742055655,196.62197488552192 49.55645161285065,192.5959907483193 49.94354838714935,193.02299075352494 49.89516129018739,190.76598618988646 51.782258064486086,190.76598618988646 51.54032258037478,189.24097677241662 52.75,189.36297771378304 51.58870967733674,199.48894188716076 52.169354838784784,199.73293824505527 51.29838709672913,200.95291807397734 51.879032257944345,199.48894188716076 51.05645161261782,197.9029623727256 50.04032258060761,199.42794277722714 48.29838709672913,198.6349536042253 44.475806451635435,198.93994960346026 35.572580645093694,190.03398230700986 34.41129032243043,190.39998439568444 35.282258064486086,189.66797992412467 26.040322580607608,181.00583764814655 22.169354838551953,182.10386480455054 20.475806451402605,180.51782472853665 20.572580645093694,179.54179732009652 20.088709677336738,181.1278407961654 18.29838709672913,181.85985899859224 16.99193548387848,181.67685455840547 16.75000000023283,180.8228328647092 15.927419354673475,183.07988672039937 15.588709677336738,182.3478704795125 13.84677419369109,183.0188854119915 14.911290322663262,180.39582141701248 13.459677419392392,177.83374432026176 12.25,171.48949135869043 13.024193548364565,170.94046531131607 14.814516129205003,171.61149705725256 19.266129032010213,169.96441736997804 18.54032258084044,167.2192713157565 17.330645161215216,166.60923661122797 18.49193548387848,166.48722957231803 17.475806451402605,164.04708192602266 18.443548386916518,164.84013134572888 18.588709677336738,166.79224710850394 17.814516128972173,167.40228156762896 18.05645161285065,164.65712006384274" stroke="#4dd2ff" stroke-linecap="round" stroke-linejoin="round" stroke-width="0.5"><title>2025-04-07 2.7km</title><desc>1743986187000</desc></polyline><polyline fill="none" points="78.98654159868602,182.85414662305266 75.9804241436068,182.60426275496138 77.66517128876876,181.43813538062386 79.61419249582104,181.3964878935658 81.03466557909269,179.89717463956913 80.60522022843361,179.31410642087576 79.34991843393072,179.52234519596095 74.49388254480436,174.10809169753338 69.93515497550834,174.48292767093517 68.1182707992848,175.3158948822238 67.09420880908147,176.60698964784387 65.67373572592624,175.02435661220807 64.84787928219885,174.77446644881275 63.658646003343165,175.35754318413092 60.75163132150192,173.1085268916504 57.25,174.98270826568478 59.099918433930725,173.48336407047464 61.11500815663021,173.02522967933328 63.361337683629245,175.14930161854136 65.11215334420558,174.73281806879095 67.09420880908147,176.565341513342 68.28344208805356,175.27424657469965 70.36460032640025,174.44127925182693 74.82422512234189,174.1913886195689 80.14274061995093,180.73012734026997 79.34991843393072,181.43813538062386 76.57504078303464,181.47978286223952 74.42781402927358,182.7708520226879 80.2418433931889,182.89579391485313 85.59339314850513,181.60472527352977 86.91476345842239,185.18638637082768 87.9718597063329,185.64450283633778 92.89396411075722,185.47791510881507 97.7169657421764,189.8508133656578 97.75,190.30892295602825 95.7018760193605,191.1834939357359 93.02610114193521,191.51666318555363 92.82789559534285,191.97477032066672 93.22430668829475,191.47501704879687" stroke="#4dd2ff" stroke-linecap="round" stroke-linejoin="round" stroke-width="0.5"><title>2025-04-04 2.7km</title><desc>1743741381000</desc></polyline><polyline fill="none" points="139.34459779108874,181.00129223408294 137.3901101083029,182.27354747691425 136.72146958531812,182.09179708329611 136.05282906233333,183.12171441380633 134.14977526618168,183.66696322520147 133.7897380614886,183.3034641360282 134.66411413007881,181.81917127085035 134.30407692526933,181.39508614386432 130.75513876473997,182.06150533957407 129.5207254915731,181.9100465712545 128.13201055920217,180.9104166373727 127.23191754741129,178.9111460185377 127.38621920661535,178.39618005263037 129.05782051407732,177.69945987893152 128.82636802538764,175.00343932610122 127.66910558170639,173.73115091014188 125.791768728639,173.4282242412446 125.0459773761686,174.54905127262464 124.37733685306739,174.1552476938523 121.88279336341657,177.48741426313063 119.69685319217388,179.395819000114 118.97677878278773,179.60786316462327 117.25374358880799,179.15348261472536 116.50795223633759,177.2450762190856 116.09648114524316,181.06187594871153 116.79083861142863,182.97025622145156 116.30221669073217,182.57646453625057 116.32793363393284,181.87975480777095 116.97085721371695,181.84946304091136 118.28242131648585,182.87938126653899 118.53959074849263,183.72754636066384 120.49407843104564,185.12095484315068 119.64541930577252,185.66619974534842 119.82543790806085,186.15086098542088 116.40508446353488,187.08988974124077 115.86502865643706,185.78736513431068 114.21914429217577,183.90929568797583 114.11627651937306,176.82098413509084 112.39324132550973,177.0936148345063 110.85022473393474,175.82133595633786 109.97584866546094,176.06367523781955 112.00748717761599,173.21617537699058 113.75623931467999,174.12495508781285 115.01636953116395,176.24542956074583 116.76512166822795,174.82168419353548 118.8996279531857,174.5793438325054 120.751247862936,172.6103205908148 121.49703921563923,172.4891494755866 121.77992559073027,173.30705348137417 121.31702061323449,171.9135859592061 121.80564253381453,171.3683141634101 120.90554952214006,171.48948576572002 120.77696480625309,172.03475732455263 120.36549371515866,171.55007154718623 121.5227561587235,170.91392018567421 119.97973956726491,171.6409501946182 120.08260734006763,172.15592863725033 120.49407843104564,171.9135859592061 121.18843589734752,172.2770998972701 119.05392961238977,174.4884661428223 116.7136877818266,174.8822692508984 115.19638813345227,176.24542956074583 113.62765459879301,174.06436986592598 111.7760346889263,173.24646808180842 109.84726394945756,176.30601430876413 107.22413574380334,179.1231905517052 107.19841880071908,181.7282959407312 108.22709652839694,182.2129640255589 108.22709652839694,183.27317252397188 106.52977827761788,183.2125892897311 105.37251583393663,180.36516243583173 105.65540220914409,181.39508614386432 105.39823277725372,182.4855894530192 105.03819557256065,182.90967292146524 104.18953644717112,182.60675622409326 103.62376369687263,184.72716619519633 104.34383810625877,188.75590071929037 105.44966666365508,189.9372479270678 106.14402412984055,191.78498608825612 105.9640055274358,193.4812595231051 104.90961085667368,194.29910195682896 104.62672448134981,193.39038799350965 104.85817697015591,193.05719213170232 105.5011005498236,193.4509690165287 104.85817697015591,194.63229633471929 105.91257164103445,196.08623077985249 106.52977827761788,199.78161337750498 110.87594167713542,202.3562362451339 114.52774761046749,202.75 115.91646254283842,202.6288419807679 119.61970236257184,200.32682961551473 124.89167571696453,201.53841743950034 126.1260889901314,201.0537829415698 129.6235932643758,196.63145424245158 129.10925440047868,195.69245761618367 127.15476671780925,195.35926450483385 126.71757868363056,194.84432891348843 126.25467370601837,192.48167106910842 128.59491553658154,190.93684550162288 129.4178577188868,189.21026562229963 130.4979693328496,188.45299037278164 130.13793212815654,186.9687249181734 128.56919859349728,185.93882179653156 129.18640523019712,182.54617284506094 129.88076269626617,181.81917127085035 131.86096732201986,181.63742058104253 134.81841578928288,180.425746288558 135.87281046016142,180.75895724390284 136.5157340397127,181.9403383314493 137.26152539253235,182.15238056093222 139.98752137075644,180.24399469068157 141.37623630312737,179.8804911391635 141.11906687135343,177.36624526738888 139.8075027684681,173.73115091014188 140.96476521203294,172.4891494755866 141.11906687135343,171.33802125463262 139.19029613188468,168.61164598338655 139.62748416617978,165.88524405116914 141.17050075763837,162.25" stroke="#4dd2ff" stroke-linecap="round" stroke-linejoin="round" stroke-width="0.5"><title>2025-04-01 8.4km</title><desc>1743465137000</desc></polyline><polyline fill="none" points="159.8457966451533,176.06240677664755 158.99532960588112,175.75026505510323 160.50000206008554,175.5161586710601 161.61215126537718,176.76472513197223 162.52803884679452,174.0334830537322 161.74299234873615,172.7068758442183 157.35981606831774,171.69240978057496 155.72430253075436,167.2443486006814 152.5841165392194,168.33685752132442 151.53738787514158,165.99576485162834 159.3878528547939,162.25 158.40654473239556,163.34251685650088 160.82710476778448,164.8252155276714 157.49065715121105,166.2298744773143 161.35046909959055,164.74717883515405 173.06074602738954,183.94393828487955 176.92055797576904,182.30521144991508 177.90186609793454,182.9294887999422 179.7336412598379,186.12890132295433 178.6869125959929,184.80231744924095 177.24766068323515,186.83120939618675 179.47195909405127,185.11445506155724 180.060743967304,185.73872986109927 177.70560447336175,185.89479847229086 182.3504629197996,191.90341307315975 177.37850176612847,193.93228406779235 177.96728663961403,197.05361237062607 179.79906180151738,196.8975462918752 179.53737963549793,197.6778763309121 172.53738169535063,197.83394223224605 172.60280223703012,196.74148017767584 173.51868981751613,197.83394223224605 172.86448440281674,196.50738094031112 175.4158855213318,199.39459929947043 180.64952884078957,199.5506648113951 179.66822071839124,199.5506648113951 180.91121100680903,197.44377741205972 180.78036992368288,193.69818387390114 182.2196218369063,194.4004842163995 183.46261212509125,195.80508274963358 183.13550941762514,197.13164539670106 180.4532672164496,196.35131473769434 175.87382931169122,199.47263205994386 178.35980988875963,199.62869755423162 182.28504237812012,202.75" stroke="#4dd2ff" stroke-linecap="round" stroke-linejoin="round" stroke-width="0.5"><title>2025-03-30 2.1km</title><desc>1743318651000</desc></polyline><polyline fill="none" points="44.21325583849102,228.36773279192857 44.047892226837575,227.25 40.68549878615886,228.49923062568996 40.90598360192962,229.94570482696872 37.48846895713359,230.66894057340687 37.59871136513539,232.707145546854 35.72459043096751,233.69337118568365 35.72459043096751,234.61384693393484 35.173378391657025,234.08786097110715 35.06313598365523,235.27132871589856 34.51192394411191,232.31265482120216 35.00801477977075,232.90439080889337 34.07095431257039,233.49612619209802 26.85007659578696,234.41660225373926 27.566652247216552,234.54809871461475 27.51153104333207,236.91502990660956 25.637410109164193,236.1260539169889 21.5033198131714,236.91502990660956 21.393077405402437,238.82171744585503 23.708167970879003,238.55872643413022 25.196440477622673,245.92242963827448 24.9208344577346,244.34450111578917 25.913016128819436,243.4897880385397 21.66868342505768,245.00197185581783 20.84186536562629,246.44840485753957 20.786744161508977,244.8704777674866 24.47986482619308,243.4897880385397 26.0232585365884,244.8704777674866 25.196440477622673,245.72518880805 26.298864556476474,262.09594923781697 26.519349372014403,264.3970230658888 27.842258266871795,265.3831947663566 24.865713254082948,265.77766297676135 24.865713254082948,267.75 23.928652786649764,266.96106599626364" stroke="#4dd2ff" stroke-linecap="round" stroke-linejoin="round" stroke-width="0.5"><title>2025-03-30 1.4km</title><desc>1743309591000</desc></polyline><polyline fill="none" points="83.95413739827927,232.91344784747344 83.63361590227578,235.14447518173256 85.26536170043983,236.89496252019308 85.67329814995173,238.33653304493055 85.49846824305132,239.3662222494604 84.36207384802401,240.704813197779 86.11037291737739,247.36336081573972 85.11967011133675,248.11844498483697 84.15810562309343,247.87819112674333 83.51706263085362,248.94217111117905 82.00187010399532,249.90318221083726 80.71978411974851,250.0404692721495 79.96218785620295,251.37901499355212 82.99257291003596,254.53658756107325 83.25481777044479,258.5178297331149 80.98202898004092,259.75337744824355 79.14631495717913,261.7096514495497 73.02726821391843,265.9996836090577 72.4445018573897,267.09792247775476 72.12398036126979,265.62216311634984 70.4630962453084,265.2103220644349 68.30686072609387,267.75 68.01547754788771,266.9949627459864 69.3558401678456,263.1511087526742 69.00618035392836,261.7096514495497 71.59949064045213,260.0622636222106 72.5319168107817,258.0373376500793 73.84314111294225,257.213635236345 73.23123643861618,256.59585701688775 73.84314111294225,256.97338829460205 75.00867382599972,258.89535871424596 78.68010187195614,256.63017806076095 79.35028318199329,256.8361042457982 79.32114486419596,256.1496831071272 79.40855981758796,256.7674621990591 78.82579346117564,256.42425174158416 78.88407009665389,255.42893930643913 78.27216542244423,255.32597577225533 78.59268691856414,254.63955135268043 77.45629252318759,253.30101944503258 77.68939906579908,252.75187650916632 79.35028318199329,252.51162617452792 79.64166636019945,251.24172851390904 80.48667757713702,250.38368666439783 80.10787944530603,249.45699884954956 83.05084954574704,251.48197981421254 83.8084458092926,251.44765821102192 85.23622338275891,252.82051942835096 85.7898514213739,254.26201728614978 86.5183093668893,253.88448276856798 86.98452245211229,252.54594766211812 85.7898514213739,245.3383534522436 84.07069066970143,240.77345873444574 85.49846824305132,239.3662222494604 85.70243646786548,237.68439481285168 83.69189253787044,234.83556464448338 84.01241403387394,231.47185257443925 86.25606450648047,227.25" stroke="#4dd2ff" stroke-linecap="round" stroke-linejoin="round" stroke-width="0.5"><title>2025-03-26 3.9km</title><desc>1742943197000</desc></polyline><polyline fill="none" points="121.74910212884424,229.02242597810982 121.57520999026019,228.36942907665798 122.33401204954134,228.4440574205073 122.41305393073708,227.9776297356584 121.63844349514693,227.25 121.48035973287188,227.60448666928278 121.10095870314399,227.49254359015322 119.39365406968864,230.27244164401782 119.39365406968864,230.68289255115087 119.2039535548538,230.60826518698013 119.06167816877132,231.5224481481855 118.31868448568275,233.014981227534 118.44515149557265,233.48139513628848 120.27892313891789,234.5634704924887 121.62263511901256,235.7947892714874 121.41712622786872,236.29850802807778 121.19580896059051,236.03732071032573 121.2116173368413,237.08206758157758 120.91125818836736,237.56712645365042 121.41712622786872,237.88427958580723 121.40131785161793,238.68648781707452 120.99030006950488,238.9849829400482 120.76898280228488,238.76111164681788 120.54766553489026,239.45138052392576 120.05760587158147,239.32078932895092 119.89952210924821,239.65659505678923 120.05760587158147,239.4886922755686 121.3380843467312,240.68266401799337 122.12850315851392,240.94384422259463 122.19173666340066,242.23108367428358 122.71341307921102,242.06318342711893 123.89904129685601,242.64150580496062 124.84754387103021,244.43242718286638 124.65784335613716,244.56301446452562 124.80011874227785,244.4510825149191 125.66957943531452,245.79426106256142 126.22287260345183,245.9435024705308 126.30191448476398,246.22332975864992 125.93832183122868,248.42462175026594 126.68131551431725,249.71180475407164 126.08059721736936,250.55126669816673 125.25856165314326,255.6252598446008 125.36922028678237,256.2035362491297 124.35748420772143,256.4833467089047 124.81592711858684,256.25949837773805 124.626226603752,256.0543038162432 123.61449052463286,256.6698867605446 122.91892197029665,255.6066057344433 123.64610727713443,256.3714225800213 123.53544864343712,257.5279683710396 123.97808317799354,256.968350418887 123.3299397524097,257.0989281052316 123.89904129685601,257.0429662519018 123.63029890088364,256.3714225800213 122.87149684154429,255.73718446296698 123.18766436626902,256.091611936703 122.96634709899081,255.84910900791874 123.36155650485307,256.91238852271636 123.34574812860228,257.91969984544266 121.08515032700961,263.142700232871 121.19580896059051,263.6836447076057 125.59053755417699,264.877447135339 125.38502866303315,266.4629530724196 125.13209464325337,266.4069942900969 125.08466951455921,266.87331691502186 124.65784335613716,266.83601115197234 124.42071771266637,267.75" stroke="#4dd2ff" stroke-linecap="round" stroke-linejoin="round" stroke-width="0.5"><title>2025-03-24 3.9km</title><desc>1742796232000</desc></polyline><polyline fill="none" points="177.32946514128707,267.7471456681942 177.41182142881735,267.75 177.46026630383858,267.6301177967034 177.39971021006932,267.69291330484884 177.40213245381892,267.5673221382476 177.33188738503668,267.57873954187016 177.57168951637868,267.51879811740946 177.5934897101397,267.4759827303624 177.51355566635903,267.33897302224796 177.55957829763065,267.2647591315945 177.4675330350874,267.1848362453202 177.55231156636728,266.9736103023315 177.4893332288484,266.95648379998056 177.54504483511846,266.82803467595295 177.43362162257836,266.7110027042563 177.251953341256,266.76809153616523 177.2471088537568,266.7167115930424 177.28828699751466,266.7424015771812 177.29797597252764,266.6881671367046 177.43362162257836,266.65962264932386 177.30282046002685,266.6995849229734 177.35610982256185,266.6938760304565 177.31250943503983,266.5682800809391 161.92641712909972,227.43010063809743 161.89250571657612,227.45297047157328 161.9239948853501,227.50156880126815 162.00392892913078,227.44153555734192 162.0136179041292,227.4758402850439 162.16379701669211,227.42438317660162 162.19044169795234,227.5044275237342 162.1347300916823,227.27572873857753 162.1419968229311,227.31575117046486 162.26068676673458,227.25 162.37453222300974,227.2557174996491 162.45931075430417,227.361491017562 162.52713357932225,227.37578470335757 162.43751056054316,227.39865458437998 162.3914879292861,227.30717494022247 162.44962177930574,227.31575117046486 162.4132881230471,227.32432739788965 162.3914879292861,227.38150217549082 161.8779722540785,227.53587345016058 162.0281513666414,228.20480510303787 161.8973502040899,228.25054339406415 161.85374981656787,228.3277265786619 161.71568192276754,228.3505956266181 161.7035707040195,228.46494056621668 161.71325967901794,228.51067840198084 161.85617206031748,228.4935267229448 161.8997724478395,228.5764264006557 161.85374981656787,228.43063713686752 161.84890532906866,228.50496117689 161.7738157727872,228.51925423727698 161.5533915914566,228.48780949410866 161.3281229226268,228.5506989426067 161.33296741011145,228.49638533690268 161.3281229226268,228.58214361011778 160.8146072474192,228.81940669972755 160.800073784907,228.97948660356633 160.62324999109842,229.06810184300048 160.36891439724423,228.5506989426067 160.27444689096592,228.59643662829149 160.19935733468446,228.5764264006557 160.23811323469272,228.60501243544059 160.22115752844547,228.49066810869226 160.13153450965183,228.364888771428 160.17513489717385,228.34201973597737 160.0467559783574,228.26197795431835 160.00073334710032,228.14191482216484 160.03464475960936,228.10475231232704 159.8771989158122,227.98754712746813 159.78030916576972,228.03900312701262 159.47752869690885,227.9389497015327 159.21834861555544,227.82174377305273 159.08270296550472,227.7817221161058 158.9301016091922,227.60162390133883 158.61763216531835,227.41866571385071 158.49894222152943,227.4358180983436 158.23733989642642,227.7274069122086 158.03387142134306,227.73884170135716 158.03144917759346,227.7760047315296 157.91033699005493,227.79315688148017 157.59786754618108,227.6702328914198 157.6027120336803,227.55302575772657 157.4065102898603,227.43010063809743" stroke="#4dd2ff" stroke-linecap="round" stroke-linejoin="round" stroke-width="0.5"><title>2025-03-24 4.7km</title><desc>1742777725000</desc></polyline></svg>