<?xml version="1.0" encoding="utf-8" ?>
<svg baseProfile="full" height="300mm" version="1.1" viewBox="0,0,200,300" width="200mm" xmlns="http://www.w3.org/2000/svg" xmlns:ev="http://www.w3.org/2001/xml-events" xmlns:xlink="http://www.w3.org/1999/xlink"><defs /><rect fill="#222222" height="300" width="200" x="0" y="0" /><text fill="#FFFFFF" style="font-size:12px; font-family:Arial; font-weight:bold;" x="10" y="20">Over 1km Runs</text><text fill="#FFFFFF" style="font-size:4px; font-family:Arial" x="10" y="280">ATHLETE</text><text fill="#FFFFFF" style="font-size:9px; font-family:Arial" x="10" y="290">Tao</text><text fill="#FFFFFF" style="font-size:4px; font-family:Arial" x="65" y="280">SPECIAL TRACKS</text><rect fill="yellow" height="2.6" width="2.6" x="65" y="283" /><text fill="#FFFFFF" style="font-size:3px; font-family:Arial" x="70" y="285.5">Over 20.0 km</text><rect fill="red" height="2.6" width="2.6" x="65" y="287" /><text fill="#FFFFFF" style="font-size:3px; font-family:Arial" x="70" y="289.5">Over 40.0 km</text><text fill="#FFFFFF" style="font-size:4px; font-family:Arial" x="120" y="280">STATISTICS</text><text fill="#FFFFFF" style="font-size:3px; font-family:Arial" x="120" y="285">Number: 21</text><text fill="#FFFFFF" style="font-size:3px; font-family:Arial" x="120" y="290">Weekly: 2.3</text><text fill="#FFFFFF" style="font-size:3px; font-family:Arial" x="141" y="285">Total: 308.2 km</text><text fill="#FFFFFF" style="font-size:3px; font-family:Arial" x="141" y="290">Avg: 14.7 km</text><text fill="#FFFFFF" style="font-size:3px; font-family:Arial" x="167" y="285">Min: 1.4 km</text><text fill="#FFFFFF" style="font-size:3px; font-family:Arial" x="167" y="290">Max: 98.8 km</text><polyline fill="none" points="35.7724268429447,35.58442690887023 35.61581061070319,35.18908830478904 34.407628248329274,35.00459673572914 29.440656313672662,37.50839891616488 29.53015130350832,38.668045905113104 28.65757515281439,42.12059843246243 27.963988981791772,43.14844808871567 24.47368437901605,45.5467470153817 23.377370753791183,46.94354755120003 24.719795600976795,48.0767949061119 25.14489680272527,50.079730771598406 24.742169348406605,50.89671302070201 23.42211824876722,51.529213517467724 24.249946904485114,53.4794130007358 25.637119246646762,54.48086069688725 25.14489680272527,55.086998083555955 24.85403808578849,56.66821892009466 26.934796598972753,57.195290241987095 26.487321649794467,57.64329996528977 25.726614236366004,57.01081540957966 25.212018045014702,58.40754993665905 25.95035171089694,58.82920406269841 26.442574154934846,59.936042656801874 25.547624256811105,60.17322169848194 24.719795600976795,62.255116669868585 22.750905825058,63.52005678816931 22.97464329970535,64.6005212500022 22.01257215917576,67.76282860952779 22.437673360691406,68.0 23.69060321827419,66.18168008192151 26.017472953302786,66.65602572214266 30.559343686327338,63.41464536359126 32.103132260614075,61.859821530335466 33.31131462310441,61.38546651272918 33.71404207730666,60.72663856076542 33.8035370670259,58.35484311936307 35.52631562098395,58.93461747969559 36.68975048861466,58.17036916872894 35.951416822499596,53.00504159637785 35.459194378578104,52.84691758877307 35.83954808523413,52.2144205278164 35.436820631148294,49.76347883962444 34.430001995759085,47.36522160405002 35.41444688360207,46.15290672639094 35.48156812612433,44.96694065700285 33.89303205697797,42.88489730996662 34.58661822800059,39.6695547519048 35.638184358133,37.033996277241386 35.99616431747563,36.928573342534946 35.79480059037451,35.847985620232066 36.801619225763716,34.47747719362087 37.27146792237181,32.65890597930411 37.98742784082424,32.0" stroke="#4dd2ff" stroke-linecap="round" stroke-linejoin="round" stroke-width="0.5"><title>2025-05-20 4.1km</title><desc>1747694891000</desc></polyline><polyline fill="none" points="86.81777585975942,33.66072032097145 87.09287366984063,32.88875062449006 87.49451647259411,32.70062203786438 87.64306929006125,32.28543960386742 87.93467296878225,32.051898211644584 87.84664166954462,32.0 87.90166123156087,32.071360029334755 87.84664166954462,32.006487278926215 87.90166123156087,32.04541093766602 87.6650771148561,32.33733756654692 87.50001842880738,32.759006835309265 87.03235215161112,32.97957110860443 86.75175238531665,33.959126091162034 86.5756897868414,34.062919051732024 86.24007045847247,34.555933142222784 86.93331693997607,35.01650840479488 87.78612015131512,35.256525086519105 87.64857124627451,35.2500381619102 87.75861037027789,35.39923724914843 87.57154385940521,35.256525086519105 87.56053994700778,35.340855042170006 87.58254777183174,35.256525086519105 87.67057907106937,35.301933539023594 87.58804972804501,35.23057738381249 87.81362993232324,35.26949893362689 87.57704581561848,35.23057738381249 87.5275282098155,35.301933539023594 87.53853212224203,36.07387193038085 87.19741083765985,36.748498963788734 86.90030520275468,37.01445559637432 87.18640692526242,37.24797751333608 86.75725434147171,37.70204528440445 86.75725434147171,37.70853194173469 87.47801060398342,37.97448428415373 87.42299104196718,37.58528533128265 87.20841475008638,37.20905725747434 86.87829737795983,37.01445559637432 87.24142648727866,36.73552543911137 87.54403407839709,36.03495090666547 87.50552038502065,35.340855042170006 87.57154385940521,35.21111659936287 87.95117883736384,35.37328960868763 88.20977077889256,35.723581800495595 88.95803682238329,35.63276550432056 89.72280873451382,35.794937364549696 89.6182715666655,35.00353450255352 88.89751530415379,34.35483578277854 89.16711115807993,33.67369451600098 89.41469918718212,33.4336714498786 89.4642167929851,33.07687861632803 89.76682438410353,33.122288732145535 89.58525982944411,33.05092996318126 89.43120505579282,33.10282725818615 89.41469918718212,33.39474869928745 89.14510333325597,33.69315580325929 88.89751530415379,34.37429684727613 89.62927547906293,35.05543009462781 89.87686350816512,36.54740901349214 90.36653761015623,37.37122482232371 90.23999261751305,38.37016727713126 90.56460803342634,38.33773434388422 91.14781539083924,38.499898833317275 92.30322619332583,38.117189929176675 93.16153136087814,38.59071075440443 93.16153136087814,38.71395528281573 92.82041007635416,39.44044415898679 92.17117924446939,39.764766687156225 91.39540341997053,40.484756383342756 91.28536429590895,40.452324602374574 90.83970584353665,39.53774110299855 90.08043588764849,39.92044087294562 89.4642167929851,40.387460987389204 88.81498596112942,41.600398889702774 87.86314753815532,42.52143682964379 87.1754030128941,43.41651638473195 83.67615886827116,48.79319657567612 83.71467256167671,48.98127430678869 84.35840143734822,49.435252589424636 83.4230688829557,51.711577219230094 83.1314652042347,51.64024073107794 81.5634076866263,50.69988812657175 81.38184313193779,50.706373367793276 77.83858333772514,56.81515695129201 76.08896126542822,58.92260677307422 73.71211618604138,59.415415052175376 72.69975624486688,59.76556582567355 64.22124173725024,64.09040661035033 63.73706959144329,64.66746057726778 63.26390135806287,65.58165823074523 63.137356365448795,65.56869098620518 63.09334071580088,65.67242886350141 62.99980746037909,65.61407632973714 62.99980746037909,65.38714926637113 62.840250730514526,65.17318867220456 62.686195956834126,65.14725400252792 62.61467052620719,65.30934550284292 62.411098146723816,65.27692723806103 62.33957271609688,65.40011655041599 62.279051197867375,65.27044358297644 62.42760401533451,65.34824739730902 62.680694000649964,65.10835197684719 63.1208504968381,65.51033835086855 63.104344628198305,65.64649441109577 63.16486614642781,65.60110909225114 62.55965096419095,66.74221518864215 61.63532232219586,66.98210403137273 61.7068477528519,67.42946172601296 61.32171081870911,67.63693082128157 60.865048453910276,67.57858021124775 61.09613061440177,68.0 60.54043303796789,67.89626617464819 60.57894673140254,67.60451382278552 60.17180197243579,67.13122363608636" stroke="#4dd2ff" stroke-linecap="round" stroke-linejoin="round" stroke-width="0.5"><title>2025-05-17 14.6km</title><desc>1747468743000</desc></polyline><polyline fill="none" points="137.22337347868597,50.61160287699022 135.17588803410763,51.609113398808404 135.2643596274429,52.18975050780864 135.01158364658477,53.61900060089829 134.3670048955246,54.7653675051115 132.382713446219,56.135040062101325 131.76341229322134,56.968747089311364 131.13147234119242,57.013409822655376 130.73966957093216,57.460036355041666 130.29731160460506,57.54936148683191 128.16135456674965,59.8866817397502 126.94802985881688,59.7526963056298 126.27817350969417,58.08531105484872 125.82317674427759,58.35328505275538 125.14068159612361,57.28138591675088 124.66040723252809,57.340936088745366 124.30652085941983,57.16228549518564 124.24332686426351,56.8794215790258 123.18166774482233,58.51704668239108 122.33486820908729,59.231640594181954 121.94306543888524,60.12487774361216 122.05681463022484,61.13720614108024 122.47389499854762,61.28607733351237 122.51181139569962,62.6407977524068 123.080557352514,64.15925966661598 123.78833009873051,63.697768119411194 124.53401924215723,62.43238009810739 125.62095595954452,62.3430581492139 126.25289591163164,63.012971346703125 127.11233424639795,65.14178488105244 128.45204694464337,65.42463174309523 129.53898366214707,66.00521031519747 131.13147234119242,65.8563442490995 131.34633192484034,66.07964328757953 131.68757949897554,67.61295352537127 133.07784739340423,68.0 137.38767786620883,65.00780458477675 137.62781504791928,64.5016556167393 137.57725985173602,63.37025704635016 138.82850095676258,63.56378641141055 139.22030372702284,63.0278582694591 139.20766492793337,61.89644753151515 138.6641965691815,58.84456935450726 138.0322566172108,57.10273524560034 138.61364137311466,56.43279315416294 138.58836377499392,55.6735214907967 137.74156423931709,54.5420500291948 137.93114622496068,53.09792156469484 138.6641965691815,51.86221192832454 138.84113975579385,50.5520497802936 139.3466917174519,49.91185235585726 139.63738409528742,48.824998715441325 140.1682136550662,48.21457028694567 137.12226308631944,45.04327638953691 136.0479651679052,45.29638704887475 132.68604462314397,45.445275453603244 126.7205314761377,44.611498303042026 125.35554117977154,44.075496026620385 123.54819291702006,41.9612443739461 121.2858478887938,42.512144074833486 120.54015874536708,40.21919560525566 119.25100124324672,41.06788879838132 116.29352226783521,42.27391744904162 114.33450841659214,44.00105110014556 113.05798971350305,43.19704331633693 109.92356755147921,40.278753193852026 106.49845301156165,34.51643654712825 110.32800912082894,32.0 110.87147747952258,32.580720229874714 111.2000862545683,33.369900185396546 110.97258787183091,33.31033959268825 110.63134029769571,32.69984202402702 111.03578186704544,33.42946075220243 110.40384191507474,34.769566658273106" stroke="#4dd2ff" stroke-linecap="round" stroke-linejoin="round" stroke-width="0.5"><title>2025-05-12 8.9km</title><desc>1747004623000</desc></polyline><polyline fill="none" points="167.40785719806445,46.44526090051295 167.1764158764854,47.112527858800604 166.08092695422238,48.83525278256275 165.0368694368226,50.09086723652581 164.68199274368817,50.654974641242006 164.44026514113648,51.10383020676454 164.3939768768323,51.66186180178556 163.88994910975453,52.25021513413594 163.3962076237076,53.24494268685157 163.3756350617623,53.536079091332795 163.26762911168044,53.651320163568016 163.28305853315396,54.300304899181356 163.37049192131963,54.21539143931295 163.2573428307369,54.35489205488193 163.29848795456928,54.03343358857455 163.14933688065503,53.84540985050626 163.2933448140975,54.0213030440209 163.30363109504106,54.22752194150962 162.78931704704883,55.3192563018747 162.90760927810334,55.41023319754822 162.74302878274466,55.40416807581278 162.16185390850296,56.702089051039366 161.39038283651462,58.97641022364405 161.39038283651462,59.340292979006335 161.0355061433802,59.87398337971172 159.7342916019552,62.9304751939635 159.40513061123784,65.71998381291269 159.51827970179147,67.44213233425398 159.60571308995713,67.74532197703957 159.89887209728477,68.0 160.233176228503,67.89691617878998 162.18756961092004,66.5446813067174 162.36757952769403,66.26574087571134 162.38300894913846,65.88371149399609 162.4550129158597,65.79881571950318 164.2345395219454,64.61026127159494 164.7745692723256,64.37982430664124 165.01115373440553,64.62238950646133 165.81348364928272,64.31918284140193 169.5371173567837,62.57874460972744 169.89199404991814,62.208818664221326 170.98748297215207,61.9419853071704 171.3577890867018,61.699408417076484 171.32693024381297,61.59631291839105 171.51208330108784,61.40225028475834 172.6590036281268,60.92315525843878 172.8595861068752,60.765477511613426 172.6590036281268,60.36521660798462 172.55614081854583,60.38341034791301 172.58699966140557,60.462249818858254 172.6641467686277,60.34702286208267 172.7207213139045,60.48044352704892 172.84415668540169,60.5168309255605 173.47161982397665,60.21966647420777 173.5436237906979,60.098374405060895 173.43047470014426,59.69810869984212 173.5796257740294,59.17048132283526 173.51790808828082,59.0977047400047 173.43047470014426,59.22506369744224 173.49219238589285,59.231128402421746 173.55391007164144,59.00673387754796 173.4407609811169,58.71562611755144 173.24532164284028,58.55794211124885 172.85444296637434,58.430581625856576 172.32984263743856,57.939331306846725 172.0623993324698,57.94539615204849 171.7023794988345,58.218313501984085 171.21378115328844,58.23044313090577 171.02862809598446,58.46697036574187 171.10577520317747,58.75807942747997 171.53265586303314,58.90363338683892 171.52751272253226,58.97641022364405 171.6200892511988,58.9521512886422 171.5223695820896,58.964280757474626 171.81038544894545,59.36455174471848 171.93382082047174,59.461586701658234 172.15497586110723,59.44945734130306 172.21155040638405,59.64352678956493 172.57671338046202,59.89217728035874 172.8595861068752,59.58894482569667 172.91616065212293,59.23719310675369 173.33275503100595,59.20080487089217 173.19903337853611,59.073445857909974 173.09617056892603,58.77627369323454 172.89558809020673,58.69743183195533 172.91101751165115,58.47303515341264 173.35847073342302,58.65497847573715 173.5230512287817,58.87937442007751 173.5847689145303,59.17654603376286 173.4407609811169,59.68597939108804 173.461333543004,59.92856506381213 173.91392990524764,60.4016040819115 175.51858973500202,59.231128402421746 175.6625976684445,58.89150390477516 175.101995356119,54.427674845806905 175.1431404799514,52.371524325244536 175.30772097531008,50.56398996318603 175.21000130620087,49.33871512465703 175.2202875871444,47.33697039875915 175.7808898994699,45.16529912978149 177.84843237244058,42.11996351250855 178.3627464204328,40.603299850565236 178.19816592507414,40.47589821805741 178.2238816274912,40.37276334921262 178.4861817919591,39.81461838442192 179.69996294524753,37.96420638061318 180.39428691001376,36.5141683279071 180.35314178618137,36.39282451521649 179.67424724285956,35.943850103481964 179.51995302841533,35.72542880727633 179.7873963333841,35.058025080612424 180.59486938876216,33.54723611352165 180.5691536863451,33.41375077516932 179.19079203772708,32.35192415791607 179.40166079738992,32.19416532841933 179.15479005433735,32.424735774246074 179.19593517816975,32.35192415791607 179.10335864956141,32.35799179624155 179.0673566662008,32.43080340462984 179.2267940210586,32.46114154659881 178.97478013756336,32.157759381039796 179.29365484730806,32.084947414699855 179.29879798777984,32.0 179.39137451644638,32.04247372359532 179.3245136901969,32.072812077694834 179.31937054969603,32.00606767678619 179.38108823547373,32.06674440820643 179.31422740922426,32.02427070318299 179.37594509500195,32.072812077694834 179.31422740922426,32.10921808075727 179.28336856636452,32.0 179.33479997116956,32.09708274905279 179.35537253305665,32.00606767678619 179.27822542586364,32.03033837732437 179.35022939258488,32.115285745618166 179.29365484730806,32.03640605078908 179.29365484730806,32.115285745618166 178.97478013756336,32.20630063889257 179.5456687308033,32.77058964821117 176.93809650748153,37.102682059230574 176.63465121915215,37.19368878066234 176.4855001452379,37.13908476569486 175.9866155186901,36.684049220362795 176.24891568315797,36.556638599722646 175.97632923771744,36.665847721022146 175.63173882558476,36.33215250947978 175.46715833019698,36.39889171213508 175.49287403261405,36.59910883907287 176.38778047609958,37.52131174333044 176.44949816187727,37.80039644678254 175.55973485883442,39.20793271506045 175.60087998269591,38.94705584035546" stroke="#4dd2ff" stroke-linecap="round" stroke-linejoin="round" stroke-width="0.5"><title>2025-05-11 17.9km</title><desc>1746934812000</desc></polyline><polyline fill="none" points="35.57602891593706,72.0 36.40466479212046,75.4984570471861 23.975126651348546,79.44435189737123 23.491755723604,80.4613283604267 33.98781015351415,99.29523278455599 35.16171097790357,101.73584215348819 34.92002551420592,102.38666862991522 36.508244276512414,104.82725783393835 35.748661390156485,106.00687024238869 35.81771437986754,107.47121150718885 34.22949561744463,108.0" stroke="#4dd2ff" stroke-linecap="round" stroke-linejoin="round" stroke-width="0.5"><title>2025-05-09 1.4km</title><desc>1746749326000</desc></polyline><polyline fill="none" points="72.2183556666132,78.64893712931371 70.8328161748359,78.18933939746057 70.1035848633619,78.46509814742603 69.6660460763378,78.06677984645648 68.86389163380954,78.71021675711381 67.81866008741781,77.85230047404184 67.1866596173495,76.22837870105286 66.40881288517267,75.92197707379819 66.87065938243177,73.93035649381636 65.55804302170873,72.0 64.05096497805789,72.61281335007516 62.786964038270526,73.80779466108652 62.42234838241711,73.47074928223446 62.106348147499375,74.08355869246589 61.814655622816645,73.501389791767 61.57157851906959,74.206120377552 61.085424311459064,74.14483954329626 61.328501415322535,74.4206031683716 60.59927010384854,75.55429457947321 60.84234720747918,74.51252430294699 61.35280912567396,74.26740119545138 61.085424311459064,74.14483954329626 63.15157969389111,73.62395178877341 65.63096615287941,72.0 66.82204396172892,73.59331129571365 66.3601974643534,76.04453777395247 66.87065938243177,75.86069669912104 67.89158321847208,78.03613994838088 69.0097378960345,78.86341575480765 68.28050658467691,79.07789417932509 68.11035261198413,79.5681298229465 69.35004584142007,82.5401609235123 68.88819934416097,85.35895886988146 73.72543371026404,84.43978944250557 75.30543488520198,84.56234557952848 75.30543488520198,84.93001359670598 74.98943465016782,84.43978944250557 75.35405030602124,84.10275972726231 78.02789844793733,85.26704209328454 81.47959332237951,86.03301410288259 82.45190173760056,86.73770608686027 83.95897978136782,89.15815332638158 83.18113304919098,91.4560225810128 80.70174659008626,93.99897098740621 77.66328279243317,94.55045004512067 77.93066760641523,95.16320299456129 79.07312999444548,95.46957885399752 77.32297484681476,94.73427610225917 79.7294381747488,95.62276662982185 82.98667136603035,95.19384059899312 86.90021273761522,96.3580665262416 87.67805946990848,96.97081463482755 92.36944757367019,97.30782539500797 91.78606252465397,107.50982527241285 91.88329336605966,108.0 92.49098612577654,107.8468205104 92.73406322940718,106.37629219268274" stroke="#4dd2ff" stroke-linecap="round" stroke-linejoin="round" stroke-width="0.5"><title>2025-05-05 3.1km</title><desc>1746429236000</desc></polyline><polyline fill="none" points="122.39448647786048,72.04252576418003 122.2426968664804,72.0 121.97284866851987,72.20554087675555 121.27011898631463,72.33311757094634 120.66858237830456,73.01352140987001 120.07266760777566,73.26158313236738 120.09515495761298,73.8002274384744 120.28629743115744,74.21838173638025 120.07266760777566,75.08302929190177 120.43246520508546,75.21768624584365 120.56176746659912,75.5720450130757 120.73604442778742,75.6570907639798 121.0115144632291,76.03979495113526 121.49499248462962,76.14610117845587 122.22583135412424,76.88315181262078 121.83792456955416,77.66271342428081 121.85479008188122,77.93910069184858 121.97284866851987,78.05248992238921 121.87727743174764,78.24383369781208 122.09652909258148,78.20839971754685 122.1190164424479,78.31470158715456 121.8210590571689,78.22966010855453 121.8941429441038,78.39974292907937 123.32771149583277,78.69029981585118 123.69875276807579,78.67612634618854 124.0585503653856,78.888727992231 124.20471813928452,79.25723548820315 123.97422280351748,79.6753466541777 123.49636661959812,79.7462126260034 122.7767714249785,80.10762760585567 122.92293919887743,80.39817511320143 122.7036875380436,80.49738609174892 122.33264626580058,80.97926534125872 122.48443587718066,81.06430240028203 122.41135199021664,80.97926534125872 122.28767156615504,81.02178388786342 122.20896584173897,81.22020332020475 121.82668089462095,81.39736289886423 121.35444654815365,81.4469674746033 121.1857914244174,81.31941275733334 120.92156506390893,81.31941275733334 120.81475015220349,81.63121263440553 120.88221220171545,81.73042130087924 120.74166626526858,81.72333497372892 120.56738930408028,81.97135585927026 120.52241460437654,82.37527309868892 120.68544789066073,82.77918725466952 120.95529608865036,83.10515081655103 121.66364760833676,83.39568186395627 122.32702442837763,83.51614548894577 122.90045184906921,84.11137349278215 122.92856103635859,84.38064110440246 122.79925877481583,84.74202442965179 122.32140259089647,85.30180941387516 121.8210590571689,85.50021279704015 121.47812697224435,85.50021279704015 121.46688329734025,85.59941420964242 121.32071552341222,85.57107096787877 121.32633736086427,85.67735804625408 121.50623615953373,85.59941420964242 122.2932934036362,85.71987281783004 122.56314160159673,85.57107096787877 123.66502174330526,85.89701733168476 123.81118951723329,86.04581826507638 124.8287420971028,86.09541848321533 124.90182598403771,86.18044732044291 124.72754902284942,88.73124891003317 124.86809495929629,90.07037052828673 126.63897375852684,96.77963907153753 127.48224937720806,99.07490636024522 123.73810563029838,100.83171038232467 123.58069418146624,100.98046933603109 120.4268433676043,106.10885577393128 120.0052055582928,107.34837740633884 120.03331474558217,107.93625466532467 119.75784471014049,107.95042030189143 119.93774350878084,107.67418970547806 119.74097919775522,108.0 119.98834004590753,107.97875156362716 120.10077679506503,107.20671925970237 119.97709637100343,107.1996363424114 120.01644923319691,106.8100744330477 120.02207107067807,107.34837740633884 120.23570089403074,106.17260330847421 122.38886464040843,102.77971119882204 122.38324280292727,102.49637007988349 122.14150379222701,102.29803039441322 121.64116025849944,102.2130274446281 121.54558902172721,101.99343585931638 121.4106649227324,102.07135555835339 121.42753043511766,102.17760950858792 121.51185799698578,102.1563587355995 121.5343453468231,102.08552276404589 121.39942124782829,102.09260636545878 121.39379941037623,102.14927514269584 120.97778343848768,102.56720550177852 120.20196986928931,102.74429364188109 120.0052055582928,101.88009791054355 120.25256640641601,101.58966830938152 120.14575149473967,101.58258464067694 120.01644923319691,101.03005556104472 119.78033205997781,101.06547426476027 119.31934138841461,100.59086166635825 119.1844172894489,100.75378885884493 119.32496322586667,100.25083808431737 119.58918958640425,99.78330209314663 120.48306174221216,99.62745584521326 120.53365827930975,99.3936856130822 120.69669156559394,99.26617414229622 120.39873418031493,99.17408233348397 120.38186866795877,98.78446136977436 120.20196986928931,98.74195709116248 120.0052055582928,98.86946982461086 119.9546090211661,98.98989823529337 120.06142393284244,99.1103263720106 120.20759170677047,98.98989823529337 120.02769290810102,99.0961583701428 119.90963432152057,98.78446136977436 119.8309285971045,99.0040662655847 119.37555976299336,99.37243372261582 119.21814831419033,99.89664453075238 119.19566096435301,100.73253751434822" stroke="#4dd2ff" stroke-linecap="round" stroke-linejoin="round" stroke-width="0.5"><title>2025-05-04 11.1km</title><desc>1746326389000</desc></polyline><polyline fill="none" points="177.81900279060574,106.99565299538335 177.81002523415737,107.01697555090868 177.7516711172284,107.00575315987498 177.72204518094077,106.99901971820236 177.677157398688,106.96198569446369 177.67087310917123,106.95076323143803 177.73012498174648,106.85088266325238 177.79476338819222,106.73528909219749 177.77411500835296,106.78915813479489 177.86478832850844,106.77120182487761 177.84952648253966,106.85537170253156 177.8998007986629,106.93280726004014 177.9617459381734,107.03942028890197 177.9913718744574,107.33680751965403 178.10987561960428,107.3693511563979 178.27416490265023,107.43107150745618 178.27147163571863,107.53880051010492 178.40433947118436,107.65774971134124 178.37740680183197,107.665604789182 178.405237226827,107.65213893704822 178.49231952439732,107.60949693243037 178.54618486309846,107.65774971134124 178.49052401310837,107.59939747921544 178.98339186223893,107.40862779484723 179.45561133154115,107.36598457901619 179.76084825085854,107.62296285153843 180.2707734572541,107.6757041644023 180.916259766047,107.63642874949528 181.3750129006694,107.98990100677202 181.4845390893679,108.0 182.12015008606977,107.86085726845067 182.14259397719434,107.54890003470337 182.14798051106482,107.12807642947064 182.1695266465431,106.66121860585827 182.0734667925244,106.2639205278374 181.86428972722933,105.98445406706469 181.84902788126055,105.62304215951463 181.7727186514312,105.31324839296485 181.51685829259077,104.9843608703286 181.42618497243893,104.55330827935813 181.8337660352954,104.39839345730434 181.91276853206,104.34226420729647 181.36423983292843,102.91421239016836 181.15506276763335,102.27308339263891 181.04374106764226,102.2248002813676 181.4055365926033,101.14228882733369 180.87586076201842,99.88891995655104 180.67027471930123,99.43177649765767 180.25371609999638,98.67693090499051 180.53561137254292,95.92544926641312 180.28244428063772,95.82206888433939 178.4312721405331,95.79285246292238 178.40164620424912,95.42651501503406 177.23725713261229,95.55462253264159 177.00114739796118,95.41078238056434 176.83326709233734,94.66906819307769 176.603441647203,92.89656021389692 176.3278306641696,91.79712834989277 175.09072338528495,91.52955604662748 174.6346635175978,91.26309967058114 174.05650888218224,91.13380349809904 173.12553627825764,91.0123757458432 172.63356618476973,91.31931478748902 172.19007489610885,91.20351124285571 171.09122198656405,91.06971684389919 170.7132668599952,91.06634384878544 170.13870324716117,90.94041774497418 169.80024936897462,90.99438630243912 169.42768077627989,90.55925510173438 168.83067327231402,90.42095294698538 168.02628421434565,90.21967995738214 167.8754612659759,90.2983906296713 167.73720689663605,90.27477750413254 167.65012459906575,90.2983906296713 167.0549126063961,90.10273704794781 166.6284786749893,89.97454778875363 166.4291769217889,89.88796272695618 165.7738153008977,89.62595323272672 165.07356589775736,89.59896467375802 164.5070820857327,89.69454876963209 164.1129673575524,89.86097499582047 163.80593492694243,90.30963495222659 163.6613962680858,90.8088679579505 163.31396483345088,91.19226809668635 163.2071319116876,91.43961389510332 163.15506208427905,91.39464246431635 163.09311694476855,91.40588534420385 163.1999498665282,91.45535383996048 162.8246880068982,92.29964696552815 162.8300745407687,92.51098824995734 162.9360097068784,92.61890518807922 163.36513690522042,92.5053675387644 163.8876306906459,92.28615691886898 164.42359081073664,92.78190214672395 164.53401475508144,92.70546258076774 164.54299231153345,92.35135861379968 164.92902723890438,92.21420964371919 165.0636905856627,92.50311925325241 165.08254345420937,92.70209023122698 165.16244370662025,92.7830262528887 165.05381527356803,92.91566974222224 164.97122175422192,92.9763703135186 164.8581045429455,93.17083405597077 165.0502242509865,93.25738585964064 165.01700729212098,93.43048683792313 165.0143140251821,93.43273487951592 165.05112200662916,93.25626181586085 164.85630903165656,93.1876948656818 164.96673297599773,92.9763703135186 165.09780530017815,93.03145008849788 165.31147114369742,93.17645432957033 165.4515210243262,93.28211478543744 165.64184522107826,93.29447922150757 166.0206981032934,93.23040876808864 166.05481281780158,93.16408972277623 165.86987515492365,93.15060104042368 166.23167067988106,93.11013486564389 166.22718190165324,93.06742036221385 165.97670807668328,93.05617966793943 165.95695745249395,93.02358157094568 166.24962579278144,93.00559636076832 166.31965073309402,92.99547966341561 166.38518689518241,93.00559636076832 166.4228926322794,93.10563861217724 166.47675797098054,93.05168338608928 166.55396495645255,93.04943524427836 166.48573552742891,93.15734538426113 166.4605983693691,93.3192080399931 166.71645872820955,93.76319056343891 166.61052356209257,93.97337171624895 166.4130173201811,93.81826526886744 166.25860334922982,93.68226382194734 165.98209461055376,93.80028173059418 165.95336642991242,93.92391779222817 166.0081295242635,94.14870605088254 165.90129660250386,94.16668885625404 165.88872802347032,94.11386425783985 165.88154597830726,94.15207782976904 165.8196008388004,94.11274032666734 165.72443874042438,94.11049246388302 165.35815443724277,94.40608134944614 165.3464836138519,94.37910788246973 165.3527679033723,94.333028012863 165.36264321546696,94.14083856163961 165.3653364824022,94.14308641644766 165.40753099772337,94.01832958074556 165.3797005727247,93.9565124561077 165.41920182110334,93.92166987979635 165.3689275049801,93.9722477666055 165.41022426465497,94.01270986061263 165.3779050614321,94.19478691392032 165.34558585821287,94.3026825972538 165.35815443724277,94.40720524205426 165.66518686784912,94.15882138355755 165.81331654928363,94.1082446005048 165.83665819605812,94.1812998577634 165.86269310976422,94.18916730977435 165.8671818879884,94.1768041676496 165.86269310976422,94.18242377992465 165.97132154281644,94.1678127803334 166.00274299038938,94.03631266034881 165.98927665571682,93.7912899472758 166.29900235326204,93.6721479253938 166.4085285419569,93.81489335832157 166.67695747982725,93.9992225172191 166.88344127819073,93.94302502405935 166.95975050802008,93.79241392070617 167.21291759992528,93.8699677306704 167.46608469183047,94.03856054264361 167.59446374907566,93.8699677306704 167.85301737485133,93.8497363698134 168.2175061667367,93.81938923875259 168.49940143929052,94.04080842433996 168.79835406909115,94.11498818886594 168.74448873039,94.08688986893503 168.75975057635515,93.9722477666055 168.8234912271546,93.86659584051995 168.8585036973127,93.77443032805513 169.17092266178952,93.46533141622513 169.53271818674693,93.38664990863435 169.87117206492985,93.1281198558645 171.14329181397625,92.8988083959166 171.94139658242784,92.64138771201124 172.6524190533164,92.28166023191807 172.8229926258755,91.71505874431386 173.6893268233507,91.53180458828228 173.68304253384122,90.03864265880566 173.6821447781913,89.64956815187179 173.6947133572212,89.31333053085473 173.25750635808072,88.99394876013866 172.75117217427032,88.67343039845673 172.67755621137985,88.43837595421428 172.58508737993543,88.08072089508096 172.2654863702992,87.71405267314276 172.23855370094316,87.50709187809571 172.28703250577746,86.71744536646474 172.27446392674392,86.40809099461876 171.8641895969522,85.77697330878618 171.60922699375806,85.4608344295566 171.35875316879174,85.29432241112227 171.28154618331246,85.01754524613898 171.21421450993876,83.78656568927272 170.92872821480705,83.55700323522615 170.31286784230178,83.52324352979394 168.898004945695,83.31730643348601 168.08553608691727,83.13499731436605 167.8952118901725,82.77149281154016 167.73092260712292,82.49801017215123 167.30179540878817,82.49238286527907 166.9678303088258,82.73885542647895 166.5656357798398,83.16088094514089 166.17960085246887,82.921173012297 165.95246867426613,82.5914229239279 165.29710705337857,81.84296671349603 165.0636905856627,81.73041122577797 164.32573544542538,80.43704205363247 164.1129673575524,79.41594102680574 163.9154611156373,79.1930162671897 163.71436385114794,78.86649978208789 162.7429922431984,76.25954882845599 162.76274286738771,76.11313051615161 163.18468802056304,76.09173070585894 163.36872792779832,75.51842103699073 163.512368831005,75.33369221600242 162.25371541664208,75.31003762636738 161.96912687715667,75.24808481833679 161.7330171425092,74.89776136977343 161.49960067479697,74.84932323158682 161.11177023612981,74.08666785154219 160.56952582651502,73.55490905878742 159.47067291697022,73.10311330963759 158.84044845414246,73.1594482526707 157.85920153409825,72.0169027124748 157.85561051151308,72.07211800596178 157.84483744377576,72.0664838087514 157.8457351994184,72.06197644829808 157.85022397764624,72.07775219944415 157.81970028571595,72.08113271373713" stroke="red" stroke-linecap="round" stroke-linejoin="round" stroke-width="0.5"><title>2025-05-03 98.8km</title><desc>1746244765000</desc></polyline><polyline fill="none" points="29.886526932346897,112.17738403839166 29.604034540134307,112.27504312651308 29.546901247329515,112.28301524095514 29.21600425982615,112.13851935442335 29.000960893841693,112.0 28.84543137453511,112.01395170527348 28.77401475852821,112.12257481055212 28.609756541714887,112.20329371605567 28.510566797252977,112.29497339675436 28.397887247552717,112.43448380869995 28.14872260947959,113.01741001590563 28.08603469098307,113.12601862105384 28.031281952044083,113.15591062233807 27.975735695152252,113.22167260677952 27.53136563998487,113.25754253764217 27.318702827873494,113.28942677695477 26.801329120793525,113.30736160214201 26.60215611392414,113.12502221896602 25.21826079927996,112.892856931614 24.696125984461105,113.78859676827369 24.362054925135453,114.21201838633988 24.21128651356412,114.4560976616649 24.152566184846364,114.56767412034696 23.933555229086778,115.10162425526141 23.720892416975403,115.32575247473551 23.57964622086729,115.66043818253138 23.341590834173985,116.09371452501819 23.240020535853546,116.2421183849915 23.340797316221142,116.40745078143345 23.22573721265144,116.61460913763722 23.1344826477507,116.81877405186242 23.17495206348758,117.08965748392939 23.151146524822252,117.695126366958 23.13924375548595,117.73794551257697 22.735343116062722,118.32942227229523 22.593303402001766,118.60025133409408 22.489352549808245,118.65800038824136 22.183054618933966,118.91189183598453 21.9632501452179,119.18170434170588 21.697421630073222,119.40371992590417 21.787089159060997,119.64962192205076 21.775186389728333,119.70039420833973 21.487932889784133,119.7352377361085 21.409374612179818,119.7193092862799 21.391917217151786,119.83877183861296 21.640288337272068,120.42212007633725 22.244155501513887,122.1370614618445 22.402859092650033,122.42666189375404 22.58536822244423,122.61076634575011 22.735343116062722,122.8685050207273 22.888492081499862,123.08344636249194 22.951179999996384,123.24265821818699 23.048782708541694,123.34116886920265 22.806759732069622,123.62276292083197 22.971811466843064,123.89340170402693 23.044815118762926,124.0446367909326 23.293979756836052,124.4724564566227 23.474901850724564,124.7062546168454 23.532035143529356,124.74306473023762 23.644714693229616,124.78285924520469 23.88277007992292,124.98282350273485 24.064485691767914,125.11414042809247 24.404904894741776,125.32105942594126 24.423949325675494,125.72692250334921 24.49377890577307,125.82042707643905 24.639786209612794,125.89801509717381 24.846894396036078,125.9159199116475 24.979411894630175,125.97062880354952 25.06749238770135,125.69011719375249 25.086536818642344,125.66922761377873 25.16112750647153,125.6761908135336 25.194455260610994,125.65132221345038 25.23492467635151,125.60655852658601 25.307928328264097,125.47425540954282 25.391247713610937,125.38074654296724 25.62930310030424,125.24545506597451 25.773723368227365,125.20168377417076 25.880848292243172,125.19273052408016 25.908621420690906,125.22456425386235 26.168895310143853,125.40163692228361 26.463290471689106,125.717969877011 26.822754105596687,126.00444864726751 27.361552797479817,126.23521529664094 27.760692329171434,126.47492662203467 28.298697503098083,126.26903395363252 28.36376597546041,126.27997525135879 28.551036212989857,126.26903395363252 28.716087947766937,126.29887381913295 28.817658246091014,126.37844621650584 28.905738739169465,126.540572377829 28.98429701677742,126.74347382830774 29.012070145221514,126.8747600931456 29.177915397951438,127.29247391334184 29.157283931104757,127.49237162815143 29.161251520883525,127.65646280774581 29.13347839243579,127.80265012460268 29.14855523359438,127.90507900553484 29.214417223913188,127.99656770378624 29.269169962852175,128.22429018883258 29.259647747385316,128.65585018897946 29.70322428458894,128.92531407520892 29.732584448949638,129.7028275064199 29.81272976247419,130.0000908837651 29.833361229317234,130.152197715488 29.82701308567266,130.24763573099972 29.87621119891992,130.37488454108188 29.86748250140954,130.4096787640765 29.834154747270077,130.42956110520117 29.827806603629142,130.48920781432753 29.844470480697055,130.54587175140614 29.911125988968706,130.63534025965055 29.94445374310817,130.75462995435964 30.507057973663905,130.95045978213102 30.567365338290983,131.01308449250155 30.655445831365796,131.1870392954056 30.658619903188082,131.32918224407422 30.751461503998144,131.4275873330489 30.79669202747391,131.52300922467612 30.81573645840399,131.57867143782414 30.81256238658534,131.61047823251556 30.79669202747391,131.62538762139957 30.81256238658534,131.71484333639592 31.064901096480753,132.058740993416 31.070455722165207,132.23366558353882 31.141078820219263,132.66201493990775 31.11013161995288,132.79816730287484 31.255345405832486,132.8587890980425 31.39024345829239,132.88264016274888 31.664007152990962,132.88363395547503 32.20836047056582,132.93133585262785 32.51941950917899,132.93630478292016 32.527354688732885,132.9204041944763 32.55988892491587,132.9204041944763 33.38118000901159,133.58124418477655 33.41212720928161,133.58820008768498 33.53750304627465,134.1774411796082 33.89220557244698,135.5067910533544 33.93108795227454,135.86243693883353 34.07709525611426,136.34124099808196 34.11121652820293,136.5885781011607 34.164382231232594,136.67002870894385 34.263571975690866,136.76836424886187 34.30721546325003,136.79021641733334 34.42941722842079,136.81504835028318 34.513530131716834,136.81504835028318 34.565108798833535,136.8388869291657 35.211825932685315,136.7614112729152 35.23007684566255,136.80610886381646 35.23166388157915,137.06832940693585 35.2562629382046,137.11401841952738 35.314983266918716,137.13288988761997 36.88376826523381,137.12891695088274 37.01628576382791,137.14480868530063 37.16388010357696,137.1825514206489 37.22656802207348,137.17361236878196 37.34559571541831,137.21830752242386 37.42812158280867,137.2322126274389 37.618565892160404,137.21532785373347 37.449546567608195,138.1488999163994 37.49160301925804,138.17472048414902 37.60031497917953,138.1816721604023 37.50191875268138,138.47760902224854 37.50906041428243,138.51037984165123 37.81694538107331,138.5828723618297 37.9351795564653,138.6424547348115 38.02008597771783,138.6583432883158 38.07959982439206,138.68614817663365 37.634436251275474,139.57882937011846 37.644751984698814,139.5917372241679 37.813771309247386,139.60166632767687 37.83360925814122,139.69599216096367 37.86773053023353,139.71088560606222 37.92486382303832,139.77641641611444 37.931211966682895,139.80818872572672 37.978823044024466,139.82506771092494 37.99548692109238,139.86378994641836 38.193072892048804,139.79329547221278 37.968507310601126,142.2016500127247 37.865349976367725,142.9817686970846 37.85582776089723,143.1355994053124 37.89232958685898,143.36485098274215 38.16053865586946,144.272857212075 38.21211732298252,144.41971574898525 38.3255903906429,144.65785867378509 38.3033718878869,144.69159498251656 37.9034388382388,144.84539095628043 38.008976726338005,145.31767390850337 38.147842368580314,145.70063804113806 38.158951619960135,146.02207485380677 38.36050518069169,146.45460410110672 38.42081254531877,146.5488445826486 38.532698577066185,146.65300375104562 38.56999392098078,146.74327387202948 38.553330043912865,147.32058042119843 38.60808278285185,147.90081845703253 38.177996050890215,147.9781801719114 37.813771309247386,147.9563602810058 37.61618533829096,148.0 37.397967900491494,147.6082253424629 37.22101339638539,147.60921720261376 36.976609866040235,147.57846947762573 36.879007157494925,147.60624162177828 36.77981741304393,147.5586321694891 36.499705574697145,147.55069723169618 36.28704276258577,147.50110368222977 36.05374848362408,147.4852336778531 35.725232049990154,147.42076144329303 35.396715616352594,147.4574610902191 35.294351800072036,147.55466470163037 35.32609251829854,147.577477613454 35.33878880558768,147.56160776901925 35.351485092880466,147.56458336738388 35.339582323544164,147.56061590264062 35.355452682659234,147.56656709897652 35.35862675448152,147.5923555624231" stroke="red" stroke-linecap="round" stroke-linejoin="round" stroke-width="0.5"><title>2025-05-03 66.9km</title><desc>1746236322000</desc></polyline><polyline fill="none" points="92.43781984457746,112.43272129099932 91.7766069007339,112.0 91.04192585207056,112.72120175982127 90.57662785460707,112.2019366902532 85.48283925047144,114.76940407414804 85.67875419696793,115.86561853918829 85.04203062143642,118.0291864372848 85.21345619938802,118.63498228919343 84.1849027313292,120.59659746749094 82.10330642666668,121.80817607257632 80.82985927572008,123.13513677229639 80.70741243439261,123.79861463516136 80.26660380512476,123.74092097385437 79.01764602237381,125.09671870211605 77.57277329347562,125.15441206886317 77.03400719107594,126.01981106615858 76.22585803747643,126.27943021530518 72.11164416500833,130.69291691150283 70.34840964828618,130.86599332632613 69.61372859962285,130.5198403839604 68.26681334374007,127.46213646017713 67.3851960854372,127.80829338895273 66.13623830268625,125.789038276067 64.56891873222776,124.89479181967909 59.9159387574764,130.57753257238073 59.74451317929197,132.3371382970945 59.9649174939841,133.05828481548815 60.944492225535214,133.51981755939778 60.99347096204292,136.40437903389102 62.29140748141799,138.94276721109054 62.16896063985769,139.46197998535354 62.071003166842274,139.1446834105882 63.39342905441299,138.16394614623277 64.86279115173966,135.71208713788656 66.89540871966165,135.42363164844573 68.1933452389203,136.98128756857477 69.24638807529118,140.06772693881067 70.03004786057863,140.99076725851046 72.47898468945641,141.50997602843563 74.75649594014976,142.6926144368481 77.35236897878349,142.23109763581306 78.23398623708636,142.98106203012867 78.40541181527078,144.42329529707786 77.47481582034379,148.0 79.21356096863747,146.1251204777509 80.364561278373,145.9808984278061 81.66249779751524,146.55778615770396 86.07058408949524,143.6444903058582 88.66645712812897,141.10614707288914 89.79296806943603,140.7600074794027 90.11132985702716,137.61588550900342 92.63373479084112,137.8754933203163 93.58882015408017,136.7793697239831 92.36435173964128,128.87560774481972 91.04192585207056,125.55826528530451 92.16843679337762,124.00054235130665 92.2419048983138,123.19283056532731 90.5031597497873,120.22158392160782 91.36028763977811,116.41372407434392 92.26639426639304,114.22129514417611 92.82964973710477,113.81742468220182" stroke="#4dd2ff" stroke-linecap="round" stroke-linejoin="round" stroke-width="0.5"><title>2025-04-28 5.2km</title><desc>1745795058000</desc></polyline><polyline fill="none" points="117.69037615484558,146.39298789022723 117.80732863524463,148.0 117.7293603150174,147.26536740845768 117.2225662333658,147.12762351337005 117.78783655515872,147.19649547207518 117.51494743430521,145.01553921560117 118.85990095871966,144.0972351127566 117.94377319561318,143.36258895817446 117.45647119404748,142.37540416752745 117.32002663356252,140.95201333015575 117.96326527569909,140.40102075542381 118.72345639811829,138.83986732714402 120.1853624030482,137.1868687767128 123.77190513466485,134.75326405219676 125.44822402019054,133.1231923878222 126.73470130446367,132.45738485248876 126.79317754460499,130.11556237650802 128.45000435004476,130.57474529923638 129.44410043326207,129.77117452984385 128.41102018998936,123.13585911897826 127.47540034691337,120.58729159721406 128.35254394973163,119.46223849819216 128.39152810978703,118.63566505772178 128.2940677095903,118.06165382187464 127.08555874566082,116.70698112333775 127.41692410665564,114.06649242872663 128.35254394973163,112.0" stroke="#4dd2ff" stroke-linecap="round" stroke-linejoin="round" stroke-width="0.5"><title>2025-04-27 2.3km</title><desc>1745711220000</desc></polyline><polyline fill="none" points="155.94473374813242,112.06161120012075 156.68341181670985,112.0 157.15140432372573,112.12322218421286 157.94715464926412,112.15595293164552 158.1542454102091,112.2522194825051 158.92227492522215,112.76819920631715 159.05761770599202,112.98190278944458 159.4701685919863,113.89637075253268 159.4832136792902,114.05615711332757 159.57615992632054,114.1581886078875 159.85173739562015,114.6529367014773 160.08328769525542,114.91089321946674 161.0469935198198,115.7444134047546 161.46606694945513,116.16982071562961 161.55575192467222,116.32766153416196 161.392688333377,116.45855284553181 161.21168774703983,116.50282468620935 160.6197669106259,116.81849892771788 159.7441154253611,117.14956582420382 159.1685009480716,117.44020662448747 158.2341465699501,118.11578356745667 157.79061360161722,118.53920887701315 157.5443875787605,118.8336759234644 157.30631473546237,119.17817686401759 156.8611511312265,119.90757279081663 156.78940315105137,120.08077582326041 156.7877725151484,120.20394138662232 156.49588868671708,120.96985788006896 156.37359099324385,121.14497480709724 156.2186805815145,121.54715983264396 156.00343664099637,121.95318419381329 155.16692041764327,123.12694600967734 154.84405450688064,123.52138937357086 154.58315276080248,123.89081123936194 154.59456721219613,123.92159604486187 154.6728377360123,123.86772259990539 155.15713660216716,123.21160776943907 155.23051521825255,123.18659411007866 155.2957406547721,123.21353189560614 155.9854996459544,123.66377163597826 156.2186805815145,123.77344367445403 157.60309047162445,124.62193582524924 162.33356525516137,128.11167536802532 162.90428782470553,128.58487235718167 164.80234802740597,129.804353969148 165.45623302850436,130.089015756952 166.191649825254,130.28327555276337 166.6156151626201,130.32558928359867 167.6771591419747,130.63139913514715 167.89566435431334,130.66986540731887 167.91686262117582,130.64101571106403 168.52835108854924,130.84873246972893 168.99308232373733,131.08337252940328 169.36486731190234,131.33531862284508 169.39584939424094,131.2910840732693 169.4203089329385,131.30070028914997 169.68447195083718,131.50263961029486 169.74643611552892,131.47956094786787 169.75132802327425,131.45455902946378 170.00570722569682,131.5584129197141 170.13778873465344,131.7026534185552 170.31063614142477,131.73342457217404 170.41825811167655,131.79304352938925 170.46065464541607,131.844969553591 170.4394563785536,131.81996815363527 170.44760955811216,131.9180503654825 170.51609626645222,131.88150999742356 170.56827661567513,131.89689542478663 171.23194543224963,132.2622953769078 171.29390959694138,132.32191254492682 171.29554023285164,132.2969118216006 171.4569731882366,132.3526826172456 171.61677550771128,132.36999075932 171.82875817639433,132.43922315763302 171.8124518172699,132.45268498127552 172.07335356334806,132.50845528396349 172.1451015435232,132.5642254101749 172.19402062090376,132.74115015978896 172.24130906237406,132.78730415020073 172.43861600784294,132.7776887455002 172.7957252727938,133.00268784068976 173.97793630969682,133.37383391746698 174.19481088611792,133.4795995032655 174.11654036230175,133.48536851696372 173.97956694561435,133.4488313983038 173.98772012517293,133.42960130543725 173.8719449753553,133.50267554673337 173.6485478552786,133.96803597571852 173.50342125902534,134.18340523878032 173.1316362708676,134.59106128281383 172.97998713095876,134.90641137846978 172.87562643252022,135.01985911857628 172.8250767192294,135.12561482900855 172.6424454969747,135.30443667798863 172.37991311498627,135.65053833020647 171.93311887483287,136.06585134528177 171.73255065752892,136.3600254792218 171.73092002161866,136.4138607371915 171.75701019622647,136.41001536706972 185.31737844850431,147.9404357854928 185.33694607946381,147.93275006576187 185.31900908442185,147.95772864265564 185.35325243859552,147.96925720469335 185.34672989493993,147.9404357854928 185.4168472392048,148.0" stroke="#ffc800" stroke-linecap="round" stroke-linejoin="round" stroke-width="0.5"><title>2025-04-20 36.9km</title><desc>1745145130000</desc></polyline><polyline fill="none" points="21.951089635607786,153.32269179082505 21.678116698138183,153.27800660520734 21.534047647845,153.42099911352852 21.215579220821382,153.42099911352852 21.41272634229972,153.31375475566165 21.443056668678764,153.13501384784468 21.170083731238265,152.78646795808163 21.215579220821382,152.63453723524435 21.101840496849036,152.8043421422626 21.32173536316259,153.07245443813736 21.73877735089627,153.04564324796956 21.625038627011236,153.51036930467671 21.117005660024006,153.58186538759765 20.487651387549704,153.29588068237354 20.654468182707205,152.49154335686762 20.94260628335178,152.0 21.829768330062507,152.16980621971743 22.315053552243626,152.93839839966677 21.41272634229972,153.93040789989027 20.95777144652675,154.06446231823793 21.003266936109867,154.2163903943656 20.83645014098147,154.0376514520758 20.290504266042262,153.9572188010643 20.328417174052447,154.28788586229348 20.790954651427455,155.02071081836766 21.4506392502808,157.2370196536067 21.74635993252741,157.7017219822883 30.815127521607792,160.59711569985666 31.626463752414566,160.71328677386919 32.263400606490904,160.64179690159654 32.4302174016193,160.86520254567586 33.64343045701389,163.64431794161646 35.51632811126183,170.30130189255578 38.73892528968281,178.65527665150876 39.70949573398684,182.0055625965033 39.61092217327678,182.264645684867 36.93427086973679,183.13122800934798 37.06317475691321,183.72978984480142 39.42135763334227,187.803468002734 39.360696980555076,188.0 39.163549859047635,187.67840194155724" stroke="#4dd2ff" stroke-linecap="round" stroke-linejoin="round" stroke-width="0.5"><title>2025-04-16 7.1km</title><desc>1744770713000</desc></polyline><polyline fill="none" points="64.7741935485974,157.9896598541236 64.51612903224304,158.96570975740906 65.33333333372138,160.32133071753196 64.38709677453153,161.35159960997407 65.20430107531138,161.40582421576255 86.49462365615182,181.35998589202063 87.26881720451638,180.65510020541842 86.66666666697711,179.84176904158085 87.39784946269356,177.88976757909404 88.90322580654174,176.91376331742504 87.6989247314632,181.7937610890367 90.10752688208595,182.55286656488897 91.82795698964037,178.97421399847372 92.17204301105812,179.3537695586565 92.12903225817718,177.3475432798732 93.80645161308348,177.3475432798732 93.59139784961008,175.99197935321718 94.66666666674428,176.10042463443824 93.63440860225819,185.10128167746007 94.15053763473406,185.31816732892185 93.37634408613667,186.40259384352248 93.89247311861254,185.10128167746007 93.16129032266326,183.69152210906032 92.25806451635435,185.04706024640473 90.70967741962522,184.3421809815045 87.3118279571645,184.61328853637679 79.39784946246073,176.69687316173804 78.36559139797464,177.022208351671 79.1397849463392,176.37153771030717 70.9247311828658,168.67185568722198 67.48387096798979,169.6478798262251 65.97849462367594,168.23806642534328 66.064516129205,167.3704865067266 65.63440860225819,168.7803029298957 64.04301075288095,169.4309857765038 62.881720430450514,169.26831516300444 62.66666666697711,168.50918476859806 61.93548387102783,170.51545486255782 61.63440860249102,169.8647737595311 60.08602150576189,170.46123147729668 61.03225806471892,168.12961903732503 59.74193548411131,165.85221717352397 58.66666666674428,160.21288120769896 59.35483870981261,159.72485805448378 60.94623655942269,160.32133071753196 64.90322580654174,158.85725988441845 64.25806451658718,156.41713005842757 63.18279569922015,155.87487698771292 64.21505376370624,155.7664262864855 63.311827957164496,153.59740615644841 64.17204301082529,154.3023389739392 64.30107526900247,156.0375529853045 63.612903226166964,156.57980583785684 63.82795698940754,154.13966227893252" stroke="#4dd2ff" stroke-linecap="round" stroke-linejoin="round" stroke-width="0.5"><title>2025-04-07 2.7km</title><desc>1743986187000</desc></polyline><polyline fill="none" points="124.65470364340581,170.31479699825286 121.98259923886508,170.092678004381 123.48015225667041,169.05612033832585 125.21261555189267,169.01910034980392 126.4752582925139,167.68637745740125 126.09352909203153,167.16809459630167 124.97770527459215,167.35319572972367 120.6612289288314,162.5405259533436 116.60902664496098,162.8737134852563 114.99401848833077,163.61412878418923 114.08374116371851,164.76176857584505 112.82109842309728,163.3549836552993 112.08700380648952,163.13285906560486 111.029907558579,163.6511494969891 108.44589450815693,161.6520239036763 105.33333333337214,163.3179629028309 106.97770527470857,161.98521250707563 108.76889613922685,161.5779819371819 110.76563349657226,163.46604588313494 112.32191408379003,163.09583828336326 114.08374116371851,164.72474801185308 115.14083741174545,163.57710806638352 116.99075584579259,162.83669266826473 120.95486677542794,162.61456766183255 125.68243610672653,168.4267798580113 124.97770527459215,169.05612033832585 122.51114736276213,169.09314032195834 120.60250135941897,170.24075735348742 125.77052746072877,170.35181681319955 130.52746057650074,169.2042002431408 131.70201196311973,172.38789899626863 132.6416530723218,172.79511363228085 137.01685698749498,172.64703565227683 141.30396954866592,176.53405632500653 141.33333333337214,176.94126484979643 139.5127786839148,177.71866127621615 137.13431212620344,178.01481172046624 136.95812941819895,178.4220180628181 137.31049483409151,177.97779293224448" stroke="#4dd2ff" stroke-linecap="round" stroke-linejoin="round" stroke-width="0.5"><title>2025-04-04 2.7km</title><desc>1743741381000</desc></polyline><polyline fill="none" points="184.97297581413295,168.66781531918969 183.23565342952497,169.79870886838762 182.64130629808642,169.63715296293958 182.04695916641504,170.5526350345026 180.35535579209682,171.0373006446316 180.03532272123266,170.7141903431475 180.8125458933646,169.39481890741445 180.49251282238401,169.0178543501097 177.33790112414863,169.6102269685216 176.24064488138538,169.47559695223754 175.0062316081021,168.58703701102058 174.2061489309417,166.8099075720238 174.34330596134532,166.35216004677932 175.82917379017454,165.73285322572337 175.62343824468553,163.33639051210776 174.59476051700767,162.20546747568005 172.9260166476015,161.9361993255443 172.26309100096114,162.9324900201027 171.66874386940617,162.58244239454507 169.45137187850196,165.5443682338955 167.5083139485214,167.24072800010617 166.86824780679308,167.4292117018922 165.33666096779052,167.0253178797575 164.67373532103375,165.32895663917589 164.30798324011266,168.72166750996257 164.9251898766961,170.41800553018402 164.4908592805732,170.06796847666556 164.51371878571808,169.4486709402554 165.08520641212817,169.42174492524646 166.25104117009323,170.33722779249365 166.47963622084353,171.09115232058684 168.2169586053351,172.32973763835616 167.46259493846446,172.81439977366244 167.62261147378013,173.24520976482017 164.58229730080348,174.07990199222695 164.10224769450724,172.92210234161757 162.6392393708229,171.25270727819589 162.54780135047622,164.95198589786014 161.01621451147366,165.1943242973357 159.64464420790318,164.06340973898477 158.86742103588767,164.2788224336109 160.67332193558104,161.74771144622355 162.22776827972848,162.5555156336195 163.3478840276366,164.4403818317951 164.90233037166763,163.17483039427316 166.7996692917077,162.95941674000642 168.44555365596898,161.209173858515 169.10847930272575,161.10146620053274 169.3599338582717,161.82849198345502 168.94846276729368,160.5898541859642 169.38279336330015,160.10516814526636 168.58271068625618,160.2128762361972 168.46841316099744,160.69756206628517 168.10266108007636,160.26673026416393 169.13133880775422,159.70126238727244 167.75976850406732,160.34751128411153 167.851206524414,160.80526989979262 168.2169586053351,160.5898541859642 168.83416524203494,160.912977686472 166.9368263219949,162.8786365713895 164.8566113614943,163.22868377859413 163.5079005630687,164.4403818317951 162.11347075446974,162.50166210305179 160.46758639009204,161.77463829495537 158.75312351051252,164.49423494112852 156.421453994466,166.9983916015044 156.39859448943753,169.31404083620873 157.31297469185665,169.74485691160953 157.31297469185665,170.68726446577057 155.80424735788256,170.63341270197998 154.77556963008828,168.10236660962983 155.02702418586705,169.0178543501097 154.79842913523316,169.98719062490272 154.478396064369,170.3641537079675 153.72403239738196,170.0948944214324 153.22112328605726,171.97970328462543 153.86118942766916,175.5608006393595 154.8441481454065,176.61088704627764 155.46135478198994,178.253320967342 155.30133824644145,179.76111957611283 154.36409853911027,180.48809062830696 154.1126439833315,179.68034488313424 154.31837952893693,179.3841707837273 154.88986715534702,179.73419468135398 154.31837952893693,180.78426340864098 155.25561923638452,182.0766495821008 155.80424735788256,185.3614341133507 159.66750371293165,187.649987773475 162.91355343151372,188.0 164.14796670468058,187.89230398290965 167.43973543331958,185.84607076935936 172.12593397055753,186.92303772401647 173.2231902134372,186.49225150363054 176.33208290161565,182.5612926599715 175.87489280034788,181.72662899216812 174.1375704157399,181.43045733762847 173.74895882979035,180.97273681199295 173.33748773869593,178.8725965058693 175.41770269919652,177.49941822366964 176.1492068611551,175.964680553152 177.10930607363116,175.2915469980362 176.789273002767,173.97219992727332 175.39484319416806,173.05673048582685 175.9434713156661,170.04104252895922 176.56067795213312,169.39481890741445 178.32085984176956,169.23326273872226 180.94970292365178,168.15621892317722 181.88694263109937,168.45240643904253 182.45843025750946,169.50252296129474 183.12135590438265,169.69100494305894 185.54446344065946,167.9946619472612 186.77887671382632,167.67154767927423 186.55028166330885,165.43666245989152 185.38444690522738,162.20546747568005 186.41312463290524,161.10146620053274 186.55028166330885,160.07824111523223 184.83581878384575,157.65479642967694 185.2244303697953,155.23132804548368 186.59600067336578,152.0" stroke="#4dd2ff" stroke-linecap="round" stroke-linejoin="round" stroke-width="0.5"><title>2025-04-01 8.4km</title><desc>1743465137000</desc></polyline><polyline fill="none" points="23.196263684658334,204.27769491256913 22.440292983083054,204.00023560452973 23.77777960896492,203.79214104096172 24.7663566803094,204.90197789506055 25.58047897485085,202.47420715889893 24.882659865543246,201.29500075039687 20.986503171967342,200.39325313828886 19.53271336085163,196.43942097836407 16.741436923621222,197.41054001892917 15.81101144454442,195.3295687569771 22.78920253762044,192.0 21.916928651044145,192.97112609469332 24.06853757123463,194.28908046905417 21.102806356735528,195.53766620205715 24.53375031077303,194.21971452009166 34.94288535765372,211.28350069769658 38.373829311691225,209.82685462210793 39.24610319826752,210.3817678221385 40.874347786419094,213.22569006483536 39.94392230757512,212.04650439933175 38.66458727396093,213.8499639077345 40.641741416882724,212.323960054724 41.1651057486888,212.8788709876826 39.071648420765996,213.01759864203632 43.20041148434393,218.35858939832542 38.78089045872912,220.16203028248856 39.30425479076803,222.93654432945186 40.93249937915243,222.7978189261048 40.69989300938323,223.49144562747097 34.47767261811532,223.63017087313347 34.53582421084866,222.6590934912674 35.349946504458785,223.63017087313347 34.7684305801522,222.4510052803089 37.03634268557653,225.01742159953574 41.68847008049488,225.15614649903728 40.816196194151416,225.15614649903728 41.92107645049691,223.2833576995763 41.804773265495896,219.95394122129073 43.084108299342915,220.57820819230983 44.18898855568841,221.82674022187712 43.8982305934187,223.00590701925103 41.51401530345902,222.31227976683294 37.44340383261442,225.08678405330284 39.653164345538244,225.2255089370883 43.14225989184342,228.0" stroke="#4dd2ff" stroke-linecap="round" stroke-linejoin="round" stroke-width="0.5"><title>2025-03-30 2.1km</title><desc>1743318651000</desc></polyline><polyline fill="none" points="87.07844963413663,192.9935402594856 86.93145975703374,192.0 83.94266558764502,193.11042722285492 84.13865209044889,194.39618206844898 81.10086129512638,195.03905828751158 81.19885454676114,196.85079604166094 79.53296927199699,197.72744105401216 79.53296927199699,198.5456417190726 79.0430030147545,198.07809864101 78.94500976311974,199.1300699696876 78.45504350587726,196.5001376188593 78.89601313741878,197.02612516348017 78.0630705000367,197.55211217078613 71.64451252948493,198.37031311448663 72.28146866406314,198.48719885747414 72.23247203836218,200.591137694777 70.56658676359802,199.88982570404187 66.89183983393013,200.591137694777 66.7938465825282,202.28597106295638 68.85170486290008,202.05220127484063 70.1746137579903,208.5977152340347 69.92963062901981,207.19511210295605 70.81156989210285,206.43536714534275 67.03882971103303,207.77953053853707 66.30388032505289,209.0652487622574 66.25488369911909,207.66264690441312 69.53765762317926,206.43536714534275 70.90956314350478,207.66264690441312 70.1746137579903,208.42239005159354 71.15454627224244,222.97417710028822 71.3505327750463,225.01957605860662 72.52645179256797,225.8961731256568 69.88063400355168,226.24681153491838 69.88063400355168,228.0 69.04769136593677,227.298725330038" stroke="#4dd2ff" stroke-linecap="round" stroke-linejoin="round" stroke-width="0.5"><title>2025-03-30 1.4km</title><desc>1743309591000</desc></polyline><polyline fill="none" points="129.07034435402602,197.03417586442083 128.78543635760434,199.01731127264793 130.23587706696708,200.57330001794617 130.59848724433687,201.85469603992533 130.4430828827899,202.7699753328634 129.43295453151222,203.9598339535878 130.98699814872816,209.87854294732097 130.1063734323252,210.5497288753977 129.2516494427109,210.33616989041911 128.68183344963472,211.28192987659713 127.33499564800877,212.1361619652016 126.1953636619728,212.25819490858703 125.52194476104341,213.44801332760835 128.21562036452815,216.25474449872854 128.44872690702323,219.7936264294549 126.42847020446789,220.89189106511185 124.79672440630384,222.63080128849833 119.35757174575701,226.44416320804157 118.83955720660742,227.42037553578848 118.55464920995291,226.10858943674248 117.07830777356867,225.74250850171666 115.16165397875011,228.0 114.90264670923352,227.32885577421985 116.09408014919609,223.91209666905343 115.7832714257529,222.63080128849833 118.08843612484634,221.16645655306638 118.9172593873227,219.36652235561633 120.08279210038017,218.63434243231313 119.53887683432549,218.08520623724326 120.08279210038017,218.42078959519858 121.11882117867935,220.12920774598024 124.38231277500745,218.11571383179398 124.97802949510515,218.2987593295984 124.95212876808364,217.6886072063353 125.02983094903175,218.23774417693494 124.51181640988216,217.93266821475117 124.56361786369234,217.04794605018105 124.01970259763766,216.95642290866817 124.30461059429217,216.34626786905574 123.29448224289808,215.15646172891138 123.50168805848807,214.66833467481774 124.97802949510515,214.45477882178966 125.23703676462173,213.32598090125248 125.98815784638282,212.5632770350494 125.65144839580171,211.73955453292 128.26742181845475,213.53953761263983 128.94084071926773,213.50902952090837 130.2099763401784,214.72935060298187 130.70209015230648,216.01068203212344 131.34960832609795,215.67509579428588 131.76401995751075,214.4852868107846 130.70209015230648,208.07853640199755 129.17394726199564,204.02085220839945 130.4430828827899,202.7699753328634 130.62438797135837,201.27501761144958 128.83723781141452,198.74272412844584 129.12214580795262,195.75275784396217 131.11650178348646,192.0" stroke="#4dd2ff" stroke-linecap="round" stroke-linejoin="round" stroke-width="0.5"><title>2025-03-26 3.9km</title><desc>1742943197000</desc></polyline><polyline fill="none" points="169.3325352256652,193.57548975831014 169.1779644357739,192.99504806814366 169.85245515516726,193.06138437378104 169.92271460505435,192.6467819872487 169.2341719956603,192.0 169.0936530958861,192.3150992615847 168.75640773610212,192.21559430235357 167.2388036174816,194.6866147946712 167.2388036174816,195.0514600454626 167.07018093764782,194.98512461064092 166.94371392781613,195.79773168727115 166.28327509836527,197.124427757808 166.39569021825446,197.53901789891825 168.02570945682237,198.50086265998834 169.220120105776,199.59536824132374 169.0374455358833,200.04311824718025 168.84071907604812,199.81095174251823 168.85477096610703,200.7396156280738 168.58778505632654,201.17077906991472 169.0374455358833,201.452692965162 169.0233936458826,202.16576694851392 168.65804450621363,202.43109594671114 168.46131804643665,202.23209924162074 168.26459158660145,202.84567157682613 167.82898299692897,202.72959051463113 167.68846409709658,203.02808449491567 167.82898299692897,202.87883757828968 168.967186085938,203.9401457937638 169.66978058533277,204.17230597564776 169.72598814527737,205.31651882157894 170.18970051483484,205.1672741574439 171.24359226389788,205.68133849329024 172.08670566312503,207.27326860699395 171.91808298323303,207.3893461906846 172.04454999318114,207.28985112438386 172.8174039425212,208.48378761117056 173.30922009196365,208.61644664047344 173.37947954196716,208.86518200769206 173.05628607224207,210.821886000238 173.71672490163473,211.96604867029237 173.18275308213197,212.71223706503224 172.452054802794,217.2224531952088 172.5504180327407,217.73647666590114 171.65109707351075,217.9851970745949 172.05860188318184,217.78622078021 171.88997920328984,217.6038256144384 170.9906582441181,218.15101045381743 170.37237508472754,217.20587176394474 171.0187620241195,217.88570896002057 170.9203987941728,218.9137496631447 171.31385171378497,218.41631148345186 170.73772422439652,218.5323805379885 171.24359226389788,218.48263666835555 171.0047101341188,217.88570896002057 170.33021941472543,217.32194174487086 170.61125721450662,217.63698838817072 170.41453075467143,217.42143022926757 170.7658280043397,218.3665675757511 170.7517761142808,219.26195541817287 168.74235584621783,223.90462242922513 168.84071907604812,224.38546196231619 172.7471444925759,225.44661967585853 172.5644699226832,226.85595828658552 172.33963968290482,226.8062171467609 172.29748401296092,227.22072614668286 171.91808298323303,227.18756546842633 171.70730463345535,228.0" stroke="#4dd2ff" stroke-linecap="round" stroke-linejoin="round" stroke-width="0.5"><title>2025-03-24 3.9km</title><desc>1742796232000</desc></polyline><polyline fill="none" points="38.73730234782124,267.99746281617263 38.81050793673057,268.0 38.85357004786056,267.89343804151395 38.79974240895535,267.94925627097655 38.80189551450894,267.8376196784411 38.73945545337483,267.84776848166257 38.952612903449335,267.7944872154749 38.97199085346074,267.75642909365524 38.90093837009772,267.634642686442 38.941847375674115,267.56867478364074 38.860029364521324,267.4976322180628 38.9353880589988,267.30987582429407 38.87940731453273,267.2946522666498 38.928928742330754,267.1804752675125 38.82988588674198,267.07644684822844 38.66840297001181,267.1271924765915 38.664096758904634,267.0815214160375 38.700699553352024,267.10435695749584 38.70931197558093,267.05614856596003 38.82988588674198,267.0307756882885 38.71361818668811,267.06629770930886 38.7609865089471,267.0612231381838 38.72223060892429,266.94958229416807 25.04570411475288,232.1600894560852 25.015560636966256,232.18041819695463 25.043551009206567,232.22361671223734 25.11460349256231,232.17025382874817 25.12321591478394,232.20074692003982 25.256708459288348,232.15500726808932 25.280392620399653,232.22615779887383 25.230871192601626,232.0228699898471 25.237330509276944,232.05844548485766 25.34283268154104,232.0 25.444028642683406,232.00508222191092 25.51938733716088,232.09910312672218 25.579674292734126,232.11180862520814 25.500009387149476,232.13213740833817 25.459100381587632,232.05082216908522 25.510774914939248,232.05844548485766 25.47847833159176,232.06606879812352 25.459100381587632,232.11689082265912 25.00264200363017,232.25410973347607 25.136134548127302,232.84871564714558 25.01986684808071,232.88937190583601 24.981110948072455,232.9579791810338 24.85838393135782,232.97830722366052 24.84761840356805,233.07994716997018 24.85623082578968,233.12060302398277 24.983264053611492,233.10535708706266 25.0220199536343,233.17904568947233 24.981110948072455,233.04945523277092 24.976804736950726,233.11552104612565 24.910058464709437,233.12822598869025 24.714125859078194,233.10027510587497 24.5138870423325,233.1561768378724 24.518193253439676,233.10789807724723 24.5138870423325,233.18412765343783 24.057428664382314,233.395028177536 24.044510031031677,233.5373214253923 23.887333325423242,233.61609052711174 23.661257242005377,233.1561768378724 23.577286125298997,233.19683255848213 23.510539853057708,233.17904568947233 23.54498954195151,233.2044554981694 23.52991780306911,233.10281609661433 23.45025289746991,232.99101224126935 23.489008797492716,232.97068420975847 23.374894202992436,232.8995359593937 23.333985197430593,232.79281317525783 23.364128675217216,232.7597798331808 23.224176814052043,232.65559744663733 23.13805259179935,232.70133611290112 22.8689143972515,232.61239973469674 22.638532102719182,232.50821668715798 22.517958191558137,232.47264188098416 22.382312541514693,232.31255457896805 22.104561924723384,232.1499250789784 21.99905975247384,232.16517164297147 21.766524352380657,232.42436169974098 21.585663485646364,232.43452595676172 21.5835103800855,232.46755976136046 21.475855102267815,232.48280611687187 21.198104485498334,232.37354034792952 21.20241069660551,232.26935622908968 21.02800914653926,232.1600894560852" stroke="#4dd2ff" stroke-linecap="round" stroke-linejoin="round" stroke-width="0.5"><title>2025-03-24 4.7km</title><desc>1742777725000</desc></polyline></svg>