<?xml version="1.0" encoding="utf-8" ?>
<svg baseProfile="full" height="300mm" version="1.1" viewBox="0,0,200,300" width="200mm" xmlns="http://www.w3.org/2000/svg" xmlns:ev="http://www.w3.org/2001/xml-events" xmlns:xlink="http://www.w3.org/1999/xlink"><defs /><rect fill="#222222" height="300" width="200" x="0" y="0" /><text fill="#FFFFFF" style="font-size:12px; font-family:Arial; font-weight:bold;" x="10" y="20">Over 1km Runs</text><text fill="#FFFFFF" style="font-size:4px; font-family:Arial" x="10" y="280">ATHLETE</text><text fill="#FFFFFF" style="font-size:9px; font-family:Arial" x="10" y="290">Tao</text><text fill="#FFFFFF" style="font-size:4px; font-family:Arial" x="65" y="280">SPECIAL TRACKS</text><rect fill="yellow" height="2.6" width="2.6" x="65" y="283" /><text fill="#FFFFFF" style="font-size:3px; font-family:Arial" x="70" y="285.5">Over 20.0 km</text><rect fill="red" height="2.6" width="2.6" x="65" y="287" /><text fill="#FFFFFF" style="font-size:3px; font-family:Arial" x="70" y="289.5">Over 40.0 km</text><text fill="#FFFFFF" style="font-size:4px; font-family:Arial" x="120" y="280">STATISTICS</text><text fill="#FFFFFF" style="font-size:3px; font-family:Arial" x="120" y="285">Number: 19</text><text fill="#FFFFFF" style="font-size:3px; font-family:Arial" x="120" y="290">Weekly: 2.4</text><text fill="#FFFFFF" style="font-size:3px; font-family:Arial" x="141" y="285">Total: 289.5 km</text><text fill="#FFFFFF" style="font-size:3px; font-family:Arial" x="141" y="290">Avg: 15.2 km</text><text fill="#FFFFFF" style="font-size:3px; font-family:Arial" x="167" y="285">Min: 1.4 km</text><text fill="#FFFFFF" style="font-size:3px; font-family:Arial" x="167" y="290">Max: 98.8 km</text><polyline fill="none" points="48.126295163528994,53.18805323661945 45.82287403836381,54.31025257366127 45.92240458086599,54.96346932128654 45.63803160242969,56.571375675994204 44.91288050747244,57.86103844323952 42.68055262701819,59.40192006985308 41.98383882991038,60.33984047546983 41.27290638384875,60.39008605048002 40.83212826726958,60.89254089942551 40.33447555516614,60.993031672682264 37.93152388755698,63.62251695721352 36.56653359113261,63.47178334381897 35.81294519844232,61.59597493670299 35.30107383732684,61.89744568434253 34.53326679562451,60.691559156330186 33.992958136601374,60.75855309983308 33.59483596688369,60.557571182071115 33.52374272228917,60.23934927639493 32.3293762129033,62.081677517679054 31.376726735266857,62.88559566845652 30.935948618745897,63.890487461554585 31.06391645903932,65.02935690869344 31.533131873351522,65.1968370001996 31.57578782021301,66.72089747144491 32.215627021563705,68.42916712493752 33.01187136111548,67.90998913433577 33.85077164741233,66.48642761036172 35.07357545453124,66.38594041785109 35.78450790059287,67.1395927650301 36.75137602718314,69.53450799117854 38.258552812738344,69.8527107109694 39.48135661991546,70.50586160458624 41.27290638384875,70.33838728022238 41.514623415481765,70.58959869851242 41.89852693636203,72.3145727160445 43.462578317616135,72.75 48.31113759946311,69.38378015786293 48.581291928945575,68.81436256882444 48.52441733318847,67.54153917712392 49.93206357641611,67.75925971282413 50.37284169293707,67.15634055313421 50.35862304398324,65.88350347294181 49.74722114036558,62.45014052381157 49.036288694420364,60.490577151300386 49.6903465447831,59.736892298431485 49.66190924687544,58.88271167714265 48.709259769239,57.60980628283869 48.92253950308077,55.985161760268966 49.74722114036558,54.594988419354195 49.946282225311734,53.12105600281211 50.515028182126116,52.400833900333964 50.842057107249275,51.17812355485512 51.439240361971315,50.491391572810244 48.01254597213119,46.92368593822175 46.803960813907906,47.20843542997318 43.02180020103697,47.37593488530547 36.31059791066218,46.43793559090409 34.77498382725753,45.83493302993884 32.741717031633016,43.456399920687545 30.19657887489302,44.076162084180396 29.357678588537965,41.49659505591262 27.907376398681663,42.45137489818444 24.580212551285513,43.80815713017364 22.376321968680713,45.75118248765648 20.940238427720033,44.84667373087723 17.41401349543594,41.56359734307625 13.560759638028685,35.08099111550837 17.869010260910727,32.25 18.48041216452839,32.90331025861087 18.85009703639662,33.79113770855474 18.594161355867982,33.72413204176701 18.210257834929507,33.03732227702858 18.665254600404296,33.8581433462241 17.954322154459078,35.36576249054633" stroke="#4dd2ff" stroke-linecap="round" stroke-linejoin="round" stroke-width="0.5"><title>2025-05-12 8.9km</title><desc>1747004623000</desc></polyline><polyline fill="none" points="74.58383934784797,48.50091851307661 74.32346786104608,49.2515938411525 73.09104282353655,51.18965938038309 71.91647811641451,52.60222564109063 71.51724183664192,53.23684647139817 71.24529828378581,53.741808982609655 71.19322398642544,54.3695945270083 70.62619274848839,55.0314920259043 70.07073357666377,56.150560522706655 70.04758944449713,56.478088977746665 69.92608275066596,56.60773518401402 69.94344084980548,57.337843011577206 70.04180341149913,57.24231536922889 69.91451068458264,57.399253561743535 69.96079894891591,57.037612787149556 69.79300399075146,56.82608608182272 69.9550129158597,57.02396592452351 69.96658498194302,57.255962184197415 69.38798167795176,58.48416333960995 69.52106043786625,58.586512347243115 69.33590738059138,58.5796890852871 68.68208564707311,60.039850182420196 67.81418069108622,62.59846150159865 67.81418069108622,63.00782960138167 67.41494441131363,63.60823130217614 65.95107805222506,67.04678459320712 65.5807719376462,70.18498178952723 65.7080646645336,72.12239887603937 65.80642722619814,72.46348722416951 66.13623110947083,72.75 66.51232325707679,72.63403070114146 68.71101581229595,71.11276647005798 68.91352696868125,70.79895848517481 68.93088506779168,70.36917543074378 69.0118895303458,70.27366768443972 71.01385696220677,68.93654393054385 71.62139043139177,68.6773023449714 71.88754795122077,68.950188194769 72.79016910545761,68.60908069657671 76.97925702639623,66.65108768594655 77.37849330616882,66.23492099725263 78.61091834367835,65.93473347056715 79.02751272256137,65.66183446921059 78.99279652431142,65.54585203318857 79.20109371372382,65.32753157035404 80.49137908164994,64.78854966574363 80.71703437023098,64.61116220056283 80.49137908164994,64.1608686839827 80.37565842087497,64.1813366414026 80.41037461909582,64.27003104621326 80.49716511470615,64.1404007198471 80.56081147814984,64.29049896793003 80.69967627109145,64.33143479125647 81.4055723019701,63.99712478348374 81.48657676455332,63.86067120569351 81.35928403766593,63.41037228732239 81.52707899580128,62.816791488188755 81.45764659933047,62.734917832505744 81.35928403766593,62.878196659625246 81.42871643413673,62.88501945272583 81.49814883060753,62.63257561224236 81.37085610374925,62.30507938224764 81.15098684822442,62.127684875154955 80.71124833720387,61.98440432908683 80.1210729671293,61.43174772020211 79.82019924905035,61.43857067105273 79.41517693622154,61.74560268973437 78.86550379745313,61.759248522270354 78.65720660798252,62.025341661461425 78.74399710359285,62.35283935591724 79.22423784591956,62.51658756019242 79.21845181286335,62.59846150159865 79.3226004075841,62.571170199720655 79.21266577983624,62.58481585216214 79.53668363008182,63.03512071280784 79.67554842302343,63.14428503936506 79.924347843742,63.13063950896685 79.9879942071857,63.34896763825964 80.3988025530416,63.62869944040358 80.71703437023098,63.2875629289083 80.78068073367467,62.89184224509518 81.24934940988896,62.85090547975415 81.09891255086404,62.70762659015236 80.98319189005997,62.37330790489068 80.75753660150804,62.28461081095156 80.77489470061846,62.03216454758876 81.27827957511181,62.236850785207935 81.46343263238668,62.48929622258947 81.53286502885749,62.82361428798322 81.37085610374925,63.39672681497541 81.39400023588678,63.669635696787736 81.90317114340723,64.20180459215408 83.70841345188092,62.88501945272583 83.87042237698915,62.50294189287524 83.23974477566662,57.48113420153095 83.28603303997079,55.16796486590101 83.47118609724566,53.134488708583376 83.3612514694978,51.756054515240976 83.37282353555202,49.504091698607226 84.00350113693275,47.06096152100508 86.32948641901021,43.6349589515703 86.90808972300147,41.928712331886345 86.72293666569749,41.785385495313676 86.75186683094944,41.66935876786374 87.04695451594307,41.04144568247284 88.4124583133962,38.95973217819119 89.19357277380186,37.32843936889549 89.14728450946859,37.191927579620824 88.38352814820246,36.6868313664163 88.2099471569818,36.4411074081836 88.51082087508985,35.69027821569034 89.4192280623538,33.9906406277114 89.39029789716005,33.84046962206412 87.83964104246115,32.64591467765422 88.0768683970673,32.46843599447311 87.79913881115499,32.7278277460282 87.84542707545916,32.64591467765422 87.7412784807675,32.65274077077265 87.70077624949045,32.73465383020812 87.88014327370911,32.76878423992457 87.59662765476969,32.427479303671134 87.95536170323612,32.34556584153688 87.96114773626323,32.25 88.06529633101309,32.29778293904383 87.99007790148607,32.33191358740805 87.98429186842986,32.256826136384916 88.05372426490067,32.32508745923042 87.97850583540276,32.27730454108314 88.04793823187356,32.33191358740805 87.97850583540276,32.372870340856025 87.94378963718191,32.25 88.00164996756939,32.359218092686206 88.02479409970692,32.256826136384916 87.9380036041257,32.28413067448855 88.01900806667982,32.37969646382044 87.95536170323612,32.2909568071409 87.95536170323612,32.37969646382044 87.59662765476969,32.482088218752324 88.23887732217554,33.11691335423893 85.30535857091309,37.990517316637124 84.96398262158618,38.09289987824741 84.79618766339263,38.03147036140945 84.2349424585118,37.519555372906325 84.53003014356364,37.376218424691615 84.22337039242848,37.499078686149005 83.8357061787683,37.123671573164756 83.65055312149343,37.19875317615515 83.67948328671628,37.42399744395516 84.68625303564477,38.46147571124675 84.75568543211557,38.775446002629906 83.75470171621419,40.358924304440734 83.80098998054746,40.06543782040171" stroke="#4dd2ff" stroke-linecap="round" stroke-linejoin="round" stroke-width="0.5"><title>2025-05-11 17.9km</title><desc>1746934812000</desc></polyline><polyline fill="none" points="128.7730325302109,32.25 129.70524789090268,36.18576417805161 115.7220174826216,40.6248958845099 115.17822518898174,41.76899440548732 126.98628642247058,62.95713688261458 128.30692484998144,65.70282242266694 128.03502870327793,66.43500220862916 129.82177481078543,69.180665063177 128.96724406373687,70.50772902270546 129.04492867714725,72.1551129455911 127.25818256940693,72.75" stroke="#4dd2ff" stroke-linecap="round" stroke-linejoin="round" stroke-width="0.5"><title>2025-05-09 1.4km</title><desc>1746749326000</desc></polyline><polyline fill="none" points="162.49565012496896,39.7300542704761 160.93691819673404,39.21300682213041 160.116532971384,39.5232354158361 159.62430183589458,39.075127327261725 158.7218780880794,39.79899385172757 157.54599259840325,38.833838033286156 156.8349920696346,37.00692603868083 155.95991449593566,36.66222420800477 156.47949180519208,34.421651055512484 155.00279839953873,32.25 153.30733560037334,32.939415018830914 151.8853345430689,34.28376899371506 151.47514193027746,33.90459294250468 151.11964166595135,34.59400352902594 150.79148757574148,33.93906351571786 150.51802583399694,34.73188542475691 149.97110235039145,34.6629444861901 150.2445640922524,34.97317856439622 149.42417886678595,36.24858140188735 149.6976406085305,35.07658984081354 150.27191026636865,34.80082634487189 149.97110235039145,34.6629444861901 152.2955271557439,34.076945762353716 155.0848369221203,32.25 156.4247994569596,34.04247520767967 155.90522214747034,36.80010499569471 156.47949180519208,36.59328378649661 157.6280311208684,39.040657441917574 158.88595513312612,39.97134272416588 158.06556990777608,40.21263095171889 157.8741466884967,40.764146050816635 159.2688015716849,44.10768103893497 158.74922426219564,47.27882872862392 164.19111292413436,46.24476312281331 165.96861424588133,46.382638776965905 165.96861424588133,46.796265296288766 165.61311398155522,46.24476312281331 166.02330659423023,45.865604693157366 169.03138575400226,47.17542235495057 172.91454248770606,48.03714086575201 174.00838945480064,48.82991934771417 175.70385225408245,51.55292249217746 174.8287746803835,54.13802540363395 172.0394649138907,56.99884236083017 168.62119314144365,57.61925630076439 168.92200105730444,58.308603368874174 170.20727124379482,58.65327621073811 168.23834670276847,57.826060615014285 170.9456179466797,58.82561245854595 174.61000528687146,58.34307067387272 179.01273932983167,59.6528248419927 179.88781690364704,60.34216646416462 185.16562852042262,60.72130356938578 184.50932034023572,72.198553431459 184.61870503681712,72.75 185.3023593914695,72.57767307420727 185.57582113321405,70.92332871677354" stroke="#4dd2ff" stroke-linecap="round" stroke-linejoin="round" stroke-width="0.5"><title>2025-05-05 3.1km</title><desc>1746429236000</desc></polyline><polyline fill="none" points="31.44379728761851,81.04784148470208 31.273033974837745,81.0 30.969454752106685,81.23123348634908 30.17888385959668,81.37475726731282 29.502155175607186,82.14021158610194 28.83175105875125,82.41928102391103 28.8570493273146,83.02525586828051 29.072084610088496,83.49567945342642 28.83175105875125,84.46840795338721 29.2365233557357,84.61989702657229 29.381988399953116,85.01855063971016 29.578049981297227,85.1142271094759 29.887953771161847,85.54476932002945 30.431866545201046,85.66436382576285 31.25406027340796,86.49354578919883 30.817665140755707,87.370552602315 30.83663884215639,87.6814882783292 30.969454752106685,87.80905116268696 30.861937110719737,88.02431291003813 31.10859522919054,87.98444968223703 31.13389349775389,88.1040392855466 30.79869143932592,88.00836762212202 30.88091081212042,88.19971079521201 32.493675432837335,88.52658729283212 32.911096864088904,88.51064213946302 33.31586916107335,88.74981899126215 33.480307906720554,89.16438992422627 33.221000653953524,89.634764985949 32.68341244707699,89.71448920425246 31.873867853108095,90.12108105658626 32.0383065987553,90.44794700235434 31.791648480313597,90.55955935321617 31.374227049032925,91.10167350891425 31.544990361842792,91.19734020031683 31.46277098901919,91.10167350891425 31.323630511935335,91.14950687384408 31.235086571978172,91.3727287352267 30.805016006459482,91.57203326121817 30.273752366687404,91.62783840892735 30.084015352505958,91.48433935199864 29.78676069690846,91.48433935199864 29.66659392125439,91.83511421370713 29.74248872694443,91.94672396349051 29.584374548430787,91.93875184544595 29.38831296711578,92.21777534167632 29.337716429959983,92.67218223602322 29.521128877007868,93.12658566150276 29.82470809976803,93.49329466862036 30.621603559382493,93.82014209695262 31.367902481928468,93.95566367506399 32.013008330221055,94.62529517937946 32.04463116591796,94.92822124245504 31.899166121671442,95.33477748336009 31.361577914765803,95.96453559060683 30.79869143932592,96.18773939667153 30.412892843800364,96.18773939667153 30.400243709533243,96.29934098584636 30.235804963856936,96.26745483886043 30.242129530990496,96.38702780203676 30.444515679468168,96.29934098584636 31.329955079098,96.43485692005925 31.633534301799955,96.26745483886043 32.873149461258436,96.63414449814445 33.03758820693474,96.80154554821274 34.18233485924429,96.85734579361451 34.264554232067894,96.953003235496 34.06849265072378,99.82265502378505 34.226606829237426,101.32916684431984 36.21884547837544,108.8770939554779 37.167530549369985,111.45926965527542 32.95536883411114,113.43567418011662 32.77828095416771,113.60302800303543 29.230198788573034,119.37246274567224 28.755856253090315,120.76692458213074 28.787479088787222,121.42828649848889 28.477575298922602,121.44422283962558 28.679961447400274,121.13346341866054 28.458601597492816,121.5 28.73688255166053,121.47609550907873 28.863373894477263,120.60755916716153 28.724233417393407,120.59959088521282 28.768505387357436,120.16133373717821 28.7748299545201,120.76692458213074 29.015163505799137,119.44417872203121 31.437472720484948,115.6271750986707 31.431148153322283,115.30841633986711 31.15919176628813,115.08528419371578 30.59630529084825,114.98965587520433 30.4887876494613,114.7426153417291 30.336998038110323,114.83027500314711 30.355971739511006,114.94981069716232 30.45084024660173,114.9259035775467 30.47613851519418,114.84621310955117 30.3243489038432,114.85418216113976 30.318024336680537,114.91793453552964 29.850006368302274,115.38810618950083 28.97721610296867,115.58733034711622 28.755856253090315,114.61511014935968 29.034137207228923,114.2883768480533 28.913970431574853,114.28040772076201 28.768505387357436,113.65881250617531 28.50287356748595,113.6986585478553 27.984259061980993,113.1647193746503 27.832469450630015,113.34801246619827 27.990583629114553,112.78219284485749 28.287838284712052,112.25621485478769 29.293444459995953,112.08088782586128 29.350365564227104,111.81789631471838 29.533778011304094,111.67444591008098 29.198575952876126,111.57084262516946 29.17960225144634,111.13251904099525 28.97721610296867,111.08470172755551 28.755856253090315,111.2281535526854 28.69893514883006,111.3636355147064 28.81910192448413,111.49911716851057 28.983540670131333,111.3636355147064 28.781154521624558,111.48317816641065 28.64833861173247,111.13251904099525 28.559794671775308,111.37957454878051 28.047504733403912,111.79398793794098 27.870416853489587,112.3837250970937 27.845118584897136,113.32410470364266" stroke="#4dd2ff" stroke-linecap="round" stroke-linejoin="round" stroke-width="0.5"><title>2025-05-04 11.1km</title><desc>1746326389000</desc></polyline><polyline fill="none" points="86.29637813943191,120.3701096198065 86.28627838842658,120.39409749477181 86.22063000688286,120.38147230485902 86.18730082855836,120.37389718297709 86.13680207352445,120.33223390627154 86.12973224781672,120.31960863536733 86.19639060446207,120.20724299615813 86.26910881171352,120.07720022872218 86.245879384398,120.13780290164414 86.34788686957108,120.11760205298742 86.33071729285439,120.21229316534846 86.38727589849441,120.29940816754515 86.45696418044463,120.41934782501448 86.49029335876185,120.75390845961101 86.62361007205618,120.79052005094672 86.80843551547878,120.85995544588786 86.80540559018118,120.98115057386804 86.95488190508331,121.11496842525958 86.92458265206005,121.12380538782963 86.9558918801813,121.10865630417902 87.05385946494425,121.0606840489836 87.11445797098713,121.11496842525958 87.05183951474464,121.04932216411726 87.60631584501971,120.8347062692028 88.13756274798288,120.78673265139332 88.48095428221495,121.0758332079804 89.05462013940996,121.13516718495248 89.78079223680106,121.09098234318208 90.29688951325443,121.48863863261886 90.42010647553616,121.5 91.13516884682394,121.34346442700735 91.16041822434272,120.99251253904094 91.16647807494519,120.51908598315458 91.19071747736234,119.99387093159021 91.08265014158678,119.54691059381639 90.84732594313027,119.23251082544812 90.83015636641721,118.8259224294543 90.7443084828592,118.47740444208557 90.45646557916189,118.1074059791199 90.35445809399243,117.62247181427756 90.8129867897078,117.44819263946738 90.90186459856704,117.38504723320875 90.28476981204585,115.77848893893861 90.0494456135857,115.05721881671889 89.92420870109709,115.00290031653822 90.3312286666769,113.78507493075085 89.73534335727163,112.37503495112014 89.5040590592107,111.86074855986499 89.03543061249366,111.01154726811365 89.3525627941126,107.91613042471454 89.06774981571652,107.79982749488136 86.9851811580993,107.766959020787 86.95185197977844,107.35482939191388 85.641914274187,107.49895034922156 85.3762908227036,107.33713017813443 85.18742547887814,106.5027017172115 84.92887185310246,104.50863024063347 84.61880949718761,103.27176939362926 83.22706380844102,102.97075055245568 82.71399645729616,102.67098712940424 82.06357249245411,102.52552893536176 81.01622831303757,102.38892271407349 80.46276195786413,102.73422913592549 79.96383425812382,102.60395014821279 78.72762473488183,102.45343144938579 78.30242521749096,102.44963682988327 77.65604115305541,102.30796996309527 77.27528054009599,102.3686845902439 76.85614087331123,101.87916198945095 76.18450743135327,101.7235720653589 75.2795697411384,101.49713995205457 75.10989392422198,101.58568945837942 74.95435775871374,101.55912469214945 74.85639017394715,101.58568945837942 74.18677668219607,101.36557917894152 73.70703850936479,101.22136626234715 73.4828240370116,101.12395806782479 72.7455422135099,100.82919738681721 71.95776163497794,100.79883525797777 71.32046734644973,100.90636736583565 70.87708827724782,101.09359687029792 70.53167679280887,101.59833932125548 70.36907080159654,102.15997645269363 69.97821043762815,102.59130160877157 69.85802340064402,102.86956563199146 69.79944484481166,102.81897277235566 69.72975656286144,102.83162101222933 69.84994359984194,102.88727306995588 69.42777400775594,103.83710283621895 69.43383385836205,104.07486178120234 69.55301092023728,104.19626833658913 70.03577901837343,104.06853848111041 70.62358452697299,103.82192653372749 71.22653966207872,104.37963991506422 71.35076659946571,104.29364540336337 71.36086635047104,103.89527844052463 71.79515564376561,103.74098584918374 71.94665190887099,104.0660091599093 71.96786138598327,104.28985151012967 72.05774916994778,104.38090453450059 71.93554218276404,104.5301284599991 71.84262447349829,104.59841660270831 71.7153676108137,104.81718831296712 71.93150228235754,104.91455909209526 71.89413320363747,105.10929769266386 71.89110327832896,105.11182673945586 71.93251225745917,104.91329454284278 71.71334766061045,104.83615672389169 71.83757459799745,104.59841660270831 71.98503096269997,104.66038134955943 72.22540503665732,104.82351112076594 72.38296115236881,104.94237913361667 72.59707587371304,104.95628912419579 73.02328536620189,104.88420986409983 73.06166442002723,104.80960093812337 72.8536095492891,104.79442617047607 73.26062951486529,104.74890172384858 73.25557963935717,104.70084790749024 72.97379658626596,104.68820212643186 72.9515771340557,104.65152926731389 73.28082901687594,104.63129590586414 73.35960707472987,104.6199146213421 73.4333352570793,104.63129590586414 73.47575421131114,104.74384343869951 73.53635271735402,104.68314380935044 73.62321057601002,104.68061464981292 73.54645246835571,104.80201355729423 73.51817316553934,104.98410904499269 73.80601606923301,105.483589383869 73.68683900735414,105.72004318078052 73.46464448520055,105.5455484274762 73.2909287678849,105.39254679969054 72.97985643687207,105.52531694691788 72.9475372336492,105.66440751625669 73.0091457147937,105.91729430724354 72.8889586778132,105.9375249632858 72.87481902640138,105.8780972900704 72.86673922559203,105.9210875584904 72.79705094364908,105.87683286750053 72.68999358297879,105.87430402186783 72.27792374189812,106.20684151812657 72.26479406558428,106.17649636777878 72.27186389129201,106.1246565144711 72.28297361739897,105.90844338184434 72.2860035427002,105.91097221850305 72.33347237243652,105.77062077833943 72.30216314431163,105.70107651312082 72.34660204874308,105.66187861477101 72.29004344310306,105.71877873743051 72.33650229773411,105.76429859318887 72.30014319410839,105.96913527816014 72.2637840904863,106.09051792190985 72.27792374189812,106.20810589731173 72.62333522632616,105.92867405650213 72.78998111794499,105.87177517556756 72.81624047056175,105.95396233998326 72.84552974848339,105.9628132234966 72.85057962398423,105.94890468860558 72.84552974848339,105.955226752415 72.96773673566713,105.93878937787485 73.0030858641876,105.7908517428923 72.98793623768142,105.51520119068482 73.33637764741798,105.38116641606757 73.4595946096997,105.54175502811177 73.7615771648052,105.74912533187216 73.99387143796412,105.68590315206711 74.07971932152213,105.51646566079489 74.36453229991457,105.60371369700351 74.64934527830701,105.79338061047383 74.7937717177083,105.60371369700351 75.08464454670684,105.58095341603985 75.49469443758062,105.54681289359633 75.81182661919956,105.79590947738234 76.14814832772754,105.87936171247475 76.08754982168466,105.84775110255214 76.10471939839772,105.71877873743051 76.17642763055119,105.59992032058472 76.21581665947451,105.49623411906214 76.5672879945123,105.1484978432527 76.97430796008848,105.05998114721388 77.3550685730479,104.76913483784665 78.78620329072146,104.51115944540652 79.68407115523223,104.22156117601298 80.48397143497641,103.81686776090737 80.67586670411038,103.17944108735264 81.65049267626819,102.97328016181746 81.64342285056773,101.2934729911558 81.6424128754661,100.85576417085576 81.6565525268743,100.47749684721111 81.16469465284172,100.11819235515577 80.5950686960532,99.75760919826371 80.51225073780006,99.49317294849061 80.40822330242736,99.09081100696585 80.04867216658386,98.67830925728595 80.0183729135606,98.44547836285801 80.07291156900101,97.55712603727352 80.05877191758555,97.20910236894633 79.59721329656895,96.49909497238423 79.3103803679769,96.14343873325106 79.02859731488934,95.95611271251255 78.94173945622606,95.64473840190658 78.86599132368065,94.25988640043215 78.54481924165884,94.00162863962942 77.8519763225886,93.9636489710183 76.2602555639096,93.73196973767153 75.34622809778375,93.5268719786618 75.13211337644316,93.11792941298245 74.94728793301329,92.81026144367024 74.46451983488441,92.8039307234385 74.08880909742948,93.08121235478939 73.63634025232022,93.55599106328282 73.20205095902566,93.28631963883345 72.94652725854758,92.91535078941888 72.20924543504952,92.07333755268246 71.94665190887099,91.9467126289992 71.11645237610355,90.49167231033698 70.87708827724782,89.34293365515623 70.6548937550906,89.09214330058876 70.42865933254143,88.72481225484898 69.33586627359546,85.7919924320131 69.35808572580936,85.62727183067 69.83277402313615,85.60319704409176 70.03981891876901,84.95822366661469 70.20141493488336,84.75040374300261 68.78542984371961,84.72379232966341 68.46526773679943,84.65409542062844 68.19964428531966,84.2599815409958 67.93705075914477,84.2054886355354 67.50074151564331,83.3475013329853 66.89071655482985,82.74927269113596 65.65450703158785,82.24100247334263 64.94550451090981,82.30437928425454 63.84160172585689,81.01901555153381 63.83756182545403,81.08113275670712 63.825442124245455,81.07479428484567 63.82645209934708,81.06972350433534 63.83150197485156,81.0874712243749 63.79716282142908,81.09127430295393" stroke="red" stroke-linecap="round" stroke-linejoin="round" stroke-width="0.5"><title>2025-05-03 98.8km</title><desc>1746244765000</desc></polyline><polyline fill="none" points="122.37234279888435,81.19955704319091 122.05453885765019,81.30942351732756 121.9902639032407,81.31839214607498 121.61800479230078,81.15583427372621 121.37608100556827,81.0 121.2011102963479,81.01569566843227 121.1207666033406,81.13789666187131 120.93597610942379,81.22870543056251 120.82438764690596,81.33184507134865 120.69762315349362,81.48879428478722 120.41731293566045,82.14458626789383 120.34678902735322,82.26677094868592 120.28519219604641,82.3003994501305 120.22270265703992,82.37438168262725 119.7227863449807,82.41473535484783 119.4835406813545,82.45060512407417 118.90149526088862,82.47078180240987 118.6774256281642,82.26564999633683 117.12054339918541,82.00446404806553 116.53314173251783,83.01217136430841 116.15731179077557,83.48852068463293 115.9876973277569,83.76310986937278 115.92163695794807,83.88863338539068 115.6752496327208,84.48932728716954 115.4360039690946,84.74147153407739 115.27710199847206,85.1179929553482 115.00928968844528,85.6054288406458 114.89502310283206,85.77238318311538 115.0083969807456,85.95838212911258 114.8789543642306,86.19143527984215 114.77629297871681,86.42112080834522 114.82182107142216,86.72586466942084 114.79503984042094,87.4070171628282 114.78164922491851,87.4551887016496 114.32726100556465,88.12060005633248 114.16746632724971,88.42528275085624 114.05052161853382,88.49025043677193 113.70593644629844,88.77587831548317 113.45865641336786,89.07941738441878 113.15959933383056,89.32918491664259 113.26047530394135,89.6058246623079 113.24708468844256,89.6629434843826 112.9239245010067,89.70214245312218 112.83554643869866,89.68422294706488 112.81590686929485,89.8186183184398 113.09532437942835,90.47488508587958 113.77467493920267,92.40419414457574 113.95321647922538,92.72999463047381 114.1585392502493,92.93711213896859 114.32726100556465,93.22706814831872 114.49955359168234,93.46887715780395 114.5700774999932,93.64799049546036 114.67988054710804,93.75881497785304 114.4076046985756,94.07560828593614 114.59328790019572,94.38007691703024 114.67541700860602,94.55021638979906 114.9557272264392,95.0315135137007 115.15926458206013,95.29453644395107 115.22353953646598,95.33594782151795 115.35030402987832,95.3807166508559 115.61811633991238,95.60567644057664 115.82254640323663,95.75340798160414 116.20551800657995,95.98619185418465 116.22694299138311,96.44278781626781 116.30550126899107,96.54798046099404 116.46975948581166,96.63526698432088 116.7027561955365,96.65540990060344 116.85183838145531,96.71695740399355 116.95092893616311,96.40138184297211 116.97235392096627,96.37788106550124 117.05626844477592,96.38571466522535 117.09376216818418,96.35773749013242 117.13929026088954,96.30737834240972 117.2214193692962,96.15853733573567 117.31515367780958,96.0533398608386 117.58296598783636,95.90113694922184 117.74543878925397,95.85189424594228 117.8659543287722,95.84182183959001 117.89719909827181,95.87763478559555 118.19000722391138,96.07684153756873 118.52120178064433,96.43271611163709 118.92559836879082,96.75500472817657 119.53174689716252,97.01461720872157 119.98077887031468,97.28429244978906 120.58603469098307,97.05266319783641 120.65923672238932,97.06497215777927 120.86991573961132,97.05266319783641 121.05559894123508,97.0862330465252 121.1698655268483,97.17575199356907 121.26895608156337,97.35814392505745 121.35733414387141,97.58640805684627 121.38857891337102,97.7341051047888 121.57515482269082,98.20403315250951 121.5519444224883,98.42891808167042 121.55640796099033,98.61352065871415 121.52516319149072,98.77798139017796 121.54212463778822,98.89321388122698 121.61621937689779,98.99613866676009 121.67781620820824,99.25232646243694 121.66710371580484,99.73783146260212 122.16612732016074,100.04097833461037 122.19915750506334,100.91568094472314 122.28932098277801,101.25010224423568 122.31253138297689,101.42122242992446 122.30538972137947,101.5285901973748 122.36073759878491,101.671745108717 122.35091781408482,101.71088860958571 122.31342409067656,101.7332562433512 122.30628242907915,101.80035879111892 122.32502929077964,101.86410572033219 122.40001673758889,101.96475779210687 122.43751046099351,102.09895869865431 123.07044022036644,102.31926725489757 123.13828600557463,102.38972005406413 123.23737656028243,102.58541920733114 123.24094739108477,102.74533002458338 123.34539419199427,102.8560357496799 123.39627853090497,102.96338537776046 123.41770351570449,103.02600536755199 123.41413268490578,103.06178801158057 123.39627853090497,103.07856107407406 123.41413268490578,103.17919875344614 123.69801373353766,103.566083617593 123.70426268743176,103.76287378148118 123.78371367274303,104.24476680739645 123.74889807244108,104.39793821573494 123.91226358155836,104.46613773529862 124.06402389057621,104.49297018309244 124.37200804711392,104.49408819991004 124.98440552938337,104.54775283420622 125.33434694782409,104.55334288078575 125.34327402482086,104.53545471878624 125.37987504052944,104.53545471878624 126.3038275101353,105.27889970787328 126.3386431104409,105.28672509864555 126.47969092705534,105.9496213270595 126.87873126900013,107.44513993502369 126.92247394630613,107.84524155618783 127.08673216312673,108.38389612284209 127.12511859422739,108.66215036380618 127.18493001013485,108.75378229756188 127.29651847264904,108.86440977996972 127.3456173961531,108.88899346949984 127.48309438196884,108.91692939406857 127.57772139817826,108.91692939406857 127.63574739868636,108.94374779531154 128.3633041742687,108.8565876820303 128.38383645136855,108.90687247179358 128.38562186677154,109.20187058280317 128.41329580547608,109.25327072196887 128.47935617528128,109.27450112357292 130.24423929838304,109.27003156974388 130.39332148430185,109.28790977096287 130.5593651165218,109.33037034823064 130.62988902482903,109.32031391487999 130.76379517984242,109.37059596272684 130.85663678065612,109.38623920586906 131.07088662867682,109.36724383545061 130.88073988855467,110.41751240594931 130.92805339665938,110.44656054466759 131.05035435157333,110.45438118045331 130.93965859676246,110.78731015002995 130.9476929660632,110.82417732185786 131.2940635537052,110.90573140705874 131.42707700101892,110.97276157666329 131.522596724928,110.99063619935532 131.58954980244016,111.02191669871263 131.0887407826849,112.02618304138377 131.1003459827807,112.04070437718929 131.29049272290285,112.05187461863716 131.3128104154057,112.15799118108407 131.35119684651,112.17474630682045 131.41547180091584,112.24846846812943 131.4226134625169,112.28421231644279 131.47617592452298,112.30320117479096 131.4949227862271,112.34676368972123 131.71720700355218,112.26745740623937 131.46457072442354,114.97685626431576 131.34851872341096,115.85448978422028 131.33780623100756,116.0275493309764 131.37887078521453,116.2854573555851 131.68060598784723,117.30696436358448 131.73863198835534,117.4721802176091 131.866289189471,117.74009100800868 131.84129337386912,117.77804435533108 131.39136869301365,117.95106482581559 131.5100988171289,118.48238314706668 131.66632266464876,118.91321779628015 131.6788205724515,119.27483421053239 131.90556832827497,119.76142961374535 131.97341411348316,119.86745015547967 132.09928589919582,119.98462921992723 132.14124316110247,120.08618310603379 132.12249629939834,120.73565297384812 132.18409313070515,121.38842076416222 131.7002455572474,121.47545269340026 131.29049272290285,121.45090531613187 131.06820850557415,121.5 130.8227138880502,121.05925351027145 130.62364007092765,121.06036935294105 130.34868609929254,121.02577816232952 130.23888305218134,121.05702182450113 130.12729458967078,121.00346119067581 129.81216877153201,120.99453438565888 129.5729231079058,120.93874164250883 129.31046704407345,120.92088788758429 128.9408860562362,120.8483566237046 128.5713050683953,120.88964372649662 128.45614577507877,120.99899778933468 128.49185408308404,121.02466231513608 128.5061374062825,121.00680874014688 128.52042072948825,121.01015628830737 128.50703011398582,121.00569289047053 128.52488426798664,121.01238798634859 128.52845509878898,121.04140000772622" stroke="red" stroke-linecap="round" stroke-linejoin="round" stroke-width="0.5"><title>2025-05-03 66.9km</title><desc>1746236322000</desc></polyline><polyline fill="none" points="185.24254732509144,81.4868114523415 184.49868276331108,81.0 183.67216658359393,81.81135197979165 183.1487063363893,81.2271787765203 177.41819415672217,84.11557958339108 177.6385984715307,85.34882085656864 176.92228444910143,87.78283474192722 177.11513822420966,88.46435507532442 175.95801557262894,90.67117215090548 173.61621973,92.03419808161561 172.18359168514144,93.52702886881889 172.04583898861893,94.27344146452378 171.54992928064894,94.20853609553888 170.14485177514143,95.7338085398369 168.5193699550582,95.7987135774747 167.91325808991678,96.77228744939202 167.00409029214643,97.06435899221106 162.37559968570713,102.02953152541886 160.39196085429285,102.22424249211326 159.5654446745757,101.83482043194817 158.05016501166392,98.39490351767745 157.0583455960732,98.78433006253908 155.6532680905657,96.51266806054628 153.89003357372712,95.50664079710259 148.65543110202998,101.8997241439065 148.46257732668892,103.87928058419493 148.7105321806157,104.69057041741326 149.8125537536107,105.20979475430795 149.86765483219642,108.45492641310557 151.32783341652248,111.31061311246594 151.19008071976714,111.89472748347907 151.0798785625957,111.53776883688988 152.5676076861564,110.43443941450096 154.2206400455907,107.67609803008963 156.5073348096339,107.35158560448326 157.96751339372713,109.10394851461751 159.15218658465892,112.57619280615472 160.0338038430782,113.61461316581699 162.7888577756239,114.19872303199372 165.35105793271214,115.529191241425 168.27141510113142,115.00998484026059 169.26323451672215,115.85369478387292 169.4560882920632,117.47620720919804 168.40916779777035,121.5 170.36525608971715,119.39076053746976 171.6601314380532,119.22851073124912 173.12031002214644,119.8775094273733 178.07940710068215,116.6000515940541 180.99976426910143,113.7444154569821 182.26708907808643,113.35500841430621 182.62524608918466,109.81787119759247 185.46295163966715,110.10992998533766 186.53742267331108,108.876790939481 185.15989570715465,99.98505871288944 183.67216658359393,96.25304844594211 184.93949139257893,94.50061014518724 185.02214301051572,93.5919343859714 183.0660547184525,90.2492819117906 184.03032359469216,85.96543958361144 185.04969354975037,83.49895703716902 185.68335595424287,83.04460276747704" stroke="#4dd2ff" stroke-linecap="round" stroke-linejoin="round" stroke-width="0.5"><title>2025-04-28 5.2km</title><desc>1745795058000</desc></polyline><polyline fill="none" points="26.151673174113967,168.4421113765129 26.283244714606553,170.25 26.195530354278162,169.42353833452216 25.625387012492865,169.26857645253767 26.261316124582663,169.34605740608822 25.954315863433294,166.89248161755677 27.467388578457758,165.85938950185664 26.436744845006615,165.032912577939 25.88853009324521,163.92232968847384 25.73502996272873,162.3210149964434 26.45867343514692,161.70114834984997 27.313888447824866,159.9448507430352 28.958532703341916,158.0852273738128 32.99339327646885,155.34742205872317 34.879252022714354,153.51359143630543 36.32653896743432,152.76455795906077 36.3923247376224,150.1300076735788 38.2562548937276,150.6465884616482 39.37461298739072,149.74257134608342 38.21239771367982,142.27784150885418 37.15982539020479,139.4107030468731 38.14661194337532,138.14501831047528 38.190469123539515,137.21512318993337 38.08082617318723,136.5693605496199 36.72125358879566,135.0453537637659 37.0940396200167,132.07480398232292 38.14661194337532,129.75" stroke="#4dd2ff" stroke-linecap="round" stroke-linejoin="round" stroke-width="0.5"><title>2025-04-27 2.3km</title><desc>1745711220000</desc></polyline><polyline fill="none" points="61.687825466644426,129.81931260013516 62.518838293792214,129.75 63.045329864187806,129.8886249572406 63.94054898041213,129.92544704810098 64.17352608647343,130.03374691781755 65.03755929086765,130.61422410710657 65.18981991923647,130.8546406381247 65.65393966597912,131.88341709659835 65.66861538918602,132.06317675249193 65.77317991710152,132.1779621838723 66.08320457005902,132.7345537891615 66.34369865715416,133.02475487189986 67.42786770979001,133.96246508034892 67.89932531813247,134.4410483050833 68.0002209152517,134.61861922593198 67.81677437503822,134.76587195122192 67.61314871540526,134.81567777198507 66.94723777443869,135.17081129368125 65.96212985352031,135.54326155222952 65.31456356657145,135.8702324525475 64.26341489118204,136.6302565133883 63.76444030181301,137.10660998663843 63.487436026094656,137.43788541389767 63.219604077385156,137.82544897202024 62.718795022621634,138.64601938966916 62.63807854492188,138.84087280116728 62.63624407952739,138.9794340599492 62.30787477255217,139.84109011507644 62.17028986739024,140.03809665798508 61.99601565419289,140.49055481172581 61.75386622110818,140.94733221803835 60.81278546983958,142.26781426088746 60.449561320230714,142.7115630452663 60.15604685589642,143.1271626442831 60.16888811370882,143.16179555046983 60.25694245300838,143.10118792489266 60.801778677428956,142.36305874061873 60.88432962053048,142.33491837383917 60.95770823661587,142.36522338255782 61.7336871016887,142.87174309047623 61.99601565419289,142.99512413376033 63.55347678056569,143.94967780340448 68.87526091204927,147.87563478902848 69.51732380278554,148.4079814018296 71.65264153081807,149.7798982152908 72.38826215705922,150.100142726571 73.21560605340346,150.3186849968588 73.69256705794396,150.36628794404714 74.8868040347079,150.71032402704077 75.13262239858886,150.75359858323463 75.15647044881189,150.72114267494726 75.84439497460698,150.9548240284439 76.36721761419176,151.21879409557914 76.78547572588286,151.50223345070117 76.82033056851651,151.45246958242933 76.84784754955035,151.46328782529235 77.14503094468819,151.69046956158127 77.21474062996276,151.66450606635226 77.22024402617535,151.63637890814607 77.50642062890256,151.7532145346795 77.65501232647512,151.915485095873 77.84946565909195,151.95010264369557 77.97054037563066,152.017173970562 78.01823647608398,152.07559074779056 77.99438842586096,152.04746417283968 78.00356075286982,152.15780666116734 78.08060829975147,152.1166987471006 78.1393111926227,152.1340073528845 78.88593861127447,152.54508229902058 78.95564829654904,152.61215161304244 78.95748276195081,152.58402579930043 79.13909483676252,152.6467679444013 79.31887244616519,152.66623960423567 79.55735294843907,152.74412605233738 79.53900829441409,152.75927060393406 79.83252275875566,152.82201219445778 79.91323923645541,152.8847535864461 79.96827319850854,153.0837939297635 80.02147269516718,153.13571716897422 80.24344300881785,153.12489983868727 80.64519093188574,153.37802382077643 81.97517834839527,153.79556315714945 82.21916224687448,153.91454944117322 82.13110790758219,153.9210395815826 81.97701281380432,153.87993532309338 81.98618514081318,153.85830146861554 81.85593809726561,153.94050999007595 81.60461633717205,154.46404047268334 81.4413489163926,154.70633089362855 81.02309080471605,155.16494394316578 80.85248552232224,155.5197128007785 80.73507973657979,155.6473415083983 80.67821130912489,155.76631668263508 80.47275118409016,155.96749126273608 80.17740225434682,156.35685562148137 79.67475873418152,156.82408276344177 79.44911948971276,157.15502866412317 79.44728502431099,157.21559332933975 79.4766364707466,157.2112672879539 94.73205075455917,170.18299025867964 94.7540643393877,170.17434382398278 94.73388521996822,170.2024447229869 94.77240899341268,170.2154143552798 94.76507113179832,170.18299025867964 94.8439531440963,170.25" stroke="#ffc800" stroke-linecap="round" stroke-linejoin="round" stroke-width="0.5"><title>2025-04-20 36.9km</title><desc>1745145130000</desc></polyline><polyline fill="none" points="113.44497584007331,131.23802826468454 113.13788128539454,131.18775743086007 112.97580360379652,131.3486240027196 112.61752662339131,131.3486240027196 112.83931713507627,131.22797410012572 112.87343875225633,131.02689057882526 112.56634419763577,130.63477645284001 112.61752662339131,130.4638543896508 112.48957055894425,130.65488491004362 112.73695228353608,130.95651124290453 113.20612451975467,130.92634865396394 113.07816845536581,131.4491654677622 112.50663136751973,131.52959856105008 111.7986078110116,131.2078657676684 111.9862767055165,130.30298627648153 112.31043206874165,129.75 113.30848937132396,129.94103199717938 113.85443524629227,130.80569819962693 112.83931713507627,131.92170888737746 112.32749287731713,132.0725201080204 112.37867530310177,132.2434391936622 112.19100640856777,132.04235788359074 111.57681729929755,131.95187115119916 111.619469320809,132.32387159507925 112.13982398284134,133.14829967066908 112.88196915655863,135.64164711030753 113.21465492408606,136.16443723007978 123.41701846179785,139.4217551623442 124.32977172144456,139.55244762060465 125.04632568228408,139.4720215142952 125.23399457681808,139.7233528638826 126.59885926413699,142.84985768431943 128.7058691251732,150.33896462912526 132.33129095088225,159.73718623294553 133.42318270073156,163.50625792107166 133.31228744491818,163.79772639548173 130.30105472845025,164.77263151051739 130.4460716015019,165.44601357539796 133.0990273375064,170.0289015030794 133.03078410311718,170.25 132.80899359140312,169.88820218425099" stroke="#4dd2ff" stroke-linecap="round" stroke-linejoin="round" stroke-width="0.5"><title>2025-04-16 7.1km</title><desc>1744770713000</desc></polyline><polyline fill="none" points="154.12096774205565,136.48836733592907 153.83064516098239,137.58642347709974 154.75,139.11149705725256 153.68548387102783,140.2705495612463 154.60483870957978,140.3315522427729 178.55645161285065,162.77998412854504 179.4274193549063,161.98698773112847 178.75,161.07199017182575 179.5725806450937,158.87598852653173 181.26612903224304,157.77798373214318 179.91129032266326,163.26798122518812 182.62096774205565,164.12197488552192 184.55645161285065,160.0959907483193 184.94354838714935,160.52299075352494 184.8951612901874,158.26598618988646 186.7822580644861,158.26598618988646 186.54032258037478,156.74097677241662 187.75,156.86297771378304 186.58870967733674,166.98894188716076 187.16935483878478,167.23293824505527 186.29838709672913,168.45291807397734 186.87903225794435,166.98894188716076 186.05645161261782,165.4029623727256 185.0403225806076,166.92794277722714 183.29838709672913,166.1349536042253 179.47580645163544,166.43994960346026 170.5725806450937,157.53398230700986 169.41129032243043,157.89998439568444 170.2822580644861,157.16797992412467 161.0403225806076,148.50583764814655 157.16935483855195,149.60386480455054 155.4758064514026,148.01782472853665 155.5725806450937,147.04179732009652 155.08870967733674,148.6278407961654 153.29838709672913,149.35985899859224 151.99193548387848,149.17685455840547 151.75000000023283,148.3228328647092 150.92741935467348,150.57988672039937 150.58870967733674,149.8478704795125 148.8467741936911,150.5188854119915 149.91129032266326,147.89582141701248 148.4596774193924,145.33374432026176 147.25,138.98949135869043 148.02419354836456,138.44046531131607 149.814516129205,139.11149705725256 154.2661290320102,137.46441736997804 153.54032258084044,134.7192713157565 152.33064516121522,134.10923661122797 153.49193548387848,133.98722957231803 152.4758064514026,131.54708192602266 153.44354838691652,132.34013134572888 153.58870967733674,134.29224710850394 152.81451612897217,134.90228156762896 153.05645161285065,132.15712006384274" stroke="#4dd2ff" stroke-linecap="round" stroke-linejoin="round" stroke-width="0.5"><title>2025-04-07 2.7km</title><desc>1743986187000</desc></polyline><polyline fill="none" points="33.98654159868602,199.10414662305266 30.980424143606797,198.85426275496138 32.66517128876876,197.68813538062386 34.614192495821044,197.6464878935658 36.03466557909269,196.14717463956913 35.60522022843361,195.56410642087576 34.349918433930725,195.77234519596095 29.493882544804364,190.35809169753338 24.93515497550834,190.73292767093517 23.1182707992848,191.5658948822238 22.094208809081465,192.85698964784387 20.673735725926235,191.27435661220807 19.847879282198846,191.02446644881275 18.658646003343165,191.60754318413092 15.751631321501918,189.3585268916504 12.25,191.23270826568478 14.099918433930725,189.73336407047464 16.11500815663021,189.27522967933328 18.361337683629245,191.39930161854136 20.11215334420558,190.98281806879095 22.094208809081465,192.815341513342 23.28344208805356,191.52424657469965 25.36460032640025,190.69127925182693 29.824225122341886,190.4413886195689 35.14274061995093,196.98012734026997 34.349918433930725,197.68813538062386 31.575040783034638,197.72978286223952 29.427814029273577,199.0208520226879 35.2418433931889,199.14579391485313 40.59339314850513,197.85472527352977 41.914763458422385,201.43638637082768 42.97185970633291,201.89450283633778 47.893964110757224,201.72791510881507 52.7169657421764,206.1008133656578 52.75,206.55892295602825 50.7018760193605,207.4334939357359 48.026101141935214,207.76666318555363 47.82789559534285,208.22477032066672 48.224306688294746,207.72501704879687" stroke="#4dd2ff" stroke-linecap="round" stroke-linejoin="round" stroke-width="0.5"><title>2025-04-04 2.7km</title><desc>1743741381000</desc></polyline><polyline fill="none" points="94.34459779108874,197.25129223408294 92.3901101083029,198.52354747691425 91.72146958531812,198.34179708329611 91.05282906233333,199.37171441380633 89.14977526618168,199.91696322520147 88.7897380614886,199.5534641360282 89.66411413007881,198.06917127085035 89.30407692526933,197.64508614386432 85.75513876473997,198.31150533957407 84.5207254915731,198.1600465712545 83.13201055920217,197.1604166373727 82.23191754741129,195.1611460185377 82.38621920661535,194.64618005263037 84.05782051407732,193.94945987893152 83.82636802538764,191.25343932610122 82.66910558170639,189.98115091014188 80.791768728639,189.6782242412446 80.0459773761686,190.79905127262464 79.37733685306739,190.4052476938523 76.88279336341657,193.73741426313063 74.69685319217388,195.645819000114 73.97677878278773,195.85786316462327 72.25374358880799,195.40348261472536 71.50795223633759,193.4950762190856 71.09648114524316,197.31187594871153 71.79083861142863,199.22025622145156 71.30221669073217,198.82646453625057 71.32793363393284,198.12975480777095 71.97085721371695,198.09946304091136 73.28242131648585,199.12938126653899 73.53959074849263,199.97754636066384 75.49407843104564,201.37095484315068 74.64541930577252,201.91619974534842 74.82543790806085,202.40086098542088 71.40508446353488,203.33988974124077 70.86502865643706,202.03736513431068 69.21914429217577,200.15929568797583 69.11627651937306,193.07098413509084 67.39324132550973,193.3436148345063 65.85022473393474,192.07133595633786 64.97584866546094,192.31367523781955 67.00748717761599,189.46617537699058 68.75623931467999,190.37495508781285 70.01636953116395,192.49542956074583 71.76512166822795,191.07168419353548 73.8996279531857,190.8293438325054 75.751247862936,188.8603205908148 76.49703921563923,188.7391494755866 76.77992559073027,189.55705348137417 76.31702061323449,188.1635859592061 76.80564253381453,187.6183141634101 75.90554952214006,187.73948576572002 75.77696480625309,188.28475732455263 75.36549371515866,187.80007154718623 76.5227561587235,187.16392018567421 74.97973956726491,187.8909501946182 75.08260734006763,188.40592863725033 75.49407843104564,188.1635859592061 76.18843589734752,188.5270998972701 74.05392961238977,190.7384661428223 71.7136877818266,191.1322692508984 70.19638813345227,192.49542956074583 68.62765459879301,190.31436986592598 66.7760346889263,189.49646808180842 64.84726394945756,192.55601430876413 62.224135743803345,195.3731905517052 62.19841880071908,197.9782959407312 63.22709652839694,198.4629640255589 63.22709652839694,199.52317252397188 61.52977827761788,199.4625892897311 60.37251583393663,196.61516243583173 60.655402209144086,197.64508614386432 60.398232777253725,198.7355894530192 60.03819557256065,199.15967292146524 59.18953644717112,198.85675622409326 58.62376369687263,200.97716619519633 59.34383810625877,205.00590071929037 60.44966666365508,206.1872479270678 61.144024129840545,208.03498608825612 60.9640055274358,209.7312595231051 59.90961085667368,210.54910195682896 59.62672448134981,209.64038799350965 59.85817697015591,209.30719213170232 60.501100549823605,209.7009690165287 59.85817697015591,210.88229633471929 60.91257164103445,212.33623077985249 61.52977827761788,216.03161337750498 65.87594167713542,218.6062362451339 69.52774761046749,219.0 70.91646254283842,218.8788419807679 74.61970236257184,216.57682961551473 79.89167571696453,217.78841743950034 81.1260889901314,217.3037829415698 84.62359326437581,212.88145424245158 84.10925440047868,211.94245761618367 82.15476671780925,211.60926450483385 81.71757868363056,211.09432891348843 81.25467370601837,208.73167106910842 83.59491553658154,207.18684550162288 84.41785771888681,205.46026562229963 85.4979693328496,204.70299037278164 85.13793212815654,203.2187249181734 83.56919859349728,202.18882179653156 84.18640523019712,198.79617284506094 84.88076269626617,198.06917127085035 86.86096732201986,197.88742058104253 89.81841578928288,196.675746288558 90.87281046016142,197.00895724390284 91.5157340397127,198.1903383314493 92.26152539253235,198.40238056093222 94.98752137075644,196.49399469068157 96.37623630312737,196.1304911391635 96.11906687135343,193.61624526738888 94.80750276846811,189.98115091014188 95.96476521203294,188.7391494755866 96.11906687135343,187.58802125463262 94.19029613188468,184.86164598338655 94.62748416617978,182.13524405116914 96.17050075763837,178.5" stroke="#4dd2ff" stroke-linecap="round" stroke-linejoin="round" stroke-width="0.5"><title>2025-04-01 8.4km</title><desc>1743465137000</desc></polyline><polyline fill="none" points="114.84579664515331,192.31240677664755 113.99532960588112,192.00026505510323 115.50000206008554,191.7661586710601 116.61215126537718,193.01472513197223 117.52803884679452,190.2834830537322 116.74299234873615,188.9568758442183 112.35981606831774,187.94240978057496 110.72430253075436,183.4943486006814 107.5841165392194,184.58685752132442 106.53738787514158,182.24576485162834 114.38785285479389,178.5 113.40654473239556,179.59251685650088 115.82710476778448,181.0752155276714 112.49065715121105,182.4798744773143 116.35046909959055,180.99717883515405 128.06074602738954,200.19393828487955 131.92055797576904,198.55521144991508 132.90186609793454,199.1794887999422 134.7336412598379,202.37890132295433 133.6869125959929,201.05231744924095 132.24766068323515,203.08120939618675 134.47195909405127,201.36445506155724 135.060743967304,201.98872986109927 132.70560447336175,202.14479847229086 137.3504629197996,208.15341307315975 132.37850176612847,210.18228406779235 132.96728663961403,213.30361237062607 134.79906180151738,213.1475462918752 134.53737963549793,213.9278763309121 127.53738169535063,214.08394223224605 127.60280223703012,212.99148017767584 128.51868981751613,214.08394223224605 127.86448440281674,212.75738094031112 130.4158855213318,215.64459929947043 135.64952884078957,215.8006648113951 134.66822071839124,215.8006648113951 135.91121100680903,213.69377741205972 135.78036992368288,209.94818387390114 137.2196218369063,210.6504842163995 138.46261212509125,212.05508274963358 138.13550941762514,213.38164539670106 135.4532672164496,212.60131473769434 130.87382931169122,215.72263205994386 133.35980988875963,215.87869755423162 137.28504237812012,219.0" stroke="#4dd2ff" stroke-linecap="round" stroke-linejoin="round" stroke-width="0.5"><title>2025-03-30 2.1km</title><desc>1743318651000</desc></polyline><polyline fill="none" points="179.21325583849102,179.61773279192857 179.04789222683758,178.5 175.68549878615886,179.74923062568996 175.90598360192962,181.19570482696872 172.4884689571336,181.91894057340687 172.5987113651354,183.957145546854 170.7245904309675,184.94337118568365 170.7245904309675,185.86384693393484 170.17337839165702,185.33786097110715 170.06313598365523,186.52132871589856 169.5119239441119,183.56265482120216 170.00801477977075,184.15439080889337 169.0709543125704,184.74612619209802 161.85007659578696,185.66660225373926 162.56665224721655,185.79809871461475 162.51153104333207,188.16502990660956 160.6374101091642,187.3760539169889 156.5033198131714,188.16502990660956 156.39307740540244,190.07171744585503 158.708167970879,189.80872643413022 160.19644047762267,197.17242963827448 159.9208344577346,195.59450111578917 160.91301612881944,194.7397880385397 156.66868342505768,196.25197185581783 155.8418653656263,197.69840485753957 155.78674416150898,196.1204777674866 159.47986482619308,194.7397880385397 161.0232585365884,196.1204777674866 160.19644047762267,196.97518880805 161.29886455647647,213.34594923781697 161.5193493720144,215.6470230658888 162.8422582668718,216.6331947663566 159.86571325408295,217.02766297676135 159.86571325408295,219.0 158.92865278664976,218.21106599626364" stroke="#4dd2ff" stroke-linecap="round" stroke-linejoin="round" stroke-width="0.5"><title>2025-03-30 1.4km</title><desc>1743309591000</desc></polyline><polyline fill="none" points="38.95413739827927,232.91344784747344 38.63361590227578,235.14447518173256 40.265361700439826,236.89496252019308 40.673298149951734,238.33653304493055 40.49846824305132,239.3662222494604 39.36207384802401,240.704813197779 41.11037291737739,247.36336081573972 40.119670111336745,248.11844498483697 39.158105623093434,247.87819112674333 38.517062630853616,248.94217111117905 37.001870103995316,249.90318221083726 35.71978411974851,250.0404692721495 34.962187856202945,251.37901499355212 37.99257291003596,254.53658756107325 38.25481777044479,258.5178297331149 35.98202898004092,259.75337744824355 34.14631495717913,261.7096514495497 28.027268213918433,265.9996836090577 27.444501857389696,267.09792247775476 27.123980361269787,265.62216311634984 25.463096245308407,265.2103220644349 23.306860726093873,267.75 23.015477547887713,266.9949627459864 24.3558401678456,263.1511087526742 24.006180353928357,261.7096514495497 26.59949064045213,260.0622636222106 27.531916810781695,258.0373376500793 28.84314111294225,257.213635236345 28.23123643861618,256.59585701688775 28.84314111294225,256.97338829460205 30.008673825999722,258.89535871424596 33.68010187195614,256.63017806076095 34.35028318199329,256.8361042457982 34.32114486419596,256.1496831071272 34.40855981758796,256.7674621990591 33.825793461175635,256.42425174158416 33.884070096653886,255.42893930643913 33.27216542244423,255.32597577225533 33.59268691856414,254.63955135268043 32.456292523187585,253.30101944503258 32.68939906579908,252.75187650916632 34.35028318199329,252.51162617452792 34.64166636019945,251.24172851390904 35.486677577137016,250.38368666439783 35.107879445306025,249.45699884954956 38.05084954574704,251.48197981421254 38.80844580929261,251.44765821102192 40.23622338275891,252.82051942835096 40.789851421373896,254.26201728614978 41.5183093668893,253.88448276856798 41.98452245211229,252.54594766211812 40.789851421373896,245.3383534522436 39.070690669701435,240.77345873444574 40.49846824305132,239.3662222494604 40.70243646786548,237.68439481285168 38.691892537870444,234.83556464448338 39.01241403387394,231.47185257443925 41.25606450648047,227.25" stroke="#4dd2ff" stroke-linecap="round" stroke-linejoin="round" stroke-width="0.5"><title>2025-03-26 3.9km</title><desc>1742943197000</desc></polyline><polyline fill="none" points="76.74910212884424,229.02242597810982 76.57520999026019,228.36942907665798 77.33401204954134,228.4440574205073 77.41305393073708,227.9776297356584 76.63844349514693,227.25 76.48035973287188,227.60448666928278 76.10095870314399,227.49254359015322 74.39365406968864,230.27244164401782 74.39365406968864,230.68289255115087 74.2039535548538,230.60826518698013 74.06167816877132,231.5224481481855 73.31868448568275,233.014981227534 73.44515149557265,233.48139513628848 75.27892313891789,234.5634704924887 76.62263511901256,235.7947892714874 76.41712622786872,236.29850802807778 76.19580896059051,236.03732071032573 76.2116173368413,237.08206758157758 75.91125818836736,237.56712645365042 76.41712622786872,237.88427958580723 76.40131785161793,238.68648781707452 75.99030006950488,238.9849829400482 75.76898280228488,238.76111164681788 75.54766553489026,239.45138052392576 75.05760587158147,239.32078932895092 74.89952210924821,239.65659505678923 75.05760587158147,239.4886922755686 76.3380843467312,240.68266401799337 77.12850315851392,240.94384422259463 77.19173666340066,242.23108367428358 77.71341307921102,242.06318342711893 78.89904129685601,242.64150580496062 79.84754387103021,244.43242718286638 79.65784335613716,244.56301446452562 79.80011874227785,244.4510825149191 80.66957943531452,245.79426106256142 81.22287260345183,245.9435024705308 81.30191448476398,246.22332975864992 80.93832183122868,248.42462175026594 81.68131551431725,249.71180475407164 81.08059721736936,250.55126669816673 80.25856165314326,255.6252598446008 80.36922028678237,256.2035362491297 79.35748420772143,256.4833467089047 79.81592711858684,256.25949837773805 79.626226603752,256.0543038162432 78.61449052463286,256.6698867605446 77.91892197029665,255.6066057344433 78.64610727713443,256.3714225800213 78.53544864343712,257.5279683710396 78.97808317799354,256.968350418887 78.3299397524097,257.0989281052316 78.89904129685601,257.0429662519018 78.63029890088364,256.3714225800213 77.87149684154429,255.73718446296698 78.18766436626902,256.091611936703 77.96634709899081,255.84910900791874 78.36155650485307,256.91238852271636 78.34574812860228,257.91969984544266 76.08515032700961,263.142700232871 76.19580896059051,263.6836447076057 80.59053755417699,264.877447135339 80.38502866303315,266.4629530724196 80.13209464325337,266.4069942900969 80.08466951455921,266.87331691502186 79.65784335613716,266.83601115197234 79.42071771266637,267.75" stroke="#4dd2ff" stroke-linecap="round" stroke-linejoin="round" stroke-width="0.5"><title>2025-03-24 3.9km</title><desc>1742796232000</desc></polyline><polyline fill="none" points="132.32946514128707,267.7471456681942 132.41182142881735,267.75 132.46026630383858,267.6301177967034 132.39971021006932,267.69291330484884 132.40213245381892,267.5673221382476 132.33188738503668,267.57873954187016 132.57168951637868,267.51879811740946 132.5934897101397,267.4759827303624 132.51355566635903,267.33897302224796 132.55957829763065,267.2647591315945 132.4675330350874,267.1848362453202 132.55231156636728,266.9736103023315 132.4893332288484,266.95648379998056 132.54504483511846,266.82803467595295 132.43362162257836,266.7110027042563 132.251953341256,266.76809153616523 132.2471088537568,266.7167115930424 132.28828699751466,266.7424015771812 132.29797597252764,266.6881671367046 132.43362162257836,266.65962264932386 132.30282046002685,266.6995849229734 132.35610982256185,266.6938760304565 132.31250943503983,266.5682800809391 116.92641712909972,227.43010063809743 116.89250571657612,227.45297047157328 116.92399488535011,227.50156880126815 117.00392892913078,227.44153555734192 117.0136179041292,227.4758402850439 117.16379701669211,227.42438317660162 117.19044169795234,227.5044275237342 117.13473009168229,227.27572873857753 117.1419968229311,227.31575117046486 117.26068676673458,227.25 117.37453222300974,227.2557174996491 117.45931075430417,227.361491017562 117.52713357932225,227.37578470335757 117.43751056054316,227.39865458437998 117.39148792928609,227.30717494022247 117.44962177930574,227.31575117046486 117.4132881230471,227.32432739788965 117.39148792928609,227.38150217549082 116.87797225407849,227.53587345016058 117.0281513666414,228.20480510303787 116.89735020408989,228.25054339406415 116.85374981656787,228.3277265786619 116.71568192276754,228.3505956266181 116.70357070401951,228.46494056621668 116.71325967901794,228.51067840198084 116.85617206031748,228.4935267229448 116.8997724478395,228.5764264006557 116.85374981656787,228.43063713686752 116.84890532906866,228.50496117689 116.7738157727872,228.51925423727698 116.5533915914566,228.48780949410866 116.32812292262679,228.5506989426067 116.33296741011145,228.49638533690268 116.32812292262679,228.58214361011778 115.81460724741919,228.81940669972755 115.800073784907,228.97948660356633 115.62324999109842,229.06810184300048 115.36891439724423,228.5506989426067 115.27444689096592,228.59643662829149 115.19935733468446,228.5764264006557 115.23811323469272,228.60501243544059 115.22115752844547,228.49066810869226 115.13153450965183,228.364888771428 115.17513489717385,228.34201973597737 115.0467559783574,228.26197795431835 115.00073334710032,228.14191482216484 115.03464475960936,228.10475231232704 114.87719891581219,227.98754712746813 114.78030916576972,228.03900312701262 114.47752869690885,227.9389497015327 114.21834861555544,227.82174377305273 114.08270296550472,227.7817221161058 113.9301016091922,227.60162390133883 113.61763216531835,227.41866571385071 113.49894222152943,227.4358180983436 113.23733989642642,227.7274069122086 113.03387142134306,227.73884170135716 113.03144917759346,227.7760047315296 112.91033699005493,227.79315688148017 112.59786754618108,227.6702328914198 112.60271203368029,227.55302575772657 112.40651028986031,227.43010063809743" stroke="#4dd2ff" stroke-linecap="round" stroke-linejoin="round" stroke-width="0.5"><title>2025-03-24 4.7km</title><desc>1742777725000</desc></polyline></svg>