<?xml version="1.0" encoding="utf-8" ?>
<svg baseProfile="full" height="300mm" version="1.1" viewBox="0,0,200,300" width="200mm" xmlns="http://www.w3.org/2000/svg" xmlns:ev="http://www.w3.org/2001/xml-events" xmlns:xlink="http://www.w3.org/1999/xlink"><defs /><rect fill="#222222" height="300" width="200" x="0" y="0" /><text fill="#FFFFFF" style="font-size:12px; font-family:Arial; font-weight:bold;" x="10" y="20">Over 1km Runs</text><text fill="#FFFFFF" style="font-size:4px; font-family:Arial" x="10" y="280">ATHLETE</text><text fill="#FFFFFF" style="font-size:9px; font-family:Arial" x="10" y="290">Tao</text><text fill="#FFFFFF" style="font-size:4px; font-family:Arial" x="65" y="280">SPECIAL TRACKS</text><rect fill="yellow" height="2.6" width="2.6" x="65" y="283" /><text fill="#FFFFFF" style="font-size:3px; font-family:Arial" x="70" y="285.5">Over 20.0 km</text><rect fill="red" height="2.6" width="2.6" x="65" y="287" /><text fill="#FFFFFF" style="font-size:3px; font-family:Arial" x="70" y="289.5">Over 40.0 km</text><text fill="#FFFFFF" style="font-size:4px; font-family:Arial" x="120" y="280">STATISTICS</text><text fill="#FFFFFF" style="font-size:3px; font-family:Arial" x="120" y="285">Number: 27</text><text fill="#FFFFFF" style="font-size:3px; font-family:Arial" x="120" y="290">Weekly: 2.2</text><text fill="#FFFFFF" style="font-size:3px; font-family:Arial" x="141" y="285">Total: 353.2 km</text><text fill="#FFFFFF" style="font-size:3px; font-family:Arial" x="141" y="290">Avg: 13.1 km</text><text fill="#FFFFFF" style="font-size:3px; font-family:Arial" x="167" y="285">Min: 1.4 km</text><text fill="#FFFFFF" style="font-size:3px; font-family:Arial" x="167" y="290">Max: 98.8 km</text><polyline fill="none" points="40.171299774665385,61.341567998810206 40.804207362933084,60.83978556598595 41.41277235164307,60.596061981632374 41.89962434268091,60.65340874787944 42.08219383924734,60.323664501687745 42.617731029342394,60.16596044051403 42.11870773858391,59.033353009450366 42.25259203603491,58.617583285304136 42.77595792635111,58.25916005796171 42.788129226188175,57.77170290633512 41.923966942180414,56.45269217334862 41.97265214135405,55.63547238674073 42.800300525908824,53.255470138567034 42.97069872281281,53.255470138567034 42.88549962436082,52.638956531562144 43.45755071379244,51.86472606091411 43.761833208147436,50.78939842582622 44.20000000001164,50.35926491783175 41.42494365142193,47.41998174735636 41.047633358452,47.233585972426226 40.183471074386034,47.462996119531454 36.7268219384714,47.592039152033976 30.71419984975364,46.631382438281435 29.996093163033947,46.21557363180909 28.133884297509212,44.16518690405064 25.94305033812998,44.71004802464449 25.188429752131924,42.58794465845858 23.99564237415325,43.37656813846843 21.086701728054322,44.66703275486361 19.297520661202725,46.20123537375184 17.47182569495635,44.91078576495056 15.09842223895248,42.65963789691159 11.799999999988358,37.081787533694296 15.536589030874893,34.658432001189794 16.35206611570902,35.92030315984448 16.14515401958488,35.94898190948879 15.767843726556748,35.3180479764269 16.206010518420953,35.96332128200447 15.682644628104754,36.56557351908123 15.755672426777892,36.823680778892594 15.548760330595542,36.99575200489198 15.706987227662466,36.95273421941965" stroke="#4dd2ff" stroke-linecap="round" stroke-linejoin="round" stroke-width="0.5"><title>2025-06-26 5.0km</title><desc>1750894720000</desc></polyline><polyline fill="none" points="59.57658247533254,64.16520574666356 59.70212187085417,64.19999999999709 59.46581242050161,63.96513849658368 59.26642632170115,63.92164554997726 58.867654124158435,63.112672436276625 58.93411615709192,62.75602577917016 59.53965912372223,62.22540220267547 61.164286595216254,61.41641194876138 61.55567412241362,60.82488701917464 61.193825276510324,59.754911704862025 61.304595331370365,58.798011098391726 61.05351654032711,58.38915007868491 61.00920851837145,57.475729618141486 60.66212901312974,56.74498574496829 60.359357529785484,55.553162972086284 60.01966269483091,55.44876889121224 59.783353244449245,54.23952753139747 59.894123299309285,53.95243876957829 59.08180956359138,50.47249309493782 59.13350225586328,50.34199218850699 59.443658409494674,50.31589198168513 63.12860890166485,50.289791766357666 63.39445703336969,50.13319029559352 64.01476934069069,48.3757527735288 64.45784956018906,47.56662252311071 63.44614972564159,46.47036848721473 61.87321494639036,45.46110546154523 61.83629159478005,45.330596382176736 69.13234587584157,32.705011627593194 68.87388241448207,32.51356771423889 66.38524851496913,31.799999999995634 64.9304684609524,32.14808260711288 65.02646917517995,32.792031436743855 64.50954225243186,33.01828249741084 63.91876862643403,33.02698444851558" stroke="#4dd2ff" stroke-linecap="round" stroke-linejoin="round" stroke-width="0.5"><title>2025-06-08 6.1km</title><desc>1749378939000</desc></polyline><polyline fill="none" points="91.11360946740024,49.6609447660594 90.92899408281664,49.687798599850794 90.70177514787065,49.99214129493339 90.68757396447472,50.84250324204186 90.52426035495591,51.370617319393205 90.35384615382645,51.46907880434446 90.19053254433675,51.836070333716634 89.5443786981923,52.050893708314106 89.35266272185254,52.49844018713338 88.37278106503072,52.87437691280502 87.84023668634472,52.89227860890969 87.4355029585422,53.28611470940086 87.11597633134807,53.32191787617194 86.40591715971823,53.69784996895032 86.48402366859955,53.769455842084426 86.34911242601811,53.59939176814078 86.07218934906996,53.91266735816316 86.03668639049283,54.145385417097714 85.82366863903007,53.769455842084426 84.78698224847903,54.04692787568638 84.87218934908742,53.832110918119724 85.13491124258144,53.94847018919245 84.8153846153582,53.90371664738632 84.76568047332694,54.073779946811555 85.15621301773353,54.26174414266279 85.23431952661485,54.41390524727467 85.12781065085437,54.6555721718687 85.04970414197305,54.36020136756997 84.34674556207028,54.26174414266279 84.6094674555934,53.23240992328647 84.48165680470993,53.20555751405482 84.0769230768783,53.63519476703368 83.79999999998836,54.19013879705744 83.9136094674177,55.41636974638823 84.06982248515124,55.854943235899555 83.90650887571974,55.75648821329378 84.02721893487615,55.64908256867784 84.11242603545543,55.738587284511595 83.84260355029255,54.77193000904663 84.02721893487615,54.807732379726076 84.02011834317818,54.404954603654915 84.16213017748669,54.440757170952566 84.15502958575962,54.27964546707517 85.07810650885222,54.34230006473808 85.15621301773353,54.66452278193174 85.22011834316072,54.39600395884918 84.8153846153582,54.04692787568638 85.8591715976072,53.78735729840264 86.03668639049283,54.18118812348257 86.065088757372,53.90371664738632 86.34201183429104,53.61729326999921 86.39881656799116,53.706800707303046 86.67573964496842,53.63519476703368 87.07337278104387,53.33981945235428 87.40710059169214,53.23240992328647 87.4355029585422,53.31296708629088 87.79763313604053,52.91913114404451 89.12544378696475,52.68640881435567 89.57278106507147,52.077746581584506 90.28994082837016,51.6928543669419 90.25443786979304,50.57396905951464 90.59526627216837,50.35018974964623 90.80828402363113,49.79521382699022 91.1207100591273,49.490870234898466 91.41183431950049,48.64049108508334 91.31952662716503,47.64687647231767 91.47573964492767,47.40518419701402 90.80828402363113,42.51744166476419 90.78698224847903,41.69383079409454 90.96449704139377,40.93287694290484 92.33491124256398,41.344688338576816 93.3147928993858,41.88182982202852 101.29585798812332,42.78600823146553 102.33964497037232,42.454775977173995 104.61893491121009,41.12087811240781 108.24733727806597,41.02240137532499 109.61065088750911,40.58373051009403 110.34201183426194,40.145056764100445 111.19408284020028,41.13878295807808 112.05325443786569,41.8997344637537 114.42485207100981,43.53798887427547 114.92899408281664,44.146728909276135 115.36213017746923,45.041924766628654 115.36923076919629,44.71965563986305 114.78698224850814,43.68122232273163 116.19999999998254,43.56484516926139" stroke="#4dd2ff" stroke-linecap="round" stroke-linejoin="round" stroke-width="0.5"><title>2025-06-01 8.5km</title><desc>1748768919000</desc></polyline><polyline fill="none" points="131.25284974084934,58.08408296214475 131.02901554404525,58.131115424926975 130.37616580311442,57.53144963618979 129.96580310876016,56.70837227310403 129.86321243521525,55.96759604507679 130.07772020727862,55.23857206406683 131.4393782383413,54.61536934268952 131.57927461137297,54.22733522353519 131.15025906736264,54.55657640464051 130.1989637305378,54.638886506880226 130.23626943002455,54.48602482696151 130.36683937819907,54.662403664769954 130.5440414507175,54.53305921837455 130.41347150254296,53.96864485734113 130.03108808287652,53.404226865612145 129.96580310876016,52.60462849538453 128.57616580306785,52.51055761977477 128.27772020723205,52.29889778095094 128.883937823819,51.72271007722884 128.72538860101486,50.852541882923106 128.96787564759143,50.51152766918676 129.12642487045377,49.20625412213121 129.36891191703035,49.01810498247505 131.50466321239946,48.63004610756616 132.63316062174272,49.006345647860144 132.96891191706527,48.735880516403995 133.13678756478475,48.18318830715725 133.63108808285324,47.79512573922693 133.91088082903298,47.77160674051993 134.33056994818617,48.15966941251099 134.99274611397414,48.06559377088706 136.41036269429605,47.418821003710036 136.46632124349708,47.17187014385854 136.2704663212062,47.077793442957045 136.41036269429605,47.077793442957045 136.42901554401033,46.68972598540131 137.56683937821072,46.84260124936554 137.60414507769747,47.03075505467132 137.90259067353327,46.8543608740365 137.90259067353327,46.64268738903775 135.41243523312733,46.32517620398721 134.79689119168324,46.08998199269263 132.61450777202845,43.232321951771155 129.53678756474983,42.05630312811991 128.5854922279832,40.492173663471476 128.02590673574014,40.127598126084195 125.4145077720168,40.68034108986467 124.79896373051452,41.32716353965952 124.14611398964189,42.70311543213029 123.39999999996508,43.05592013327987 122.38341968914028,43.02063972699398 123.33471502590692,42.86775780256721 123.44663212430896,42.561993154384254 123.27875647664769,42.12686470214976 122.89637305698125,42.19742621938349 121.917098445585,41.80933717208245 121.2735751295113,41.87989894473867 121.11502590670716,41.73877534263738 121.08704663213575,40.3157663345919 120.8259067357285,40.11583759966743 120.5274611398927,40.209921766967454 119.94922279793536,40.02175333145715 120.13575129536912,40.6215388124765 119.99585492227925,41.23308057064423 119.85595854918938,40.06879547816061 120.06113989633741,40.33928733228822 119.87461139896186,40.13935865092935 119.9585492227925,40.209921766967454 120.01450777199352,39.8218239263806 119.79999999998836,40.55097602758906 119.99585492227925,40.22168228079681 120.01450777199352,39.363160628287005 120.17305699479766,39.56309107875859 120.00518134713639,39.904147854256735 120.07979274610989,40.15111917426839 119.96787564764963,40.08055601092201 120.08911917096702,39.974711159469734 120.06113989633741,40.209921766967454 120.11709844559664,39.810063358985644 120.01450777199352,39.951190064086404 121.17098445596639,40.13935865092935 121.39481865282869,39.71597876278247 121.57202072540531,38.56343426944659 121.67461139895022,38.65752010188589 121.86113989632577,38.23413306126167 122.40207253885455,38.41054457653081 122.43005181348417,38.1400467746862 122.52331606217194,38.48110908330273 122.38341968914028,38.01067796591087 122.53264248708729,38.434066085093946 123.68911917094374,38.68104154423054 124.5191709844512,36.46999839400087 124.98549222794827,36.62289146942203 124.60310880828183,36.29358297576255 124.5937823834247,35.9760343288217 124.76165803108597,35.83490122779767 125.52642487047706,35.88194562004355 126.16994818655076,36.12892826531606 126.28186528501101,35.58791775458667 125.95544041448738,35.317411247808195 128.14715025905753,36.10540613855119 129.3316062176018,37.74017893089331 132.85699481860502,39.06914443214191 136.31709844555007,41.25660132239864 137.2404145077453,42.02102231981553 144.6269430051325,52.922116955815 146.6601036268985,54.674162241324666 149.04766839375952,56.37913916605612 149.80310880829347,57.1787031402564 150.17616580310278,57.778371339605656 150.54922279785387,58.96593744428537 150.53989637299674,60.682588752191805 150.4279792745947,58.789567256833834 150.88497409323463,58.67198693493992 150.92227979272138,58.354519278844236 151.45388601033483,58.425067746124114 152.20000000001164,58.18990596792719 151.97616580309113,57.296285463096865 151.65906735748285,57.30804368672398 151.8455958549166,57.62551512895152 151.87357512948802,57.30804368672398 152.0227979273768,57.2374943213581" stroke="#4dd2ff" stroke-linecap="round" stroke-linejoin="round" stroke-width="0.5"><title>2025-05-31 10.5km</title><desc>1748652092000</desc></polyline><polyline fill="none" points="168.28905445840792,60.34646682032326 168.14793399412883,60.39571490329763 167.81865291087888,60.309530730002734 167.5207319307956,60.38955889527642 166.80467624176526,59.92170032845752 167.4266516212956,60.364934856454056 168.16361404574127,60.438806940812356 168.38836145176901,60.40802691735735 169.12009719238267,59.90938820875817 170.25951427419204,60.174098192896054 170.58356867358088,60.02635323790673 170.62015546063776,60.38955889527642 170.75604924099753,60.654266636967805 170.9964766986377,60.869725514123274 171.1950906853308,60.925129093004216 171.4407448268612,61.86698164896734 171.91114637439023,61.80542313637852 172.3554145025846,62.42716104147621 172.72650905675255,62.64261317996716 172.56970854091924,63.085826432838076 172.1045336772513,63.295120375489205 172.1515738320013,64.13844402082395 172.30837434783462,64.20000000000073 172.96693651436362,63.95993130319766 174.064540125255,63.12276071416636 176.0245465733169,61.17752248936449 176.9287628813181,59.8108911548843 177.11692350031808,59.26915429897781 177.19532375823474,58.58581974357003 177.15351028734585,56.30797838696526 175.77889243178652,53.568291150011646 174.911262910784,52.11527967044458 174.52971498892293,51.19173605676406 173.1028302947816,49.74482079393783 172.88853625644697,49.40617571517214 172.62197537953034,46.401381621923065 172.87285620486364,45.42232616895126 171.26303757555434,44.70803604221146 170.635835512192,44.33857209725102 169.4859650626895,43.45184879631415 168.99465677971602,42.63900690817536 168.59220212238142,42.17715972898077 167.4736917760456,41.4197222017101 172.61152201180812,32.50213489192174 172.44426812822348,32.29272715128536 170.9389831761364,31.818477345583233 170.635835512192,31.799999999999272 169.71071246871725,32.0402050220182 169.71071246871725,32.446703506553604 169.39711143702152,32.649951654202596 168.9842034119647,32.64379263014416 168.38836145176901,32.495975851776166 168.74900263821473,32.619156527220184 168.94761662496603,32.51445297018654 168.81172284457716,32.631474580044596 168.91625652179937,32.54524815412515 168.81694952843827,32.50829393139793 168.79081610910362,32.64379263014416 168.8901231024647,32.58836138348852 168.90580315404804,32.76081397263624 168.72286921890918,32.625315553967084 168.90057647021604,32.61299749981845 168.79604279296473,32.656110677588 168.90057647021604,32.52677104575923 168.8848964186327,32.69306480382147" stroke="#4dd2ff" stroke-linecap="round" stroke-linejoin="round" stroke-width="0.5"><title>2025-05-27 10.2km</title><desc>1748342410000</desc></polyline><polyline fill="none" points="39.94503523374442,98.56282638690027 38.18078155023977,98.80934619961772 37.142985265818425,100.5103253924608 35.108904548338614,102.1373366855114 34.48622677766252,101.8168657139322 34.52773862902541,102.40850406677055 30.50108904542867,101.8661689706787 28.031133888522163,100.23915567605582 26.08007687376812,99.84472640202148 23.92146060219966,98.68608632773976 21.2854580397252,98.93260600254871 17.217296604881994,96.9357887081278 16.387059577275068,96.1222653647419 14.145419602864422,96.56600574245385 11.966047405498102,97.57674437898095 11.800000000046566,97.18231034062046 12.650992953334935,95.4566531231103 13.211402946850285,96.02365627064137 12.111338885384612,97.18231034062046 12.069827034021728,96.02365627064137 12.526457399129868,96.02365627064137 12.339654067880474,95.55526247093803 12.920819987310097,95.48130546417087 13.107623318443075,95.851090249751 14.000128122977912,94.37194738528342 14.768097373540513,94.9389533232461 15.45304292126093,94.47055721834477 15.45304292126093,93.97750761154748 16.11723254318349,93.6816773180617 16.71915438817814,93.6816773180617 16.137988468981348,94.49520966978162 16.71915438817814,93.65702477564628 18.89852658554446,93.63237223050965 24.04599615628831,94.84034369960136 26.43292761046905,95.08686767586914 32.327610505977646,98.48887038935209 33.80128123005852,96.78787559631746 35.06739269697573,96.2208744147938 35.64855861617252,96.61531017372909 37.78641896217596,95.0129105119413 38.82421524671372,95.35804373120482 39.90352338249795,96.2208744147938 40.02805893647019,96.66461459397397 39.57142857136205,97.60139648296172 38.67892376682721,97.9958297714038 38.13926969887689,98.80934619961772 40.31864189612679,98.36561033828184 42.45650224213023,97.42883169732522 42.68481742462609,97.03439739420719 42.66406149906106,97.45348381779331 42.58103779621888,96.14691763142764 44.199999999953434,95.0129105119413 44.199999999953434,94.42125230736565 40.962075592484325,90.57543526237714 36.66559897502884,84.19024465620168 37.039205637411214,82.63706221117172 37.93171044194605,81.2564464033203 38.222293401602656,79.1855064737174 39.34311338874977,76.27629608032294 39.40538116591051,75.29011434910353 38.118513773195446,75.63527845703356 37.43356822547503,75.24080514669186 37.412812299793586,75.56131476517476 37.62037155672442,75.21615054135327 37.516591928200796,75.51200562344457 37.86944266501814,75.65993301554408 39.61294042272493,75.19149593322072 40.235618193401024,75.38873272085038 38.61665598966647,75.24080514669186 37.848686739220284,75.6106238958746" stroke="#4dd2ff" stroke-linecap="round" stroke-linejoin="round" stroke-width="0.5"><title>2025-05-25 4.8km</title><desc>1748150210000</desc></polyline><polyline fill="none" points="69.19518415862694,75.82598421796865 69.05422954959795,75.4701794743014 67.9668654234847,75.3041370621504 63.496590682305396,77.55755902454257 63.577136173145846,78.60124131459452 62.79181763762608,81.70853858921328 62.16759008355439,82.6336032798281 59.026315941126086,84.7920723138377 58.0396336785052,86.04919279608293 59.247816040879115,87.06911541549198 59.63040712242946,88.87175769443274 59.267952413647436,89.60704171862744 58.07990642392542,90.1762921657064 58.824952214141376,91.93147170064913 60.07340732193552,92.83277462719707 59.63040712242946,93.37829827520181 59.368634277256206,94.80139702807355 61.24131693900563,95.27576121778111 60.83858948480338,95.67896996875061 60.15395281277597,95.10973386862315 59.69081624050159,96.3667949429946 60.355316539877094,96.74628365642275 60.79831673949957,97.74243839111296 59.99286183109507,97.95589952862065 59.247816040879115,99.829605002873 57.47581524262205,100.96805110934656 57.67717896972317,101.9404691249947 56.81131494324654,104.78654574856046 57.19390602468047,105.0 58.32154289644677,103.36351207371627 60.415725657949224,103.79042314992694 64.5034093176946,100.87318082722777 65.89281903451774,99.47383937728591 66.98018316086382,99.04691986145917 67.34263786952943,98.45397470468015 67.42318336036988,96.31935880742094 68.97368405887391,96.84115573171584 70.02077543968335,96.15333225183713 69.35627514030784,91.50453743673279 68.91327494068537,91.36222582988557 69.25559327681549,90.7929784750304 68.89313856803346,88.58713095565327 67.98700179613661,86.42869944364065 68.87300219526514,85.33761605374457 68.93341131345369,84.27024659130257 67.50372885121033,82.39640757896996 68.1279564051656,79.50259927670413 69.07436592236627,77.13059664951288 69.39654788572807,77.03571600826399 69.21532053139526,76.06318705820013 70.1214573031757,74.82972947425151 70.54432113014627,73.19301538135915 71.18868505675346,72.59999999999127" stroke="#4dd2ff" stroke-linecap="round" stroke-linejoin="round" stroke-width="0.5"><title>2025-05-20 4.1km</title><desc>1747694891000</desc></polyline><polyline fill="none" points="109.13599827379221,74.09464828887212 109.3835863028944,73.39987556204142 109.74506482537254,73.2305598340754 109.87876236106968,72.85689564347922 110.14120567194186,72.64670839047903 110.061977502628,72.59999999999854 110.11149510843097,72.66422402640092 110.061977502628,72.60583855103323 110.11149510843097,72.64086984389724 109.89856940341997,72.90360380989296 109.75001658595284,73.28310615177543 109.32911693648202,73.48161399774108 109.07657714679954,74.36321348204365 108.9181208081718,74.45662714655555 108.61606341265724,74.9003398279965 109.23998524600756,75.31485756431721 110.00750813621562,75.53087257786683 109.88371412167908,75.52503434571918 109.98274933328503,75.65931352423286 109.8143894734967,75.53087257786683 109.80448595233611,75.60676953795337 109.8242929946864,75.53087257786683 109.90352116397116,75.5717401851216 109.8292447552667,75.50751964543088 110.03226693911711,75.54254904026311 109.819341234077,75.50751964543088 109.77477538885432,75.5717401851216 109.78467891004402,76.26648473734167 109.47766975392005,76.87364906740913 109.21027468249667,77.11301003673725 109.46776623275946,77.3231797619992 109.08152890735073,77.73184075596146 109.08152890735073,77.73767874756231 109.73020954363164,77.97703585573618 109.68069193779957,77.62675679815584 109.48757327510975,77.28815153172764 109.19046764020459,77.11301003673725 109.51728383856243,76.86197289519987 109.78963067059522,76.23145581599965 109.75496834653313,75.60676953795337 109.8143894734967,75.49000493942731 110.15606095365365,75.63596064781814 110.38879370104405,75.9512236204464 111.06223314016825,75.86948895388923 111.75052786109154,76.01544362809364 111.65644441000768,75.30318105229526 111.00776377378497,74.71935220450177 111.25040004230686,74.10632506440015 111.47322926847846,73.8903043048922 111.51779511373024,73.56919075469341 111.79014194573392,73.61005985892916 111.6267338465259,73.54583696686313 111.48808455021936,73.59254453236645 111.47322926847846,73.85527382935834 111.23059299995657,74.1238402229319 111.00776377378497,74.73686716254451 111.66634793119738,75.34988708516539 111.88917715736898,76.69266811214038 112.32988384916098,77.43410234008843 112.21599335578503,78.33315054941704 112.5081472301099,78.3039609094958 113.03303385179606,78.44990894998409 114.0729035740369,78.10547093625792 114.84537822482525,78.53163967896398 114.84537822482525,78.64255975453125 114.53836906873039,79.2963997430852 113.95406132005155,79.5882900184406 113.25586307799676,80.23628074500812 113.15682786636171,80.20709214213639 112.75573525921209,79.38396699269651 112.0723922989273,79.72839678564924 111.51779511373024,80.1487148886481 110.9334873650514,81.24035900073068 110.07683278436889,82.06929314668014 109.45786271162797,82.87486474625621 106.30854298148188,87.71387691810742 106.34320530554396,87.8831468761091 106.9225612936425,88.29172733048108 106.08076199470088,90.34041949730454 105.8183186838578,90.27621665797051 104.40706691797823,89.42989931391276 104.2436588187702,89.43573603101322 101.05472500398173,94.93364125616426 99.48006513892324,96.83034609576862 97.34090456747799,97.27387354695747 96.4297806204122,97.58900924310365 88.79911756355432,101.48136594931566 88.36336263234261,102.00071451954136 87.9375112222915,102.82349240767144 87.82362072891556,102.81182188758248 87.78400664424407,102.90518597714981 87.69982671434991,102.85266869676343 87.69982671434991,102.64843433973147 87.55622565749218,102.4558698049841 87.41757636115653,102.43252860227585 87.35320347361267,102.57841095255571 87.16998833208345,102.54923451425202 87.10561544451048,102.66010489537439 87.0511460780981,102.54339922467989 87.18484361382434,102.61342265757776 87.41262460060534,102.39751677916138 87.80876544717466,102.75930451578097 87.79391016540467,102.88184496998292 87.84837953181705,102.84099818302275 87.30368586780969,103.8679936697772 86.47179008999956,104.08389362823436 86.53616297760163,104.48651555340984 86.18953973686439,104.67323773915268 85.77854360855417,104.62072219012043 85.98651755301398,105.0 85.4863897342002,104.90663955718264 85.52105205829139,104.6440624405077 85.15462177520385,104.2181012724759" stroke="#4dd2ff" stroke-linecap="round" stroke-linejoin="round" stroke-width="0.5"><title>2025-05-17 14.6km</title><desc>1747468743000</desc></polyline><polyline fill="none" points="148.501036130765,89.35044258929702 146.6582992306794,90.24820205893047 146.73792366468115,90.77077545702923 146.51042528194375,92.05710054080555 145.93030440591974,93.08883075459744 144.14444210159127,94.32153605588974 143.5870710638701,95.07187238038023 143.01832510705572,95.11206884038256 142.6657026138273,95.51403271954041 142.26758044410963,95.59442533814581 140.3452191100223,97.69801356577227 139.2532268728828,97.57742667506682 138.65035615873057,96.07677994936239 138.24085906986147,96.31795654748566 137.6266134364996,95.35324732507434 137.19436650926946,95.40684247986792 136.8758687734953,95.24605694566708 136.8189941777964,94.99147942112177 135.86350097029936,96.46534201414761 135.10138138820184,97.1084765347623 134.74875889497343,97.91238996924949 134.8511331672198,98.82348552696203 135.22650549869286,98.95746960015822 135.26063025614712,100.17671797716321 135.7725016172626,101.54333369994856 136.4094970888691,101.1279913074759 137.08061731792986,99.98914208829228 138.05886036361335,99.90875233428233 138.62760632048594,100.5116742120299 139.40110082173487,102.42760639295011 140.60684225015575,102.6821685687828 141.58508529589744,103.20468928367336 143.01832510705572,103.07070982418372 143.21169873233885,103.27167895881576 143.51882154907798,104.6516581728356 144.77006265404634,105.0 148.64891007955885,102.30702412629762 148.86503354314482,101.8514900550581 148.81953386653913,100.83323134170496 149.94565086107468,101.0074077702593 150.2982733543031,100.52507244251319 150.28689843515167,99.50680277835636 149.79777691228082,96.76011241905508 149.22903095552465,95.19246172103885 149.75227723579155,94.58951383874955 149.7295273974887,93.90616934172431 148.967407815333,92.88784502627823 149.1380316024297,91.588129408221 149.79777691228082,90.47599073548918 149.9570257802261,89.29684480225842 150.4120225457009,88.72066712027299 150.67364568577614,87.74249884389428 151.15139228955377,87.19311325825402 148.41003677767003,84.3389487505774 147.44316865107976,84.56674834398291 144.41744016081793,84.70074790824583 139.04847832850646,83.950348472732 137.81998706178274,83.4679464239598 136.19337362528313,81.56511993655295 134.15726309991442,82.06092966735014 133.48614287079545,79.99727604473446 132.32590111892205,80.76109991854901 129.66417004104005,81.84652570413891 127.90105757495621,83.4009459901281 126.75219074211782,82.6773389847076 123.93121079634875,80.05087787446246 120.84860771038802,74.86479289241106 124.29520820872858,72.59999999999854 124.78432973159943,73.1226482068887 125.08007762907073,73.83291016684962 124.87532908463618,73.77930563341943 124.56820626795525,73.22985782162868 124.93220368033508,73.88651467698219 124.3634577235207,75.09260999243998" stroke="#4dd2ff" stroke-linecap="round" stroke-linejoin="round" stroke-width="0.5"><title>2025-05-12 8.9km</title><desc>1747004623000</desc></polyline><polyline fill="none" points="169.66707147826673,85.60073481045765 169.45877428885433,86.20127507291909 168.47283425883506,87.75172750430283 167.53318249314907,88.88178051287105 167.213793469331,89.38947717711562 166.99623862703447,89.79344718608627 166.9545791891578,90.29567562160446 166.50095419879653,90.8251936207198 166.05658686134848,91.72044841816387 166.03807155560935,91.9824711821966 165.9408662005444,92.08618814721194 165.95475267985603,92.67027440926176 166.03344272921095,92.5938522953802 165.9316085476894,92.71940284939046 165.96863915913855,92.43009022971819 165.83440319262445,92.26086886545454 165.96401033271104,92.41917273961735 165.97326798556605,92.60476974735866 165.51038534234976,93.58733067168578 165.61684835029882,93.66920987779304 165.4687259044731,93.66375126822822 164.94566851767013,94.83188014593543 164.2513445528748,96.87876920127746 164.2513445528748,97.20626368110243 163.93195552905672,97.686585041738 162.7608624417917,100.43742767456206 162.46461755011114,102.9479854316196 162.5664517316327,104.49791910082786 162.64514178098761,104.77078977933343 162.9089848875883,105.0 163.20985860566725,104.90722456090953 164.96881264983676,103.69021317604347 165.130821574945,103.43916678813912 165.14470805425663,103.09534034459284 165.20951162429992,103.0189341475525 166.8110855697596,101.94923514443508 167.29711234511342,101.74184187597712 167.51003836098243,101.96015055581302 168.2321352843719,101.6872645572621 171.58340562111698,100.12087014875215 171.90279464493506,99.78793679779847 172.88873467495432,99.547786776453 173.22201017805492,99.32946757536774 173.19423721946077,99.2366816265494 173.36087497099652,99.06202525628032 174.39310326534905,98.630839732592 174.57362749619642,98.48892976044954 174.39310326534905,98.12869494718325 174.30052673671162,98.1450693131228 174.32829969530576,98.21602483696915 174.39773209177656,98.11232057587404 174.44864918253734,98.23239917433966 174.5597410168848,98.26514783300081 175.12445784159354,97.99769982678481 175.18926141166594,97.88853696455408 175.08742723014439,97.52829782985646 175.22166319665848,97.05343319054737 175.1661172794702,96.98793426600241 175.08742723014439,97.10255732769656 175.14297314730356,97.10801556217848 175.19851906449185,96.90606048979316 175.0966848829994,96.6440635057952 174.92078947857954,96.50214790012251 174.56899866976892,96.38752346326874 174.09685837372672,95.94539817615805 173.85615939923446,95.95085653684146 173.53214154898888,96.19648215178313 173.09240303796832,96.20739881781265 172.92576528640348,96.42027332916769 172.99519768287428,96.68227148472943 173.37939027673565,96.81327004815466 173.37476145030814,96.87876920127746 173.45808032609057,96.85693615977652 173.37013262388064,96.86785268172753 173.62934690405382,97.22809657024482 173.74043873843038,97.31542803148841 173.93947827501688,97.30451160716984 173.99039536574855,97.47917411060553 174.31904204245075,97.70295955232359 174.57362749619642,97.43005034312591 174.6245445869281,97.11347379607469 174.99947952793445,97.08072438379895 174.87913004070288,96.96610127211898 174.78655351206544,96.69864632391182 174.60602928121807,96.62768864875761 174.6199157605006,96.4257316380681 175.0226236601011,96.58948062816125 175.1707461058977,96.79143697807012 175.2262920231151,97.05889143038439 175.0966848829994,97.51738145198033 175.11520018870942,97.73570855742946 175.52253691473743,98.16144367371817 176.96673076151637,97.10801556217848 177.09633790160296,96.80235351429656 176.59179582053912,92.7849073612233 176.62882643198827,90.93437189271935 176.7769488777849,89.30759096686597 176.68900117560406,88.20484361219133 176.69825882845907,86.40327335888287 177.20280090955202,84.44876921680043 179.063589135214,81.70796716125551 179.52647177840117,80.34296986550908 179.37834933257545,80.22830839625021 179.4014934647712,80.13548701428954 179.63756361277774,79.63315654597682 180.72996665071696,77.96778574254859 181.3548582190415,76.66275149511421 181.31782760756323,76.5535420636952 180.70682251857943,76.14946509313086 180.56795772560872,75.9528859265447 180.80865670007188,75.35222257255009 181.53538244988886,73.99251250216548 181.51223831772222,73.87237569765057 180.27171283398638,72.91673174211974 180.46149471765966,72.77474879557485 180.23931104893563,72.98226219681965 180.2763416603848,72.91673174211974 180.19302278460236,72.92219261661376 180.16062099958071,72.98772306416504 180.30411461897893,73.01502739193893 180.0773021238274,72.74198344293472 180.36428936259472,72.6764526732295 180.36891818902222,72.59999999999854 180.45223706480465,72.63822635123142 180.39206232118886,72.6655308699228 180.38743349476135,72.60546090910793 180.44297941194964,72.6600699673836 180.38280466833385,72.6218436328636 180.43835058552213,72.6655308699228 180.38280466833385,72.69829627267973 180.3550317097397,72.59999999999854 180.40131997407298,72.68737447414605 180.419835279783,72.60546090910793 180.3504028833122,72.62730453959011 180.4152064533555,72.70375717105344 180.36428936259472,72.63276544570908 180.36428936259472,72.70375717105344 180.0773021238274,72.78567057500186 180.59110185774625,73.29353068338969 178.24428685673047,77.19241385330679 177.97118609727477,77.27431990259356 177.83695013073157,77.22517628912465 177.3879539668269,76.8156442983236 177.62402411486255,76.70097473974965 177.3786963139719,76.7992629489163 177.06856494303793,76.49893725852962 176.9204424972122,76.55900254092194 176.94358662937884,76.73919795516122 177.74900242852164,77.56918056899667 177.80454834570992,77.82035680210174 177.00376137296553,79.08713944355259 177.04079198444379,78.85235025631846" stroke="#4dd2ff" stroke-linecap="round" stroke-linejoin="round" stroke-width="0.5"><title>2025-05-11 17.9km</title><desc>1746934812000</desc></polyline><polyline fill="none" points="33.01842602423858,113.39999999996508 33.76419831276871,116.54861134244129 22.577613986097276,120.09991670760792 22.142580151208676,121.01519552437821 31.589029138092883,137.96570950606838 32.64553988003172,140.1622579380928 32.42802296264563,140.74800176688586 33.857419848791324,142.94453205051832 33.173795251059346,144.00618321812362 33.2359429418575,145.32409035644378 31.80654605559539,145.79999999998836" stroke="#4dd2ff" stroke-linecap="round" stroke-linejoin="round" stroke-width="0.5"><title>2025-05-09 1.4km</title><desc>1746749326000</desc></polyline><polyline fill="none" points="59.9965200999286,119.3840434163867 58.74953455722425,118.97040545771597 58.093226377037354,119.21858833268925 57.699441468692385,118.86010186182102 56.97750247037038,119.43919508140243 56.03679407865275,118.66707042664348 55.46799365559127,117.2055408309534 54.76793159660883,116.92977936643001 55.18359344417695,115.137320844442 54.00223871949129,113.40000000000873 52.645868480205536,113.9515320150822 51.50826763443183,115.02701519498078 51.18011354422197,114.72367435402703 50.89571333269123,115.27520282322075 50.633190060500056,114.75125081259466 50.41442066722084,115.38550833980844 49.97688188031316,115.33035558897245 50.19565127370879,115.57854285153735 49.53934309340548,116.59886512153025 49.75811248680111,115.66127187265374 50.217528213048354,115.44066107591789 49.97688188031316,115.33035558897245 51.83642172452528,114.86155660990335 54.06786953762639,113.40000000000873 55.13983956549782,114.83398016614956 54.724177717929706,117.04008399657323 55.18359344417695,116.87462702921766 56.10242489667144,118.83252595354861 57.10876410640776,119.57707417933852 56.45245592610445,119.77010476139549 56.299317350727506,120.21131684066495 57.41504125727806,122.88614483116544 56.999379409709945,125.42306298289623 61.352890339214355,124.59581049827102 62.77489139663521,124.70611102158728 62.77489139663521,125.03701223705139 62.490491185104474,124.59581049827102 62.81864527531434,124.29248375454335 65.22510860313196,125.34033788395755 68.33163399004843,126.0297126926016 69.20671156374738,126.66393547818006 70.56308180314954,128.84233799374488 69.8630197441671,130.91042032290716 67.63157193106599,133.1990738886816 64.89695451315492,133.69540504062024 65.1376008457737,134.24688269512262 66.16581699496601,134.52262096860795 64.59067736216821,133.86084849204053 66.75649435725063,134.6604899668455 69.6880042294506,134.274456539104 73.21019146381877,135.32225987361744 73.91025352291763,135.87373317134916 78.13250281626824,136.17704285551736 77.60745627211872,145.35884274517593 77.69496402936056,145.8000000000029 78.24188751308247,145.66213845937455 78.4606569064781,144.33866297341592" stroke="#4dd2ff" stroke-linecap="round" stroke-linejoin="round" stroke-width="0.5"><title>2025-05-05 3.1km</title><desc>1746429236000</desc></polyline><polyline fill="none" points="99.15503783008899,113.43827318775948 99.01842717986437,113.39999999999782 98.77556380169699,113.58498678907927 98.14310708770063,113.69980581385244 97.60172414049157,114.31216926888374 97.065400847001,114.53542481912882 97.08563946184586,115.02020469462514 97.2576676880708,115.39654356274332 97.065400847001,116.17472636271123 97.38921868457692,116.29591762126074 97.50559071995667,116.6148405117674 97.66243998502614,116.69138168758218 97.91036301694112,117.03581545602356 98.3454932361783,117.13149106060882 99.0032482187089,117.79483663136125 98.65413211259875,118.49644208185418 98.66931107372511,118.74519062266336 98.77556380169699,118.84724093015029 98.68954968859907,119.01945032803269 98.88687618332915,118.98755974579035 98.90711479820311,119.08323142843801 98.63895315147238,119.00669409769762 98.70472864969634,119.15976863617107 99.99494034628151,119.42126983426351 100.3288774912653,119.4085137115726 100.65269532887032,119.59985519300972 100.78424632537644,119.9315119393832 100.57680052318028,120.30781198875775 100.14672995766159,120.37159136340415 99.49909428250976,120.6968648452712 99.63064527901588,120.95835760188129 99.4333187842567,121.04764748257367 99.0993816392438,121.48133880713067 99.23599228946841,121.55787216025419 99.17021679121535,121.48133880713067 99.05890440955409,121.51960549907744 98.98806925758254,121.69818298818427 98.64401280516176,121.85762660897672 98.21900189336156,121.90227072714333 98.06721228201059,121.78747148159891 97.82940855753259,121.78747148159891 97.73327513699769,122.0680913709657 97.79399098156136,122.15737917079241 97.66749963874463,122.1510014763553 97.51065037367516,122.37422027334105 97.47017314395634,122.73774578881785 97.61690310161794,123.10126852920075 97.85976647981443,123.39463573489775 98.49728284750017,123.65611367756355 99.09432198555442,123.76453094005046 99.61040666417102,124.30023614350284 99.63570493273437,124.54257699396476 99.51933289735462,124.8678219866888 99.08926233183593,125.37162847248692 98.63895315147238,125.55019151733723 98.33031427502283,125.55019151733723 98.32019496761495,125.63947278868 98.18864397107973,125.61396387108834 98.19370362479822,125.7096222416294 98.35561254358618,125.63947278868 99.06396406327258,125.74788553604958 99.30682744143996,125.61396387108834 100.29851956901257,125.90731559851338 100.4300705655478,126.0412364385702 101.34586788740125,126.0858766348938 101.41164338565432,126.16240258839753 101.25479412058485,128.4581240190273 101.38128546337248,129.66333347545515 102.97507638268871,135.70167516438232 103.73402443950181,137.7674157242218 100.36429506726563,139.3485393440933 100.22262476332253,139.48242240243053 97.38415903085843,144.09797019653706 97.00468500246643,145.21353966570678 97.02998327102978,145.74262919879402 96.7820602391439,145.75537827170047 96.94396915793186,145.5067707349299 96.76688127798843,145.79999999999927 96.98950604134006,145.78087640726153 97.09069911559345,145.08604733373068 96.97938673390308,145.07967270817244 97.01480430990341,144.72906698974475 97.0198639636219,145.21353966570678 97.21213080466259,144.15534297762497 99.1499781763705,141.10174007893875 99.144918522652,140.84673307189587 98.92735341301886,140.66822735497408 98.47704423268442,140.59172470016347 98.3910301195574,140.39409227338547 98.26959843048826,140.46422000251914 98.28477739161463,140.55984855773204 98.36067219727556,140.54072286203882 98.38091081214952,140.47697048764167 98.25947912308038,140.48334572891326 98.25441946933279,140.53434762842517 97.88000509465928,140.91048495160067 97.18177288238076,141.06986427769152 97.00468500246643,140.29208811948774 97.22730976578896,140.03070147844483 97.13117634528317,140.02432617660816 97.01480430990341,139.52705000494097 96.80229885398876,139.5589268382828 96.38740724959644,139.1317754997217 96.26597556049819,139.2784099729579 96.39246690331493,138.82575427588745 96.63027062776382,138.40497188383233 97.43475556798512,138.26471026068975 97.48029245139332,138.05431705177398 97.62702240905492,137.93955672806624 97.35886076229508,137.85667410013775 97.34368180116871,137.50601523279693 97.18177288238076,137.46776138204586 97.00468500246643,137.58252284214905 96.95914811905823,137.69090841176512 97.05528153959312,137.7992937348099 97.18683253609925,137.69090841176512 97.02492361731129,137.78654253312925 96.91867088936851,137.50601523279693 96.84783573739696,137.70365963902805 96.43800378672313,138.03519035035424 96.29633348278003,138.50698007767642 96.27609486793517,139.25928376291267" stroke="#4dd2ff" stroke-linecap="round" stroke-linejoin="round" stroke-width="0.5"><title>2025-05-04 11.1km</title><desc>1746326389000</desc></polyline><polyline fill="none" points="143.03710251154553,144.89608769584493 143.0290227107398,144.91527799581763 142.97650400550629,144.9051778438875 142.9498406628445,144.89911774638222 142.90944165881956,144.8657871250175 142.9037857982512,144.85568690829405 142.95711248356747,144.76579439692705 143.01528704936936,144.661760182978 142.99670350751694,144.7102423213155 143.07830949565687,144.6940816423903 143.06457383428278,144.76983453227876 143.10982071879334,144.8395265340364 143.16557134435425,144.93547826001168 143.19223468700875,145.20312676768845 143.29888805764494,145.23241604075793 143.44674841238157,145.28796435671075 143.44432447214422,145.3849204590947 143.56390552406447,145.49197474020775 143.53966612164731,145.4990443102638 143.56471350414358,145.4869250433435 143.64308757195613,145.44854723918752 143.6915663767868,145.49197474020775 143.64147161179426,145.43945773129371 144.08505267601504,145.26776501536278 144.51005019838703,145.22938612111466 144.78476342577414,145.46066656638413 145.24369611152724,145.50813374796235 145.82463378944158,145.47278587454593 146.23751161060136,145.79091090609518 146.3360851804282,145.80000000000018 146.90813507746134,145.67477154160588 146.928334579472,145.3940100312334 146.9331824599576,145.0152687865234 146.95257398188915,144.59509674527226 146.86612011327088,144.2375284750533 146.67786075450203,143.9860086603585 146.66412509313523,143.66073794356362 146.59544678628663,143.38192355366846 146.36517246332733,143.08592478329592 146.28356647519468,142.6979774514225 146.65038943176478,142.5585541115738 146.72149167885436,142.508037786567 146.22781584963377,141.22279115115134 146.03955649086856,140.64577505337502 145.9393669608762,140.60232025323103 146.26498293334225,139.6280599446004 145.78827468581585,138.5000279608962 145.6032472473671,138.08859884789217 145.22834448999492,137.40923781449146 145.48205023528863,134.932904339772 145.25419985257395,134.83986199590527 143.58814492647798,134.81356721662996 143.56148158382348,134.4838635135311 142.51353141935033,134.59916027937743 142.30103265816433,134.4697041425079 142.14994038310397,133.80216137376965 141.94309748247906,132.20690419250695 141.6950475977501,131.21741551490322 140.58165104675209,130.97660044196437 140.17119716583693,130.7367897035233 139.65085799396184,130.62042314828932 138.81298265043006,130.5111381712586 138.37020956629203,130.78738330874012 137.97106740649906,130.6831601185704 136.98209978790692,130.56274515950918 136.64194017399132,130.55970946390653 136.1248329224436,130.44637597047677 135.8202244320746,130.4949476721954 135.48491269864826,130.10332959156085 134.9476059450826,129.97885765228693 134.22365579291,129.79771196164393 134.08791513937467,129.8685515667039 133.96348620697245,129.84729975371965 133.88511213915626,129.8685515667039 133.34942134575613,129.69246334315358 132.96563080749183,129.57709300987835 132.78625922960782,129.49916645426038 132.19643377080865,129.26335790945404 131.5662093079809,129.23906820638285 131.05637387715979,129.32509389266852 130.70167062179826,129.47487749623815 130.42534143424564,129.8786714570042 130.29525664127868,130.32798116215554 129.98256835010397,130.67304128701744 129.88641872051448,130.89565250559326 129.83955587584933,130.85517821788426 129.78380525028842,130.865296809784 129.87995487987428,130.9098184559648 129.54221920620694,131.66968226897552 129.5470670866889,131.8598894249617 129.64240873618837,131.9570146692713 130.0286232146973,131.85483078488824 130.49886762157985,131.65754122698172 130.9812317296637,132.10371193205128 131.0806132795733,132.0349163226906 131.08869308037538,131.71622275241998 131.43612451501394,131.59278867934745 131.55732152709606,131.85280732792717 131.57428910878662,132.0318812081041 131.64619933595532,132.10472362760038 131.54843374621123,132.22410276799974 131.4740995787979,132.27873328216674 131.37229408865096,132.45375065037342 131.5452018258875,132.53164727367675 131.51530656290925,132.6874381541311 131.51288262266462,132.6894613915647 131.5460098059666,132.5306356342744 131.3706781284891,132.46892537911344 131.47005967839868,132.27873328216674 131.58802477015706,132.3283050796481 131.78032402932513,132.45880889661294 131.90636892189286,132.55390330689352 132.07766069896752,132.5650312993571 132.41862829296224,132.50736789127996 132.4493315360196,132.44768075049842 132.28288763943056,132.43554093638113 132.60850361188932,132.39912137907913 132.60446371148646,132.36067832599247 132.37903726901277,132.35056170114603 132.3612617072431,132.32122341385093 132.62466321350075,132.30503672469194 132.68768565978462,132.29593169707414 132.74666820566563,132.30503672469194 132.78060336905037,132.3950747509598 132.82908217388103,132.3465150474808 132.89856846080875,132.34449171985034 132.8371619746831,132.44161084583538 132.81453853243147,132.58728723599415 133.04481285538714,132.9868715070952 132.94947120588404,133.1760345446246 132.7717155881619,133.03643874198133 132.63274301430647,132.91403743975252 132.38388514949838,133.02025355753494 132.35802978691936,133.13152601300544 132.40731657183278,133.33383544579465 132.31116694225057,133.3500199706291 132.2998552211211,133.3024778320564 132.29339138047362,133.33687004679223 132.23764075491636,133.30146629400042 132.15199486638085,133.29944321749463 131.8223389935156,133.5654732145017 131.81183525246524,133.5411970942232 131.8174911130336,133.4997252115768 131.82637889391845,133.32675470547565 131.82880283415943,133.3287777748028 131.86677789794703,133.21649662267146 131.84173051545076,133.1608612104974 131.87728163899374,133.12950289181708 131.83203475447954,133.17502298994486 131.86920183818802,133.21143887455173 131.84011455528525,133.37530822252847 131.81102727238977,133.47241433752833 131.8223389935156,133.5664847178491 132.09866818106093,133.34293924520216 132.23198489435526,133.2974201404545 132.25299237644867,133.36316987198688 132.2764237987867,133.37025057879737 132.28046369918593,133.35912375088446 132.2764237987867,133.36418140193246 132.3741893885308,133.35103150230043 132.4024686913508,133.2326813943141 132.39034899014223,133.01216095254813 132.6691021179322,132.90493313285424 132.76767568775904,133.03340402248978 133.00926173184416,133.19930026549764 133.19509715037202,133.14872252165378 133.26377545721698,133.013172528636 133.49162583993166,133.08297095760327 133.71947622264634,133.23470448837952 133.83501737416373,133.08297095760327 134.06771563736402,133.0647627328317 134.39575555006377,133.03745031487733 134.6494612953611,133.23672758190605 134.91851866217985,133.30348936997962 134.87003985734918,133.2782008820418 134.883775518716,133.17502298994486 134.94114210443877,133.07993625646805 134.97265332757888,132.9969872952497 135.25383039560984,132.71879827460225 135.57944636807224,132.64798491777128 135.8840548584376,132.41530787027796 137.0289626325757,132.2089275563253 137.7472569241836,131.9772489408101 138.38717714798258,131.653494208726 138.54069336328757,131.14355286988257 139.32039414101382,130.97862412945415 139.31473828045273,129.634778392925 139.31393030036998,129.28461133668452 139.32524202149943,128.9819974777688 138.9317557222712,128.69455388412462 138.47605495684184,128.40608735861088 138.40980059023786,128.19453835879267 138.32657864194334,127.87264880557268 138.03893773326854,127.54264740582903 138.01469833084775,127.35638269028641 138.05832925520008,126.64570082981845 138.04701753407062,126.36728189515725 137.6777706372559,125.79927597790766 137.44830429438298,125.51475098660148 137.2228778519093,125.36489017001031 137.15339156498158,125.11579072152517 137.09279305894597,124.00790912034563 136.8358553933249,123.80130291170417 136.28158105807233,123.77091917681491 135.0082044511255,123.58557579013723 134.27698247822627,123.42149758292953 134.10569070115162,123.09434353038569 133.95783034641136,122.84820915493628 133.57161586790608,122.84314457875098 133.27104727794358,123.06496988383151 132.90907220185545,123.44479285062653 132.56164076722052,123.2290557110673 132.35722180684024,122.93228063153492 131.76739634804107,122.25867004214615 131.55732152709606,122.15737010319981 130.89316190087993,120.99333784826968 130.70167062179826,120.07434692412517 130.52391500407248,119.87371464047101 130.34292746603023,119.57984980387937 129.46869301887637,117.23359394561066 129.48646858064603,117.10181746453645 129.86621921850747,117.08255763527359 130.0318551350174,116.56657893329202 130.16113194790523,116.4003229944019 129.0283438749757,116.37903386373091 128.772214189441,116.32327633650311 128.559715428255,116.00798523279627 128.34964060731363,115.96439090842841 128.0005932125132,115.27800106638824 127.51257324386461,114.79941815290931 126.52360562527247,114.39280197867447 125.95640360872494,114.44350342740381 125.07328138068624,113.4152124412276 125.0700494603625,113.46490620536588 125.06035369939491,113.4598354278769 125.06116167947766,113.45577880346855 125.06520157988052,113.46997697950019 125.03773025714327,113.47301944236324" stroke="red" stroke-linecap="round" stroke-linejoin="round" stroke-width="0.5"><title>2025-05-03 98.8km</title><desc>1746244765000</desc></polyline><polyline fill="none" points="171.8978742391082,113.55964563455291 171.64363108612088,113.64753881386196 171.59221112259183,113.65471371685953 171.29440383383917,113.52466741898115 171.10086480445534,113.40000000000009 170.96088823708124,113.41255653474627 170.89661328267175,113.51031732949696 170.74878088754122,113.58296434444992 170.65951011752622,113.6654760570791 170.55809852279708,113.79103542782968 170.33385034852836,114.31566901431506 170.27743122188258,114.41341675894864 170.22815375683786,114.4403195601044 170.17816212563412,114.49950534610161 169.77822907598602,114.53178828387809 169.58683254508287,114.56048409925961 169.1211962087109,114.57662544192817 168.94194050253282,114.41251999706947 167.69643471934978,114.2035712384527 167.22651338601645,115.00973709144682 166.92584943262045,115.39081654770598 166.79015786220407,115.61048789549841 166.73730956636064,115.71090670831245 166.5401997061781,116.19146182973554 166.34880317527495,116.39317722726173 166.22168159877765,116.69439436427865 166.00743175075695,117.08434307251673 165.91601848226492,117.21790654649249 166.00671758459794,117.36670570329034 165.90316349138448,117.5531482238739 165.82103438297418,117.73689664667609 165.85745685713846,117.98069173553631 165.83603187233894,118.5256137302622 165.82531937993554,118.56415096131968 165.46180880445536,119.09648004506607 165.33397306179904,119.34022620068481 165.24041729482633,119.39220034941718 164.96474915703948,119.62070265238617 164.7669251306943,119.86353390753538 164.52767946706444,120.06334793331416 164.60838024315672,120.28465972984577 164.59766775075695,120.33035478750571 164.33913960080463,120.36171396249756 164.26843715096038,120.3473783576519 164.2527254954366,120.45489465475157 164.47625950354268,120.97990806870393 165.0197399513636,122.52335531566041 165.16257318338103,122.78399570437887 165.326831400198,122.94968971117487 165.46180880445536,123.1816545186548 165.59964287334878,123.37510172624297 165.65606199999456,123.51839239636865 165.7439044376879,123.60705198228243 165.5260837588612,123.86048662874873 165.67463032015803,124.10406153362464 165.74033360688554,124.24017311183934 165.96458178115063,124.62521081096065 166.12741166564956,124.83562915516131 166.17883162917497,124.86875825721381 166.2802432239041,124.90457332068445 166.49449307193208,125.0845411524615 166.65803712259003,125.20272638528331 166.96441440526542,125.38895348334745 166.98155439310722,125.75423025301461 167.04440101519504,125.83838436879523 167.17580758865006,125.90821358745643 167.36220495643283,125.92432792048294 167.48147070516643,125.97356592319466 167.56074314892976,125.72110547437751 167.5778831367752,125.70230485240108 167.64501475582438,125.70857173218064 167.67500973454662,125.68618999210548 167.71143220871454,125.6459026739276 167.77713549543842,125.52682986858872 167.85212294224766,125.4426718886707 168.066372790272,125.32090955937747 168.19635103140536,125.28151539675355 168.29276346301776,125.27345747167237 168.31775927861963,125.30210782847598 168.5520057791291,125.46147323005516 168.8169614245162,125.74617288930995 169.14047869503338,126.00400378254108 169.62539751773147,126.21169376697708 169.9846230962503,126.42743395983143 170.46882775278573,126.24213055826931 170.5273893779122,126.25197772622323 170.6959325916905,126.24213055826931 170.84447915299097,126.26898643721961 170.93589242147937,126.34060159485534 171.01516486524997,126.48651514004632 171.08586731509786,126.6691264454771 171.11086313069973,126.78728408383085 171.26012385815557,127.16322652200779 171.2415555379921,127.34313446533633 171.24512636879444,127.49081652697123 171.22013055319258,127.62238511214264 171.23369971023203,127.71457110498159 171.29297550152114,127.79691093340762 171.34225296656587,128.00186116994928 171.33368297264315,128.39026517008142 171.7329018561286,128.6327826676884 171.75932600405213,129.33254475577814 171.83145678622532,129.60008179538863 171.85002510638515,129.7369779439391 171.84431177710576,129.82287215789984 171.88859007902647,129.93739608697388 171.8807342512664,129.96871088766875 171.85073927254416,129.98660499468087 171.84502594326477,130.04028703289487 171.8600234326259,130.09128457626548 171.92001339007038,130.17180623368586 171.95000836879626,130.27916695892372 172.45635217629388,130.45541380391796 172.51062880445897,130.51177604325176 172.58990124822958,130.668335365865 172.59275791286927,130.79626401966698 172.6763153535976,130.8848285997442 172.71702282472688,130.97070830220855 172.73416281256505,131.02080429404168 172.73130614792535,131.049430409264 172.71702282472688,131.0628488592597 172.73130614792535,131.14335900275682 172.95841098683013,131.4528668940743 172.96341014994687,131.61029902518476 173.02697093819734,131.99581344591752 172.99911845795577,132.1183505725876 173.12981086524815,132.17291018823835 173.25121911246242,132.19437614647404 173.49760643768968,132.19527055992785 173.98752442350815,132.23820226736507 174.26747755826,132.2426743046285 174.2746192198574,132.2283637750288 174.30390003242428,132.2283637750288 175.0430620081097,132.823119766299 175.07091448835126,132.82938007891653 175.18375274164646,133.35969706164724 175.50298501520228,134.55611194801895 175.5379791570449,134.87619324495017 175.66938573049993,135.30711689827376 175.70009487538118,135.52972029104467 175.74794400810788,135.6030258380497 175.83721477811923,135.69152782397578 175.8764939169232,135.71119477560023 175.98647550557507,135.73354351525495 176.06217711854333,135.73354351525495 176.10859791894836,135.75499823624932 176.69064333941424,135.68527014562414 176.70706916109702,135.72549797743523 176.7084974934187,135.96149646624235 176.73063664438087,136.00261657757483 176.78348494022794,136.01960089885824 178.1953914387086,136.01602525579483 178.3146571874422,136.03032781677075 178.4474920932189,136.06429627858415 178.50391121986468,136.056251131904 178.6110361438732,136.09647677018165 178.68530942452708,136.10899136469516 178.8567093029451,136.09379506836012 178.70459191084592,136.93400992475972 178.74244271732823,136.95724843573453 178.8402834812623,136.96350494436228 178.75172687740996,137.22984812002414 178.758154372852,137.25934185748656 179.03525084296416,137.324585125647 179.14166160081732,137.37820926133054 179.2180773799446,137.39250895948453 179.2716398419543,137.4175333589701 178.8709926261472,138.22094643310675 178.8802767862253,138.23256350175143 179.03239417832083,138.24149969490963 179.05024833232528,138.32639294486762 179.08095747721018,138.33979704545618 179.13237744073558,138.39877477450318 179.13809077001497,138.42736985315423 179.18094073961765,138.44256093983267 179.1959382289824,138.47741095177662 179.37376560284247,138.41396592499132 179.17165657953956,140.58148501145206 179.0788149787295,141.2835918273763 179.07024498480678,141.4220394647814 179.10309662817235,141.62836588446817 179.34448479027924,142.44557149086768 179.39090559068427,142.577744174087 179.49303135157606,142.79207280640685 179.47303469909457,142.82243548426504 179.1130949544131,142.96085186065284 179.20807905370384,143.38590651765344 179.33305813172046,143.73057423702403 179.3430564579612,144.01986736842628 179.52445466261997,144.4091436909962 179.5787312907887,144.49396012438365 179.67942871935884,144.5877033759416 179.71299452888343,144.66894648482685 179.6979970395223,145.18852237907868 179.7472745045634,145.7107366113296 179.36019644579937,145.78036215472048 179.03239417832083,145.76072425290522 178.85456680446077,145.80000000000018 178.6581711104409,145.4474028082168 178.4989120567443,145.44829548235248 178.27894887943694,145.42062252986352 178.1911064417436,145.44561745960073 178.10183567173954,145.40276895254055 177.84973501722925,145.395627508527 177.6583384863261,145.3509933140067 177.4483736352595,145.3367103100677 177.15270884499114,145.27868529896386 176.85704405471552,145.31171498119738 176.76491662006447,145.39919823146738 176.79348326646868,145.41972985210896 176.80490992502746,145.4054469921175 176.81633658358987,145.4081250306458 176.8056240911901,145.4045543123766 176.81990741439222,145.40991038907896 176.8227640790319,145.43312000618107" stroke="red" stroke-linecap="round" stroke-linejoin="round" stroke-width="0.5"><title>2025-05-03 66.9km</title><desc>1746236322000</desc></polyline><polyline fill="none" points="42.19403786002658,154.58944916188193 41.59894621069543,154.1999999999971 40.937733266851865,154.8490815838304 40.51896506908815,154.38174302122206 35.9345553254243,156.6924636667245 36.11087877722457,157.67905668525782 35.53782755928114,159.62626779354468 35.692110579344444,160.17148406026536 34.766412458149716,161.9369377207331 32.89297578402329,163.02735846528958 31.746873348136432,164.22162309505802 31.636671190848574,164.81875317162485 31.239943424589,164.76682887643983 30.115881420089863,165.98704683188407 28.815495964023285,166.03897086197685 28.330606471863575,166.81782995951653 27.603272233740427,167.05148719376302 23.900479748495854,171.02362522034673 22.31356868345756,171.1793939936906 21.65235573973041,170.86785634556145 20.440132009331137,168.11592281413323 19.64667647681199,168.4274640500371 18.522614472429268,166.61013444844866 17.112026858958416,165.8053126376908 12.92434488167055,170.91977931513975 12.770061861374415,172.5034244673734 12.96842574456241,173.15245633393351 13.850043002981693,173.56783580344927 13.894123865757138,176.16394113049319 15.06226673326455,178.44849048997276 14.952064575860277,178.9157819867978 14.863902850076556,178.6302150695119 16.054086148855276,177.74755153160368 17.376512036542408,175.54087842408626 19.205867847660556,175.28126848359534 20.37401071493514,176.6831588116911 21.32174926775042,179.46095424491796 22.027043074485846,180.2916905326565 24.231086220475845,180.7589784255979 26.28084634616971,181.82335299314582 28.617132080951706,181.40798787222593 29.410587613354437,182.08295582710707 29.56487063365057,183.38096576737007 28.727334238239564,186.60000000000582 30.29220487177372,184.91260842996417 31.328105150489137,184.78280858501967 32.49624801776372,185.302007541919 36.46352568047587,182.6800412752491 38.799811415257864,180.39553236559732 39.81367126246914,180.0840067314566 40.10019687132444,177.25429695809726 42.37036131171044,177.48794398827886 43.229938138625585,176.5014327515819 42.127916565630585,169.38804697032901 40.937733266851865,166.40243875676242 41.951593114063144,165.00048811615852 42.01771440845914,164.2735475087975 40.45284377480857,161.59942552944995 41.22425887582358,158.17235166688624 42.03975483973045,156.1991656297323 42.546684763394296,155.83568221397582" stroke="#4dd2ff" stroke-linecap="round" stroke-linejoin="round" stroke-width="0.5"><title>2025-04-28 5.2km</title><desc>1745795058000</desc></polyline><polyline fill="none" points="58.921338539454155,185.15368910120742 59.026595771778375,186.60000000000582 58.95642428356223,185.9388306676119 58.50030961004086,185.81486116202723 59.009052899782546,185.87684592486767 58.76345269090962,183.9139852940425 59.97391086292919,183.0875116014795 59.149395876098424,182.426330062357 58.7108240746893,181.53786375078198 58.58802397036925,180.25681199714018 59.16693874821067,179.76091867987998 59.85111075849272,178.35588059443398 61.166826162836514,176.86818189904443 64.39471462124493,174.67793764697853 65.90340161824133,173.21087314904435 67.06123117404059,172.61164636723697 67.1138597902609,170.50400613885722 68.60500391514506,170.91727076932148 69.49969039007556,170.19405707686383 68.56991817103699,164.22227320708043 67.72786031232681,161.9285624375043 68.51728955481667,160.9160146483773 68.55237529892474,160.1720985519496 68.46466093871277,159.6554884396901 67.37700287112966,158.43628301100398 67.6752316961065,156.05984318585251 68.51728955481667,154.1999999999971" stroke="#4dd2ff" stroke-linecap="round" stroke-linejoin="round" stroke-width="0.5"><title>2025-04-27 2.3km</title><desc>1745711220000</desc></polyline><polyline fill="none" points="87.35026037332136,154.25545008010886 88.01507063503959,154.20000000000073 88.43626389135898,154.3108999657925 89.15243918433407,154.34035763848078 89.33882086919039,154.42699753425404 90.0300474327014,154.89137928568562 90.15185593539354,155.08371251049903 90.52315173279203,155.9067336772805 90.53489231135609,156.05054140199536 90.6185439336914,156.1423697470982 90.8665636560545,156.58764303133103 91.07495892573206,156.8198038975188 91.94229416784219,157.56997206427877 92.3194602545118,157.95283864406701 92.40017673220427,158.09489538074558 92.25341950004076,158.212697560979 92.0905189723344,158.2525422175877 91.55779021955823,158.5366490349461 90.76970388282643,158.83460924178507 90.25165085326444,159.09618596203836 89.41073191295436,159.70420521070992 89.01155224145623,160.08528798931184 88.78994882088591,160.35030833111887 88.57568326192268,160.66035917761656 88.17503601810313,161.3168155117346 88.11046283594624,161.47269824093564 88.1089952636321,161.58354724796118 87.84629981804756,162.27287209206224 87.73623189391947,162.43047732638843 87.59681252336304,162.79244384938102 87.40309297689964,163.15786577443214 86.65022837587458,164.21425140870997 86.35964905619039,164.56925043621413 86.12483748472005,164.9017301154272 86.13511049097724,164.92943644037769 86.20555396241252,164.88095033991522 86.64142294195335,164.29044699249607 86.70746369643166,164.2679346990717 86.76616658929561,164.2921787060459 87.38694968135678,164.69739447238135 87.59681252336304,164.79609930700826 88.84278142446419,165.5597422427236 93.10020872964378,168.70050783122315 93.61385904223425,169.1263851214644 95.32211322466173,170.22391857223192 95.91060972565901,170.4801141812568 96.57248484272714,170.6549479974874 96.95405364636099,170.69303035523808 97.90944322777796,170.96825922163407 98.10609791888419,171.0028788665877 98.12517635905533,170.97691413995744 98.67551597969577,171.1638592227555 99.09377409136505,171.37503527646368 99.42838058071356,171.6017867605624 99.45626445482048,171.56197566594346 99.47827803964901,171.57063026023388 99.71602475575492,171.75237564926647 99.77179250397603,171.73160485308108 99.77619522094756,171.70910312651722 100.00513650313223,171.80257162774433 100.12400986118882,171.93238807669877 100.27957252728083,171.9600821149561 100.3764323005089,172.01373917645105 100.41458918087301,172.06047259823208 100.39551074069459,172.03797133827175 100.40284860230167,172.1262453289346 100.46448663980846,172.0933589976812 100.51144895410835,172.10720588230834 101.10875088902685,172.43606583921792 101.16451863724797,172.48972129043432 101.16598620956938,172.4672206394407 101.31127586941875,172.5174143555214 101.45509795693943,172.5329916833889 101.64588235875999,172.595300841871 101.63120663553855,172.60741648314797 101.86601820700889,172.65760975556623 101.93059138917306,172.7078028691576 101.97461855881556,172.86703514381043 102.01717815613665,172.90857373517974 102.19475440706447,172.89991987094982 102.51615274552023,173.10241905662224 103.58014267872204,173.43645052571992 103.77532979750686,173.53163955293894 103.70488632607157,173.53683166526753 103.58161025105073,173.50394825847434 103.58894811265782,173.48664117489352 103.4847504778154,173.5524079920615 103.28369306974491,173.97123237814594 103.15307913312427,174.16506471490356 102.81847264378302,174.53195515453262 102.68198841786216,174.81577024062244 102.58806378926965,174.91787320671938 102.54256904730573,175.0130533461088 102.37820094727795,175.17399301019032 102.14192180348618,175.4854844971851 101.7398069873525,175.85926621075305 101.55929559177457,176.1240229312989 101.55782801946043,176.1724746634718 101.5813091766031,176.16901383036384 113.78564060365898,186.5463922069448 113.80325147151598,186.53947505918586 113.78710817598039,186.56195577839026 113.81792719473742,186.57233148422347 113.81205690544448,186.5463922069448 113.87516251527995,186.60000000000036" stroke="#ffc800" stroke-linecap="round" stroke-linejoin="round" stroke-width="0.5"><title>2025-04-20 36.9km</title><desc>1745145130000</desc></polyline><polyline fill="none" points="128.75598067205283,155.39042261174473 128.51030502832145,155.35020594469097 128.38064288304304,155.47889920217858 128.09402129871887,155.47889920217858 128.27145370806102,155.38237928009767 128.29875100179925,155.2215124630602 128.05307535809698,154.9078211622691 128.09402129871887,154.77108351171773 127.99165644714958,154.9239079280378 128.18956182681723,155.16520899432362 128.5648996157979,155.14107892317406 128.46253476428683,155.55933237420686 128.00530509400414,155.6236788488386 127.43888624879764,155.36629261413327 127.58902136440156,154.64238902118814 127.8483456549875,154.20000000000437 128.6467914970417,154.3528255977435 129.083548197028,155.04455855969718 128.27145370806102,155.93736710990197 127.86199430184206,156.05801608641195 127.90294024246396,156.1947513549312 127.75280512686004,156.0338863068755 127.2614538394264,155.96149692095787 127.29557545663556,156.2590972760663 127.71185918626725,156.9186397365338 128.30557532524108,158.91331768824602 128.57172393926885,159.33154978405946 136.7336147694441,161.93740412987245 137.4638173771673,162.0419580964808 138.03706054581562,161.97761721143615 138.18719566144864,162.178682291109 139.27908741129795,164.67988614745263 140.9646953001211,170.67117170330312 143.86503276068834,178.18974898635497 144.7385461605736,181.2050063368588 144.64982995591708,181.43818111638393 142.24084378275438,182.21810520841245 142.35685728120734,182.75681086032273 144.47922186998767,186.42312120246788 144.4246272824821,186.59999999999854 144.24719487311086,186.31056174739933" stroke="#4dd2ff" stroke-linecap="round" stroke-linejoin="round" stroke-width="0.5"><title>2025-04-16 7.1km</title><desc>1744770713000</desc></polyline><polyline fill="none" points="161.29677419387735,159.5906938687549 161.06451612897217,160.46913878171472 161.8000000002794,161.6891976458137 160.94838709686883,162.61643964902032 161.6838709677104,162.66524179422413 180.84516129037365,180.6239873028535 181.54193548415788,179.9895901849377 181.00000000023283,179.25759213746642 181.65806451626122,177.50079082124284 183.012903225841,176.62238698572037 181.92903225822374,181.01438498016796 184.0967741936911,181.69757990844664 185.64516129065305,178.4767925986671 185.95483870990574,178.81839260284323 185.91612903238274,177.0127889519208 187.4258064518217,177.0127889519208 187.23225806467235,175.79278141795658 188.20000000018626,175.89038217105553 187.27096774219535,183.99115350973443 187.73548387130722,184.18635059605003 187.038709677523,185.16233445919352 187.50322580663487,183.99115350973443 186.84516129037365,182.72236989819794 186.03225806471892,183.94235422179918 184.63870967761613,183.30796288340935 181.58064516144805,183.55195968277985 174.4580645163078,176.42718584561953 173.52903225831687,176.71998751655337 174.22580645163544,176.13438393932302 166.83225806453265,169.20467011854635 163.7354838710744,170.08309184364043 162.38064516126178,168.81425978284096 162.4580645163078,168.03343785609468 162.0709677420091,169.30227263693814 160.63870967761613,169.88788719888544 159.59354838728905,169.74148364673601 159.40000000037253,169.05826629177318 158.74193548387848,170.8639093763486 158.4709677421488,170.27829638362164 157.077419355046,170.81510832961067 157.92903225822374,168.71665713362745 156.7677419357933,166.6669954562385 155.80000000004657,161.59159308695234 156.41935483878478,161.15237224908196 157.8516129036434,161.6891976458137 161.4129032259807,160.37153389601735 160.83225806476548,158.175417052611 159.86451612925157,157.68738928899984 160.79354838724248,157.58978365786606 159.98064516135491,155.63766554085305 160.75483870971948,156.2721050765831 160.87096774205565,157.83379768682062 160.25161290355027,158.32182525409735 160.44516129046679,156.12569605108" stroke="#4dd2ff" stroke-linecap="round" stroke-linejoin="round" stroke-width="0.5"><title>2025-04-07 2.7km</title><desc>1743986187000</desc></polyline><polyline fill="none" points="29.189233279088512,211.4833172984363 26.78433931490872,211.28341020396329 28.132137031061575,210.350508304502 29.691353996749967,210.3171903148468 30.827732463367283,209.1177397116553 30.484176182886586,208.65128513668606 29.47993474721443,208.8178761567542 25.595106035936624,204.48647335801797 21.94812398054637,204.7863421367365 20.49461663956754,205.45271590576158 19.675367047428153,206.48559171825764 18.538988580810837,205.21948528976645 17.87830342585221,205.0195731590502 16.926916802767664,205.48603454728436 14.601305057294667,203.6868215133145 11.800000000046566,205.18616661254782 13.279934747260995,203.9866912563739 14.892006525420584,203.6201837434637 16.689070146996528,205.31944129482144 18.089722675387748,204.98625445502694 19.675367047428153,206.45227321067068 20.6267536705127,205.41939725974225 22.2916802612599,204.75302340144117 25.859380097943358,204.5531108956493 30.114192496053874,209.78410187221016 29.47993474721443,210.350508304502 27.260032626450993,210.38382628977706 25.542251223465428,211.41668161815323 30.193474714644253,211.51663513187668 34.47471451887395,210.48378021882672 35.531810766784474,213.34910909665632 36.37748776515946,213.7156022690615 40.31517128867563,213.5823320870404 44.17357259383425,217.0806506925146 44.20000000006985,217.4471383648197 42.56150081555825,218.1467951485829 40.42088091361802,218.41333054842835 40.26231647643726,218.77981625653047 40.57944535068236,218.3800136390346" stroke="#4dd2ff" stroke-linecap="round" stroke-linejoin="round" stroke-width="0.5"><title>2025-04-04 2.7km</title><desc>1743741381000</desc></polyline><polyline fill="none" points="77.4756782327313,210.0010337872518 75.91208808647934,211.01883798153722 75.37717566813808,210.8734376666398 74.84226324979682,211.69737153104506 73.31982021289878,212.13357058014662 73.03179044905119,211.84277130881674 73.7312913039932,210.65533701666573 73.44326154014561,210.31606891509728 70.60411101172213,210.849204271668 69.61658039316535,210.72803725699487 68.50560844724532,209.92833330990106 67.78553403785918,208.3289168148185 67.90897536522243,207.91694404209557 69.24625641119201,207.3595679031423 69.06109442026354,205.20275146087806 68.13528446527198,204.18492072810477 66.63341498281807,203.94257939298404 66.03678190079518,204.83924101808225 65.5018694823375,204.52419815507892 63.506234690663405,207.18993141049577 61.7574825535994,208.71665520008537 61.181423026137054,208.8862905316928 59.80299487092998,208.52278609176574 59.20636178890709,206.99606097525975 58.87718491605483,210.0495007589634 59.432670888956636,211.57620497715834 59.04177335242275,211.261171628983 59.06234690709971,210.70380384621967 59.57668577088043,210.67957043270872 60.62593705311883,211.50350501322828 60.83167259872425,212.1820370885107 62.39526274474338,213.29676387450309 61.71633544447832,213.73295979628165 61.8603503262857,214.12068878833088 59.12406757066492,214.87191179300135 58.69202292500995,213.82989210744563 57.37531543371733,212.32743655037484 57.29302121535875,206.65678730806394 55.91459306026809,206.87489186758467 54.680179787101224,205.85706876506447 53.98067893227562,206.05094019023818 55.60598974197637,203.77294030159828 57.004991451627575,204.49996407024446 58.01309562486131,206.19634364859667 59.41209733451251,205.05734735482838 61.11970236245543,204.8634750659985 62.60099829023238,203.28825647266058 63.19763137237169,203.19131958046637 63.423940472421236,203.8456427850906 63.053616490447894,202.73086876735033 63.44451402698178,202.29465133073973 62.724439617595635,202.39158861256146 62.62157184490934,202.82780585964792 62.29239497205708,202.44005723773444 63.21820492693223,201.93113614853064 61.98379165364895,202.51276015568874 62.06608587189112,202.92474290980317 62.39526274474338,202.73086876735033 62.9507487177616,203.02167991781607 61.24314368981868,204.7907729142462 59.37095022527501,205.1058154007187 58.15711050666869,206.19634364859667 56.90212367894128,204.45149589273205 55.42082775104791,203.79717446544964 53.87781115947291,206.24481144700258 51.77930859499611,208.4985524413496 51.75873504043557,210.5826367525733 52.58167722262442,210.97037122043548 52.58167722262442,211.81853801918624 51.22382262197789,211.77007143177616 50.29801266710274,209.49212994865957 50.52432176715229,210.31606891509728 50.31858622166328,211.18847156240372 50.03055645793211,211.52773833715764 49.35162915766705,211.28540497928043 48.89901095745154,212.98173295614833 49.475070484913886,216.20472057542065 50.359733330784366,217.14979834163387 50.91521930380259,218.6279888706049 50.77120442176238,219.98500761848118 49.92768868524581,220.639281565469 49.70137958496343,219.91231039480772 49.88654157600831,219.64575370535022 50.400880439789034,219.96077521321422 49.88654157600831,220.9058370677667 50.73005731275771,222.06898462386744 51.22382262197789,225.02529070200399 54.70075334154535,227.08498899611004 57.62219808832742,227.39999999999418 58.733170034131035,227.3030735846114 61.695761889917776,225.46146369242342 65.91334057343192,226.43073395159445 66.9008711919887,226.04302635324711 69.69887461140752,222.50516339395836 69.28740352031309,221.75396609294694 67.72381337417755,221.48741160385543 67.37406294676475,221.07546313079365 67.003738964675,219.18533685526927 68.87593242921866,217.9494764012925 69.53428617492318,216.56821249781933 70.3983754661167,215.96239229821367 70.11034570238553,214.7749799345329 68.85535887465812,213.95105743722524 69.34912418399472,211.23693827605166 69.90461015689652,210.65533701666573 71.4887738575926,210.50993646483403 73.85473263124004,209.5405970308493 74.69824836798944,209.80716579512227 75.21258723165374,210.75227066515072 75.80922031390946,210.92190444873995 77.99001709651202,209.3951957525278 79.10098904243205,209.10439291133662 78.89525349694304,207.09299621389073 77.84600221470464,204.18492072810477 78.77181216957979,203.19131958046637 78.89525349694304,202.2704170037032 77.35223690536804,200.08931678670342 77.70198733278085,197.90819524091785 78.93640060606413,194.99999999998545" stroke="#4dd2ff" stroke-linecap="round" stroke-linejoin="round" stroke-width="0.5"><title>2025-04-01 8.4km</title><desc>1743465137000</desc></polyline><polyline fill="none" points="93.87663731607608,206.0499254213064 93.19626368465833,205.80021204409422 94.400001648115,205.612926936883 95.28972101211548,206.61178010556614 96.02243107743561,204.42678644298576 95.39439387875609,203.36550067539793 91.88785285479389,202.55392782448325 90.57944202469662,198.99547888053348 88.06729323137552,199.86948601703625 87.22991030011326,197.99661188130267 93.51028228364885,195.0 92.72523578582332,195.87401348521234 94.66168381413445,197.06017242214875 91.99252572096884,198.183899581898 95.08037527953275,196.9977430680883 104.44859682186507,212.35515062790364 107.53644638042897,211.04416915989714 108.3214928782545,211.54359103995375 109.78691300773062,214.1031210583751 108.9495300767012,213.04185395938111 107.79812854668126,214.66496751696104 109.57756727514789,213.29156404925743 110.0485951739829,213.7909838889027 108.16448357864283,213.91583877778612 111.88037033588625,218.72273045853944 107.9028014128562,220.34582725423388 108.37382931169122,222.84288989647757 109.83924944116734,222.7180370335118 109.62990370835178,223.34230106469477 104.02990535623394,223.46715378580848 104.08224178967066,222.59318414214067 104.81495185405947,223.46715378580848 104.2915875222534,222.40590475226054 106.33270841697231,224.71567943954142 110.51962307258509,224.84053184912773 109.73457657475956,224.84053184912773 110.72896880540065,223.15502192964777 110.62429593899287,220.15854709915584 111.77569746947847,220.7203873731196 112.77008969988674,221.84406619967194 112.50840753410012,222.90531631733757 110.36261377320625,222.2810517901671 106.69906344939955,224.77810564800166 108.68784791091457,224.9029580433853 111.82803390244953,227.40000000002328" stroke="#4dd2ff" stroke-linecap="round" stroke-linejoin="round" stroke-width="0.5"><title>2025-03-30 2.1km</title><desc>1743318651000</desc></polyline><polyline fill="none" points="145.37060467060655,195.89418623351958 145.23831378133036,195.0 142.54839902883396,195.99938450055197 142.72478688135743,197.15656386158662 139.99077516561374,197.73515245874296 140.0789690921083,199.36571643748903 138.57967234472744,200.15469694856438 138.57967234472744,200.8910775471304 138.13870271318592,200.4702887768799 138.05050878669135,201.4170629727014 137.60953915514983,199.0501238569268 138.0064118236769,199.52351264710887 137.25676345010288,199.9969009536726 131.480061276583,200.73328180299723 132.05332179763354,200.83847897170926 132.0092248346191,202.73202392528765 130.50992808723822,202.10084313360858 127.20265585044399,202.73202392528765 127.11446192418225,204.25737395667238 128.96653437661007,204.04698114731582 130.15715238195844,209.9379437105963 129.93666756595485,208.67560089263134 130.73041290300898,207.99183043080848 127.33494673995301,209.2015774846659 126.6734922924079,210.35872388602002 126.62939532916062,209.09638221396017 129.5838918609079,207.99183043080848 130.8186068290379,209.09638221396017 130.15715238195844,209.78015104643418 131.03909164504148,222.8767593902594 131.21547949756496,224.7176184527052 132.2738066134043,225.50655581310275 129.89257060317323,225.82213038139162 129.89257060317323,227.39999999999418 129.14292222936638,226.76885279701673" stroke="#4dd2ff" stroke-linecap="round" stroke-linejoin="round" stroke-width="0.5"><title>2025-03-30 1.4km</title><desc>1743309591000</desc></polyline><polyline fill="none" points="177.16330991860013,199.53075827797875 176.90689272177406,201.31558014536859 178.21228936023545,202.71597001614282 178.5386385199381,203.86922643592698 178.39877459441777,204.69297779956833 177.4896590783028,205.76385055819992 178.88829833385535,211.09068865259178 178.0957360890461,211.6947559878463 177.32648449845146,211.50255290136556 176.8136501046829,212.35373688893742 175.60149608319625,213.12254576868145 174.57582729577553,213.2323754177196 173.9697502849158,214.30321199484752 176.39405832800549,216.82927004885278 176.60385421628598,220.01426378649194 174.7856231839396,221.0027019585832 173.3170519656269,222.56772115963395 168.42181457113475,225.99974688724615 167.95560148591176,226.878337982198 167.69918428896926,225.6977304930624 166.37047699617688,225.36825765154208 164.64548858080525,227.39999999999418 164.41238203831017,226.7959701967775 165.48467213427648,223.7208870021277 165.2049442831194,222.56772115963395 167.27959251229186,221.2498108977452 168.0255334485555,219.6298701200576 169.07451289030723,218.970908189076 168.58498915075324,218.4766856135102 169.07451289030723,218.77871063567 170.0069390607532,220.31628697138513 172.94408149749506,218.50414244859712 173.48022654559463,218.66888339663274 173.45691589126363,218.11974648569594 173.5268478540238,218.6139697592298 173.0606347688008,218.33940139325568 173.1072560773464,217.54315144513384 172.61773233790882,217.4607806178101 172.8741495347349,216.91164108214434 171.9650340185035,215.84081555600278 172.15151925256941,215.40150120732142 173.48022654559463,215.20930093960487 173.7133330880897,214.1933828111214 174.3893420617096,213.50694933152408 174.08630355622154,212.76559907963383 176.44067963655107,214.38558385137003 177.0467566472944,214.3581265688117 178.18897870613728,215.4564155426633 178.63188113702927,216.609613828914 179.2146474934416,216.30758621485438 179.58761796168983,215.23675812970032 178.63188113702927,209.47068276177743 177.2565525356913,205.8187669875624 178.39877459441777,204.69297779956833 178.5619491742691,203.3475158502697 176.95351403020322,201.06845171557507 177.2099312270293,198.37748205955722 179.0048516051611,194.9999999999709" stroke="#4dd2ff" stroke-linecap="round" stroke-linejoin="round" stroke-width="0.5"><title>2025-03-26 3.9km</title><desc>1742943197000</desc></polyline><polyline fill="none" points="27.39928170311032,237.2179407824733 27.26016799226636,236.69554326131765 27.867209639691282,236.7552459363942 27.93044314463623,236.3821037885209 27.310754796140827,235.79999999998836 27.18428778630914,236.0835893354233 26.880766962538473,235.99403487211384 25.514923255774193,238.21795331519388 25.514923255774193,238.54631404091197 25.363162843917962,238.48661214957247 25.24934253504034,239.21795851853676 24.654947588569485,240.41198498201265 24.75612119649304,240.78511610902206 26.223138511180878,241.65077639398805 27.29810809524497,242.63583141718118 27.13370098231826,243.0388064224535 26.956647168495692,242.82985656824894 26.969293869507965,243.66565406526206 26.72900655074045,244.05370116290578 27.13370098231826,244.30742366863706 27.121054281364195,244.9491902536538 26.79224005562719,245.18798635202984 26.61518624186283,245.0088893174543 26.438132427982055,245.56110441913188 26.046084697300103,245.456631463152 25.919617687468417,245.72527604541392 26.046084697300103,245.59095382044325 27.07046747743152,246.54613121438888 27.70280252682278,246.75507537806698 27.753389330755454,247.78486693941522 28.170730463403743,247.6505467416864 29.119233037519734,248.11320464395976 29.878035096859094,249.54594174628437 29.726274684944656,249.65041157160886 29.840094993880484,249.56086601193238 30.535663548274897,250.6354088500375 30.978298082831316,250.75480197640718 31.04153158783447,250.9786638069054 30.750657465017866,252.73969740020402 31.345052411488723,253.76944380324858 30.864477773953695,254.44101335851883 30.2068493225961,258.5002078756661 30.295376229507383,258.9628289992979 29.48598736623535,259.18667736712086 29.852741694892757,259.0075987021846 29.700981283036526,258.84344305298873 28.891592419764493,259.33590940842987 28.335137576272245,258.485284587543 28.91688582173083,259.09713806401123 28.828358914819546,260.02237469682586 29.18246654246468,259.5746803351067 28.66395180200925,259.67914248417947 29.119233037519734,259.6343730015069 28.904239120718557,259.09713806401123 28.297197473293636,258.58974757036776 28.550131493073422,258.8732895493449 28.373077679250855,258.67928720632335 28.68924520391738,259.52991081816435 28.676598502905108,260.33575987635413 26.868120261642616,264.51416018628515 26.956647168495692,264.94691576607875 30.472430043388158,265.9019577082654 30.308022930461448,267.17036245792406 30.105675714614335,267.12559543208044 30.067735611693934,267.49865353200585 29.726274684944656,267.4688089215633 29.536574170168024,268.1999999999971" stroke="#4dd2ff" stroke-linecap="round" stroke-linejoin="round" stroke-width="0.5"><title>2025-03-24 3.9km</title><desc>1742796232000</desc></polyline><polyline fill="none" points="71.86357211302675,268.1977165345579 71.92945714305097,268.2000000000007 71.9682130430665,268.10409423736564 71.91976816805254,268.1543306438816 71.92170596305368,268.0538577105999 71.86550990802789,268.0629916334983 72.05735161309713,268.01503849392975 72.07479176810739,267.980786184291 72.01084453308431,267.8711784178013 72.0476626380987,267.8118073052792 71.97402642806264,267.74786899625906 72.04184925309528,267.5788882418674 71.9914665830729,267.565187039987 72.03603586809186,267.4624277407638 71.94689729806123,267.36880216340796 71.80156267300481,267.4144732289351 71.79768708300253,267.3733692744354 71.83062959800736,267.3939212617479 71.8383807780192,267.3505337093666 71.94689729806123,267.3276981194613 71.8422563680142,267.3596679383809 71.88488785804657,267.3551008243667 71.85000754802604,267.25462406475344 59.54113370327104,235.94408051047867 59.514004573262355,235.96237637726153 59.53919590827718,236.0012550410156 59.60314314330026,235.95322844587463 59.61089432329754,235.9806722280373 59.731037613346416,235.93950654128275 59.75235335835896,236.0035420189888 59.70778407334001,235.82058299086566 59.71359745834343,235.85260093637407 59.80854941337748,235.8000000000011 59.899625778409245,235.80457399972147 59.967448603434605,235.88919281405106 60.02170686345926,235.9006277626886 59.95000844843162,235.91892366750653 59.91319034341723,235.84573995217943 59.95969742343732,235.85260093637407 59.93063049842749,235.85946191831317 59.91319034341723,235.90520174039557 59.50237780326279,236.02869876013028 59.622521093304385,236.5638440824332 59.517880163264635,236.60043471525387 59.48299985325866,236.6621812629328 59.37254553821549,236.68047650129665 59.36285656320251,236.7719524529748 59.370607743207074,236.8085427215865 59.48493764824525,236.7948213783584 59.519817958265776,236.86114112052746 59.48299985325866,236.74450970949692 59.479124263249105,236.80396894151454 59.41905261822831,236.8154033898245 59.242713273160916,236.79024759528875 59.062498338091245,236.8405591540868 59.06637392808625,236.79710826952578 59.062498338091245,236.8657148880975 58.65168579793681,237.05552535978495 58.64005902792269,237.18358928285488 58.498599992875825,237.2544814744033 58.295131517799746,236.8405591540868 58.21955751276255,236.8771493026361 58.15948586774175,236.86114112052746 58.19049058775272,236.88400994835501 58.17692602275201,236.79253448695636 58.1052276077171,236.69191101714387 58.14010791773762,236.67361578878445 58.03740478268446,236.60958236345687 58.00058667767735,236.51353185773405 58.027715807686036,236.4838018498649 57.90175913264102,236.39003770197633 57.82424733260996,236.43120250161337 57.58202295751835,236.3511597612287 57.37467889243999,236.2573950184451 57.26616237239796,236.22537769288647 57.14408128735522,236.08129912107324 56.8941057322445,235.93493257108275 56.799153777225,235.94865447867778 56.589871917138225,236.1819255297687 56.42709713707154,236.19107336108755 56.4251593420704,236.22080378522696 56.32826959203521,236.23452550518596 56.07829403694632,236.13618631313875 56.08216962694132,236.04242060618344 55.925208231885335,235.94408051047867" stroke="#4dd2ff" stroke-linecap="round" stroke-linejoin="round" stroke-width="0.5"><title>2025-03-24 4.7km</title><desc>1742777725000</desc></polyline></svg>