<?xml version="1.0" encoding="utf-8" ?>
<svg baseProfile="full" height="300mm" version="1.1" viewBox="0,0,200,300" width="200mm" xmlns="http://www.w3.org/2000/svg" xmlns:ev="http://www.w3.org/2001/xml-events" xmlns:xlink="http://www.w3.org/1999/xlink"><defs /><rect fill="#222222" height="300" width="200" x="0" y="0" /><text fill="#FFFFFF" style="font-size:12px; font-family:Arial; font-weight:bold;" x="10" y="20">Over 1km Runs</text><text fill="#FFFFFF" style="font-size:4px; font-family:Arial" x="10" y="280">ATHLETE</text><text fill="#FFFFFF" style="font-size:9px; font-family:Arial" x="10" y="290">Tao</text><text fill="#FFFFFF" style="font-size:4px; font-family:Arial" x="65" y="280">SPECIAL TRACKS</text><rect fill="yellow" height="2.6" width="2.6" x="65" y="283" /><text fill="#FFFFFF" style="font-size:3px; font-family:Arial" x="70" y="285.5">Over 20.0 km</text><rect fill="red" height="2.6" width="2.6" x="65" y="287" /><text fill="#FFFFFF" style="font-size:3px; font-family:Arial" x="70" y="289.5">Over 40.0 km</text><text fill="#FFFFFF" style="font-size:4px; font-family:Arial" x="120" y="280">STATISTICS</text><text fill="#FFFFFF" style="font-size:3px; font-family:Arial" x="120" y="285">Number: 25</text><text fill="#FFFFFF" style="font-size:3px; font-family:Arial" x="120" y="290">Weekly: 2.5</text><text fill="#FFFFFF" style="font-size:3px; font-family:Arial" x="141" y="285">Total: 342.1 km</text><text fill="#FFFFFF" style="font-size:3px; font-family:Arial" x="141" y="290">Avg: 13.7 km</text><text fill="#FFFFFF" style="font-size:3px; font-family:Arial" x="167" y="285">Min: 1.4 km</text><text fill="#FFFFFF" style="font-size:3px; font-family:Arial" x="167" y="290">Max: 98.8 km</text><polyline fill="none" points="19.113609467400238,49.6609447660594 18.928994082816644,49.687798599850794 18.70177514787065,49.99214129493339 18.687573964474723,50.84250324204186 18.524260354955913,51.370617319393205 18.353846153826453,51.46907880434446 18.190532544336747,51.836070333716634 17.544378698192304,52.050893708314106 17.35266272185254,52.49844018713338 16.372781065030722,52.87437691280502 15.840236686344724,52.89227860890969 15.435502958542202,53.28611470940086 15.115976331348065,53.32191787617194 14.405917159718229,53.69784996895032 14.484023668599548,53.769455842084426 14.34911242601811,53.59939176814078 14.072189349069959,53.91266735816316 14.036686390492832,54.145385417097714 13.823668639030075,53.769455842084426 12.786982248479035,54.04692787568638 12.87218934908742,53.832110918119724 13.134911242581438,53.94847018919245 12.815384615358198,53.90371664738632 12.765680473326938,54.073779946811555 13.156213017733535,54.26174414266279 13.234319526614854,54.41390524727467 13.127810650854371,54.6555721718687 13.049704141973052,54.36020136756997 12.346745562070282,54.26174414266279 12.609467455593403,53.23240992328647 12.481656804709928,53.20555751405482 12.076923076878302,53.63519476703368 11.799999999988358,54.19013879705744 11.9136094674177,55.41636974638823 12.069822485151235,55.854943235899555 11.906508875719737,55.75648821329378 12.027218934876146,55.64908256867784 12.112426035455428,55.738587284511595 11.842603550292552,54.77193000904663 12.027218934876146,54.807732379726076 12.020118343178183,54.404954603654915 12.162130177486688,54.440757170952566 12.155029585759621,54.27964546707517 13.078106508852215,54.34230006473808 13.156213017733535,54.66452278193174 13.22011834316072,54.39600395884918 12.815384615358198,54.04692787568638 13.859171597607201,53.78735729840264 14.036686390492832,54.18118812348257 14.065088757371996,53.90371664738632 14.342011834291043,53.61729326999921 14.398816567991162,53.706800707303046 14.675739644968417,53.63519476703368 15.073372781043872,53.33981945235428 15.407100591692142,53.23240992328647 15.435502958542202,53.31296708629088 15.797633136040531,52.91913114404451 17.125443786964752,52.68640881435567 17.572781065071467,52.077746581584506 18.289940828370163,51.6928543669419 18.254437869793037,50.57396905951464 18.595266272168374,50.35018974964623 18.80828402363113,49.79521382699022 19.120710059127305,49.490870234898466 19.411834319500485,48.64049108508334 19.319526627165033,47.64687647231767 19.47573964492767,47.40518419701402 18.80828402363113,42.51744166476419 18.786982248479035,41.69383079409454 18.96449704139377,40.93287694290484 20.334911242563976,41.344688338576816 21.314792899385793,41.88182982202852 29.295857988123316,42.78600823146553 30.33964497037232,42.454775977173995 32.61893491121009,41.12087811240781 36.24733727806597,41.02240137532499 37.61065088750911,40.58373051009403 38.34201183426194,40.145056764100445 39.19408284020028,41.13878295807808 40.05325443786569,41.8997344637537 42.42485207100981,43.53798887427547 42.928994082816644,44.146728909276135 43.362130177469226,45.041924766628654 43.36923076919629,44.71965563986305 42.78698224850814,43.68122232273163 44.19999999998254,43.56484516926139" stroke="#4dd2ff" stroke-linecap="round" stroke-linejoin="round" stroke-width="0.5"><title>2025-06-01 8.5km</title><desc>1748768919000</desc></polyline><polyline fill="none" points="59.25284974084934,58.08408296214475 59.02901554404525,58.131115424926975 58.37616580311442,57.53144963618979 57.965803108760156,56.70837227310403 57.863212435215246,55.96759604507679 58.07772020727862,55.23857206406683 59.439378238341305,54.61536934268952 59.579274611372966,54.22733522353519 59.15025906736264,54.55657640464051 58.1989637305378,54.638886506880226 58.23626943002455,54.48602482696151 58.366839378199074,54.662403664769954 58.544041450717486,54.53305921837455 58.41347150254296,53.96864485734113 58.03108808287652,53.404226865612145 57.965803108760156,52.60462849538453 56.57616580306785,52.51055761977477 56.27772020723205,52.29889778095094 56.883937823819,51.72271007722884 56.725388601014856,50.852541882923106 56.96787564759143,50.51152766918676 57.126424870453775,49.20625412213121 57.368911917030346,49.01810498247505 59.504663212399464,48.63004610756616 60.63316062174272,49.006345647860144 60.96891191706527,48.735880516403995 61.136787564784754,48.18318830715725 61.63108808285324,47.79512573922693 61.910880829032976,47.77160674051993 62.33056994818617,48.15966941251099 62.992746113974135,48.06559377088706 64.41036269429605,47.418821003710036 64.46632124349708,47.17187014385854 64.27046632120619,47.077793442957045 64.41036269429605,47.077793442957045 64.42901554401033,46.68972598540131 65.56683937821072,46.84260124936554 65.60414507769747,47.03075505467132 65.90259067353327,46.8543608740365 65.90259067353327,46.64268738903775 63.412435233127326,46.32517620398721 62.796891191683244,46.08998199269263 60.614507772028446,43.232321951771155 57.53678756474983,42.05630312811991 56.585492227983195,40.492173663471476 56.025906735740136,40.127598126084195 53.414507772016805,40.68034108986467 52.798963730514515,41.32716353965952 52.14611398964189,42.70311543213029 51.399999999965075,43.05592013327987 50.38341968914028,43.02063972699398 51.33471502590692,42.86775780256721 51.44663212430896,42.561993154384254 51.278756476647686,42.12686470214976 50.89637305698125,42.19742621938349 49.917098445585,41.80933717208245 49.2735751295113,41.87989894473867 49.11502590670716,41.73877534263738 49.08704663213575,40.3157663345919 48.825906735728495,40.11583759966743 48.527461139892694,40.209921766967454 47.94922279793536,40.02175333145715 48.13575129536912,40.6215388124765 47.99585492227925,41.23308057064423 47.85595854918938,40.06879547816061 48.06113989633741,40.33928733228822 47.87461139896186,40.13935865092935 47.9585492227925,40.209921766967454 48.01450777199352,39.8218239263806 47.79999999998836,40.55097602758906 47.99585492227925,40.22168228079681 48.01450777199352,39.363160628287005 48.17305699479766,39.56309107875859 48.005181347136386,39.904147854256735 48.07979274610989,40.15111917426839 47.967875647649635,40.08055601092201 48.089119170967024,39.974711159469734 48.06113989633741,40.209921766967454 48.11709844559664,39.810063358985644 48.01450777199352,39.951190064086404 49.17098445596639,40.13935865092935 49.39481865282869,39.71597876278247 49.57202072540531,38.56343426944659 49.67461139895022,38.65752010188589 49.86113989632577,38.23413306126167 50.402072538854554,38.41054457653081 50.43005181348417,38.1400467746862 50.52331606217194,38.48110908330273 50.38341968914028,38.01067796591087 50.53264248708729,38.434066085093946 51.68911917094374,38.68104154423054 52.51917098445119,36.46999839400087 52.98549222794827,36.62289146942203 52.60310880828183,36.29358297576255 52.593782383424696,35.9760343288217 52.76165803108597,35.83490122779767 53.52642487047706,35.88194562004355 54.169948186550755,36.12892826531606 54.28186528501101,35.58791775458667 53.955440414487384,35.317411247808195 56.147150259057526,36.10540613855119 57.3316062176018,37.74017893089331 60.85699481860502,39.06914443214191 64.31709844555007,41.25660132239864 65.2404145077453,42.02102231981553 72.62694300513249,52.922116955815 74.66010362689849,54.674162241324666 77.04766839375952,56.37913916605612 77.80310880829347,57.1787031402564 78.17616580310278,57.778371339605656 78.54922279785387,58.96593744428537 78.53989637299674,60.682588752191805 78.42797927459469,58.789567256833834 78.88497409323463,58.67198693493992 78.92227979272138,58.354519278844236 79.45388601033483,58.425067746124114 80.20000000001164,58.18990596792719 79.97616580309113,57.296285463096865 79.65906735748285,57.30804368672398 79.84559585491661,57.62551512895152 79.87357512948802,57.30804368672398 80.02279792737681,57.2374943213581" stroke="#4dd2ff" stroke-linecap="round" stroke-linejoin="round" stroke-width="0.5"><title>2025-05-31 10.5km</title><desc>1748652092000</desc></polyline><polyline fill="none" points="96.28905445840792,60.34646682032326 96.14793399412883,60.39571490329763 95.81865291087888,60.309530730002734 95.52073193079559,60.38955889527642 94.80467624176526,59.92170032845752 95.4266516212956,60.364934856454056 96.16361404574127,60.438806940812356 96.38836145176901,60.40802691735735 97.12009719238267,59.90938820875817 98.25951427419204,60.174098192896054 98.58356867358088,60.02635323790673 98.62015546063776,60.38955889527642 98.75604924099753,60.654266636967805 98.99647669863771,60.869725514123274 99.1950906853308,60.925129093004216 99.44074482686119,61.86698164896734 99.91114637439023,61.80542313637852 100.35541450258461,62.42716104147621 100.72650905675255,62.64261317996716 100.56970854091924,63.085826432838076 100.10453367725131,63.295120375489205 100.1515738320013,64.13844402082395 100.30837434783462,64.20000000000073 100.96693651436362,63.95993130319766 102.06454012525501,63.12276071416636 104.02454657331691,61.17752248936449 104.92876288131811,59.8108911548843 105.11692350031808,59.26915429897781 105.19532375823474,58.58581974357003 105.15351028734585,56.30797838696526 103.77889243178652,53.568291150011646 102.91126291078399,52.11527967044458 102.52971498892293,51.19173605676406 101.1028302947816,49.74482079393783 100.88853625644697,49.40617571517214 100.62197537953034,46.401381621923065 100.87285620486364,45.42232616895126 99.26303757555434,44.70803604221146 98.63583551219199,44.33857209725102 97.4859650626895,43.45184879631415 96.99465677971602,42.63900690817536 96.59220212238142,42.17715972898077 95.4736917760456,41.4197222017101 100.61152201180812,32.50213489192174 100.44426812822348,32.29272715128536 98.93898317613639,31.818477345583233 98.63583551219199,31.799999999999272 97.71071246871725,32.0402050220182 97.71071246871725,32.446703506553604 97.39711143702152,32.649951654202596 96.9842034119647,32.64379263014416 96.38836145176901,32.495975851776166 96.74900263821473,32.619156527220184 96.94761662496603,32.51445297018654 96.81172284457716,32.631474580044596 96.91625652179937,32.54524815412515 96.81694952843827,32.50829393139793 96.79081610910362,32.64379263014416 96.89012310246471,32.58836138348852 96.90580315404804,32.76081397263624 96.72286921890918,32.625315553967084 96.90057647021604,32.61299749981845 96.79604279296473,32.656110677588 96.90057647021604,32.52677104575923 96.8848964186327,32.69306480382147" stroke="#4dd2ff" stroke-linecap="round" stroke-linejoin="round" stroke-width="0.5"><title>2025-05-27 10.2km</title><desc>1748342410000</desc></polyline><polyline fill="none" points="147.94503523374442,57.76282638689736 146.18078155023977,58.00934619961481 145.14298526581842,59.71032539245789 143.10890454833861,61.33733668550849 142.48622677766252,61.01686571392929 142.5277386290254,61.60850406676764 138.50108904542867,61.06616897067579 136.03113388852216,59.439155676052906 134.08007687376812,59.04472640201857 131.92146060219966,57.88608632773685 129.2854580397252,58.1326060025458 125.217296604882,56.13578870812489 124.38705957727507,55.322265364738996 122.14541960286442,55.76600574245094 119.9660474054981,56.77674437897804 119.80000000004657,56.38231034061755 120.65099295333494,54.65665312310739 121.21140294685028,55.22365627063846 120.11133888538461,56.38231034061755 120.06982703402173,55.22365627063846 120.52645739912987,55.22365627063846 120.33965406788047,54.75526247093512 120.9208199873101,54.68130546416796 121.10762331844307,55.051090249748086 122.00012812297791,53.57194738528051 122.76809737354051,54.138953323243186 123.45304292126093,53.670557218341855 123.45304292126093,53.17750761154457 124.11723254318349,52.88167731805879 124.71915438817814,52.88167731805879 124.13798846898135,53.695209669778706 124.71915438817814,52.85702477564337 126.89852658554446,52.832372230506735 132.0459961562883,54.04034369959845 134.43292761046905,54.28686767586623 140.32761050597765,57.68887038934918 141.80128123005852,55.98787559631455 143.06739269697573,55.42087441479089 143.64855861617252,55.815310173726175 145.78641896217596,54.21291051193839 146.82421524671372,54.558043731201906 147.90352338249795,55.42087441479089 148.0280589364702,55.864614593971055 147.57142857136205,56.80139648295881 146.6789237668272,57.195829771400895 146.1392696988769,58.00934619961481 148.3186418961268,57.56561033827893 150.45650224213023,56.62883169732231 150.6848174246261,56.23439739420428 150.66406149906106,56.6534838177904 150.58103779621888,55.34691763142473 152.19999999995343,54.21291051193839 152.19999999995343,53.62125230736274 148.96207559248433,49.77543526237423 144.66559897502884,43.390244656198774 145.03920563741121,41.83706221116881 145.93171044194605,40.456446403317386 146.22229340160266,38.385506473714486 147.34311338874977,35.476296080320026 147.4053811659105,34.49011434910062 146.11851377319545,34.835278457030654 145.43356822547503,34.440805146688945 145.4128122997936,34.761314765171846 145.62037155672442,34.41615054135036 145.5165919282008,34.712005623441655 145.86944266501814,34.85993301554117 147.61294042272493,34.39149593321781 148.23561819340102,34.588732720847474 146.61665598966647,34.440805146688945 145.84868673922028,34.810623895871686" stroke="#4dd2ff" stroke-linecap="round" stroke-linejoin="round" stroke-width="0.5"><title>2025-05-25 4.8km</title><desc>1748150210000</desc></polyline><polyline fill="none" points="177.19518415862694,35.02598421796574 177.05422954959795,34.67017947429849 175.9668654234847,34.50413706214749 171.4965906823054,36.75755902453966 171.57713617314585,37.80124131459161 170.79181763762608,40.908538589210366 170.1675900835544,41.833603279825184 167.0263159411261,43.9920723138348 166.0396336785052,45.249192796080024 167.24781604087912,46.26911541548907 167.63040712242946,48.071757694429834 167.26795241364744,48.80704171862453 166.07990642392542,49.37629216570349 166.82495221414138,51.131471700646216 168.07340732193552,52.03277462719416 167.63040712242946,52.578298275198904 167.3686342772562,54.00139702807064 169.24131693900563,54.4757612177782 168.83858948480338,54.8789699687477 168.15395281277597,54.30973386862024 167.6908162405016,55.56679494299169 168.3553165398771,55.94628365641984 168.79831673949957,56.942438391110045 167.99286183109507,57.15589952861774 167.24781604087912,59.029605002870085 165.47581524262205,60.16805110934365 165.67717896972317,61.140469124991796 164.81131494324654,63.986545748557546 165.19390602468047,64.19999999999709 166.32154289644677,62.563512073713355 168.41572565794922,62.99042314992403 172.5034093176946,60.07318082722486 173.89281903451774,58.673839377283 174.98018316086382,58.24691986145626 175.34263786952943,57.65397470467724 175.42318336036988,55.51935880741803 176.9736840588739,56.041155731712934 178.02077543968335,55.35333225183422 177.35627514030784,50.70453743672988 176.91327494068537,50.562225829882664 177.2555932768155,49.992978475027485 176.89313856803346,47.787130955650355 175.9870017961366,45.62869944363774 176.87300219526514,44.53761605374166 176.9334113134537,43.470246591299656 175.50372885121033,41.596407578967046 176.1279564051656,38.70259927670122 177.07436592236627,36.33059664950997 177.39654788572807,36.23571600826108 177.21532053139526,35.26318705819722 178.1214573031757,34.0297294742486 178.54432113014627,32.393015381356236 179.18868505675346,31.79999999998836" stroke="#4dd2ff" stroke-linecap="round" stroke-linejoin="round" stroke-width="0.5"><title>2025-05-20 4.1km</title><desc>1747694891000</desc></polyline><polyline fill="none" points="37.13599827379221,84.29464828887285 37.3835863028944,83.59987556204214 37.74506482537254,83.43055983407612 37.878762361069676,83.05689564347995 38.14120567194186,82.84670839047976 38.061977502628,82.79999999999927 38.11149510843097,82.86422402640164 38.061977502628,82.80583855103396 38.11149510843097,82.84086984389796 37.89856940341997,83.10360380989368 37.750016585952835,83.48310615177616 37.32911693648202,83.6816139977418 37.076577146799536,84.56321348204438 36.91812080817181,84.65662714655627 36.61606341265724,85.10033982799723 37.23998524600756,85.51485756431794 38.00750813621562,85.73087257786756 37.88371412167908,85.7250343457199 37.98274933328503,85.85931352423358 37.8143894734967,85.73087257786756 37.80448595233611,85.8067695379541 37.8242929946864,85.73087257786756 37.90352116397116,85.77174018512233 37.8292447552667,85.7075196454316 38.03226693911711,85.74254904026384 37.819341234077,85.7075196454316 37.77477538885432,85.77174018512233 37.78467891004402,86.4664847373424 37.477669753920054,87.07364906740986 37.210274682496674,87.31301003673798 37.46776623275946,87.52317976199993 37.08152890735073,87.93184075596218 37.08152890735073,87.93767874756304 37.730209543631645,88.1770358557369 37.680691937799565,87.82675679815657 37.48757327510975,87.48815153172836 37.19046764020459,87.31301003673798 37.517283838562435,87.0619728952006 37.789630670595216,86.43145581600038 37.75496834653313,85.8067695379541 37.8143894734967,85.69000493942804 38.15606095365365,85.83596064781887 38.38879370104405,86.15122362044713 39.062233140168246,86.06948895388996 39.75052786109154,86.21544362809436 39.65644441000768,85.50318105229599 39.00776377378497,84.9193522045025 39.250400042306865,84.30632506440088 39.47322926847846,84.09030430489292 39.517795113730244,83.76919075469414 39.79014194573392,83.81005985892989 39.626733846525894,83.74583696686386 39.488084550219355,83.79254453236717 39.47322926847846,84.05527382935907 39.23059299995657,84.32384022293263 39.00776377378497,84.93686716254524 39.66634793119738,85.54988708516612 39.88917715736898,86.89266811214111 40.32988384916098,87.63410234008916 40.21599335578503,88.53315054941777 40.5081472301099,88.50396090949653 41.03303385179606,88.64990894998482 42.0729035740369,88.30547093625864 42.845378224825254,88.73163967896471 42.845378224825254,88.84255975453198 42.53836906873039,89.49639974308593 41.95406132005155,89.78829001844133 41.255863077996764,90.43628074500884 41.15682786636171,90.40709214213712 40.75573525921209,89.58396699269724 40.0723922989273,89.92839678564997 39.517795113730244,90.34871488864883 38.933487365051406,91.4403590007314 38.07683278436889,92.26929314668087 37.45786271162797,93.07486474625694 34.30854298148188,97.91387691810814 34.34320530554396,98.08314687610982 34.9225612936425,98.49172733048181 34.08076199470088,100.54041949730527 33.8183186838578,100.47621665797124 32.40706691797823,99.62989931391348 32.2436588187702,99.63573603101395 29.05472500398173,105.13364125616499 27.480065138923237,107.03034609576935 25.340904567477992,107.4738735469582 24.429780620412203,107.78900924310437 16.79911756355432,111.68136594931639 16.363362632342614,112.20071451954209 15.937511222291505,113.02349240767217 15.823620728915557,113.01182188758321 15.784006644244073,113.10518597715054 15.69982671434991,113.05266869676416 15.69982671434991,112.8484343397322 15.556225657492178,112.65586980498483 15.417576361156534,112.63252860227658 15.353203473612666,112.77841095255644 15.169988332083449,112.74923451425275 15.105615444510477,112.86010489537512 15.0511460780981,112.74339922468062 15.184843613824341,112.81342265757849 15.41262460060534,112.5975167791621 15.808765447174665,112.9593045157817 15.793910165404668,113.08184496998365 15.848379531817045,113.04099818302348 15.30368586780969,114.06799366977793 14.471790089999558,114.28389362823509 14.536162977601634,114.68651555341057 14.18953973686439,114.87323773915341 13.778543608554173,114.82072219012116 13.986517553013982,115.20000000000073 13.486389734200202,115.10663955718337 13.521052058291389,114.84406244050842 13.15462177520385,114.41810127247663" stroke="#4dd2ff" stroke-linecap="round" stroke-linejoin="round" stroke-width="0.5"><title>2025-05-17 14.6km</title><desc>1747468743000</desc></polyline><polyline fill="none" points="76.50103613076499,99.55044258929411 74.6582992306794,100.44820205892756 74.73792366468115,100.97077545702632 74.51042528194375,102.25710054080264 73.93030440591974,103.28883075459453 72.14444210159127,104.52153605588683 71.5870710638701,105.27187238037732 71.01832510705572,105.31206884037965 70.6657026138273,105.7140327195375 70.26758044410963,105.7944253381429 68.3452191100223,107.89801356576936 67.2532268728828,107.77742667506391 66.65035615873057,106.27677994935948 66.24085906986147,106.51795654748275 65.62661343649961,105.55324732507142 65.19436650926946,105.60684247986501 64.87586877349531,105.44605694566417 64.81899417779641,105.19147942111886 63.863500970299356,106.6653420141447 63.101381388201844,107.3084765347594 62.748758894973435,108.11238996924658 62.851133167219814,109.02348552695912 63.22650549869286,109.15746960015531 63.260630256147124,110.3767179771603 63.772501617262606,111.74333369994565 64.4094970888691,111.32799130747298 65.08061731792986,110.18914208828937 66.05886036361335,110.10875233427942 66.62760632048594,110.71167421202699 67.40110082173487,112.6276063929472 68.60684225015575,112.88216856877989 69.58508529589744,113.40468928367045 71.01832510705572,113.27070982418081 71.21169873233885,113.47167895881284 71.51882154907798,114.85165817283269 72.77006265404634,115.19999999999709 76.64891007955885,112.50702412629471 76.86503354314482,112.05149005505518 76.81953386653913,111.03323134170205 77.94565086107468,111.2074077702564 78.29827335430309,110.72507244251028 78.28689843515167,109.70680277835345 77.79777691228082,106.96011241905217 77.22903095552465,105.39246172103594 77.75227723579155,104.78951383874664 77.72952739748871,104.1061693417214 76.96740781533299,103.08784502627532 77.13803160242969,101.78812940821808 77.79777691228082,100.67599073548627 77.9570257802261,99.49684480225551 78.41202254570089,98.92066712027008 78.67364568577614,97.94249884389137 79.15139228955377,97.3931132582511 76.41003677767003,94.53894875057449 75.44316865107976,94.76674834398 72.41744016081793,94.90074790824292 67.04847832850646,94.15034847272909 65.81998706178274,93.66794642395689 64.19337362528313,91.76511993655004 62.15726309991442,92.26092966734723 61.48614287079545,90.19727604473155 60.32590111892205,90.9610999185461 57.66417004104005,92.046525704136 55.90105757495621,93.60094599012518 54.75219074211782,92.87733898470469 51.93121079634875,90.25087787445955 48.84860771038802,85.06479289240815 52.29520820872858,82.79999999999563 52.78432973159943,83.32264820688579 53.08007762907073,84.0329101668467 52.87532908463618,83.97930563341652 52.56820626795525,83.42985782162577 52.93220368033508,84.08651467697928 52.363457723520696,85.29260999243706" stroke="#4dd2ff" stroke-linecap="round" stroke-linejoin="round" stroke-width="0.5"><title>2025-05-12 8.9km</title><desc>1747004623000</desc></polyline><polyline fill="none" points="97.66707147826673,95.80073481045838 97.45877428885433,96.40127507291982 96.47283425883506,97.95172750430356 95.53318249314907,99.08178051287177 95.213793469331,99.58947717711635 94.99623862703447,99.993447186087 94.95457918915781,100.49567562160519 94.50095419879653,101.02519362072053 94.05658686134848,101.9204484181646 94.03807155560935,102.18247118219733 93.9408662005444,102.28618814721267 93.95475267985603,102.87027440926249 94.03344272921095,102.79385229538093 93.9316085476894,102.91940284939119 93.96863915913855,102.63009022971892 93.83440319262445,102.46086886545527 93.96401033271104,102.61917273961808 93.97326798556605,102.80476974735939 93.51038534234976,103.7873306716865 93.61684835029882,103.86920987779376 93.4687259044731,103.86375126822895 92.94566851767013,105.03188014593616 92.2513445528748,107.07876920127819 92.2513445528748,107.40626368110316 91.93195552905672,107.88658504173873 90.76086244179169,110.63742767456279 90.46461755011114,113.14798543162033 90.5664517316327,114.69791910082859 90.64514178098761,114.97078977933415 90.9089848875883,115.20000000000073 91.20985860566725,115.10722456091025 92.96881264983676,113.8902131760442 93.130821574945,113.63916678813985 93.14470805425663,113.29534034459357 93.20951162429992,113.21893414755323 94.8110855697596,112.1492351444358 95.29711234511342,111.94184187597784 95.51003836098243,112.16015055581374 96.2321352843719,111.88726455726282 99.58340562111698,110.32087014875287 99.90279464493506,109.9879367977992 100.88873467495432,109.74778677645372 101.22201017805492,109.52946757536847 101.19423721946077,109.43668162655013 101.36087497099652,109.26202525628105 102.39310326534905,108.83083973259272 102.57362749619642,108.68892976045026 102.39310326534905,108.32869494718398 102.30052673671162,108.34506931312353 102.32829969530576,108.41602483696988 102.39773209177656,108.31232057587476 102.44864918253734,108.43239917434039 102.5597410168848,108.46514783300154 103.12445784159354,108.19769982678554 103.18926141166594,108.0885369645548 103.08742723014439,107.72829782985718 103.22166319665848,107.2534331905481 103.1661172794702,107.18793426600314 103.08742723014439,107.30255732769729 103.14297314730356,107.30801556217921 103.19851906449185,107.10606048979389 103.0966848829994,106.84406350579593 102.92078947857954,106.70214790012324 102.56899866976892,106.58752346326946 102.09685837372672,106.14539817615878 101.85615939923446,106.15085653684218 101.53214154898888,106.39648215178386 101.09240303796832,106.40739881781337 100.92576528640348,106.62027332916841 100.99519768287428,106.88227148473015 101.37939027673565,107.01327004815539 101.37476145030814,107.07876920127819 101.45808032609057,107.05693615977725 101.37013262388064,107.06785268172825 101.62934690405382,107.42809657024554 101.74043873843038,107.51542803148914 101.93947827501688,107.50451160717057 101.99039536574855,107.67917411060625 102.31904204245075,107.90295955232432 102.57362749619642,107.63005034312664 102.6245445869281,107.31347379607541 102.99947952793445,107.28072438379968 102.87913004070288,107.1661012721197 102.78655351206544,106.89864632391254 102.60602928121807,106.82768864875834 102.61991576050059,106.62573163806883 103.02262366010109,106.78948062816198 103.1707461058977,106.99143697807085 103.22629202311509,107.25889143038512 103.0966848829994,107.71738145198105 103.11520018870942,107.93570855743019 103.52253691473743,108.3614436737189 104.96673076151637,107.30801556217921 105.09633790160296,107.00235351429728 104.59179582053912,102.98490736122403 104.62882643198827,101.13437189272008 104.77694887778489,99.5075909668667 104.68900117560406,98.40484361219205 104.69825882845907,96.6032733588836 105.20280090955202,94.64876921680116 107.06358913521399,91.90796716125624 107.52647177840117,90.5429698655098 107.37834933257545,90.42830839625094 107.40149346477119,90.33548701429027 107.63756361277774,89.83315654597754 108.72996665071696,88.16778574254931 109.35485821904149,86.86275149511494 109.31782760756323,86.75354206369593 108.70682251857943,86.34946509313158 108.56795772560872,86.15288592654542 108.80865670007188,85.55222257255082 109.53538244988886,84.19251250216621 109.51223831772222,84.0723756976513 108.27171283398638,83.11673174212046 108.46149471765966,82.97474879557558 108.23931104893563,83.18226219682037 108.27634166038479,83.11673174212046 108.19302278460236,83.12219261661448 108.16062099958071,83.18772306416577 108.30411461897893,83.21502739193966 108.0773021238274,82.94198344293545 108.36428936259472,82.87645267323023 108.36891818902222,82.79999999999927 108.45223706480465,82.83822635123215 108.39206232118886,82.86553086992353 108.38743349476135,82.80546090910866 108.44297941194964,82.86006996738433 108.38280466833385,82.82184363286433 108.43835058552213,82.86553086992353 108.38280466833385,82.89829627268045 108.3550317097397,82.79999999999927 108.40131997407298,82.88737447414678 108.419835279783,82.80546090910866 108.3504028833122,82.82730453959084 108.4152064533555,82.90375717105417 108.36428936259472,82.83276544570981 108.36428936259472,82.90375717105417 108.0773021238274,82.98567057500259 108.59110185774625,83.49353068339042 106.24428685673047,87.39241385330752 105.97118609727477,87.47431990259429 105.83695013073157,87.42517628912537 105.3879539668269,87.01564429832433 105.62402411486255,86.90097473975038 105.37869631397189,86.99926294891702 105.06856494303793,86.69893725853035 104.9204424972122,86.75900254092267 104.94358662937884,86.93919795516194 105.74900242852164,87.7691805689974 105.80454834570992,88.02035680210247 105.00376137296553,89.28713944355331 105.04079198444379,89.05235025631919" stroke="#4dd2ff" stroke-linecap="round" stroke-linejoin="round" stroke-width="0.5"><title>2025-05-11 17.9km</title><desc>1746934812000</desc></polyline><polyline fill="none" points="141.01842602423858,82.79999999998836 141.7641983127687,85.94861134246457 130.57761398609728,89.4999167076312 130.14258015120868,90.4151955244015 139.58902913809288,107.36570950609166 140.64553988003172,109.56225793811609 140.42802296264563,110.14800176690915 141.85741984879132,112.3445320505416 141.17379525105935,113.40618321814691 141.2359429418575,114.72409035646706 139.8065460555954,115.20000000001164" stroke="#4dd2ff" stroke-linecap="round" stroke-linejoin="round" stroke-width="0.5"><title>2025-05-09 1.4km</title><desc>1746749326000</desc></polyline><polyline fill="none" points="167.9965200999286,88.78404341638088 166.74953455722425,88.37040545771015 166.09322637703735,88.61858833268343 165.69944146869238,88.2601018618152 164.97750247037038,88.83919508139661 164.03679407865275,88.06707042663766 163.46799365559127,86.60554083094758 162.76793159660883,86.32977936642419 163.18359344417695,84.53732084443618 162.0022387194913,82.80000000000291 160.64586848020554,83.35153201507637 159.50826763443183,84.42701519497496 159.18011354422197,84.1236743540212 158.89571333269123,84.67520282321493 158.63319006050006,84.15125081258884 158.41442066722084,84.78550833980262 157.97688188031316,84.73035558896663 158.1956512737088,84.97854285153153 157.53934309340548,85.99886512152443 157.7581124868011,85.06127187264792 158.21752821304835,84.84066107591207 157.97688188031316,84.73035558896663 159.83642172452528,84.26155660989753 162.0678695376264,82.80000000000291 163.13983956549782,84.23398016614374 162.7241777179297,86.44008399656741 163.18359344417695,86.27462702921184 164.10242489667144,88.23252595354279 165.10876410640776,88.9770741793327 164.45245592610445,89.17010476138967 164.2993173507275,89.61131684065913 165.41504125727806,92.28614483115962 164.99937940970995,94.8230629828904 169.35289033921435,93.9958104982652 170.7748913966352,94.10611102158146 170.7748913966352,94.43701223704556 170.49049118510447,93.9958104982652 170.81864527531434,93.69248375453753 173.22510860313196,94.74033788395172 176.33163399004843,95.42971269259579 177.20671156374738,96.06393547817424 178.56308180314954,98.24233799373906 177.8630197441671,100.31042032290134 175.631571931066,102.59907388867578 172.89695451315492,103.09540504061442 173.1376008457737,103.6468826951168 174.165816994966,103.92262096860213 172.5906773621682,103.26084849203471 174.75649435725063,104.06048996683967 177.6880042294506,103.67445653909817 181.21019146381877,104.72225987361162 181.91025352291763,105.27373317134334 186.13250281626824,105.57704285551154 185.60745627211872,114.75884274517011 185.69496402936056,115.19999999999709 186.24188751308247,115.06213845936873 186.4606569064781,113.7386629734101" stroke="#4dd2ff" stroke-linecap="round" stroke-linejoin="round" stroke-width="0.5"><title>2025-05-05 3.1km</title><desc>1746429236000</desc></polyline><polyline fill="none" points="27.155037830088986,133.83827318776093 27.018427179864375,133.79999999999927 26.77556380169699,133.98498678908072 26.143107087700628,134.0998058138539 25.60172414049157,134.7121692688852 25.065400847001,134.93542481913028 25.085639461845858,135.4202046946266 25.257667688070796,135.79654356274477 25.065400847001,136.57472636271268 25.389218684576917,136.6959176212622 25.505590719956672,137.01484051176885 25.66243998502614,137.09138168758363 25.91036301694112,137.435815456025 26.3454932361783,137.53149106061028 27.003248218708904,138.1948366313627 26.654132112598745,138.89644208185564 26.669311073725112,139.1451906226648 26.77556380169699,139.24724093015175 26.689549688599072,139.41945032803415 26.88687618332915,139.3875597457918 26.90711479820311,139.48323142843947 26.63895315147238,139.40669409769907 26.704728649696335,139.55976863617252 27.99494034628151,139.82126983426497 28.328877491265303,139.80851371157405 28.652695328870323,139.99985519301117 28.784246325376444,140.33151193938465 28.57680052318028,140.7078119887592 28.14672995766159,140.7715913634056 27.49909428250976,141.09686484527265 27.63064527901588,141.35835760188274 27.4333187842567,141.44764748257512 27.099381639243802,141.88133880713212 27.235992289468413,141.95787216025565 27.170216791215353,141.88133880713212 27.05890440955409,141.9196054990789 26.988069257582538,142.09818298818573 26.644012805161765,142.25762660897817 26.219001893361565,142.3022707271448 26.067212282010587,142.18747148160037 25.829408557532588,142.18747148160037 25.73327513699769,142.46809137096716 25.793990981561365,142.55737917079387 25.66749963874463,142.55100147635676 25.510650373675162,142.7742202733425 25.470173143956345,143.1377457888193 25.616903101617936,143.5012685292022 25.859766479814425,143.7946357348992 26.497282847500173,144.056113677565 27.094321985554416,144.16453094005192 27.610406664171023,144.7002361435043 27.63570493273437,144.9425769939662 27.519332897354616,145.26782198669025 27.089262331835926,145.77162847248837 26.63895315147238,145.95019151733868 26.33031427502283,145.95019151733868 26.320194967614952,146.03947278868145 26.188643971079728,146.0139638710898 26.193703624798218,146.10962224163086 26.355612543586176,146.03947278868145 27.06396406327258,146.14788553605104 27.306827441439964,146.0139638710898 28.29851956901257,146.30731559851483 28.430070565547794,146.44123643857165 29.345867887401255,146.48587663489525 29.411643385654315,146.56240258839898 29.254794120584847,148.85812401902876 29.38128546337248,150.0633334754566 30.975076382688712,156.10167516438378 31.73402443950181,158.16741572422325 28.36429506726563,159.74853934409475 28.22262476332253,159.88242240243198 25.384159030858427,164.49797019653852 25.00468500246643,165.61353966570823 25.029983271029778,166.14262919879548 24.782060239143902,166.15537827170192 24.94396915793186,165.90677073493134 24.766881277988432,166.20000000000073 24.989506041340064,166.18087640726299 25.090699115593452,165.48604733373213 24.979386733903084,165.4796727081739 25.01480430990341,165.1290669897462 25.0198639636219,165.61353966570823 25.212130804662593,164.55534297762642 27.149978176370496,161.5017400789402 27.144918522652006,161.24673307189732 26.927353413018864,161.06822735497553 26.47704423268442,160.99172470016492 26.3910301195574,160.79409227338692 26.26959843048826,160.8642200025206 26.284777391614625,160.9598485577335 26.360672197275562,160.94072286204027 26.380910812149523,160.87697048764312 26.259479123080382,160.88334572891472 26.254419469332788,160.93434762842662 25.880005094659282,161.31048495160212 25.181772882380756,161.46986427769298 25.00468500246643,160.6920881194892 25.22730976578896,160.43070147844628 25.131176345283166,160.4243261766096 25.01480430990341,159.92705000494243 24.80229885398876,159.95892683828424 24.387407249596436,159.53177549972315 24.26597556049819,159.67840997295934 24.392466903314926,159.2257542758889 24.63027062776382,158.8049718838338 25.43475556798512,158.6647102606912 25.480292451393325,158.45431705177543 25.627022409054916,158.3395567280677 25.35886076229508,158.2566741001392 25.343681801168714,157.90601523279838 25.181772882380756,157.86776138204732 25.00468500246643,157.9825228421505 24.959148119058227,158.09090841176658 25.055281539593125,158.19929373481136 25.186832536099246,158.09090841176658 25.024923617311288,158.1865425331307 24.918670889368514,157.90601523279838 24.847835737396963,158.1036596390295 24.43800378672313,158.4351903503557 24.296333482780028,158.90698007767787 24.27609486793517,159.65928376291413" stroke="#4dd2ff" stroke-linecap="round" stroke-linejoin="round" stroke-width="0.5"><title>2025-05-04 11.1km</title><desc>1746326389000</desc></polyline><polyline fill="none" points="71.03710251154553,165.29608769584456 71.02902271073981,165.31527799581727 70.97650400550629,165.30517784388712 70.94984066284451,165.29911774638185 70.90944165881956,165.26578712501714 70.90378579825119,165.25568690829368 70.95711248356747,165.16579439692669 71.01528704936936,165.06176018297765 70.99670350751694,165.11024232131513 71.07830949565687,165.09408164238994 71.06457383428278,165.1698345322784 71.10982071879334,165.23952653403603 71.16557134435425,165.3354782600113 71.19223468700875,165.60312676768808 71.29888805764494,165.63241604075756 71.44674841238157,165.68796435671038 71.44432447214422,165.78492045909434 71.56390552406447,165.8919747402074 71.53966612164731,165.89904431026343 71.56471350414358,165.88692504334313 71.64308757195613,165.84854723918716 71.6915663767868,165.8919747402074 71.64147161179426,165.83945773129335 72.08505267601504,165.66776501536242 72.51005019838703,165.6293861211143 72.78476342577414,165.86066656638377 73.24369611152724,165.90813374796198 73.82463378944158,165.87278587454557 74.23751161060136,166.1909109060948 74.3360851804282,166.19999999999982 74.90813507746134,166.07477154160551 74.928334579472,165.79401003123303 74.9331824599576,165.41526878652303 74.95257398188915,164.9950967452719 74.86612011327088,164.63752847505293 74.67786075450203,164.38600866035813 74.66412509313523,164.06073794356325 74.59544678628663,163.7819235536681 74.36517246332733,163.48592478329556 74.28356647519468,163.09797745142214 74.65038943176478,162.95855411157345 74.72149167885436,162.90803778656664 74.22781584963377,161.62279115115098 74.03955649086856,161.04577505337465 73.93936696087621,161.00232025323066 74.26498293334225,160.02805994460005 73.78827468581585,158.90002796089584 73.60324724736711,158.4885988478918 73.22834448999492,157.8092378144911 73.48205023528863,155.33290433977163 73.25419985257395,155.2398619959049 71.58814492647798,155.2135672166296 71.56148158382348,154.88386351353074 70.51353141935033,154.99916027937707 70.30103265816433,154.86970414250754 70.14994038310397,154.2021613737693 69.94309748247906,152.6069041925066 69.69504759775009,151.61741551490286 68.58165104675209,151.376600441964 68.17119716583693,151.13678970352294 67.65085799396184,151.02042314828896 66.81298265043006,150.91113817125824 66.37020956629203,151.18738330873975 65.97106740649906,151.08316011857005 64.98209978790692,150.9627451595088 64.64194017399132,150.95970946390617 64.1248329224436,150.8463759704764 63.82022443207461,150.89494767219503 63.48491269864826,150.5033295915605 62.947605945082614,150.37885765228657 62.223655792909994,150.19771196164356 62.08791513937467,150.26855156670354 61.96348620697245,150.2472997537193 61.88511213915626,150.26855156670354 61.34942134575613,150.0924633431532 60.965630807491834,149.977093009878 60.78625922960782,149.89916645426 60.19643377080865,149.66335790945368 59.5662093079809,149.6390682063825 59.056373877159785,149.72509389266816 58.70167062179826,149.8748774962378 58.42534143424564,150.27867145700384 58.295256641278684,150.72798116215517 57.982568350103975,151.07304128701708 57.886418720514484,151.2956525055929 57.83955587584933,151.2551782178839 57.783805250288424,151.26529680978365 57.879954879874276,151.30981845596443 57.54221920620694,152.06968226897516 57.54706708668891,152.25988942496133 57.64240873618837,152.35701466927094 58.02862321469729,152.25483078488787 58.49886762157985,152.05754122698136 58.981231729663705,152.50371193205092 59.0806132795733,152.43491632269024 59.08869308037538,152.11622275241962 59.436124515013944,151.9927886793471 59.557321527096065,152.2528073279268 59.574289108786616,152.43188120810373 59.646199335955316,152.50472362760001 59.54843374621123,152.62410276799937 59.474099578797905,152.67873328216638 59.37229408865096,152.85375065037306 59.54520182588749,152.9316472736764 59.515306562909245,153.08743815413072 59.51288262266462,153.08946139156433 59.546009805966605,152.93063563427404 59.37067812848909,152.86892537911308 59.470059678398684,152.67873328216638 59.58802477015706,152.72830507964773 59.78032402932513,152.85880889661257 59.90636892189286,152.95390330689315 60.07766069896752,152.96503129935672 60.41862829296224,152.9073678912796 60.4493315360196,152.84768075049806 60.282887639430555,152.83554093638077 60.60850361188932,152.79912137907877 60.60446371148646,152.7606783259921 60.37903726901277,152.75056170114567 60.3612617072431,152.72122341385057 60.62466321350075,152.70503672469158 60.68768565978462,152.69593169707377 60.74666820566563,152.70503672469158 60.78060336905037,152.79507475095943 60.829082173881034,152.74651504748044 60.89856846080875,152.74449171984998 60.83716197468311,152.84161084583502 60.81453853243147,152.9872872359938 61.044812855387136,153.38687150709484 60.94947120588404,153.57603454462424 60.7717155881619,153.43643874198096 60.63274301430647,153.31403743975216 60.38388514949838,153.42025355753458 60.35802978691936,153.53152601300508 60.40731657183278,153.73383544579428 60.311166942250566,153.75001997062873 60.299855221121106,153.70247783205605 60.29339138047362,153.73687004679186 60.237640754916356,153.70146629400006 60.151994866380846,153.69944321749426 59.82233899351559,153.96547321450134 59.811835252465244,153.94119709422284 59.81749111303361,153.89972521157642 59.826378893918445,153.7267547054753 59.82880283415943,153.72877777480244 59.86677789794703,153.6164966226711 59.84173051545076,153.56086121049702 59.877281638993736,153.52950289181672 59.83203475447954,153.5750229899445 59.86920183818802,153.61143887455137 59.840114555285254,153.7753082225281 59.811027272389765,153.87241433752797 59.82233899351559,153.96648471784874 60.09866818106093,153.7429392452018 60.231984894355264,153.69742014045414 60.252992376448674,153.76316987198652 60.27642379878671,153.770250578797 60.28046369918593,153.7591237508841 60.27642379878671,153.7641814019321 60.374189388530795,153.75103150230007 60.402468691350805,153.63268139431375 60.39034899014223,153.41216095254777 60.6691021179322,153.30493313285388 60.76767568775904,153.4334040224894 61.00926173184416,153.59930026549728 61.19509715037202,153.54872252165342 61.26377545721698,153.41317252863564 61.49162583993166,153.4829709576029 61.719476222646335,153.63470448837916 61.835017374163726,153.4829709576029 62.06771563736402,153.46476273283133 62.39575555006377,153.43745031487697 62.64946129536111,153.6367275819057 62.91851866217985,153.70348936997925 62.870039857349184,153.67820088204144 62.88377551871599,153.5750229899445 62.94114210443877,153.47993625646768 62.97265332757888,153.39698729524935 63.25383039560984,153.1187982746019 63.57944636807224,153.04798491777092 63.884054858437594,152.8153078702776 65.02896263257571,152.60892755632494 65.7472569241836,152.37724894080975 66.38717714798258,152.05349420872562 66.54069336328757,151.5435528698822 67.32039414101382,151.37862412945378 67.31473828045273,150.03477839292464 67.31393030036998,149.68461133668416 67.32524202149943,149.38199747776844 66.93175572227119,149.09455388412425 66.47605495684184,148.8060873586105 66.40980059023786,148.5945383587923 66.32657864194334,148.27264880557232 66.03893773326854,147.94264740582867 66.01469833084775,147.75638269028605 66.05832925520008,147.0457008298181 66.04701753407062,146.76728189515688 65.67777063725589,146.1992759779073 65.44830429438298,145.91475098660112 65.22287785190929,145.76489017000995 65.15339156498158,145.5157907215248 65.09279305894597,144.40790912034527 64.83585539332489,144.2013029117038 64.28158105807233,144.17091917681455 63.00820445112549,143.98557579013686 62.27698247822627,143.82149758292917 62.105690701151616,143.49434353038532 61.957830346411356,143.24820915493592 61.571615867906075,143.24314457875062 61.27104727794358,143.46496988383115 60.90907220185545,143.84479285062616 60.561640767220524,143.62905571106694 60.35722180684024,143.33228063153456 59.767396348041075,142.6586700421458 59.557321527096065,142.55737010319945 58.89316190087993,141.3933378482693 58.70167062179826,140.4743469241248 58.52391500407248,140.27371464047064 58.34292746603023,139.979849803879 57.468693018876365,137.6335939456103 57.48646858064603,137.5018174645361 57.86621921850747,137.48255763527322 58.031855135017395,136.96657893329166 58.16113194790523,136.80032299440154 57.02834387497569,136.77903386373055 56.772214189441,136.72327633650275 56.559715428255004,136.4079852327959 56.34964060731363,136.36439090842805 56.000593212513195,135.67800106638788 55.51257324386461,135.19941815290895 54.52360562527247,134.7928019786741 53.95640360872494,134.84350342740345 53.07328138068624,133.81521244122723 53.0700494603625,133.86490620536551 53.06035369939491,133.85983542787653 53.061161679477664,133.85577880346818 53.06520157988052,133.86997697949982 53.03773025714327,133.87301944236287" stroke="red" stroke-linecap="round" stroke-linejoin="round" stroke-width="0.5"><title>2025-05-03 98.8km</title><desc>1746244765000</desc></polyline><polyline fill="none" points="99.8978742391082,133.95964563455254 99.64363108612088,134.0475388138616 99.59221112259183,134.05471371685917 99.29440383383917,133.9246674189808 99.10086480445534,133.79999999999973 98.96088823708124,133.8125565347459 98.89661328267175,133.9103173294966 98.74878088754122,133.98296434444956 98.65951011752622,134.06547605707874 98.55809852279708,134.19103542782932 98.33385034852836,134.7156690143147 98.27743122188258,134.81341675894828 98.22815375683786,134.84031956010404 98.17816212563412,134.89950534610125 97.77822907598602,134.93178828387772 97.58683254508287,134.96048409925925 97.1211962087109,134.9766254419278 96.94194050253282,134.8125199970691 95.69643471934978,134.60357123845233 95.22651338601645,135.40973709144646 94.92584943262045,135.79081654770562 94.79015786220407,136.01048789549804 94.73730956636064,136.1109067083121 94.5401997061781,136.59146182973518 94.34880317527495,136.79317722726137 94.22168159877765,137.0943943642783 94.00743175075695,137.48434307251637 93.91601848226492,137.61790654649212 94.00671758459794,137.76670570328997 93.90316349138448,137.95314822387354 93.82103438297418,138.13689664667572 93.85745685713846,138.38069173553595 93.83603187233894,138.92561373026183 93.82531937993554,138.96415096131932 93.46180880445536,139.4964800450657 93.33397306179904,139.74022620068445 93.24041729482633,139.79220034941682 92.96474915703948,140.0207026523858 92.76692513069429,140.26353390753502 92.52767946706444,140.4633479333138 92.60838024315672,140.6846597298454 92.59766775075695,140.73035478750535 92.33913960080463,140.7617139624972 92.26843715096038,140.74737835765154 92.25272549543661,140.8548946547512 92.47625950354268,141.37990806870357 93.01973995136359,142.92335531566005 93.16257318338103,143.1839957043785 93.32683140019799,143.3496897111745 93.46180880445536,143.58165451865443 93.59964287334878,143.7751017262426 93.65606199999456,143.9183923963683 93.74390443768789,144.00705198228206 93.5260837588612,144.26048662874837 93.67463032015803,144.50406153362428 93.74033360688554,144.64017311183898 93.96458178115063,145.0252108109603 94.12741166564956,145.23562915516095 94.17883162917497,145.26875825721345 94.28024322390411,145.30457332068409 94.49449307193208,145.48454115246113 94.65803712259003,145.60272638528295 94.96441440526542,145.7889534833471 94.98155439310722,146.15423025301425 95.04440101519504,146.23838436879487 95.17580758865006,146.30821358745607 95.36220495643283,146.32432792048257 95.48147070516643,146.3735659231943 95.56074314892976,146.12110547437715 95.5778831367752,146.10230485240072 95.64501475582438,146.10857173218028 95.67500973454662,146.08618999210512 95.71143220871454,146.04590267392723 95.77713549543842,145.92682986858836 95.85212294224766,145.84267188867034 96.066372790272,145.7209095593771 96.19635103140536,145.68151539675318 96.29276346301776,145.673457471672 96.31775927861963,145.70210782847562 96.5520057791291,145.8614732300548 96.8169614245162,146.14617288930958 97.14047869503338,146.4040037825407 97.62539751773147,146.6116937669767 97.98462309625029,146.82743395983107 98.46882775278573,146.64213055826895 98.52738937791219,146.65197772622287 98.69593259169051,146.64213055826895 98.84447915299097,146.66898643721925 98.93589242147937,146.74060159485498 99.01516486524997,146.88651514004596 99.08586731509786,147.06912644547674 99.11086313069973,147.1872840838305 99.26012385815557,147.56322652200743 99.2415555379921,147.74313446533597 99.24512636879444,147.89081652697087 99.22013055319258,148.02238511214227 99.23369971023203,148.11457110498122 99.29297550152114,148.19691093340725 99.34225296656587,148.40186116994892 99.33368297264315,148.79026517008106 99.73290185612859,149.03278266768802 99.75932600405213,149.73254475577778 99.83145678622532,150.00008179538827 99.85002510638515,150.13697794393875 99.84431177710576,150.22287215789947 99.88859007902647,150.3373960869735 99.8807342512664,150.36871088766839 99.85073927254416,150.3866049946805 99.84502594326477,150.4402870328945 99.8600234326259,150.49128457626512 99.92001339007038,150.5718062336855 99.95000836879626,150.67916695892336 100.45635217629388,150.8554138039176 100.51062880445897,150.9117760432514 100.58990124822958,151.06833536586464 100.59275791286927,151.19626401966661 100.6763153535976,151.28482859974383 100.71702282472688,151.3707083022082 100.73416281256505,151.42080429404132 100.73130614792535,151.44943040926364 100.71702282472688,151.46284885925934 100.73130614792535,151.54335900275646 100.95841098683013,151.85286689407394 100.96341014994687,152.0102990251844 101.02697093819734,152.39581344591716 100.99911845795577,152.51835057258722 101.12981086524815,152.57291018823798 101.25121911246242,152.59437614647368 101.49760643768968,152.59527055992749 101.98752442350815,152.6382022673647 102.26747755826,152.64267430462814 102.27461921985741,152.62836377502845 102.30390003242428,152.62836377502845 103.0430620081097,153.22311976629862 103.07091448835126,153.22938007891617 103.18375274164646,153.75969706164688 103.50298501520228,154.9561119480186 103.5379791570449,155.2761932449498 103.66938573049993,155.7071168982734 103.70009487538118,155.9297202910443 103.74794400810788,156.00302583804933 103.83721477811923,156.0915278239754 103.87649391692321,156.11119477559987 103.98647550557507,156.1335435152546 104.06217711854333,156.1335435152546 104.10859791894836,156.15499823624896 104.69064333941424,156.08527014562378 104.70706916109702,156.12549797743486 104.70849749341869,156.361496466242 104.73063664438087,156.40261657757446 104.78348494022794,156.41960089885788 106.19539143870861,156.41602525579447 106.31465718744221,156.4303278167704 106.4474920932189,156.4642962785838 106.50391121986468,156.45625113190363 106.6110361438732,156.4964767701813 106.68530942452708,156.5089913646948 106.85670930294509,156.49379506835976 106.70459191084592,157.33400992475936 106.74244271732823,157.35724843573416 106.8402834812623,157.36350494436192 106.75172687740996,157.62984812002378 106.758154372852,157.6593418574862 107.03525084296416,157.72458512564663 107.14166160081732,157.77820926133018 107.21807737994459,157.79250895948417 107.27163984195431,157.81753335896974 106.8709926261472,158.62094643310638 106.8802767862253,158.63256350175106 107.03239417832083,158.64149969490927 107.05024833232528,158.72639294486726 107.08095747721018,158.73979704545582 107.13237744073558,158.79877477450282 107.13809077001497,158.82736985315387 107.18094073961765,158.8425609398323 107.19593822898241,158.87741095177626 107.37376560284247,158.81396592499095 107.17165657953956,160.9814850114517 107.0788149787295,161.68359182737595 107.07024498480678,161.82203946478103 107.10309662817235,162.0283658844678 107.34448479027924,162.84557149086731 107.39090559068427,162.97774417408664 107.49303135157606,163.1920728064065 107.47303469909457,163.22243548426468 107.1130949544131,163.36085186065247 107.20807905370384,163.78590651765307 107.33305813172046,164.13057423702367 107.34305645796121,164.4198673684259 107.52445466261997,164.80914369099582 107.57873129078871,164.89396012438328 107.67942871935884,164.98770337594124 107.71299452888343,165.06894648482648 107.6979970395223,165.5885223790783 107.74727450456339,166.11073661132923 107.36019644579937,166.18036215472011 107.03239417832083,166.16072425290486 106.85456680446077,166.19999999999982 106.65817111044089,165.84740280821643 106.4989120567443,165.8482954823521 106.27894887943694,165.82062252986316 106.19110644174361,165.84561745960036 106.10183567173954,165.8027689525402 105.84973501722925,165.79562750852665 105.6583384863261,165.75099331400634 105.44837363525949,165.73671031006734 105.15270884499114,165.6786852989635 104.85704405471552,165.71171498119702 104.76491662006447,165.79919823146702 104.79348326646868,165.8197298521086 104.80490992502746,165.80544699211714 104.81633658358987,165.80812503064544 104.80562409119011,165.80455431237624 104.81990741439222,165.8099103890786 104.82276407903191,165.8331200061807" stroke="red" stroke-linecap="round" stroke-linejoin="round" stroke-width="0.5"><title>2025-05-03 66.9km</title><desc>1746236322000</desc></polyline><polyline fill="none" points="150.19403786002658,134.1894491618732 149.59894621069543,133.79999999998836 148.93773326685186,134.44908158382168 148.51896506908815,133.98174302121333 143.9345553254243,136.29246366671578 144.11087877722457,137.2790566852491 143.53782755928114,139.22626779353595 143.69211057934444,139.77148406025663 142.76641245814972,141.53693772072438 140.8929757840233,142.62735846528085 139.74687334813643,143.8216230950493 139.63667119084857,144.41875317161612 139.239943424589,144.3668288764311 138.11588142008986,145.58704683187534 136.81549596402328,145.63897086196812 136.33060647186358,146.4178299595078 135.60327223374043,146.6514871937543 131.90047974849585,150.623625220338 130.31356868345756,150.77939399368188 129.6523557397304,150.46785634555272 128.44013200933114,147.7159228141245 127.64667647681199,148.02746405002836 126.52261447242927,146.21013444843993 125.11202685895842,145.40531263768207 120.92434488167055,150.51977931513102 120.77006186137442,152.10342446736468 120.96842574456241,152.75245633392478 121.85004300298169,153.16783580344054 121.89412386575714,155.76394113048445 123.06226673326455,158.04849048996402 122.95206457586028,158.51578198678908 122.86390285007656,158.23021506950317 124.05408614885528,157.34755153159495 125.37651203654241,155.14087842407753 127.20586784766056,154.8812684835866 128.37401071493514,156.28315881168237 129.32174926775042,159.06095424490923 130.02704307448585,159.89169053264777 132.23108622047585,160.35897842558916 134.2808463461697,161.4233529931371 136.6171320809517,161.0079878722172 137.41058761335444,161.68295582709834 137.56487063365057,162.98096576736134 136.72733423823956,166.1999999999971 138.29220487177372,164.51260842995543 139.32810515048914,164.38280858501093 140.49624801776372,164.90200754191028 144.46352568047587,162.28004127524036 146.79981141525786,159.9955323655886 147.81367126246914,159.68400673144788 148.10019687132444,156.85429695808853 150.37036131171044,157.08794398827013 151.22993813862558,156.10143275157316 150.12791656563058,148.98804697032028 148.93773326685186,146.0024387567537 149.95159311406314,144.6004881161498 150.01771440845914,143.87354750878876 148.45284377480857,141.1994255294412 149.22425887582358,137.7723516668775 150.03975483973045,135.79916562972357 150.5466847633943,135.43568221396708" stroke="#4dd2ff" stroke-linecap="round" stroke-linejoin="round" stroke-width="0.5"><title>2025-04-28 5.2km</title><desc>1745795058000</desc></polyline><polyline fill="none" points="166.92133853945415,164.7536891011987 167.02659577177837,166.1999999999971 166.95642428356223,165.53883066760318 166.50030961004086,165.4148611620185 167.00905289978255,165.47684592485894 166.76345269090962,163.51398529403377 167.9739108629292,162.68751160147076 167.14939587609842,162.02633006234828 166.7108240746893,161.13786375077325 166.58802397036925,159.85681199713144 167.16693874821067,159.36091867987125 167.85111075849272,157.95588059442525 169.16682616283651,156.4681818990357 172.39471462124493,154.2779376469698 173.90340161824133,152.81087314903561 175.06123117404059,152.21164636722824 175.1138597902609,150.1040061388485 176.60500391514506,150.51727076931274 177.49969039007556,149.7940570768551 176.569918171037,143.8222732070717 175.7278603123268,141.52856243749557 176.51728955481667,140.51601464836858 176.55237529892474,139.77209855194087 176.46466093871277,139.25548843968136 175.37700287112966,138.03628301099525 175.6752316961065,135.65984318584378 176.51728955481667,133.79999999998836" stroke="#4dd2ff" stroke-linecap="round" stroke-linejoin="round" stroke-width="0.5"><title>2025-04-27 2.3km</title><desc>1745711220000</desc></polyline><polyline fill="none" points="15.350260373321362,184.8554500801083 16.015070635039592,184.80000000000018 16.436263891358976,184.91089996579194 17.15243918433407,184.94035763848024 17.338820869190386,185.0269975342535 18.030047432701394,185.49137928568507 18.15185593539354,185.68371251049848 18.52315173279203,186.50673367727995 18.53489231135609,186.65054140199481 18.6185439336914,186.74236974709765 18.866563656054495,187.18764303133048 19.074958925732062,187.41980389751825 19.942294167842192,188.16997206427823 20.319460254511796,188.55283864406647 20.400176732204272,188.69489538074504 20.253419500040764,188.81269756097845 20.090518972334394,188.85254221758714 19.55779021955823,189.13664903494555 18.769703882826434,189.43460924178453 18.251650853264437,189.69618596203782 17.41073191295436,190.30420521070937 17.01155224145623,190.6852879893113 16.78994882088591,190.95030833111832 16.575683261922677,191.260359177616 16.17503601810313,191.91681551173406 16.110462835946237,192.0726982409351 16.108995263632096,192.18354724796063 15.846299818047555,192.8728720920617 15.736231893919467,193.03047732638788 15.596812523363042,193.39244384938047 15.403092976899643,193.7578657744316 14.650228375874576,194.81425140870942 14.359649056190392,195.1692504362136 14.124837484720047,195.50173011542665 14.13511049097724,195.52943644037714 14.205553962412523,195.48095033991467 14.641422941953351,194.89044699249553 14.70746369643166,194.86793469907116 14.766166589295608,194.89217870604534 15.386949681356782,195.2973944723808 15.596812523363042,195.39609930700772 16.842781424464192,196.15974224272304 21.100208729643782,199.3005078312226 21.613859042234253,199.72638512146386 23.322113224661734,200.82391857223138 23.910609725659015,201.08011418125625 24.572484842727135,201.25494799748685 24.95405364636099,201.29303035523753 25.909443227777956,201.56825922163353 26.10609791888419,201.60287886658716 26.12517635905533,201.5769141399569 26.675515979695774,201.76385922275495 27.09377409136505,201.97503527646313 27.428380580713565,202.20178676056184 27.456264454820484,202.16197566594292 27.478278039649012,202.17063026023334 27.716024755754916,202.35237564926592 27.77179250397603,202.33160485308053 27.776195220947557,202.30910312651667 28.005136503132235,202.40257162774378 28.124009861188824,202.53238807669823 28.279572527280834,202.56008211495555 28.376432300508895,202.6137391764505 28.41458918087301,202.66047259823154 28.39551074069459,202.6379713382712 28.402848602301674,202.72624532893406 28.464486639808456,202.69335899768066 28.511448954108346,202.7072058823078 29.10875088902685,203.03606583921737 29.164518637247966,203.08972129043377 29.165986209569382,203.06722063944017 29.31127586941875,203.11741435552085 29.455097956939426,203.13299168338835 29.64588235875999,203.19530084187045 29.631206635538547,203.20741648314743 29.866018207008892,203.25760975556568 29.93059138917306,203.30780286915706 29.974618558815564,203.46703514380988 30.01717815613665,203.5085737351792 30.194754407064465,203.49991987094927 30.51615274552023,203.7024190566217 31.58014267872204,204.03645052571937 31.775329797506856,204.1316395529384 31.704886326071573,204.13683166526698 31.581610251050733,204.1039482584738 31.588948112657818,204.08664117489297 31.484750477815396,204.15240799206094 31.283693069744913,204.5712323781454 31.153079133124265,204.76506471490302 30.818472643783025,205.13195515453208 30.681988417862158,205.4157702406219 30.588063789269654,205.51787320671883 30.542569047305733,205.61305334610825 30.378200947277946,205.77399301018977 30.141921803486184,206.08548449718455 29.739806987352495,206.4592662107525 29.55929559177457,206.72402293129835 29.55782801946043,206.77247466347126 29.5813091766031,206.7690138303633 41.785640603658976,217.14639220694426 41.80325147151598,217.13947505918532 41.78710817598039,217.1619557783897 41.81792719473742,217.17233148422292 41.81205690544448,217.14639220694426 41.87516251527995,217.19999999999982" stroke="#ffc800" stroke-linecap="round" stroke-linejoin="round" stroke-width="0.5"><title>2025-04-20 36.9km</title><desc>1745145130000</desc></polyline><polyline fill="none" points="56.75598067205283,185.99042261174327 56.510305028321454,185.95020594468951 56.38064288304304,186.07889920217713 56.09402129871887,186.07889920217713 56.27145370806102,185.9823792800962 56.298751001799246,185.82151246305875 56.053075358096976,185.50782116226765 56.09402129871887,185.37108351171628 55.99165644714958,185.52390792803635 56.189561826817226,185.76520899432217 56.56489961579791,185.7410789231726 56.46253476428683,186.1593323742054 56.00530509400414,186.22367884883715 55.438886248797644,185.96629261413182 55.58902136440156,185.24238902118668 55.8483456549875,184.8000000000029 56.646791497041704,184.95282559774205 57.083548197027994,185.64455855969572 56.27145370806102,186.53736710990052 55.86199430184206,186.6580160864105 55.902940242463956,186.79475135492976 55.75280512686004,186.63388630687405 55.261453839426395,186.56149692095642 55.29557545663556,186.85909727606486 55.71185918626725,187.51863973653235 56.30557532524108,189.51331768824457 56.57172393926885,189.931549784058 64.7336147694441,192.537404129871 65.46381737716729,192.64195809647936 66.03706054581562,192.5776172114347 66.18719566144864,192.77868229110754 67.27908741129795,195.27988614745118 68.9646953001211,201.27117170330166 71.86503276068834,208.78974898635352 72.7385461605736,211.80500633685733 72.64982995591708,212.03818111638248 70.24084378275438,212.818105208411 70.35685728120734,213.35681086032127 72.47922186998767,217.02312120246643 72.4246272824821,217.1999999999971 72.24719487311086,216.91056174739788" stroke="#4dd2ff" stroke-linecap="round" stroke-linejoin="round" stroke-width="0.5"><title>2025-04-16 7.1km</title><desc>1744770713000</desc></polyline><polyline fill="none" points="89.29677419387735,190.1906938687316 89.06451612897217,191.06913878169144 89.8000000002794,192.2891976457904 88.94838709686883,193.21643964899704 89.68387096771039,193.26524179420085 108.84516129037365,211.2239873028302 109.54193548415788,210.5895901849144 109.00000000023283,209.85759213744313 109.65806451626122,208.10079082121956 111.012903225841,207.22238698569709 109.92903225822374,211.61438498014468 112.09677419369109,212.29757990842336 113.64516129065305,209.0767925986438 113.95483870990574,209.41839260281995 113.91612903238274,207.61278895189753 115.4258064518217,207.61278895189753 115.23225806467235,206.3927814179333 116.20000000018626,206.49038217103225 115.27096774219535,214.59115350971115 115.73548387130722,214.78635059602675 115.038709677523,215.76233445917023 115.50322580663487,214.59115350971115 114.84516129037365,213.32236989817466 114.03225806471892,214.5423542217759 112.63870967761613,213.90796288338606 109.58064516144805,214.15195968275657 102.45806451630779,207.02718584559625 101.52903225831687,207.3199875165301 102.22580645163544,206.73438393929973 94.83225806453265,199.80467011852306 91.7354838710744,200.68309184361715 90.38064516126178,199.41425978281768 90.45806451630779,198.6334378560714 90.07096774200909,199.90227263691486 88.63870967761613,200.48788719886215 87.59354838728905,200.34148364671273 87.40000000037253,199.6582662917499 86.74193548387848,201.46390937632532 86.47096774214879,200.87829638359835 85.077419355046,201.41510832958738 85.92903225822374,199.31665713360417 84.76774193579331,197.26699545621523 83.80000000004657,192.19159308692906 84.41935483878478,191.75237224905868 85.8516129036434,192.2891976457904 89.4129032259807,190.97153389599407 88.83225806476548,188.77541705258773 87.86451612925157,188.28738928897656 88.79354838724248,188.18978365784278 87.98064516135491,186.23766554082977 88.75483870971948,186.87210507655982 88.87096774205565,188.43379768679733 88.25161290355027,188.92182525407407 88.44516129046679,186.72569605105673" stroke="#4dd2ff" stroke-linecap="round" stroke-linejoin="round" stroke-width="0.5"><title>2025-04-07 2.7km</title><desc>1743986187000</desc></polyline><polyline fill="none" points="137.1892332790885,201.28331729843921 134.78433931490872,201.0834102039662 136.13213703106157,200.1505083045049 137.69135399674997,200.11719031484972 138.82773246336728,198.91773971165821 138.48417618288659,198.45128513668897 137.47993474721443,198.61787615675712 133.59510603593662,194.28647335802088 129.94812398054637,194.5863421367394 128.49461663956754,195.2527159057645 127.67536704742815,196.28559171826055 126.53898858081084,195.01948528976936 125.87830342585221,194.8195731590531 124.92691680276766,195.28603454728727 122.60130505729467,193.4868215133174 119.80000000004657,194.98616661255073 121.279934747261,193.7866912563768 122.89200652542058,193.42018374346662 124.68907014699653,195.11944129482436 126.08972267538775,194.78625445502985 127.67536704742815,196.2522732106736 128.6267536705127,195.21939725974516 130.2916802612599,194.55302340144408 133.85938009794336,194.3531108956522 138.11419249605387,199.58410187221307 137.47993474721443,200.1505083045049 135.260032626451,200.18382628977997 133.54225122346543,201.21668161815614 138.19347471464425,201.3166351318796 142.47471451887395,200.28378021882963 143.53181076678447,203.14910909665923 144.37748776515946,203.5156022690644 148.31517128867563,203.38233208704332 152.17357259383425,206.88065069251752 152.20000000006985,207.2471383648226 150.56150081555825,207.9467951485858 148.42088091361802,208.21333054843126 148.26231647643726,208.57981625653338 148.57944535068236,208.1800136390375" stroke="#4dd2ff" stroke-linecap="round" stroke-linejoin="round" stroke-width="0.5"><title>2025-04-04 2.7km</title><desc>1743741381000</desc></polyline><polyline fill="none" points="185.4756782327313,199.8010337872547 183.91208808647934,200.81883798154013 183.37717566813808,200.6734376666427 182.84226324979682,201.49737153104797 181.31982021289878,201.93357058014954 181.0317904490512,201.64277130881965 181.7312913039932,200.45533701666864 181.4432615401456,200.1160689151002 178.60411101172213,200.6492042716709 177.61658039316535,200.52803725699778 176.50560844724532,199.72833330990397 175.78553403785918,198.12891681482142 175.90897536522243,197.71694404209848 177.246256411192,197.15956790314522 177.06109442026354,195.00275146088097 176.13528446527198,193.98492072810768 174.63341498281807,193.74257939298695 174.03678190079518,194.63924101808516 173.5018694823375,194.32419815508183 171.5062346906634,196.98993141049868 169.7574825535994,198.51665520008828 169.18142302613705,198.6862905316957 167.80299487092998,198.32278609176865 167.2063617889071,196.79606097526266 166.87718491605483,199.84950075896631 167.43267088895664,201.37620497716125 167.04177335242275,201.0611716289859 167.0623469070997,200.50380384622258 167.57668577088043,200.47957043271163 168.62593705311883,201.3035050132312 168.83167259872425,201.9820370885136 170.39526274474338,203.096763874506 169.71633544447832,203.53295979628456 169.8603503262857,203.9206887883338 167.12406757066492,204.67191179300426 166.69202292500995,203.62989210744854 165.37531543371733,202.12743655037775 165.29302121535875,196.45678730806685 163.9145930602681,196.67489186758758 162.68017978710122,195.65706876506738 161.98067893227562,195.8509401902411 163.60598974197637,193.5729403016012 165.00499145162757,194.29996407024737 166.0130956248613,195.99634364859958 167.4120973345125,194.8573473548313 169.11970236245543,194.6634750660014 170.60099829023238,193.0882564726635 171.1976313723717,192.99131958046928 171.42394047242124,193.64564278509351 171.0536164904479,192.53086876735324 171.44451402698178,192.09465133074264 170.72443961759564,192.19158861256437 170.62157184490934,192.62780585965083 170.29239497205708,192.24005723773735 171.21820492693223,191.73113614853355 169.98379165364895,192.31276015569165 170.06608587189112,192.72474290980608 170.39526274474338,192.53086876735324 170.9507487177616,192.82167991781898 169.24314368981868,194.5907729142491 167.370950225275,194.90581540072162 166.1571105066687,195.99634364859958 164.90212367894128,194.25149589273497 163.4208277510479,193.59717446545255 161.8778111594729,196.0448114470055 159.7793085949961,198.2985524413525 159.75873504043557,200.38263675257622 160.58167722262442,200.7703712204384 160.58167722262442,201.61853801918915 159.2238226219779,201.57007143177907 158.29801266710274,199.29212994866248 158.5243217671523,200.1160689151002 158.31858622166328,200.98847156240663 158.0305564579321,201.32773833716055 157.35162915766705,201.08540497928334 156.89901095745154,202.78173295615125 157.47507048491389,206.00472057542356 158.35973333078437,206.94979834163678 158.9152193038026,208.4279888706078 158.77120442176238,209.7850076184841 157.9276886852458,210.4392815654719 157.70137958496343,209.71231039481063 157.8865415760083,209.44575370535313 158.40088043978903,209.76077521321713 157.8865415760083,210.7058370677696 158.7300573127577,211.86898462387035 159.2238226219779,214.8252907020069 162.70075334154535,216.88498899611295 165.62219808832742,217.1999999999971 166.73317003413104,217.10307358461432 169.69576188991778,215.26146369242633 173.91334057343192,216.23073395159736 174.9008711919887,215.84302635325002 177.69887461140752,212.30516339396127 177.2874035203131,211.55396609294985 175.72381337417755,211.28741160385835 175.37406294676475,210.87546313079656 175.003738964675,208.98533685527218 176.87593242921866,207.7494764012954 177.53428617492318,206.36821249782224 178.3983754661167,205.76239229821658 178.11034570238553,204.5749799345358 176.85535887465812,203.75105743722816 177.34912418399472,201.03693827605457 177.90461015689652,200.45533701666864 179.4887738575926,200.30993646483694 181.85473263124004,199.34059703085222 182.69824836798944,199.60716579512518 183.21258723165374,200.55227066515363 183.80922031390946,200.72190444874286 185.99001709651202,199.1951957525307 187.10098904243205,198.90439291133953 186.89525349694304,196.89299621389364 185.84600221470464,193.98492072810768 186.7718121695798,192.99131958046928 186.89525349694304,192.0704170037061 185.35223690536804,189.88931678670633 185.70198733278085,187.70819524092076 186.93640060606413,184.79999999998836" stroke="#4dd2ff" stroke-linecap="round" stroke-linejoin="round" stroke-width="0.5"><title>2025-04-01 8.4km</title><desc>1743465137000</desc></polyline><polyline fill="none" points="21.876637316076085,246.84992542129476 21.196263684658334,246.60021204408258 22.400001648114994,246.41292693687137 23.28972101211548,247.4117801055545 24.022431077435613,245.22678644297412 23.39439387875609,244.16550067538628 19.88785285479389,243.3539278244716 18.57944202469662,239.79547888052184 16.067293231375515,240.6694860170246 15.22991030011326,238.79661188129103 21.51028228364885,235.79999999998836 20.725235785823315,236.6740134852007 22.66168381413445,237.8601724221371 19.992525720968843,238.98389958188636 23.080375279532745,237.79774306807667 32.44859682186507,253.155150627892 35.53644638042897,251.8441691598855 36.3214928782545,252.3435910399421 37.78691300773062,254.90312105836347 36.949530076701194,253.84185395936947 35.798128546681255,255.4649675169494 37.577567275147885,254.0915640492458 38.0485951739829,254.59098388889106 36.16448357864283,254.71583877777448 39.880370335886255,259.5227304585278 35.902801412856206,261.14582725422224 36.373829311691225,263.64288989646593 37.83924944116734,263.51803703350015 37.629903708351776,264.1423010646831 32.02990535623394,264.26715378579684 32.08224178967066,263.39318414212903 32.81495185405947,264.26715378579684 32.291587522253394,263.2059047522489 34.33270841697231,265.5156794395298 38.51962307258509,265.6405318491161 37.73457657475956,265.6405318491161 38.728968805400655,263.95502192963613 38.62429593899287,260.9585470991442 39.77569746947847,261.52038737310795 40.77008969988674,262.6440661996603 40.508407534100115,263.7053163173259 38.36261377320625,263.08105179015547 34.699063449399546,265.57810564799 36.68784791091457,265.70295804337366 39.82803390244953,268.20000000001164" stroke="#4dd2ff" stroke-linecap="round" stroke-linejoin="round" stroke-width="0.5"><title>2025-03-30 2.1km</title><desc>1743318651000</desc></polyline><polyline fill="none" points="73.37060467060655,236.69418623353704 73.23831378133036,235.80000000001746 70.54839902883396,236.79938450056943 70.72478688135743,237.95656386160408 67.99077516561374,238.53515245876042 68.07896909210831,240.1657164375065 66.57967234472744,240.95469694858184 66.57967234472744,241.69107754714787 66.13870271318592,241.27028877689736 66.05050878669135,242.21706297271885 65.60953915514983,239.85012385694426 66.0064118236769,240.32351264712634 65.25676345010288,240.79690095369006 59.480061276583,241.5332818030147 60.053321797633544,241.63847897172673 60.00922483461909,243.5320239253051 58.50992808723822,242.90084313362604 55.20265585044399,243.5320239253051 55.11446192418225,245.05737395668984 56.96653437661007,244.84698114733328 58.15715238195844,250.73794371061376 57.93666756595485,249.4756008926488 58.73041290300898,248.79183043082594 55.33494673995301,250.00157748468337 54.6734922924079,251.15872388603748 54.629395329160616,249.89638221397763 57.5838918609079,248.79183043082594 58.81860682903789,249.89638221397763 58.15715238195844,250.58015104645165 59.03909164504148,263.67675939027686 59.21547949756496,265.5176184527227 60.273806613404304,266.3065558131202 57.892570603173226,266.6221303814091 57.892570603173226,268.20000000001164 57.14292222936638,267.5688527970342" stroke="#4dd2ff" stroke-linecap="round" stroke-linejoin="round" stroke-width="0.5"><title>2025-03-30 1.4km</title><desc>1743309591000</desc></polyline><polyline fill="none" points="105.16330991860013,240.33075827798166 104.90689272177406,242.1155801453715 106.21228936023545,243.51597001614573 106.5386385199381,244.6692264359299 106.39877459441777,245.49297779957124 105.4896590783028,246.56385055820283 106.88829833385535,251.8906886525947 106.09573608904611,252.4947559878492 105.32648449845146,252.30255290136847 104.81365010468289,253.15373688894033 103.60149608319625,253.92254576868436 102.57582729577553,254.0323754177225 101.96975028491579,255.10321199485043 104.39405832800549,257.6292700488557 104.60385421628598,260.81426378649485 102.7856231839396,261.8027019585861 101.31705196562689,263.36772115963686 96.42181457113475,266.79974688724906 95.95560148591176,267.6783379822009 95.69918428896926,266.4977304930653 94.37047699617688,266.168257651545 92.64548858080525,268.1999999999971 92.41238203831017,267.5959701967804 93.48467213427648,264.5208870021306 93.2049442831194,263.36772115963686 95.27959251229186,262.0498108977481 96.0255334485555,260.4298701200605 97.07451289030723,259.7709081890789 96.58498915075324,259.2766856135131 97.07451289030723,259.5787106356729 98.00693906075321,261.11628697138804 100.94408149749506,259.30414244860003 101.48022654559463,259.46888339663565 101.45691589126363,258.91974648569885 101.5268478540238,259.4139697592327 101.06063476880081,259.1394013932586 101.10725607734639,258.34315144513675 100.61773233790882,258.260780617813 100.8741495347349,257.71164108214725 99.9650340185035,256.6408155560057 100.15151925256941,256.2015012073243 101.48022654559463,256.0093009396078 101.71333308808971,254.99338281112432 102.38934206170961,254.306949331527 102.08630355622154,253.56559907963674 104.44067963655107,255.18558385137294 105.04675664729439,255.15812656881462 106.18897870613728,256.2564155426662 106.63188113702927,257.4096138289169 107.21464749344159,257.1075862148573 107.58761796168983,256.03675812970323 106.63188113702927,250.27068276178034 105.2565525356913,246.61876698756532 106.39877459441777,245.49297779957124 106.5619491742691,244.1475158502726 104.95351403020322,241.86845171557798 105.2099312270293,239.17748205956013 107.0048516051611,235.7999999999738" stroke="#4dd2ff" stroke-linecap="round" stroke-linejoin="round" stroke-width="0.5"><title>2025-03-26 3.9km</title><desc>1742943197000</desc></polyline><polyline fill="none" points="135.39928170311032,237.2179407824733 135.26016799226636,236.69554326131765 135.86720963969128,236.7552459363942 135.93044314463623,236.3821037885209 135.31075479614083,235.79999999998836 135.18428778630914,236.0835893354233 134.88076696253847,235.99403487211384 133.5149232557742,238.21795331519388 133.5149232557742,238.54631404091197 133.36316284391796,238.48661214957247 133.24934253504034,239.21795851853676 132.65494758856948,240.41198498201265 132.75612119649304,240.78511610902206 134.22313851118088,241.65077639398805 135.29810809524497,242.63583141718118 135.13370098231826,243.0388064224535 134.9566471684957,242.82985656824894 134.96929386950796,243.66565406526206 134.72900655074045,244.05370116290578 135.13370098231826,244.30742366863706 135.1210542813642,244.9491902536538 134.7922400556272,245.18798635202984 134.61518624186283,245.0088893174543 134.43813242798205,245.56110441913188 134.0460846973001,245.456631463152 133.91961768746842,245.72527604541392 134.0460846973001,245.59095382044325 135.07046747743152,246.54613121438888 135.70280252682278,246.75507537806698 135.75338933075545,247.78486693941522 136.17073046340374,247.6505467416864 137.11923303751973,248.11320464395976 137.8780350968591,249.54594174628437 137.72627468494466,249.65041157160886 137.84009499388048,249.56086601193238 138.5356635482749,250.6354088500375 138.97829808283132,250.75480197640718 139.04153158783447,250.9786638069054 138.75065746501787,252.73969740020402 139.34505241148872,253.76944380324858 138.8644777739537,254.44101335851883 138.2068493225961,258.5002078756661 138.29537622950738,258.9628289992979 137.48598736623535,259.18667736712086 137.85274169489276,259.0075987021846 137.70098128303653,258.84344305298873 136.8915924197645,259.33590940842987 136.33513757627225,258.485284587543 136.91688582173083,259.09713806401123 136.82835891481955,260.02237469682586 137.18246654246468,259.5746803351067 136.66395180200925,259.67914248417947 137.11923303751973,259.6343730015069 136.90423912071856,259.09713806401123 136.29719747329364,258.58974757036776 136.55013149307342,258.8732895493449 136.37307767925085,258.67928720632335 136.68924520391738,259.52991081816435 136.6765985029051,260.33575987635413 134.86812026164262,264.51416018628515 134.9566471684957,264.94691576607875 138.47243004338816,265.9019577082654 138.30802293046145,267.17036245792406 138.10567571461434,267.12559543208044 138.06773561169393,267.49865353200585 137.72627468494466,267.4688089215633 137.53657417016802,268.1999999999971" stroke="#4dd2ff" stroke-linecap="round" stroke-linejoin="round" stroke-width="0.5"><title>2025-03-24 3.9km</title><desc>1742796232000</desc></polyline><polyline fill="none" points="179.86357211302675,268.1977165345579 179.92945714305097,268.2000000000007 179.9682130430665,268.10409423736564 179.91976816805254,268.1543306438816 179.92170596305368,268.0538577105999 179.8655099080279,268.0629916334983 180.05735161309713,268.01503849392975 180.0747917681074,267.980786184291 180.0108445330843,267.8711784178013 180.0476626380987,267.8118073052792 179.97402642806264,267.74786899625906 180.04184925309528,267.5788882418674 179.9914665830729,267.565187039987 180.03603586809186,267.4624277407638 179.94689729806123,267.36880216340796 179.8015626730048,267.4144732289351 179.79768708300253,267.3733692744354 179.83062959800736,267.3939212617479 179.8383807780192,267.3505337093666 179.94689729806123,267.3276981194613 179.8422563680142,267.3596679383809 179.88488785804657,267.3551008243667 179.85000754802604,267.25462406475344 167.54113370327104,235.94408051047867 167.51400457326235,235.96237637726153 167.53919590827718,236.0012550410156 167.60314314330026,235.95322844587463 167.61089432329754,235.9806722280373 167.73103761334642,235.93950654128275 167.75235335835896,236.0035420189888 167.70778407334,235.82058299086566 167.71359745834343,235.85260093637407 167.80854941337748,235.8000000000011 167.89962577840924,235.80457399972147 167.9674486034346,235.88919281405106 168.02170686345926,235.9006277626886 167.95000844843162,235.91892366750653 167.91319034341723,235.84573995217943 167.95969742343732,235.85260093637407 167.9306304984275,235.85946191831317 167.91319034341723,235.90520174039557 167.5023778032628,236.02869876013028 167.62252109330439,236.5638440824332 167.51788016326464,236.60043471525387 167.48299985325866,236.6621812629328 167.3725455382155,236.68047650129665 167.3628565632025,236.7719524529748 167.37060774320707,236.8085427215865 167.48493764824525,236.7948213783584 167.51981795826578,236.86114112052746 167.48299985325866,236.74450970949692 167.4791242632491,236.80396894151454 167.4190526182283,236.8154033898245 167.24271327316092,236.79024759528875 167.06249833809125,236.8405591540868 167.06637392808625,236.79710826952578 167.06249833809125,236.8657148880975 166.6516857979368,237.05552535978495 166.6400590279227,237.18358928285488 166.49859999287582,237.2544814744033 166.29513151779975,236.8405591540868 166.21955751276255,236.8771493026361 166.15948586774175,236.86114112052746 166.19049058775272,236.88400994835501 166.176926022752,236.79253448695636 166.1052276077171,236.69191101714387 166.14010791773762,236.67361578878445 166.03740478268446,236.60958236345687 166.00058667767735,236.51353185773405 166.02771580768604,236.4838018498649 165.90175913264102,236.39003770197633 165.82424733260996,236.43120250161337 165.58202295751835,236.3511597612287 165.37467889244,236.2573950184451 165.26616237239796,236.22537769288647 165.14408128735522,236.08129912107324 164.8941057322445,235.93493257108275 164.799153777225,235.94865447867778 164.58987191713823,236.1819255297687 164.42709713707154,236.19107336108755 164.4251593420704,236.22080378522696 164.3282695920352,236.23452550518596 164.07829403694632,236.13618631313875 164.08216962694132,236.04242060618344 163.92520823188534,235.94408051047867" stroke="#4dd2ff" stroke-linecap="round" stroke-linejoin="round" stroke-width="0.5"><title>2025-03-24 4.7km</title><desc>1742777725000</desc></polyline></svg>