<?xml version="1.0" encoding="utf-8" ?>
<svg baseProfile="full" height="300mm" version="1.1" viewBox="0,0,200,300" width="200mm" xmlns="http://www.w3.org/2000/svg" xmlns:ev="http://www.w3.org/2001/xml-events" xmlns:xlink="http://www.w3.org/1999/xlink"><defs /><rect fill="#222222" height="300" width="200" x="0" y="0" /><text fill="#FFFFFF" style="font-size:12px; font-family:Arial; font-weight:bold;" x="10" y="20">Over 1km Runs</text><text fill="#FFFFFF" style="font-size:4px; font-family:Arial" x="10" y="280">ATHLETE</text><text fill="#FFFFFF" style="font-size:9px; font-family:Arial" x="10" y="290">Tao</text><text fill="#FFFFFF" style="font-size:4px; font-family:Arial" x="65" y="280">SPECIAL TRACKS</text><rect fill="yellow" height="2.6" width="2.6" x="65" y="283" /><text fill="#FFFFFF" style="font-size:3px; font-family:Arial" x="70" y="285.5">Over 20.0 km</text><rect fill="red" height="2.6" width="2.6" x="65" y="287" /><text fill="#FFFFFF" style="font-size:3px; font-family:Arial" x="70" y="289.5">Over 40.0 km</text><text fill="#FFFFFF" style="font-size:4px; font-family:Arial" x="120" y="280">STATISTICS</text><text fill="#FFFFFF" style="font-size:3px; font-family:Arial" x="120" y="285">Number: 12</text><text fill="#FFFFFF" style="font-size:3px; font-family:Arial" x="120" y="290">Weekly: 2.0</text><text fill="#FFFFFF" style="font-size:3px; font-family:Arial" x="141" y="285">Total: 81.4 km</text><text fill="#FFFFFF" style="font-size:3px; font-family:Arial" x="141" y="290">Avg: 6.8 km</text><text fill="#FFFFFF" style="font-size:3px; font-family:Arial" x="167" y="285">Min: 1.4 km</text><text fill="#FFFFFF" style="font-size:3px; font-family:Arial" x="167" y="290">Max: 36.9 km</text><polyline fill="none" points="63.65672976686619,33.64908193645533 62.66491035115905,33.0 61.562888778047636,34.081802639731904 60.864941781852394,33.30290503537981 53.224258875707164,37.15410611120751 53.518131295451894,38.79842780876788 52.563045932212844,42.04377965591266 52.82018429902382,42.952473433775594 51.27735409676097,45.8948962012073 48.154959640000015,47.71226410882082 46.244788913521916,49.70270515844459 46.06111865141429,50.69792195269838 45.39990570768714,50.6113814607379 43.5264690334443,52.64507805314497 41.35915994015522,52.7316181032802 40.55101078655571,54.02971659920877 39.33878705627285,54.419145322957775 33.167466247454286,61.03937536725425 30.522614472545683,61.29898998950375 29.42059289943427,60.7797605759406 27.400220015551895,56.1932046902366 26.077794128097594,56.712440083385445 24.204357454087585,53.6835574140714 21.85337809822522,52.342187729489524 14.873908136039972,60.8662988585711 14.616769768996164,63.50570744561264 14.947376240976155,64.58742722321767 16.41673833830282,65.27972633909667 16.490206443006173,69.60656855080742 18.437111222185194,73.41415081662126 18.253440959611908,74.1929699780012 18.106504750205204,73.71702511585318 20.090143581619486,72.24591921933461 22.294186727376655,68.56813070681528 25.34311307943426,68.13544747265405 27.29001785814762,70.47193135283305 28.86958211287856,75.1015904081869 30.045071790693328,76.48615088776569 33.71847703400999,77.264964042668 37.13474391028285,79.03892165524303 41.02855346817523,78.34664645371959 42.35097935562953,79.4715930451639 42.60811772290617,81.63494294561679 41.21222373051569,87.0 43.8203414529562,84.18768071662635 45.546841917559505,83.97134764169459 47.493746696272865,84.83667923652683 54.10587613424286,80.4667354587582 57.999685692135245,76.65922060931916 59.68945210403763,76.14001121910405 60.16699478565715,71.42382826347603 63.95060218614526,71.81323998045991 65.38323023100384,70.16905458597466 63.54652760946192,58.313411617215024 61.562888778047636,53.337397927913116 63.25265518995002,51.00081352691632 63.36285734735429,49.78924584799097 60.75473962468095,45.33237588239717 62.04043145966716,39.62058611147222 63.39959139958955,36.33194271623506 64.24447460565716,35.72613702330273" stroke="#4DD2FF" stroke-linecap="round" stroke-linejoin="round" stroke-width="0.5"><title>2025-04-28 5.2km</title><desc>1745795058000</desc></polyline><polyline fill="none" points="91.53556423226837,84.58948183534085 91.71099295292515,87.0 91.5940404725261,85.89805111268652 90.83384934999049,85.69143527004053 91.6817548328545,85.79474320809823 91.27242115139961,82.52330882340902 93.2898514381377,81.14585266914219 91.91565979341976,80.04388343726168 91.18470679107122,78.56310625129845 90.9800399504602,76.42801999524818 91.94489791360684,75.601531133143 93.08518459729385,73.2598009907233 95.2780436045723,70.78030316508375 100.65785770211369,67.12989607828786 103.17233603040222,64.68478858174058 105.1020519566955,63.68607727874769 105.1897663170239,60.173343564762035 107.67500652512535,60.862117948854575 109.16615065000951,59.656761794758495 107.61653028498404,49.70378867848194 106.21310052042827,45.88093739582109 107.52881592465565,44.193357747310074 107.58729216479696,42.95349758656812 107.44110156432725,42.092480732826516 105.62833811854944,40.060471685021184 106.12538616009988,36.099738643097226 107.52881592465565,33.0" stroke="#4DD2FF" stroke-linecap="round" stroke-linejoin="round" stroke-width="0.5"><title>2025-04-27 2.3km</title><desc>1745711220000</desc></polyline><polyline fill="none" points="138.91710062220227,33.09241680018022 140.02511772506114,33.0 140.7271064855886,33.184833276320205 141.92073197389254,33.233929397467364 142.2313681153173,33.37832922375674 143.38341238783323,34.152298809474814 143.58642655899166,34.472854184165044 144.20525288798672,35.84455612879901 144.22482051893894,36.08423566998863 144.3642398894881,36.237282911830334 144.77760609342658,36.97940505221595 145.12493154288677,37.366339829197386 146.5704902797297,38.616620107130075 147.19910042418633,39.25473107344442 147.33362788701197,39.49149230124203 147.0890325000655,39.6878292682959 146.81753162055975,39.75423702931221 145.9296503659425,40.227748391575005 144.61617313804163,40.72434873630664 143.75275142211467,41.16030993672939 142.3512198549288,42.17367535118319 141.68592040243675,42.80881331551791 141.31658136814076,43.25051388519569 140.95947210320446,43.76726529602638 140.2917266968434,44.861359186223126 140.18410472657706,45.121163734889706 140.18165877272259,45.30591207993348 139.74383303007926,46.45478682010253 139.56038648987305,46.71746221064677 139.32802087227174,47.320739748965934 139.00515496150183,47.92977629071902 137.75038062645763,49.69041901451601 137.26608176031732,50.282084060354464 136.87472914120008,50.836216859042906 136.89185081829783,50.88239406729372 137.00925660402572,50.80158389985627 137.735704903258,49.817411654157695 137.84577282739338,49.7798911651189 137.94361098216905,49.82029784340921 138.97824946892797,50.495657453968306 139.32802087227174,50.660165511679224 141.40463570744032,51.93290373787204 148.50034788274206,57.167513052036156 149.35643173706194,57.87730853577159 152.20352204110532,59.706530953719266 153.18434954276017,60.13352363542617 154.28747473788098,60.42491332914324 154.92342274393013,60.48838392539619 156.5157387129584,60.94709870272163 156.84349653146637,61.0047981109783 156.87529393176374,60.96152356659513 157.79252663282386,61.273098704592485 158.48962348561327,61.625058794104916 159.04730096785352,62.00297793426762 159.09377409136505,61.936626109903955 159.13046339941502,61.95105043372314 159.52670792627032,62.253959415442296 159.61965417329338,62.2193414218018 159.62699203491502,62.18183854419476 160.00856083855615,62.33761937957024 160.20668310197652,62.55398012783189 160.46595421213715,62.60013685826016 160.6273871675221,62.68956529408206 160.69098196813138,62.76745433038559 160.65918456783402,62.72995223045291 160.67141433717916,62.87707554822191 160.7741443996929,62.822264996133526 160.85241492351633,62.84534313717995 161.84791814838536,63.39344306536077 161.94086439540843,63.48286881738932 161.94331034927745,63.44536773239997 162.18545978236943,63.52902392586839 162.42516326156328,63.554986138979075 162.74313726459513,63.658834736450444 162.71867772590485,63.67902747191147 163.1100303450221,63.76268292594432 163.21765231528843,63.84633811526146 163.29103093135927,64.11172523968344 163.3619635935611,64.18095622530018 163.65792401177168,64.1665331182503 164.19358790920523,64.50403176103464 165.96690446454159,65.06075087619865 166.29221632918052,65.21939925489642 166.17481054345262,65.22805277544285 165.96935041842517,65.17324709745662 165.98158018775575,65.14440195815405 165.80791746302566,65.25401332010006 165.47282178291061,65.95205396357596 165.25513188853802,66.2751078581714 164.69745440629777,66.88659192421983 164.4699806964345,67.35961706770286 164.3134396487876,67.5297886778626 164.23761507884774,67.68842224351283 163.96366824547295,67.95665501698204 163.56986967247212,68.47580749530789 162.89967831225658,69.09877701792175 162.59882598629338,69.54003821883089 162.59638003242435,69.62079110578452 162.63551529434335,69.61502305060458 182.9760676727601,86.9106536782383 183.005419119203,86.89912509864189 182.9785136266437,86.93659296398073 183.02987865789328,86.95388580703911 183.0200948424026,86.9106536782383 183.12527085879992,87.0" stroke="yellow" stroke-linecap="round" stroke-linejoin="round" stroke-width="0.5"><title>2025-04-20 36.9km</title><desc>1745145130000</desc></polyline><polyline fill="none" points="27.92663445341168,94.98403768624121 27.51717504725093,94.91700990781828 27.3010714717675,95.13149867029279 26.823368831246626,95.13149867029279 27.11908951343503,94.97063213349611 27.164585002989043,94.70252077176701 26.755125596828293,94.17970193712245 26.823368831246626,93.95180585286289 26.65276074531721,94.20651321338664 26.98260304471478,94.60868165719876 27.60816602635896,94.56846487194707 27.43755794048775,95.26555395701143 26.675508490065113,95.3727980814001 25.73147708136821,94.9438210235603 25.981702274060808,93.73731503530871 26.41390942502767,93.0 27.744652495137416,93.2547093295725 28.472580328409094,94.40759759950015 27.11908951343503,95.89561184983177 26.43665716977557,96.09669347735326 26.504900404135697,96.32458559155202 26.2546752114431,96.05647717812099 25.435756399063393,95.93582820159645 25.49262576107867,96.43182879344386 26.186431977141183,97.53106622755149 27.175958875450306,100.85552948041732 27.619539898762014,101.55258297343971 41.222691282455344,105.89567354978499 42.43969562865095,106.06993016080378 43.39510090975091,105.96269535239117 43.645326102443505,106.29780381851015 45.46514568553539,110.46647691242106 48.2744921669364,120.45195283883368 53.108387934509665,132.98291497726314 54.564243600994814,138.00834389476222 54.41638325992972,138.39696852730413 50.40140630461974,139.69684201401833 50.59476213535527,140.59468476720212 54.132036450027954,146.7052020041083 54.04104547086172,147.0 53.7453247885569,146.51760291233222" stroke="#4DD2FF" stroke-linecap="round" stroke-linejoin="round" stroke-width="0.5"><title>2025-04-16 7.1km</title><desc>1744770713000</desc></polyline><polyline fill="none" points="82.16129032266326,101.98448978119995 81.77419354813173,103.44856463611359 83.00000000023283,105.48199607629795 81.58064516144805,107.02739941491745 82.80645161285065,107.10873632360017 114.74193548387848,137.03997883800184 115.90322580654174,135.98265030811308 115.00000000023283,134.76265356235672 116.09677419369109,131.83465136861196 118.35483870981261,130.3706449761521 116.54838709696196,137.69064163352596 120.16129032266326,138.82929984730436 122.74193548411131,133.46132099768147 123.25806451612152,134.03065433795564 123.19354838691652,131.0213149198098 125.70967741939239,131.0213149198098 125.38709677406587,128.9879690298112 127.0,129.1506369516719 125.45161290327087,142.65192251617555 126.22580645186827,142.97725099336822 125.06451612897217,144.60389076528372 125.83870967756957,142.65192251617555 124.74193548364565,140.53728316357592 123.38709677406587,142.57059036957799 121.064516129205,141.5132714722422 115.96774193551391,141.91993280453607 104.09677419369109,130.0453097426216 102.54838709696196,130.53331252752105 103.70967741939239,129.55730656546075 91.38709677406587,118.00778353080386 86.22580645163544,119.47181973932311 83.96774193528108,117.35709963797126 84.09677419369109,116.05572976003168 83.45161290303804,118.170454394829 81.06451612897217,119.14647866471205 79.32258064532652,118.90247274452122 79.00000000023283,117.76377715286799 77.90322580630891,120.77318229380762 77.45161290327087,119.79716063931119 75.12903225841,120.69184721593047 76.54838709696196,117.19442855595844 74.61290322593413,113.7783257602714 73.0,105.31932181149023 74.03225806448609,104.58728708169656 76.41935483901761,105.48199607629795 82.35483870957978,103.28588982659858 81.38709677453153,99.6256950875977 79.7741935485974,98.81231548159849 81.32258064532652,98.64963942969916 79.96774193551391,95.39610923465807 81.25806451612152,96.45350846089423 81.45161290327087,99.05632947792765 80.41935483878478,99.8697087567416 80.74193548387848,96.20949341839878" stroke="#4DD2FF" stroke-linecap="round" stroke-linejoin="round" stroke-width="0.5"><title>2025-04-07 2.7km</title><desc>1743986187000</desc></polyline><polyline fill="none" points="161.98205546475947,120.47219549739384 157.97389885806479,120.13901700658607 160.2202283849474,118.58418050748878 162.81892332760617,118.52865052473499 164.71288743871264,116.52956618607277 164.14029363775626,115.75214189448161 162.46655791183002,116.0297935945855 155.9918433930725,108.8107889300154 149.91353996726684,109.31057022788445 147.49102773237973,110.4211931762693 146.12561174528673,112.14265286375303 144.2316476344131,110.03247548293439 143.13050570944324,109.69928859840729 141.54486133763567,110.47672424546909 137.66884176200256,107.47803585551446 133.0,109.97694435421727 135.46655791183002,107.97781876061345 138.15334420860745,107.3669729057874 141.14845024468377,110.19906882470241 143.48287112545222,109.64375742501579 146.12561174528673,112.08712201777962 147.71125611732714,110.36566209958983 150.48613376845606,109.2550390023971 156.4323001629673,108.92185149274883 163.52365415985696,117.64016978701693 162.46655791183002,118.58418050748878 158.76672104396857,118.63971048296662 155.90375203895383,120.36113603023114 163.65579119091853,120.52772521981387 170.79119086451828,118.80630036469665 172.55301794456318,123.5818484944175 173.96247960836627,124.19267044845037 180.52528548100963,123.97055347840069 186.95595432282425,129.80108448752435 187.0,130.41189727469464 184.269168025814,131.57799191429513 180.70146818901412,132.02221758072847 180.4371941271238,132.6330270942126 180.96574225090444,131.96668939836673" stroke="#4DD2FF" stroke-linecap="round" stroke-linejoin="round" stroke-width="0.5"><title>2025-04-04 2.7km</title><desc>1743741381000</desc></polyline><polyline fill="none" points="62.45946372137405,178.00172297877725 59.853480144403875,179.69806330258143 58.96195944712963,179.45572944442392 58.070438749855384,180.82895255176118 55.53303368831985,181.5559509669256 55.0529840819072,181.07128551471396 56.21881884010509,179.0922283611435 55.73876923369244,178.52678152517183 51.00685168639757,179.41534045277513 49.360967322136275,179.21339542834903 47.50934741226956,177.88055551651632 46.309223396587186,175.21486135805026 46.51495894219261,174.52824007015442 48.74376068543643,173.59927983858506 48.43515736726113,170.00458576815436 46.892140775569715,168.3082012135128 44.389024971518666,167.90429898831644 43.394636501558125,169.39873503014678 42.503115804167464,168.87366359183216 39.17705781792756,173.31655235085054 36.2624709228985,175.86109200015198 35.30237171042245,176.14381755283102 33.00499145174399,175.53797681964352 32.01060298178345,172.9934349587711 31.46197486028541,178.0825012649584 32.38778481516056,180.62700829526875 31.73628892097622,180.10195271499106 31.770578178577125,179.17300641039037 32.62780961825047,179.13261738789151 34.37656175531447,180.50584168874775 34.719454331323504,181.6367284808657 37.32543790806085,183.49460645753425 36.19389240781311,184.22159966049367 36.4339172107866,184.86781464723754 31.873445951379836,186.11985298834043 31.153371541877277,184.38315351243364 28.958859056350775,181.8790609173011 28.821702025830746,172.4279788467975 26.524321767385118,172.791486445989 24.466966311912984,171.09511460846988 23.301131553947926,171.41823365041637 26.009982903371565,167.62156716934987 28.341652419650927,168.83327345043654 30.021826041513123,171.66057274769992 32.35349555767607,169.76224559140974 35.19950393761974,169.4391251100169 37.66833048395347,166.81376078777248 38.66271895414684,166.65219930079184 39.03990078764036,167.74273797517526 38.42269415105693,165.88478127893177 39.07419004512485,165.15775221789954 37.87406602955889,165.31931435430306 37.70261974167079,166.0463430994423 37.15399162017275,165.4000953962386 38.69700821174774,164.55189358090865 36.63965275627561,165.5212669261673 36.77680978679564,166.2079048496962 37.32543790806085,165.88478127893177 38.25124786316883,166.36946652969345 35.40523948322516,169.31795485707698 32.28491704235785,169.84302566788392 30.261850844719447,171.66057274769992 28.170206131762825,168.75249315457768 25.701379585196264,167.66195744244033 23.129685265943408,171.7413524116855 19.632180991815403,175.4975874022639 19.5978917342145,178.97106125429855 20.969462037901394,179.61728536742157 20.969462037901394,181.03089669864858 18.706371036940254,180.95011905298452 17.163354445248842,177.15354991445201 17.54053627885878,178.52678152517183 17.19764370296616,179.98078593736864 16.717594096786343,180.54623056194396 15.586048596305773,180.14234163213405 14.83168492920231,182.96955492693814 15.791784141678363,188.34120095905382 17.266222218167968,189.91633056942374 18.192032173159532,192.37998145102756 17.952007369836792,194.64167936416925 16.54614780889824,195.73213594246772 16.168965975171886,194.52051732470863 16.477569293463603,194.0762561755837 17.334800733136944,194.60129202203825 16.477569293463603,196.17639511296875 17.8834288547514,198.11497437313665 18.706371036940254,203.04215117002605 24.501255569513887,206.47498166019795 29.370330147328787,207.0 31.2219500571955,206.8384559743572 36.15960315009579,203.76910615403904 43.188900955952704,205.38455658601015 44.834785320213996,204.7383772554458 49.498124352423474,198.84193898996455 48.812339200638235,197.589943488274 46.206355623784475,197.14568600643543 45.623438244801946,196.45910521800397 45.0062316081021,193.30889475881122 48.126554048852995,191.24912733549718 49.22381029184908,188.94702082974254 50.66395911050495,187.9373204970616 50.183909504208714,185.95829989091726 48.09226479136851,184.58509572871844 48.91520697355736,180.06156379342428 49.841016928316094,179.0922283611435 52.48128976277076,178.8498941080761 56.42455438571051,177.2343283847731 57.83041394688189,177.67860965855652 58.6876453863224,179.25378444194212 59.68203385663219,179.5365074145957 63.31669516104739,176.99199292089907 65.1683150709141,176.50732151890406 64.8254224951379,173.15499368985184 63.07667035795748,168.3082012135128 64.61968694941606,166.65219930079184 64.8254224951379,165.1173616728338 62.253728175885044,161.4821946445154 62.83664555486757,157.84699206822552 64.89400101022329,153.0" stroke="#4DD2FF" stroke-linecap="round" stroke-linejoin="round" stroke-width="0.5"><title>2025-04-01 8.4km</title><desc>1743465137000</desc></polyline><polyline fill="none" points="89.79439552687109,171.4165423688246 88.66043947450817,171.0003534068237 90.66666941344738,170.6882115614717 92.14953502034768,172.35296684259083 93.37071846192703,168.7113107383484 92.32398979784921,166.9425011256244 86.47975475760177,165.58987970743328 84.29907004116103,159.6591314675752 80.11215538531542,161.11581002845196 78.71651716670021,157.99435313552385 89.18380380608141,153.0 87.87539297621697,154.45668914203998 91.10280635673553,156.43362070358125 86.65420953463763,158.30649930314394 91.8006254658103,156.3295717801666 107.41432803636417,181.92525104648666 112.56074396753684,179.7402819332201 113.86915479740128,180.57265173323685 116.31152167962864,184.83853509725304 114.9158834614791,183.06975659902673 112.99688091082498,185.77494586160174 115.96261212555692,183.48594008211512 116.74765862291679,184.3183064815239 113.607472631149,184.52639796305448 119.80061722639948,192.53788409754634 113.17133568786085,195.24304542370373 113.95638218615204,199.4048164942069 116.3987490683794,199.1967283891281 116.04983951384202,200.23716844117735 106.7165089272894,200.4452563097002 106.80373631604016,198.98864023690112 108.02491975668818,200.4452563097002 107.15264587011188,198.67650792043423 110.55451402813196,202.5261323992745 117.53270512074232,202.73421974858502 116.22429429087788,202.73421974858502 117.88161467574537,199.92503654939355 117.70715989824384,194.930911831907 119.62616244889796,195.86731228849385 121.28348283329979,197.74011033284478 120.84734589001164,199.50886052893475 117.2710229549557,198.46841965027852 111.16510574892163,202.63017607998336 114.47974651819095,202.83826340566156 119.71338983764872,207.0" stroke="#4DD2FF" stroke-linecap="round" stroke-linejoin="round" stroke-width="0.5"><title>2025-03-30 2.1km</title><desc>1743318651000</desc></polyline><polyline fill="none" points="175.61767445132136,154.4903103891993 175.39718963578343,153.0 170.91399838170037,154.66564083425328 171.20797813590616,156.59427310264437 166.65129194268957,157.55858743126737 166.7982818200253,160.2761940624914 164.2994539081119,161.59116158093093 164.2994539081119,162.81846257857978 163.56450452189893,162.117147961515 163.4175146445632,163.69510495453142 162.68256525881588,159.75020642823074 163.344019706361,160.53918774519116 162.0946057504043,161.3281682561501 152.4667687942274,162.55546967167174 153.4222029959783,162.730798286153 153.3487080577761,165.88670654210728 150.84988014539704,164.8347385560046 145.3377597508952,165.88670654210728 145.19076987402514,168.42895659443457 148.27755729435012,168.07830191223184 150.26192063698545,177.89657285099383 149.89444594364613,175.79266815440496 151.2173548382707,174.65305071801413 145.55824456643313,176.6692958077765 144.4558204873465,178.5978731433861 144.38232554867864,176.4939703566488 149.30648643476889,174.65305071801413 151.36434471514076,176.4939703566488 150.26192063698545,177.6335850774194 151.73181940848008,199.46126565040322 152.02579916268587,202.52936408785172 153.78967768885195,203.84425968851428 149.82095100544393,204.37021730229026 149.82095100544393,207.0 148.57153704902157,205.9480879949988" stroke="#4DD2FF" stroke-linecap="round" stroke-linejoin="round" stroke-width="0.5"><title>2025-03-30 1.4km</title><desc>1743309591000</desc></polyline><polyline fill="none" points="48.60551653127186,220.55126379663125 48.178154536522925,223.52596690898645 50.353815600508824,225.8599500269047 50.89773086667992,227.782044059888 50.66462432406843,229.15496299928054 49.14943179744296,230.9397509303817 51.480497223325074,239.817814420996 50.159560148604214,240.82459331309656 48.87747416412458,240.50425483565778 48.02275017462671,241.9228948148957 46.002493472071365,243.2042429478024 44.293045493075624,243.387292362866 43.28291714168154,245.17201999141253 47.323430546792224,249.38211674807826 47.67309036059305,254.69043964415323 44.64270530687645,256.33783659763867 42.19508660957217,258.94620193276205 34.03635761863552,264.6662448120769 33.25933580985293,266.1305633036536 32.83197381510399,264.1628841551137 30.61746166041121,263.61376275258954 27.742480968357995,267.0 27.353970063850284,265.9932836613152 29.141120224026963,260.8681450035656 28.674907138571143,258.94620193276205 32.13265418726951,256.7496848296141 33.37588908104226,254.04978353340994 35.124188150744885,252.9515136484406 34.30831525148824,252.12780935587944 35.124188150744885,252.63118439281243 36.67823176807724,255.1938116189849 41.5734691626858,252.17357074769097 42.46704424289055,252.4481389943976 42.42819315218367,251.53291080950294 42.54474642360583,252.3566162654024 41.76772461482324,251.8990023221122 41.845426795771345,250.57191907524248 41.0295538965147,250.4346343630168 41.456915891496465,249.5194018035836 39.941723364405334,247.73469259336707 40.252532087732106,247.00250201224117 42.46704424289055,246.6821682326845 42.8555551469326,244.98897135187872 43.98223676951602,243.84491555255954 43.47717259381898,242.60933179938002 47.40113272774033,245.30930641895975 48.41126107913442,245.26354428136256 50.3149645102676,247.09402590445825 51.05313522857614,249.0160230481997 52.02441248926334,248.51264369144337 52.646029936149716,246.7279302161769 51.05313522857614,237.11780460301088 48.760920892935246,231.03127831261372 50.66462432406843,229.15496299928054 50.936581957153976,226.91252641714527 48.2558567172382,223.1140861926542 48.68321871198714,218.6291367659287 51.67475267522968,213.0" stroke="#4DD2FF" stroke-linecap="round" stroke-linejoin="round" stroke-width="0.5"><title>2025-03-26 3.9km</title><desc>1742943197000</desc></polyline><polyline fill="none" points="98.9988028384978,215.3632346374652 98.76694665371906,214.49257210220094 99.7786827328382,214.59207656067156 99.88407190761063,213.97017298087303 98.85125799360685,213.0 98.64047964382917,213.4726488923916 98.1346116042696,213.32339145353762 95.85820542625152,217.02992219201406 95.85820542625152,217.57719006820116 95.60527140647173,217.47768691596866 95.4155708916951,218.696597530914 94.424912647577,220.686641636712 94.593535327469,221.30852684838464 97.03856418526266,222.7512939899898 98.83018015872221,224.3930523619929 98.55616830382496,225.06467737077037 98.26107861415949,224.71642761377734 98.28215644916054,226.10942344210343 97.88167758448981,226.75616860485752 98.55616830382496,227.17903944774298 98.53509046894033,228.24865042275633 97.98706675937865,228.64664392007398 97.69197706971318,228.34814886242384 97.39688737993129,229.2685073652392 96.74347449548077,229.09438577193941 96.53269614570308,229.5421267423808 96.74347449548077,229.31825636741996 98.45077912893612,230.91021869065298 99.50467087805737,231.25845896346436 99.58898221794516,232.9747782323684 100.28455077228136,232.75091123617312 101.86538839584682,233.52200773994264 103.13005849474575,235.90990291048365 102.87712447496597,236.08401928603416 103.0668249897426,235.9347766865685 104.22610591375269,237.72568141674856 104.96383013797458,237.9246699607029 105.06921931297984,238.29777301152353 104.58442910842132,241.2328290003643 105.575087352423,242.94907300543855 104.77412962319795,244.06835559755564 103.67808220430743,250.83367979280592 103.82562704908196,251.60471499884443 102.47664561029524,251.9777956118778 103.08790282486007,251.67933117032226 102.83496880496386,251.4057384216576 101.48598736629356,252.22651568072615 100.5585626270622,250.80880764590984 101.52814303617924,251.82856344002357 101.3805981912883,253.37062449470977 101.97077757073566,252.6244672251778 101.10658633662388,252.79857080697548 101.86538839584682,252.72395500252605 101.5070652011782,251.82856344002357 100.49532912217546,250.982912617299 100.91688582173083,251.45548258225608 100.62179613206536,251.13214534390136 101.14874200650956,252.5498513636121 101.12766417150851,253.8929331272666 98.11353376938496,260.85693364382314 98.26107861415949,261.5781929434743 104.12071673886385,263.1699295137805 103.84670488408301,265.2839374298783 103.50945952429902,265.2093257201341 103.4462260195287,265.8310892200243 102.87712447496597,265.78134820262494 102.56095695029944,267.0" stroke="#4DD2FF" stroke-linecap="round" stroke-linejoin="round" stroke-width="0.5"><title>2025-03-24 3.9km</title><desc>1742796232000</desc></polyline><polyline fill="none" points="173.10595352172095,266.99619422425894 173.2157619050995,267.0 173.28035507179447,266.84015706227365 173.19961361342575,266.92388440646755 173.2028432717634,266.7564295176635 173.1091831800586,266.77165272249476 173.42891935516673,266.6917308232114 173.4579862801911,266.63464364048195 173.35140755515022,266.45196402966394 173.41277106350753,266.35301217546294 173.29004404677835,266.246448327096 173.40308208849456,265.964813736442 173.31911097180273,265.94197839997287 173.39339311349613,265.7707129012706 173.24482883010933,265.61467027234175 173.00260445501772,265.6907887148882 172.99614513835695,265.62228212405535 173.0510493300244,265.65653543624285 173.06396796337503,265.5842228489382 173.24482883010933,265.5461635324318 173.0704272800358,265.5994465639669 173.14147976342065,265.5918347072766 173.08334591338644,265.4243734412521 152.56855617213296,213.2401341841287 152.52334095544938,213.27062729543104 152.56532651380985,213.33542506835875 152.6719052388362,213.25538074312135 152.68482387217227,213.30112038005973 152.88506268893252,213.2325109021367 152.92058893060312,213.33923669831347 152.84630678890971,213.03430498477246 152.85599576390814,213.08766822728649 153.01424902230792,213.0 153.16604296401783,213.00762333286548 153.27908100573404,213.1486546900851 153.3695114391012,213.1677129378113 153.2500140807242,213.19820611250907 153.18865057238145,213.07623325362874 153.26616237239796,213.08766822728649 153.21771749739128,213.0991031971862 153.18865057238145,213.17533623398776 152.50396300545253,213.3811646002141 152.70420182218368,214.27307347071837 152.5298002721247,214.3340578587522 152.47166642210505,214.43696877155162 152.2875758970331,214.46746083549442 152.2714276053448,214.61992075495436 152.28434623868088,214.68090453597324 152.4748960804136,214.65803563059308 152.5330299304478,214.7685685342076 152.47166642210505,214.57418284915911 152.46520710542973,214.67328156918666 152.36508769706415,214.6923389830372 152.07118878861365,214.65041265881155 151.77083056348783,214.7342652568077 151.77728988016315,214.66184711587266 151.77083056348783,214.77619148015947 151.08614299657347,215.09254226630583 151.06676504654752,215.30598213808844 150.83099998813123,215.42413579066852 150.49188586299715,214.7342652568077 150.36592918794486,214.7952488377232 150.26580977957929,214.7685685342076 150.31748431292363,214.8066832472541 150.29487670460367,214.65422414492423 150.17537934621214,214.48651836190402 150.2335131962318,214.4560263146377 150.06234130448138,214.34930393909235 150.0009777961386,214.18921976288766 150.0461930128222,214.13966974976938 149.83626522107807,213.98339616995872 149.7070788876881,214.05200416935259 149.3033715958736,213.91859960204602 148.95779815407877,213.76232503073697 148.77693728732993,213.70896282147442 148.57346881226113,213.46883186845298 148.15684288708144,213.22488761846762 147.99858962871076,213.24775746445812 147.6497865285637,213.63654254961148 147.37849522846227,213.6517889351453 147.3752655701246,213.7013396420407 147.21378265340172,213.7242091753069 146.79715672825114,213.56031052189428 146.8036160449119,213.40403434363543 146.5420137198089,213.2401341841287" stroke="#4DD2FF" stroke-linecap="round" stroke-linejoin="round" stroke-width="0.5"><title>2025-03-24 4.7km</title><desc>1742777725000</desc></polyline></svg>