<?xml version="1.0" encoding="utf-8" ?>
<svg baseProfile="full" height="300mm" version="1.1" viewBox="0,0,200,300" width="200mm" xmlns="http://www.w3.org/2000/svg" xmlns:ev="http://www.w3.org/2001/xml-events" xmlns:xlink="http://www.w3.org/1999/xlink"><defs /><rect fill="#222222" height="300" width="200" x="0" y="0" /><text fill="#FFFFFF" style="font-size:12px; font-family:Arial; font-weight:bold;" x="10" y="20">Over 1km Runs</text><text fill="#FFFFFF" style="font-size:4px; font-family:Arial" x="10" y="280">ATHLETE</text><text fill="#FFFFFF" style="font-size:9px; font-family:Arial" x="10" y="290">Tao</text><text fill="#FFFFFF" style="font-size:4px; font-family:Arial" x="65" y="280">SPECIAL TRACKS</text><rect fill="yellow" height="2.6" width="2.6" x="65" y="283" /><text fill="#FFFFFF" style="font-size:3px; font-family:Arial" x="70" y="285.5">Over 20.0 km</text><rect fill="red" height="2.6" width="2.6" x="65" y="287" /><text fill="#FFFFFF" style="font-size:3px; font-family:Arial" x="70" y="289.5">Over 40.0 km</text><text fill="#FFFFFF" style="font-size:4px; font-family:Arial" x="120" y="280">STATISTICS</text><text fill="#FFFFFF" style="font-size:3px; font-family:Arial" x="120" y="285">Number: 20</text><text fill="#FFFFFF" style="font-size:3px; font-family:Arial" x="120" y="290">Weekly: 2.5</text><text fill="#FFFFFF" style="font-size:3px; font-family:Arial" x="141" y="285">Total: 304.1 km</text><text fill="#FFFFFF" style="font-size:3px; font-family:Arial" x="141" y="290">Avg: 15.2 km</text><text fill="#FFFFFF" style="font-size:3px; font-family:Arial" x="167" y="285">Min: 1.4 km</text><text fill="#FFFFFF" style="font-size:3px; font-family:Arial" x="167" y="290">Max: 98.8 km</text><polyline fill="none" points="43.91999784222571,34.11831036108924 44.22948287858162,33.24984445254813 44.681331031693844,33.03819979259424 44.848452951351646,32.571119554348115 45.17650708989822,32.308385488096974 45.07747187826317,32.25 45.13936888551689,32.33028003299842 45.07747187826317,32.25729818878608 45.13936888551689,32.301087304869725 44.873211754253134,32.62950476236438 44.687520732404664,33.103882689720194 44.16139617058798,33.35201749717089 43.845721433492145,34.4540168525491 43.64765101019293,34.570783933195344 43.270079265814275,35.12542478499381 44.04998155750218,35.64357195539196 45.009385170269525,35.91359072233172 44.85464265209157,35.906292932144424 44.97843666659901,36.074141905286524 44.76798684184905,35.91359072233172 44.75560744042741,36.008461922436254 44.780366243358,35.91359072233172 44.879401454963954,35.96467523140018 44.78655594406882,35.884399556787685 45.04033367388183,35.92818630032707 44.774176542588975,35.884399556787685 44.71846923607518,35.96467523140018 44.73084863752592,36.83310592167254 44.34708719237824,37.59206133426051 44.01284335312084,37.891262545919744 44.3347077909566,38.15397470249445 43.851911134202965,38.66480094494909 43.851911134202965,38.67209843445016 44.662761929503176,38.9712948196684 44.60086492224946,38.53344599768752 44.35946659388719,38.110189414655906 43.988084550219355,37.891262545919744 44.39660479821032,37.577466119000746 44.737038338236744,36.78931976999593 44.69371043317369,36.008461922436254 44.76798684184905,35.86250617427868 45.19507619205979,36.044950809766306 45.485992126283236,36.439029525558 46.327791425195755,36.3368611923579 47.18815982632805,36.51930453511159 47.070555512502324,35.62897631536907 46.25970471720211,34.89919025562267 46.563000052876305,34.132906330494734 46.8415365855908,33.86288038110797 46.8972438921337,33.461488443361304 47.23767743213102,33.51257482366054 47.03341730812099,33.43229620857164 46.86010568778147,33.49068066545442 46.8415365855908,33.81909228669247 46.53824124994571,34.15480027866579 46.25970471720211,34.92108395318064 47.08293491398217,35.68735885645583 47.36147144669667,37.36583514017548 47.91235481144395,38.29262792511145 47.76999169471674,39.416438186766754 48.135184037615545,39.37995113686338 48.7912923147087,39.56238618747739 50.09112946753157,39.131838670320576 51.05672278100974,39.66454959870316 51.05672278100974,39.80319969316042 50.67296133592026,40.62049967885105 49.942576650035335,40.985362523046206 49.06982884751051,41.79535093125742 48.94603483291576,41.75886517766776 48.44466907400056,40.72995874087064 47.590490373637294,41.16049598206155 46.8972438921337,41.685893610811036 46.16685920630698,43.05044875090971 45.096040980453836,44.08661643334926 44.322328389505856,45.0935809328148 40.38567872683052,51.14234614762972 40.429006631922675,51.35393359512818 41.153201617038576,51.8646591630968 40.100952493346995,54.425524371625215 39.77289835480042,54.34527082245768 38.008833647472784,53.287374142390036 37.80457352346275,53.29467003876198 33.818406254955335,60.167051570198964 31.85008142364677,62.537932619707135 29.176130709325662,63.09234193369048 28.037225775507977,63.48626155388047 18.498896954435622,68.35170743663912 17.954203290399164,69.00089314942306 17.421889027842553,70.02936550958839 17.279525911144447,70.01477735947992 17.230008305312367,70.13148247143545 17.12478339293739,70.0658358709552 17.12478339293739,69.81054292466433 16.945282071857946,69.56983725622558 16.77197045146022,69.54066075284209 16.691504342015833,69.72301369069464 16.46248541510431,69.68654314281594 16.38201930563082,69.82513111921435 16.313932597608073,69.6792490308435 16.48105451729498,69.76677832196583 16.7657807507494,69.496895973949 17.26095680895378,69.94913064472348 17.242387706734007,70.10230621248047 17.310474414756754,70.05124772877753 16.62960733473301,71.3349920872206 15.589737612492172,71.60486703529023 15.670203721994767,72.10814444176503 15.236924671044108,72.34154717394267 14.723179510678165,72.27590273765236 14.983146941231098,72.75 14.357987167750252,72.63329944647558 14.401315072842408,72.30507805063098 13.94327721899026,71.77262659059488" stroke="#4dd2ff" stroke-linecap="round" stroke-linejoin="round" stroke-width="0.5"><title>2025-05-17 14.6km</title><desc>1747468743000</desc></polyline><polyline fill="none" points="93.126295163529,53.18805323661945 90.8228740383638,54.31025257366127 90.92240458086599,54.96346932128654 90.63803160242969,56.571375675994204 89.91288050747244,57.86103844323952 87.68055262701819,59.40192006985308 86.98383882991038,60.33984047546983 86.27290638384875,60.39008605048002 85.83212826726958,60.89254089942551 85.33447555516614,60.993031672682264 82.93152388755698,63.62251695721352 81.56653359113261,63.47178334381897 80.81294519844232,61.59597493670299 80.30107383732684,61.89744568434253 79.53326679562451,60.691559156330186 78.99295813660137,60.75855309983308 78.59483596688369,60.557571182071115 78.52374272228917,60.23934927639493 77.3293762129033,62.081677517679054 76.37672673526686,62.88559566845652 75.9359486187459,63.890487461554585 76.06391645903932,65.02935690869344 76.53313187335152,65.1968370001996 76.57578782021301,66.72089747144491 77.2156270215637,68.42916712493752 78.01187136111548,67.90998913433577 78.85077164741233,66.48642761036172 80.07357545453124,66.38594041785109 80.78450790059287,67.1395927650301 81.75137602718314,69.53450799117854 83.25855281273834,69.8527107109694 84.48135661991546,70.50586160458624 86.27290638384875,70.33838728022238 86.51462341548176,70.58959869851242 86.89852693636203,72.3145727160445 88.46257831761613,72.75 93.31113759946311,69.38378015786293 93.58129192894557,68.81436256882444 93.52441733318847,67.54153917712392 94.93206357641611,67.75925971282413 95.37284169293707,67.15634055313421 95.35862304398324,65.88350347294181 94.74722114036558,62.45014052381157 94.03628869442036,60.490577151300386 94.6903465447831,59.736892298431485 94.66190924687544,58.88271167714265 93.709259769239,57.60980628283869 93.92253950308077,55.985161760268966 94.74722114036558,54.594988419354195 94.94628222531173,53.12105600281211 95.51502818212612,52.400833900333964 95.84205710724927,51.17812355485512 96.43924036197131,50.491391572810244 93.01254597213119,46.92368593822175 91.8039608139079,47.20843542997318 88.02180020103697,47.37593488530547 81.31059791066218,46.43793559090409 79.77498382725753,45.83493302993884 77.74171703163302,43.456399920687545 75.19657887489302,44.076162084180396 74.35767858853796,41.49659505591262 72.90737639868166,42.45137489818444 69.58021255128551,43.80815713017364 67.37632196868071,45.75118248765648 65.94023842772003,44.84667373087723 62.41401349543594,41.56359734307625 58.560759638028685,35.08099111550837 62.86901026091073,32.25 63.48041216452839,32.90331025861087 63.85009703639662,33.79113770855474 63.59416135586798,33.72413204176701 63.21025783492951,33.03732227702858 63.665254600404296,33.8581433462241 62.95432215445908,35.36576249054633" stroke="#4dd2ff" stroke-linecap="round" stroke-linejoin="round" stroke-width="0.5"><title>2025-05-12 8.9km</title><desc>1747004623000</desc></polyline><polyline fill="none" points="119.58383934784797,48.50091851307661 119.32346786104608,49.2515938411525 118.09104282353655,51.18965938038309 116.91647811641451,52.60222564109063 116.51724183664192,53.23684647139817 116.24529828378581,53.741808982609655 116.19322398642544,54.3695945270083 115.62619274848839,55.0314920259043 115.07073357666377,56.150560522706655 115.04758944449713,56.478088977746665 114.92608275066596,56.60773518401402 114.94344084980548,57.337843011577206 115.04180341149913,57.24231536922889 114.91451068458264,57.399253561743535 114.96079894891591,57.037612787149556 114.79300399075146,56.82608608182272 114.9550129158597,57.02396592452351 114.96658498194302,57.255962184197415 114.38798167795176,58.48416333960995 114.52106043786625,58.586512347243115 114.33590738059138,58.5796890852871 113.68208564707311,60.039850182420196 112.81418069108622,62.59846150159865 112.81418069108622,63.00782960138167 112.41494441131363,63.60823130217614 110.95107805222506,67.04678459320712 110.5807719376462,70.18498178952723 110.7080646645336,72.12239887603937 110.80642722619814,72.46348722416951 111.13623110947083,72.75 111.51232325707679,72.63403070114146 113.71101581229595,71.11276647005798 113.91352696868125,70.79895848517481 113.93088506779168,70.36917543074378 114.0118895303458,70.27366768443972 116.01385696220677,68.93654393054385 116.62139043139177,68.6773023449714 116.88754795122077,68.950188194769 117.79016910545761,68.60908069657671 121.97925702639623,66.65108768594655 122.37849330616882,66.23492099725263 123.61091834367835,65.93473347056715 124.02751272256137,65.66183446921059 123.99279652431142,65.54585203318857 124.20109371372382,65.32753157035404 125.49137908164994,64.78854966574363 125.71703437023098,64.61116220056283 125.49137908164994,64.1608686839827 125.37565842087497,64.1813366414026 125.41037461909582,64.27003104621326 125.49716511470615,64.1404007198471 125.56081147814984,64.29049896793003 125.69967627109145,64.33143479125647 126.4055723019701,63.99712478348374 126.48657676455332,63.86067120569351 126.35928403766593,63.41037228732239 126.52707899580128,62.816791488188755 126.45764659933047,62.734917832505744 126.35928403766593,62.878196659625246 126.42871643413673,62.88501945272583 126.49814883060753,62.63257561224236 126.37085610374925,62.30507938224764 126.15098684822442,62.127684875154955 125.71124833720387,61.98440432908683 125.1210729671293,61.43174772020211 124.82019924905035,61.43857067105273 124.41517693622154,61.74560268973437 123.86550379745313,61.759248522270354 123.65720660798252,62.025341661461425 123.74399710359285,62.35283935591724 124.22423784591956,62.51658756019242 124.21845181286335,62.59846150159865 124.3226004075841,62.571170199720655 124.21266577983624,62.58481585216214 124.53668363008182,63.03512071280784 124.67554842302343,63.14428503936506 124.924347843742,63.13063950896685 124.9879942071857,63.34896763825964 125.3988025530416,63.62869944040358 125.71703437023098,63.2875629289083 125.78068073367467,62.89184224509518 126.24934940988896,62.85090547975415 126.09891255086404,62.70762659015236 125.98319189005997,62.37330790489068 125.75753660150804,62.28461081095156 125.77489470061846,62.03216454758876 126.27827957511181,62.236850785207935 126.46343263238668,62.48929622258947 126.53286502885749,62.82361428798322 126.37085610374925,63.39672681497541 126.39400023588678,63.669635696787736 126.90317114340723,64.20180459215408 128.70841345188092,62.88501945272583 128.87042237698915,62.50294189287524 128.23974477566662,57.48113420153095 128.2860330399708,55.16796486590101 128.47118609724566,53.134488708583376 128.3612514694978,51.756054515240976 128.37282353555202,49.504091698607226 129.00350113693275,47.06096152100508 131.3294864190102,43.6349589515703 131.90808972300147,41.928712331886345 131.7229366656975,41.785385495313676 131.75186683094944,41.66935876786374 132.04695451594307,41.04144568247284 133.4124583133962,38.95973217819119 134.19357277380186,37.32843936889549 134.1472845094686,37.191927579620824 133.38352814820246,36.6868313664163 133.2099471569818,36.4411074081836 133.51082087508985,35.69027821569034 134.4192280623538,33.9906406277114 134.39029789716005,33.84046962206412 132.83964104246115,32.64591467765422 133.0768683970673,32.46843599447311 132.799138811155,32.7278277460282 132.84542707545916,32.64591467765422 132.7412784807675,32.65274077077265 132.70077624949045,32.73465383020812 132.8801432737091,32.76878423992457 132.5966276547697,32.427479303671134 132.95536170323612,32.34556584153688 132.96114773626323,32.25 133.0652963310131,32.29778293904383 132.99007790148607,32.33191358740805 132.98429186842986,32.256826136384916 133.05372426490067,32.32508745923042 132.97850583540276,32.27730454108314 133.04793823187356,32.33191358740805 132.97850583540276,32.372870340856025 132.9437896371819,32.25 133.0016499675694,32.359218092686206 133.02479409970692,32.256826136384916 132.9380036041257,32.28413067448855 133.01900806667982,32.37969646382044 132.95536170323612,32.2909568071409 132.95536170323612,32.37969646382044 132.5966276547697,32.482088218752324 133.23887732217554,33.11691335423893 130.30535857091309,37.990517316637124 129.96398262158618,38.09289987824741 129.79618766339263,38.03147036140945 129.2349424585118,37.519555372906325 129.53003014356364,37.376218424691615 129.22337039242848,37.499078686149005 128.8357061787683,37.123671573164756 128.65055312149343,37.19875317615515 128.67948328671628,37.42399744395516 129.68625303564477,38.46147571124675 129.75568543211557,38.775446002629906 128.75470171621419,40.358924304440734 128.80098998054746,40.06543782040171" stroke="#4dd2ff" stroke-linecap="round" stroke-linejoin="round" stroke-width="0.5"><title>2025-05-11 17.9km</title><desc>1746934812000</desc></polyline><polyline fill="none" points="173.7730325302109,32.25 174.70524789090268,36.18576417805161 160.7220174826216,40.6248958845099 160.17822518898174,41.76899440548732 171.98628642247058,62.95713688261458 173.30692484998144,65.70282242266694 173.03502870327793,66.43500220862916 174.82177481078543,69.180665063177 173.96724406373687,70.50772902270546 174.04492867714725,72.1551129455911 172.25818256940693,72.75" stroke="#4dd2ff" stroke-linecap="round" stroke-linejoin="round" stroke-width="0.5"><title>2025-05-09 1.4km</title><desc>1746749326000</desc></polyline><polyline fill="none" points="27.49565012496896,88.4800542704761 25.93691819673404,87.96300682213041 25.116532971384004,88.2732354158361 24.624301835894585,87.82512732726173 23.721878088079393,88.54899385172757 22.545992598403245,87.58383803328616 21.83499206963461,85.75692603868083 20.959914495935664,85.41222420800477 21.479491805192083,83.17165105551248 20.002798399538733,81.0 18.307335600373335,81.68941501883091 16.885334543068893,83.03376899371506 16.47514193027746,82.65459294250468 16.11964166595135,83.34400352902594 15.791487575741485,82.68906351571786 15.518025833996944,83.48188542475691 14.971102350391448,83.4129444861901 15.244564092252403,83.72317856439622 14.424178866785951,84.99858140188735 14.697640608530492,83.82658984081354 15.27191026636865,83.5508263448719 14.971102350391448,83.4129444861901 17.295527155743912,82.82694576235372 20.084836922120303,81.0 21.42479945695959,82.79247520767967 20.90522214747034,85.55010499569471 21.479491805192083,85.34328378649661 22.6280311208684,87.79065744191757 23.885955133126117,88.72134272416588 23.06556990777608,88.9626309517189 22.874146688496694,89.51414605081663 24.26880157168489,92.85768103893497 23.74922426219564,96.02882872862392 29.19111292413436,94.99476312281331 30.968614245881326,95.1326387769659 30.968614245881326,95.54626529628877 30.613113981555216,94.99476312281331 31.023306594230235,94.61560469315737 34.03138575400226,95.92542235495057 37.91454248770606,96.78714086575201 39.008389454800636,97.57991934771417 40.70385225408245,100.30292249217746 39.8287746803835,102.88802540363395 37.0394649138907,105.74884236083017 33.621193141443655,106.36925630076439 33.92200105730444,107.05860336887417 35.20727124379482,107.40327621073811 33.23834670276847,106.57606061501428 35.945617946679704,107.57561245854595 39.610005286871456,107.09307067387272 44.012739329831675,108.4028248419927 44.887816903647035,109.09216646416462 50.165628520422615,109.47130356938578 49.50932034023572,120.948553431459 49.61870503681712,121.5 50.30235939146951,121.32767307420727 50.57582113321405,119.67332871677354" stroke="#4dd2ff" stroke-linecap="round" stroke-linejoin="round" stroke-width="0.5"><title>2025-05-05 3.1km</title><desc>1746429236000</desc></polyline><polyline fill="none" points="76.44379728761851,81.04784148470208 76.27303397483774,81.0 75.96945475210669,81.23123348634908 75.17888385959668,81.37475726731282 74.50215517560719,82.14021158610194 73.83175105875125,82.41928102391103 73.8570493273146,83.02525586828051 74.0720846100885,83.49567945342642 73.83175105875125,84.46840795338721 74.2365233557357,84.61989702657229 74.38198839995312,85.01855063971016 74.57804998129723,85.1142271094759 74.88795377116185,85.54476932002945 75.43186654520105,85.66436382576285 76.25406027340796,86.49354578919883 75.81766514075571,87.370552602315 75.83663884215639,87.6814882783292 75.96945475210669,87.80905116268696 75.86193711071974,88.02431291003813 76.10859522919054,87.98444968223703 76.13389349775389,88.1040392855466 75.79869143932592,88.00836762212202 75.88091081212042,88.19971079521201 77.49367543283734,88.52658729283212 77.9110968640889,88.51064213946302 78.31586916107335,88.74981899126215 78.48030790672055,89.16438992422627 78.22100065395352,89.634764985949 77.68341244707699,89.71448920425246 76.8738678531081,90.12108105658626 77.0383065987553,90.44794700235434 76.7916484803136,90.55955935321617 76.37422704903292,91.10167350891425 76.54499036184279,91.19734020031683 76.46277098901919,91.10167350891425 76.32363051193533,91.14950687384408 76.23508657197817,91.3727287352267 75.80501600645948,91.57203326121817 75.2737523666874,91.62783840892735 75.08401535250596,91.48433935199864 74.78676069690846,91.48433935199864 74.66659392125439,91.83511421370713 74.74248872694443,91.94672396349051 74.58437454843079,91.93875184544595 74.38831296711578,92.21777534167632 74.33771642995998,92.67218223602322 74.52112887700787,93.12658566150276 74.82470809976803,93.49329466862036 75.62160355938249,93.82014209695262 76.36790248192847,93.95566367506399 77.01300833022106,94.62529517937946 77.04463116591796,94.92822124245504 76.89916612167144,95.33477748336009 76.3615779147658,95.96453559060683 75.79869143932592,96.18773939667153 75.41289284380036,96.18773939667153 75.40024370953324,96.29934098584636 75.23580496385694,96.26745483886043 75.2421295309905,96.38702780203676 75.44451567946817,96.29934098584636 76.329955079098,96.43485692005925 76.63353430179995,96.26745483886043 77.87314946125844,96.63414449814445 78.03758820693474,96.80154554821274 79.18233485924429,96.85734579361451 79.2645542320679,96.953003235496 79.06849265072378,99.82265502378505 79.22660682923743,101.32916684431984 81.21884547837544,108.8770939554779 82.16753054936999,111.45926965527542 77.95536883411114,113.43567418011662 77.77828095416771,113.60302800303543 74.23019878857303,119.37246274567224 73.75585625309031,120.76692458213074 73.78747908878722,121.42828649848889 73.4775752989226,121.44422283962558 73.67996144740027,121.13346341866054 73.45860159749282,121.5 73.73688255166053,121.47609550907873 73.86337389447726,120.60755916716153 73.7242334173934,120.59959088521282 73.76850538735744,120.16133373717821 73.7748299545201,120.76692458213074 74.01516350579914,119.44417872203121 76.43747272048495,115.6271750986707 76.43114815332228,115.30841633986711 76.15919176628813,115.08528419371578 75.59630529084825,114.98965587520433 75.4887876494613,114.7426153417291 75.33699803811032,114.83027500314711 75.355971739511,114.94981069716232 75.45084024660173,114.9259035775467 75.47613851519418,114.84621310955117 75.3243489038432,114.85418216113976 75.31802433668054,114.91793453552964 74.85000636830227,115.38810618950083 73.97721610296867,115.58733034711622 73.75585625309031,114.61511014935968 74.03413720722892,114.2883768480533 73.91397043157485,114.28040772076201 73.76850538735744,113.65881250617531 73.50287356748595,113.6986585478553 72.98425906198099,113.1647193746503 72.83246945063001,113.34801246619827 72.99058362911455,112.78219284485749 73.28783828471205,112.25621485478769 74.29344445999595,112.08088782586128 74.3503655642271,111.81789631471838 74.5337780113041,111.67444591008098 74.19857595287613,111.57084262516946 74.17960225144634,111.13251904099525 73.97721610296867,111.08470172755551 73.75585625309031,111.2281535526854 73.69893514883006,111.3636355147064 73.81910192448413,111.49911716851057 73.98354067013133,111.3636355147064 73.78115452162456,111.48317816641065 73.64833861173247,111.13251904099525 73.55979467177531,111.37957454878051 73.04750473340391,111.79398793794098 72.87041685348959,112.3837250970937 72.84511858489714,113.32410470364266" stroke="#4dd2ff" stroke-linecap="round" stroke-linejoin="round" stroke-width="0.5"><title>2025-05-04 11.1km</title><desc>1746326389000</desc></polyline><polyline fill="none" points="131.2963781394319,120.3701096198065 131.28627838842658,120.39409749477181 131.22063000688286,120.38147230485902 131.18730082855836,120.37389718297709 131.13680207352445,120.33223390627154 131.12973224781672,120.31960863536733 131.19639060446207,120.20724299615813 131.26910881171352,120.07720022872218 131.245879384398,120.13780290164414 131.34788686957108,120.11760205298742 131.3307172928544,120.21229316534846 131.3872758984944,120.29940816754515 131.45696418044463,120.41934782501448 131.49029335876185,120.75390845961101 131.62361007205618,120.79052005094672 131.80843551547878,120.85995544588786 131.80540559018118,120.98115057386804 131.9548819050833,121.11496842525958 131.92458265206005,121.12380538782963 131.9558918801813,121.10865630417902 132.05385946494425,121.0606840489836 132.11445797098713,121.11496842525958 132.05183951474464,121.04932216411726 132.6063158450197,120.8347062692028 133.13756274798288,120.78673265139332 133.48095428221495,121.0758332079804 134.05462013940996,121.13516718495248 134.78079223680106,121.09098234318208 135.29688951325443,121.48863863261886 135.42010647553616,121.5 136.13516884682394,121.34346442700735 136.16041822434272,120.99251253904094 136.1664780749452,120.51908598315458 136.19071747736234,119.99387093159021 136.08265014158678,119.54691059381639 135.84732594313027,119.23251082544812 135.8301563664172,118.8259224294543 135.7443084828592,118.47740444208557 135.4564655791619,118.1074059791199 135.35445809399243,117.62247181427756 135.8129867897078,117.44819263946738 135.90186459856704,117.38504723320875 135.28476981204585,115.77848893893861 135.0494456135857,115.05721881671889 134.9242087010971,115.00290031653822 135.3312286666769,113.78507493075085 134.73534335727163,112.37503495112014 134.5040590592107,111.86074855986499 134.03543061249366,111.01154726811365 134.3525627941126,107.91613042471454 134.06774981571652,107.79982749488136 131.9851811580993,107.766959020787 131.95185197977844,107.35482939191388 130.641914274187,107.49895034922156 130.3762908227036,107.33713017813443 130.18742547887814,106.5027017172115 129.92887185310246,104.50863024063347 129.6188094971876,103.27176939362926 128.22706380844102,102.97075055245568 127.71399645729616,102.67098712940424 127.06357249245411,102.52552893536176 126.01622831303757,102.38892271407349 125.46276195786413,102.73422913592549 124.96383425812382,102.60395014821279 123.72762473488183,102.45343144938579 123.30242521749096,102.44963682988327 122.65604115305541,102.30796996309527 122.27528054009599,102.3686845902439 121.85614087331123,101.87916198945095 121.18450743135327,101.7235720653589 120.2795697411384,101.49713995205457 120.10989392422198,101.58568945837942 119.95435775871374,101.55912469214945 119.85639017394715,101.58568945837942 119.18677668219607,101.36557917894152 118.70703850936479,101.22136626234715 118.4828240370116,101.12395806782479 117.7455422135099,100.82919738681721 116.95776163497794,100.79883525797777 116.32046734644973,100.90636736583565 115.87708827724782,101.09359687029792 115.53167679280887,101.59833932125548 115.36907080159654,102.15997645269363 114.97821043762815,102.59130160877157 114.85802340064402,102.86956563199146 114.79944484481166,102.81897277235566 114.72975656286144,102.83162101222933 114.84994359984194,102.88727306995588 114.42777400775594,103.83710283621895 114.43383385836205,104.07486178120234 114.55301092023728,104.19626833658913 115.03577901837343,104.06853848111041 115.62358452697299,103.82192653372749 116.22653966207872,104.37963991506422 116.35076659946571,104.29364540336337 116.36086635047104,103.89527844052463 116.79515564376561,103.74098584918374 116.94665190887099,104.0660091599093 116.96786138598327,104.28985151012967 117.05774916994778,104.38090453450059 116.93554218276404,104.5301284599991 116.84262447349829,104.59841660270831 116.7153676108137,104.81718831296712 116.93150228235754,104.91455909209526 116.89413320363747,105.10929769266386 116.89110327832896,105.11182673945586 116.93251225745917,104.91329454284278 116.71334766061045,104.83615672389169 116.83757459799745,104.59841660270831 116.98503096269997,104.66038134955943 117.22540503665732,104.82351112076594 117.38296115236881,104.94237913361667 117.59707587371304,104.95628912419579 118.02328536620189,104.88420986409983 118.06166442002723,104.80960093812337 117.8536095492891,104.79442617047607 118.26062951486529,104.74890172384858 118.25557963935717,104.70084790749024 117.97379658626596,104.68820212643186 117.9515771340557,104.65152926731389 118.28082901687594,104.63129590586414 118.35960707472987,104.6199146213421 118.4333352570793,104.63129590586414 118.47575421131114,104.74384343869951 118.53635271735402,104.68314380935044 118.62321057601002,104.68061464981292 118.54645246835571,104.80201355729423 118.51817316553934,104.98410904499269 118.80601606923301,105.483589383869 118.68683900735414,105.72004318078052 118.46464448520055,105.5455484274762 118.2909287678849,105.39254679969054 117.97985643687207,105.52531694691788 117.9475372336492,105.66440751625669 118.0091457147937,105.91729430724354 117.8889586778132,105.9375249632858 117.87481902640138,105.8780972900704 117.86673922559203,105.9210875584904 117.79705094364908,105.87683286750053 117.68999358297879,105.87430402186783 117.27792374189812,106.20684151812657 117.26479406558428,106.17649636777878 117.27186389129201,106.1246565144711 117.28297361739897,105.90844338184434 117.2860035427002,105.91097221850305 117.33347237243652,105.77062077833943 117.30216314431163,105.70107651312082 117.34660204874308,105.66187861477101 117.29004344310306,105.71877873743051 117.33650229773411,105.76429859318887 117.30014319410839,105.96913527816014 117.2637840904863,106.09051792190985 117.27792374189812,106.20810589731173 117.62333522632616,105.92867405650213 117.78998111794499,105.87177517556756 117.81624047056175,105.95396233998326 117.84552974848339,105.9628132234966 117.85057962398423,105.94890468860558 117.84552974848339,105.955226752415 117.96773673566713,105.93878937787485 118.0030858641876,105.7908517428923 117.98793623768142,105.51520119068482 118.33637764741798,105.38116641606757 118.4595946096997,105.54175502811177 118.7615771648052,105.74912533187216 118.99387143796412,105.68590315206711 119.07971932152213,105.51646566079489 119.36453229991457,105.60371369700351 119.64934527830701,105.79338061047383 119.7937717177083,105.60371369700351 120.08464454670684,105.58095341603985 120.49469443758062,105.54681289359633 120.81182661919956,105.79590947738234 121.14814832772754,105.87936171247475 121.08754982168466,105.84775110255214 121.10471939839772,105.71877873743051 121.17642763055119,105.59992032058472 121.21581665947451,105.49623411906214 121.5672879945123,105.1484978432527 121.97430796008848,105.05998114721388 122.3550685730479,104.76913483784665 123.78620329072146,104.51115944540652 124.68407115523223,104.22156117601298 125.48397143497641,103.81686776090737 125.67586670411038,103.17944108735264 126.65049267626819,102.97328016181746 126.64342285056773,101.2934729911558 126.6424128754661,100.85576417085576 126.6565525268743,100.47749684721111 126.16469465284172,100.11819235515577 125.5950686960532,99.75760919826371 125.51225073780006,99.49317294849061 125.40822330242736,99.09081100696585 125.04867216658386,98.67830925728595 125.0183729135606,98.44547836285801 125.07291156900101,97.55712603727352 125.05877191758555,97.20910236894633 124.59721329656895,96.49909497238423 124.3103803679769,96.14343873325106 124.02859731488934,95.95611271251255 123.94173945622606,95.64473840190658 123.86599132368065,94.25988640043215 123.54481924165884,94.00162863962942 122.8519763225886,93.9636489710183 121.2602555639096,93.73196973767153 120.34622809778375,93.5268719786618 120.13211337644316,93.11792941298245 119.94728793301329,92.81026144367024 119.46451983488441,92.8039307234385 119.08880909742948,93.08121235478939 118.63634025232022,93.55599106328282 118.20205095902566,93.28631963883345 117.94652725854758,92.91535078941888 117.20924543504952,92.07333755268246 116.94665190887099,91.9467126289992 116.11645237610355,90.49167231033698 115.87708827724782,89.34293365515623 115.6548937550906,89.09214330058876 115.42865933254143,88.72481225484898 114.33586627359546,85.7919924320131 114.35808572580936,85.62727183067 114.83277402313615,85.60319704409176 115.03981891876901,84.95822366661469 115.20141493488336,84.75040374300261 113.78542984371961,84.72379232966341 113.46526773679943,84.65409542062844 113.19964428531966,84.2599815409958 112.93705075914477,84.2054886355354 112.50074151564331,83.3475013329853 111.89071655482985,82.74927269113596 110.65450703158785,82.24100247334263 109.94550451090981,82.30437928425454 108.84160172585689,81.01901555153381 108.83756182545403,81.08113275670712 108.82544212424546,81.07479428484567 108.82645209934708,81.06972350433534 108.83150197485156,81.0874712243749 108.79716282142908,81.09127430295393" stroke="red" stroke-linecap="round" stroke-linejoin="round" stroke-width="0.5"><title>2025-05-03 98.8km</title><desc>1746244765000</desc></polyline><polyline fill="none" points="167.37234279888435,81.19955704319091 167.0545388576502,81.30942351732756 166.9902639032407,81.31839214607498 166.61800479230078,81.15583427372621 166.37608100556827,81.0 166.2011102963479,81.01569566843227 166.1207666033406,81.13789666187131 165.9359761094238,81.22870543056251 165.82438764690596,81.33184507134865 165.69762315349362,81.48879428478722 165.41731293566045,82.14458626789383 165.34678902735322,82.26677094868592 165.2851921960464,82.3003994501305 165.22270265703992,82.37438168262725 164.7227863449807,82.41473535484783 164.4835406813545,82.45060512407417 163.90149526088862,82.47078180240987 163.6774256281642,82.26564999633683 162.1205433991854,82.00446404806553 161.53314173251783,83.01217136430841 161.15731179077557,83.48852068463293 160.9876973277569,83.76310986937278 160.92163695794807,83.88863338539068 160.6752496327208,84.48932728716954 160.4360039690946,84.74147153407739 160.27710199847206,85.1179929553482 160.00928968844528,85.6054288406458 159.89502310283206,85.77238318311538 160.0083969807456,85.95838212911258 159.8789543642306,86.19143527984215 159.7762929787168,86.42112080834522 159.82182107142216,86.72586466942084 159.79503984042094,87.4070171628282 159.7816492249185,87.4551887016496 159.32726100556465,88.12060005633248 159.1674663272497,88.42528275085624 159.05052161853382,88.49025043677193 158.70593644629844,88.77587831548317 158.45865641336786,89.07941738441878 158.15959933383056,89.32918491664259 158.26047530394135,89.6058246623079 158.24708468844256,89.6629434843826 157.9239245010067,89.70214245312218 157.83554643869866,89.68422294706488 157.81590686929485,89.8186183184398 158.09532437942835,90.47488508587958 158.77467493920267,92.40419414457574 158.95321647922538,92.72999463047381 159.1585392502493,92.93711213896859 159.32726100556465,93.22706814831872 159.49955359168234,93.46887715780395 159.5700774999932,93.64799049546036 159.67988054710804,93.75881497785304 159.4076046985756,94.07560828593614 159.59328790019572,94.38007691703024 159.67541700860602,94.55021638979906 159.9557272264392,95.0315135137007 160.15926458206013,95.29453644395107 160.22353953646598,95.33594782151795 160.35030402987832,95.3807166508559 160.61811633991238,95.60567644057664 160.82254640323663,95.75340798160414 161.20551800657995,95.98619185418465 161.2269429913831,96.44278781626781 161.30550126899107,96.54798046099404 161.46975948581166,96.63526698432088 161.7027561955365,96.65540990060344 161.8518383814553,96.71695740399355 161.9509289361631,96.40138184297211 161.97235392096627,96.37788106550124 162.05626844477592,96.38571466522535 162.09376216818418,96.35773749013242 162.13929026088954,96.30737834240972 162.2214193692962,96.15853733573567 162.31515367780958,96.0533398608386 162.58296598783636,95.90113694922184 162.74543878925397,95.85189424594228 162.8659543287722,95.84182183959001 162.8971990982718,95.87763478559555 163.19000722391138,96.07684153756873 163.52120178064433,96.43271611163709 163.92559836879082,96.75500472817657 164.53174689716252,97.01461720872157 164.98077887031468,97.28429244978906 165.58603469098307,97.05266319783641 165.65923672238932,97.06497215777927 165.86991573961132,97.05266319783641 166.05559894123508,97.0862330465252 166.1698655268483,97.17575199356907 166.26895608156337,97.35814392505745 166.3573341438714,97.58640805684627 166.38857891337102,97.7341051047888 166.57515482269082,98.20403315250951 166.5519444224883,98.42891808167042 166.55640796099033,98.61352065871415 166.52516319149072,98.77798139017796 166.54212463778822,98.89321388122698 166.6162193768978,98.99613866676009 166.67781620820824,99.25232646243694 166.66710371580484,99.73783146260212 167.16612732016074,100.04097833461037 167.19915750506334,100.91568094472314 167.289320982778,101.25010224423568 167.31253138297689,101.42122242992446 167.30538972137947,101.5285901973748 167.3607375987849,101.671745108717 167.35091781408482,101.71088860958571 167.31342409067656,101.7332562433512 167.30628242907915,101.80035879111892 167.32502929077964,101.86410572033219 167.40001673758889,101.96475779210687 167.4375104609935,102.09895869865431 168.07044022036644,102.31926725489757 168.13828600557463,102.38972005406413 168.23737656028243,102.58541920733114 168.24094739108477,102.74533002458338 168.34539419199427,102.8560357496799 168.39627853090497,102.96338537776046 168.4177035157045,103.02600536755199 168.41413268490578,103.06178801158057 168.39627853090497,103.07856107407406 168.41413268490578,103.17919875344614 168.69801373353766,103.566083617593 168.70426268743176,103.76287378148118 168.78371367274303,104.24476680739645 168.74889807244108,104.39793821573494 168.91226358155836,104.46613773529862 169.0640238905762,104.49297018309244 169.37200804711392,104.49408819991004 169.98440552938337,104.54775283420622 170.3343469478241,104.55334288078575 170.34327402482086,104.53545471878624 170.37987504052944,104.53545471878624 171.3038275101353,105.27889970787328 171.3386431104409,105.28672509864555 171.47969092705534,105.9496213270595 171.87873126900013,107.44513993502369 171.92247394630613,107.84524155618783 172.08673216312673,108.38389612284209 172.1251185942274,108.66215036380618 172.18493001013485,108.75378229756188 172.29651847264904,108.86440977996972 172.3456173961531,108.88899346949984 172.48309438196884,108.91692939406857 172.57772139817826,108.91692939406857 172.63574739868636,108.94374779531154 173.3633041742687,108.8565876820303 173.38383645136855,108.90687247179358 173.38562186677154,109.20187058280317 173.41329580547608,109.25327072196887 173.47935617528128,109.27450112357292 175.24423929838304,109.27003156974388 175.39332148430185,109.28790977096287 175.5593651165218,109.33037034823064 175.62988902482903,109.32031391487999 175.76379517984242,109.37059596272684 175.85663678065612,109.38623920586906 176.07088662867682,109.36724383545061 175.88073988855467,110.41751240594931 175.92805339665938,110.44656054466759 176.05035435157333,110.45438118045331 175.93965859676246,110.78731015002995 175.9476929660632,110.82417732185786 176.2940635537052,110.90573140705874 176.42707700101892,110.97276157666329 176.522596724928,110.99063619935532 176.58954980244016,111.02191669871263 176.0887407826849,112.02618304138377 176.1003459827807,112.04070437718929 176.29049272290285,112.05187461863716 176.3128104154057,112.15799118108407 176.35119684651,112.17474630682045 176.41547180091584,112.24846846812943 176.4226134625169,112.28421231644279 176.47617592452298,112.30320117479096 176.4949227862271,112.34676368972123 176.71720700355218,112.26745740623937 176.46457072442354,114.97685626431576 176.34851872341096,115.85448978422028 176.33780623100756,116.0275493309764 176.37887078521453,116.2854573555851 176.68060598784723,117.30696436358448 176.73863198835534,117.4721802176091 176.866289189471,117.74009100800868 176.84129337386912,117.77804435533108 176.39136869301365,117.95106482581559 176.5100988171289,118.48238314706668 176.66632266464876,118.91321779628015 176.6788205724515,119.27483421053239 176.90556832827497,119.76142961374535 176.97341411348316,119.86745015547967 177.09928589919582,119.98462921992723 177.14124316110247,120.08618310603379 177.12249629939834,120.73565297384812 177.18409313070515,121.38842076416222 176.7002455572474,121.47545269340026 176.29049272290285,121.45090531613187 176.06820850557415,121.5 175.8227138880502,121.05925351027145 175.62364007092765,121.06036935294105 175.34868609929254,121.02577816232952 175.23888305218134,121.05702182450113 175.12729458967078,121.00346119067581 174.81216877153201,120.99453438565888 174.5729231079058,120.93874164250883 174.31046704407345,120.92088788758429 173.9408860562362,120.8483566237046 173.5713050683953,120.88964372649662 173.45614577507877,120.99899778933468 173.49185408308404,121.02466231513608 173.5061374062825,121.00680874014688 173.52042072948825,121.01015628830737 173.50703011398582,121.00569289047053 173.52488426798664,121.01238798634859 173.52845509878898,121.04140000772622" stroke="red" stroke-linecap="round" stroke-linejoin="round" stroke-width="0.5"><title>2025-05-03 66.9km</title><desc>1746236322000</desc></polyline><polyline fill="none" points="50.24254732509144,130.2368114523415 49.49868276331108,129.75 48.672166583593935,130.56135197979165 48.148706336389296,129.9771787765203 42.418194156722166,132.86557958339108 42.63859847153071,134.09882085656864 41.922284449101426,136.53283474192722 42.11513822420966,137.21435507532442 40.95801557262894,139.42117215090548 38.61621973000001,140.7841980816156 37.18359168514144,142.2770288688189 37.045838988618925,143.02344146452378 36.54992928064894,142.95853609553888 35.14485177514143,144.4838085398369 33.51936995505821,144.5487135774747 32.91325808991678,145.52228744939202 32.00409029214643,145.81435899221106 27.37559968570713,150.77953152541886 25.391960854292847,150.97424249211326 24.5654446745757,150.58482043194817 23.05016501166392,147.14490351767745 22.058345596073195,147.53433006253908 20.65326809056569,145.26266806054628 18.890033573727123,144.2566407971026 13.65543110202998,150.6497241439065 13.462577326688915,152.62928058419493 13.7105321806157,153.44057041741326 14.8125537536107,153.95979475430795 14.867654832196422,157.20492641310557 16.32783341652248,160.06061311246594 16.19008071976714,160.64472748347907 16.079878562595695,160.28776883688988 17.567607686156407,159.18443941450096 19.2206400455907,156.42609803008963 21.507334809633903,156.10158560448326 22.96751339372713,157.8539485146175 24.15218658465892,161.32619280615472 25.033803843078203,162.364613165817 27.78885777562391,162.94872303199372 30.351057932712138,164.279191241425 33.271415101131424,163.75998484026059 34.26323451672215,164.60369478387292 34.456088292063214,166.22620720919804 33.40916779777035,170.25 35.36525608971715,168.14076053746976 36.66013143805321,167.97851073124912 38.12031002214644,168.6275094273733 43.07940710068215,165.3500515940541 45.99976426910143,162.4944154569821 47.26708907808643,162.1050084143062 47.62524608918466,158.56787119759247 50.46295163966715,158.85992998533766 51.537422673311085,157.626790939481 50.15989570715465,148.73505871288944 48.672166583593935,145.0030484459421 49.93949139257893,143.25061014518724 50.02214301051572,142.3419343859714 48.066054718452506,138.9992819117906 49.03032359469216,134.71543958361144 50.04969354975037,132.24895703716902 50.68335595424287,131.79460276747704" stroke="#4dd2ff" stroke-linecap="round" stroke-linejoin="round" stroke-width="0.5"><title>2025-04-28 5.2km</title><desc>1745795058000</desc></polyline><polyline fill="none" points="71.15167317411397,168.4421113765129 71.28324471460655,170.25 71.19553035427816,169.42353833452216 70.62538701249287,169.26857645253767 71.26131612458266,169.34605740608822 70.9543158634333,166.89248161755677 72.46738857845776,165.85938950185664 71.43674484500661,165.032912577939 70.88853009324521,163.92232968847384 70.73502996272873,162.3210149964434 71.45867343514692,161.70114834984997 72.31388844782487,159.9448507430352 73.95853270334192,158.0852273738128 77.99339327646885,155.34742205872317 79.87925202271435,153.51359143630543 81.32653896743432,152.76455795906077 81.3923247376224,150.1300076735788 83.2562548937276,150.6465884616482 84.37461298739072,149.74257134608342 83.21239771367982,142.27784150885418 82.15982539020479,139.4107030468731 83.14661194337532,138.14501831047528 83.19046912353951,137.21512318993337 83.08082617318723,136.5693605496199 81.72125358879566,135.0453537637659 82.0940396200167,132.07480398232292 83.14661194337532,129.75" stroke="#4dd2ff" stroke-linecap="round" stroke-linejoin="round" stroke-width="0.5"><title>2025-04-27 2.3km</title><desc>1745711220000</desc></polyline><polyline fill="none" points="106.68782546664443,129.81931260013516 107.51883829379221,129.75 108.0453298641878,129.8886249572406 108.94054898041213,129.92544704810098 109.17352608647343,130.03374691781755 110.03755929086765,130.61422410710657 110.18981991923647,130.8546406381247 110.65393966597912,131.88341709659835 110.66861538918602,132.06317675249193 110.77317991710152,132.1779621838723 111.08320457005902,132.7345537891615 111.34369865715416,133.02475487189986 112.42786770979001,133.96246508034892 112.89932531813247,134.4410483050833 113.0002209152517,134.61861922593198 112.81677437503822,134.76587195122192 112.61314871540526,134.81567777198507 111.94723777443869,135.17081129368125 110.96212985352031,135.54326155222952 110.31456356657145,135.8702324525475 109.26341489118204,136.6302565133883 108.76444030181301,137.10660998663843 108.48743602609466,137.43788541389767 108.21960407738516,137.82544897202024 107.71879502262163,138.64601938966916 107.63807854492188,138.84087280116728 107.63624407952739,138.9794340599492 107.30787477255217,139.84109011507644 107.17028986739024,140.03809665798508 106.99601565419289,140.49055481172581 106.75386622110818,140.94733221803835 105.81278546983958,142.26781426088746 105.44956132023071,142.7115630452663 105.15604685589642,143.1271626442831 105.16888811370882,143.16179555046983 105.25694245300838,143.10118792489266 105.80177867742896,142.36305874061873 105.88432962053048,142.33491837383917 105.95770823661587,142.36522338255782 106.7336871016887,142.87174309047623 106.99601565419289,142.99512413376033 108.55347678056569,143.94967780340448 113.87526091204927,147.87563478902848 114.51732380278554,148.4079814018296 116.65264153081807,149.7798982152908 117.38826215705922,150.100142726571 118.21560605340346,150.3186849968588 118.69256705794396,150.36628794404714 119.8868040347079,150.71032402704077 120.13262239858886,150.75359858323463 120.15647044881189,150.72114267494726 120.84439497460698,150.9548240284439 121.36721761419176,151.21879409557914 121.78547572588286,151.50223345070117 121.82033056851651,151.45246958242933 121.84784754955035,151.46328782529235 122.14503094468819,151.69046956158127 122.21474062996276,151.66450606635226 122.22024402617535,151.63637890814607 122.50642062890256,151.7532145346795 122.65501232647512,151.915485095873 122.84946565909195,151.95010264369557 122.97054037563066,152.017173970562 123.01823647608398,152.07559074779056 122.99438842586096,152.04746417283968 123.00356075286982,152.15780666116734 123.08060829975147,152.1166987471006 123.1393111926227,152.1340073528845 123.88593861127447,152.54508229902058 123.95564829654904,152.61215161304244 123.95748276195081,152.58402579930043 124.13909483676252,152.6467679444013 124.31887244616519,152.66623960423567 124.55735294843907,152.74412605233738 124.53900829441409,152.75927060393406 124.83252275875566,152.82201219445778 124.91323923645541,152.8847535864461 124.96827319850854,153.0837939297635 125.02147269516718,153.13571716897422 125.24344300881785,153.12489983868727 125.64519093188574,153.37802382077643 126.97517834839527,153.79556315714945 127.21916224687448,153.91454944117322 127.13110790758219,153.9210395815826 126.97701281380432,153.87993532309338 126.98618514081318,153.85830146861554 126.85593809726561,153.94050999007595 126.60461633717205,154.46404047268334 126.4413489163926,154.70633089362855 126.02309080471605,155.16494394316578 125.85248552232224,155.5197128007785 125.73507973657979,155.6473415083983 125.67821130912489,155.76631668263508 125.47275118409016,155.96749126273608 125.17740225434682,156.35685562148137 124.67475873418152,156.82408276344177 124.44911948971276,157.15502866412317 124.44728502431099,157.21559332933975 124.4766364707466,157.2112672879539 139.73205075455917,170.18299025867964 139.7540643393877,170.17434382398278 139.73388521996822,170.2024447229869 139.77240899341268,170.2154143552798 139.76507113179832,170.18299025867964 139.8439531440963,170.25" stroke="#ffc800" stroke-linecap="round" stroke-linejoin="round" stroke-width="0.5"><title>2025-04-20 36.9km</title><desc>1745145130000</desc></polyline><polyline fill="none" points="158.4449758400733,131.23802826468454 158.13788128539454,131.18775743086007 157.97580360379652,131.3486240027196 157.6175266233913,131.3486240027196 157.83931713507627,131.22797410012572 157.87343875225633,131.02689057882526 157.56634419763577,130.63477645284001 157.6175266233913,130.4638543896508 157.48957055894425,130.65488491004362 157.73695228353608,130.95651124290453 158.20612451975467,130.92634865396394 158.0781684553658,131.4491654677622 157.50663136751973,131.52959856105008 156.7986078110116,131.2078657676684 156.9862767055165,130.30298627648153 157.31043206874165,129.75 158.30848937132396,129.94103199717938 158.85443524629227,130.80569819962693 157.83931713507627,131.92170888737746 157.32749287731713,132.0725201080204 157.37867530310177,132.2434391936622 157.19100640856777,132.04235788359074 156.57681729929755,131.95187115119916 156.619469320809,132.32387159507925 157.13982398284134,133.14829967066908 157.88196915655863,135.64164711030753 158.21465492408606,136.16443723007978 168.41701846179785,139.4217551623442 169.32977172144456,139.55244762060465 170.04632568228408,139.4720215142952 170.23399457681808,139.7233528638826 171.598859264137,142.84985768431943 173.7058691251732,150.33896462912526 177.33129095088225,159.73718623294553 178.42318270073156,163.50625792107166 178.31228744491818,163.79772639548173 175.30105472845025,164.77263151051739 175.4460716015019,165.44601357539796 178.0990273375064,170.0289015030794 178.03078410311718,170.25 177.80899359140312,169.88820218425099" stroke="#4dd2ff" stroke-linecap="round" stroke-linejoin="round" stroke-width="0.5"><title>2025-04-16 7.1km</title><desc>1744770713000</desc></polyline><polyline fill="none" points="19.120967742055655,185.23836733592907 18.830645160982385,186.33642347709974 19.75,187.86149705725256 18.685483871027827,189.0205495612463 19.60483870957978,189.0815522427729 43.55645161285065,211.52998412854504 44.427419354906306,210.73698773112847 43.75,209.82199017182575 44.572580645093694,207.62598852653173 46.26612903224304,206.52798373214318 44.91129032266326,212.01798122518812 47.620967742055655,212.87197488552192 49.55645161285065,208.8459907483193 49.94354838714935,209.27299075352494 49.89516129018739,207.01598618988646 51.782258064486086,207.01598618988646 51.54032258037478,205.49097677241662 52.75,205.61297771378304 51.58870967733674,215.73894188716076 52.169354838784784,215.98293824505527 51.29838709672913,217.20291807397734 51.879032257944345,215.73894188716076 51.05645161261782,214.1529623727256 50.04032258060761,215.67794277722714 48.29838709672913,214.8849536042253 44.475806451635435,215.18994960346026 35.572580645093694,206.28398230700986 34.41129032243043,206.64998439568444 35.282258064486086,205.91797992412467 26.040322580607608,197.25583764814655 22.169354838551953,198.35386480455054 20.475806451402605,196.76782472853665 20.572580645093694,195.79179732009652 20.088709677336738,197.3778407961654 18.29838709672913,198.10985899859224 16.99193548387848,197.92685455840547 16.75000000023283,197.0728328647092 15.927419354673475,199.32988672039937 15.588709677336738,198.5978704795125 13.84677419369109,199.2688854119915 14.911290322663262,196.64582141701248 13.459677419392392,194.08374432026176 12.25,187.73949135869043 13.024193548364565,187.19046531131607 14.814516129205003,187.86149705725256 19.266129032010213,186.21441736997804 18.54032258084044,183.4692713157565 17.330645161215216,182.85923661122797 18.49193548387848,182.73722957231803 17.475806451402605,180.29708192602266 18.443548386916518,181.09013134572888 18.588709677336738,183.04224710850394 17.814516128972173,183.65228156762896 18.05645161285065,180.90712006384274" stroke="#4dd2ff" stroke-linecap="round" stroke-linejoin="round" stroke-width="0.5"><title>2025-04-07 2.7km</title><desc>1743986187000</desc></polyline><polyline fill="none" points="78.98654159868602,199.10414662305266 75.9804241436068,198.85426275496138 77.66517128876876,197.68813538062386 79.61419249582104,197.6464878935658 81.03466557909269,196.14717463956913 80.60522022843361,195.56410642087576 79.34991843393072,195.77234519596095 74.49388254480436,190.35809169753338 69.93515497550834,190.73292767093517 68.1182707992848,191.5658948822238 67.09420880908147,192.85698964784387 65.67373572592624,191.27435661220807 64.84787928219885,191.02446644881275 63.658646003343165,191.60754318413092 60.75163132150192,189.3585268916504 57.25,191.23270826568478 59.099918433930725,189.73336407047464 61.11500815663021,189.27522967933328 63.361337683629245,191.39930161854136 65.11215334420558,190.98281806879095 67.09420880908147,192.815341513342 68.28344208805356,191.52424657469965 70.36460032640025,190.69127925182693 74.82422512234189,190.4413886195689 80.14274061995093,196.98012734026997 79.34991843393072,197.68813538062386 76.57504078303464,197.72978286223952 74.42781402927358,199.0208520226879 80.2418433931889,199.14579391485313 85.59339314850513,197.85472527352977 86.91476345842239,201.43638637082768 87.9718597063329,201.89450283633778 92.89396411075722,201.72791510881507 97.7169657421764,206.1008133656578 97.75,206.55892295602825 95.7018760193605,207.4334939357359 93.02610114193521,207.76666318555363 92.82789559534285,208.22477032066672 93.22430668829475,207.72501704879687" stroke="#4dd2ff" stroke-linecap="round" stroke-linejoin="round" stroke-width="0.5"><title>2025-04-04 2.7km</title><desc>1743741381000</desc></polyline><polyline fill="none" points="139.34459779108874,197.25129223408294 137.3901101083029,198.52354747691425 136.72146958531812,198.34179708329611 136.05282906233333,199.37171441380633 134.14977526618168,199.91696322520147 133.7897380614886,199.5534641360282 134.66411413007881,198.06917127085035 134.30407692526933,197.64508614386432 130.75513876473997,198.31150533957407 129.5207254915731,198.1600465712545 128.13201055920217,197.1604166373727 127.23191754741129,195.1611460185377 127.38621920661535,194.64618005263037 129.05782051407732,193.94945987893152 128.82636802538764,191.25343932610122 127.66910558170639,189.98115091014188 125.791768728639,189.6782242412446 125.0459773761686,190.79905127262464 124.37733685306739,190.4052476938523 121.88279336341657,193.73741426313063 119.69685319217388,195.645819000114 118.97677878278773,195.85786316462327 117.25374358880799,195.40348261472536 116.50795223633759,193.4950762190856 116.09648114524316,197.31187594871153 116.79083861142863,199.22025622145156 116.30221669073217,198.82646453625057 116.32793363393284,198.12975480777095 116.97085721371695,198.09946304091136 118.28242131648585,199.12938126653899 118.53959074849263,199.97754636066384 120.49407843104564,201.37095484315068 119.64541930577252,201.91619974534842 119.82543790806085,202.40086098542088 116.40508446353488,203.33988974124077 115.86502865643706,202.03736513431068 114.21914429217577,200.15929568797583 114.11627651937306,193.07098413509084 112.39324132550973,193.3436148345063 110.85022473393474,192.07133595633786 109.97584866546094,192.31367523781955 112.00748717761599,189.46617537699058 113.75623931467999,190.37495508781285 115.01636953116395,192.49542956074583 116.76512166822795,191.07168419353548 118.8996279531857,190.8293438325054 120.751247862936,188.8603205908148 121.49703921563923,188.7391494755866 121.77992559073027,189.55705348137417 121.31702061323449,188.1635859592061 121.80564253381453,187.6183141634101 120.90554952214006,187.73948576572002 120.77696480625309,188.28475732455263 120.36549371515866,187.80007154718623 121.5227561587235,187.16392018567421 119.97973956726491,187.8909501946182 120.08260734006763,188.40592863725033 120.49407843104564,188.1635859592061 121.18843589734752,188.5270998972701 119.05392961238977,190.7384661428223 116.7136877818266,191.1322692508984 115.19638813345227,192.49542956074583 113.62765459879301,190.31436986592598 111.7760346889263,189.49646808180842 109.84726394945756,192.55601430876413 107.22413574380334,195.3731905517052 107.19841880071908,197.9782959407312 108.22709652839694,198.4629640255589 108.22709652839694,199.52317252397188 106.52977827761788,199.4625892897311 105.37251583393663,196.61516243583173 105.65540220914409,197.64508614386432 105.39823277725372,198.7355894530192 105.03819557256065,199.15967292146524 104.18953644717112,198.85675622409326 103.62376369687263,200.97716619519633 104.34383810625877,205.00590071929037 105.44966666365508,206.1872479270678 106.14402412984055,208.03498608825612 105.9640055274358,209.7312595231051 104.90961085667368,210.54910195682896 104.62672448134981,209.64038799350965 104.85817697015591,209.30719213170232 105.5011005498236,209.7009690165287 104.85817697015591,210.88229633471929 105.91257164103445,212.33623077985249 106.52977827761788,216.03161337750498 110.87594167713542,218.6062362451339 114.52774761046749,219.0 115.91646254283842,218.8788419807679 119.61970236257184,216.57682961551473 124.89167571696453,217.78841743950034 126.1260889901314,217.3037829415698 129.6235932643758,212.88145424245158 129.10925440047868,211.94245761618367 127.15476671780925,211.60926450483385 126.71757868363056,211.09432891348843 126.25467370601837,208.73167106910842 128.59491553658154,207.18684550162288 129.4178577188868,205.46026562229963 130.4979693328496,204.70299037278164 130.13793212815654,203.2187249181734 128.56919859349728,202.18882179653156 129.18640523019712,198.79617284506094 129.88076269626617,198.06917127085035 131.86096732201986,197.88742058104253 134.81841578928288,196.675746288558 135.87281046016142,197.00895724390284 136.5157340397127,198.1903383314493 137.26152539253235,198.40238056093222 139.98752137075644,196.49399469068157 141.37623630312737,196.1304911391635 141.11906687135343,193.61624526738888 139.8075027684681,189.98115091014188 140.96476521203294,188.7391494755866 141.11906687135343,187.58802125463262 139.19029613188468,184.86164598338655 139.62748416617978,182.13524405116914 141.17050075763837,178.5" stroke="#4dd2ff" stroke-linecap="round" stroke-linejoin="round" stroke-width="0.5"><title>2025-04-01 8.4km</title><desc>1743465137000</desc></polyline><polyline fill="none" points="159.8457966451533,192.31240677664755 158.99532960588112,192.00026505510323 160.50000206008554,191.7661586710601 161.61215126537718,193.01472513197223 162.52803884679452,190.2834830537322 161.74299234873615,188.9568758442183 157.35981606831774,187.94240978057496 155.72430253075436,183.4943486006814 152.5841165392194,184.58685752132442 151.53738787514158,182.24576485162834 159.3878528547939,178.5 158.40654473239556,179.59251685650088 160.82710476778448,181.0752155276714 157.49065715121105,182.4798744773143 161.35046909959055,180.99717883515405 173.06074602738954,200.19393828487955 176.92055797576904,198.55521144991508 177.90186609793454,199.1794887999422 179.7336412598379,202.37890132295433 178.6869125959929,201.05231744924095 177.24766068323515,203.08120939618675 179.47195909405127,201.36445506155724 180.060743967304,201.98872986109927 177.70560447336175,202.14479847229086 182.3504629197996,208.15341307315975 177.37850176612847,210.18228406779235 177.96728663961403,213.30361237062607 179.79906180151738,213.1475462918752 179.53737963549793,213.9278763309121 172.53738169535063,214.08394223224605 172.60280223703012,212.99148017767584 173.51868981751613,214.08394223224605 172.86448440281674,212.75738094031112 175.4158855213318,215.64459929947043 180.64952884078957,215.8006648113951 179.66822071839124,215.8006648113951 180.91121100680903,213.69377741205972 180.78036992368288,209.94818387390114 182.2196218369063,210.6504842163995 183.46261212509125,212.05508274963358 183.13550941762514,213.38164539670106 180.4532672164496,212.60131473769434 175.87382931169122,215.72263205994386 178.35980988875963,215.87869755423162 182.28504237812012,219.0" stroke="#4dd2ff" stroke-linecap="round" stroke-linejoin="round" stroke-width="0.5"><title>2025-03-30 2.1km</title><desc>1743318651000</desc></polyline><polyline fill="none" points="44.21325583849102,228.36773279192857 44.047892226837575,227.25 40.68549878615886,228.49923062568996 40.90598360192962,229.94570482696872 37.48846895713359,230.66894057340687 37.59871136513539,232.707145546854 35.72459043096751,233.69337118568365 35.72459043096751,234.61384693393484 35.173378391657025,234.08786097110715 35.06313598365523,235.27132871589856 34.51192394411191,232.31265482120216 35.00801477977075,232.90439080889337 34.07095431257039,233.49612619209802 26.85007659578696,234.41660225373926 27.566652247216552,234.54809871461475 27.51153104333207,236.91502990660956 25.637410109164193,236.1260539169889 21.5033198131714,236.91502990660956 21.393077405402437,238.82171744585503 23.708167970879003,238.55872643413022 25.196440477622673,245.92242963827448 24.9208344577346,244.34450111578917 25.913016128819436,243.4897880385397 21.66868342505768,245.00197185581783 20.84186536562629,246.44840485753957 20.786744161508977,244.8704777674866 24.47986482619308,243.4897880385397 26.0232585365884,244.8704777674866 25.196440477622673,245.72518880805 26.298864556476474,262.09594923781697 26.519349372014403,264.3970230658888 27.842258266871795,265.3831947663566 24.865713254082948,265.77766297676135 24.865713254082948,267.75 23.928652786649764,266.96106599626364" stroke="#4dd2ff" stroke-linecap="round" stroke-linejoin="round" stroke-width="0.5"><title>2025-03-30 1.4km</title><desc>1743309591000</desc></polyline><polyline fill="none" points="83.95413739827927,232.91344784747344 83.63361590227578,235.14447518173256 85.26536170043983,236.89496252019308 85.67329814995173,238.33653304493055 85.49846824305132,239.3662222494604 84.36207384802401,240.704813197779 86.11037291737739,247.36336081573972 85.11967011133675,248.11844498483697 84.15810562309343,247.87819112674333 83.51706263085362,248.94217111117905 82.00187010399532,249.90318221083726 80.71978411974851,250.0404692721495 79.96218785620295,251.37901499355212 82.99257291003596,254.53658756107325 83.25481777044479,258.5178297331149 80.98202898004092,259.75337744824355 79.14631495717913,261.7096514495497 73.02726821391843,265.9996836090577 72.4445018573897,267.09792247775476 72.12398036126979,265.62216311634984 70.4630962453084,265.2103220644349 68.30686072609387,267.75 68.01547754788771,266.9949627459864 69.3558401678456,263.1511087526742 69.00618035392836,261.7096514495497 71.59949064045213,260.0622636222106 72.5319168107817,258.0373376500793 73.84314111294225,257.213635236345 73.23123643861618,256.59585701688775 73.84314111294225,256.97338829460205 75.00867382599972,258.89535871424596 78.68010187195614,256.63017806076095 79.35028318199329,256.8361042457982 79.32114486419596,256.1496831071272 79.40855981758796,256.7674621990591 78.82579346117564,256.42425174158416 78.88407009665389,255.42893930643913 78.27216542244423,255.32597577225533 78.59268691856414,254.63955135268043 77.45629252318759,253.30101944503258 77.68939906579908,252.75187650916632 79.35028318199329,252.51162617452792 79.64166636019945,251.24172851390904 80.48667757713702,250.38368666439783 80.10787944530603,249.45699884954956 83.05084954574704,251.48197981421254 83.8084458092926,251.44765821102192 85.23622338275891,252.82051942835096 85.7898514213739,254.26201728614978 86.5183093668893,253.88448276856798 86.98452245211229,252.54594766211812 85.7898514213739,245.3383534522436 84.07069066970143,240.77345873444574 85.49846824305132,239.3662222494604 85.70243646786548,237.68439481285168 83.69189253787044,234.83556464448338 84.01241403387394,231.47185257443925 86.25606450648047,227.25" stroke="#4dd2ff" stroke-linecap="round" stroke-linejoin="round" stroke-width="0.5"><title>2025-03-26 3.9km</title><desc>1742943197000</desc></polyline><polyline fill="none" points="121.74910212884424,229.02242597810982 121.57520999026019,228.36942907665798 122.33401204954134,228.4440574205073 122.41305393073708,227.9776297356584 121.63844349514693,227.25 121.48035973287188,227.60448666928278 121.10095870314399,227.49254359015322 119.39365406968864,230.27244164401782 119.39365406968864,230.68289255115087 119.2039535548538,230.60826518698013 119.06167816877132,231.5224481481855 118.31868448568275,233.014981227534 118.44515149557265,233.48139513628848 120.27892313891789,234.5634704924887 121.62263511901256,235.7947892714874 121.41712622786872,236.29850802807778 121.19580896059051,236.03732071032573 121.2116173368413,237.08206758157758 120.91125818836736,237.56712645365042 121.41712622786872,237.88427958580723 121.40131785161793,238.68648781707452 120.99030006950488,238.9849829400482 120.76898280228488,238.76111164681788 120.54766553489026,239.45138052392576 120.05760587158147,239.32078932895092 119.89952210924821,239.65659505678923 120.05760587158147,239.4886922755686 121.3380843467312,240.68266401799337 122.12850315851392,240.94384422259463 122.19173666340066,242.23108367428358 122.71341307921102,242.06318342711893 123.89904129685601,242.64150580496062 124.84754387103021,244.43242718286638 124.65784335613716,244.56301446452562 124.80011874227785,244.4510825149191 125.66957943531452,245.79426106256142 126.22287260345183,245.9435024705308 126.30191448476398,246.22332975864992 125.93832183122868,248.42462175026594 126.68131551431725,249.71180475407164 126.08059721736936,250.55126669816673 125.25856165314326,255.6252598446008 125.36922028678237,256.2035362491297 124.35748420772143,256.4833467089047 124.81592711858684,256.25949837773805 124.626226603752,256.0543038162432 123.61449052463286,256.6698867605446 122.91892197029665,255.6066057344433 123.64610727713443,256.3714225800213 123.53544864343712,257.5279683710396 123.97808317799354,256.968350418887 123.3299397524097,257.0989281052316 123.89904129685601,257.0429662519018 123.63029890088364,256.3714225800213 122.87149684154429,255.73718446296698 123.18766436626902,256.091611936703 122.96634709899081,255.84910900791874 123.36155650485307,256.91238852271636 123.34574812860228,257.91969984544266 121.08515032700961,263.142700232871 121.19580896059051,263.6836447076057 125.59053755417699,264.877447135339 125.38502866303315,266.4629530724196 125.13209464325337,266.4069942900969 125.08466951455921,266.87331691502186 124.65784335613716,266.83601115197234 124.42071771266637,267.75" stroke="#4dd2ff" stroke-linecap="round" stroke-linejoin="round" stroke-width="0.5"><title>2025-03-24 3.9km</title><desc>1742796232000</desc></polyline><polyline fill="none" points="177.32946514128707,267.7471456681942 177.41182142881735,267.75 177.46026630383858,267.6301177967034 177.39971021006932,267.69291330484884 177.40213245381892,267.5673221382476 177.33188738503668,267.57873954187016 177.57168951637868,267.51879811740946 177.5934897101397,267.4759827303624 177.51355566635903,267.33897302224796 177.55957829763065,267.2647591315945 177.4675330350874,267.1848362453202 177.55231156636728,266.9736103023315 177.4893332288484,266.95648379998056 177.54504483511846,266.82803467595295 177.43362162257836,266.7110027042563 177.251953341256,266.76809153616523 177.2471088537568,266.7167115930424 177.28828699751466,266.7424015771812 177.29797597252764,266.6881671367046 177.43362162257836,266.65962264932386 177.30282046002685,266.6995849229734 177.35610982256185,266.6938760304565 177.31250943503983,266.5682800809391 161.92641712909972,227.43010063809743 161.89250571657612,227.45297047157328 161.9239948853501,227.50156880126815 162.00392892913078,227.44153555734192 162.0136179041292,227.4758402850439 162.16379701669211,227.42438317660162 162.19044169795234,227.5044275237342 162.1347300916823,227.27572873857753 162.1419968229311,227.31575117046486 162.26068676673458,227.25 162.37453222300974,227.2557174996491 162.45931075430417,227.361491017562 162.52713357932225,227.37578470335757 162.43751056054316,227.39865458437998 162.3914879292861,227.30717494022247 162.44962177930574,227.31575117046486 162.4132881230471,227.32432739788965 162.3914879292861,227.38150217549082 161.8779722540785,227.53587345016058 162.0281513666414,228.20480510303787 161.8973502040899,228.25054339406415 161.85374981656787,228.3277265786619 161.71568192276754,228.3505956266181 161.7035707040195,228.46494056621668 161.71325967901794,228.51067840198084 161.85617206031748,228.4935267229448 161.8997724478395,228.5764264006557 161.85374981656787,228.43063713686752 161.84890532906866,228.50496117689 161.7738157727872,228.51925423727698 161.5533915914566,228.48780949410866 161.3281229226268,228.5506989426067 161.33296741011145,228.49638533690268 161.3281229226268,228.58214361011778 160.8146072474192,228.81940669972755 160.800073784907,228.97948660356633 160.62324999109842,229.06810184300048 160.36891439724423,228.5506989426067 160.27444689096592,228.59643662829149 160.19935733468446,228.5764264006557 160.23811323469272,228.60501243544059 160.22115752844547,228.49066810869226 160.13153450965183,228.364888771428 160.17513489717385,228.34201973597737 160.0467559783574,228.26197795431835 160.00073334710032,228.14191482216484 160.03464475960936,228.10475231232704 159.8771989158122,227.98754712746813 159.78030916576972,228.03900312701262 159.47752869690885,227.9389497015327 159.21834861555544,227.82174377305273 159.08270296550472,227.7817221161058 158.9301016091922,227.60162390133883 158.61763216531835,227.41866571385071 158.49894222152943,227.4358180983436 158.23733989642642,227.7274069122086 158.03387142134306,227.73884170135716 158.03144917759346,227.7760047315296 157.91033699005493,227.79315688148017 157.59786754618108,227.6702328914198 157.6027120336803,227.55302575772657 157.4065102898603,227.43010063809743" stroke="#4dd2ff" stroke-linecap="round" stroke-linejoin="round" stroke-width="0.5"><title>2025-03-24 4.7km</title><desc>1742777725000</desc></polyline></svg>