<?xml version="1.0" encoding="utf-8" ?>
<svg baseProfile="full" height="300mm" version="1.1" viewBox="0,0,200,300" width="200mm" xmlns="http://www.w3.org/2000/svg" xmlns:ev="http://www.w3.org/2001/xml-events" xmlns:xlink="http://www.w3.org/1999/xlink"><defs /><rect fill="#222222" height="300" width="200" x="0" y="0" /><text fill="#FFFFFF" style="font-size:12px; font-family:Arial; font-weight:bold;" x="10" y="20">Over 1km Runs</text><text fill="#FFFFFF" style="font-size:4px; font-family:Arial" x="10" y="280">ATHLETE</text><text fill="#FFFFFF" style="font-size:9px; font-family:Arial" x="10" y="290">Tao</text><text fill="#FFFFFF" style="font-size:4px; font-family:Arial" x="65" y="280">SPECIAL TRACKS</text><rect fill="yellow" height="2.6" width="2.6" x="65" y="283" /><text fill="#FFFFFF" style="font-size:3px; font-family:Arial" x="70" y="285.5">Over 20.0 km</text><rect fill="red" height="2.6" width="2.6" x="65" y="287" /><text fill="#FFFFFF" style="font-size:3px; font-family:Arial" x="70" y="289.5">Over 40.0 km</text><text fill="#FFFFFF" style="font-size:4px; font-family:Arial" x="120" y="280">STATISTICS</text><text fill="#FFFFFF" style="font-size:3px; font-family:Arial" x="120" y="285">Number: 15</text><text fill="#FFFFFF" style="font-size:3px; font-family:Arial" x="120" y="290">Weekly: 2.5</text><text fill="#FFFFFF" style="font-size:3px; font-family:Arial" x="141" y="285">Total: 258.2 km</text><text fill="#FFFFFF" style="font-size:3px; font-family:Arial" x="141" y="290">Avg: 17.2 km</text><text fill="#FFFFFF" style="font-size:3px; font-family:Arial" x="167" y="285">Min: 1.4 km</text><text fill="#FFFFFF" style="font-size:3px; font-family:Arial" x="167" y="290">Max: 98.8 km</text><polyline fill="none" points="32.87338377346168,32.45103091701458 32.69123623982887,32.400000000001455 32.36741840225295,32.646649052105204 31.524142783600837,32.79974108513852 30.80229885398876,33.61622569184692 30.08720112935407,33.91389975883794 30.114185949147213,34.56027292616636 30.343556917418027,35.06205808365485 30.08720112935407,36.099635150283575 30.518958246102557,36.26122349501384 30.67412095994223,36.68645401568938 30.883253313368186,36.788508916775754 31.213817355921492,37.24775394136668 31.793990981561365,37.37532141414704 32.67099762495491,38.25978217514785 32.20550948346499,39.19525610913843 32.22574809830985,39.52692083021975 32.36741840225295,39.66298790687142 32.2527329181321,39.89260043737886 32.515834911115235,39.850079661053314 32.54281973093748,39.97764190458838 32.18527086862014,39.87559213026543 32.27297153294785,40.079691514896695 33.993253795051714,40.42835977901996 34.43850332169677,40.41135161543207 34.870260438503465,40.66647359068156 35.045661767187994,41.10868258584378 34.76906736425008,41.6104159850147 34.19563994355849,41.69545515120262 33.33212571000331,42.12915312702535 33.50752703868784,42.477810135846084 33.2444250456756,42.59686331010016 32.79917551900144,43.175118409511924 32.98132305263425,43.27716288033844 32.89362238830654,43.175118409511924 32.74520587941515,43.226140665436105 32.65075901011005,43.464243984242785 32.19201707356842,43.67683547863271 31.62533585782512,43.73636096952396 31.42294970934745,43.58329530880292 31.10587807671982,43.58329530880292 30.97770018267329,43.957455161289545 31.05865464208182,44.07650556106091 30.889999518345576,44.068001968473254 30.68086716491962,44.36562703112577 30.626897525275126,44.85032771842816 30.822537468833616,45.33502470560052 31.146355306409532,45.7261809798656 31.996377130009932,46.074818236753345 32.792429314082256,46.219374586733466 33.4805422188947,46.93364819134149 33.51427324366523,47.25676932528586 33.35911052979645,47.69042931558215 32.785683109104866,48.36217129664874 32.18527086862014,48.600255356454 31.773752366716508,48.600255356454 31.760259956819937,48.71929705157527 31.584858628106304,48.685285161453066 31.59160483305459,48.81282965550781 31.807483391457936,48.71929705157527 32.75195208436344,48.863847381398955 33.075769921939354,48.685285161453066 34.39802609200706,49.07642079801735 34.57342742072069,49.25498191809311 35.79449051653501,49.31450217985548 35.88219118089182,49.4165367845344 35.673058827465866,52.47749869203835 35.841713951173006,54.08444463393971 37.96676851026132,62.13556688584504 38.978699252649676,64.88988763229281 34.485726756363874,66.99805245878815 34.296833017782774,67.17656320324022 30.51221204115427,73.33062692872045 30.006246669974644,74.81805288761097 30.03997769471607,75.52350559839397 29.70941365219187,75.54050436227408 29.925292210566113,75.20902764657512 29.68917503731791,75.59999999999854 29.986008055129787,75.5745018763555 30.120932154124603,74.64806311164284 29.972515645204112,74.63956361089367 30.019739079871215,74.17208931966161 30.0264852848195,74.81805288761097 30.282841072883457,73.40712397016614 32.8666375685134,69.33565343858209 32.85989136353601,68.9956440958631 32.56980455070152,68.75763647329586 31.969392310245894,68.6556329335508 31.854706826095935,68.39212303118256 31.692797907307977,68.48562667002261 31.713036522152834,68.61313141031133 31.81422959640622,68.58763048271794 31.841214416199364,68.50262731685507 31.67930549744051,68.51112763855053 31.67255929246312,68.57913017123064 31.173340126202675,69.08064660213131 30.24236384316464,69.2931523702573 30.006246669974644,68.25611749265227 30.303079687728314,67.90760197125928 30.174901793710887,67.89910156881524 30.019739079871215,67.23606667325657 29.736398472014116,67.27856911771232 29.183209666138282,66.70903399962845 29.021300747350324,66.90454663061246 29.189955871086568,66.3010057011852 29.507027503685094,65.73996251177596 30.57967409066623,65.55294701425737 30.6403899352008,65.272422735703 30.836029878730187,65.11940897075692 30.478481016412843,65.00889880018076 30.458242401567986,64.5413536437336 30.24236384316464,64.49034850939643 30.006246669974644,64.64336378953158 29.94553082541097,64.78787788235786 30.0737087194575,64.93239164641273 30.24911004814203,64.78787788235786 30.033231489738682,64.91539004417427 29.89156118585379,64.5413536437336 29.797114316548686,64.804879518706 29.250671715621138,65.24692046714335 29.06177797706914,65.8759734369014 29.034793157246895,66.87904501721641" stroke="#4dd2ff" stroke-linecap="round" stroke-linejoin="round" stroke-width="0.5"><title>2025-05-04 11.1km</title><desc>1746326389000</desc></polyline><polyline fill="none" points="109.38280334872616,74.39478359446002 109.3720302809852,74.42037066108969 109.30200534067262,74.4069037918498 109.26645421712965,74.39882366184247 109.21258887842487,74.35438283335588 109.20504773100402,74.34091587772491 109.2761499780936,74.22105919590194 109.35371606582703,74.08234691063717 109.32893801002137,74.1469897617535 109.43774599420794,74.12544218985295 109.41943177904614,74.22644604303787 109.47976095839476,74.31936871204834 109.55409512580445,74.44730434668145 109.58964624934742,74.80416902358411 109.73185074352659,74.84322138767675 109.92899788317663,74.91728580894687 109.92576596286017,75.04656061212609 110.0852073654205,75.18929965360985 110.05288816219763,75.19872574701822 110.08628467219387,75.1825667244575 110.19078342927241,75.1313963189159 110.25542183571815,75.18929965360985 110.18862881572568,75.1192769750578 110.78007023468672,74.89035335381686 111.34673359784938,74.83918149481906 111.71301790103098,75.14755542184503 112.32492814870056,75.21084499728295 113.09951171925422,75.1637144993947 113.65001548080545,75.58788120812642 113.78144690723639,75.60000000000036 114.54418010327936,75.43302872214008 114.57111277262811,75.05868004164404 114.5775766132756,74.55369171536404 114.60343197585098,73.99346232702919 114.48816015102784,73.51670463340452 114.23714767267302,73.18134488047781 114.21883345751121,72.74765059141737 114.12726238171308,72.37589807155746 113.82022995110674,71.98123304439378 113.71142196692381,71.46396993522922 114.20051924235304,71.2780721487652 114.29532223847127,71.21071704875521 113.63708779951412,69.4970548682013 113.3860753211593,68.72770007116651 113.25248928117071,68.66976033764058 113.68664391112179,67.37074659280006 113.05103291442356,65.86670394786142 112.80432966315857,65.31813179718938 112.30445931999202,64.41231708598752 112.6427336470515,61.110539119696114 112.33893313676526,60.98648266120654 110.1175265686361,60.95142295550613 110.08197544509676,60.511818018040685 108.68470855913256,60.665547039169724 108.40137687755123,60.49293885667612 108.19992051080408,59.602881831692685 107.92412997663996,57.47587225667576 107.59339679700133,56.15655401987078 106.10886806233975,55.83546725595261 105.5615962211159,55.51571960469755 104.86781065861578,55.360564197718304 103.75064353390917,55.214850895011296 103.1602794217215,55.58317774498664 102.62808987533208,55.444213491426126 101.30946638387468,55.283660212678114 100.85592023199206,55.27961261854216 100.16644389659268,55.12850129396884 99.76029924276736,55.193263562926404 99.31321693153222,54.671106122080346 98.59680792677682,54.50514353638209 97.63154105721333,54.26361594885839 97.45055351916744,54.35806875560502 97.28464827596326,54.32973300495905 97.18014951887744,54.35806875560502 96.46589512767605,54.12328445753701 95.9541744099879,53.96945734650399 95.7150123061474,53.86555527234668 94.92857836107578,53.551143879271876 94.08827907730665,53.518757608509986 93.4084985028785,53.63345852355815 92.93556082906434,53.83316999498402 92.56712191232873,54.37156194267209 92.3936755217037,54.97064154954023 91.97675780013742,55.43072171602307 91.84855829402295,55.72753667412417 91.78607450113122,55.673570957178526 91.7117403337179,55.68706241304517 91.83993983983237,55.74642460795258 91.38962560827349,56.75957635863415 91.39608944892097,57.01318589994844 91.5232116482548,57.14268622569489 92.03816428626305,57.006441046517466 92.6651568287707,56.743388302642416 93.30830897288251,57.338282576068195 93.4408177060941,57.24655509692093 93.45159077383505,56.82163033655979 93.91483268668526,56.65705157246248 94.07642870279597,57.00374310390271 94.09905214504761,57.24250827747164 94.19493244794285,57.33963150346699 94.06457832828164,57.498803690666136 93.9654661050663,57.57164437622123 93.82972545153461,57.80500086716438 94.0602691011809,57.90886303156822 94.02040875054445,58.116584205507934 94.01717683021707,58.1192818554191 94.06134640795426,57.90751417903266 93.82757083798424,57.82523383881744 93.96007957119582,57.57164437622123 94.11736636021305,57.63774010619727 94.37376537243472,57.811745195484036 94.54182522919291,57.938537742524204 94.77021426529245,57.95337506580927 95.22483772394844,57.87649052170673 95.26577538136189,57.79690766733074 95.0438501859062,57.78072124850769 95.47800481585364,57.7321618387723 95.47261828198316,57.68090443465644 95.17204969201703,57.667415601527864 95.14834894299202,57.62829788513409 95.49955095133555,57.606715632921805 95.58358087971283,57.594575596098366 95.66222427421962,57.606715632921805 95.70747115873382,57.726766334612876 95.77210956517592,57.662020063306954 95.86475794774378,57.6593222931333 95.78288263291324,57.78881446111336 95.75271804324075,57.98304964799172 96.05975047385073,58.51582867612706 95.93262827450963,58.768046059499284 95.69562078421586,58.581918322641286 95.5103240190765,58.418716586335904 95.17851353266451,58.56033807671247 95.14403971589127,58.70870135067344 95.20975542911401,58.978447261059046 95.08155592299954,59.00002662750467 95.06647362816148,58.93663710940746 95.05785517396725,58.982493395722486 94.98352100655757,58.935288392000075 94.8693264885078,58.932590956658714 94.42978532468987,59.28729761933482 94.41578033662154,59.25492945896349 94.42332148404239,59.19963361543523 94.43517185855671,58.96900627396735 94.43840377888046,58.97170369973628 94.48903719726513,58.82199549689449 94.45564068726526,58.74781494732906 94.50304218532256,58.706003855755625 94.44271300597393,58.7666973199257 94.49226911758524,58.81525183273516 94.45348607371488,59.033744296703844 94.41470302985181,59.16321911670366 94.42978532468987,59.288646290465294 94.79822424141457,58.99058566026906 94.97597985914035,58.92989352060522 95.00398983526611,59.01755982931536 95.03523173171561,59.027000771729035 95.04061826558245,59.0121650011788 95.03523173171561,59.01890853590885 95.16558585137682,59.00137533640009 95.20329158846653,58.84357519241803 95.18713198685873,58.54954793673005 95.55880282391081,58.406577510471834 95.69023425034538,58.57787202998588 96.01234897578979,58.79906702066273 96.26012953382815,58.73163002887122 96.35170060962264,58.55089670484722 96.65550111990888,58.643961276803566 96.95930163019511,58.8462726511716 97.1133564988886,58.643961276803566 97.42362084981869,58.619683643775716 97.8610074000826,58.58326708650293 98.19928172714572,58.848970109207585 98.5580248829101,58.937985826639306 98.49338647646437,58.90426784272131 98.51170069162254,58.7666973199257 98.58818947258624,58.639915008623575 98.63020443677306,58.529316393665795 99.00510719414888,58.15839769946979 99.43926182409632,58.063979890361225 99.84540647791437,57.75374382703649 101.37195017677004,57.478570075099924 102.32967589891268,57.1696652544133 103.18290286397678,56.737992278301135 103.38759115105131,56.058070493176274 104.42719218802085,55.83816550593838 104.41965104060728,54.04637119056588 104.41857373383027,53.57948178224615 104.4336560286647,53.17599663702458 103.90900762969613,52.79273851216567 103.30140660912366,52.40811647814735 103.21306745365291,52.12605114505641 103.10210485592324,51.69686507409642 102.71858364435684,51.25686320777186 102.68626444113033,51.00851025371503 102.74443900693223,50.06093443975806 102.72935671209416,49.68970919354251 102.23702751634119,48.932367970543055 101.93107239250821,48.553001315468464 101.63050380254572,48.35318689334599 101.53785541997422,48.02105429536641 101.45705741192796,46.54387882712672 101.11447385776773,46.26840388227174 100.37544141076069,46.22789223575273 98.67760593483399,45.980767720182484 97.70264330429927,45.76199677723889 97.47425426820337,45.325791373847096 97.27710712854605,44.997612206580925 96.76215449054143,44.990859438334155 96.36139637059023,45.28662651177456 95.87876293580848,45.79305713416852 95.41552102295827,45.50540761475531 95.1429624091179,45.109707508712745 94.35652846405355,44.211560056194685 94.07642870279597,44.0764934709332 93.190882534509,42.52445046435878 92.93556082906434,41.299129232166706 92.6985533387633,41.03161952062783 92.45723662137607,40.639799738505644 91.29159069183515,37.51145859414737 91.31529144086016,37.335756619381755 91.82162562467784,37.31007684703127 92.04247351335653,36.62210524438888 92.21484259720819,36.40043065920236 90.70445849996759,36.37204515164103 90.36295225258436,36.29770178200397 90.07962057101031,35.877313643728485 89.79952080975272,35.81918787790437 89.33412428335214,34.90400142185081 88.68343099181584,34.26589087054526 87.36480750036208,33.723735971565475 86.60853814497023,33.7913379032052 85.43104184091499,32.420283254969945 85.42673261381424,32.48654160715432 85.41380493253018,32.479780570502044 85.41488223929991,32.47437173795788 85.42026877317403,32.493302639332796 85.38364034285769,32.49735925648383" stroke="red" stroke-linecap="round" stroke-linejoin="round" stroke-width="0.5"><title>2025-05-03 98.8km</title><desc>1746244765000</desc></polyline><polyline fill="none" points="165.86383231881337,32.61286084607036 165.5248414481648,32.73005175181606 165.45628149679396,32.739618289146165 165.0592051117892,32.56622322530802 164.80115307261076,32.400000000000546 164.61451764944286,32.41674204632818 164.52881771023385,32.54708977266273 164.3317078500586,32.643952459266984 164.21268015670285,32.75396807610559 164.077464697064,32.921380570440306 163.77846713137478,33.62089201908657 163.7032416291804,33.75122234526498 163.6375383424529,33.78709274680659 163.57088283418125,33.86600712813561 163.03763876798257,33.90905104517151 162.78244339344747,33.94731213234627 162.1615949449515,33.96883392257132 161.92258733671042,33.75002666275941 160.26191295913668,33.47142831793735 159.63535118135405,34.54631612192861 159.23446591016545,35.0544220636084 159.05354381627694,35.3473171939977 158.98307942181418,35.48120894441672 158.72026627490777,36.12194910631388 158.46507090036903,36.39090296968243 158.2955754650393,36.79252581903802 158.0099090010117,37.31245743002182 157.88802464302353,37.49054206199071 158.00895677946392,37.68894093772087 157.87088465518173,37.937530965165024 157.7613791773001,38.1825288622349 157.80994247618582,38.50758898071581 157.78137582978525,39.23415164035032 157.76709250658314,39.28553461509273 157.2824117392738,39.99530672675428 157.11196408240357,40.3203016009129 156.98722305977208,40.38960046589 156.6196655427193,40.694270203181986 156.35590017426148,41.0180452100476 156.03690595608714,41.28446391108537 156.14450699087683,41.57954630646145 156.13022366767473,41.64047305000804 155.78551946774314,41.6822852833302 155.69124953461505,41.66317114353569 155.67030066058214,41.80652620633555 155.9683460047272,42.506544091605065 156.69298660181812,44.564473754214305 156.88343091117713,44.91199427250558 157.10244186693308,45.13291961489995 157.2824117392738,45.442206024873485 157.46619049779838,45.70013563499015 157.5414159999964,45.891189861825296 157.6585392502493,46.00940264304336 157.36811167848282,46.34731550499873 157.56617376021313,46.67208204483268 157.65377814251406,46.85356414911894 157.95277570820326,47.36694774794796 158.1698822208673,47.64750554021521 158.2384421722345,47.69167767628551 158.37365763187336,47.739431094246356 158.65932409590823,47.979388203281815 158.87738283012368,48.1369685137106 159.28588587369086,48.385271311130055 159.30873919081205,48.8723070040196 159.39253468692914,48.9845124917274 159.56774345153462,49.07761811660839 159.81627327524257,49.09910389397737 159.97529427355403,49.164754564259965 160.08099086524453,48.828140632503164 160.10384418236936,48.803073136535204 160.19335300776584,48.81142897624068 160.23334631273246,48.78158665614137 160.2819096116218,48.72787023190358 160.3695139939191,48.56910649145175 160.46949725633385,48.45689585156106 160.7551637203651,48.29454607916978 160.92846804187502,48.24202052900546 161.057017950694,48.23127662889692 161.09034570482982,48.26947710463537 161.40267437217335,48.48196430674034 161.75594856602766,48.86156385241338 162.18730492671602,49.205338376721556 162.8338633569765,49.48225835596986 163.3128307950028,49.769911946441425 163.95843700371552,49.5228407443592 164.03651917054958,49.535970301631096 164.26124345558856,49.5228407443592 164.4593055373225,49.558648582959904 164.58118989530703,49.65413545980755 164.6868864870048,49.84868685339461 164.7811564201329,50.09216859396929 164.81448417426873,50.2497121117749 165.01349847754318,50.750968696011114 164.98874071732644,50.9908459537819 164.99350182506168,51.1877553692957 164.96017407092586,51.36318014952394 164.9782662803118,51.48609480664254 165.05730066869364,51.595881244544216 165.1230039554248,51.869148226599464 165.11157729686238,52.38702022677535 165.64386914150964,52.71037689025161 165.67910133874102,53.64339300770462 165.7752757149683,54.0001090605183 165.8000334751814,54.1826372585856 165.79241570280647,54.2971628771993 165.8514534387068,54.44986144929862 165.84097900169218,54.49161451689179 165.80098569672555,54.51547332624159 165.79336792435424,54.58704937719358 165.81336457683574,54.65504610168773 165.89335118676536,54.76240831158066 165.93334449172835,54.905555945231754 166.60846956839669,55.140551738557406 166.68083840594772,55.21570139100186 166.78653499763823,55.4244471544871 166.7903438838257,55.595018692889425 166.90175380479923,55.71310479965905 166.95603043296796,55.82761106961152 166.97888375008552,55.89440572538933 166.97507486390532,55.93257387901849 166.95603043296796,55.95046514568003 166.97507486390532,56.05781200367528 167.27788131577472,56.470489192099194 167.28454686659825,56.68039870024677 167.36929458426312,57.194417927889845 167.33215794394346,57.35780076345054 167.50641448700117,57.430546917651554 167.66829214995232,57.459168195298844 167.99680858358988,57.460360746570586 168.65003256468117,57.51760302315415 169.02330341101697,57.52356573950419 169.0328256264802,57.504485033372475 169.07186670989904,57.504485033372475 170.05741601081172,58.29749302173241 170.09455265113866,58.30584010522216 170.2450036555274,59.01292941553038 170.67064668693638,60.60814926402509 170.71730554273017,61.03492432660096 170.89251430733566,61.60948919769908 170.93345983384643,61.90629372139301 170.99725867747838,62.00403445073334 171.11628637082686,62.12203709863479 171.16865855590004,62.148259700800736 171.31530067410495,62.17805802034036 171.4162361580602,62.17805802034036 171.47813055860024,62.206664314999216 172.25419111922383,62.11369352749898 172.27609221479725,62.16733063658012 172.27799665789644,62.48199528832356 172.3075155258448,62.536822103433224 172.37797992030391,62.55946786514414 174.26052191828057,62.5547003410602 174.41954291659204,62.57377042236112 174.59665612429308,62.61906170477869 174.67188162648745,62.60833484253817 174.81471485850125,62.66196902690899 174.91374589936822,62.678655152926694 175.14227907059467,62.65839342447998 174.9394558811291,63.778679899679446 174.98992362310673,63.80966458097919 175.12037797501762,63.81800659248347 175.00230250321692,64.17313082669898 175.01087249713964,64.2124558099822 175.38033445728797,64.2994468341958 175.52221546775763,64.37094568177417 175.62410317326066,64.3900119459795 175.6955197892712,64.42337781196056 175.16132350153202,65.49459524414306 175.17370238163858,65.51008466900203 175.37652557109686,65.52199959321297 175.40033110976947,65.63519059315695 175.44127663628024,65.65306272727503 175.50983658764744,65.7316996993377 175.51745436002238,65.76982647087243 175.57458765282718,65.79008125311066 175.5945843053123,65.83654793570258 175.83168747045784,65.75195456665551 175.56220877272426,68.64198001526984 175.43841997164054,69.57812243650187 175.42699331307813,69.76271928637561 175.47079550423223,70.03782117929131 175.79264638704262,71.12742865449036 175.85454078757903,71.30365889878249 175.9907084687693,71.58943040854228 175.96404626546428,71.62991397901988 175.48412660588656,71.81446914753724 175.61077207160633,72.3812086902044 175.77741084229638,72.8407656493655 175.7907419439507,73.22648982456849 176.03260621682784,73.74552492132898 176.10497505438616,73.85861349917832 176.23923829248088,73.98360450125529 176.28399270517912,74.09192864643592 176.26399605269762,74.78469650543866 176.3296993394215,75.48098214843958 175.81359526106826,75.57381620629349 175.37652557109686,75.54763233720769 175.1394224059477,75.60000000000036 174.87756148058907,75.12987041095585 174.66521607566028,75.13106064313706 174.37193183925046,75.09416337315088 174.2548085889939,75.12748994613412 174.13578089565272,75.07035860338692 173.7996466896402,75.06083667803614 173.54445131510147,75.00132441867572 173.26449818034962,74.98228041342372 172.87027845999182,74.90491373195164 172.4760587396231,74.9489533082633 172.35322216008717,75.06559764195663 172.39131102195824,75.0929731361457 172.4065465667045,75.07392932282346 172.42178211145801,75.0775000408612 172.40749878825227,75.07273908316893 172.42654321918963,75.07988051877237 172.43035210538073,75.11082667490791" stroke="red" stroke-linecap="round" stroke-linejoin="round" stroke-width="0.5"><title>2025-05-03 66.9km</title><desc>1746236322000</desc></polyline><polyline fill="none" points="52.92538381344639,80.91926554916427 52.13192828092724,80.39999999999418 51.25031102250796,81.26544211176224 50.691953425412066,80.64232402827474 44.57940710056573,83.72328488895437 44.81450503633823,85.03874224700849 44.05043674563058,87.6350237247243 44.256147439125925,88.36197874700883 43.021883277455345,90.71591696096584 40.523967711953446,92.16981128705083 38.99583113088738,93.76216412673239 38.84889492113143,94.55833756216452 38.31992456607986,94.4891051685845 36.82117522682529,96.11606244251016 35.087327952031046,96.18529448262416 34.44080862926785,97.22377327934373 33.47102964494843,97.53531625834876 28.533972998033278,102.8315002937743 26.418091577943414,103.03919199158554 25.53647431952413,102.62380846074666 23.920176012441516,98.954563752166 22.862235302454792,99.36995206671418 21.36348596320022,96.94684593126294 19.48270247853361,95.8737501835858 13.899126508855261,102.69303908685106 13.693415815127082,104.80456595649594 13.957900992711075,105.66994177855668 15.133390670525841,106.22378107125405 15.192165154381655,109.68525484064594 16.749688977724873,112.73132065328537 16.602752767736092,113.35437598239514 16.48520380014088,112.9736200926709 18.072114865179174,111.79673537545023 19.83534938201774,108.8545045654464 22.27449046354741,108.50835797810578 23.83201428654138,110.37754508224316 25.095665690256283,114.08127232655534 26.036057432647794,115.18892071017763 28.974781627301127,115.81197123409947 31.70779512822628,117.23113732418278 34.82284277456347,116.67731716294657 35.88078348455019,117.57727443613112 36.08649417827837,119.30795435648179 34.96977898431942,123.60000000000582 37.05627316236496,121.35014457328361 38.437473533907905,121.17707811333821 39.99499735701829,121.869343389204 45.28470090730116,118.37338836697745 48.39974855363835,115.32737648746115 49.751561683253385,114.91200897525414 50.13359582843259,111.139062610775 53.16048174898606,111.45059198437957 54.30658418487292,110.13524366877391 52.83722208754625,100.65072929376038 51.25031102250796,96.66991834231885 52.60212415200658,94.80065082153305 52.69028587790672,93.83139667837531 50.60379169974476,90.26590070591192 51.63234516768716,85.69646888918942 52.71967311971821,83.06555417296477 53.39557968440931,82.58090961864218" stroke="#4dd2ff" stroke-linecap="round" stroke-linejoin="round" stroke-width="0.5"><title>2025-04-28 5.2km</title><desc>1745795058000</desc></polyline><polyline fill="none" points="93.22845138586126,121.67158546828432 93.36879436240997,123.60000000000582 93.27523237804417,122.71844089013757 92.66707948001567,122.55314821604406 93.34540386626031,122.63579456647858 93.01793692121282,120.0186470587214 94.63188115053345,118.91668213531375 93.5325278347591,118.0351067497977 92.94776543288026,116.8504850010504 92.78403196041472,115.14241599620436 93.55591833090875,114.4812249065144 94.46814767783508,112.607840792567 96.22243488370441,110.624242532067 100.52628616173752,107.7039168626361 102.53786882432178,105.74783086538082 104.08164156542625,104.94886182298069 104.1518130536424,102.13867485182709 106.140005220077,102.68969435908366 107.33292051998433,101.7254094358068 106.09322422801051,93.76303094276227 104.97048041631933,90.70474991668016 106.02305273979437,89.35468619785388 106.06983373186085,88.3627980692545 105.95288125157822,87.67398458626121 104.50267049483955,86.04837734802277 104.90030892810319,82.87979091447778 106.02305273979437,80.39999999999418" stroke="#4dd2ff" stroke-linecap="round" stroke-linejoin="round" stroke-width="0.5"><title>2025-04-27 2.3km</title><desc>1745711220000</desc></polyline><polyline fill="none" points="149.13368049776182,80.47393344014381 150.02009418005036,80.39999999999964 150.58168518847378,80.54786662105653 151.53658557910967,80.58714351797425 151.78509449224657,80.70266337900648 152.70672991026368,81.3218390475813 152.86914124718896,81.57828334733313 153.3642023103821,82.67564490303994 153.37985641514388,82.86738853599309 153.4913919115861,82.98982632946536 153.8220848747369,83.58352404177276 154.09994523430942,83.89307186336009 155.2563922237823,84.89329608570551 155.75928033934906,85.4037848587559 155.86690230960812,85.59319384099399 155.6712260000495,85.75026341463854 155.45402529644343,85.80338962345013 154.74372029274673,86.18219871326073 153.6929385104304,86.57947898904604 153.00220113768592,86.92824794938497 151.8809758839343,87.73894028094765 151.3487363219392,88.24705065241506 151.0532650945097,88.60041110815837 150.7675776825563,89.01381223682256 150.23338135747326,89.88908734897996 150.14728378126165,90.09693098791286 150.1453270181737,90.24472966394751 149.7950664240634,91.16382945608348 149.64830919189262,91.37396976851778 149.4624166978101,91.85659179917457 149.20412396918982,92.34382103257485 148.2003045011661,93.75233521161499 147.81286540825386,94.22566724828357 147.49978331296006,94.66897348723614 147.51348065462662,94.70591525383497 147.60740528321185,94.64126711988501 148.18856392260204,93.85392932332616 148.27661826190888,93.82391293209548 148.35488878573233,93.85623827472955 149.18259957514238,94.39652596317501 149.4624166978101,94.52813240934483 151.12370856594498,95.546322990298 156.80027830618928,99.73401044163074 157.48514538964082,100.30184682861909 159.7628176328799,101.7652247629776 160.5474796342096,102.10681890834167 161.42997979030042,102.33993066331641 161.93873819514556,102.39070714031914 163.21259097036818,102.75767896217803 163.47479722517164,102.8038384887841 163.50023514540953,102.76921885327647 164.23402130625618,103.01847896367508 164.79169878848188,103.30004703528357 165.2378407742799,103.60238234741519 165.27501927308913,103.54930088792389 165.30437071952474,103.5608403469796 165.62136634100898,103.80316753235456 165.6957233386347,103.77547313744253 165.70159362793493,103.74547083535617 166.00684867083328,103.87009550365838 166.16534648158267,104.04318410226551 166.37276336970535,104.08010948660922 166.50190973401186,104.15165223526674 166.55278557449492,104.21396346430993 166.5273476542643,104.18396178436342 166.53713146973314,104.30166043857935 166.61931551974703,104.25781199690755 166.6819319388087,104.27627450974433 167.47833451870247,104.71475445229044 167.5526915163282,104.78629505391291 167.55464827942342,104.75629418592143 167.74836782588682,104.82321914069507 167.94013060924772,104.84398891118508 168.19450981167756,104.92706778915999 168.17494218071806,104.9432219775299 168.48802427601186,105.01014634075545 168.57412185222347,105.07707049221062 168.63282474508742,105.28938019174711 168.68957087484887,105.34476498024014 168.92633920941444,105.33322649460024 169.35487032735546,105.60322540882771 170.7735235716318,106.04860070096038 171.03377306334733,106.17551940391786 170.9398484347621,106.18244222035537 170.7754803347343,106.13859767796566 170.78526415020315,106.11552156652397 170.64633397042053,106.20321065608005 170.3782574263314,106.76164317086295 170.2041055108275,107.02008628653857 169.75796352503676,107.50927353937732 169.57598455715197,107.88769365416374 169.45075171902863,108.02383094229117 169.39009206306946,108.150737794811 169.17093459637545,108.36532401358636 168.85589573797915,108.78064599624668 168.3197426498009,109.27902161433849 168.07906078903034,109.63203057506507 168.0771040259424,109.69663288462834 168.10841223547322,109.69201844048439 184.38085413820954,123.52852294259174 184.4043352953595,123.51930007891497 184.38281090130477,123.54927437118567 184.4239029263117,123.56310864563238 184.41607587392355,123.52852294259174 184.50021668703994,123.60000000000036" stroke="#ffc900" stroke-linecap="round" stroke-linejoin="round" stroke-width="0.5"><title>2025-04-20 36.9km</title><desc>1745145130000</desc></polyline><polyline fill="none" points="24.341307562659495,129.98723014899588 24.01374003768433,129.93360792625754 23.84085717733251,130.1051989362386 23.458695064880885,130.1051989362386 23.695271610689815,129.9765057067998 23.731668002321385,129.76201661741652 23.404100477404427,129.34376154969505 23.458695064880885,129.16144468229322 23.322208596160635,129.36521057071513 23.5860824357369,129.68694532576046 24.086532821005676,129.65477189756348 23.950046352343634,130.21244316561206 23.340406791947316,130.29823846511863 22.58518166502472,129.9550568188497 22.785361819143873,128.98985202824406 23.131127539963927,128.40000000000146 24.1957219960168,128.60376746366092 24.778064262645785,129.52607807960158 23.695271610689815,130.71648947986978 23.149325735750608,130.87735478188551 23.203920323227067,131.05966847324453 23.003740169107914,130.84518174249388 22.34860511921579,130.74866256128007 22.394100608769804,131.145463034758 22.949145581631456,132.02485298204556 23.740767100302037,134.68442358433094 24.09563191892812,135.24206637874886 34.97815302584786,138.716538839828 35.95175650285091,138.85594412864157 36.71608072769595,138.7701562819202 36.91626088187331,139.03824305481248 38.37211654835846,142.37318152993976 40.619593733455986,150.3615622710713 44.48671034752624,160.38633198181196 45.651394880726,164.40667511580978 45.53310660785064,164.7175748218433 42.3211250436143,165.75747361122194 42.47580970823765,166.4757478137617 45.305629159964155,171.36416160328372 45.2328363765846,171.59999999999854 44.99625983077567,171.2140823298687" stroke="#4dd2ff" stroke-linecap="round" stroke-linejoin="round" stroke-width="0.5"><title>2025-04-16 7.1km</title><desc>1744770713000</desc></polyline><polyline fill="none" points="85.72903225803748,135.5875918249949 85.41935483831912,136.7588517089025 86.39999999990687,138.38559686104418 85.2645161289256,139.62191953198635 86.24516129004769,139.68698905894416 111.79354838677682,163.63198307043058 112.72258064500056,162.78612024654285 112.0,161.81012284991448 112.87741935485974,159.4677210949303 114.68387096747756,158.29651598093915 113.2387096772436,164.15251330684987 116.12903225794435,165.0634398778784 118.19354838714935,160.76905679819174 118.60645161289722,161.2245234704169 118.55483870953321,158.81705193588277 120.56774193537422,158.81705193588277 120.30967741901986,157.19037522390136 121.5999999998603,157.32050956136663 120.36129032238387,168.1215380129579 120.98064516135491,168.38180079471203 120.05161290313117,169.68311261222698 120.67096774186939,168.1215380129579 119.79354838677682,166.42982653088984 118.70967741915956,168.0564722956915 116.85161290317774,167.21061717782868 112.77419354813173,167.53594624367543 103.27741935476661,158.03624779410893 102.03870967729017,158.42665002204012 102.96774193528108,157.64584525238024 93.10967741906643,148.40622682467801 88.98064516112208,149.57745579149923 87.1741935480386,147.88567971042357 87.27741935476661,146.8445838080661 86.76129032229073,148.53636351588648 84.85161290294491,149.3171829318162 83.45806451607496,149.12197819561698 83.20000000018626,148.2110217223235 82.32258064486086,150.61854583508102 81.961290322477,149.83772851145477 80.10322580649517,150.55347777277348 81.23870967747644,147.75554284479585 79.69032258051448,145.02266060825787 78.39999999990687,138.25545744923875 79.2258064514026,137.66982966539217 81.13548387098126,138.38559686104418 85.883870967431,136.62871186129632 85.10967741953209,133.70055607013637 83.81935483869165,133.04985238527297 85.05806451616809,132.91971154380008 83.97419354808517,130.31688738774392 85.00645161257125,131.16280676875613 85.16129032243043,133.24506358237704 84.3354838709347,133.8957670054515 84.59354838705622,130.9675947347423" stroke="#4dd2ff" stroke-linecap="round" stroke-linejoin="round" stroke-width="0.5"><title>2025-04-07 2.7km</title><desc>1743986187000</desc></polyline><polyline fill="none" points="167.58564437180758,150.37775639790925 164.37911908631213,150.11121360526886 166.17618270777166,148.86734440599685 168.25513866217807,148.82292041977053 169.77030995092355,147.22365294885822 169.312234910205,146.60171351555618 167.97324632946402,146.82383487565676 162.79347471427172,141.04863114401815 157.93083197367378,141.4484561822901 155.99282218585722,142.33695454100962 154.90048939618282,143.71412229098496 153.38531810743734,142.02598038633005 152.50440456764773,141.75943087870837 151.23588907020167,142.38137939636363 148.13507340941578,139.9824286844232 144.39999999990687,141.98155548336217 146.3732463293709,140.3822550084733 148.5226753668394,139.89357832461246 150.91876019560732,142.1592550597561 152.78629690036178,141.715005940001 154.90048939618282,143.66969761421205 156.1690048938617,142.29252967966022 158.38890701462515,141.40403120190604 163.1458401302807,141.13748119419324 168.818923327839,148.11213582960772 167.97324632946402,148.86734440599685 165.01337683503516,148.9117683863442 162.72300163120963,150.2889088241791 168.92463295254856,150.42218017583946 174.6329526915215,149.04504029176314 176.0424143555574,152.86547879551654 177.16998368664645,153.35413635874284 182.420228384668,153.17644278271473 187.56476345821284,157.84086759001366 187.5999999998603,158.32951781974407 185.4153344205115,159.26239353144774 182.56117455125786,159.6177740645653 182.3497553016059,160.10642167535843 182.772593800677,159.57335151868756" stroke="#4dd2ff" stroke-linecap="round" stroke-linejoin="round" stroke-width="0.5"><title>2025-04-04 2.7km</title><desc>1743741381000</desc></polyline><polyline fill="none" points="51.96757097693626,196.40137838301598 49.8827841153834,197.7584506420535 49.169567557633854,197.56458355553332 48.45635099976789,198.6631620414264 46.426426950492896,199.24476077355212 46.04238726547919,198.85702841178863 46.97505507199094,197.27378268892062 46.59101538686082,196.82142522014328 42.80548134900164,197.53227236223756 41.488773857592605,197.3707163426734 40.007477929699235,196.3044444132247 39.04737871710677,194.17188908642856 39.211967153591104,193.622592056141 40.99500854825601,192.8794238708797 40.74812589364592,190.00366861454677 39.51371262036264,188.64656097081024 37.51121997705195,188.32343919065897 36.715709201060236,189.51898802412325 36.00249264319427,189.09893087347155 33.34164625417907,192.6532418806746 31.009976738132536,194.6888736001274 30.241897368221544,194.91505404227064 28.403993161278777,194.43038145572064 27.60848238528706,192.39474796701688 27.16957988811191,196.4660010119551 27.910227852058597,198.501606636215 27.38903113664128,198.0815621720103 27.416462542722,197.33840512830648 28.10224769450724,197.30609391030157 29.501249404158443,198.40467335100402 29.77556346496567,199.3093827847042 31.860350326402113,200.7956851660274 30.955113926087506,201.3772797283891 31.147133768419735,201.8942517178075 27.49875676096417,202.89588239067234 26.922697233385406,201.5065228099411 25.16708724491764,199.5032487338467 25.057361620594747,191.94238307743217 23.219457413768396,192.23318915680284 21.57357304939069,190.8760916867759 20.64090524299536,191.13458692035056 22.807986322557554,188.09725373546826 24.673321935581043,189.06661876034923 26.0174608330708,191.32845819814247 27.882796445977874,189.8097964731278 30.159603149979375,189.55130008800188 32.134664387092926,187.45100863021798 32.930175163201056,187.3217594406451 33.23192062997259,188.1941903801344 32.73815532075241,186.70782502315706 33.2593520359369,186.12620177434292 32.29925282357726,186.25545148344827 32.16209579317365,186.83707447955385 31.7231932959985,186.32007631700253 32.95760656928178,185.6415148647211 31.311722204904072,186.4170135409513 31.42144782934338,186.96632387975114 31.860350326402113,186.70782502315706 32.6009982903488,187.09557322377805 30.324191586463712,189.45436388568487 27.82793363381643,189.8744205343246 26.20948067563586,191.32845819814247 24.536164905293845,189.00199452365632 22.56110366806388,188.12956595394644 20.503748212591745,191.39308192936005 17.70574479328934,194.39806992182275 17.678313387325034,197.17684900344466 18.7755696302047,197.69382829393726 18.7755696302047,198.82471735891886 16.965096829342656,198.7600952423818 15.730683556059375,195.72283993154997 16.032429022947326,196.82142522014328 15.758114962256514,197.9846287498949 15.37407527724281,198.4369844495668 14.468838876928203,198.11387330573052 13.865347943268716,200.3756439415738 14.633427313179709,204.67296076723142 15.81297777441796,205.9330644555448 16.553625738364644,207.9039851608104 16.361605895799585,209.71334349134122 15.23691824695561,210.58570875396254 14.935172779951245,209.6164138597669 15.18205543467775,209.26100494049024 15.867840586346574,209.68103361764224 15.18205543467775,210.94111609036918 16.30674308363814,212.4919794985326 16.965096829342656,216.4337209360092 21.60100445547141,219.17998532817 25.496264117769897,219.60000000000582 26.977560045546852,219.47076477948576 30.927682519890368,217.0152849232545 36.5511207645759,218.30764526882558 37.86782825598493,217.79070180436247 41.59849948179908,213.07355119197746 41.049871360417455,212.0719547906192 38.9650844988646,211.71654880515416 38.49875059572514,211.16728417441482 38.004985286388546,208.64711580704898 40.501243238919415,206.99930186840356 41.379048233269714,205.1576166637824 42.531167288310826,204.3498563976318 42.14712760329712,202.7666399127338 40.47381183295511,201.66807658298058 41.13216557877604,198.04925103473943 41.87281354260631,197.27378268892062 43.98503181012347,197.07991528647835 47.13964350835886,195.78746270781267 48.26433115731925,196.14288772686268 48.95011630898807,197.40302755354787 49.74562708521262,197.62920593167655 52.6533561287215,195.59359433673671 54.13465205661487,195.20585721512907 53.86033799604047,192.5239949518873 52.461336286272854,188.64656097081024 53.69574955943972,187.3217594406451 53.86033799604047,186.0938893382845 51.80298254056834,183.18575571561814 52.269316443707794,180.27759365458041 53.9152008080855,176.39999999999418" stroke="#4dd2ff" stroke-linecap="round" stroke-linejoin="round" stroke-width="0.5"><title>2025-04-01 8.4km</title><desc>1743465137000</desc></polyline><polyline fill="none" points="91.83551642135717,191.13323389505967 90.92835157969967,190.80028272542404 92.53333553066477,190.55056924914243 93.71962801623158,191.88237347407266 94.69657476968132,188.96904859063216 93.85919183841906,187.55400090047624 89.18380380631424,186.47190376592334 87.43925603292882,181.72730517404852 84.08972430834547,182.89264802268008 82.97321373340674,180.39548250834923 91.34704304486513,176.39999999996508 90.30031438125297,177.56535131362034 92.88224508543499,179.14689656283008 89.32336762780324,180.64519944245694 93.44050037278794,179.06365742412163 105.9314624289982,199.54020083718933 110.0485951739829,197.7922255465528 111.09532383782789,198.45812138658948 113.04921734379604,201.87082807777915 111.93270676909015,200.4558052791399 110.39750472875312,202.61995668924646 112.7700897003524,200.78875206562225 113.39812689856626,201.45464518514927 110.88597810501233,201.62111837038537 115.84049378125928,208.03030727797886 110.53706855047494,210.194436338963 111.16510574892163,213.5238531953073 113.11899925488979,213.35738271125592 112.83987161121331,214.18973475293024 105.37320714164525,214.3562050476903 105.442989052739,213.19091218948597 106.41993580525741,214.3562050476903 105.72211669618264,212.94120633631246 108.44361122255214,216.02090591937304 114.02616409654729,216.18737579882145 112.97943543293513,216.18737579882145 114.30529174068943,213.94002923945663 114.16572791850194,209.9447294654674 115.7009299590718,210.6938498307718 117.02678626659326,212.19208826625254 116.67787671205588,213.60708842310123 113.81681836419739,212.7747357201879 108.93208459904417,216.10414086392848 111.58379721455276,216.2706107244594 115.77071186993271,219.59999999997672" stroke="#4dd2ff" stroke-linecap="round" stroke-linejoin="round" stroke-width="0.5"><title>2025-03-30 2.1km</title><desc>1743318651000</desc></polyline><polyline fill="none" points="178.49413956096396,177.5922483113245 178.31775170844048,176.39999999996508 174.73119870503433,177.7325126673677 174.9663825086318,179.27541848208057 171.32103355415165,180.0468699449557 171.4386254560668,182.22095524996985 169.43956312630326,183.27292926475639 169.43956312630326,184.25477006280562 168.85160361765884,183.69371836917708 168.7340117157437,184.95608396356693 168.14605220709927,181.80016514257295 168.67521576490253,182.43135019612964 167.67568460013717,183.06253460486187 159.9734150355216,184.0443757373141 160.73776239692234,184.18463862891076 160.67896644608118,186.70936523366254 158.67990411631763,185.86779084481532 154.2702078006696,186.70936523366254 154.15261589898728,188.74316527554765 156.6220458354801,188.4626415297389 158.20953650935553,196.31725828076014 157.91555675468408,194.63413452351233 158.97388387052342,193.72244057437638 154.44659565319307,195.33543664618628 153.5646563898772,196.87829851469724 153.50586043903604,195.1951762852841 157.44518914772198,193.72244057437638 159.09147577220574,195.1951762852841 158.20953650935553,196.10686806187732 159.38545552664436,213.56901252031093 159.62063933024183,216.0234912702581 161.03174215112813,217.07540775078814 157.85676080407575,217.49617384182056 157.85676080407575,219.59999999997672 156.85722963907756,218.7584703959874" stroke="#4dd2ff" stroke-linecap="round" stroke-linejoin="round" stroke-width="0.5"><title>2025-03-30 1.4km</title><desc>1743309591000</desc></polyline><polyline fill="none" points="40.88441322487779,230.44101103732828 40.542523629032075,232.8207735272008 42.28305248043034,234.68796002154704 42.718184693250805,236.22563524794532 42.53169945930131,237.32397039944772 41.31954543781467,238.75180074429954 43.184397778473794,245.85425153680262 42.127648118766956,246.6596746504947 41.10197933122981,246.4034038685204 40.418200139538385,247.53831585193984 38.80199477763381,248.5633943582652 37.43443639436737,248.70983389031608 36.62633371329866,250.1376159931533 39.85874443734065,253.50569339850335 40.13847228838131,257.75235171534587 37.71416424540803,259.0702692781342 35.75606928765774,261.1569615462213 29.229086094768718,265.7329958496848 28.607468647882342,266.90445064293453 28.265579051920213,265.3303073241259 26.49396932835225,264.8910102020891 24.193984774523415,267.6000000000058 23.883176051080227,266.79462692906964 25.312896179035306,262.69451600286993 24.939925710787065,261.1569615462213 27.706123349722475,259.39974786370294 28.70071126485709,257.23982682675705 30.09935052052606,256.3612109187816 29.44665220112074,255.70224748470355 30.09935052052606,256.10494751424994 31.342585414415225,258.15504929519375 35.25877533003222,255.73885659818188 35.97363539412618,255.9585111955239 35.94255452172365,255.22632864760817 36.035797138814814,255.8852930123394 35.41417969181202,255.51920185770723 35.47634143650066,254.45753526021144 34.82364311721176,254.34770749043673 35.16553271305747,253.6155214428727 33.95337869145442,252.18775407469366 34.20202567009255,251.60200160980457 35.97363539412618,251.34573458618252 36.28444411745295,249.9911770815379 37.18578941561282,249.0759324420651 36.78173807496205,248.08746543951565 39.9209061821457,250.24744513520272 40.7290088632144,250.21083542512497 42.25197160826065,251.67522072358406 42.842508182744496,253.2128184385656 43.61952999141067,252.81011495317216 44.11682394891977,251.38234417294734 42.842508182744496,243.69424368240288 41.00873671437148,238.8250226500968 42.53169945930131,237.32397039944772 42.74926556565333,235.53002113374532 40.60468537372071,232.49126895412337 40.94657496945001,228.90330941276625 43.33980214013718,224.39999999999418" stroke="#4dd2ff" stroke-linecap="round" stroke-linejoin="round" stroke-width="0.5"><title>2025-03-26 3.9km</title><desc>1742943197000</desc></polyline><polyline fill="none" points="99.19904227077495,226.2905877099838 99.0135573229636,225.59405768176657 99.82294618623564,225.67366124854016 99.90725752612343,225.17613838470425 99.08100639487384,224.40000000000873 98.91238371504005,224.77811911390745 98.50768928340403,224.658713162833 96.68656434101285,227.62393775361124 96.68656434101285,228.06175205456384 96.48421712516574,227.98214953277784 96.33245671336772,228.95727802473994 95.53993011807324,230.5493133093696 95.67482826195192,231.04682147871063 97.63085134822177,232.20103519200347 99.06414412695449,233.5144418895943 98.84493464307161,234.0517418966192 98.60886289132759,233.7731420910277 98.62572515930515,234.8875387536973 98.30534206761513,235.40493488388893 98.84493464307161,235.7432315581973 98.82807237509405,236.5989203382196 98.38965340750292,236.9173151360592 98.1535816557589,236.67851908993907 97.91750990395667,237.4148058922001 97.39477959636133,237.27550861756026 97.22615691658575,237.63370139390463 97.39477959636133,237.45460509393888 98.76062330318382,238.7281749525282 99.60373670241097,239.00676717078022 99.67118577437941,240.37982258590637 100.22764061787166,240.20072898894432 101.49231071671238,240.8176061919512 102.50404679577332,242.72792232839856 102.30169957992621,242.86721542883606 102.45345999184065,242.74782134925772 103.3808847310138,244.18054513340758 103.97106411040295,244.3397359685623 104.05537545040715,244.63821840922174 103.66754328669049,246.98626320029143 104.46006988198496,248.35925840435084 103.81930369854672,249.2546844780445 102.94246576342266,254.66694383425056 103.06050163926557,255.28377199907845 101.9813164882944,255.5822364895139 102.47032225987641,255.34346493626072 102.2679750440293,255.1245907373377 101.18878989299992,255.78121254459256 100.44685010169633,254.6470461167337 101.22251442901324,255.46285075202468 101.10447855305392,256.69649959578237 101.57662205660017,256.09957378014224 100.88526906928746,256.238856645592 101.49231071671238,256.17916400202375 101.20565216097748,255.46285075202468 100.39626329770545,254.78633009384794 100.73350865743123,255.16438606580778 100.497436905629,254.9057162751269 100.91899360524258,256.0398810908955 100.90213133720681,257.11434650181036 98.49082701548468,262.685546915076 98.60886289132759,263.26255435479106 103.296573391126,264.53594361103023 103.07736390724313,266.22714994390844 102.80756761948578,266.16746057610726 102.75698081561131,266.66487137602235 102.30169957992621,266.6250785621087 102.04876556020463,267.6000000000058" stroke="#4dd2ff" stroke-linecap="round" stroke-linejoin="round" stroke-width="0.5"><title>2025-03-24 3.9km</title><desc>1742796232000</desc></polyline><polyline fill="none" points="176.48476281737385,267.5969553794075 176.57260952406796,267.60000000000036 176.62428405742685,267.4721256498178 176.55969089074642,267.5391075251737 176.5622746174049,267.4051436141308 176.4873465440469,267.4173221779947 176.7431354841392,267.3533846585706 176.7663890241529,267.3077149123874 176.68112604411726,267.1615712237326 176.73021685080312,267.08240974036926 176.63203523741686,266.9971586616757 176.72246567079856,266.7718509891529 176.65528877743054,266.753582719979 176.714714490794,266.6165703210172 176.59586306408164,266.49173621787486 176.40208356401126,266.55263097191164 176.39691611067974,266.49782569924537 176.44083946401952,266.52522834899537 176.45117437069712,266.4673782791524 176.59586306408164,266.43693082594655 176.45634182402864,266.4795572511721 176.5131838107336,266.4734677658198 176.46667673070624,266.3394987530028 160.05484493769472,224.59210734730368 160.01867276434496,224.6165018363463 160.05226121103624,224.66834005468627 160.13752419107186,224.6043045944989 160.1478590977349,224.6408963040485 160.3080501511431,224.5860087217079 160.33647114447376,224.67138935864932 160.27704543112486,224.42744398781724 160.28479661112942,224.47013458182846 160.41139921784634,224.39999999999964 160.53283437121718,224.40609866629347 160.62326480458432,224.51892375206626 160.69560915128386,224.53417035024904 160.60001126457064,224.5585648900069 160.55092045789934,224.4609866029041 160.61292989792128,224.47013458182846 160.57417399791302,224.47928255774968 160.55092045789934,224.54026898719167 160.00317040435039,224.7049316801731 160.16336145774403,225.4184587765758 160.02384021769103,225.46724628700395 159.97733313767822,225.5495750172413 159.83006071762065,225.57396866839372 159.81714208427002,225.69593660396458 159.82747699094762,225.74472362878078 159.9799168643367,225.72642850447482 160.02642394434952,225.81485482736753 159.97733313767822,225.6593462793262 159.97216568433214,225.7386252553515 159.8920701576426,225.75387118642902 159.65695103089092,225.72033012705106 159.41666445079318,225.78741220544725 159.4218319041247,225.7294776926974 159.41666445079318,225.82095318412757 158.86891439724423,226.07403381304357 158.8534120372351,226.24478571047075 158.66479999049625,226.33930863253408 158.3935086903948,225.78741220544725 158.29274335035007,225.83619907017965 158.21264782366052,225.81485482736753 158.2539874503418,225.84534659780365 158.2359013636742,225.72337931593938 158.14030347696098,225.58921468952394 158.18681055698835,225.56482105171017 158.04987304357928,225.4794431512728 158.00078223690798,225.35137581031086 158.03695441025775,225.31173579981623 157.86901217685954,225.18671693596661 157.7656631101563,225.24160333548207 157.44269727669598,225.13487968163645 157.16623852326302,225.00986002459103 157.02154982986394,224.96717025718135 156.8587750498118,224.7750654947631 156.52547430965933,224.5799100947752 156.39887170297152,224.59820597156795 156.11982922285097,224.909234039691 155.9027961827669,224.92143114811552 155.90021245609387,224.96107171363292 155.77102612271847,224.97936734024552 155.4377253825951,224.84824841751652 155.4428928359266,224.72322747490944 155.2336109758471,224.59210734730368" stroke="#4dd2ff" stroke-linecap="round" stroke-linejoin="round" stroke-width="0.5"><title>2025-03-24 4.7km</title><desc>1742777725000</desc></polyline></svg>