<?xml version="1.0" encoding="utf-8" ?>
<svg baseProfile="full" height="300mm" version="1.1" viewBox="0,0,200,300" width="200mm" xmlns="http://www.w3.org/2000/svg" xmlns:ev="http://www.w3.org/2001/xml-events" xmlns:xlink="http://www.w3.org/1999/xlink"><defs /><rect fill="#222222" height="300" width="200" x="0" y="0" /><text fill="#FFFFFF" style="font-size:12px; font-family:Arial; font-weight:bold;" x="10" y="20">Over 1km Runs</text><text fill="#FFFFFF" style="font-size:4px; font-family:Arial" x="10" y="280">ATHLETE</text><text fill="#FFFFFF" style="font-size:9px; font-family:Arial" x="10" y="290">Tao</text><text fill="#FFFFFF" style="font-size:4px; font-family:Arial" x="65" y="280">SPECIAL TRACKS</text><rect fill="yellow" height="2.6" width="2.6" x="65" y="283" /><text fill="#FFFFFF" style="font-size:3px; font-family:Arial" x="70" y="285.5">Over 20.0 km</text><rect fill="red" height="2.6" width="2.6" x="65" y="287" /><text fill="#FFFFFF" style="font-size:3px; font-family:Arial" x="70" y="289.5">Over 40.0 km</text><text fill="#FFFFFF" style="font-size:4px; font-family:Arial" x="120" y="280">STATISTICS</text><text fill="#FFFFFF" style="font-size:3px; font-family:Arial" x="120" y="285">Number: 29</text><text fill="#FFFFFF" style="font-size:3px; font-family:Arial" x="120" y="290">Weekly: 2.1</text><text fill="#FFFFFF" style="font-size:3px; font-family:Arial" x="141" y="285">Total: 366.8 km</text><text fill="#FFFFFF" style="font-size:3px; font-family:Arial" x="141" y="290">Avg: 12.6 km</text><text fill="#FFFFFF" style="font-size:3px; font-family:Arial" x="167" y="285">Min: 1.4 km</text><text fill="#FFFFFF" style="font-size:3px; font-family:Arial" x="167" y="290">Max: 98.8 km</text><polyline fill="none" points="28.58931731339544,31.80000000000291 29.046697914833203,32.02833452347841 29.5744447625475,33.00394257616426 28.466176382265985,36.01376561928191 28.958740106900223,38.089477852525306 29.926275994395837,39.2311099091894 30.928995005320758,39.604733455285896 31.615065907360986,40.663329510280164 32.01967182406224,41.43132687617617 31.949305577669293,42.28234735649312 32.61778491816949,42.801260411855765 32.45946086384356,44.0258896004525 32.195587439928204,44.52404158707941 31.157685305923223,45.06370476470329 30.823445635731332,44.79387336758373 31.052135936450213,45.084461010133964 30.629938458208926,45.06370476470329 30.61234689655248,44.79387336758373 29.855909748119302,46.91100172472943 29.468895392958075,46.744953294764855 29.187430407619104,45.54109783573949 29.380937585025094,45.66563496127492 29.34575446182862,45.45807304000482 29.24020509235561,45.852440496426425 29.081881038029678,45.72790349338902 28.958740106900223,46.51663646653469 28.466176382265985,46.5581486375595 28.60690887493547,47.533682043955196 28.37821857421659,47.845021437926334 26.619062414974906,47.450658119356376 26.72461178456433,47.16007409739541 26.619062414974906,47.409146143414546 26.126498690340668,47.367634158435976 23.804412560071796,46.744953294764855 23.38221508183051,45.58261022005172 23.822004121611826,45.52034164019278 23.593313820892945,45.52034164019278 23.716454752138816,45.27126711694291 24.49048346222844,44.274965757125756 26.40796367591247,44.10891502229788 26.935710523626767,43.54849272037973 28.81800761411432,43.27865917033341 30.805854074074887,43.69378755004436 30.805854074074887,44.067402315937215 29.117064161226153,45.084461010133964 28.712458244524896,46.2675632499886 28.976331668440253,48.01106890608207 30.788262512534857,48.21862803706608 31.298417798709124,48.77903655759292 31.016952813253738,50.10740570453345 30.13737473357469,49.96211578164366 29.767951940069906,50.19042846772936 29.205021969159134,51.76785407269199 29.539261639351025,51.78860958547739 28.800416052457877,52.847137727367226 26.53110460692551,53.26224519223615 24.613624393357895,54.94342114715255 23.663680067285895,55.233993260742864 24.455300339031965,56.0434418044897 24.50807502376847,59.42648427831591 25.950583074474707,60.27742412798398 25.70430121209938,63.141535125498194 27.604189864126965,63.47360317206767 27.63937298732344,64.11698336026166 27.832880164845847,63.390586214794894 27.762513918452896,63.86793322334415 28.061570465564728,64.07547502676607 28.026387342368253,63.847179030490224 27.780105479992926,64.1792458435084 28.026387342368253,63.97170415338769 27.815288603305817,64.19999999999709 27.832880164845847,63.88868741389888 27.780105479992926,64.1792458435084 27.956021096091717,64.05472085664223" stroke="#4dd2ff" stroke-linecap="round" stroke-linejoin="round" stroke-width="0.5"><title>2025-08-08 3.6km</title><desc>1754628467000</desc></polyline><polyline fill="none" points="71.82712765951874,48.30335145077697 71.475265957386,48.21281822466699 71.41781914888998,47.62434929785377 71.22393617019407,47.61529588972917 70.66382978719776,48.1584982307686 70.41249999994761,48.846548259643896 69.93138297868427,49.462166030018125 69.75904255316709,49.507431821140926 69.09840425528819,49.25394300017069 68.15053191487095,49.389740701109986 67.63351063826121,49.941981872936594 67.99255319146323,50.62096073348948 67.98537234039395,50.8291795503028 67.46117021274404,50.95592112460872 67.19547872341354,50.91065630393132 66.74308510636911,50.55758966189751 66.78617021272657,50.27694563027035 66.11835106377839,47.696776519325795 67.23138297870173,47.09924962015066 67.63351063826121,46.51982454951212 67.99255319146323,46.34780677496019 66.53484042550554,47.21694473038224 64.96223404255579,47.67866972120828 55.059840425499715,45.7502679442041 54.64335106383078,45.560140844208945 49.35824468082865,45.723106962694146 48.84840425531729,45.641623952571535 48.25957446807297,45.74121428492799 48.0513297872385,45.723106962694146 48.108776595734525,45.49676502528018 48.159042553190375,45.84985811638035 48.072872340417234,45.47865763754089 48.159042553190375,46.1214669306064 48.0513297872385,45.460550244912156 48.09441489362507,45.7502679442041 48.00824468085193,45.723106962694146 48.03696808512905,45.57824821010581 48.13750000001164,45.61446292736946 48.00824468085193,45.83175082326488 48.12313829787308,45.60540924988891 48.20212765954784,46.03093078053644 48.08723404252669,45.88607268802298 48.015425531892106,45.97660903225187 48.09441489362507,45.659731296647806 48.46781914893654,45.686892303667264 48.439095744659426,45.9313408753078 47.79999999998836,45.98566266000125 47.79999999998836,45.85891176109726 49.39414893614594,45.76837525914016 54.77978723400156,45.71405329975096 56.3236702127615,46.37496750531864 65.93164893612266,47.68772312087094 68.8327127659577,46.01282353595889 72.75345744678634,45.89512632791593 74.54148936169804,45.044078875398554 75.56835106379003,46.23916374431428 77.54308510635747,47.80541720591282 76.49468085099943,47.108303097469616 76.44441489357268,47.51570832010475 76.02792553187464,47.87784423325502 76.04946808508248,47.96837790821883 76.86808510634,47.93216445277358 77.7297872340132,48.92802740428306 78.2252659574151,49.24488981041213 78.23962765952456,49.11814502627385 78.2252659574151,49.30826211330714 77.90212765955948,49.48932550832251 77.40664893615758,49.55269758193754 77.12659574465943,49.779025931034994 78.08164893614594,49.80618528198829 79.11569148930721,49.498378665331984 79.53218085103435,50.213574235989654 79.86249999998836,50.17736198398052 79.90558510637493,49.96008806442842 80.19999999998254,50.06872511155234" stroke="#4dd2ff" stroke-linecap="round" stroke-linejoin="round" stroke-width="0.5"><title>2025-08-03 10.0km</title><desc>1754211931000</desc></polyline><polyline fill="none" points="112.17129977466539,61.341567998810206 112.80420736293308,60.83978556598595 113.41277235164307,60.596061981632374 113.89962434268091,60.65340874787944 114.08219383924734,60.323664501687745 114.6177310293424,60.16596044051403 114.11870773858391,59.033353009450366 114.25259203603491,58.617583285304136 114.77595792635111,58.25916005796171 114.78812922618818,57.77170290633512 113.92396694218041,56.45269217334862 113.97265214135405,55.63547238674073 114.80030052590882,53.255470138567034 114.97069872281281,53.255470138567034 114.88549962436082,52.638956531562144 115.45755071379244,51.86472606091411 115.76183320814744,50.78939842582622 116.20000000001164,50.35926491783175 113.42494365142193,47.41998174735636 113.047633358452,47.233585972426226 112.18347107438603,47.462996119531454 108.7268219384714,47.592039152033976 102.71419984975364,46.631382438281435 101.99609316303395,46.21557363180909 100.13388429750921,44.16518690405064 97.94305033812998,44.71004802464449 97.18842975213192,42.58794465845858 95.99564237415325,43.37656813846843 93.08670172805432,44.66703275486361 91.29752066120273,46.20123537375184 89.47182569495635,44.91078576495056 87.09842223895248,42.65963789691159 83.79999999998836,37.081787533694296 87.5365890308749,34.658432001189794 88.35206611570902,35.92030315984448 88.14515401958488,35.94898190948879 87.76784372655675,35.3180479764269 88.20601051842095,35.96332128200447 87.68264462810475,36.56557351908123 87.75567242677789,36.823680778892594 87.54876033059554,36.99575200489198 87.70698722766247,36.95273421941965" stroke="#4dd2ff" stroke-linecap="round" stroke-linejoin="round" stroke-width="0.5"><title>2025-06-26 5.0km</title><desc>1750894720000</desc></polyline><polyline fill="none" points="131.57658247533254,64.16520574666356 131.70212187085417,64.19999999999709 131.4658124205016,63.96513849658368 131.26642632170115,63.92164554997726 130.86765412415843,63.112672436276625 130.93411615709192,62.75602577917016 131.53965912372223,62.22540220267547 133.16428659521625,61.41641194876138 133.55567412241362,60.82488701917464 133.19382527651032,59.754911704862025 133.30459533137036,58.798011098391726 133.0535165403271,58.38915007868491 133.00920851837145,57.475729618141486 132.66212901312974,56.74498574496829 132.35935752978548,55.553162972086284 132.0196626948309,55.44876889121224 131.78335324444924,54.23952753139747 131.89412329930929,53.95243876957829 131.08180956359138,50.47249309493782 131.13350225586328,50.34199218850699 131.44365840949467,50.31589198168513 135.12860890166485,50.289791766357666 135.3944570333697,50.13319029559352 136.0147693406907,48.3757527735288 136.45784956018906,47.56662252311071 135.4461497256416,46.47036848721473 133.87321494639036,45.46110546154523 133.83629159478005,45.330596382176736 141.13234587584157,32.705011627593194 140.87388241448207,32.51356771423889 138.38524851496913,31.799999999995634 136.9304684609524,32.14808260711288 137.02646917517995,32.792031436743855 136.50954225243186,33.01828249741084 135.91876862643403,33.02698444851558" stroke="#4dd2ff" stroke-linecap="round" stroke-linejoin="round" stroke-width="0.5"><title>2025-06-08 6.1km</title><desc>1749378939000</desc></polyline><polyline fill="none" points="163.11360946740024,49.6609447660594 162.92899408281664,49.687798599850794 162.70177514787065,49.99214129493339 162.68757396447472,50.84250324204186 162.5242603549559,51.370617319393205 162.35384615382645,51.46907880434446 162.19053254433675,51.836070333716634 161.5443786981923,52.050893708314106 161.35266272185254,52.49844018713338 160.37278106503072,52.87437691280502 159.84023668634472,52.89227860890969 159.4355029585422,53.28611470940086 159.11597633134807,53.32191787617194 158.40591715971823,53.69784996895032 158.48402366859955,53.769455842084426 158.3491124260181,53.59939176814078 158.07218934906996,53.91266735816316 158.03668639049283,54.145385417097714 157.82366863903007,53.769455842084426 156.78698224847903,54.04692787568638 156.87218934908742,53.832110918119724 157.13491124258144,53.94847018919245 156.8153846153582,53.90371664738632 156.76568047332694,54.073779946811555 157.15621301773353,54.26174414266279 157.23431952661485,54.41390524727467 157.12781065085437,54.6555721718687 157.04970414197305,54.36020136756997 156.34674556207028,54.26174414266279 156.6094674555934,53.23240992328647 156.48165680470993,53.20555751405482 156.0769230768783,53.63519476703368 155.79999999998836,54.19013879705744 155.9136094674177,55.41636974638823 156.06982248515124,55.854943235899555 155.90650887571974,55.75648821329378 156.02721893487615,55.64908256867784 156.11242603545543,55.738587284511595 155.84260355029255,54.77193000904663 156.02721893487615,54.807732379726076 156.02011834317818,54.404954603654915 156.1621301774867,54.440757170952566 156.15502958575962,54.27964546707517 157.07810650885222,54.34230006473808 157.15621301773353,54.66452278193174 157.22011834316072,54.39600395884918 156.8153846153582,54.04692787568638 157.8591715976072,53.78735729840264 158.03668639049283,54.18118812348257 158.065088757372,53.90371664738632 158.34201183429104,53.61729326999921 158.39881656799116,53.706800707303046 158.67573964496842,53.63519476703368 159.07337278104387,53.33981945235428 159.40710059169214,53.23240992328647 159.4355029585422,53.31296708629088 159.79763313604053,52.91913114404451 161.12544378696475,52.68640881435567 161.57278106507147,52.077746581584506 162.28994082837016,51.6928543669419 162.25443786979304,50.57396905951464 162.59526627216837,50.35018974964623 162.80828402363113,49.79521382699022 163.1207100591273,49.490870234898466 163.41183431950049,48.64049108508334 163.31952662716503,47.64687647231767 163.47573964492767,47.40518419701402 162.80828402363113,42.51744166476419 162.78698224847903,41.69383079409454 162.96449704139377,40.93287694290484 164.33491124256398,41.344688338576816 165.3147928993858,41.88182982202852 173.29585798812332,42.78600823146553 174.33964497037232,42.454775977173995 176.6189349112101,41.12087811240781 180.24733727806597,41.02240137532499 181.6106508875091,40.58373051009403 182.34201183426194,40.145056764100445 183.19408284020028,41.13878295807808 184.0532544378657,41.8997344637537 186.4248520710098,43.53798887427547 186.92899408281664,44.146728909276135 187.36213017746923,45.041924766628654 187.3692307691963,44.71965563986305 186.78698224850814,43.68122232273163 188.19999999998254,43.56484516926139" stroke="#4dd2ff" stroke-linecap="round" stroke-linejoin="round" stroke-width="0.5"><title>2025-06-01 8.5km</title><desc>1748768919000</desc></polyline><polyline fill="none" points="23.252849740849342,98.88408296214766 23.02901554404525,98.93111542492989 22.376165803114418,98.3314496361927 21.965803108760156,97.50837227310694 21.863212435215246,96.7675960450797 22.077720207278617,96.03857206406974 23.439378238341305,95.41536934269243 23.579274611372966,95.0273352235381 23.15025906736264,95.35657640464342 22.1989637305378,95.43888650688314 22.23626943002455,95.28602482696442 22.366839378199074,95.46240366477286 22.544041450717486,95.33305921837746 22.41347150254296,94.76864485734404 22.031088082876522,94.20422686561506 21.965803108760156,93.40462849538744 20.576165803067852,93.31055761977768 20.27772020723205,93.09889778095385 20.883937823818997,92.52271007723175 20.725388601014856,91.65254188292602 20.967875647591427,91.31152766918967 21.126424870453775,90.00625412213412 21.368911917030346,89.81810498247796 23.504663212399464,89.43004610756907 24.633160621742718,89.80634564786305 24.96891191706527,89.5358805164069 25.136787564784754,88.98318830716016 25.63108808285324,88.59512573922984 25.910880829032976,88.57160674052284 26.330569948186167,88.9596694125139 26.992746113974135,88.86559377088997 28.410362694296055,88.21882100371295 28.466321243497077,87.97187014386145 28.270466321206186,87.87779344295996 28.410362694296055,87.87779344295996 28.429015544010326,87.48972598540422 29.566839378210716,87.64260124936845 29.604145077697467,87.83075505467423 29.90259067353327,87.65436087403941 29.90259067353327,87.44268738904066 27.412435233127326,87.12517620399012 26.796891191683244,86.88998199269554 24.614507772028446,84.03232195177407 21.53678756474983,82.85630312812282 20.585492227983195,81.29217366347439 20.025906735740136,80.9275981260871 17.414507772016805,81.48034108986758 16.798963730514515,82.12716353966243 16.14611398964189,83.5031154321332 15.399999999965075,83.85592013328278 14.383419689140283,83.82063972699689 15.334715025906917,83.66775780257012 15.446632124308962,83.36199315438716 15.278756476647686,82.92686470215267 14.896373056981247,82.9974262193864 13.917098445584998,82.60933717208536 13.2735751295113,82.67989894474158 13.11502590670716,82.53877534264029 13.087046632135753,81.11576633459481 12.825906735728495,80.91583759967034 12.527461139892694,81.00992176697036 11.949222797935363,80.82175333146006 12.135751295369118,81.42153881247941 11.99585492227925,82.03308057064714 11.855958549189381,80.86879547816352 12.061139896337409,81.13928733229113 11.87461139896186,80.93935865093226 11.958549222792499,81.00992176697036 12.014507771993522,80.62182392638351 11.799999999988358,81.35097602759197 11.99585492227925,81.02168228079972 12.014507771993522,80.16316062828992 12.173056994797662,80.3630910787615 12.005181347136386,80.70414785425965 12.079792746109888,80.9511191742713 11.967875647649635,80.88055601092492 12.089119170967024,80.77471115947264 12.061139896337409,81.00992176697036 12.117098445596639,80.61006335898855 12.014507771993522,80.75119006408931 13.17098445596639,80.93935865093226 13.39481865282869,80.51597876278538 13.57202072540531,79.3634342694495 13.67461139895022,79.4575201018888 13.861139896325767,79.03413306126458 14.402072538854554,79.21054457653372 14.43005181348417,78.94004677468911 14.523316062171943,79.28110908330564 14.383419689140283,78.81067796591378 14.532642487087287,79.23406608509686 15.68911917094374,79.48104154423345 16.519170984451193,77.26999839400378 16.98549222794827,77.42289146942494 16.60310880828183,77.09358297576546 16.593782383424696,76.77603432882461 16.76165803108597,76.63490122780058 17.526424870477058,76.68194562004646 18.169948186550755,76.92892826531897 18.28186528501101,76.38791775458958 17.955440414487384,76.1174112478111 20.147150259057526,76.9054061385541 21.331606217601802,78.54017893089622 24.856994818605017,79.86914443214482 28.317098445550073,82.05660132240155 29.2404145077453,82.82102231981844 36.62694300513249,93.72211695581791 38.66010362689849,95.47416224132758 41.04766839375952,97.17913916605903 41.80310880829347,97.97870314025931 42.176165803102776,98.57837133960857 42.54922279785387,99.76593744428828 42.539896372996736,101.48258875219472 42.42797927459469,99.58956725683674 42.88497409323463,99.47198693494283 42.92227979272138,99.15451927884715 43.45388601033483,99.22506774612702 44.20000000001164,98.9899059679301 43.976165803091135,98.09628546309978 43.659067357482854,98.10804368672689 43.84559585491661,98.42551512895443 43.87357512948802,98.10804368672689 44.022797927376814,98.03749432136101" stroke="#4dd2ff" stroke-linecap="round" stroke-linejoin="round" stroke-width="0.5"><title>2025-05-31 10.5km</title><desc>1748652092000</desc></polyline><polyline fill="none" points="60.28905445840792,101.14646682032253 60.147933994128834,101.1957149032969 59.81865291087888,101.109530730002 59.52073193079559,101.1895588952757 58.804676241765264,100.72170032845679 59.426651621295605,101.16493485645333 60.16361404574127,101.23880694081163 60.388361451769015,101.20802691735662 61.12009719238267,100.70938820875745 62.25951427419204,100.97409819289533 62.583568673580885,100.826353237906 62.62015546063776,101.1895588952757 62.75604924099753,101.45426663696708 62.99647669863771,101.66972551412255 63.1950906853308,101.72512909300349 63.44074482686119,102.66698164896661 63.91114637439023,102.6054231363778 64.35541450258461,103.22716104147548 64.72650905675255,103.44261317996643 64.56970854091924,103.88582643283735 64.10453367725131,104.09512037548848 64.1515738320013,104.93844402082323 64.30837434783462,105.0 64.96693651436362,104.75993130319694 66.06454012525501,103.92276071416563 68.02454657331691,101.97752248936376 68.92876288131811,100.61089115488357 69.11692350031808,100.06915429897708 69.19532375823474,99.3858197435693 69.15351028734585,97.10797838696453 67.77889243178652,94.36829115001092 66.91126291078399,92.91527967044385 66.52971498892293,91.99173605676333 65.1028302947816,90.5448207939371 64.88853625644697,90.20617571517141 64.62197537953034,87.20138162192234 64.87285620486364,86.22232616895053 63.263037575554335,85.50803604221073 62.63583551219199,85.13857209725029 61.4859650626895,84.25184879631342 60.994656779716024,83.43900690817463 60.59220212238142,82.97715972898004 59.4736917760456,82.21972220170937 64.61152201180812,73.30213489192101 64.44426812822348,73.09272715128463 62.93898317613639,72.6184773455825 62.63583551219199,72.59999999999854 61.71071246871725,72.84020502201747 61.71071246871725,73.24670350655288 61.39711143702152,73.44995165420187 60.9842034119647,73.44379263014343 60.388361451769015,73.29597585177544 60.74900263821473,73.41915652721946 60.94761662496603,73.31445297018581 60.81172284457716,73.43147458004387 60.91625652179937,73.34524815412442 60.81694952843827,73.3082939313972 60.790816109103616,73.44379263014343 60.89012310246471,73.38836138348779 60.905803154048044,73.56081397263551 60.72286921890918,73.42531555396636 60.90057647021604,73.41299749981772 60.79604279296473,73.45611067758728 60.90057647021604,73.3267710457585 60.88489641863271,73.49306480382074" stroke="#4dd2ff" stroke-linecap="round" stroke-linejoin="round" stroke-width="0.5"><title>2025-05-27 10.2km</title><desc>1748342410000</desc></polyline><polyline fill="none" points="111.94503523374442,98.56282638690027 110.18078155023977,98.80934619961772 109.14298526581842,100.5103253924608 107.10890454833861,102.1373366855114 106.48622677766252,101.8168657139322 106.52773862902541,102.40850406677055 102.50108904542867,101.8661689706787 100.03113388852216,100.23915567605582 98.08007687376812,99.84472640202148 95.92146060219966,98.68608632773976 93.2854580397252,98.93260600254871 89.217296604882,96.9357887081278 88.38705957727507,96.1222653647419 86.14541960286442,96.56600574245385 83.9660474054981,97.57674437898095 83.80000000004657,97.18231034062046 84.65099295333494,95.4566531231103 85.21140294685028,96.02365627064137 84.11133888538461,97.18231034062046 84.06982703402173,96.02365627064137 84.52645739912987,96.02365627064137 84.33965406788047,95.55526247093803 84.9208199873101,95.48130546417087 85.10762331844307,95.851090249751 86.00012812297791,94.37194738528342 86.76809737354051,94.9389533232461 87.45304292126093,94.47055721834477 87.45304292126093,93.97750761154748 88.11723254318349,93.6816773180617 88.71915438817814,93.6816773180617 88.13798846898135,94.49520966978162 88.71915438817814,93.65702477564628 90.89852658554446,93.63237223050965 96.04599615628831,94.84034369960136 98.43292761046905,95.08686767586914 104.32761050597765,98.48887038935209 105.80128123005852,96.78787559631746 107.06739269697573,96.2208744147938 107.64855861617252,96.61531017372909 109.78641896217596,95.0129105119413 110.82421524671372,95.35804373120482 111.90352338249795,96.2208744147938 112.02805893647019,96.66461459397397 111.57142857136205,97.60139648296172 110.67892376682721,97.9958297714038 110.13926969887689,98.80934619961772 112.31864189612679,98.36561033828184 114.45650224213023,97.42883169732522 114.68481742462609,97.03439739420719 114.66406149906106,97.45348381779331 114.58103779621888,96.14691763142764 116.19999999995343,95.0129105119413 116.19999999995343,94.42125230736565 112.96207559248433,90.57543526237714 108.66559897502884,84.19024465620168 109.03920563741121,82.63706221117172 109.93171044194605,81.2564464033203 110.22229340160266,79.1855064737174 111.34311338874977,76.27629608032294 111.40538116591051,75.29011434910353 110.11851377319545,75.63527845703356 109.43356822547503,75.24080514669186 109.41281229979359,75.56131476517476 109.62037155672442,75.21615054135327 109.5165919282008,75.51200562344457 109.86944266501814,75.65993301554408 111.61294042272493,75.19149593322072 112.23561819340102,75.38873272085038 110.61665598966647,75.24080514669186 109.84868673922028,75.6106238958746" stroke="#4dd2ff" stroke-linecap="round" stroke-linejoin="round" stroke-width="0.5"><title>2025-05-25 4.8km</title><desc>1748150210000</desc></polyline><polyline fill="none" points="141.19518415862694,75.82598421796865 141.05422954959795,75.4701794743014 139.9668654234847,75.3041370621504 135.4965906823054,77.55755902454257 135.57713617314585,78.60124131459452 134.79181763762608,81.70853858921328 134.1675900835544,82.6336032798281 131.0263159411261,84.7920723138377 130.0396336785052,86.04919279608293 131.24781604087912,87.06911541549198 131.63040712242946,88.87175769443274 131.26795241364744,89.60704171862744 130.07990642392542,90.1762921657064 130.82495221414138,91.93147170064913 132.07340732193552,92.83277462719707 131.63040712242946,93.37829827520181 131.3686342772562,94.80139702807355 133.24131693900563,95.27576121778111 132.83858948480338,95.67896996875061 132.15395281277597,95.10973386862315 131.6908162405016,96.3667949429946 132.3553165398771,96.74628365642275 132.79831673949957,97.74243839111296 131.99286183109507,97.95589952862065 131.24781604087912,99.829605002873 129.47581524262205,100.96805110934656 129.67717896972317,101.9404691249947 128.81131494324654,104.78654574856046 129.19390602468047,105.0 130.32154289644677,103.36351207371627 132.41572565794922,103.79042314992694 136.5034093176946,100.87318082722777 137.89281903451774,99.47383937728591 138.98018316086382,99.04691986145917 139.34263786952943,98.45397470468015 139.42318336036988,96.31935880742094 140.9736840588739,96.84115573171584 142.02077543968335,96.15333225183713 141.35627514030784,91.50453743673279 140.91327494068537,91.36222582988557 141.2555932768155,90.7929784750304 140.89313856803346,88.58713095565327 139.9870017961366,86.42869944364065 140.87300219526514,85.33761605374457 140.9334113134537,84.27024659130257 139.50372885121033,82.39640757896996 140.1279564051656,79.50259927670413 141.07436592236627,77.13059664951288 141.39654788572807,77.03571600826399 141.21532053139526,76.06318705820013 142.1214573031757,74.82972947425151 142.54432113014627,73.19301538135915 143.18868505675346,72.59999999999127" stroke="#4dd2ff" stroke-linecap="round" stroke-linejoin="round" stroke-width="0.5"><title>2025-05-20 4.1km</title><desc>1747694891000</desc></polyline><polyline fill="none" points="181.1359982737922,74.09464828887212 181.3835863028944,73.39987556204142 181.74506482537254,73.2305598340754 181.87876236106968,72.85689564347922 182.14120567194186,72.64670839047903 182.061977502628,72.59999999999854 182.11149510843097,72.66422402640092 182.061977502628,72.60583855103323 182.11149510843097,72.64086984389724 181.89856940341997,72.90360380989296 181.75001658595284,73.28310615177543 181.32911693648202,73.48161399774108 181.07657714679954,74.36321348204365 180.9181208081718,74.45662714655555 180.61606341265724,74.9003398279965 181.23998524600756,75.31485756431721 182.00750813621562,75.53087257786683 181.88371412167908,75.52503434571918 181.98274933328503,75.65931352423286 181.8143894734967,75.53087257786683 181.8044859523361,75.60676953795337 181.8242929946864,75.53087257786683 181.90352116397116,75.5717401851216 181.8292447552667,75.50751964543088 182.0322669391171,75.54254904026311 181.819341234077,75.50751964543088 181.77477538885432,75.5717401851216 181.78467891004402,76.26648473734167 181.47766975392005,76.87364906740913 181.21027468249667,77.11301003673725 181.46776623275946,77.3231797619992 181.08152890735073,77.73184075596146 181.08152890735073,77.73767874756231 181.73020954363164,77.97703585573618 181.68069193779957,77.62675679815584 181.48757327510975,77.28815153172764 181.1904676402046,77.11301003673725 181.51728383856243,76.86197289519987 181.78963067059522,76.23145581599965 181.75496834653313,75.60676953795337 181.8143894734967,75.49000493942731 182.15606095365365,75.63596064781814 182.38879370104405,75.9512236204464 183.06223314016825,75.86948895388923 183.75052786109154,76.01544362809364 183.65644441000768,75.30318105229526 183.00776377378497,74.71935220450177 183.25040004230686,74.10632506440015 183.47322926847846,73.8903043048922 183.51779511373024,73.56919075469341 183.79014194573392,73.61005985892916 183.6267338465259,73.54583696686313 183.48808455021936,73.59254453236645 183.47322926847846,73.85527382935834 183.23059299995657,74.1238402229319 183.00776377378497,74.73686716254451 183.66634793119738,75.34988708516539 183.88917715736898,76.69266811214038 184.32988384916098,77.43410234008843 184.21599335578503,78.33315054941704 184.5081472301099,78.3039609094958 185.03303385179606,78.44990894998409 186.0729035740369,78.10547093625792 186.84537822482525,78.53163967896398 186.84537822482525,78.64255975453125 186.5383690687304,79.2963997430852 185.95406132005155,79.5882900184406 185.25586307799676,80.23628074500812 185.1568278663617,80.20709214213639 184.7557352592121,79.38396699269651 184.0723922989273,79.72839678564924 183.51779511373024,80.1487148886481 182.9334873650514,81.24035900073068 182.0768327843689,82.06929314668014 181.45786271162797,82.87486474625621 178.30854298148188,87.71387691810742 178.34320530554396,87.8831468761091 178.9225612936425,88.29172733048108 178.08076199470088,90.34041949730454 177.8183186838578,90.27621665797051 176.40706691797823,89.42989931391276 176.2436588187702,89.43573603101322 173.05472500398173,94.93364125616426 171.48006513892324,96.83034609576862 169.340904567478,97.27387354695747 168.4297806204122,97.58900924310365 160.79911756355432,101.48136594931566 160.36336263234261,102.00071451954136 159.9375112222915,102.82349240767144 159.82362072891556,102.81182188758248 159.78400664424407,102.90518597714981 159.6998267143499,102.85266869676343 159.6998267143499,102.64843433973147 159.55622565749218,102.4558698049841 159.41757636115653,102.43252860227585 159.35320347361267,102.57841095255571 159.16998833208345,102.54923451425202 159.10561544451048,102.66010489537439 159.0511460780981,102.54339922467989 159.18484361382434,102.61342265757776 159.41262460060534,102.39751677916138 159.80876544717466,102.75930451578097 159.79391016540467,102.88184496998292 159.84837953181705,102.84099818302275 159.3036858678097,103.8679936697772 158.47179008999956,104.08389362823436 158.53616297760163,104.48651555340984 158.1895397368644,104.67323773915268 157.77854360855417,104.62072219012043 157.98651755301398,105.0 157.4863897342002,104.90663955718264 157.5210520582914,104.6440624405077 157.15462177520385,104.2181012724759" stroke="#4dd2ff" stroke-linecap="round" stroke-linejoin="round" stroke-width="0.5"><title>2025-05-17 14.6km</title><desc>1747468743000</desc></polyline><polyline fill="none" points="40.50103613076499,130.15044258929993 38.658299230679404,131.04820205893338 38.73792366468115,131.57077545703214 38.51042528194375,132.85710054080846 37.93030440591974,133.88883075460035 36.14444210159127,135.12153605589265 35.5870710638701,135.87187238038314 35.018325107055716,135.91206884038547 34.66570261382731,136.31403271954332 34.267580444109626,136.39442533814872 32.3452191100223,138.49801356577518 31.253226872882806,138.37742667506973 30.650356158730574,136.8767799493653 30.24085906986147,137.11795654748857 29.62661343649961,136.15324732507725 29.194366509269457,136.20684247987083 28.875868773495313,136.04605694567 28.818994177796412,135.79147942112468 27.863500970299356,137.26534201415052 27.101381388201844,137.9084765347652 26.748758894973435,138.7123899692524 26.851133167219814,139.62348552696494 27.22650549869286,139.75746960016113 27.260630256147124,140.97671797716612 27.772501617262606,142.34333369995147 28.409497088869102,141.9279913074788 29.080617317929864,140.7891420882952 30.05886036361335,140.70875233428524 30.62760632048594,141.3116742120328 31.40110082173487,143.22760639295302 32.60684225015575,143.4821685687857 33.58508529589744,144.00468928367627 35.018325107055716,143.87070982418663 35.211698732338846,144.07167895881867 35.518821549077984,145.4516581728385 36.77006265404634,145.8000000000029 40.648910079558846,143.10702412630053 40.86503354314482,142.651490055061 40.81953386653913,141.63323134170787 41.94565086107468,141.80740777026222 42.29827335430309,141.3250724425161 42.28689843515167,140.30680277835927 41.797776912280824,137.560112419058 41.22903095552465,135.99246172104176 41.75227723579155,135.38951383875246 41.72952739748871,134.70616934172722 40.96740781533299,133.68784502628114 41.13803160242969,132.3881294082239 41.797776912280824,131.2759907354921 41.957025780226104,130.09684480226133 42.41202254570089,129.5206671202759 42.67364568577614,128.5424988438972 43.15139228955377,127.99311325825693 40.41003677767003,125.13894875058031 39.44316865107976,125.36674834398582 36.41744016081793,125.50074790824874 31.048478328506462,124.75034847273491 29.81998706178274,124.26794642396271 28.19337362528313,122.36511993655586 26.157263099914417,122.86092966735305 25.486142870795447,120.79727604473737 24.325901118922047,121.56109991855192 21.66417004104005,122.64652570414182 19.901057574956212,124.200945990131 18.75219074211782,123.47733898471051 15.93121079634875,120.85087787446537 12.848607710388023,115.66479289241397 16.29520820872858,113.40000000000146 16.784329731599428,113.92264820689161 17.08007762907073,114.63291016685253 16.875329084636178,114.57930563342234 16.568206267955247,114.0298578216316 16.93220368033508,114.6865146769851 16.363457723520696,115.89260999244289" stroke="#4dd2ff" stroke-linecap="round" stroke-linejoin="round" stroke-width="0.5"><title>2025-05-12 8.9km</title><desc>1747004623000</desc></polyline><polyline fill="none" points="61.667071478266735,126.40073481045692 61.45877428885433,127.00127507291836 60.472834258835064,128.5517275043021 59.53318249314907,129.68178051287032 59.213793469330994,130.1894771771149 58.99623862703447,130.59344718608554 58.95457918915781,131.09567562160373 58.500954198796535,131.62519362071907 58.05658686134848,132.52044841816314 58.03807155560935,132.78247118219588 57.940866200544406,132.88618814721121 57.95475267985603,133.47027440926104 58.03344272921095,133.39385229537947 57.93160854768939,133.51940284938973 57.96863915913855,133.23009022971746 57.83440319262445,133.0608688654538 57.96401033271104,133.21917273961662 57.97326798556605,133.40476974735793 57.510385342349764,134.38733067168505 57.616848350298824,134.4692098777923 57.468725904473104,134.4637512682275 56.94566851767013,135.6318801459347 56.2513445528748,137.67876920127674 56.2513445528748,138.0062636811017 55.93195552905672,138.48658504173727 54.76086244179169,141.23742767456133 54.46461755011114,143.74798543161887 54.5664517316327,145.29791910082713 54.645141780987615,145.5707897793327 54.9089848875883,145.79999999999927 55.20985860566725,145.7072245609088 56.968812649836764,144.49021317604274 57.130821574945,144.2391667881384 57.144708054256625,143.8953403445921 57.20951162429992,143.81893414755177 58.8110855697596,142.74923514443435 59.29711234511342,142.5418418759764 59.510038360982435,142.7601505558123 60.23213528437191,142.48726455726137 63.58340562111698,140.92087014875142 63.90279464493506,140.58793679779774 64.88873467495432,140.34778677645227 65.22201017805492,140.12946757536702 65.19423721946077,140.03668162654867 65.36087497099652,139.8620252562796 66.39310326534905,139.43083973259127 66.57362749619642,139.2889297604488 66.39310326534905,138.92869494718252 66.30052673671162,138.94506931312208 66.32829969530576,139.01602483696843 66.39773209177656,138.9123205758733 66.44864918253734,139.03239917433893 66.5597410168848,139.06514783300008 67.12445784159354,138.79769982678408 67.18926141166594,138.68853696455335 67.08742723014439,138.32829782985573 67.22166319665848,137.85343319054664 67.1661172794702,137.78793426600168 67.08742723014439,137.90255732769583 67.14297314730356,137.90801556217775 67.19851906449185,137.70606048979243 67.0966848829994,137.44406350579447 66.92078947857954,137.30214790012178 66.56899866976892,137.187523463268 66.09685837372672,136.74539817615732 65.85615939923446,136.75085653684073 65.53214154898888,136.9964821517824 65.09240303796832,137.00739881781192 64.92576528640348,137.22027332916696 64.99519768287428,137.4822714847287 65.37939027673565,137.61327004815394 65.37476145030814,137.67876920127674 65.45808032609057,137.6569361597758 65.37013262388064,137.6678526817268 65.62934690405382,138.0280965702441 65.74043873843038,138.11542803148768 65.93947827501688,138.10451160716912 65.99039536574855,138.2791741106048 66.31904204245075,138.50295955232286 66.57362749619642,138.23005034312519 66.6245445869281,137.91347379607396 66.99947952793445,137.88072438379822 66.87913004070288,137.76610127211825 66.78655351206544,137.4986463239111 66.60602928121807,137.42768864875688 66.61991576050059,137.22573163806737 67.02262366010109,137.38948062816053 67.1707461058977,137.5914369780694 67.22629202311509,137.85889143038366 67.0966848829994,138.3173814519796 67.11520018870942,138.53570855742873 67.52253691473743,138.96144367371744 68.96673076151637,137.90801556217775 69.09633790160296,137.60235351429583 68.59179582053912,133.58490736122258 68.62882643198827,131.73437189271863 68.77694887778489,130.10759096686525 68.68900117560406,129.0048436121906 68.69825882845907,127.20327335888214 69.20280090955202,125.2487692167997 71.06358913521399,122.50796716125478 71.52647177840117,121.14296986550835 71.37834933257545,121.02830839624949 71.40149346477119,120.93548701428881 71.63756361277774,120.43315654597609 72.72996665071696,118.76778574254786 73.35485821904149,117.46275149511348 73.31782760756323,117.35354206369448 72.70682251857943,116.94946509313013 72.56795772560872,116.75288592654397 72.80865670007188,116.15222257254936 73.53538244988886,114.79251250216475 73.51223831772222,114.67237569764984 72.27171283398638,113.71673174211901 72.46149471765966,113.57474879557412 72.23931104893563,113.78226219681892 72.27634166038479,113.71673174211901 72.19302278460236,113.72219261661303 72.16062099958071,113.78772306416431 72.30411461897893,113.8150273919382 72.0773021238274,113.541983442934 72.36428936259472,113.47645267322878 72.36891818902222,113.39999999999782 72.45223706480465,113.4382263512307 72.39206232118886,113.46553086992208 72.38743349476135,113.4054609091072 72.44297941194964,113.46006996738288 72.38280466833385,113.42184363286287 72.43835058552213,113.46553086992208 72.38280466833385,113.498296272679 72.3550317097397,113.39999999999782 72.40131997407298,113.48737447414533 72.419835279783,113.4054609091072 72.3504028833122,113.42730453958939 72.4152064533555,113.50375717105271 72.36428936259472,113.43276544570836 72.36428936259472,113.50375717105271 72.0773021238274,113.58567057500113 72.59110185774625,114.09353068338896 70.24428685673047,117.99241385330606 69.97118609727477,118.07431990259283 69.83695013073157,118.02517628912392 69.3879539668269,117.61564429832288 69.62402411486255,117.50097473974893 69.37869631397189,117.59926294891557 69.06856494303793,117.2989372585289 68.9204424972122,117.35900254092121 68.94358662937884,117.53919795516049 69.74900242852164,118.36918056899594 69.80454834570992,118.62035680210101 69.00376137296553,119.88713944355186 69.04079198444379,119.65235025631773" stroke="#4dd2ff" stroke-linecap="round" stroke-linejoin="round" stroke-width="0.5"><title>2025-05-11 17.9km</title><desc>1746934812000</desc></polyline><polyline fill="none" points="105.01842602423858,113.39999999996508 105.76419831276871,116.54861134244129 94.57761398609728,120.09991670760792 94.14258015120868,121.01519552437821 103.58902913809288,137.96570950606838 104.64553988003172,140.1622579380928 104.42802296264563,140.74800176688586 105.85741984879132,142.94453205051832 105.17379525105935,144.00618321812362 105.2359429418575,145.32409035644378 103.80654605559539,145.79999999998836" stroke="#4dd2ff" stroke-linecap="round" stroke-linejoin="round" stroke-width="0.5"><title>2025-05-09 1.4km</title><desc>1746749326000</desc></polyline><polyline fill="none" points="131.9965200999286,119.3840434163867 130.74953455722425,118.97040545771597 130.09322637703735,119.21858833268925 129.69944146869238,118.86010186182102 128.97750247037038,119.43919508140243 128.03679407865275,118.66707042664348 127.46799365559127,117.2055408309534 126.76793159660883,116.92977936643001 127.18359344417695,115.137320844442 126.00223871949129,113.40000000000873 124.64586848020554,113.9515320150822 123.50826763443183,115.02701519498078 123.18011354422197,114.72367435402703 122.89571333269123,115.27520282322075 122.63319006050006,114.75125081259466 122.41442066722084,115.38550833980844 121.97688188031316,115.33035558897245 122.19565127370879,115.57854285153735 121.53934309340548,116.59886512153025 121.75811248680111,115.66127187265374 122.21752821304835,115.44066107591789 121.97688188031316,115.33035558897245 123.83642172452528,114.86155660990335 126.0678695376264,113.40000000000873 127.13983956549782,114.83398016614956 126.7241777179297,117.04008399657323 127.18359344417695,116.87462702921766 128.10242489667144,118.83252595354861 129.10876410640776,119.57707417933852 128.45245592610445,119.77010476139549 128.2993173507275,120.21131684066495 129.41504125727806,122.88614483116544 128.99937940970995,125.42306298289623 133.35289033921435,124.59581049827102 134.7748913966352,124.70611102158728 134.7748913966352,125.03701223705139 134.49049118510447,124.59581049827102 134.81864527531434,124.29248375454335 137.22510860313196,125.34033788395755 140.33163399004843,126.0297126926016 141.20671156374738,126.66393547818006 142.56308180314954,128.84233799374488 141.8630197441671,130.91042032290716 139.631571931066,133.1990738886816 136.89695451315492,133.69540504062024 137.1376008457737,134.24688269512262 138.165816994966,134.52262096860795 136.5906773621682,133.86084849204053 138.75649435725063,134.6604899668455 141.6880042294506,134.274456539104 145.21019146381877,135.32225987361744 145.91025352291763,135.87373317134916 150.13250281626824,136.17704285551736 149.60745627211872,145.35884274517593 149.69496402936056,145.8000000000029 150.24188751308247,145.66213845937455 150.4606569064781,144.33866297341592" stroke="#4dd2ff" stroke-linecap="round" stroke-linejoin="round" stroke-width="0.5"><title>2025-05-05 3.1km</title><desc>1746429236000</desc></polyline><polyline fill="none" points="171.155037830089,113.43827318775948 171.01842717986437,113.39999999999782 170.775563801697,113.58498678907927 170.14310708770063,113.69980581385244 169.60172414049157,114.31216926888374 169.065400847001,114.53542481912882 169.08563946184586,115.02020469462514 169.2576676880708,115.39654356274332 169.065400847001,116.17472636271123 169.38921868457692,116.29591762126074 169.50559071995667,116.6148405117674 169.66243998502614,116.69138168758218 169.91036301694112,117.03581545602356 170.3454932361783,117.13149106060882 171.0032482187089,117.79483663136125 170.65413211259875,118.49644208185418 170.6693110737251,118.74519062266336 170.775563801697,118.84724093015029 170.68954968859907,119.01945032803269 170.88687618332915,118.98755974579035 170.9071147982031,119.08323142843801 170.63895315147238,119.00669409769762 170.70472864969634,119.15976863617107 171.9949403462815,119.42126983426351 172.3288774912653,119.4085137115726 172.65269532887032,119.59985519300972 172.78424632537644,119.9315119393832 172.57680052318028,120.30781198875775 172.1467299576616,120.37159136340415 171.49909428250976,120.6968648452712 171.63064527901588,120.95835760188129 171.4333187842567,121.04764748257367 171.0993816392438,121.48133880713067 171.2359922894684,121.55787216025419 171.17021679121535,121.48133880713067 171.0589044095541,121.51960549907744 170.98806925758254,121.69818298818427 170.64401280516176,121.85762660897672 170.21900189336156,121.90227072714333 170.0672122820106,121.78747148159891 169.8294085575326,121.78747148159891 169.7332751369977,122.0680913709657 169.79399098156136,122.15737917079241 169.66749963874463,122.1510014763553 169.51065037367516,122.37422027334105 169.47017314395634,122.73774578881785 169.61690310161794,123.10126852920075 169.85976647981443,123.39463573489775 170.49728284750017,123.65611367756355 171.09432198555442,123.76453094005046 171.61040666417102,124.30023614350284 171.63570493273437,124.54257699396476 171.51933289735462,124.8678219866888 171.08926233183593,125.37162847248692 170.63895315147238,125.55019151733723 170.33031427502283,125.55019151733723 170.32019496761495,125.63947278868 170.18864397107973,125.61396387108834 170.19370362479822,125.7096222416294 170.35561254358618,125.63947278868 171.06396406327258,125.74788553604958 171.30682744143996,125.61396387108834 172.29851956901257,125.90731559851338 172.4300705655478,126.0412364385702 173.34586788740125,126.0858766348938 173.41164338565432,126.16240258839753 173.25479412058485,128.4581240190273 173.38128546337248,129.66333347545515 174.9750763826887,135.70167516438232 175.7340244395018,137.7674157242218 172.36429506726563,139.3485393440933 172.22262476332253,139.48242240243053 169.38415903085843,144.09797019653706 169.00468500246643,145.21353966570678 169.02998327102978,145.74262919879402 168.7820602391439,145.75537827170047 168.94396915793186,145.5067707349299 168.76688127798843,145.79999999999927 168.98950604134006,145.78087640726153 169.09069911559345,145.08604733373068 168.97938673390308,145.07967270817244 169.0148043099034,144.72906698974475 169.0198639636219,145.21353966570678 169.2121308046626,144.15534297762497 171.1499781763705,141.10174007893875 171.144918522652,140.84673307189587 170.92735341301886,140.66822735497408 170.47704423268442,140.59172470016347 170.3910301195574,140.39409227338547 170.26959843048826,140.46422000251914 170.28477739161463,140.55984855773204 170.36067219727556,140.54072286203882 170.38091081214952,140.47697048764167 170.25947912308038,140.48334572891326 170.2544194693328,140.53434762842517 169.88000509465928,140.91048495160067 169.18177288238076,141.06986427769152 169.00468500246643,140.29208811948774 169.22730976578896,140.03070147844483 169.13117634528317,140.02432617660816 169.0148043099034,139.52705000494097 168.80229885398876,139.5589268382828 168.38740724959644,139.1317754997217 168.2659755604982,139.2784099729579 168.39246690331493,138.82575427588745 168.63027062776382,138.40497188383233 169.43475556798512,138.26471026068975 169.48029245139332,138.05431705177398 169.62702240905492,137.93955672806624 169.35886076229508,137.85667410013775 169.3436818011687,137.50601523279693 169.18177288238076,137.46776138204586 169.00468500246643,137.58252284214905 168.95914811905823,137.69090841176512 169.05528153959312,137.7992937348099 169.18683253609925,137.69090841176512 169.0249236173113,137.78654253312925 168.9186708893685,137.50601523279693 168.84783573739696,137.70365963902805 168.43800378672313,138.03519035035424 168.29633348278003,138.50698007767642 168.27609486793517,139.25928376291267" stroke="#4dd2ff" stroke-linecap="round" stroke-linejoin="round" stroke-width="0.5"><title>2025-05-04 11.1km</title><desc>1746326389000</desc></polyline><polyline fill="none" points="35.03710251154553,185.69608769584465 35.02902271073981,185.71527799581736 34.976504005506285,185.7051778438872 34.94984066284451,185.69911774638194 34.90944165881956,185.66578712501723 34.90378579825119,185.65568690829377 34.95711248356747,185.56579439692678 35.01528704936936,185.46176018297774 34.99670350751694,185.51024232131522 35.07830949565687,185.49408164239003 35.06457383428278,185.5698345322785 35.109820718793344,185.63952653403612 35.16557134435425,185.7354782600114 35.19223468700875,186.00312676768817 35.298888057644945,186.03241604075765 35.44674841238157,186.08796435671047 35.44432447214422,186.18492045909443 35.56390552406447,186.29197474020748 35.539666121647315,186.29904431026353 35.56471350414358,186.28692504334322 35.64308757195613,186.24854723918725 35.691566376786795,186.29197474020748 35.64147161179426,186.23945773129344 36.08505267601504,186.0677650153625 36.510050198387034,186.02938612111438 36.784763425774145,186.26066656638386 37.24369611152724,186.30813374796207 37.82463378944158,186.27278587454566 38.23751161060136,186.5909109060949 38.3360851804282,186.5999999999999 38.90813507746134,186.4747715416056 38.92833457947199,186.19401003123312 38.93318245995761,185.81526878652312 38.952573981889145,185.39509674527199 38.86612011327088,185.03752847505302 38.677860754502035,184.78600866035822 38.664125093135226,184.46073794356334 38.59544678628663,184.18192355366818 38.365172463327326,183.88592478329565 38.283566475194675,183.49797745142223 38.65038943176478,183.35855411157354 38.72149167885436,183.30803778656673 38.22781584963377,182.02279115115107 38.03955649086856,181.44577505337475 37.939366960876214,181.40232025323076 38.26498293334225,180.42805994460014 37.78827468581585,179.30002796089593 37.60324724736711,178.8885988478919 37.228344489994925,178.2092378144912 37.482050235288625,175.73290433977172 37.25419985257395,175.639861995905 35.58814492647798,175.6135672166297 35.56148158382348,175.28386351353083 34.51353141935033,175.39916027937716 34.30103265816433,175.26970414250763 34.14994038310397,174.60216137376938 33.94309748247906,173.00690419250668 33.69504759775009,172.01741551490295 32.581651046752086,171.7766004419641 32.17119716583693,171.53678970352303 31.650857993961836,171.42042314828905 30.812982650430058,171.31113817125834 30.370209566292033,171.58738330873985 29.97106740649906,171.48316011857014 28.982099787906918,171.3627451595089 28.641940173991316,171.35970946390626 28.124832922443602,171.2463759704765 27.82022443207461,171.29494767219512 27.48491269864826,170.90332959156058 26.947605945082614,170.77885765228666 26.223655792909994,170.59771196164365 26.087915139374672,170.66855156670363 25.963486206972448,170.64729975371938 25.885112139156263,170.66855156670363 25.349421345756127,170.4924633431533 24.965630807491834,170.37709300987808 24.786259229607822,170.2991664542601 24.196433770808653,170.06335790945377 23.5662093079809,170.03906820638258 23.056373877159785,170.12509389266825 22.701670621798257,170.27487749623788 22.425341434245638,170.67867145700393 22.295256641278684,171.12798116215527 21.982568350103975,171.47304128701717 21.886418720514484,171.695652505593 21.839555875849328,171.65517821788399 21.783805250288424,171.66529680978374 21.879954879874276,171.70981845596452 21.542219206206937,172.46968226897525 21.547067086688912,172.65988942496142 21.642408736188372,172.75701466927103 22.02862321469729,172.65483078488796 22.498867621579848,172.45754122698145 22.981231729663705,172.903711932051 23.0806132795733,172.83491632269033 23.08869308037538,172.5162227524197 23.436124515013944,172.39278867934718 23.557321527096065,172.6528073279269 23.574289108786616,172.83188120810382 23.646199335955316,172.9047236276001 23.54843374621123,173.02410276799947 23.474099578797905,173.07873328216647 23.37229408865096,173.25375065037315 23.54520182588749,173.33164727367648 23.515306562909245,173.4874381541308 23.51288262266462,173.48946139156442 23.546009805966605,173.33063563427413 23.37067812848909,173.26892537911317 23.470059678398684,173.07873328216647 23.588024770157062,173.12830507964782 23.78032402932513,173.25880889661266 23.906368921892863,173.35390330689324 24.07766069896752,173.36503129935681 24.41862829296224,173.30736789127968 24.4493315360196,173.24768075049815 24.282887639430555,173.23554093638086 24.60850361188932,173.19912137907886 24.60446371148646,173.1606783259922 24.37903726901277,173.15056170114576 24.361261707243102,173.12122341385066 24.624663213500753,173.10503672469167 24.68768565978462,173.09593169707387 24.746668205665628,173.10503672469167 24.780603369050368,173.19507475095952 24.829082173881034,173.14651504748053 24.898568460808747,173.14449171985007 24.837161974683113,173.2416108458351 24.81453853243147,173.38728723599388 25.044812855387136,173.78687150709493 24.949471205884038,173.97603454462433 24.771715588161896,173.83643874198106 24.63274301430647,173.71403743975225 24.383885149498383,173.82025355753467 24.35802978691936,173.93152601300517 24.40731657183278,174.13383544579438 24.311166942250566,174.15001997062882 24.299855221121106,174.10247783205614 24.293391380473622,174.13687004679196 24.237640754916356,174.10146629400015 24.151994866380846,174.09944321749435 23.822338993515586,174.36547321450143 23.811835252465244,174.34119709422293 23.81749111303361,174.29972521157651 23.826378893918445,174.12675470547538 23.828802834159433,174.12877777480253 23.86677789794703,174.01649662267118 23.841730515450763,173.96086121049711 23.877281638993736,173.9295028918168 23.832034754479537,173.9750229899446 23.86920183818802,174.01143887455146 23.840114555285254,174.1753082225282 23.811027272389765,174.27241433752806 23.822338993515586,174.36648471784883 24.09866818106093,174.1429392452019 24.231984894355264,174.09742014045423 24.252992376448674,174.1631698719866 24.27642379878671,174.1702505787971 24.28046369918593,174.1591237508842 24.27642379878671,174.16418140193218 24.374189388530795,174.15103150230016 24.402468691350805,174.03268139431384 24.39034899014223,173.81216095254786 24.669102117932198,173.70493313285397 24.767675687759038,173.8334040224895 25.009261731844163,173.99930026549737 25.19509715037202,173.9487225216535 25.26377545721698,173.81317252863573 25.491625839931658,173.882970957603 25.719476222646335,174.03470448837925 25.835017374163726,173.882970957603 26.067715637364017,173.86476273283142 26.395755550063768,173.83745031487706 26.649461295361107,174.03672758190578 26.91851866217985,174.10348936997934 26.870039857349184,174.07820088204153 26.883775518715993,173.9750229899446 26.941142104438768,173.87993625646777 26.972653327578882,173.79698729524944 27.25383039560984,173.51879827460198 27.57944636807224,173.447984917771 27.884054858437594,173.21530787027768 29.028962632575713,173.00892755632503 29.747256924183603,172.77724894080984 30.387177147982584,172.45349420872571 30.540693363287573,171.9435528698823 31.32039414101382,171.77862412945387 31.31473828045273,170.43477839292473 31.313930300369975,170.08461133668425 31.325242021499434,169.78199747776853 30.93175572227119,169.49455388412434 30.476054956841836,169.2060873586106 30.409800590237865,168.9945383587924 30.326578641943343,168.6726488055724 30.03893773326854,168.34264740582876 30.01469833084775,168.15638269028614 30.05832925520008,167.44570082981818 30.04701753407062,167.16728189515698 29.67777063725589,166.59927597790738 29.44830429438298,166.3147509866012 29.22287785190929,166.16489017001004 29.153391564981575,165.9157907215249 29.092793058945972,164.80790912034536 28.83585539332489,164.6013029117039 28.281581058072334,164.57091917681464 27.008204451125494,164.38557579013695 26.276982478226273,164.22149758292926 26.105690701151616,163.8943435303854 25.957830346411356,163.648209154936 25.571615867906075,163.6431445787507 25.27104727794358,163.86496988383124 24.90907220185545,164.24479285062625 24.561640767220524,164.02905571106703 24.357221806840244,163.73228063153465 23.767396348041075,163.05867004214588 23.557321527096065,162.95737010319954 22.89316190087993,161.7933378482694 22.701670621798257,160.8743469241249 22.523915004072478,160.67371464047073 22.342927466030233,160.3798498038791 21.468693018876365,158.0335939456104 21.486468580646033,157.90181746453618 21.866219218507467,157.88255763527332 22.031855135017395,157.36657893329175 22.161131947905233,157.20032299440163 21.02834387497569,157.17903386373064 20.772214189441,157.12327633650284 20.559715428255004,156.807985232796 20.34964060731363,156.76439090842814 20.000593212513195,156.07800106638797 19.51257324386461,155.59941815290904 18.523605625272467,155.1928019786742 17.95640360872494,155.24350342740354 17.07328138068624,154.21521244122732 17.070049460362497,154.2649062053656 17.06035369939491,154.25983542787662 17.061161679477664,154.25577880346827 17.065201579880522,154.26997697949992 17.037730257143266,154.27301944236297" stroke="red" stroke-linecap="round" stroke-linejoin="round" stroke-width="0.5"><title>2025-05-03 98.8km</title><desc>1746244765000</desc></polyline><polyline fill="none" points="63.897874239108205,154.35964563455263 63.64363108612088,154.44753881386168 63.592211122591834,154.45471371685926 63.29440383383917,154.32466741898088 63.10086480445534,154.19999999999982 62.960888237081235,154.212556534746 62.89661328267175,154.31031732949668 62.748780887541216,154.38296434444965 62.659510117526224,154.46547605707883 62.55809852279708,154.5910354278294 62.33385034852836,155.1156690143148 62.27743122188258,155.21341675894837 62.228153756837855,155.24031956010413 62.17816212563412,155.29950534610134 61.77822907598602,155.3317882838778 61.58683254508287,155.36048409925934 61.1211962087109,155.3766254419279 60.941940502532816,155.2125199970692 59.69643471934978,155.00357123845242 59.22651338601645,155.80973709144655 58.92584943262045,156.1908165477057 58.79015786220407,156.41048789549814 58.737309566360636,156.51090670831218 58.5401997061781,156.99146182973527 58.34880317527495,157.19317722726146 58.22168159877765,157.49439436427838 58.00743175075695,157.88434307251646 57.91601848226492,158.0179065464922 58.006717584597936,158.16670570329006 57.903163491384475,158.35314822387363 57.821034382974176,158.5368966466758 57.85745685713846,158.78069173553604 57.836031872338936,159.32561373026192 57.825319379935536,159.3641509613194 57.46180880445536,159.8964800450658 57.33397306179904,160.14022620068454 57.24041729482633,160.1922003494169 56.96474915703948,160.4207026523859 56.76692513069429,160.6635339075351 56.527679467064445,160.8633479333139 56.60838024315672,161.0846597298455 56.597667750756955,161.13035478750544 56.33913960080463,161.1617139624973 56.26843715096038,161.14737835765163 56.25272549543661,161.2548946547513 56.47625950354268,161.77990806870366 57.01973995136359,163.32335531566014 57.16257318338103,163.5839957043786 57.32683140019799,163.7496897111746 57.46180880445536,163.98165451865452 57.599642873348785,164.1751017262427 57.65606199999456,164.31839239636838 57.74390443768789,164.40705198228216 57.526083758861205,164.66048662874846 57.67463032015803,164.90406153362437 57.74033360688554,165.04017311183907 57.96458178115063,165.42521081096038 58.12741166564956,165.63562915516104 58.178831629174965,165.66875825721354 58.28024322390411,165.70457332068418 58.494493071932084,165.88454115246122 58.65803712259003,166.00272638528304 58.964414405265416,166.18895348334718 58.98155439310722,166.55423025301434 59.044401015195035,166.63838436879496 59.17580758865006,166.70821358745616 59.362204956432834,166.72432792048266 59.48147070516643,166.77356592319438 59.56074314892976,166.52110547437724 59.5778831367752,166.5023048524008 59.64501475582438,166.50857173218037 59.67500973454662,166.4861899921052 59.71143220871454,166.44590267392732 59.777135495438415,166.32682986858845 59.85212294224766,166.24267188867043 60.066372790272,166.1209095593772 60.19635103140536,166.08151539675328 60.292763463017764,166.0734574716721 60.31775927861963,166.1021078284757 60.552005779129104,166.2614732300549 60.816961424516194,166.54617288930967 61.14047869503338,166.8040037825408 61.62539751773147,167.0116937669768 61.98462309625029,167.22743395983116 62.46882775278573,167.04213055826904 62.527389377912186,167.05197772622296 62.69593259169051,167.04213055826904 62.84447915299097,167.06898643721934 62.935892421479366,167.14060159485507 63.01516486524997,167.28651514004605 63.08586731509786,167.46912644547683 63.11086313069973,167.58728408383058 63.260123858155566,167.96322652200752 63.2415555379921,168.14313446533606 63.245126368794445,168.29081652697096 63.220130553192575,168.42238511214236 63.23369971023203,168.51457110498131 63.29297550152114,168.59691093340734 63.342252966565866,168.801861169949 63.333682972643146,169.19026517008115 63.73290185612859,169.43278266768812 63.75932600405213,170.13254475577787 63.83145678622532,170.40008179538836 63.85002510638515,170.53697794393884 63.84431177710576,170.62287215789956 63.88859007902647,170.7373960869736 63.880734251266404,170.76871088766848 63.85073927254416,170.7866049946806 63.84502594326477,170.8402870328946 63.860023432625894,170.8912845762652 63.92001339007038,170.97180623368558 63.95000836879626,171.07916695892345 64.45635217629388,171.2554138039177 64.51062880445897,171.31177604325148 64.58990124822958,171.46833536586473 64.59275791286927,171.5962640196667 64.6763153535976,171.68482859974392 64.71702282472688,171.77070830220828 64.73416281256505,171.8208042940414 64.73130614792535,171.84943040926373 64.71702282472688,171.86284885925943 64.73130614792535,171.94335900275655 64.95841098683013,172.25286689407403 64.96341014994687,172.4102990251845 65.02697093819734,172.79581344591725 64.99911845795577,172.91835057258731 65.12981086524815,172.97291018823807 65.25121911246242,172.99437614647377 65.49760643768968,172.99527055992758 65.98752442350815,173.0382022673648 66.26747755826,173.04267430462824 66.27461921985741,173.02836377502854 66.30390003242428,173.02836377502854 67.0430620081097,173.62311976629871 67.07091448835126,173.62938007891626 67.18375274164646,174.15969706164697 67.50298501520228,175.35611194801868 67.5379791570449,175.6761932449499 67.66938573049993,176.1071168982735 67.70009487538118,176.3297202910444 67.74794400810788,176.40302583804942 67.83721477811923,176.4915278239755 67.87649391692321,176.51119477559996 67.98647550557507,176.53354351525468 68.06217711854333,176.53354351525468 68.10859791894836,176.55499823624905 68.69064333941424,176.48527014562387 68.70706916109702,176.52549797743495 68.70849749341869,176.76149646624208 68.73063664438087,176.80261657757455 68.78348494022794,176.81960089885797 70.19539143870861,176.81602525579456 70.31465718744221,176.83032781677048 70.4474920932189,176.86429627858388 70.50391121986468,176.85625113190372 70.6110361438732,176.89647677018138 70.68530942452708,176.90899136469488 70.85670930294509,176.89379506835985 70.70459191084592,177.73400992475945 70.74244271732823,177.75724843573425 70.8402834812623,177.763504944362 70.75172687740996,178.02984812002387 70.758154372852,178.0593418574863 71.03525084296416,178.12458512564672 71.14166160081732,178.17820926133027 71.21807737994459,178.19250895948426 71.27163984195431,178.21753335896983 70.8709926261472,179.02094643310647 70.8802767862253,179.03256350175116 71.03239417832083,179.04149969490936 71.05024833232528,179.12639294486735 71.08095747721018,179.1397970454559 71.13237744073558,179.1987747745029 71.13809077001497,179.22736985315396 71.18094073961765,179.2425609398324 71.19593822898241,179.27741095177635 71.37376560284247,179.21396592499104 71.17165657953956,181.3814850114518 71.0788149787295,182.08359182737604 71.07024498480678,182.22203946478112 71.10309662817235,182.4283658844679 71.34448479027924,183.2455714908674 71.39090559068427,183.37774417408673 71.49303135157606,183.59207280640658 71.47303469909457,183.62243548426477 71.1130949544131,183.76085186065256 71.20807905370384,184.18590651765317 71.33305813172046,184.53057423702376 71.34305645796121,184.819867368426 71.52445466261997,185.20914369099592 71.57873129078871,185.29396012438337 71.67942871935884,185.38770337594133 71.71299452888343,185.46894648482657 71.6979970395223,185.9885223790784 71.74727450456339,186.51073661132932 71.36019644579937,186.5803621547202 71.03239417832083,186.56072425290495 70.85456680446077,186.5999999999999 70.65817111044089,186.24740280821652 70.4989120567443,186.2482954823522 70.27894887943694,186.22062252986325 70.19110644174361,186.24561745960045 70.10183567173954,186.20276895254028 69.84973501722925,186.19562750852674 69.6583384863261,186.15099331400643 69.44837363525949,186.13671031006743 69.15270884499114,186.0786852989636 68.85704405471552,186.1117149811971 68.76491662006447,186.1991982314671 68.79348326646868,186.21972985210869 68.80490992502746,186.20544699211723 68.81633658358987,186.20812503064553 68.80562409119011,186.20455431237633 68.81990741439222,186.2099103890787 68.82276407903191,186.2331200061808" stroke="red" stroke-linecap="round" stroke-linejoin="round" stroke-width="0.5"><title>2025-05-03 66.9km</title><desc>1746236322000</desc></polyline><polyline fill="none" points="114.19403786002658,154.58944916188193 113.59894621069543,154.1999999999971 112.93773326685186,154.8490815838304 112.51896506908815,154.38174302122206 107.9345553254243,156.6924636667245 108.11087877722457,157.67905668525782 107.53782755928114,159.62626779354468 107.69211057934444,160.17148406026536 106.76641245814972,161.9369377207331 104.89297578402329,163.02735846528958 103.74687334813643,164.22162309505802 103.63667119084857,164.81875317162485 103.239943424589,164.76682887643983 102.11588142008986,165.98704683188407 100.81549596402328,166.03897086197685 100.33060647186358,166.81782995951653 99.60327223374043,167.05148719376302 95.90047974849585,171.02362522034673 94.31356868345756,171.1793939936906 93.65235573973041,170.86785634556145 92.44013200933114,168.11592281413323 91.64667647681199,168.4274640500371 90.52261447242927,166.61013444844866 89.11202685895842,165.8053126376908 84.92434488167055,170.91977931513975 84.77006186137442,172.5034244673734 84.96842574456241,173.15245633393351 85.85004300298169,173.56783580344927 85.89412386575714,176.16394113049319 87.06226673326455,178.44849048997276 86.95206457586028,178.9157819867978 86.86390285007656,178.6302150695119 88.05408614885528,177.74755153160368 89.37651203654241,175.54087842408626 91.20586784766056,175.28126848359534 92.37401071493514,176.6831588116911 93.32174926775042,179.46095424491796 94.02704307448585,180.2916905326565 96.23108622047585,180.7589784255979 98.28084634616971,181.82335299314582 100.6171320809517,181.40798787222593 101.41058761335444,182.08295582710707 101.56487063365057,183.38096576737007 100.72733423823956,186.60000000000582 102.29220487177372,184.91260842996417 103.32810515048914,184.78280858501967 104.49624801776372,185.302007541919 108.46352568047587,182.6800412752491 110.79981141525786,180.39553236559732 111.81367126246914,180.0840067314566 112.10019687132444,177.25429695809726 114.37036131171044,177.48794398827886 115.22993813862558,176.5014327515819 114.12791656563058,169.38804697032901 112.93773326685186,166.40243875676242 113.95159311406314,165.00048811615852 114.01771440845914,164.2735475087975 112.45284377480857,161.59942552944995 113.22425887582358,158.17235166688624 114.03975483973045,156.1991656297323 114.5466847633943,155.83568221397582" stroke="#4dd2ff" stroke-linecap="round" stroke-linejoin="round" stroke-width="0.5"><title>2025-04-28 5.2km</title><desc>1745795058000</desc></polyline><polyline fill="none" points="130.92133853945415,185.15368910120742 131.02659577177837,186.60000000000582 130.95642428356223,185.9388306676119 130.50030961004086,185.81486116202723 131.00905289978255,185.87684592486767 130.76345269090962,183.9139852940425 131.9739108629292,183.0875116014795 131.14939587609842,182.426330062357 130.7108240746893,181.53786375078198 130.58802397036925,180.25681199714018 131.16693874821067,179.76091867987998 131.85111075849272,178.35588059443398 133.16682616283651,176.86818189904443 136.39471462124493,174.67793764697853 137.90340161824133,173.21087314904435 139.06123117404059,172.61164636723697 139.1138597902609,170.50400613885722 140.60500391514506,170.91727076932148 141.49969039007556,170.19405707686383 140.569918171037,164.22227320708043 139.7278603123268,161.9285624375043 140.51728955481667,160.9160146483773 140.55237529892474,160.1720985519496 140.46466093871277,159.6554884396901 139.37700287112966,158.43628301100398 139.6752316961065,156.05984318585251 140.51728955481667,154.1999999999971" stroke="#4dd2ff" stroke-linecap="round" stroke-linejoin="round" stroke-width="0.5"><title>2025-04-27 2.3km</title><desc>1745711220000</desc></polyline><polyline fill="none" points="159.35026037332136,154.25545008010886 160.0150706350396,154.20000000000073 160.43626389135898,154.3108999657925 161.15243918433407,154.34035763848078 161.33882086919039,154.42699753425404 162.0300474327014,154.89137928568562 162.15185593539354,155.08371251049903 162.52315173279203,155.9067336772805 162.5348923113561,156.05054140199536 162.6185439336914,156.1423697470982 162.8665636560545,156.58764303133103 163.07495892573206,156.8198038975188 163.9422941678422,157.56997206427877 164.3194602545118,157.95283864406701 164.40017673220427,158.09489538074558 164.25341950004076,158.212697560979 164.0905189723344,158.2525422175877 163.55779021955823,158.5366490349461 162.76970388282643,158.83460924178507 162.25165085326444,159.09618596203836 161.41073191295436,159.70420521070992 161.01155224145623,160.08528798931184 160.7899488208859,160.35030833111887 160.57568326192268,160.66035917761656 160.17503601810313,161.3168155117346 160.11046283594624,161.47269824093564 160.1089952636321,161.58354724796118 159.84629981804756,162.27287209206224 159.73623189391947,162.43047732638843 159.59681252336304,162.79244384938102 159.40309297689964,163.15786577443214 158.65022837587458,164.21425140870997 158.3596490561904,164.56925043621413 158.12483748472005,164.9017301154272 158.13511049097724,164.92943644037769 158.20555396241252,164.88095033991522 158.64142294195335,164.29044699249607 158.70746369643166,164.2679346990717 158.7661665892956,164.2921787060459 159.38694968135678,164.69739447238135 159.59681252336304,164.79609930700826 160.8427814244642,165.5597422427236 165.10020872964378,168.70050783122315 165.61385904223425,169.1263851214644 167.32211322466173,170.22391857223192 167.91060972565901,170.4801141812568 168.57248484272714,170.6549479974874 168.954053646361,170.69303035523808 169.90944322777796,170.96825922163407 170.1060979188842,171.0028788665877 170.12517635905533,170.97691413995744 170.67551597969577,171.1638592227555 171.09377409136505,171.37503527646368 171.42838058071356,171.6017867605624 171.45626445482048,171.56197566594346 171.478278039649,171.57063026023388 171.71602475575492,171.75237564926647 171.77179250397603,171.73160485308108 171.77619522094756,171.70910312651722 172.00513650313223,171.80257162774433 172.12400986118882,171.93238807669877 172.27957252728083,171.9600821149561 172.3764323005089,172.01373917645105 172.414589180873,172.06047259823208 172.3955107406946,172.03797133827175 172.40284860230167,172.1262453289346 172.46448663980846,172.0933589976812 172.51144895410835,172.10720588230834 173.10875088902685,172.43606583921792 173.16451863724797,172.48972129043432 173.16598620956938,172.4672206394407 173.31127586941875,172.5174143555214 173.45509795693943,172.5329916833889 173.64588235876,172.595300841871 173.63120663553855,172.60741648314797 173.8660182070089,172.65760975556623 173.93059138917306,172.7078028691576 173.97461855881556,172.86703514381043 174.01717815613665,172.90857373517974 174.19475440706447,172.89991987094982 174.51615274552023,173.10241905662224 175.58014267872204,173.43645052571992 175.77532979750686,173.53163955293894 175.70488632607157,173.53683166526753 175.58161025105073,173.50394825847434 175.58894811265782,173.48664117489352 175.4847504778154,173.5524079920615 175.2836930697449,173.97123237814594 175.15307913312427,174.16506471490356 174.81847264378302,174.53195515453262 174.68198841786216,174.81577024062244 174.58806378926965,174.91787320671938 174.54256904730573,175.0130533461088 174.37820094727795,175.17399301019032 174.14192180348618,175.4854844971851 173.7398069873525,175.85926621075305 173.55929559177457,176.1240229312989 173.55782801946043,176.1724746634718 173.5813091766031,176.16901383036384 185.78564060365898,186.5463922069448 185.80325147151598,186.53947505918586 185.7871081759804,186.56195577839026 185.81792719473742,186.57233148422347 185.81205690544448,186.5463922069448 185.87516251527995,186.60000000000036" stroke="#ffc800" stroke-linecap="round" stroke-linejoin="round" stroke-width="0.5"><title>2025-04-20 36.9km</title><desc>1745145130000</desc></polyline><polyline fill="none" points="20.75598067205283,196.19042261174764 20.510305028321454,196.15020594469388 20.380642883043038,196.2788992021815 20.09402129871887,196.2788992021815 20.271453708061017,196.18237928010058 20.298751001799246,196.02151246306312 20.053075358096976,195.707821162272 20.09402129871887,195.57108351172064 19.99165644714958,195.72390792804072 20.189561826817226,195.96520899432653 20.564899615797913,195.94107892317697 20.46253476428683,196.35933237420977 20.005305094004143,196.42367884884152 19.438886248797644,196.16629261413618 19.58902136440156,195.44238902119105 19.848345654987497,195.00000000000728 20.646791497041704,195.1528255977464 21.083548197027994,195.8445585597001 20.271453708061017,196.73736710990488 19.86199430184206,196.85801608641486 19.902940242463956,196.99475135493412 19.75280512686004,196.8338863068784 19.261453839426395,196.76149692096078 19.29557545663556,197.05909727606922 19.711859186267247,197.71863973653672 20.30557532524108,199.71331768824894 20.57172393926885,200.13154978406237 28.733614769444102,202.73740412987536 29.463817377167288,202.84195809648372 30.03706054581562,202.77761721143906 30.18719566144864,202.9786822911119 31.27908741129795,205.47988614745555 32.96469530012109,211.47117170330603 35.86503276068834,218.98974898635788 36.738546160573605,222.0050063368617 36.649829955917085,222.23818111638684 34.24084378275438,223.01810520841536 34.35685728120734,223.55681086032564 36.47922186998767,227.2231212024708 36.424627282482106,227.40000000000146 36.24719487311086,227.11056174740224" stroke="#4dd2ff" stroke-linecap="round" stroke-linejoin="round" stroke-width="0.5"><title>2025-04-16 7.1km</title><desc>1744770713000</desc></polyline><polyline fill="none" points="53.296774193877354,200.39069386874326 53.06451612897217,201.26913878170308 53.8000000002794,202.48919764580205 52.94838709686883,203.41643964900868 53.68387096771039,203.4652417942125 72.84516129037365,221.42398730284185 73.54193548415788,220.78959018492606 73.00000000023283,220.05759213745478 73.65806451626122,218.3007908212312 75.012903225841,217.42238698570873 73.92903225822374,221.81438498015632 76.09677419369109,222.497579908435 77.64516129065305,219.27679259865545 77.95483870990574,219.6183926028316 77.91612903238274,217.81278895190917 79.4258064518217,217.81278895190917 79.23225806467235,216.59278141794493 80.20000000018626,216.6903821710439 79.27096774219535,224.7911535097228 79.73548387130722,224.9863505960384 79.038709677523,225.96233445918187 79.50322580663487,224.7911535097228 78.84516129037365,223.5223698981863 78.03225806471892,224.74235422178754 76.63870967761613,224.1079628833977 73.58064516144805,224.3519596827682 66.45806451630779,217.2271858456079 65.52903225831687,217.51998751654173 66.22580645163544,216.93438393931137 58.83225806453265,210.0046701185347 55.73548387107439,210.8830918436288 54.38064516126178,209.61425978282932 54.458064516307786,208.83343785608304 54.07096774200909,210.1022726369265 52.638709677616134,210.6878871988738 51.59354838728905,210.54148364672437 51.40000000037253,209.85826629176154 50.74193548387848,211.66390937633696 50.47096774214879,211.07829638361 49.077419355046004,211.61510832959902 49.92903225822374,209.5166571336158 48.76774193579331,207.46699545622687 47.800000000046566,202.3915930869407 48.419354838784784,201.95237224907032 49.8516129036434,202.48919764580205 53.4129032259807,201.1715338960057 52.83225806476548,198.97541705259937 51.86451612925157,198.4873892889882 52.79354838724248,198.38978365785442 51.980645161354914,196.4376655408414 52.75483870971948,197.07210507657146 52.870967742055655,198.63379768680898 52.25161290355027,199.1218252540857 52.445161290466785,196.92569605106837" stroke="#4dd2ff" stroke-linecap="round" stroke-linejoin="round" stroke-width="0.5"><title>2025-04-07 2.7km</title><desc>1743986187000</desc></polyline><polyline fill="none" points="101.18923327908851,211.4833172984363 98.78433931490872,211.28341020396329 100.13213703106157,210.350508304502 101.69135399674997,210.3171903148468 102.82773246336728,209.1177397116553 102.48417618288659,208.65128513668606 101.47993474721443,208.8178761567542 97.59510603593662,204.48647335801797 93.94812398054637,204.7863421367365 92.49461663956754,205.45271590576158 91.67536704742815,206.48559171825764 90.53898858081084,205.21948528976645 89.87830342585221,205.0195731590502 88.92691680276766,205.48603454728436 86.60130505729467,203.6868215133145 83.80000000004657,205.18616661254782 85.279934747261,203.9866912563739 86.89200652542058,203.6201837434637 88.68907014699653,205.31944129482144 90.08972267538775,204.98625445502694 91.67536704742815,206.45227321067068 92.6267536705127,205.41939725974225 94.2916802612599,204.75302340144117 97.85938009794336,204.5531108956493 102.11419249605387,209.78410187221016 101.47993474721443,210.350508304502 99.260032626451,210.38382628977706 97.54225122346543,211.41668161815323 102.19347471464425,211.51663513187668 106.47471451887395,210.48378021882672 107.53181076678447,213.34910909665632 108.37748776515946,213.7156022690615 112.31517128867563,213.5823320870404 116.17357259383425,217.0806506925146 116.20000000006985,217.4471383648197 114.56150081555825,218.1467951485829 112.42088091361802,218.41333054842835 112.26231647643726,218.77981625653047 112.57944535068236,218.3800136390346" stroke="#4dd2ff" stroke-linecap="round" stroke-linejoin="round" stroke-width="0.5"><title>2025-04-04 2.7km</title><desc>1743741381000</desc></polyline><polyline fill="none" points="149.4756782327313,210.0010337872518 147.91208808647934,211.01883798153722 147.37717566813808,210.8734376666398 146.84226324979682,211.69737153104506 145.31982021289878,212.13357058014662 145.0317904490512,211.84277130881674 145.7312913039932,210.65533701666573 145.4432615401456,210.31606891509728 142.60411101172213,210.849204271668 141.61658039316535,210.72803725699487 140.50560844724532,209.92833330990106 139.78553403785918,208.3289168148185 139.90897536522243,207.91694404209557 141.246256411192,207.3595679031423 141.06109442026354,205.20275146087806 140.13528446527198,204.18492072810477 138.63341498281807,203.94257939298404 138.03678190079518,204.83924101808225 137.5018694823375,204.52419815507892 135.5062346906634,207.18993141049577 133.7574825535994,208.71665520008537 133.18142302613705,208.8862905316928 131.80299487092998,208.52278609176574 131.2063617889071,206.99606097525975 130.87718491605483,210.0495007589634 131.43267088895664,211.57620497715834 131.04177335242275,211.261171628983 131.0623469070997,210.70380384621967 131.57668577088043,210.67957043270872 132.62593705311883,211.50350501322828 132.83167259872425,212.1820370885107 134.39526274474338,213.29676387450309 133.71633544447832,213.73295979628165 133.8603503262857,214.12068878833088 131.12406757066492,214.87191179300135 130.69202292500995,213.82989210744563 129.37531543371733,212.32743655037484 129.29302121535875,206.65678730806394 127.91459306026809,206.87489186758467 126.68017978710122,205.85706876506447 125.98067893227562,206.05094019023818 127.60598974197637,203.77294030159828 129.00499145162757,204.49996407024446 130.0130956248613,206.19634364859667 131.4120973345125,205.05734735482838 133.11970236245543,204.8634750659985 134.60099829023238,203.28825647266058 135.1976313723717,203.19131958046637 135.42394047242124,203.8456427850906 135.0536164904479,202.73086876735033 135.44451402698178,202.29465133073973 134.72443961759564,202.39158861256146 134.62157184490934,202.82780585964792 134.29239497205708,202.44005723773444 135.21820492693223,201.93113614853064 133.98379165364895,202.51276015568874 134.06608587189112,202.92474290980317 134.39526274474338,202.73086876735033 134.9507487177616,203.02167991781607 133.24314368981868,204.7907729142462 131.370950225275,205.1058154007187 130.1571105066687,206.19634364859667 128.90212367894128,204.45149589273205 127.42082775104791,203.79717446544964 125.87781115947291,206.24481144700258 123.77930859499611,208.4985524413496 123.75873504043557,210.5826367525733 124.58167722262442,210.97037122043548 124.58167722262442,211.81853801918624 123.22382262197789,211.77007143177616 122.29801266710274,209.49212994865957 122.52432176715229,210.31606891509728 122.31858622166328,211.18847156240372 122.03055645793211,211.52773833715764 121.35162915766705,211.28540497928043 120.89901095745154,212.98173295614833 121.47507048491389,216.20472057542065 122.35973333078437,217.14979834163387 122.91521930380259,218.6279888706049 122.77120442176238,219.98500761848118 121.92768868524581,220.639281565469 121.70137958496343,219.91231039480772 121.88654157600831,219.64575370535022 122.40088043978903,219.96077521321422 121.88654157600831,220.9058370677667 122.73005731275771,222.06898462386744 123.22382262197789,225.02529070200399 126.70075334154535,227.08498899611004 129.62219808832742,227.39999999999418 130.73317003413104,227.3030735846114 133.69576188991778,225.46146369242342 137.91334057343192,226.43073395159445 138.9008711919887,226.04302635324711 141.69887461140752,222.50516339395836 141.2874035203131,221.75396609294694 139.72381337417755,221.48741160385543 139.37406294676475,221.07546313079365 139.003738964675,219.18533685526927 140.87593242921866,217.9494764012925 141.53428617492318,216.56821249781933 142.3983754661167,215.96239229821367 142.11034570238553,214.7749799345329 140.85535887465812,213.95105743722524 141.34912418399472,211.23693827605166 141.90461015689652,210.65533701666573 143.4887738575926,210.50993646483403 145.85473263124004,209.5405970308493 146.69824836798944,209.80716579512227 147.21258723165374,210.75227066515072 147.80922031390946,210.92190444873995 149.99001709651202,209.3951957525278 151.10098904243205,209.10439291133662 150.89525349694304,207.09299621389073 149.84600221470464,204.18492072810477 150.7718121695798,203.19131958046637 150.89525349694304,202.2704170037032 149.35223690536804,200.08931678670342 149.70198733278085,197.90819524091785 150.93640060606413,194.99999999998545" stroke="#4dd2ff" stroke-linecap="round" stroke-linejoin="round" stroke-width="0.5"><title>2025-04-01 8.4km</title><desc>1743465137000</desc></polyline><polyline fill="none" points="165.87663731607608,206.0499254213064 165.19626368465833,205.80021204409422 166.400001648115,205.612926936883 167.28972101211548,206.61178010556614 168.0224310774356,204.42678644298576 167.3943938787561,203.36550067539793 163.8878528547939,202.55392782448325 162.57944202469662,198.99547888053348 160.06729323137552,199.86948601703625 159.22991030011326,197.99661188130267 165.51028228364885,195.0 164.72523578582332,195.87401348521234 166.66168381413445,197.06017242214875 163.99252572096884,198.183899581898 167.08037527953275,196.9977430680883 176.44859682186507,212.35515062790364 179.53644638042897,211.04416915989714 180.3214928782545,211.54359103995375 181.78691300773062,214.1031210583751 180.9495300767012,213.04185395938111 179.79812854668126,214.66496751696104 181.57756727514789,213.29156404925743 182.0485951739829,213.7909838889027 180.16448357864283,213.91583877778612 183.88037033588625,218.72273045853944 179.9028014128562,220.34582725423388 180.37382931169122,222.84288989647757 181.83924944116734,222.7180370335118 181.62990370835178,223.34230106469477 176.02990535623394,223.46715378580848 176.08224178967066,222.59318414214067 176.81495185405947,223.46715378580848 176.2915875222534,222.40590475226054 178.3327084169723,224.71567943954142 182.5196230725851,224.84053184912773 181.73457657475956,224.84053184912773 182.72896880540065,223.15502192964777 182.62429593899287,220.15854709915584 183.77569746947847,220.7203873731196 184.77008969988674,221.84406619967194 184.50840753410012,222.90531631733757 182.36261377320625,222.2810517901671 178.69906344939955,224.77810564800166 180.68784791091457,224.9029580433853 183.82803390244953,227.40000000002328" stroke="#4dd2ff" stroke-linecap="round" stroke-linejoin="round" stroke-width="0.5"><title>2025-03-30 2.1km</title><desc>1743318651000</desc></polyline><polyline fill="none" points="37.370604670606554,236.69418623353704 37.23831378133036,235.80000000001746 34.548399028833956,236.79938450056943 34.72478688135743,237.95656386160408 31.99077516561374,238.53515245876042 32.07896909210831,240.1657164375065 30.57967234472744,240.95469694858184 30.57967234472744,241.69107754714787 30.13870271318592,241.27028877689736 30.050508786691353,242.21706297271885 29.609539155149832,239.85012385694426 30.0064118236769,240.32351264712634 29.25676345010288,240.79690095369006 23.480061276583,241.5332818030147 24.053321797633544,241.63847897172673 24.00922483461909,243.5320239253051 22.509928087238222,242.90084313362604 19.20265585044399,243.5320239253051 19.11446192418225,245.05737395668984 20.96653437661007,244.84698114733328 22.15715238195844,250.73794371061376 21.93666756595485,249.4756008926488 22.730412903008983,248.79183043082594 19.33494673995301,250.00157748468337 18.6734922924079,251.15872388603748 18.629395329160616,249.89638221397763 21.583891860907897,248.79183043082594 22.81860682903789,249.89638221397763 22.15715238195844,250.58015104645165 23.03909164504148,263.67675939027686 23.215479497564957,265.5176184527227 24.273806613404304,266.3065558131202 21.892570603173226,266.6221303814091 21.892570603173226,268.20000000001164 21.142922229366377,267.5688527970342" stroke="#4dd2ff" stroke-linecap="round" stroke-linejoin="round" stroke-width="0.5"><title>2025-03-30 1.4km</title><desc>1743309591000</desc></polyline><polyline fill="none" points="69.16330991860013,240.33075827798166 68.90689272177406,242.1155801453715 70.21228936023545,243.51597001614573 70.5386385199381,244.6692264359299 70.39877459441777,245.49297779957124 69.4896590783028,246.56385055820283 70.88829833385535,251.8906886525947 70.09573608904611,252.4947559878492 69.32648449845146,252.30255290136847 68.81365010468289,253.15373688894033 67.60149608319625,253.92254576868436 66.57582729577553,254.0323754177225 65.96975028491579,255.10321199485043 68.39405832800549,257.6292700488557 68.60385421628598,260.81426378649485 66.7856231839396,261.8027019585861 65.31705196562689,263.36772115963686 60.421814571134746,266.79974688724906 59.95560148591176,267.6783379822009 59.69918428896926,266.4977304930653 58.370476996176876,266.168257651545 56.64548858080525,268.1999999999971 56.41238203831017,267.5959701967804 57.48467213427648,264.5208870021306 57.2049442831194,263.36772115963686 59.279592512291856,262.0498108977481 60.02553344855551,260.4298701200605 61.07451289030723,259.7709081890789 60.584989150753245,259.2766856135131 61.07451289030723,259.5787106356729 62.00693906075321,261.11628697138804 64.94408149749506,259.30414244860003 65.48022654559463,259.46888339663565 65.45691589126363,258.91974648569885 65.5268478540238,259.4139697592327 65.06063476880081,259.1394013932586 65.10725607734639,258.34315144513675 64.61773233790882,258.260780617813 64.8741495347349,257.71164108214725 63.9650340185035,256.6408155560057 64.15151925256941,256.2015012073243 65.48022654559463,256.0093009396078 65.71333308808971,254.99338281112432 66.38934206170961,254.306949331527 66.08630355622154,253.56559907963674 68.44067963655107,255.18558385137294 69.04675664729439,255.15812656881462 70.18897870613728,256.2564155426662 70.63188113702927,257.4096138289169 71.21464749344159,257.1075862148573 71.58761796168983,256.03675812970323 70.63188113702927,250.27068276178034 69.2565525356913,246.61876698756532 70.39877459441777,245.49297779957124 70.5619491742691,244.1475158502726 68.95351403020322,241.86845171557798 69.2099312270293,239.17748205956013 71.0048516051611,235.7999999999738" stroke="#4dd2ff" stroke-linecap="round" stroke-linejoin="round" stroke-width="0.5"><title>2025-03-26 3.9km</title><desc>1742943197000</desc></polyline><polyline fill="none" points="99.39928170311032,237.2179407824733 99.26016799226636,236.69554326131765 99.86720963969128,236.7552459363942 99.93044314463623,236.3821037885209 99.31075479614083,235.79999999998836 99.18428778630914,236.0835893354233 98.88076696253847,235.99403487211384 97.51492325577419,238.21795331519388 97.51492325577419,238.54631404091197 97.36316284391796,238.48661214957247 97.24934253504034,239.21795851853676 96.65494758856948,240.41198498201265 96.75612119649304,240.78511610902206 98.22313851118088,241.65077639398805 99.29810809524497,242.63583141718118 99.13370098231826,243.0388064224535 98.95664716849569,242.82985656824894 98.96929386950796,243.66565406526206 98.72900655074045,244.05370116290578 99.13370098231826,244.30742366863706 99.1210542813642,244.9491902536538 98.79224005562719,245.18798635202984 98.61518624186283,245.0088893174543 98.43813242798205,245.56110441913188 98.0460846973001,245.456631463152 97.91961768746842,245.72527604541392 98.0460846973001,245.59095382044325 99.07046747743152,246.54613121438888 99.70280252682278,246.75507537806698 99.75338933075545,247.78486693941522 100.17073046340374,247.6505467416864 101.11923303751973,248.11320464395976 101.8780350968591,249.54594174628437 101.72627468494466,249.65041157160886 101.84009499388048,249.56086601193238 102.5356635482749,250.6354088500375 102.97829808283132,250.75480197640718 103.04153158783447,250.9786638069054 102.75065746501787,252.73969740020402 103.34505241148872,253.76944380324858 102.8644777739537,254.44101335851883 102.2068493225961,258.5002078756661 102.29537622950738,258.9628289992979 101.48598736623535,259.18667736712086 101.85274169489276,259.0075987021846 101.70098128303653,258.84344305298873 100.89159241976449,259.33590940842987 100.33513757627225,258.485284587543 100.91688582173083,259.09713806401123 100.82835891481955,260.02237469682586 101.18246654246468,259.5746803351067 100.66395180200925,259.67914248417947 101.11923303751973,259.6343730015069 100.90423912071856,259.09713806401123 100.29719747329364,258.58974757036776 100.55013149307342,258.8732895493449 100.37307767925085,258.67928720632335 100.68924520391738,259.52991081816435 100.67659850290511,260.33575987635413 98.86812026164262,264.51416018628515 98.95664716849569,264.94691576607875 102.47243004338816,265.9019577082654 102.30802293046145,267.17036245792406 102.10567571461434,267.12559543208044 102.06773561169393,267.49865353200585 101.72627468494466,267.4688089215633 101.53657417016802,268.1999999999971" stroke="#4dd2ff" stroke-linecap="round" stroke-linejoin="round" stroke-width="0.5"><title>2025-03-24 3.9km</title><desc>1742796232000</desc></polyline><polyline fill="none" points="143.86357211302675,268.1977165345579 143.92945714305097,268.2000000000007 143.9682130430665,268.10409423736564 143.91976816805254,268.1543306438816 143.92170596305368,268.0538577105999 143.8655099080279,268.0629916334983 144.05735161309713,268.01503849392975 144.0747917681074,267.980786184291 144.0108445330843,267.8711784178013 144.0476626380987,267.8118073052792 143.97402642806264,267.74786899625906 144.04184925309528,267.5788882418674 143.9914665830729,267.565187039987 144.03603586809186,267.4624277407638 143.94689729806123,267.36880216340796 143.8015626730048,267.4144732289351 143.79768708300253,267.3733692744354 143.83062959800736,267.3939212617479 143.8383807780192,267.3505337093666 143.94689729806123,267.3276981194613 143.8422563680142,267.3596679383809 143.88488785804657,267.3551008243667 143.85000754802604,267.25462406475344 131.54113370327104,235.94408051047867 131.51400457326235,235.96237637726153 131.53919590827718,236.0012550410156 131.60314314330026,235.95322844587463 131.61089432329754,235.9806722280373 131.73103761334642,235.93950654128275 131.75235335835896,236.0035420189888 131.70778407334,235.82058299086566 131.71359745834343,235.85260093637407 131.80854941337748,235.8000000000011 131.89962577840924,235.80457399972147 131.9674486034346,235.88919281405106 132.02170686345926,235.9006277626886 131.95000844843162,235.91892366750653 131.91319034341723,235.84573995217943 131.95969742343732,235.85260093637407 131.9306304984275,235.85946191831317 131.91319034341723,235.90520174039557 131.5023778032628,236.02869876013028 131.62252109330439,236.5638440824332 131.51788016326464,236.60043471525387 131.48299985325866,236.6621812629328 131.3725455382155,236.68047650129665 131.3628565632025,236.7719524529748 131.37060774320707,236.8085427215865 131.48493764824525,236.7948213783584 131.51981795826578,236.86114112052746 131.48299985325866,236.74450970949692 131.4791242632491,236.80396894151454 131.4190526182283,236.8154033898245 131.24271327316092,236.79024759528875 131.06249833809125,236.8405591540868 131.06637392808625,236.79710826952578 131.06249833809125,236.8657148880975 130.6516857979368,237.05552535978495 130.6400590279227,237.18358928285488 130.49859999287582,237.2544814744033 130.29513151779975,236.8405591540868 130.21955751276255,236.8771493026361 130.15948586774175,236.86114112052746 130.19049058775272,236.88400994835501 130.176926022752,236.79253448695636 130.1052276077171,236.69191101714387 130.14010791773762,236.67361578878445 130.03740478268446,236.60958236345687 130.00058667767735,236.51353185773405 130.02771580768604,236.4838018498649 129.90175913264102,236.39003770197633 129.82424733260996,236.43120250161337 129.58202295751835,236.3511597612287 129.37467889244,236.2573950184451 129.26616237239796,236.22537769288647 129.14408128735522,236.08129912107324 128.8941057322445,235.93493257108275 128.799153777225,235.94865447867778 128.58987191713823,236.1819255297687 128.42709713707154,236.19107336108755 128.4251593420704,236.22080378522696 128.3282695920352,236.23452550518596 128.07829403694632,236.13618631313875 128.08216962694132,236.04242060618344 127.92520823188534,235.94408051047867" stroke="#4dd2ff" stroke-linecap="round" stroke-linejoin="round" stroke-width="0.5"><title>2025-03-24 4.7km</title><desc>1742777725000</desc></polyline></svg>