<?xml version="1.0" encoding="utf-8" ?>
<svg baseProfile="full" height="300mm" version="1.1" viewBox="0,0,200,300" width="200mm" xmlns="http://www.w3.org/2000/svg" xmlns:ev="http://www.w3.org/2001/xml-events" xmlns:xlink="http://www.w3.org/1999/xlink"><defs /><rect fill="#222222" height="300" width="200" x="0" y="0" /><text fill="#FFFFFF" style="font-size:12px; font-family:Arial; font-weight:bold;" x="10" y="20">Over 1km Runs</text><text fill="#FFFFFF" style="font-size:4px; font-family:Arial" x="10" y="280">ATHLETE</text><text fill="#FFFFFF" style="font-size:9px; font-family:Arial" x="10" y="290">Tao</text><text fill="#FFFFFF" style="font-size:4px; font-family:Arial" x="65" y="280">SPECIAL TRACKS</text><rect fill="yellow" height="2.6" width="2.6" x="65" y="283" /><text fill="#FFFFFF" style="font-size:3px; font-family:Arial" x="70" y="285.5">Over 20.0 km</text><rect fill="red" height="2.6" width="2.6" x="65" y="287" /><text fill="#FFFFFF" style="font-size:3px; font-family:Arial" x="70" y="289.5">Over 40.0 km</text><text fill="#FFFFFF" style="font-size:4px; font-family:Arial" x="120" y="280">STATISTICS</text><text fill="#FFFFFF" style="font-size:3px; font-family:Arial" x="120" y="285">Number: 22</text><text fill="#FFFFFF" style="font-size:3px; font-family:Arial" x="120" y="290">Weekly: 2.4</text><text fill="#FFFFFF" style="font-size:3px; font-family:Arial" x="141" y="285">Total: 312.9 km</text><text fill="#FFFFFF" style="font-size:3px; font-family:Arial" x="141" y="290">Avg: 14.2 km</text><text fill="#FFFFFF" style="font-size:3px; font-family:Arial" x="167" y="285">Min: 1.4 km</text><text fill="#FFFFFF" style="font-size:3px; font-family:Arial" x="167" y="290">Max: 98.8 km</text><polyline fill="none" points="43.272261370904744,60.8475848743401 41.31197950022761,61.121495777362725 40.1588725176407,63.01147265829786 37.89878283138387,64.81926298390317 37.20691864192486,64.46318412660912 37.25304292119108,65.12056007419596 32.778987828292884,64.51796552298765 30.034593209507875,62.71017297341314 27.86675208201632,62.271918224476394 25.468289557960816,60.984540364166605 22.5393978219945,61.25845111395756 18.019218449830078,59.039765231267666 17.096732863690704,58.13585040527687 14.606021780986339,58.628895269401255 12.184497117181309,59.75193819888227 12.0,59.31367815626436 12.9455477258889,57.396281247914885 13.568225496564992,58.02628474516678 12.34593209484592,59.31367815626436 12.299807815463282,58.02628474516678 12.807174887973815,58.02628474516678 12.59961563104298,57.50584718995378 13.245355541352183,57.42367273797572 13.452914798283018,57.83454472194717 14.444586803321727,56.19105265031976 15.297885970561765,56.82105924806092 16.05893657915294,56.30061913150712 16.05893657915294,55.75278623505437 16.79692504799459,55.4240859089623 17.46572709805332,55.4240859089623 16.81998718774412,56.3280107442115 17.46572709805332,55.396694195165765 19.88725176162552,55.369302478356985 25.6066623958759,56.711492999558686 28.258808456128463,56.98540852875158 34.80845611775294,60.765411543732625 36.4458680334501,58.87541732925456 37.85265855223406,58.24541601644887 38.49839846242685,58.68367797082465 40.87379884684924,56.903233902165084 42.026905829668976,57.28671525690879 43.22613709163852,58.24541601644887 43.36450992943719,58.738460659980774 42.85714285715949,59.77932942552434 41.865470852004364,60.21758863491414 41.265855220961384,61.121495777362725 43.68737988465,60.62845593142265 46.062780268955976,59.58759077482682 46.316463805153035,59.14933043802739 46.29340166563634,59.61498201978975 46.20115310687106,58.16324181271193 48.0,56.903233902165084 48.0,56.24583589707618 44.40230621385854,51.972705847088946 39.62844330549706,44.87804961801157 40.04356181935873,43.15229134574474 41.03523382439744,41.618273781466996 41.358103779610246,39.3172294152464 42.603459320846014,36.08477342259721 42.67264573997818,34.98901594345807 41.24279308132827,35.3725316189375 40.481742472737096,34.93422794077196 40.458680333103985,35.29034973909438 40.68930172966793,34.906833934845054 40.57399103138596,35.23556180384185 40.9660474054981,35.39992557282676 42.90326713642571,34.87943992581859 43.59513132600114,35.0985919120576 41.796284432988614,34.93422794077196 40.94298526586499,35.3451376620942" stroke="#4dd2ff" stroke-linecap="round" stroke-linejoin="round" stroke-width="0.5"><title>2025-05-25 4.8km</title><desc>1748150210000</desc></polyline><polyline fill="none" points="82.43909350957256,35.58442690887023 82.28247727733105,35.18908830478904 81.07429491495714,35.00459673572914 76.10732298030052,37.50839891616488 76.19681797013618,38.668045905113104 75.32424181944225,42.12059843246243 74.63065564841963,43.14844808871567 71.14035104564391,45.5467470153817 70.04403742041904,46.94354755120003 71.38646226760466,48.0767949061119 71.81156346935313,50.079730771598406 71.40883601503447,50.89671302070201 70.08878491539508,51.529213517467724 70.91661357111298,53.4794130007358 72.30378591327462,54.48086069688725 71.81156346935313,55.086998083555955 71.52070475241635,56.66821892009466 73.60146326560061,57.195290241987095 73.15398831642233,57.64329996528977 72.39328090299387,57.01081540957966 71.87868471164256,58.40754993665905 72.6170183775248,58.82920406269841 73.10924082156271,59.936042656801874 72.21429092343897,60.17322169848194 71.38646226760466,62.255116669868585 69.41757249168586,63.52005678816931 69.64130996633321,64.6005212500022 68.67923882580362,67.76282860952779 69.10434002731927,68.0 70.35726988490205,66.18168008192151 72.68413961993065,66.65602572214266 77.2260103529552,63.41464536359126 78.76979892724194,61.859821530335466 79.97798128973227,61.38546651272918 80.38070874393452,60.72663856076542 80.47020373365376,58.35484311936307 82.19298228761181,58.93461747969559 83.35641715524253,58.17036916872894 82.61808348912746,53.00504159637785 82.12586104520597,52.84691758877307 82.50621475186199,52.2144205278164 82.10348729777616,49.76347883962444 81.09666866238695,47.36522160405002 82.08111355022993,46.15290672639094 82.14823479275219,44.96694065700285 80.55969872360583,42.88489730996662 81.25328489462845,39.6695547519048 82.30485102476086,37.033996277241386 82.6628309841035,36.928573342534946 82.46146725700237,35.847985620232066 83.46828589239158,34.47747719362087 83.93813458899967,32.65890597930411 84.6540945074521,32.0" stroke="#4dd2ff" stroke-linecap="round" stroke-linejoin="round" stroke-width="0.5"><title>2025-05-20 4.1km</title><desc>1747694891000</desc></polyline><polyline fill="none" points="133.4844425264455,33.66072032097145 133.7595403365267,32.88875062449006 134.16118313928018,32.70062203786438 134.30973595674732,32.28543960386742 134.60133963546832,32.051898211644584 134.5133083362307,32.0 134.56832789824693,32.071360029334755 134.5133083362307,32.006487278926215 134.56832789824693,32.04541093766602 134.33174378154217,32.33733756654692 134.16668509549345,32.759006835309265 133.6990188182972,32.97957110860443 133.41841905200272,33.959126091162034 133.24235645352746,34.062919051732024 132.90673712515854,34.555933142222784 133.59998360666214,35.01650840479488 134.4527868180012,35.256525086519105 134.31523791296058,35.2500381619102 134.42527703696396,35.39923724914843 134.23821052609128,35.256525086519105 134.22720661369385,35.340855042170006 134.2492144385178,35.256525086519105 134.33724573775544,35.301933539023594 134.25471639473108,35.23057738381249 134.4802965990093,35.26949893362689 134.24371248230455,35.23057738381249 134.19419487650157,35.301933539023594 134.2051987889281,36.07387193038085 133.86407750434591,36.748498963788734 133.56697186944075,37.01445559637432 133.8530735919485,37.24797751333608 133.42392100815778,37.70204528440445 133.42392100815778,37.70853194173469 134.1446772706695,37.97448428415373 134.08965770865325,37.58528533128265 133.87508141677245,37.20905725747434 133.5449640446459,37.01445559637432 133.90809315396473,36.73552543911137 134.21070074508316,36.03495090666547 134.17218705170671,35.340855042170006 134.23821052609128,35.21111659936287 134.6178455040499,35.37328960868763 134.87643744557863,35.723581800495595 135.62470348906936,35.63276550432056 136.3894754011999,35.794937364549696 136.28493823335157,35.00353450255352 135.56418197083985,34.35483578277854 135.833777824766,33.67369451600098 136.0813658538682,33.4336714498786 136.13088345967117,33.07687861632803 136.4334910507896,33.122288732145535 136.25192649613018,33.05092996318126 136.09787172247889,33.10282725818615 136.0813658538682,33.39474869928745 135.81176999994204,33.69315580325929 135.56418197083985,34.37429684727613 136.295942145749,35.05543009462781 136.54353017485118,36.54740901349214 137.0332042768423,37.37122482232371 136.90665928419912,38.37016727713126 137.2312747001124,38.33773434388422 137.8144820575253,38.499898833317275 138.9698928600119,38.117189929176675 139.8281980275642,38.59071075440443 139.8281980275642,38.71395528281573 139.48707674304023,39.44044415898679 138.83784591115545,39.764766687156225 138.0620700866566,40.484756383342756 137.95203096259502,40.452324602374574 137.50637251022272,39.53774110299855 136.74710255433456,39.92044087294562 136.13088345967117,40.387460987389204 135.4816526278155,41.600398889702774 134.5298142048414,42.52143682964379 133.84206967958016,43.41651638473195 130.34282553495723,48.79319657567612 130.38133922836278,48.98127430678869 131.0250681040343,49.435252589424636 130.08973554964177,51.711577219230094 129.79813187092077,51.64024073107794 128.23007435331238,50.69988812657175 128.04850979862385,50.706373367793276 124.50525000441121,56.81515695129201 122.7556279321143,58.92260677307422 120.37878285272745,59.415415052175376 119.36642291155295,59.76556582567355 110.88790840393631,64.09040661035033 110.40373625812936,64.66746057726778 109.93056802474894,65.58165823074523 109.80402303213486,65.56869098620518 109.76000738248695,65.67242886350141 109.66647412706516,65.61407632973714 109.66647412706516,65.38714926637113 109.5069173972006,65.17318867220456 109.3528626235202,65.14725400252792 109.28133719289326,65.30934550284292 109.07776481340989,65.27692723806103 109.00623938278295,65.40011655041599 108.94571786455344,65.27044358297644 109.09427068202058,65.34824739730902 109.34736066733603,65.10835197684719 109.78751716352417,65.51033835086855 109.77101129488437,65.64649441109577 109.83153281311388,65.60110909225114 109.22631763087702,66.74221518864215 108.30198898888193,66.98210403137273 108.37351441953797,67.42946172601296 107.98837748539518,67.63693082128157 107.53171512059635,67.57858021124775 107.76279728108784,68.0 107.20709970465396,67.89626617464819 107.24561339808861,67.60451382278552 106.83846863912186,67.13122363608636" stroke="#4dd2ff" stroke-linecap="round" stroke-linejoin="round" stroke-width="0.5"><title>2025-05-17 14.6km</title><desc>1747468743000</desc></polyline><polyline fill="none" points="183.89004014537204,50.61160287699022 181.8425547007937,51.609113398808404 181.93102629412897,52.18975050780864 181.67825031327084,53.61900060089829 181.03367156221066,54.7653675051115 179.04938011290506,56.135040062101325 178.4300789599074,56.968747089311364 177.7981390078785,57.013409822655376 177.40633623761823,57.460036355041666 176.96397827129113,57.54936148683191 174.82802123343572,59.8866817397502 173.61469652550295,59.7526963056298 172.94484017638024,58.08531105484872 172.48984341096366,58.35328505275538 171.80734826280968,57.28138591675088 171.32707389921416,57.340936088745366 170.9731875261059,57.16228549518564 170.90999353094958,56.8794215790258 169.8483344115084,58.51704668239108 169.00153487577336,59.231640594181954 168.6097321055713,60.12487774361216 168.7234812969109,61.13720614108024 169.1405616652337,61.28607733351237 169.1784780623857,62.6407977524068 169.74722401920008,64.15925966661598 170.45499676541658,63.697768119411194 171.2006859088433,62.43238009810739 172.2876226262306,62.3430581492139 172.9195625783177,63.012971346703125 173.77900091308402,65.14178488105244 175.11871361132944,65.42463174309523 176.20565032883314,66.00521031519747 177.7981390078785,65.8563442490995 178.0129985915264,66.07964328757953 178.3542461656616,67.61295352537127 179.7445140600903,68.0 184.0543445328949,65.00780458477675 184.29448171460535,64.5016556167393 184.2439265184221,63.37025704635016 185.49516762344865,63.56378641141055 185.8869703937089,63.0278582694591 185.87433159461943,61.89644753151515 185.33086323586758,58.84456935450726 184.69892328389687,57.10273524560034 185.28030803980073,56.43279315416294 185.25503044168,55.6735214907967 184.40823090600315,54.5420500291948 184.59781289164675,53.09792156469484 185.33086323586758,51.86221192832454 185.50780642247992,50.5520497802936 186.01335838413797,49.91185235585726 186.30405076197349,48.824998715441325 186.83488032175228,48.21457028694567 183.7889297530055,45.04327638953691 182.71463183459127,45.29638704887475 179.35271128983004,45.445275453603244 173.38719814282376,44.611498303042026 172.0222078464576,44.075496026620385 170.21485958370613,41.9612443739461 167.95251455547987,42.512144074833486 167.20682541205315,40.21919560525566 165.9176679099328,41.06788879838132 162.96018893452128,42.27391744904162 161.0011750832782,44.00105110014556 159.72465638018912,43.19704331633693 156.59023421816528,40.278753193852026 153.16511967824772,34.51643654712825 156.994675787515,32.0 157.53814414620865,32.580720229874714 157.86675292125437,33.369900185396546 157.63925453851698,33.31033959268825 157.29800696438178,32.69984202402702 157.7024485337315,33.42946075220243 157.0705085817608,34.769566658273106" stroke="#4dd2ff" stroke-linecap="round" stroke-linejoin="round" stroke-width="0.5"><title>2025-05-12 8.9km</title><desc>1747004623000</desc></polyline><polyline fill="none" points="27.40785719806445,86.44526090051295 27.176415876485407,87.1125278588006 26.080926954222377,88.83525278256275 25.0368694368226,90.09086723652581 24.68199274368817,90.654974641242 24.44026514113648,91.10383020676454 24.393976876832312,91.66186180178556 23.889949109754525,92.25021513413594 23.396207623707596,93.24494268685157 23.375635061762296,93.5360790913328 23.267629111680435,93.65132016356802 23.283058533153962,94.30030489918136 23.370491921319626,94.21539143931295 23.25734283073689,94.35489205488193 23.298487954569282,94.03343358857455 23.149336880655028,93.84540985050626 23.29334481409751,94.0213030440209 23.303631095041055,94.22752194150962 22.789317047048826,95.3192563018747 22.907609278103337,95.41023319754822 22.74302878274466,95.40416807581278 22.161853908502962,96.70208905103937 21.39038283651462,98.97641022364405 21.39038283651462,99.34029297900634 21.03550614338019,99.87398337971172 19.734291601955192,102.9304751939635 19.405130611237837,105.71998381291269 19.51827970179147,107.44213233425398 19.605713089957135,107.74532197703957 19.898872097284766,108.0 20.233176228502998,107.89691617878998 22.187569610920036,106.5446813067174 22.367579527694033,106.26574087571134 22.383008949138457,105.88371149399609 22.455012915859697,105.79881571950318 24.234539521945408,104.61026127159494 24.774569272325607,104.37982430664124 25.011153734405525,104.62238950646133 25.813483649282716,104.31918284140193 29.53711735678371,102.57874460972744 29.89199404991814,102.20881866422133 30.987482972152065,101.9419853071704 31.357789086701814,101.69940841707648 31.326930243812967,101.59631291839105 31.51208330108784,101.40225028475834 32.65900362812681,100.92315525843878 32.85958610687521,100.76547751161343 32.65900362812681,100.36521660798462 32.55614081854583,100.38341034791301 32.58699966140557,100.46224981885825 32.66414676862769,100.34702286208267 32.720721313904505,100.48044352704892 32.844156685401686,100.5168309255605 33.47161982397665,100.21966647420777 33.54362379069789,100.0983744050609 33.43047470014426,99.69810869984212 33.57962577402941,99.17048132283526 33.51790808828082,99.0977047400047 33.43047470014426,99.22506369744224 33.49219238589285,99.23112840242175 33.55391007164144,99.00673387754796 33.44076098111691,98.71562611755144 33.24532164284028,98.55794211124885 32.854442966374336,98.43058162585658 32.32984263743856,97.93933130684673 32.062399332469795,97.94539615204849 31.70237949883449,98.21831350198408 31.213781153288437,98.23044313090577 31.02862809598446,98.46697036574187 31.105775203177473,98.75807942747997 31.532655863033142,98.90363338683892 31.527512722532265,98.97641022364405 31.620089251198806,98.9521512886422 31.522369582089595,98.96428075747463 31.810385448945453,99.36455174471848 31.933820820471738,99.46158670165823 32.15497586110723,99.44945734130306 32.21155040638405,99.64352678956493 32.576713380462024,99.89217728035874 32.85958610687521,99.58894482569667 32.916160652122926,99.2371931067537 33.332755031005945,99.20080487089217 33.199033378536114,99.07344585790997 33.09617056892603,98.77627369323454 32.89558809020673,98.69743183195533 32.91101751165115,98.47303515341264 33.35847073342302,98.65497847573715 33.523051228781696,98.87937442007751 33.58476891453029,99.17654603376286 33.44076098111691,99.68597939108804 33.461333543004,99.92856506381213 33.91392990524764,100.4016040819115 35.518589735002024,99.23112840242175 35.662597668444505,98.89150390477516 35.101995356119005,94.4276748458069 35.1431404799514,92.37152432524454 35.307720975310076,90.56398996318603 35.210001306200866,89.33871512465703 35.22028758714441,87.33697039875915 35.78088989946991,85.16529912978149 37.848432372440584,82.11996351250855 38.36274642043281,80.60329985056524 38.198165925074136,80.47589821805741 38.22388162749121,80.37276334921262 38.4861817919591,79.81461838442192 39.699962945247535,77.96420638061318 40.39428691001376,76.5141683279071 40.35314178618137,76.39282451521649 39.674247242859565,75.94385010348196 39.51995302841533,75.72542880727633 39.787396333384095,75.05802508061242 40.59486938876216,73.54723611352165 40.56915368634509,73.41375077516932 39.19079203772708,72.35192415791607 39.40166079738992,72.19416532841933 39.154790054337354,72.42473577424607 39.19593517816975,72.35192415791607 39.103358649561414,72.35799179624155 39.067356666200794,72.43080340462984 39.226794021058595,72.46114154659881 38.97478013756336,72.1577593810398 39.29365484730806,72.08494741469985 39.298797987779835,72.0 39.391374516446376,72.04247372359532 39.32451369019691,72.07281207769483 39.31937054969603,72.00606767678619 39.381088235473726,72.06674440820643 39.31422740922426,72.02427070318299 39.37594509500195,72.07281207769483 39.31422740922426,72.10921808075727 39.283368566364516,72.0 39.33479997116956,72.09708274905279 39.35537253305665,72.00606767678619 39.27822542586364,72.03033837732437 39.35022939258488,72.11528574561817 39.29365484730806,72.03640605078908 39.29365484730806,72.11528574561817 38.97478013756336,72.20630063889257 39.5456687308033,72.77058964821117 36.93809650748153,77.10268205923057 36.63465121915215,77.19368878066234 36.48550014523789,77.13908476569486 35.98661551869009,76.6840492203628 36.248915683157975,76.55663859972265 35.97632923771744,76.66584772102215 35.63173882558476,76.33215250947978 35.46715833019698,76.39889171213508 35.492874032614054,76.59910883907287 36.38778047609958,77.52131174333044 36.44949816187727,77.80039644678254 35.55973485883442,79.20793271506045 35.600879982695915,78.94705584035546" stroke="#4dd2ff" stroke-linecap="round" stroke-linejoin="round" stroke-width="0.5"><title>2025-05-11 17.9km</title><desc>1746934812000</desc></polyline><polyline fill="none" points="82.24269558256492,72.0 83.07133145874832,75.4984570471861 70.64179331797641,79.44435189737123 70.15842239023186,80.4613283604267 80.65447682014201,99.29523278455599 81.82837764453143,101.73584215348819 81.58669218083378,102.38666862991522 83.17491094314028,104.82725783393835 82.41532805678435,106.00687024238869 82.4843810464954,107.47121150718885 80.89616228407249,108.0" stroke="#4dd2ff" stroke-linecap="round" stroke-linejoin="round" stroke-width="0.5"><title>2025-05-09 1.4km</title><desc>1746749326000</desc></polyline><polyline fill="none" points="118.88502233324107,78.64893712931371 117.49948284146376,78.18933939746057 116.77025152998976,78.46509814742603 116.33271274296567,78.06677984645648 115.5305583004374,78.71021675711381 114.48532675404567,77.85230047404184 113.85332628397737,76.22837870105286 113.07547955180053,75.92197707379819 113.53732604905963,73.93035649381636 112.22470968833659,72.0 110.71763164468575,72.61281335007516 109.45363070489839,73.80779466108652 109.08901504904497,73.47074928223446 108.77301481412724,74.08355869246589 108.4813222894445,73.501389791767 108.23824518569745,74.206120377552 107.75209097808693,74.14483954329626 107.9951680819504,74.4206031683716 107.2659367704764,75.55429457947321 107.50901387410704,74.51252430294699 108.01947579230182,74.26740119545138 107.75209097808693,74.14483954329626 109.81824636051897,73.62395178877341 112.29763281950727,72.0 113.48871062835678,73.59331129571365 113.02686413098127,76.04453777395247 113.53732604905963,75.86069669912104 114.55824988509994,78.03613994838088 115.67640456266236,78.86341575480765 114.94717325130478,79.07789417932509 114.77701927861199,79.5681298229465 116.01671250804793,82.5401609235123 115.55486601078883,85.35895886988146 120.3921003768919,84.43978944250557 121.97210155182984,84.56234557952848 121.97210155182984,84.93001359670598 121.65610131679568,84.43978944250557 122.0207169726491,84.10275972726231 124.6945651145652,85.26704209328454 128.14625998900738,86.03301410288259 129.11856840422843,86.73770608686027 130.62564644799568,89.15815332638158 129.84779971581884,91.4560225810128 127.36841325671412,93.99897098740621 124.32994945906103,94.55045004512067 124.59733427304309,95.16320299456129 125.73979666107334,95.46957885399752 123.98964151344262,94.73427610225917 126.39610484137665,95.62276662982185 129.6533380326582,95.19384059899312 133.56687940424308,96.3580665262416 134.34472613653634,96.97081463482755 139.03611424029805,97.30782539500797 138.45272919128183,107.50982527241285 138.54996003268752,108.0 139.1576527924044,107.8468205104 139.40072989603505,106.37629219268274" stroke="#4dd2ff" stroke-linecap="round" stroke-linejoin="round" stroke-width="0.5"><title>2025-05-05 3.1km</title><desc>1746429236000</desc></polyline><polyline fill="none" points="169.06115314454655,72.04252576418003 168.90936353316647,72.0 168.63951533520594,72.20554087675555 167.9367856530007,72.33311757094634 167.33524904499063,73.01352140987001 166.73933427446173,73.26158313236738 166.76182162429905,73.8002274384744 166.9529640978435,74.21838173638025 166.73933427446173,75.08302929190177 167.09913187177153,75.21768624584365 167.2284341332852,75.5720450130757 167.4027110944735,75.6570907639798 167.67818112991517,76.03979495113526 168.1616591513157,76.14610117845587 168.8924980208103,76.88315181262078 168.50459123624023,77.66271342428081 168.5214567485673,77.93910069184858 168.63951533520594,78.05248992238921 168.5439440984337,78.24383369781208 168.76319575926755,78.20839971754685 168.78568310913397,78.31470158715456 168.48772572385496,78.22966010855453 168.56080961078987,78.39974292907937 169.99437816251884,78.69029981585118 170.36541943476186,78.67612634618854 170.72521703207167,78.888727992231 170.8713848059706,79.25723548820315 170.64088947020355,79.6753466541777 170.1630332862842,79.7462126260034 169.44343809166458,80.10762760585567 169.5896058655635,80.39817511320143 169.37035420472967,80.49738609174892 168.99931293248665,80.97926534125872 169.15110254386673,81.06430240028203 169.0780186569027,80.97926534125872 168.9543382328411,81.02178388786342 168.87563250842504,81.22020332020475 168.49334756130702,81.39736289886423 168.02111321483972,81.4469674746033 167.85245809110347,81.31941275733334 167.588231730595,81.31941275733334 167.48141681888956,81.63121263440553 167.54887886840152,81.73042130087924 167.40833293195465,81.72333497372892 167.23405597076635,81.97135585927026 167.1890812710626,82.37527309868892 167.3521145573468,82.77918725466952 167.62196275533643,83.10515081655103 168.33031427502283,83.39568186395627 168.9936910950637,83.51614548894577 169.56711851575528,84.11137349278215 169.59522770304466,84.38064110440246 169.4659254415019,84.74202442965179 168.98806925758254,85.30180941387516 168.48772572385496,85.50021279704015 168.14479363893042,85.50021279704015 168.13354996402632,85.59941420964242 167.9873821900983,85.57107096787877 167.99300402755034,85.67735804625408 168.1729028262198,85.59941420964242 168.95996007032227,85.71987281783004 169.2298082682828,85.57107096787877 170.33168840999133,85.89701733168476 170.47785618391936,86.04581826507638 171.49540876378887,86.09541848321533 171.56849265072378,86.18044732044291 171.39421568953549,88.73124891003317 171.53476162598236,90.07037052828673 173.3056404252129,96.77963907153753 174.14891604389413,99.07490636024522 170.40477229698445,100.83171038232467 170.2473608481523,100.98046933603109 167.09351003429038,106.10885577393128 166.67187222497887,107.34837740633884 166.69998141226824,107.93625466532467 166.42451137682656,107.95042030189143 166.6044101754669,107.67418970547806 166.4076458644413,108.0 166.6550067125936,107.97875156362716 166.7674434617511,107.20671925970237 166.6437630376895,107.1996363424114 166.68311589988298,106.8100744330477 166.68873773736414,107.34837740633884 166.9023675607168,106.17260330847421 169.0555313070945,102.77971119882204 169.04990946961334,102.49637007988349 168.80817045891308,102.29803039441322 168.3078269251855,102.2130274446281 168.21225568841328,101.99343585931638 168.07733158941846,102.07135555835339 168.09419710180373,102.17760950858792 168.17852466367185,102.1563587355995 168.20101201350917,102.08552276404589 168.06608791451436,102.09260636545878 168.0604660770623,102.14927514269584 167.64445010517375,102.56720550177852 166.86863653597538,102.74429364188109 166.67187222497887,101.88009791054355 166.91923307310208,101.58966830938152 166.81241816142574,101.58258464067694 166.68311589988298,101.03005556104472 166.44699872666388,101.06547426476027 165.98600805510068,100.59086166635825 165.85108395613497,100.75378885884493 165.99162989255274,100.25083808431737 166.25585625309031,99.78330209314663 167.14972840889823,99.62745584521326 167.20032494599582,99.3936856130822 167.36335823228,99.26617414229622 167.065400847001,99.17408233348397 167.04853533464484,98.78446136977436 166.86863653597538,98.74195709116248 166.67187222497887,98.86946982461086 166.62127568785218,98.98989823529337 166.7280905995285,99.1103263720106 166.87425837345654,98.98989823529337 166.6943595747871,99.0961583701428 166.57630098820664,98.78446136977436 166.49759526379057,99.0040662655847 166.04222642967943,99.37243372261582 165.8848149808764,99.89664453075238 165.86232763103908,100.73253751434822" stroke="#4dd2ff" stroke-linecap="round" stroke-linejoin="round" stroke-width="0.5"><title>2025-05-04 11.1km</title><desc>1746326389000</desc></polyline><polyline fill="none" points="37.81900279060574,146.99565299538335 37.810025234157365,147.01697555090868 37.7516711172284,147.00575315987498 37.72204518094077,146.99901971820236 37.677157398687996,146.9619856944637 37.670873109171225,146.95076323143803 37.730124981746485,146.85088266325238 37.79476338819222,146.7352890921975 37.774115008352965,146.7891581347949 37.86478832850844,146.7712018248776 37.84952648253966,146.85537170253156 37.89980079866291,146.93280726004014 37.96174593817341,147.03942028890197 37.9913718744574,147.33680751965403 38.10987561960428,147.3693511563979 38.27416490265023,147.43107150745618 38.271471635718626,147.53880051010492 38.40433947118436,147.65774971134124 38.37740680183197,147.665604789182 38.40523722682701,147.65213893704822 38.49231952439732,147.60949693243037 38.54618486309846,147.65774971134124 38.49052401310837,147.59939747921544 38.98339186223893,147.40862779484723 39.45561133154115,147.36598457901619 39.760848250858544,147.62296285153843 40.27077345725411,147.6757041644023 40.916259766047006,147.63642874949528 41.37501290066939,147.98990100677202 41.4845390893679,148.0 42.12015008606977,147.86085726845067 42.14259397719434,147.54890003470337 42.147980511064816,147.12807642947064 42.16952664654309,146.66121860585827 42.073466792524414,146.2639205278374 41.864289727229334,145.9844540670647 41.849027881260554,145.62304215951463 41.772718651431205,145.31324839296485 41.51685829259077,144.9843608703286 41.42618497243893,144.55330827935813 41.83376603529541,144.39839345730434 41.91276853206,144.34226420729647 41.36423983292843,142.91421239016836 41.15506276763335,142.2730833926389 41.04374106764226,142.2248002813676 41.40553659260331,141.1422888273337 40.87586076201842,139.88891995655104 40.67027471930123,139.43177649765767 40.25371609999638,138.6769309049905 40.53561137254292,135.92544926641312 40.28244428063772,135.8220688843394 38.43127214053311,135.79285246292238 38.40164620424912,135.42651501503406 37.237257132612285,135.5546225326416 37.00114739796118,135.41078238056434 36.83326709233734,134.6690681930777 36.603441647203,132.89656021389692 36.327830664169596,131.79712834989277 35.090723385284946,131.52955604662748 34.6346635175978,131.26309967058114 34.05650888218224,131.13380349809904 33.12553627825764,131.0123757458432 32.633566184769734,131.31931478748902 32.190074896108854,131.2035112428557 31.09122198656405,131.0697168438992 30.7132668599952,131.06634384878544 30.138703247161175,130.94041774497418 29.80024936897462,130.99438630243912 29.427680776279885,130.55925510173438 28.830673272314016,130.42095294698538 28.02628421434565,130.21967995738214 27.8754612659759,130.2983906296713 27.737206896636053,130.27477750413254 27.650124599065748,130.2983906296713 27.0549126063961,130.1027370479478 26.62847867498931,129.97454778875363 26.429176921788894,129.88796272695618 25.773815300897695,129.62595323272672 25.073565897757362,129.59896467375802 24.50708208573269,129.6945487696321 24.112967357552407,129.86097499582047 23.805934926942427,130.3096349522266 23.66139626808581,130.8088679579505 23.313964833450882,131.19226809668635 23.20713191168761,131.43961389510332 23.155062084279052,131.39464246431635 23.093116944768553,131.40588534420385 23.199949866528186,131.45535383996048 22.824688006898214,132.29964696552815 22.830074540768692,132.51098824995734 22.936009706878394,132.61890518807922 23.365136905220425,132.5053675387644 23.887630690645892,132.28615691886898 24.42359081073664,132.78190214672395 24.534014755081444,132.70546258076774 24.542992311533453,132.35135861379968 24.929027238904382,132.2142096437192 25.063690585662698,132.5031192532524 25.08254345420937,132.70209023122698 25.16244370662025,132.7830262528887 25.053815273568034,132.91566974222224 24.971221754221915,132.9763703135186 24.85810454294551,133.17083405597077 25.050224250986503,133.25738585964064 25.01700729212098,133.43048683792313 25.014314025182102,133.43273487951592 25.051122006629157,133.25626181586085 24.856309031656565,133.1876948656818 24.96673297599773,132.9763703135186 25.097805300178152,133.03145008849788 25.311471143697418,133.17645432957033 25.45152102432621,133.28211478543744 25.641845221078256,133.29447922150757 26.020698103293398,133.23040876808864 26.054812817801576,133.16408972277623 25.869875154923648,133.15060104042368 26.231670679881063,133.1101348656439 26.22718190165324,133.06742036221385 25.97670807668328,133.05617966793943 25.956957452493953,133.02358157094568 26.249625792781444,133.00559636076832 26.319650733094022,132.9954796634156 26.385186895182414,133.00559636076832 26.4228926322794,133.10563861217724 26.476757970980543,133.05168338608928 26.553964956452546,133.04943524427836 26.485735527428915,133.15734538426113 26.46059836936911,133.3192080399931 26.716458728209545,133.7631905634389 26.610523562092567,133.97337171624895 26.413017320181098,133.81826526886744 26.258603349229816,133.68226382194734 25.98209461055376,133.80028173059418 25.95336642991242,133.92391779222817 26.008129524263495,134.14870605088254 25.901296602503862,134.16668885625404 25.88872802347032,134.11386425783985 25.88154597830726,134.15207782976904 25.819600838800397,134.11274032666734 25.724438740424375,134.11049246388302 25.358154437242774,134.40608134944614 25.346483613851888,134.37910788246973 25.352767903372296,134.333028012863 25.36264321546696,134.1408385616396 25.3653364824022,134.14308641644766 25.40753099772337,134.01832958074556 25.379700572724687,133.9565124561077 25.419201821103343,133.92166987979635 25.368927504980093,133.9722477666055 25.41022426465497,134.01270986061263 25.377905061432102,134.19478691392032 25.34558585821287,134.3026825972538 25.358154437242774,134.40720524205426 25.665186867849116,134.15882138355755 25.813316549283627,134.1082446005048 25.836658196058124,134.1812998577634 25.862693109764223,134.18916730977435 25.86718188798841,134.1768041676496 25.862693109764223,134.18242377992465 25.97132154281644,134.1678127803334 26.00274299038938,134.0363126603488 25.98927665571682,133.7912899472758 26.29900235326204,133.6721479253938 26.408528541956912,133.81489335832157 26.67695747982725,133.9992225172191 26.88344127819073,133.94302502405935 26.95975050802008,133.79241392070617 27.212917599925277,133.8699677306704 27.466084691830474,134.0385605426436 27.594463749075658,133.8699677306704 27.853017374851333,133.8497363698134 28.21750616673671,133.8193892387526 28.499401439290523,134.04080842433996 28.798354069091147,134.11498818886594 28.744488730390003,134.08688986893503 28.759750576355145,133.9722477666055 28.82349122715459,133.86659584051995 28.8585036973127,133.77443032805513 29.17092266178952,133.46533141622513 29.532718186746933,133.38664990863435 29.87117206492985,133.1281198558645 31.143291813976248,132.8988083959166 31.941396582427842,132.64138771201124 32.65241905331641,132.28166023191807 32.822992625875486,131.71505874431386 33.68932682335071,131.53180458828228 33.68304253384122,130.03864265880566 33.68214477819129,129.6495681518718 33.69471335722119,129.31333053085473 33.25750635808072,128.99394876013866 32.75117217427032,128.67343039845673 32.67755621137985,128.43837595421428 32.58508737993543,128.08072089508096 32.265486370299186,127.71405267314276 32.23855370094316,127.50709187809571 32.28703250577746,126.71744536646474 32.27446392674392,126.40809099461876 31.8641895969522,125.77697330878618 31.609226993758057,125.4608344295566 31.358753168791736,125.29432241112227 31.281546183312457,125.01754524613898 31.214214509938756,123.78656568927272 30.92872821480705,123.55700323522615 30.312867842301785,123.52324352979394 28.898004945694993,123.31730643348601 28.085536086917273,123.13499731436605 27.895211890172504,122.77149281154016 27.73092260712292,122.49801017215123 27.301795408788166,122.49238286527907 26.967830308825796,122.73885542647895 26.565635779839795,123.16088094514089 26.179600852468866,122.921173012297 25.95246867426613,122.5914229239279 25.297107053378568,121.84296671349603 25.063690585662698,121.73041122577797 24.32573544542538,120.43704205363247 24.112967357552407,119.41594102680574 23.9154611156373,119.1930162671897 23.714363851147937,118.86649978208789 22.742992243198387,116.25954882845599 22.762742867387715,116.11313051615161 23.184688020563044,116.09173070585894 23.368727927798318,115.51842103699073 23.512368831005006,115.33369221600242 22.25371541664208,115.31003762636738 21.96912687715667,115.24808481833679 21.733017142509198,114.89776136977343 21.499600674796966,114.84932323158682 21.111770236129814,114.08666785154219 20.56952582651502,113.55490905878742 19.470672916970216,113.10311330963759 18.84044845414246,113.1594482526707 17.859201534098247,112.0169027124748 17.855610511513078,112.07211800596178 17.84483744377576,112.0664838087514 17.845735199418414,112.06197644829808 17.850223977646237,112.07775219944415 17.819700285715953,112.08113271373713" stroke="red" stroke-linecap="round" stroke-linejoin="round" stroke-width="0.5"><title>2025-05-03 98.8km</title><desc>1746244765000</desc></polyline><polyline fill="none" points="76.55319359901114,112.17738403839166 76.27070120679855,112.27504312651308 76.21356791399376,112.28301524095514 75.88267092649039,112.13851935442335 75.66762756050593,112.0 75.51209804119935,112.01395170527348 75.44068142519245,112.12257481055212 75.27642320837913,112.20329371605567 75.17723346391722,112.29497339675436 75.06455391421696,112.43448380869995 74.81538927614383,113.01741001590563 74.75270135764731,113.12601862105384 74.69794861870832,113.15591062233807 74.6424023618165,113.22167260677952 74.19803230664911,113.25754253764217 73.98536949453774,113.28942677695477 73.46799578745777,113.30736160214201 73.26882278058838,113.12502221896602 71.8849274659442,112.892856931614 71.36279265112535,113.78859676827369 71.0287215917997,114.21201838633988 70.87795318022836,114.4560976616649 70.8192328515106,114.56767412034696 70.60022189575102,115.10162425526141 70.38755908363964,115.32575247473551 70.24631288753153,115.66043818253138 70.00825750083823,116.09371452501819 69.90668720251779,116.2421183849915 70.00746398288538,116.40745078143345 69.89240387931568,116.61460913763722 69.80114931441494,116.81877405186242 69.84161873015182,117.08965748392939 69.8178131914865,117.695126366958 69.80591042215019,117.73794551257697 69.40200978272696,118.32942227229523 69.25997006866601,118.60025133409408 69.15601921647249,118.65800038824136 68.8497212855982,118.91189183598453 68.62991681188214,119.18170434170588 68.36408829673746,119.40371992590417 68.45375582572524,119.64962192205076 68.44185305639257,119.70039420833973 68.15459955644837,119.7352377361085 68.07604127884406,119.7193092862799 68.05858388381603,119.83877183861296 68.30695500393631,120.42212007633725 68.91082216817813,122.1370614618445 69.06952575931427,122.42666189375404 69.25203488910847,122.61076634575011 69.40200978272696,122.8685050207273 69.5551587481641,123.08344636249194 69.61784666666063,123.24265821818699 69.71544937520594,123.34116886920265 69.47342639873386,123.62276292083197 69.6384781335073,123.89340170402693 69.71148178542717,124.0446367909326 69.9606464235003,124.4724564566227 70.1415685173888,124.7062546168454 70.1987018101936,124.74306473023762 70.31138135989386,124.78285924520469 70.54943674658716,124.98282350273485 70.73115235843215,125.11414042809247 71.07157156140602,125.32105942594126 71.09061599233974,125.72692250334921 71.16044557243731,125.82042707643905 71.30645287627704,125.89801509717381 71.51356106270032,125.9159199116475 71.64607856129442,125.97062880354952 71.73415905436559,125.69011719375249 71.75320348530659,125.66922761377873 71.82779417313577,125.6761908135336 71.86112192727524,125.65132221345038 71.90159134301575,125.60655852658601 71.97459499492834,125.47425540954282 72.05791438027518,125.38074654296724 72.29596976696848,125.24545506597451 72.4403900348916,125.20168377417076 72.54751495890741,125.19273052408016 72.57528808735515,125.22456425386235 72.8355619768081,125.40163692228361 73.12995713835335,125.717969877011 73.48942077226093,126.00444864726751 74.02821946414406,126.23521529664094 74.42735899583568,126.47492662203467 74.96536416976232,126.26903395363252 75.03043264212465,126.27997525135879 75.2177028796541,126.26903395363252 75.38275461443118,126.29887381913295 75.48432491275526,126.37844621650584 75.5724054058337,126.540572377829 75.65096368344166,126.74347382830774 75.67873681188576,126.8747600931456 75.84458206461568,127.29247391334184 75.823950597769,127.49237162815143 75.82791818754777,127.65646280774581 75.80014505910003,127.80265012460268 75.81522190025862,127.90507900553484 75.88108389057743,127.99656770378624 75.93583662951642,128.22429018883258 75.92631441404956,128.65585018897946 76.36989095125318,128.92531407520892 76.39925111561388,129.7028275064199 76.47939642913843,130.0000908837651 76.50002789598148,130.152197715488 76.4936797523369,130.24763573099972 76.54287786558416,130.37488454108188 76.53414916807378,130.4096787640765 76.50082141393432,130.42956110520117 76.49447327029338,130.48920781432753 76.5111371473613,130.54587175140614 76.57779265563295,130.63534025965055 76.61112040977241,130.75462995435964 77.17372464032815,130.95045978213102 77.23403200495522,131.01308449250155 77.32211249803004,131.1870392954056 77.32528656985232,131.32918224407422 77.41812817066238,131.4275873330489 77.46335869413815,131.52300922467612 77.48240312506823,131.57867143782414 77.47922905324958,131.61047823251556 77.46335869413815,131.62538762139957 77.47922905324958,131.71484333639592 77.731567763145,132.058740993416 77.73712238882945,132.23366558353882 77.8077454868835,132.66201493990775 77.77679828661712,132.79816730287484 77.92201207249673,132.8587890980425 78.05691012495663,132.88264016274888 78.3306738196552,132.88363395547503 78.87502713723006,132.93133585262785 79.18608617584323,132.93630478292016 79.19402135539713,132.9204041944763 79.22655559158011,132.9204041944763 80.04784667567583,133.58124418477655 80.07879387594585,133.58820008768498 80.20416971293889,134.1774411796082 80.55887223911122,135.5067910533544 80.59775461893878,135.86243693883353 80.7437619227785,136.34124099808196 80.77788319486717,136.5885781011607 80.83104889789684,136.67002870894385 80.9302386423551,136.76836424886187 80.97388212991427,136.79021641733334 81.09608389508503,136.81504835028318 81.18019679838108,136.81504835028318 81.23177546549778,136.8388869291657 81.87849259934956,136.7614112729152 81.8967435123268,136.80610886381646 81.8983305482434,137.06832940693585 81.92292960486884,137.11401841952738 81.98164993358296,137.13288988761997 83.55043493189805,137.12891695088274 83.68295243049215,137.14480868530063 83.8305467702412,137.1825514206489 83.89323468873772,137.17361236878196 84.01226238208255,137.21830752242386 84.09478824947291,137.2322126274389 84.28523255882465,137.21532785373347 84.11621323427244,138.1488999163994 84.15826968592228,138.17472048414902 84.26698164584377,138.1816721604023 84.16858541934562,138.47760902224854 84.17572708094667,138.51037984165123 84.48361204773755,138.5828723618297 84.60184622312954,138.6424547348115 84.68675264438207,138.6583432883158 84.7462664910563,138.68614817663365 84.30110291793972,139.57882937011846 84.31141865136306,139.5917372241679 84.48043797591163,139.60166632767687 84.50027592480546,139.69599216096367 84.53439719689777,139.71088560606222 84.59153048970256,139.77641641611444 84.59787863334714,139.80818872572672 84.64548971068871,139.82506771092494 84.66215358775662,139.86378994641836 84.85973955871304,139.79329547221278 84.63517397726537,142.2016500127247 84.53201664303197,142.9817686970846 84.52249442756147,143.1355994053124 84.55899625352322,143.36485098274215 84.8272053225337,144.272857212075 84.87878398964676,144.41971574898525 84.99225705730714,144.65785867378509 84.97003855455114,144.69159498251656 84.57010550490304,144.84539095628043 84.67564339300225,145.31767390850337 84.81450903524455,145.70063804113806 84.82561828662438,146.02207485380677 85.02717184735593,146.45460410110672 85.08747921198301,146.5488445826486 85.19936524373043,146.65300375104562 85.23666058764502,146.74327387202948 85.2199967105771,147.32058042119843 85.2747494495161,147.90081845703253 84.84466271755446,147.9781801719114 84.48043797591163,147.9563602810058 84.2828520049552,148.0 84.06463456715574,147.6082253424629 83.88768006304963,147.60921720261376 83.64327653270448,147.57846947762573 83.54567382415917,147.60624162177828 83.44648407970817,147.5586321694891 83.16637224136139,147.55069723169618 82.95370942925001,147.50110368222977 82.72041515028832,147.4852336778531 82.3918987166544,147.42076144329303 82.06338228301684,147.4574610902191 81.96101846673628,147.55466470163037 81.99275918496278,147.577477613454 82.00545547225192,147.56160776901925 82.01815175954471,147.56458336738388 82.0062489902084,147.56061590264062 82.02211934932348,147.56656709897652 82.02529342114576,147.5923555624231" stroke="red" stroke-linecap="round" stroke-linejoin="round" stroke-width="0.5"><title>2025-05-03 66.9km</title><desc>1746236322000</desc></polyline><polyline fill="none" points="139.10448651120532,112.43272129099932 138.44327356736176,112.0 137.70859251869842,112.72120175982127 137.24329452123493,112.2019366902532 132.1495059170993,114.76940407414804 132.3454208635958,115.86561853918829 131.7086972880643,118.0291864372848 131.88012286601588,118.63498228919343 130.85156939795706,120.59659746749094 128.76997309329454,121.80817607257632 127.49652594234794,123.13513677229639 127.37407910102047,123.79861463516136 126.93327047175262,123.74092097385437 125.68431268900167,125.09671870211605 124.23943996010348,125.15441206886317 123.7006738577038,126.01981106615858 122.89252470410429,126.27943021530518 118.77831083163619,130.69291691150283 117.01507631491404,130.86599332632613 116.28039526625071,130.5198403839604 114.93348001036793,127.46213646017713 114.05186275206506,127.80829338895273 112.80290496931411,125.789038276067 111.23558539885562,124.89479181967909 106.58260542410426,130.57753257238073 106.41117984591983,132.3371382970945 106.63158416061196,133.05828481548815 107.61115889216308,133.51981755939778 107.66013762867078,136.40437903389102 108.95807414804585,138.94276721109054 108.83562730648555,139.46197998535354 108.73766983347014,139.1446834105882 110.06009572104085,138.16394614623277 111.52945781836752,135.71208713788656 113.56207538628951,135.42363164844573 114.86001190554816,136.98128756857477 115.91305474191904,140.06772693881067 116.6967145272065,140.99076725851046 119.14565135608427,141.50997602843563 121.42316260677762,142.6926144368481 124.01903564541135,142.23109763581306 124.90065290371422,142.98106203012867 125.07207848189864,144.42329529707786 124.14148248697165,148.0 125.88022763526533,146.1251204777509 127.03122794500086,145.9808984278061 128.3291644641431,146.55778615770396 132.7372507561231,143.6444903058582 135.33312379475683,141.10614707288914 136.4596347360639,140.7600074794027 136.77799652365502,137.61588550900342 139.30040145746898,137.8754933203163 140.25548682070803,136.7793697239831 139.03101840626914,128.87560774481972 137.70859251869842,125.55826528530451 138.83510346000548,124.00054235130665 138.90857156494167,123.19283056532731 137.16982641641516,120.22158392160782 138.02695430640597,116.41372407434392 138.9330609330209,114.22129514417611 139.49631640373264,113.81742468220182" stroke="#4dd2ff" stroke-linecap="round" stroke-linejoin="round" stroke-width="0.5"><title>2025-04-28 5.2km</title><desc>1745795058000</desc></polyline><polyline fill="none" points="164.35704282147344,146.39298789022723 164.4739953018725,148.0 164.39602698164526,147.26536740845768 163.88923289999366,147.12762351337005 164.45450322178658,147.19649547207518 164.18161410093307,145.01553921560117 165.52656762534752,144.0972351127566 164.61043986224104,143.36258895817446 164.12313786067534,142.37540416752745 163.98669330019038,140.95201333015575 164.62993194232695,140.40102075542381 165.39012306474615,138.83986732714402 166.85202906967606,137.1868687767128 170.4385718012927,134.75326405219676 172.1148906868184,133.1231923878222 173.40136797109153,132.45738485248876 173.45984421123285,130.11556237650802 175.11667101667263,130.57474529923638 176.11076709988993,129.77117452984385 175.07768685661722,123.13585911897826 174.14206701354124,120.58729159721406 175.0192106163595,119.46223849819216 175.0581947764149,118.63566505772178 174.96073437621817,118.06165382187464 173.75222541228868,116.70698112333775 174.0835907732835,114.06649242872663 175.0192106163595,112.0" stroke="#4dd2ff" stroke-linecap="round" stroke-linejoin="round" stroke-width="0.5"><title>2025-04-27 2.3km</title><desc>1745711220000</desc></polyline><polyline fill="none" points="15.944733748132421,152.06161120012075 16.68341181670985,152.0 17.15140432372573,152.12322218421286 17.94715464926412,152.15595293164552 18.154245410209114,152.2522194825051 18.922274925222155,152.76819920631715 19.057617705992016,152.98190278944458 19.470168591986294,153.89637075253268 19.483213679290202,154.05615711332757 19.576159926320543,154.1581886078875 19.851737395620148,154.6529367014773 20.08328769525542,154.91089321946674 21.046993519819807,155.7444134047546 21.466066949455126,156.1698207156296 21.555751924672222,156.32766153416196 21.39268833337701,156.4585528455318 21.211687747039832,156.50282468620935 20.619766910625913,156.81849892771788 19.744115425361088,157.14956582420382 19.168500948071596,157.44020662448747 18.2341465699501,158.11578356745667 17.790613601617224,158.53920887701315 17.544387578760507,158.8336759234644 17.306314735462365,159.1781768640176 16.861151131226507,159.90757279081663 16.789403151051374,160.0807758232604 16.78777251514839,160.20394138662232 16.49588868671708,160.96985788006896 16.37359099324385,161.14497480709724 16.21868058151449,161.54715983264396 16.00343664099637,161.95318419381329 15.166920417643269,163.12694600967734 14.844054506880639,163.52138937357086 14.583152760802477,163.89081123936194 14.594567212196125,163.92159604486187 14.672837736012298,163.8677225999054 15.157136602167157,163.21160776943907 15.230515218252549,163.18659411007866 15.29574065477209,163.21353189560614 15.985499645954405,163.66377163597826 16.21868058151449,163.77344367445403 17.603090471624455,164.62193582524924 22.333565255161375,168.11167536802532 22.904287824705534,168.58487235718167 24.80234802740597,169.804353969148 25.456233028504357,170.089015756952 26.19164982525399,170.28327555276337 26.615615162620088,170.32558928359867 27.6771591419747,170.63139913514715 27.89566435431334,170.66986540731887 27.916862621175824,170.64101571106403 28.528351088549243,170.84873246972893 28.993082323737326,171.08337252940328 29.364867311902344,171.33531862284508 29.39584939424094,171.2910840732693 29.420308932938497,171.30070028914997 29.684471950837178,171.50263961029486 29.746436115528923,171.47956094786787 29.751328023274255,171.45455902946378 30.005707225696824,171.5584129197141 30.13778873465344,171.7026534185552 30.310636141424766,171.73342457217404 30.41825811167655,171.79304352938925 30.46065464541607,171.844969553591 30.439456378553587,171.81996815363527 30.447609558112163,171.9180503654825 30.516096266452223,171.88150999742356 30.56827661567513,171.89689542478663 31.23194543224963,172.2622953769078 31.293909596941376,172.32191254492682 31.295540232851636,172.2969118216006 31.45697318823659,172.3526826172456 31.61677550771128,172.36999075932 31.82875817639433,172.43922315763302 31.812451817269903,172.45268498127552 32.073353563348064,172.50845528396349 32.1451015435232,172.5642254101749 32.19402062090376,172.74115015978896 32.24130906237406,172.78730415020073 32.43861600784294,172.7776887455002 32.79572527279379,173.00268784068976 33.977936309696815,173.37383391746698 34.19481088611792,173.4795995032655 34.11654036230175,173.48536851696372 33.97956694561435,173.4488313983038 33.98772012517293,173.42960130543725 33.87194497535529,173.50267554673337 33.64854785527859,173.96803597571852 33.503421259025345,174.18340523878032 33.1316362708676,174.59106128281383 32.97998713095876,174.90641137846978 32.87562643252022,175.01985911857628 32.8250767192294,175.12561482900855 32.64244549697469,175.30443667798863 32.379913114986266,175.65053833020647 31.93311887483287,176.06585134528177 31.73255065752892,176.3600254792218 31.730920021618658,176.4138607371915 31.757010196226474,176.41001536706972 45.317378448504314,187.9404357854928 45.336946079463814,187.93275006576187 45.31900908442185,187.95772864265564 45.35325243859552,187.96925720469335 45.34672989493993,187.9404357854928 45.4168472392048,188.0" stroke="#ffc800" stroke-linecap="round" stroke-linejoin="round" stroke-width="0.5"><title>2025-04-20 36.9km</title><desc>1745145130000</desc></polyline><polyline fill="none" points="68.61775630226475,153.32269179082505 68.34478336479515,153.27800660520734 68.20071431450197,153.42099911352852 67.88224588747835,153.42099911352852 68.07939300895669,153.31375475566165 68.10972333533573,153.13501384784468 67.83675039789523,152.78646795808163 67.88224588747835,152.63453723524435 67.768507163506,152.8043421422626 67.98840202981955,153.07245443813736 68.40544401755324,153.04564324796956 68.2917052936682,153.51036930467671 67.78367232668097,153.58186538759765 67.15431805420667,153.29588068237354 67.32113484936417,152.49154335686762 67.60927295000874,152.0 68.49643499671947,152.16980621971743 68.98172021890059,152.93839839966677 68.07939300895669,153.93040789989027 67.62443811318371,154.06446231823793 67.66993360276683,154.2163903943656 67.50311680763843,154.0376514520758 66.95717093269923,153.9572188010643 66.99508384070941,154.28788586229348 67.45762131808442,155.02071081836766 68.11730591693777,157.2370196536067 68.41302659918438,157.7017219822883 77.48179418826476,160.59711569985666 78.29313041907153,160.71328677386919 78.93006727314787,160.64179690159654 79.09688406827627,160.86520254567586 80.31009712367086,163.64431794161646 82.1829947779188,170.30130189255578 85.40559195633978,178.65527665150876 86.3761624006438,182.0055625965033 86.27758883993374,182.264645684867 83.60093753639376,183.13122800934798 83.72984142357018,183.72978984480142 86.08802429999923,187.803468002734 86.02736364721204,188.0 85.8302165257046,187.67840194155724" stroke="#4dd2ff" stroke-linecap="round" stroke-linejoin="round" stroke-width="0.5"><title>2025-04-16 7.1km</title><desc>1744770713000</desc></polyline><polyline fill="none" points="111.44086021510884,157.9896598541236 111.18279569875449,158.96570975740906 112.00000000023283,160.32133071753196 111.05376344104297,161.35159960997407 111.87096774182282,161.40582421576255 133.16129032266326,181.35998589202063 133.93548387102783,180.65510020541842 133.33333333348855,179.84176904158085 134.064516129205,177.88976757909404 135.5698924730532,176.91376331742504 134.36559139797464,181.7937610890367 136.7741935485974,182.55286656488897 138.49462365615182,178.97421399847372 138.83870967756957,179.3537695586565 138.79569892468862,177.3475432798732 140.47311827959493,177.3475432798732 140.25806451612152,175.99197935321718 141.33333333325572,176.10042463443824 140.30107526876964,185.10128167746007 140.8172043012455,185.31816732892185 140.04301075264812,186.40259384352248 140.559139785124,185.10128167746007 139.8279569891747,183.69152210906032 138.9247311828658,185.04706024640473 137.37634408613667,184.3421809815045 133.97849462367594,184.61328853637679 126.06451612897217,176.69687316173804 125.03225806448609,177.022208351671 125.80645161285065,176.37153771030717 117.59139784937724,168.67185568722198 114.15053763450123,169.6478798262251 112.64516129018739,168.23806642534328 112.73118279571645,167.3704865067266 112.30107526876964,168.7803029298957 110.70967741939239,169.4309857765038 109.54838709696196,169.26831516300444 109.33333333348855,168.50918476859806 108.60215053753927,170.51545486255782 108.30107526900247,169.8647737595311 106.75268817227334,170.46123147729668 107.69892473123036,168.12961903732503 106.40860215062276,165.85221717352397 105.33333333325572,160.21288120769896 106.02150537632406,159.72485805448378 107.61290322593413,160.32133071753196 111.56989247305319,158.85725988441845 110.92473118309863,156.41713005842757 109.8494623657316,155.87487698771292 110.88172043021768,155.7664262864855 109.97849462367594,153.59740615644841 110.83870967733674,154.3023389739392 110.96774193551391,156.0375529853045 110.27956989267841,156.57980583785684 110.49462365591899,154.13966227893252" stroke="#4dd2ff" stroke-linecap="round" stroke-linejoin="round" stroke-width="0.5"><title>2025-04-07 2.7km</title><desc>1743986187000</desc></polyline><polyline fill="none" points="171.32137031003367,170.31479699825286 168.64926590549294,170.092678004381 170.14681892329827,169.05612033832585 171.87928221852053,169.01910034980392 173.14192495914176,167.68637745740125 172.7601957586594,167.16809459630167 171.64437194122002,167.35319572972367 167.32789559545927,162.5405259533436 163.27569331158884,162.8737134852563 161.66068515495863,163.61412878418923 160.75040783034638,164.76176857584505 159.48776508972514,163.3549836552993 158.75367047311738,163.13285906560486 157.69657422520686,163.6511494969891 155.1125611747848,161.6520239036763 152.0,163.3179629028309 153.64437194133643,161.98521250707563 155.43556280585472,161.5779819371819 157.43230016320013,163.46604588313494 158.9885807504179,163.09583828336326 160.75040783034638,164.72474801185308 161.8075040783733,163.57710806638352 163.65742251242045,162.83669266826473 167.6215334420558,162.61456766183255 172.3491027733544,168.4267798580113 171.64437194122002,169.05612033832585 169.17781402939,169.09314032195834 167.26916802604683,170.24075735348742 172.43719412735663,170.35181681319955 177.1941272431286,169.2042002431408 178.3686786297476,172.38789899626863 179.30831973894965,172.79511363228085 183.68352365412284,172.64703565227683 187.97063621529378,176.53405632500653 188.0,176.94126484979643 186.17944535054266,177.71866127621615 183.8009787928313,178.01481172046624 183.6247960848268,178.4220180628181 183.97716150071938,177.97779293224448" stroke="#4dd2ff" stroke-linecap="round" stroke-linejoin="round" stroke-width="0.5"><title>2025-04-04 2.7km</title><desc>1743741381000</desc></polyline><polyline fill="none" points="44.97297581413295,208.66781531918969 43.23565342952497,209.79870886838762 42.64130629808642,209.63715296293958 42.046959166415036,210.5526350345026 40.355355792096816,211.0373006446316 40.03532272123266,210.7141903431475 40.812545893364586,209.39481890741445 40.492512822384015,209.0178543501097 37.33790112414863,209.6102269685216 36.24064488138538,209.47559695223754 35.0062316081021,208.58703701102058 34.20614893094171,206.8099075720238 34.34330596134532,206.35216004677932 35.829173790174536,205.73285322572337 35.62343824468553,203.33639051210776 34.59476051700767,202.20546747568005 32.9260166476015,201.9361993255443 32.26309100096114,202.9324900201027 31.66874386940617,202.58244239454507 29.45137187850196,205.5443682338955 27.50831394852139,207.24072800010617 26.86824780679308,207.4292117018922 25.33666096779052,207.0253178797575 24.673735321033746,205.32895663917589 24.307983240112662,208.72166750996257 24.925189876696095,210.41800553018402 24.490859280573204,210.06796847666556 24.513718785718083,209.4486709402554 25.085206412128173,209.42174492524646 26.25104117009323,210.33722779249365 26.47963622084353,211.09115232058684 28.216958605335094,212.32973763835616 27.462594938464463,212.81439977366244 27.622611473780125,213.24520976482017 24.582297300803475,214.07990199222695 24.10224769450724,212.92210234161757 22.639239370822906,211.25270727819589 22.54780135047622,204.95198589786014 21.016214511473663,205.1943242973357 19.644644207903184,204.06340973898477 18.867421035887673,204.2788224336109 20.673321935581043,201.74771144622355 22.22776827972848,202.5555156336195 23.34788402763661,204.4403818317951 24.90233037166763,203.17483039427316 26.799669291707687,202.95941674000642 28.44555365596898,201.209173858515 29.108479302725755,201.10146620053274 29.359933858271688,201.82849198345502 28.948462767293677,200.5898541859642 29.382793363300152,200.10516814526636 28.582710686256178,200.2128762361972 28.468413160997443,200.69756206628517 28.10266108007636,200.26673026416393 29.13133880775422,199.70126238727244 27.759768504067324,200.34751128411153 27.85120652441401,200.80526989979262 28.216958605335094,200.5898541859642 28.834165242034942,200.912977686472 26.936826321994886,202.8786365713895 24.856611361494288,203.22868377859413 23.507900563068688,204.4403818317951 22.113470754469745,202.50166210305179 20.467586390092038,201.77463829495537 18.753123510512523,204.49423494112852 16.421453994465992,206.9983916015044 16.398594489437528,209.31404083620873 17.312974691856652,209.74485691160953 17.312974691856652,210.68726446577057 15.80424735788256,210.63341270197998 14.775569630088285,208.10236660962983 15.027024185867049,209.0178543501097 14.798429135233164,209.98719062490272 14.478396064369008,210.3641537079675 13.724032397381961,210.0948944214324 13.221123286057264,211.97970328462543 13.86118942766916,215.5608006393595 14.844148145406507,216.61088704627764 15.46135478198994,218.253320967342 15.301338246441446,219.76111957611283 14.364098539110273,220.48809062830696 14.112643983331509,219.68034488313424 14.31837952893693,219.3841707837273 14.88986715534702,219.73419468135398 14.31837952893693,220.78426340864098 15.255619236384518,222.0766495821008 15.80424735788256,225.3614341133507 19.667503712931648,227.649987773475 22.91355343151372,228.0 24.147966704680584,227.89230398290965 27.439735433319584,225.84607076935936 32.125933970557526,226.92303772401647 33.22319021343719,226.49225150363054 36.33208290161565,222.5612926599715 35.87489280034788,221.72662899216812 34.1375704157399,221.43045733762847 33.748958829790354,220.97273681199295 33.33748773869593,218.8725965058693 35.417702699196525,217.49941822366964 36.14920686115511,215.964680553152 37.10930607363116,215.2915469980362 36.789273002767004,213.97219992727332 35.39484319416806,213.05673048582685 35.9434713156661,210.04104252895922 36.56067795213312,209.39481890741445 38.32085984176956,209.23326273872226 40.949702923651785,208.15621892317722 41.88694263109937,208.45240643904253 42.45843025750946,209.50252296129474 43.12135590438265,209.69100494305894 45.544463440659456,207.9946619472612 46.77887671382632,207.67154767927423 46.55028166330885,205.43666245989152 45.38444690522738,202.20546747568005 46.41312463290524,201.10146620053274 46.55028166330885,200.07824111523223 44.83581878384575,197.65479642967694 45.2244303697953,195.23132804548368 46.59600067336578,192.0" stroke="#4dd2ff" stroke-linecap="round" stroke-linejoin="round" stroke-width="0.5"><title>2025-04-01 8.4km</title><desc>1743465137000</desc></polyline><polyline fill="none" points="69.86293035116978,204.27769491256913 69.1069596495945,204.00023560452973 70.44444627547637,203.79214104096172 71.43302334682085,204.90197789506055 72.2471456413623,202.47420715889893 71.54932653205469,201.29500075039687 67.65316983847879,200.39325313828886 66.19938002736308,196.43942097836407 63.40810359013267,197.41054001892917 62.477678111055866,195.3295687569771 69.45586920413189,192.0 68.58359531755559,192.97112609469332 70.73520423774607,194.28908046905417 67.76947302324697,195.53766620205715 71.20041697728448,194.21971452009166 81.60955202416517,211.28350069769658 85.04049597820267,209.82685462210793 85.91276986477897,210.3817678221385 87.54101445293054,213.22569006483536 86.61058897408657,212.04650439933175 85.33125394047238,213.8499639077345 87.30840808339417,212.323960054724 87.83177241520025,212.8788709876826 85.73831508727744,213.01759864203632 89.86707815085538,218.35858939832542 85.44755712524056,220.16203028248856 85.97092145727947,222.93654432945186 87.59916604566388,222.7978189261048 87.36655967589468,223.49144562747097 81.14433928462677,223.63017087313347 81.2024908773601,222.6590934912674 82.01661317097023,223.63017087313347 81.43509724666364,222.4510052803089 83.70300935208797,225.01742159953574 88.35513674700633,225.15614649903728 87.48286286066286,225.15614649903728 88.58774311700836,223.2833576995763 88.47143993200734,219.95394122129073 89.75077496585436,220.57820819230983 90.85565522219986,221.82674022187712 90.56489725993015,223.00590701925103 88.18068196997046,222.31227976683294 84.11007049912587,225.08678405330284 86.31983101204969,225.2255089370883 89.80892655835487,228.0" stroke="#4dd2ff" stroke-linecap="round" stroke-linejoin="round" stroke-width="0.5"><title>2025-03-30 2.1km</title><desc>1743318651000</desc></polyline><polyline fill="none" points="133.7451163008809,192.9935402594856 133.598126423778,192.0 130.6093322543893,193.11042722285492 130.80531875719316,194.39618206844898 127.76752796187066,195.03905828751158 127.86552121350542,196.85079604166094 126.19963593874127,197.72744105401216 126.19963593874127,198.5456417190726 125.70966968149878,198.07809864101 125.61167642986402,199.1300699696876 125.12171017262153,196.5001376188593 125.56267980416305,197.02612516348017 124.72973716678098,197.55211217078613 118.3111791962292,198.37031311448663 118.94813533080742,198.48719885747414 118.89913870510645,200.591137694777 117.2332534303423,199.88982570404187 113.55850650067441,200.591137694777 113.46051324927248,202.28597106295638 115.51837152964436,202.05220127484063 116.84128042473458,208.5977152340347 116.59629729576409,207.19511210295605 117.47823655884713,206.43536714534275 113.70549637777731,207.77953053853707 112.97054699179716,209.0652487622574 112.92155036586337,207.66264690441312 116.20432428992353,206.43536714534275 117.57622981024906,207.66264690441312 116.84128042473458,208.42239005159354 117.82121293898672,222.97417710028822 118.01719944179058,225.01957605860662 119.19311845931225,225.8961731256568 116.54730067029595,226.24681153491838 116.54730067029595,228.0 115.71435803268105,227.298725330038" stroke="#4dd2ff" stroke-linecap="round" stroke-linejoin="round" stroke-width="0.5"><title>2025-03-30 1.4km</title><desc>1743309591000</desc></polyline><polyline fill="none" points="175.73701102065388,197.03417586442083 175.4521030242322,199.01731127264793 176.90254373359494,200.57330001794617 177.26515391096473,201.85469603992533 177.10974954941776,202.7699753328634 176.09962119814008,203.9598339535878 177.65366481535602,209.87854294732097 176.77304009895306,210.5497288753977 175.91831610933878,210.33616989041911 175.34850011626258,211.28192987659713 174.00166231463663,212.1361619652016 172.86203032860067,212.25819490858703 172.18861142767128,213.44801332760835 174.882287031156,216.25474449872854 175.1153935736511,219.7936264294549 173.09513687109575,220.89189106511185 171.4633910729317,222.63080128849833 166.02423841238488,226.44416320804157 165.50622387323529,227.42037553578848 165.22131587658077,226.10858943674248 163.74497444019653,225.74250850171666 161.82832064537797,228.0 161.56931337586138,227.32885577421985 162.76074681582395,223.91209666905343 162.44993809238076,222.63080128849833 164.7551027914742,221.16645655306638 165.58392605395056,219.36652235561633 166.74945876700804,218.63434243231313 166.20554350095335,218.08520623724326 166.74945876700804,218.42078959519858 167.78548784530722,220.12920774598024 171.0489794416353,218.11571383179398 171.644696161733,218.2987593295984 171.6187954347115,217.6886072063353 171.6964976156596,218.23774417693494 171.17848307651002,217.93266821475117 171.2302845303202,217.04794605018105 170.68636926426552,216.95642290866817 170.97127726092003,216.34626786905574 169.96114890952595,215.15646172891138 170.16835472511593,214.66833467481774 171.644696161733,214.45477882178966 171.9037034312496,213.32598090125248 172.65482451301068,212.5632770350494 172.31811506242957,211.73955453292 174.9340884850826,213.53953761263983 175.6075073858956,213.50902952090837 176.87664300680626,214.72935060298187 177.36875681893434,216.01068203212344 178.0162749927258,215.67509579428588 178.43068662413862,214.4852868107846 177.36875681893434,208.07853640199755 175.8406139286235,204.02085220839945 177.10974954941776,202.7699753328634 177.29105463798624,201.27501761144958 175.5039044780424,198.74272412844584 175.78881247458048,195.75275784396217 177.78316845011432,192.0" stroke="#4dd2ff" stroke-linecap="round" stroke-linejoin="round" stroke-width="0.5"><title>2025-03-26 3.9km</title><desc>1742943197000</desc></polyline><polyline fill="none" points="29.332535225665197,233.57548975831014 29.1779644357739,232.99504806814366 29.852455155167263,233.06138437378104 29.922714605054352,232.6467819872487 29.23417199566029,232.0 29.09365309588611,232.3150992615847 28.75640773610212,232.21559430235357 27.238803617481608,234.6866147946712 27.238803617481608,235.0514600454626 27.07018093764782,234.98512461064092 26.943713927816134,235.79773168727115 26.283275098365266,237.124427757808 26.395690218254458,237.53901789891825 28.02570945682237,238.50086265998834 29.220120105776004,239.59536824132374 29.037445535883307,240.04311824718025 28.840719076048117,239.81095174251823 28.854770966107026,240.7396156280738 28.58778505632654,241.17077906991472 29.037445535883307,241.452692965162 29.023393645882607,242.16576694851392 28.658044506213628,242.43109594671114 28.461318046436645,242.23209924162074 28.264591586601455,242.84567157682613 27.82898299692897,242.72959051463113 27.688464097096585,243.02808449491567 27.82898299692897,242.87883757828968 28.96718608593801,243.9401457937638 29.669780585332774,244.17230597564776 29.72598814527737,245.31651882157894 30.18970051483484,245.1672741574439 31.24359226389788,245.68133849329024 32.08670566312503,247.27326860699395 31.918082983233035,247.3893461906846 32.044549993181136,247.28985112438386 32.817403942521196,248.48378761117056 33.30922009196365,248.61644664047344 33.37947954196716,248.86518200769206 33.056286072242074,250.821886000238 33.716724901634734,251.96604867029237 33.18275308213197,252.71223706503224 32.45205480279401,257.2224531952088 32.55041803274071,257.73647666590114 31.651097073510755,257.9851970745949 32.05860188318184,257.78622078021 31.88997920328984,257.6038256144384 30.990658244118094,258.15101045381743 30.372375084727537,257.20587176394474 31.018762024119496,257.88570896002057 30.920398794172797,258.9137496631447 31.31385171378497,258.41631148345186 30.737724224396516,258.5323805379885 31.24359226389788,258.48263666835555 31.004710134118795,257.88570896002057 30.330219414725434,257.32194174487086 30.611257214506622,257.6369883881707 30.414530754671432,257.42143022926757 30.76582800433971,258.3665675757511 30.7517761142808,259.2619554181729 28.742355846217833,263.9046224292251 28.840719076048117,264.3854619623162 32.7471444925759,265.4466196758585 32.5644699226832,266.8559582865855 32.33963968290482,266.8062171467609 32.29748401296092,267.22072614668286 31.918082983233035,267.1875654684263 31.70730463345535,268.0" stroke="#4dd2ff" stroke-linecap="round" stroke-linejoin="round" stroke-width="0.5"><title>2025-03-24 3.9km</title><desc>1742796232000</desc></polyline><polyline fill="none" points="85.40396901449276,267.99746281617263 85.47717460340209,268.0 85.52023671453207,267.89343804151395 85.46640907562687,267.94925627097655 85.46856218118046,267.8376196784411 85.40612212004635,267.84776848166257 85.61927957012085,267.7944872154749 85.63865752013226,267.75642909365524 85.56760503676924,267.634642686442 85.60851404234563,267.56867478364074 85.52669603119284,267.4976322180628 85.60205472567031,267.30987582429407 85.54607398120424,267.2946522666498 85.59559540900227,267.1804752675125 85.4965525534135,267.07644684822844 85.33506963668333,267.1271924765915 85.33076342557615,267.0815214160375 85.36736622002354,267.10435695749584 85.37597864225245,267.05614856596003 85.4965525534135,267.0307756882885 85.38028485335963,267.06629770930886 85.42765317561862,267.0612231381838 85.38889727559581,266.94958229416807 71.7123707814244,232.1600894560852 71.68222730363777,232.18041819695463 71.71021767587808,232.22361671223734 71.78127015923383,232.17025382874817 71.78988258145546,232.20074692003982 71.92337512595986,232.15500726808932 71.94705928707117,232.22615779887383 71.89753785927314,232.0228699898471 71.90399717594846,232.05844548485766 72.00949934821256,232.0 72.11069530935492,232.00508222191092 72.1860540038324,232.09910312672218 72.24634095940564,232.11180862520814 72.16667605382099,232.13213740833817 72.12576704825915,232.05082216908522 72.17744158161076,232.05844548485766 72.14514499826328,232.06606879812352 72.12576704825915,232.11689082265912 71.66930867030169,232.25410973347607 71.80280121479882,232.84871564714558 71.68653351475223,232.88937190583601 71.64777761474397,232.9579791810338 71.52505059802934,232.97830722366052 71.51428507023957,233.07994716997018 71.5228974924612,233.12060302398277 71.64993072028301,233.10535708706266 71.68868662030582,233.17904568947233 71.64777761474397,233.04945523277092 71.64347140362224,233.11552104612565 71.57672513138095,233.12822598869025 71.38079252574971,233.10027510587497 71.18055370900402,233.1561768378724 71.1848599201112,233.10789807724723 71.18055370900402,233.18412765343783 70.72409533105383,233.395028177536 70.7111766977032,233.5373214253923 70.55399999209476,233.61609052711174 70.3279239086769,233.1561768378724 70.24395279197051,233.19683255848213 70.17720651972922,233.17904568947233 70.21165620862303,233.2044554981694 70.19658446974063,233.10281609661433 70.11691956414143,232.99101224126935 70.15567546416423,232.97068420975847 70.04156086966395,232.8995359593937 70.00065186410211,232.79281317525783 70.03079534188873,232.7597798331808 69.89084348072356,232.65559744663733 69.80471925847087,232.70133611290112 69.53558106392302,232.61239973469674 69.3051987693907,232.50821668715798 69.18462485822965,232.47264188098416 69.04897920818621,232.31255457896805 68.7712285913949,232.1499250789784 68.66572641914536,232.16517164297147 68.43319101905217,232.42436169974098 68.25233015231788,232.43452595676172 68.25017704675702,232.46755976136046 68.14252176893933,232.48280611687187 67.86477115216985,232.37354034792952 67.86907736327703,232.26935622908968 67.69467581321078,232.1600894560852" stroke="#4dd2ff" stroke-linecap="round" stroke-linejoin="round" stroke-width="0.5"><title>2025-03-24 4.7km</title><desc>1742777725000</desc></polyline></svg>