<?xml version="1.0" encoding="utf-8" ?>
<svg baseProfile="full" height="300mm" version="1.1" viewBox="0,0,200,300" width="200mm" xmlns="http://www.w3.org/2000/svg" xmlns:ev="http://www.w3.org/2001/xml-events" xmlns:xlink="http://www.w3.org/1999/xlink"><defs /><rect fill="#222222" height="300" width="200" x="0" y="0" /><text fill="#FFFFFF" style="font-size:12px; font-family:Arial; font-weight:bold;" x="10" y="20">Over 1km Runs</text><text fill="#FFFFFF" style="font-size:4px; font-family:Arial" x="10" y="280">ATHLETE</text><text fill="#FFFFFF" style="font-size:9px; font-family:Arial" x="10" y="290">Tao</text><text fill="#FFFFFF" style="font-size:4px; font-family:Arial" x="65" y="280">SPECIAL TRACKS</text><rect fill="yellow" height="2.6" width="2.6" x="65" y="283" /><text fill="#FFFFFF" style="font-size:3px; font-family:Arial" x="70" y="285.5">Over 20.0 km</text><rect fill="red" height="2.6" width="2.6" x="65" y="287" /><text fill="#FFFFFF" style="font-size:3px; font-family:Arial" x="70" y="289.5">Over 40.0 km</text><text fill="#FFFFFF" style="font-size:4px; font-family:Arial" x="120" y="280">STATISTICS</text><text fill="#FFFFFF" style="font-size:3px; font-family:Arial" x="120" y="285">Number: 11</text><text fill="#FFFFFF" style="font-size:3px; font-family:Arial" x="120" y="290">Weekly: 2.2</text><text fill="#FFFFFF" style="font-size:3px; font-family:Arial" x="141" y="285">Total: 76.2 km</text><text fill="#FFFFFF" style="font-size:3px; font-family:Arial" x="141" y="290">Avg: 6.9 km</text><text fill="#FFFFFF" style="font-size:3px; font-family:Arial" x="167" y="285">Min: 1.4 km</text><text fill="#FFFFFF" style="font-size:3px; font-family:Arial" x="167" y="290">Max: 36.9 km</text><polyline fill="none" points="31.53556423226837,84.58948183534085 31.710992952925153,87.0 31.594040472526103,85.89805111268652 30.833849349990487,85.69143527004053 31.681754832854494,85.79474320809823 31.272421151399612,82.52330882340902 33.2898514381377,81.14585266914219 31.915659793419763,80.04388343726168 31.18470679107122,78.56310625129845 30.980039950460196,76.42801999524818 31.944897913606837,75.601531133143 33.085184597293846,73.2598009907233 35.278043604572304,70.78030316508375 40.65785770211369,67.12989607828786 43.17233603040222,64.68478858174058 45.102051956695504,63.68607727874769 45.189766317023896,60.173343564762035 47.675006525125355,60.862117948854575 49.16615065000951,59.656761794758495 47.61653028498404,49.70378867848194 46.21310052042827,45.88093739582109 47.528815924655646,44.193357747310074 47.58729216479696,42.95349758656812 47.441101564327255,42.092480732826516 45.628338118549436,40.060471685021184 46.12538616009988,36.099738643097226 47.528815924655646,33.0" stroke="#4DD2FF" stroke-linecap="round" stroke-linejoin="round" stroke-width="0.5"><title>2025-04-27 2.3km</title><desc>1745711220000</desc></polyline><polyline fill="none" points="78.91710062220227,33.09241680018022 80.02511772506114,33.0 80.72710648558859,33.184833276320205 81.92073197389254,33.233929397467364 82.23136811531731,33.37832922375674 83.38341238783323,34.152298809474814 83.58642655899166,34.472854184165044 84.20525288798672,35.84455612879901 84.22482051893894,36.08423566998863 84.36423988948809,36.237282911830334 84.77760609342658,36.97940505221595 85.12493154288677,37.366339829197386 86.57049027972971,38.616620107130075 87.19910042418633,39.25473107344442 87.33362788701197,39.49149230124203 87.08903250006551,39.6878292682959 86.81753162055975,39.75423702931221 85.9296503659425,40.227748391575005 84.61617313804163,40.72434873630664 83.75275142211467,41.16030993672939 82.35121985492879,42.17367535118319 81.68592040243675,42.80881331551791 81.31658136814076,43.25051388519569 80.95947210320446,43.76726529602638 80.2917266968434,44.861359186223126 80.18410472657706,45.121163734889706 80.18165877272259,45.30591207993348 79.74383303007926,46.45478682010253 79.56038648987305,46.71746221064677 79.32802087227174,47.320739748965934 79.00515496150183,47.92977629071902 77.75038062645763,49.69041901451601 77.26608176031732,50.282084060354464 76.87472914120008,50.836216859042906 76.89185081829783,50.88239406729372 77.00925660402572,50.80158389985627 77.73570490325801,49.817411654157695 77.84577282739338,49.7798911651189 77.94361098216905,49.82029784340921 78.97824946892797,50.495657453968306 79.32802087227174,50.660165511679224 81.40463570744032,51.93290373787204 88.50034788274206,57.167513052036156 89.35643173706194,57.87730853577159 92.20352204110532,59.706530953719266 93.18434954276017,60.13352363542617 94.28747473788098,60.42491332914324 94.92342274393013,60.48838392539619 96.51573871295841,60.94709870272163 96.84349653146637,61.0047981109783 96.87529393176374,60.96152356659513 97.79252663282386,61.273098704592485 98.48962348561327,61.625058794104916 99.04730096785352,62.00297793426762 99.09377409136505,61.936626109903955 99.13046339941502,61.95105043372314 99.52670792627032,62.253959415442296 99.61965417329338,62.2193414218018 99.62699203491502,62.18183854419476 100.00856083855615,62.33761937957024 100.20668310197652,62.55398012783189 100.46595421213715,62.60013685826016 100.6273871675221,62.68956529408206 100.69098196813138,62.76745433038559 100.65918456783402,62.72995223045291 100.67141433717916,62.87707554822191 100.77414439969289,62.822264996133526 100.85241492351633,62.84534313717995 101.84791814838536,63.39344306536077 101.94086439540843,63.48286881738932 101.94331034927745,63.44536773239997 102.18545978236943,63.52902392586839 102.42516326156328,63.554986138979075 102.74313726459513,63.658834736450444 102.71867772590485,63.67902747191147 103.1100303450221,63.76268292594432 103.21765231528843,63.84633811526146 103.29103093135927,64.11172523968344 103.36196359356109,64.18095622530018 103.65792401177168,64.1665331182503 104.19358790920523,64.50403176103464 105.96690446454159,65.06075087619865 106.29221632918052,65.21939925489642 106.17481054345262,65.22805277544285 105.96935041842517,65.17324709745662 105.98158018775575,65.14440195815405 105.80791746302566,65.25401332010006 105.47282178291061,65.95205396357596 105.25513188853802,66.2751078581714 104.69745440629777,66.88659192421983 104.4699806964345,67.35961706770286 104.31343964878761,67.5297886778626 104.23761507884774,67.68842224351283 103.96366824547295,67.95665501698204 103.56986967247212,68.47580749530789 102.89967831225658,69.09877701792175 102.59882598629338,69.54003821883089 102.59638003242435,69.62079110578452 102.63551529434335,69.61502305060458 122.97606767276011,86.9106536782383 123.005419119203,86.89912509864189 122.97851362664369,86.93659296398073 123.02987865789328,86.95388580703911 123.02009484240261,86.9106536782383 123.12527085879992,87.0" stroke="yellow" stroke-linecap="round" stroke-linejoin="round" stroke-width="0.5"><title>2025-04-20 36.9km</title><desc>1745145130000</desc></polyline><polyline fill="none" points="147.92663445341168,34.98403768624121 147.51717504725093,34.91700990781828 147.3010714717675,35.131498670292785 146.82336883124663,35.131498670292785 147.11908951343503,34.97063213349611 147.16458500298904,34.70252077176701 146.7551255968283,34.179701937122445 146.82336883124663,33.95180585286289 146.6527607453172,34.20651321338664 146.98260304471478,34.60868165719876 147.60816602635896,34.56846487194707 147.43755794048775,35.265553957011434 146.6755084900651,35.372798081400106 145.7314770813682,34.943821023560304 145.9817022740608,33.73731503530871 146.41390942502767,33.0 147.74465249513742,33.254709329572506 148.4725803284091,34.40759759950015 147.11908951343503,35.89561184983177 146.43665716977557,36.096693477353256 146.5049004041357,36.32458559155202 146.2546752114431,36.056477178120986 145.4357563990634,35.93582820159645 145.49262576107867,36.431828793443856 146.18643197714118,37.53106622755149 147.1759588754503,40.85552948041732 147.619539898762,41.55258297343971 161.22269128245534,45.89567354978499 162.43969562865095,46.06993016080378 163.3951009097509,45.962695352391165 163.6453261024435,46.29780381851015 165.4651456855354,50.46647691242106 168.2744921669364,60.45195283883368 173.10838793450966,72.98291497726314 174.5642436009948,78.00834389476222 174.41638325992972,78.39696852730413 170.40140630461974,79.69684201401833 170.59476213535527,80.59468476720212 174.13203645002795,86.70520200410829 174.04104547086172,87.0 173.7453247885569,86.51760291233222" stroke="#4DD2FF" stroke-linecap="round" stroke-linejoin="round" stroke-width="0.5"><title>2025-04-16 7.1km</title><desc>1744770713000</desc></polyline><polyline fill="none" points="22.161290322663262,101.98448978119995 21.774193548131734,103.44856463611359 23.00000000023283,105.48199607629795 21.580645161448047,107.02739941491745 22.80645161285065,107.10873632360017 54.74193548387848,137.03997883800184 55.90322580654174,135.98265030811308 55.00000000023283,134.76265356235672 56.09677419369109,131.83465136861196 58.35483870981261,130.3706449761521 56.54838709696196,137.69064163352596 60.16129032266326,138.82929984730436 62.74193548411131,133.46132099768147 63.25806451612152,134.03065433795564 63.19354838691652,131.0213149198098 65.70967741939239,131.0213149198098 65.38709677406587,128.9879690298112 67.0,129.1506369516719 65.45161290327087,142.65192251617555 66.22580645186827,142.97725099336822 65.06451612897217,144.60389076528372 65.83870967756957,142.65192251617555 64.74193548364565,140.53728316357592 63.38709677406587,142.57059036957799 61.064516129205,141.5132714722422 55.967741935513914,141.91993280453607 44.09677419369109,130.0453097426216 42.54838709696196,130.53331252752105 43.70967741939239,129.55730656546075 31.387096774065867,118.00778353080386 26.225806451635435,119.47181973932311 23.967741935281083,117.35709963797126 24.09677419369109,116.05572976003168 23.45161290303804,118.170454394829 21.064516128972173,119.14647866471205 19.322580645326525,118.90247274452122 19.00000000023283,117.76377715286799 17.90322580630891,120.77318229380762 17.45161290327087,119.79716063931119 15.129032258410007,120.69184721593047 16.54838709696196,117.19442855595844 14.612903225934133,113.7783257602714 13.0,105.31932181149023 14.032258064486086,104.58728708169656 16.419354839017615,105.48199607629795 22.35483870957978,103.28588982659858 21.38709677453153,99.6256950875977 19.774193548597395,98.81231548159849 21.322580645326525,98.64963942969916 19.967741935513914,95.39610923465807 21.25806451612152,96.45350846089423 21.45161290327087,99.05632947792765 20.419354838784784,99.8697087567416 20.74193548387848,96.20949341839878" stroke="#4DD2FF" stroke-linecap="round" stroke-linejoin="round" stroke-width="0.5"><title>2025-04-07 2.7km</title><desc>1743986187000</desc></polyline><polyline fill="none" points="101.98205546475947,120.47219549739384 97.97389885806479,120.13901700658607 100.2202283849474,118.58418050748878 102.81892332760617,118.52865052473499 104.71288743871264,116.52956618607277 104.14029363775626,115.75214189448161 102.46655791183002,116.0297935945855 95.99184339307249,108.8107889300154 89.91353996726684,109.31057022788445 87.49102773237973,110.4211931762693 86.12561174528673,112.14265286375303 84.2316476344131,110.03247548293439 83.13050570944324,109.69928859840729 81.54486133763567,110.47672424546909 77.66884176200256,107.47803585551446 73.0,109.97694435421727 75.46655791183002,107.97781876061345 78.15334420860745,107.3669729057874 81.14845024468377,110.19906882470241 83.48287112545222,109.64375742501579 86.12561174528673,112.08712201777962 87.71125611732714,110.36566209958983 90.48613376845606,109.2550390023971 96.4323001629673,108.92185149274883 103.52365415985696,117.64016978701693 102.46655791183002,118.58418050748878 98.76672104396857,118.63971048296662 95.90375203895383,120.36113603023114 103.65579119091853,120.52772521981387 110.79119086451828,118.80630036469665 112.55301794456318,123.5818484944175 113.96247960836627,124.19267044845037 120.52528548100963,123.97055347840069 126.95595432282425,129.80108448752435 127.0,130.41189727469464 124.269168025814,131.57799191429513 120.70146818901412,132.02221758072847 120.4371941271238,132.6330270942126 120.96574225090444,131.96668939836673" stroke="#4DD2FF" stroke-linecap="round" stroke-linejoin="round" stroke-width="0.5"><title>2025-04-04 2.7km</title><desc>1743741381000</desc></polyline><polyline fill="none" points="182.45946372137405,118.00172297877725 179.85348014440387,119.69806330258143 178.96195944712963,119.45572944442392 178.07043874985538,120.82895255176118 175.53303368831985,121.5559509669256 175.0529840819072,121.07128551471396 176.2188188401051,119.0922283611435 175.73876923369244,118.52678152517183 171.00685168639757,119.41534045277513 169.36096732213628,119.21339542834903 167.50934741226956,117.88055551651632 166.30922339658719,115.21486135805026 166.5149589421926,114.52824007015442 168.74376068543643,113.59927983858506 168.43515736726113,110.00458576815436 166.89214077556971,108.3082012135128 164.38902497151867,107.90429898831644 163.39463650155813,109.39873503014678 162.50311580416746,108.87366359183216 159.17705781792756,113.31655235085054 156.2624709228985,115.86109200015198 155.30237171042245,116.14381755283102 153.004991451744,115.53797681964352 152.01060298178345,112.9934349587711 151.4619748602854,118.08250126495841 152.38778481516056,120.62700829526875 151.73628892097622,120.10195271499106 151.77057817857713,119.17300641039037 152.62780961825047,119.13261738789151 154.37656175531447,120.50584168874775 154.7194543313235,121.63672848086571 157.32543790806085,123.49460645753425 156.1938924078131,124.22159966049367 156.4339172107866,124.86781464723754 151.87344595137984,126.11985298834043 151.15337154187728,124.38315351243364 148.95885905635078,121.8790609173011 148.82170202583075,112.42797884679749 146.52432176738512,112.791486445989 144.46696631191298,111.09511460846988 143.30113155394793,111.41823365041637 146.00998290337157,107.62156716934987 148.34165241965093,108.83327345043654 150.02182604151312,111.66057274769992 152.35349555767607,109.76224559140974 155.19950393761974,109.4391251100169 157.66833048395347,106.81376078777248 158.66271895414684,106.65219930079184 159.03990078764036,107.74273797517526 158.42269415105693,105.88478127893177 159.07419004512485,105.15775221789954 157.8740660295589,105.31931435430306 157.7026197416708,106.04634309944231 157.15399162017275,105.40009539623861 158.69700821174774,104.55189358090865 156.6396527562756,105.5212669261673 156.77680978679564,106.2079048496962 157.32543790806085,105.88478127893177 158.25124786316883,106.36946652969345 155.40523948322516,109.31795485707698 152.28491704235785,109.84302566788392 150.26185084471945,111.66057274769992 148.17020613176282,108.75249315457768 145.70137958519626,107.66195744244033 143.1296852659434,111.74135241168551 139.6321809918154,115.49758740226389 139.5978917342145,118.97106125429855 140.9694620379014,119.61728536742157 140.9694620379014,121.03089669864858 138.70637103694025,120.95011905298452 137.16335444524884,117.15354991445201 137.54053627885878,118.52678152517183 137.19764370296616,119.98078593736864 136.71759409678634,120.54623056194396 135.58604859630577,120.14234163213405 134.8316849292023,122.96955492693814 135.79178414167836,128.34120095905382 137.26622221816797,129.91633056942374 138.19203217315953,132.37998145102756 137.9520073698368,134.64167936416925 136.54614780889824,135.73213594246772 136.1689659751719,134.52051732470863 136.4775692934636,134.0762561755837 137.33480073313694,134.60129202203825 136.4775692934636,136.17639511296875 137.8834288547514,138.11497437313665 138.70637103694025,143.04215117002605 144.5012555695139,146.47498166019795 149.3703301473288,147.0 151.2219500571955,146.8384559743572 156.1596031500958,143.76910615403904 163.1889009559527,145.38455658601015 164.834785320214,144.7383772554458 169.49812435242347,138.84193898996455 168.81233920063823,137.589943488274 166.20635562378448,137.14568600643543 165.62343824480195,136.45910521800397 165.0062316081021,133.30889475881122 168.126554048853,131.24912733549718 169.22381029184908,128.94702082974254 170.66395911050495,127.93732049706159 170.1839095042087,125.95829989091726 168.0922647913685,124.58509572871844 168.91520697355736,120.06156379342428 169.8410169283161,119.0922283611435 172.48128976277076,118.84989410807611 176.4245543857105,117.23432838477311 177.8304139468819,117.67860965855652 178.6876453863224,119.25378444194212 179.6820338566322,119.53650741459569 183.3166951610474,116.99199292089907 185.1683150709141,116.50732151890406 184.8254224951379,113.15499368985184 183.07667035795748,108.3082012135128 184.61968694941606,106.65219930079184 184.8254224951379,105.1173616728338 182.25372817588504,101.4821946445154 182.83664555486757,97.84699206822552 184.8940010102233,93.0" stroke="#4DD2FF" stroke-linecap="round" stroke-linejoin="round" stroke-width="0.5"><title>2025-04-01 8.4km</title><desc>1743465137000</desc></polyline><polyline fill="none" points="29.794395526871085,171.4165423688246 28.660439474508166,171.0003534068237 30.66666941344738,170.6882115614717 32.149535020347685,172.35296684259083 33.37071846192703,168.7113107383484 32.32398979784921,166.9425011256244 26.479754757601768,165.58987970743328 24.29907004116103,159.6591314675752 20.11215538531542,161.11581002845196 18.716517166700214,157.99435313552385 29.183803806081414,153.0 27.875392976216972,154.45668914203998 31.102806356735528,156.43362070358125 26.65420953463763,158.30649930314394 31.8006254658103,156.3295717801666 47.41432803636417,181.92525104648666 52.56074396753684,179.7402819332201 53.86915479740128,180.57265173323685 56.31152167962864,184.83853509725304 54.9158834614791,183.06975659902673 52.996880910824984,185.77494586160174 55.962612125556916,183.48594008211512 56.74765862291679,184.3183064815239 53.607472631148994,184.52639796305448 59.80061722639948,192.53788409754634 53.17133568786085,195.24304542370373 53.95638218615204,199.4048164942069 56.3987490683794,199.1967283891281 56.04983951384202,200.23716844117735 46.7165089272894,200.4452563097002 46.80373631604016,198.98864023690112 48.02491975668818,200.4452563097002 47.15264587011188,198.67650792043423 50.55451402813196,202.5261323992745 57.53270512074232,202.73421974858502 56.22429429087788,202.73421974858502 57.88161467574537,199.92503654939355 57.707159898243845,194.930911831907 59.62616244889796,195.86731228849385 61.283482833299786,197.74011033284478 60.84734589001164,199.50886052893475 57.2710229549557,198.46841965027852 51.16510574892163,202.63017607998336 54.47974651819095,202.83826340566156 59.71338983764872,207.0" stroke="#4DD2FF" stroke-linecap="round" stroke-linejoin="round" stroke-width="0.5"><title>2025-03-30 2.1km</title><desc>1743318651000</desc></polyline><polyline fill="none" points="115.61767445132136,154.4903103891993 115.39718963578343,153.0 110.91399838170037,154.66564083425328 111.20797813590616,156.59427310264437 106.65129194268957,157.55858743126737 106.7982818200253,160.2761940624914 104.2994539081119,161.59116158093093 104.2994539081119,162.81846257857978 103.56450452189893,162.117147961515 103.4175146445632,163.69510495453142 102.68256525881588,159.75020642823074 103.344019706361,160.53918774519116 102.0946057504043,161.3281682561501 92.46676879422739,162.55546967167174 93.4222029959783,162.730798286153 93.3487080577761,165.88670654210728 90.84988014539704,164.8347385560046 85.3377597508952,165.88670654210728 85.19076987402514,168.42895659443457 88.27755729435012,168.07830191223184 90.26192063698545,177.89657285099383 89.89444594364613,175.79266815440496 91.2173548382707,174.65305071801413 85.55824456643313,176.6692958077765 84.4558204873465,178.5978731433861 84.38232554867864,176.4939703566488 89.30648643476889,174.65305071801413 91.36434471514076,176.4939703566488 90.26192063698545,177.6335850774194 91.73181940848008,199.46126565040322 92.02579916268587,202.52936408785172 93.78967768885195,203.84425968851428 89.82095100544393,204.37021730229026 89.82095100544393,207.0 88.57153704902157,205.9480879949988" stroke="#4DD2FF" stroke-linecap="round" stroke-linejoin="round" stroke-width="0.5"><title>2025-03-30 1.4km</title><desc>1743309591000</desc></polyline><polyline fill="none" points="168.60551653127186,160.55126379663125 168.17815453652292,163.52596690898645 170.35381560050882,165.8599500269047 170.89773086667992,167.782044059888 170.66462432406843,169.15496299928054 169.14943179744296,170.9397509303817 171.48049722332507,179.817814420996 170.1595601486042,180.82459331309656 168.87747416412458,180.50425483565778 168.0227501746267,181.9228948148957 166.00249347207136,183.2042429478024 164.29304549307562,183.387292362866 163.28291714168154,185.17201999141253 167.32343054679222,189.38211674807826 167.67309036059305,194.69043964415323 164.64270530687645,196.33783659763867 162.19508660957217,198.94620193276205 154.03635761863552,204.6662448120769 153.25933580985293,206.13056330365362 152.831973815104,204.16288415511372 150.6174616604112,203.61376275258954 147.742480968358,207.0 147.35397006385028,205.99328366131522 149.14112022402696,200.8681450035656 148.67490713857114,198.94620193276205 152.1326541872695,196.74968482961413 153.37588908104226,194.04978353340994 155.12418815074489,192.9515136484406 154.30831525148824,192.12780935587944 155.12418815074489,192.63118439281243 156.67823176807724,195.1938116189849 161.5734691626858,192.17357074769097 162.46704424289055,192.4481389943976 162.42819315218367,191.53291080950294 162.54474642360583,192.3566162654024 161.76772461482324,191.8990023221122 161.84542679577135,190.57191907524248 161.0295538965147,190.4346343630168 161.45691589149646,189.5194018035836 159.94172336440533,187.73469259336707 160.2525320877321,187.00250201224117 162.46704424289055,186.6821682326845 162.8555551469326,184.98897135187872 163.98223676951602,183.84491555255954 163.47717259381898,182.60933179938002 167.40113272774033,185.30930641895975 168.41126107913442,185.26354428136256 170.3149645102676,187.09402590445825 171.05313522857614,189.0160230481997 172.02441248926334,188.51264369144337 172.64602993614972,186.7279302161769 171.05313522857614,177.11780460301088 168.76092089293525,171.03127831261372 170.66462432406843,169.15496299928054 170.93658195715398,166.91252641714527 168.2558567172382,163.1140861926542 168.68321871198714,158.6291367659287 171.67475267522968,153.0" stroke="#4DD2FF" stroke-linecap="round" stroke-linejoin="round" stroke-width="0.5"><title>2025-03-26 3.9km</title><desc>1742943197000</desc></polyline><polyline fill="none" points="38.998802838497795,215.3632346374652 38.76694665371906,214.49257210220094 39.778682732838206,214.59207656067156 39.88407190761063,213.97017298087303 38.85125799360685,213.0 38.64047964382917,213.4726488923916 38.134611604269594,213.32339145353762 35.858205426251516,217.02992219201406 35.858205426251516,217.57719006820116 35.60527140647173,217.47768691596866 35.4155708916951,218.696597530914 34.424912647577,220.686641636712 34.593535327469,221.30852684838464 37.03856418526266,222.7512939899898 38.830180158722214,224.3930523619929 38.55616830382496,225.06467737077037 38.26107861415949,224.71642761377734 38.28215644916054,226.10942344210343 37.88167758448981,226.75616860485752 38.55616830382496,227.17903944774298 38.535090468940325,228.24865042275633 37.98706675937865,228.64664392007398 37.691977069713175,228.34814886242384 37.396887379931286,229.2685073652392 36.74347449548077,229.09438577193941 36.532696145703085,229.5421267423808 36.74347449548077,229.31825636741996 38.45077912893612,230.91021869065298 39.50467087805737,231.25845896346436 39.58898221794516,232.9747782323684 40.284550772281364,232.75091123617312 41.86538839584682,233.52200773994264 43.130058494745754,235.90990291048365 42.87712447496597,236.08401928603416 43.0668249897426,235.9347766865685 44.22610591375269,237.72568141674856 44.96383013797458,237.9246699607029 45.06921931297984,238.29777301152353 44.58442910842132,241.2328290003643 45.575087352423,242.94907300543855 44.77412962319795,244.06835559755564 43.67808220430743,250.83367979280592 43.82562704908196,251.60471499884443 42.476645610295236,251.9777956118778 43.087902824860066,251.67933117032226 42.834968804963864,251.4057384216576 41.48598736629356,252.22651568072615 40.5585626270622,250.80880764590984 41.528143036179245,251.82856344002357 41.3805981912883,253.37062449470977 41.97077757073566,252.6244672251778 41.10658633662388,252.79857080697548 41.86538839584682,252.72395500252605 41.50706520117819,251.82856344002357 40.49532912217546,250.982912617299 40.91688582173083,251.45548258225608 40.621796132065356,251.13214534390136 41.148742006509565,252.5498513636121 41.12766417150851,253.8929331272666 38.11353376938496,260.85693364382314 38.26107861415949,261.5781929434743 44.12071673886385,263.1699295137805 43.84670488408301,265.2839374298783 43.50945952429902,265.2093257201341 43.446226019528694,265.8310892200243 42.87712447496597,265.78134820262494 42.56095695029944,267.0" stroke="#4DD2FF" stroke-linecap="round" stroke-linejoin="round" stroke-width="0.5"><title>2025-03-24 3.9km</title><desc>1742796232000</desc></polyline><polyline fill="none" points="113.10595352172095,266.99619422425894 113.2157619050995,267.0 113.28035507179447,266.84015706227365 113.19961361342575,266.92388440646755 113.20284327176341,266.7564295176635 113.10918318005861,266.77165272249476 113.42891935516673,266.6917308232114 113.45798628019111,266.63464364048195 113.35140755515022,266.45196402966394 113.41277106350753,266.35301217546294 113.29004404677835,266.246448327096 113.40308208849456,265.964813736442 113.31911097180273,265.94197839997287 113.39339311349613,265.7707129012706 113.24482883010933,265.61467027234175 113.00260445501772,265.6907887148882 112.99614513835695,265.62228212405535 113.0510493300244,265.65653543624285 113.06396796337503,265.5842228489382 113.24482883010933,265.5461635324318 113.0704272800358,265.5994465639669 113.14147976342065,265.5918347072766 113.08334591338644,265.4243734412521 92.56855617213296,213.2401341841287 92.52334095544938,213.27062729543104 92.56532651380985,213.33542506835875 92.67190523883619,213.25538074312135 92.68482387217227,213.30112038005973 92.88506268893252,213.2325109021367 92.92058893060312,213.33923669831347 92.84630678890971,213.03430498477246 92.85599576390814,213.08766822728649 93.01424902230792,213.0 93.16604296401783,213.00762333286548 93.27908100573404,213.1486546900851 93.36951143910119,213.1677129378113 93.25001408072421,213.19820611250907 93.18865057238145,213.07623325362874 93.26616237239796,213.08766822728649 93.21771749739128,213.0991031971862 93.18865057238145,213.17533623398776 92.50396300545253,213.3811646002141 92.70420182218368,214.27307347071837 92.5298002721247,214.3340578587522 92.47166642210505,214.43696877155162 92.2875758970331,214.46746083549442 92.2714276053448,214.61992075495436 92.28434623868088,214.68090453597324 92.4748960804136,214.65803563059308 92.53302993044781,214.7685685342076 92.47166642210505,214.57418284915911 92.46520710542973,214.67328156918666 92.36508769706415,214.6923389830372 92.07118878861365,214.65041265881155 91.77083056348783,214.7342652568077 91.77728988016315,214.66184711587266 91.77083056348783,214.77619148015947 91.08614299657347,215.09254226630583 91.06676504654752,215.30598213808844 90.83099998813123,215.42413579066852 90.49188586299715,214.7342652568077 90.36592918794486,214.7952488377232 90.26580977957929,214.7685685342076 90.31748431292363,214.8066832472541 90.29487670460367,214.65422414492423 90.17537934621214,214.48651836190402 90.2335131962318,214.4560263146377 90.06234130448138,214.34930393909235 90.00097779613861,214.18921976288766 90.04619301282219,214.13966974976938 89.83626522107807,213.98339616995872 89.70707888768811,214.05200416935259 89.30337159587361,213.91859960204602 88.95779815407877,213.76232503073697 88.77693728732993,213.70896282147442 88.57346881226113,213.46883186845298 88.15684288708144,213.22488761846762 87.99858962871076,213.24775746445812 87.64978652856371,213.63654254961148 87.37849522846227,213.6517889351453 87.37526557012461,213.7013396420407 87.21378265340172,213.7242091753069 86.79715672825114,213.56031052189428 86.8036160449119,213.40403434363543 86.54201371980889,213.2401341841287" stroke="#4DD2FF" stroke-linecap="round" stroke-linejoin="round" stroke-width="0.5"><title>2025-03-24 4.7km</title><desc>1742777725000</desc></polyline></svg>